<?xml version="1.0" encoding="UTF-8" standalone="no"?><svg xmlns="http://www.w3.org/2000/svg" xmlns:xlink="http://www.w3.org/1999/xlink" contentScriptType="application/ecmascript" contentStyleType="text/css" height="1012px" preserveAspectRatio="none" style="width:1351px;height:1012px;" version="1.1" viewBox="0 0 1351 1012" width="1351px" zoomAndPan="magnify"><defs><filter height="300%" id="fh27sjsrx7mof" width="300%" x="-1" y="-1"><feGaussianBlur result="blurOut" stdDeviation="2.0"/><feColorMatrix in="blurOut" result="blurOut2" type="matrix" values="0 0 0 0 0 0 0 0 0 0 0 0 0 0 0 0 0 0 .4 0"/><feOffset dx="4.0" dy="4.0" in="blurOut2" result="blurOut3"/><feBlend in="SourceGraphic" in2="blurOut3" mode="normal"/></filter></defs><g><!--MD5=[36dcaeb2ee32dc79d2fef22c819c4e4a]
cluster core.database--><polygon fill="#FFEEFF" filter="url(#fh27sjsrx7mof)" points="16,6,138,6,145,28.2969,1329,28.2969,1329,1000,16,1000,16,6" style="stroke: #000000; stroke-width: 1.5;"/><line style="stroke: #000000; stroke-width: 1.5;" x1="16" x2="145" y1="28.2969" y2="28.2969"/><text fill="#000000" font-family="sans-serif" font-size="14" font-weight="bold" lengthAdjust="spacingAndGlyphs" textLength="116" x="20" y="20.9951">core.database</text><!--MD5=[ad949281d8795506a47ed9505af68aa3]
cluster core.database.entity--><polygon fill="#FFEEFF" filter="url(#fh27sjsrx7mof)" points="625,49,680,49,687,71.2969,1305,71.2969,1305,384,625,384,625,49" style="stroke: #000000; stroke-width: 1.5;"/><line style="stroke: #000000; stroke-width: 1.5;" x1="625" x2="687" y1="71.2969" y2="71.2969"/><text fill="#000000" font-family="sans-serif" font-size="14" font-weight="bold" lengthAdjust="spacingAndGlyphs" textLength="49" x="629" y="63.9951">entity</text><!--MD5=[cbc3ec0e6b6f70973afb9e2f51d60525]
cluster core.database.room--><polygon fill="#FFEEFF" filter="url(#fh27sjsrx7mof)" points="256,531,304,531,311,553.2969,560,553.2969,560,668,256,668,256,531" style="stroke: #000000; stroke-width: 1.5;"/><line style="stroke: #000000; stroke-width: 1.5;" x1="256" x2="311" y1="553.2969" y2="553.2969"/><text fill="#000000" font-family="sans-serif" font-size="14" font-weight="bold" lengthAdjust="spacingAndGlyphs" textLength="42" x="260" y="545.9951">room</text><!--MD5=[3b7c81fa44273f663513f2e3ec63bf53]
cluster core.database.dao--><polygon fill="#FFEEFF" filter="url(#fh27sjsrx7mof)" points="130,692,166,692,173,714.2969,638,714.2969,638,976,130,976,130,692" style="stroke: #000000; stroke-width: 1.5;"/><line style="stroke: #000000; stroke-width: 1.5;" x1="130" x2="173" y1="714.2969" y2="714.2969"/><text fill="#000000" font-family="sans-serif" font-size="14" font-weight="bold" lengthAdjust="spacingAndGlyphs" textLength="30" x="134" y="706.9951">dao</text><!--MD5=[0b81ff58b97d2efcf745dcc6a972afa3]
cluster core.database.impl--><polygon fill="#FFEEFF" filter="url(#fh27sjsrx7mof)" points="40,408,81,408,88,430.2969,727,430.2969,727,507,40,507,40,408" style="stroke: #000000; stroke-width: 1.5;"/><line style="stroke: #000000; stroke-width: 1.5;" x1="40" x2="88" y1="430.2969" y2="430.2969"/><text fill="#000000" font-family="sans-serif" font-size="14" font-weight="bold" lengthAdjust="spacingAndGlyphs" textLength="35" x="44" y="422.9951">impl</text><!--MD5=[4faf1b3c94cc078cd7f59c0361f6387c]
class core.database.BaseDatabase--><rect codeLine="66" fill="#FEFECE" filter="url(#fh27sjsrx7mof)" height="137.6328" id="core.database.BaseDatabase" style="stroke: #A80036; stroke-width: 1.5;" width="270" x="208" y="58"/><ellipse cx="223" cy="74" fill="#B4A7E5" rx="11" ry="11" style="stroke: #A80036; stroke-width: 1.0;"/><path d="M223.9531,70.7813 L225.6719,70.7813 C226.0625,70.7813 226.25,70.75 226.375,70.6719 C226.6406,70.5156 226.7813,70.2344 226.7813,69.9375 C226.7813,69.6719 226.6719,69.4063 226.4375,69.2344 C226.2656,69.125 226.125,69.0938 225.6719,69.0938 L220.5313,69.0938 C220.0938,69.0938 219.9688,69.1094 219.8125,69.2031 C219.5625,69.3594 219.4063,69.6563 219.4063,69.9375 C219.4063,70.2188 219.5469,70.4688 219.7656,70.6406 C219.9219,70.75 220.1094,70.7813 220.5313,70.7813 L222.25,70.7813 L222.25,77.2969 L220.5313,77.2969 C220.0938,77.2969 219.9688,77.3125 219.8125,77.4219 C219.5625,77.5781 219.4063,77.8594 219.4063,78.1563 C219.4063,78.4063 219.5469,78.6719 219.7656,78.8281 C219.9219,78.9531 220.125,79 220.5313,79 L225.6719,79 C226.4219,79 226.7813,78.7188 226.7813,78.1563 C226.7813,77.875 226.6719,77.625 226.4375,77.4531 C226.2656,77.3281 226.125,77.2969 225.6719,77.2969 L223.9531,77.2969 L223.9531,70.7813 Z "/><text fill="#000000" font-family="sans-serif" font-size="12" font-style="italic" lengthAdjust="spacingAndGlyphs" textLength="84" x="237" y="78.1543">BaseDatabase</text><rect fill="#FFFFFF" height="15.9688" style="stroke: #000000; stroke-width: 1.0; stroke-dasharray: 2.0,2.0;" width="152" x="329" y="55"/><text fill="#000000" font-family="sans-serif" font-size="12" font-style="italic" lengthAdjust="spacingAndGlyphs" textLength="150" x="330" y="67.1387">KeyT, EntityT, ResourceT</text><line style="stroke: #A80036; stroke-width: 1.5;" x1="209" x2="477" y1="90" y2="90"/><line style="stroke: #A80036; stroke-width: 1.5;" x1="209" x2="477" y1="98" y2="98"/><ellipse cx="219" cy="109" fill="#84BE84" rx="3" ry="3" style="stroke: #038048; stroke-width: 1.0;"/><text fill="#000000" font-family="sans-serif" font-size="11" lengthAdjust="spacingAndGlyphs" textLength="219" x="228" y="112.2104">update(resource: ResourceT): Boolean</text><ellipse cx="219" cy="121.8047" fill="#84BE84" rx="3" ry="3" style="stroke: #038048; stroke-width: 1.0;"/><text fill="#000000" font-family="sans-serif" font-size="11" lengthAdjust="spacingAndGlyphs" textLength="112" x="228" y="125.0151">deleteById(id: long)</text><ellipse cx="219" cy="134.6094" fill="#84BE84" rx="3" ry="3" style="stroke: #038048; stroke-width: 1.0;"/><text fill="#000000" font-family="sans-serif" font-size="11" lengthAdjust="spacingAndGlyphs" textLength="140" x="228" y="137.8198">deleteByKey(key: KeyT)</text><ellipse cx="219" cy="147.4141" fill="#84BE84" rx="3" ry="3" style="stroke: #038048; stroke-width: 1.0;"/><text fill="#000000" font-family="sans-serif" font-size="11" lengthAdjust="spacingAndGlyphs" textLength="124" x="228" y="150.6245">getAll(): List&lt;EntityT&gt;</text><ellipse cx="219" cy="160.2188" fill="#84BE84" rx="3" ry="3" style="stroke: #038048; stroke-width: 1.0;"/><text fill="#000000" font-family="sans-serif" font-size="11" lengthAdjust="spacingAndGlyphs" textLength="147" x="228" y="163.4292">findById(id: long): EntityT?</text><ellipse cx="219" cy="173.0234" fill="#84BE84" rx="3" ry="3" style="stroke: #038048; stroke-width: 1.0;"/><text fill="#000000" font-family="sans-serif" font-size="11" lengthAdjust="spacingAndGlyphs" textLength="175" x="228" y="176.2339">findByKey(key: KeyT): EntityT?</text><polygon fill="#FFFF44" points="219,180.8281,223,184.8281,219,188.8281,215,184.8281" style="stroke: #B38D22; stroke-width: 1.0;"/><text fill="#000000" font-family="sans-serif" font-size="11" lengthAdjust="spacingAndGlyphs" textLength="88" x="228" y="189.0386">dao(): BaseDao</text><!--MD5=[4f5598559aab2ff013676d61efc28cec]
class core.database.UserInfoDatabase--><rect codeLine="75" fill="#FEFECE" filter="url(#fh27sjsrx7mof)" height="48" id="core.database.UserInfoDatabase" style="stroke: #A80036; stroke-width: 1.5;" width="138" x="468" y="288"/><ellipse cx="483" cy="304" fill="#B4A7E5" rx="11" ry="11" style="stroke: #A80036; stroke-width: 1.0;"/><path d="M483.9531,300.7813 L485.6719,300.7813 C486.0625,300.7813 486.25,300.75 486.375,300.6719 C486.6406,300.5156 486.7813,300.2344 486.7813,299.9375 C486.7813,299.6719 486.6719,299.4063 486.4375,299.2344 C486.2656,299.125 486.125,299.0938 485.6719,299.0938 L480.5313,299.0938 C480.0938,299.0938 479.9688,299.1094 479.8125,299.2031 C479.5625,299.3594 479.4063,299.6563 479.4063,299.9375 C479.4063,300.2188 479.5469,300.4688 479.7656,300.6406 C479.9219,300.75 480.1094,300.7813 480.5313,300.7813 L482.25,300.7813 L482.25,307.2969 L480.5313,307.2969 C480.0938,307.2969 479.9688,307.3125 479.8125,307.4219 C479.5625,307.5781 479.4063,307.8594 479.4063,308.1563 C479.4063,308.4063 479.5469,308.6719 479.7656,308.8281 C479.9219,308.9531 480.125,309 480.5313,309 L485.6719,309 C486.4219,309 486.7813,308.7188 486.7813,308.1563 C486.7813,307.875 486.6719,307.625 486.4375,307.4531 C486.2656,307.3281 486.125,307.2969 485.6719,307.2969 L483.9531,307.2969 L483.9531,300.7813 Z "/><text fill="#000000" font-family="sans-serif" font-size="12" font-style="italic" lengthAdjust="spacingAndGlyphs" textLength="106" x="497" y="308.1543">UserInfoDatabase</text><line style="stroke: #A80036; stroke-width: 1.5;" x1="469" x2="605" y1="320" y2="320"/><line style="stroke: #A80036; stroke-width: 1.5;" x1="469" x2="605" y1="328" y2="328"/><!--MD5=[9ae07741a972fed7a5d76cca2bbf4fbf]
class core.database.SelectedAlbumDatabase--><rect codeLine="76" fill="#FEFECE" filter="url(#fh27sjsrx7mof)" height="48" id="core.database.SelectedAlbumDatabase" style="stroke: #A80036; stroke-width: 1.5;" width="179" x="253.5" y="288"/><ellipse cx="268.5" cy="304" fill="#B4A7E5" rx="11" ry="11" style="stroke: #A80036; stroke-width: 1.0;"/><path d="M269.4531,300.7813 L271.1719,300.7813 C271.5625,300.7813 271.75,300.75 271.875,300.6719 C272.1406,300.5156 272.2813,300.2344 272.2813,299.9375 C272.2813,299.6719 272.1719,299.4063 271.9375,299.2344 C271.7656,299.125 271.625,299.0938 271.1719,299.0938 L266.0313,299.0938 C265.5938,299.0938 265.4688,299.1094 265.3125,299.2031 C265.0625,299.3594 264.9063,299.6563 264.9063,299.9375 C264.9063,300.2188 265.0469,300.4688 265.2656,300.6406 C265.4219,300.75 265.6094,300.7813 266.0313,300.7813 L267.75,300.7813 L267.75,307.2969 L266.0313,307.2969 C265.5938,307.2969 265.4688,307.3125 265.3125,307.4219 C265.0625,307.5781 264.9063,307.8594 264.9063,308.1563 C264.9063,308.4063 265.0469,308.6719 265.2656,308.8281 C265.4219,308.9531 265.625,309 266.0313,309 L271.1719,309 C271.9219,309 272.2813,308.7188 272.2813,308.1563 C272.2813,307.875 272.1719,307.625 271.9375,307.4531 C271.7656,307.3281 271.625,307.2969 271.1719,307.2969 L269.4531,307.2969 L269.4531,300.7813 Z "/><text fill="#000000" font-family="sans-serif" font-size="12" font-style="italic" lengthAdjust="spacingAndGlyphs" textLength="147" x="282.5" y="308.1543">SelectedAlbumDatabase</text><line style="stroke: #A80036; stroke-width: 1.5;" x1="254.5" x2="431.5" y1="320" y2="320"/><line style="stroke: #A80036; stroke-width: 1.5;" x1="254.5" x2="431.5" y1="328" y2="328"/><!--MD5=[ec14a1a930b73ad2ee4c397a69adc9bb]
class core.database.DisplayedPhotosDatabase--><rect codeLine="77" fill="#FEFECE" filter="url(#fh27sjsrx7mof)" height="48" id="core.database.DisplayedPhotosDatabase" style="stroke: #A80036; stroke-width: 1.5;" width="186" x="32" y="288"/><ellipse cx="47" cy="304" fill="#B4A7E5" rx="11" ry="11" style="stroke: #A80036; stroke-width: 1.0;"/><path d="M47.9531,300.7813 L49.6719,300.7813 C50.0625,300.7813 50.25,300.75 50.375,300.6719 C50.6406,300.5156 50.7813,300.2344 50.7813,299.9375 C50.7813,299.6719 50.6719,299.4063 50.4375,299.2344 C50.2656,299.125 50.125,299.0938 49.6719,299.0938 L44.5313,299.0938 C44.0938,299.0938 43.9688,299.1094 43.8125,299.2031 C43.5625,299.3594 43.4063,299.6563 43.4063,299.9375 C43.4063,300.2188 43.5469,300.4688 43.7656,300.6406 C43.9219,300.75 44.1094,300.7813 44.5313,300.7813 L46.25,300.7813 L46.25,307.2969 L44.5313,307.2969 C44.0938,307.2969 43.9688,307.3125 43.8125,307.4219 C43.5625,307.5781 43.4063,307.8594 43.4063,308.1563 C43.4063,308.4063 43.5469,308.6719 43.7656,308.8281 C43.9219,308.9531 44.125,309 44.5313,309 L49.6719,309 C50.4219,309 50.7813,308.7188 50.7813,308.1563 C50.7813,307.875 50.6719,307.625 50.4375,307.4531 C50.2656,307.3281 50.125,307.2969 49.6719,307.2969 L47.9531,307.2969 L47.9531,300.7813 Z "/><text fill="#000000" font-family="sans-serif" font-size="12" font-style="italic" lengthAdjust="spacingAndGlyphs" textLength="154" x="61" y="308.1543">DisplayedPhotosDatabase</text><line style="stroke: #A80036; stroke-width: 1.5;" x1="33" x2="217" y1="320" y2="320"/><line style="stroke: #A80036; stroke-width: 1.5;" x1="33" x2="217" y1="328" y2="328"/><!--MD5=[ba58eddb6d17aa7a924a56cf2f463640]
class core.database.entity.BaseEntity--><rect codeLine="4" fill="#FEFECE" filter="url(#fh27sjsrx7mof)" height="86.4141" id="core.database.entity.BaseEntity" style="stroke: #A80036; stroke-width: 1.5;" width="184" x="904" y="84"/><ellipse cx="959.75" cy="100" fill="#B4A7E5" rx="11" ry="11" style="stroke: #A80036; stroke-width: 1.0;"/><path d="M960.7031,96.7813 L962.4219,96.7813 C962.8125,96.7813 963,96.75 963.125,96.6719 C963.3906,96.5156 963.5313,96.2344 963.5313,95.9375 C963.5313,95.6719 963.4219,95.4063 963.1875,95.2344 C963.0156,95.125 962.875,95.0938 962.4219,95.0938 L957.2813,95.0938 C956.8438,95.0938 956.7188,95.1094 956.5625,95.2031 C956.3125,95.3594 956.1563,95.6563 956.1563,95.9375 C956.1563,96.2188 956.2969,96.4688 956.5156,96.6406 C956.6719,96.75 956.8594,96.7813 957.2813,96.7813 L959,96.7813 L959,103.2969 L957.2813,103.2969 C956.8438,103.2969 956.7188,103.3125 956.5625,103.4219 C956.3125,103.5781 956.1563,103.8594 956.1563,104.1563 C956.1563,104.4063 956.2969,104.6719 956.5156,104.8281 C956.6719,104.9531 956.875,105 957.2813,105 L962.4219,105 C963.1719,105 963.5313,104.7188 963.5313,104.1563 C963.5313,103.875 963.4219,103.625 963.1875,103.4531 C963.0156,103.3281 962.875,103.2969 962.4219,103.2969 L960.7031,103.2969 L960.7031,96.7813 Z "/><text fill="#000000" font-family="sans-serif" font-size="12" font-style="italic" lengthAdjust="spacingAndGlyphs" textLength="64" x="980.25" y="104.1543">BaseEntity</text><line style="stroke: #A80036; stroke-width: 1.5;" x1="905" x2="1087" y1="116" y2="116"/><ellipse cx="915" cy="127" fill="none" rx="3" ry="3" style="stroke: #038048; stroke-width: 1.0;"/><text fill="#000000" font-family="sans-serif" font-size="11" lengthAdjust="spacingAndGlyphs" textLength="44" x="924" y="130.2104">id: Long</text><ellipse cx="915" cy="139.8047" fill="none" rx="3" ry="3" style="stroke: #038048; stroke-width: 1.0;"/><text fill="#000000" font-family="sans-serif" font-size="11" lengthAdjust="spacingAndGlyphs" textLength="155" x="924" y="143.0151">createDateTimeMillis: Long</text><ellipse cx="915" cy="152.6094" fill="none" rx="3" ry="3" style="stroke: #038048; stroke-width: 1.0;"/><text fill="#000000" font-family="sans-serif" font-size="11" lengthAdjust="spacingAndGlyphs" textLength="158" x="924" y="155.8198">updateDateTimeMillis: Long</text><line style="stroke: #A80036; stroke-width: 1.5;" x1="905" x2="1087" y1="162.4141" y2="162.4141"/><!--MD5=[309e374e200c298650928d6ed03894f9]
class core.database.entity.UserInfo--><rect codeLine="9" fill="#FEFECE" filter="url(#fh27sjsrx7mof)" height="112.0234" id="core.database.entity.UserInfo" style="stroke: #A80036; stroke-width: 1.5;" width="235" x="641.5" y="256"/><ellipse cx="729.25" cy="272" fill="#F4A460" rx="11" ry="11" style="stroke: #A80036; stroke-width: 1.0;"/><path d="M726.7656,275.2969 C726.1094,275.2969 725.7188,275.6094 725.7188,276.1563 C725.7188,276.4063 725.8594,276.6719 726.0781,276.8281 C726.2344,276.9531 726.4531,277 726.8594,277 L730.3281,277 C731.8125,277 732.8281,276.6094 733.6563,275.7188 C734.4375,274.9063 734.8438,273.8594 734.8438,272.6094 L734.8438,271.8125 C734.8438,269.1406 732.9531,267.0938 730.4688,267.0938 L726.8594,267.0938 C726.4063,267.0938 726.2813,267.1094 726.125,267.2031 C725.875,267.3594 725.7188,267.6563 725.7188,267.9375 C725.7188,268.4844 726.0938,268.7813 726.7656,268.7813 L726.7656,275.2969 Z M728.4531,275.2969 L728.4531,268.7813 L730.3281,268.7813 C731.2344,268.7813 731.875,269.0625 732.3906,269.6563 C732.875,270.2344 733.1563,270.9844 733.1563,271.7813 L733.1563,272.5625 C733.1563,273.4375 732.9219,274.0313 732.4531,274.5469 C731.9219,275.0938 731.3594,275.2969 730.3438,275.2969 L728.4531,275.2969 Z "/><text fill="#000000" font-family="sans-serif" font-size="12" lengthAdjust="spacingAndGlyphs" textLength="51" x="749.75" y="276.1543">UserInfo</text><line style="stroke: #A80036; stroke-width: 1.5;" x1="642.5" x2="875.5" y1="288" y2="288"/><ellipse cx="652.5" cy="299" fill="none" rx="3" ry="3" style="stroke: #038048; stroke-width: 1.0;"/><text fill="#000000" font-family="sans-serif" font-size="11" lengthAdjust="spacingAndGlyphs" textLength="111" x="661.5" y="302.2104">emailAdress: String</text><ellipse cx="652.5" cy="311.8047" fill="none" rx="3" ry="3" style="stroke: #038048; stroke-width: 1.0;"/><text fill="#000000" font-family="sans-serif" font-size="11" lengthAdjust="spacingAndGlyphs" textLength="114" x="661.5" y="315.0151">accessToken: String</text><ellipse cx="652.5" cy="324.6094" fill="none" rx="3" ry="3" style="stroke: #038048; stroke-width: 1.0;"/><text fill="#000000" font-family="sans-serif" font-size="11" lengthAdjust="spacingAndGlyphs" textLength="116" x="661.5" y="327.8198">refreshToken: String</text><ellipse cx="652.5" cy="337.4141" fill="none" rx="3" ry="3" style="stroke: #038048; stroke-width: 1.0;"/><text fill="#000000" font-family="sans-serif" font-size="11" lengthAdjust="spacingAndGlyphs" textLength="209" x="661.5" y="340.6245">expiredAccessTokenTimeMillis: Long</text><ellipse cx="652.5" cy="350.2188" fill="none" rx="3" ry="3" style="stroke: #038048; stroke-width: 1.0;"/><text fill="#000000" font-family="sans-serif" font-size="11" lengthAdjust="spacingAndGlyphs" textLength="167" x="661.5" y="353.4292">updatePhotosTimeMillis: Long</text><line style="stroke: #A80036; stroke-width: 1.5;" x1="642.5" x2="875.5" y1="360.0234" y2="360.0234"/><!--MD5=[280adadcac4525635aafc3a6dac4d2c9]
class core.database.entity.SelectedAlbum--><rect codeLine="16" fill="#FEFECE" filter="url(#fh27sjsrx7mof)" height="99.2188" id="core.database.entity.SelectedAlbum" style="stroke: #A80036; stroke-width: 1.5;" width="168" x="912" y="262.5"/><ellipse cx="947.25" cy="278.5" fill="#F4A460" rx="11" ry="11" style="stroke: #A80036; stroke-width: 1.0;"/><path d="M944.7656,281.7969 C944.1094,281.7969 943.7188,282.1094 943.7188,282.6563 C943.7188,282.9063 943.8594,283.1719 944.0781,283.3281 C944.2344,283.4531 944.4531,283.5 944.8594,283.5 L948.3281,283.5 C949.8125,283.5 950.8281,283.1094 951.6563,282.2188 C952.4375,281.4063 952.8438,280.3594 952.8438,279.1094 L952.8438,278.3125 C952.8438,275.6406 950.9531,273.5938 948.4688,273.5938 L944.8594,273.5938 C944.4063,273.5938 944.2813,273.6094 944.125,273.7031 C943.875,273.8594 943.7188,274.1563 943.7188,274.4375 C943.7188,274.9844 944.0938,275.2813 944.7656,275.2813 L944.7656,281.7969 Z M946.4531,281.7969 L946.4531,275.2813 L948.3281,275.2813 C949.2344,275.2813 949.875,275.5625 950.3906,276.1563 C950.875,276.7344 951.1563,277.4844 951.1563,278.2813 L951.1563,279.0625 C951.1563,279.9375 950.9219,280.5313 950.4531,281.0469 C949.9219,281.5938 949.3594,281.7969 948.3438,281.7969 L946.4531,281.7969 Z "/><text fill="#000000" font-family="sans-serif" font-size="12" lengthAdjust="spacingAndGlyphs" textLength="91" x="965.75" y="282.6543">SelectedAlbum</text><line style="stroke: #A80036; stroke-width: 1.5;" x1="913" x2="1079" y1="294.5" y2="294.5"/><ellipse cx="923" cy="305.5" fill="none" rx="3" ry="3" style="stroke: #038048; stroke-width: 1.0;"/><text fill="#000000" font-family="sans-serif" font-size="11" lengthAdjust="spacingAndGlyphs" textLength="69" x="932" y="308.7104">userId: Long</text><ellipse cx="923" cy="318.3047" fill="none" rx="3" ry="3" style="stroke: #038048; stroke-width: 1.0;"/><text fill="#000000" font-family="sans-serif" font-size="11" lengthAdjust="spacingAndGlyphs" textLength="85" x="932" y="321.5151">albumId: String</text><ellipse cx="923" cy="331.1094" fill="none" rx="3" ry="3" style="stroke: #038048; stroke-width: 1.0;"/><text fill="#000000" font-family="sans-serif" font-size="11" lengthAdjust="spacingAndGlyphs" textLength="100" x="932" y="334.3198">albumTitle: String</text><ellipse cx="923" cy="343.9141" fill="none" rx="3" ry="3" style="stroke: #038048; stroke-width: 1.0;"/><text fill="#000000" font-family="sans-serif" font-size="11" lengthAdjust="spacingAndGlyphs" textLength="142" x="932" y="347.1245">coverMediaItemId: String</text><line style="stroke: #A80036; stroke-width: 1.5;" x1="913" x2="1079" y1="353.7188" y2="353.7188"/><!--MD5=[e30f15ebb9d72a01680955a27de36b94]
class core.database.entity.DisplayedPhotos--><rect codeLine="22" fill="#FEFECE" filter="url(#fh27sjsrx7mof)" height="99.2188" id="core.database.entity.DisplayedPhotos" style="stroke: #A80036; stroke-width: 1.5;" width="174" x="1115" y="262.5"/><ellipse cx="1148.9" cy="278.5" fill="#F4A460" rx="11" ry="11" style="stroke: #A80036; stroke-width: 1.0;"/><path d="M1146.4156,281.7969 C1145.7594,281.7969 1145.3688,282.1094 1145.3688,282.6563 C1145.3688,282.9063 1145.5094,283.1719 1145.7281,283.3281 C1145.8844,283.4531 1146.1031,283.5 1146.5094,283.5 L1149.9781,283.5 C1151.4625,283.5 1152.4781,283.1094 1153.3063,282.2188 C1154.0875,281.4063 1154.4938,280.3594 1154.4938,279.1094 L1154.4938,278.3125 C1154.4938,275.6406 1152.6031,273.5938 1150.1188,273.5938 L1146.5094,273.5938 C1146.0563,273.5938 1145.9313,273.6094 1145.775,273.7031 C1145.525,273.8594 1145.3688,274.1563 1145.3688,274.4375 C1145.3688,274.9844 1145.7438,275.2813 1146.4156,275.2813 L1146.4156,281.7969 Z M1148.1031,281.7969 L1148.1031,275.2813 L1149.9781,275.2813 C1150.8844,275.2813 1151.525,275.5625 1152.0406,276.1563 C1152.525,276.7344 1152.8063,277.4844 1152.8063,278.2813 L1152.8063,279.0625 C1152.8063,279.9375 1152.5719,280.5313 1152.1031,281.0469 C1151.5719,281.5938 1151.0094,281.7969 1149.9938,281.7969 L1148.1031,281.7969 Z "/><text fill="#000000" font-family="sans-serif" font-size="12" lengthAdjust="spacingAndGlyphs" textLength="100" x="1167.1" y="282.6543">DisplayedPhotos</text><line style="stroke: #A80036; stroke-width: 1.5;" x1="1116" x2="1288" y1="294.5" y2="294.5"/><ellipse cx="1126" cy="305.5" fill="none" rx="3" ry="3" style="stroke: #038048; stroke-width: 1.0;"/><text fill="#000000" font-family="sans-serif" font-size="11" lengthAdjust="spacingAndGlyphs" textLength="130" x="1135" y="308.7104">selectedAlbumId: Long</text><ellipse cx="1126" cy="318.3047" fill="none" rx="3" ry="3" style="stroke: #038048; stroke-width: 1.0;"/><text fill="#000000" font-family="sans-serif" font-size="11" lengthAdjust="spacingAndGlyphs" textLength="112" x="1135" y="321.5151">mediaItemId: String</text><ellipse cx="1126" cy="331.1094" fill="none" rx="3" ry="3" style="stroke: #038048; stroke-width: 1.0;"/><text fill="#000000" font-family="sans-serif" font-size="11" lengthAdjust="spacingAndGlyphs" textLength="92" x="1135" y="334.3198">fileName: String</text><ellipse cx="1126" cy="343.9141" fill="none" rx="3" ry="3" style="stroke: #038048; stroke-width: 1.0;"/><text fill="#000000" font-family="sans-serif" font-size="11" lengthAdjust="spacingAndGlyphs" textLength="148" x="1135" y="347.1245">isCoveredAlbum: Boolean</text><line style="stroke: #A80036; stroke-width: 1.5;" x1="1116" x2="1288" y1="353.7188" y2="353.7188"/><!--MD5=[482917ca2e7149b86545b1cd4b0b96ec]
class core.database.room.AppRoomDatabase--><rect codeLine="35" fill="#FEFECE" filter="url(#fh27sjsrx7mof)" height="86.4141" id="core.database.room.AppRoomDatabase" style="stroke: #A80036; stroke-width: 1.5;" width="271" x="272.5" y="566"/><ellipse cx="346.75" cy="582" fill="#A9DCDF" rx="11" ry="11" style="stroke: #A80036; stroke-width: 1.0;"/><path d="M348.8281,583.8125 L349.2188,584.7969 L348.8281,584.7969 C348.375,584.7969 348.2656,584.8125 348.1094,584.9219 C347.8594,585.0781 347.7031,585.3594 347.7031,585.6563 C347.7031,585.9219 347.8438,586.1719 348.0625,586.3281 C348.2031,586.4531 348.4063,586.5 348.8281,586.5 L351.1875,586.5 C351.5469,586.5 351.7656,586.4688 351.9063,586.375 C352.1563,586.2344 352.3125,585.9375 352.3125,585.6563 C352.3125,585.375 352.1719,585.125 351.9531,584.9688 C351.7813,584.8281 351.625,584.7969 351.1563,584.7969 L347.7656,576.5938 L344.0938,576.5938 C343.6406,576.5938 343.5156,576.6094 343.3594,576.7031 C343.1094,576.875 342.9531,577.1563 342.9531,577.4375 C342.9531,577.7188 343.0938,577.9688 343.3125,578.1406 C343.4844,578.25 343.6563,578.2813 344.0938,578.2813 L345.1719,578.2813 L342.5313,584.7969 C342.1094,584.7969 341.9531,584.8125 341.7969,584.9219 C341.5469,585.0781 341.3906,585.3594 341.3906,585.6563 C341.3906,586.2188 341.7656,586.5 342.5156,586.5 L344.7813,586.5 C345.1406,586.5 345.3594,586.4688 345.4844,586.375 C345.75,586.2344 345.8906,585.9375 345.8906,585.6563 C345.8906,585.375 345.7656,585.125 345.5469,584.9531 C345.375,584.8281 345.2344,584.7969 344.7813,584.7969 L344.3906,584.7969 L344.7813,583.8125 L348.8281,583.8125 Z M348.125,582.1094 L345.4531,582.1094 L346.7969,578.8438 L348.125,582.1094 Z "/><text fill="#000000" font-family="sans-serif" font-size="12" font-style="italic" lengthAdjust="spacingAndGlyphs" textLength="114" x="367.25" y="586.1543">AppRoomDatabase</text><line style="stroke: #A80036; stroke-width: 1.5;" x1="273.5" x2="542.5" y1="598" y2="598"/><line style="stroke: #A80036; stroke-width: 1.5;" x1="273.5" x2="542.5" y1="606" y2="606"/><ellipse cx="283.5" cy="617" fill="#84BE84" rx="3" ry="3" style="stroke: #038048; stroke-width: 1.0;"/><text fill="#000000" font-family="sans-serif" font-size="11" font-style="italic" lengthAdjust="spacingAndGlyphs" textLength="153" x="292.5" y="620.2104">userInfoDao(): UserInfoDao</text><ellipse cx="283.5" cy="629.8047" fill="#84BE84" rx="3" ry="3" style="stroke: #038048; stroke-width: 1.0;"/><text fill="#000000" font-family="sans-serif" font-size="11" font-style="italic" lengthAdjust="spacingAndGlyphs" textLength="227" x="292.5" y="633.0151">selectedAlbumDao(): SelectedAlbumDao</text><ellipse cx="283.5" cy="642.6094" fill="#84BE84" rx="3" ry="3" style="stroke: #038048; stroke-width: 1.0;"/><text fill="#000000" font-family="sans-serif" font-size="11" font-style="italic" lengthAdjust="spacingAndGlyphs" textLength="245" x="292.5" y="645.8198">displayedPhotosDao(): DisplayedPhotosDao</text><!--MD5=[d9cb86adebec9c2d3b3fb52b70927b8a]
class core.database.dao.BaseDao--><rect codeLine="43" fill="#FEFECE" filter="url(#fh27sjsrx7mof)" height="124.8281" id="core.database.dao.BaseDao" style="stroke: #A80036; stroke-width: 1.5;" width="232" x="292" y="835"/><ellipse cx="336.25" cy="851" fill="#B4A7E5" rx="11" ry="11" style="stroke: #A80036; stroke-width: 1.0;"/><path d="M337.2031,847.7813 L338.9219,847.7813 C339.3125,847.7813 339.5,847.75 339.625,847.6719 C339.8906,847.5156 340.0313,847.2344 340.0313,846.9375 C340.0313,846.6719 339.9219,846.4063 339.6875,846.2344 C339.5156,846.125 339.375,846.0938 338.9219,846.0938 L333.7813,846.0938 C333.3438,846.0938 333.2188,846.1094 333.0625,846.2031 C332.8125,846.3594 332.6563,846.6563 332.6563,846.9375 C332.6563,847.2188 332.7969,847.4688 333.0156,847.6406 C333.1719,847.75 333.3594,847.7813 333.7813,847.7813 L335.5,847.7813 L335.5,854.2969 L333.7813,854.2969 C333.3438,854.2969 333.2188,854.3125 333.0625,854.4219 C332.8125,854.5781 332.6563,854.8594 332.6563,855.1563 C332.6563,855.4063 332.7969,855.6719 333.0156,855.8281 C333.1719,855.9531 333.375,856 333.7813,856 L338.9219,856 C339.6719,856 340.0313,855.7188 340.0313,855.1563 C340.0313,854.875 339.9219,854.625 339.6875,854.4531 C339.5156,854.3281 339.375,854.2969 338.9219,854.2969 L337.2031,854.2969 L337.2031,847.7813 Z "/><text fill="#000000" font-family="sans-serif" font-size="12" font-style="italic" lengthAdjust="spacingAndGlyphs" textLength="51" x="356.75" y="855.1543">BaseDao</text><rect fill="#FFFFFF" height="15.9688" style="stroke: #000000; stroke-width: 1.0; stroke-dasharray: 2.0,2.0;" width="82" x="445" y="832"/><text fill="#000000" font-family="sans-serif" font-size="12" font-style="italic" lengthAdjust="spacingAndGlyphs" textLength="80" x="446" y="844.1387">KeyT, EntityT</text><line style="stroke: #A80036; stroke-width: 1.5;" x1="293" x2="523" y1="867" y2="867"/><line style="stroke: #A80036; stroke-width: 1.5;" x1="293" x2="523" y1="875" y2="875"/><ellipse cx="303" cy="886" fill="#84BE84" rx="3" ry="3" style="stroke: #038048; stroke-width: 1.0;"/><text fill="#000000" font-family="sans-serif" font-size="11" lengthAdjust="spacingAndGlyphs" textLength="119" x="312" y="889.2104">insert(entity: EntityT)</text><ellipse cx="303" cy="898.8047" fill="#84BE84" rx="3" ry="3" style="stroke: #038048; stroke-width: 1.0;"/><text fill="#000000" font-family="sans-serif" font-size="11" lengthAdjust="spacingAndGlyphs" textLength="127" x="312" y="902.0151">update(entity: EntityT)</text><ellipse cx="303" cy="911.6094" fill="#84BE84" rx="3" ry="3" style="stroke: #038048; stroke-width: 1.0;"/><text fill="#000000" font-family="sans-serif" font-size="11" lengthAdjust="spacingAndGlyphs" textLength="125" x="312" y="914.8198">delete(entity: EntityT)</text><ellipse cx="303" cy="924.4141" fill="#84BE84" rx="3" ry="3" style="stroke: #038048; stroke-width: 1.0;"/><text fill="#000000" font-family="sans-serif" font-size="11" lengthAdjust="spacingAndGlyphs" textLength="124" x="312" y="927.6245">getAll(): List&lt;EntityT&gt;</text><ellipse cx="303" cy="937.2188" fill="#84BE84" rx="3" ry="3" style="stroke: #038048; stroke-width: 1.0;"/><text fill="#000000" font-family="sans-serif" font-size="11" lengthAdjust="spacingAndGlyphs" textLength="178" x="312" y="940.4292">findById(id: long): List&lt;EntityT&gt;</text><ellipse cx="303" cy="950.0234" fill="#84BE84" rx="3" ry="3" style="stroke: #038048; stroke-width: 1.0;"/><text fill="#000000" font-family="sans-serif" font-size="11" lengthAdjust="spacingAndGlyphs" textLength="206" x="312" y="953.2339">findByKey(key: KeyT): List&lt;EntityT&gt;</text><!--MD5=[22d4e4c7d44ed5ed64c8385b6388aed0]
class core.database.dao.UserInfoDao--><rect codeLine="51" fill="#FEFECE" filter="url(#fh27sjsrx7mof)" height="48" id="core.database.dao.UserInfoDao" style="stroke: #A80036; stroke-width: 1.5;" width="105" x="516.5" y="727"/><ellipse cx="531.5" cy="743" fill="#B4A7E5" rx="11" ry="11" style="stroke: #A80036; stroke-width: 1.0;"/><path d="M532.4531,739.7813 L534.1719,739.7813 C534.5625,739.7813 534.75,739.75 534.875,739.6719 C535.1406,739.5156 535.2813,739.2344 535.2813,738.9375 C535.2813,738.6719 535.1719,738.4063 534.9375,738.2344 C534.7656,738.125 534.625,738.0938 534.1719,738.0938 L529.0313,738.0938 C528.5938,738.0938 528.4688,738.1094 528.3125,738.2031 C528.0625,738.3594 527.9063,738.6563 527.9063,738.9375 C527.9063,739.2188 528.0469,739.4688 528.2656,739.6406 C528.4219,739.75 528.6094,739.7813 529.0313,739.7813 L530.75,739.7813 L530.75,746.2969 L529.0313,746.2969 C528.5938,746.2969 528.4688,746.3125 528.3125,746.4219 C528.0625,746.5781 527.9063,746.8594 527.9063,747.1563 C527.9063,747.4063 528.0469,747.6719 528.2656,747.8281 C528.4219,747.9531 528.625,748 529.0313,748 L534.1719,748 C534.9219,748 535.2813,747.7188 535.2813,747.1563 C535.2813,746.875 535.1719,746.625 534.9375,746.4531 C534.7656,746.3281 534.625,746.2969 534.1719,746.2969 L532.4531,746.2969 L532.4531,739.7813 Z "/><text fill="#000000" font-family="sans-serif" font-size="12" font-style="italic" lengthAdjust="spacingAndGlyphs" textLength="73" x="545.5" y="747.1543">UserInfoDao</text><line style="stroke: #A80036; stroke-width: 1.5;" x1="517.5" x2="620.5" y1="759" y2="759"/><line style="stroke: #A80036; stroke-width: 1.5;" x1="517.5" x2="620.5" y1="767" y2="767"/><!--MD5=[bf0b3965f21e84bcc5d7cd78867fb4a0]
class core.database.dao.SelectedAlbumDao--><rect codeLine="52" fill="#FEFECE" filter="url(#fh27sjsrx7mof)" height="48" id="core.database.dao.SelectedAlbumDao" style="stroke: #A80036; stroke-width: 1.5;" width="146" x="335" y="727"/><ellipse cx="350" cy="743" fill="#B4A7E5" rx="11" ry="11" style="stroke: #A80036; stroke-width: 1.0;"/><path d="M350.9531,739.7813 L352.6719,739.7813 C353.0625,739.7813 353.25,739.75 353.375,739.6719 C353.6406,739.5156 353.7813,739.2344 353.7813,738.9375 C353.7813,738.6719 353.6719,738.4063 353.4375,738.2344 C353.2656,738.125 353.125,738.0938 352.6719,738.0938 L347.5313,738.0938 C347.0938,738.0938 346.9688,738.1094 346.8125,738.2031 C346.5625,738.3594 346.4063,738.6563 346.4063,738.9375 C346.4063,739.2188 346.5469,739.4688 346.7656,739.6406 C346.9219,739.75 347.1094,739.7813 347.5313,739.7813 L349.25,739.7813 L349.25,746.2969 L347.5313,746.2969 C347.0938,746.2969 346.9688,746.3125 346.8125,746.4219 C346.5625,746.5781 346.4063,746.8594 346.4063,747.1563 C346.4063,747.4063 346.5469,747.6719 346.7656,747.8281 C346.9219,747.9531 347.125,748 347.5313,748 L352.6719,748 C353.4219,748 353.7813,747.7188 353.7813,747.1563 C353.7813,746.875 353.6719,746.625 353.4375,746.4531 C353.2656,746.3281 353.125,746.2969 352.6719,746.2969 L350.9531,746.2969 L350.9531,739.7813 Z "/><text fill="#000000" font-family="sans-serif" font-size="12" font-style="italic" lengthAdjust="spacingAndGlyphs" textLength="114" x="364" y="747.1543">SelectedAlbumDao</text><line style="stroke: #A80036; stroke-width: 1.5;" x1="336" x2="480" y1="759" y2="759"/><line style="stroke: #A80036; stroke-width: 1.5;" x1="336" x2="480" y1="767" y2="767"/><!--MD5=[0724d2b6025788180afe58ca0fd39fd2]
class core.database.dao.DisplayedPhotosDao--><rect codeLine="53" fill="#FEFECE" filter="url(#fh27sjsrx7mof)" height="48" id="core.database.dao.DisplayedPhotosDao" style="stroke: #A80036; stroke-width: 1.5;" width="153" x="146.5" y="727"/><ellipse cx="161.5" cy="743" fill="#B4A7E5" rx="11" ry="11" style="stroke: #A80036; stroke-width: 1.0;"/><path d="M162.4531,739.7813 L164.1719,739.7813 C164.5625,739.7813 164.75,739.75 164.875,739.6719 C165.1406,739.5156 165.2813,739.2344 165.2813,738.9375 C165.2813,738.6719 165.1719,738.4063 164.9375,738.2344 C164.7656,738.125 164.625,738.0938 164.1719,738.0938 L159.0313,738.0938 C158.5938,738.0938 158.4688,738.1094 158.3125,738.2031 C158.0625,738.3594 157.9063,738.6563 157.9063,738.9375 C157.9063,739.2188 158.0469,739.4688 158.2656,739.6406 C158.4219,739.75 158.6094,739.7813 159.0313,739.7813 L160.75,739.7813 L160.75,746.2969 L159.0313,746.2969 C158.5938,746.2969 158.4688,746.3125 158.3125,746.4219 C158.0625,746.5781 157.9063,746.8594 157.9063,747.1563 C157.9063,747.4063 158.0469,747.6719 158.2656,747.8281 C158.4219,747.9531 158.625,748 159.0313,748 L164.1719,748 C164.9219,748 165.2813,747.7188 165.2813,747.1563 C165.2813,746.875 165.1719,746.625 164.9375,746.4531 C164.7656,746.3281 164.625,746.2969 164.1719,746.2969 L162.4531,746.2969 L162.4531,739.7813 Z "/><text fill="#000000" font-family="sans-serif" font-size="12" font-style="italic" lengthAdjust="spacingAndGlyphs" textLength="121" x="175.5" y="747.1543">DisplayedPhotosDao</text><line style="stroke: #A80036; stroke-width: 1.5;" x1="147.5" x2="298.5" y1="759" y2="759"/><line style="stroke: #A80036; stroke-width: 1.5;" x1="147.5" x2="298.5" y1="767" y2="767"/><!--MD5=[a3748a1f10c2cc7ce3c0af6dab031b63]
class core.database.impl.UserInfoDatabaseImpl--><rect codeLine="61" fill="#FEFECE" filter="url(#fh27sjsrx7mof)" height="48" id="core.database.impl.UserInfoDatabaseImpl" style="stroke: #A80036; stroke-width: 1.5;" width="165" x="545.5" y="443"/><ellipse cx="560.5" cy="459" fill="#ADD1B2" rx="11" ry="11" style="stroke: #A80036; stroke-width: 1.0;"/><path d="M562.8438,454.6719 C561.9063,454.2344 561.3125,454.0938 560.4375,454.0938 C557.8125,454.0938 555.8125,456.1719 555.8125,458.8906 L555.8125,460.0156 C555.8125,462.5938 557.9219,464.4844 560.8125,464.4844 C562.0313,464.4844 563.1875,464.1875 563.9375,463.6406 C564.5156,463.2344 564.8438,462.7813 564.8438,462.3906 C564.8438,461.9375 564.4531,461.5469 563.9844,461.5469 C563.7656,461.5469 563.5625,461.625 563.375,461.8125 C562.9219,462.2969 562.9219,462.2969 562.7344,462.3906 C562.3125,462.6563 561.625,462.7813 560.8594,462.7813 C558.8125,462.7813 557.5156,461.6875 557.5156,459.9844 L557.5156,458.8906 C557.5156,457.1094 558.7656,455.7969 560.5,455.7969 C561.0781,455.7969 561.6875,455.9531 562.1563,456.2031 C562.6406,456.4844 562.8125,456.7031 562.9063,457.1094 C562.9688,457.5156 563,457.6406 563.1406,457.7656 C563.2813,457.9063 563.5156,458.0156 563.7344,458.0156 C564,458.0156 564.2656,457.875 564.4375,457.6563 C564.5469,457.5 564.5781,457.3125 564.5781,456.8906 L564.5781,455.4688 C564.5781,455.0313 564.5625,454.9063 564.4688,454.75 C564.3125,454.4844 564.0313,454.3438 563.7344,454.3438 C563.4375,454.3438 563.2344,454.4375 563.0156,454.75 L562.8438,454.6719 Z "/><text fill="#000000" font-family="sans-serif" font-size="12" lengthAdjust="spacingAndGlyphs" textLength="133" x="574.5" y="463.1543">UserInfoDatabaseImpl</text><line style="stroke: #A80036; stroke-width: 1.5;" x1="546.5" x2="709.5" y1="475" y2="475"/><line style="stroke: #A80036; stroke-width: 1.5;" x1="546.5" x2="709.5" y1="483" y2="483"/><!--MD5=[a92420ba207722efafe733e64a6067e2]
class core.database.impl.SelectedAlbumDatabaseImpl--><rect codeLine="62" fill="#FEFECE" filter="url(#fh27sjsrx7mof)" height="48" id="core.database.impl.SelectedAlbumDatabaseImpl" style="stroke: #A80036; stroke-width: 1.5;" width="205" x="305.5" y="443"/><ellipse cx="320.5" cy="459" fill="#ADD1B2" rx="11" ry="11" style="stroke: #A80036; stroke-width: 1.0;"/><path d="M322.8438,454.6719 C321.9063,454.2344 321.3125,454.0938 320.4375,454.0938 C317.8125,454.0938 315.8125,456.1719 315.8125,458.8906 L315.8125,460.0156 C315.8125,462.5938 317.9219,464.4844 320.8125,464.4844 C322.0313,464.4844 323.1875,464.1875 323.9375,463.6406 C324.5156,463.2344 324.8438,462.7813 324.8438,462.3906 C324.8438,461.9375 324.4531,461.5469 323.9844,461.5469 C323.7656,461.5469 323.5625,461.625 323.375,461.8125 C322.9219,462.2969 322.9219,462.2969 322.7344,462.3906 C322.3125,462.6563 321.625,462.7813 320.8594,462.7813 C318.8125,462.7813 317.5156,461.6875 317.5156,459.9844 L317.5156,458.8906 C317.5156,457.1094 318.7656,455.7969 320.5,455.7969 C321.0781,455.7969 321.6875,455.9531 322.1563,456.2031 C322.6406,456.4844 322.8125,456.7031 322.9063,457.1094 C322.9688,457.5156 323,457.6406 323.1406,457.7656 C323.2813,457.9063 323.5156,458.0156 323.7344,458.0156 C324,458.0156 324.2656,457.875 324.4375,457.6563 C324.5469,457.5 324.5781,457.3125 324.5781,456.8906 L324.5781,455.4688 C324.5781,455.0313 324.5625,454.9063 324.4688,454.75 C324.3125,454.4844 324.0313,454.3438 323.7344,454.3438 C323.4375,454.3438 323.2344,454.4375 323.0156,454.75 L322.8438,454.6719 Z "/><text fill="#000000" font-family="sans-serif" font-size="12" lengthAdjust="spacingAndGlyphs" textLength="173" x="334.5" y="463.1543">SelectedAlbumDatabaseImpl</text><line style="stroke: #A80036; stroke-width: 1.5;" x1="306.5" x2="509.5" y1="475" y2="475"/><line style="stroke: #A80036; stroke-width: 1.5;" x1="306.5" x2="509.5" y1="483" y2="483"/><!--MD5=[f9227838ad3fe374e1f021e1b78883b4]
class core.database.impl.DisplayedPhotosDatabaseImpl--><rect codeLine="63" fill="#FEFECE" filter="url(#fh27sjsrx7mof)" height="48" id="core.database.impl.DisplayedPhotosDatabaseImpl" style="stroke: #A80036; stroke-width: 1.5;" width="214" x="56" y="443"/><ellipse cx="71" cy="459" fill="#ADD1B2" rx="11" ry="11" style="stroke: #A80036; stroke-width: 1.0;"/><path d="M73.3438,454.6719 C72.4063,454.2344 71.8125,454.0938 70.9375,454.0938 C68.3125,454.0938 66.3125,456.1719 66.3125,458.8906 L66.3125,460.0156 C66.3125,462.5938 68.4219,464.4844 71.3125,464.4844 C72.5313,464.4844 73.6875,464.1875 74.4375,463.6406 C75.0156,463.2344 75.3438,462.7813 75.3438,462.3906 C75.3438,461.9375 74.9531,461.5469 74.4844,461.5469 C74.2656,461.5469 74.0625,461.625 73.875,461.8125 C73.4219,462.2969 73.4219,462.2969 73.2344,462.3906 C72.8125,462.6563 72.125,462.7813 71.3594,462.7813 C69.3125,462.7813 68.0156,461.6875 68.0156,459.9844 L68.0156,458.8906 C68.0156,457.1094 69.2656,455.7969 71,455.7969 C71.5781,455.7969 72.1875,455.9531 72.6563,456.2031 C73.1406,456.4844 73.3125,456.7031 73.4063,457.1094 C73.4688,457.5156 73.5,457.6406 73.6406,457.7656 C73.7813,457.9063 74.0156,458.0156 74.2344,458.0156 C74.5,458.0156 74.7656,457.875 74.9375,457.6563 C75.0469,457.5 75.0781,457.3125 75.0781,456.8906 L75.0781,455.4688 C75.0781,455.0313 75.0625,454.9063 74.9688,454.75 C74.8125,454.4844 74.5313,454.3438 74.2344,454.3438 C73.9375,454.3438 73.7344,454.4375 73.5156,454.75 L73.3438,454.6719 Z "/><text fill="#000000" font-family="sans-serif" font-size="12" lengthAdjust="spacingAndGlyphs" textLength="182" x="85" y="463.1543">DisplayedPhotosDatabaseImpl</text><line style="stroke: #A80036; stroke-width: 1.5;" x1="57" x2="269" y1="475" y2="475"/><line style="stroke: #A80036; stroke-width: 1.5;" x1="57" x2="269" y1="483" y2="483"/><!--MD5=[09313d50c36419a2f9ad94675bb1ad81]
reverse link core.database.entity.BaseEntity to core.database.entity.UserInfo--><path codeLine="29" d="M925.261,182.621 C895.322,205.739 860.498,232.628 830.479,255.807 " fill="none" id="core.database.entity.BaseEntity&lt;-core.database.entity.UserInfo" style="stroke: #A80036; stroke-width: 1.0; stroke-dasharray: 7.0,7.0;"/><polygon fill="none" points="921.222,176.896,941.33,170.214,929.778,187.978,921.222,176.896" style="stroke: #A80036; stroke-width: 1.0;"/><!--MD5=[57209a7c0b3fbc5c6b3db1eed612f93e]
reverse link core.database.entity.BaseEntity to core.database.entity.SelectedAlbum--><path codeLine="30" d="M996,190.567 C996,214.023 996,240.306 996,262.32 " fill="none" id="core.database.entity.BaseEntity&lt;-core.database.entity.SelectedAlbum" style="stroke: #A80036; stroke-width: 1.0; stroke-dasharray: 7.0,7.0;"/><polygon fill="none" points="989,190.444,996,170.444,1003,190.444,989,190.444" style="stroke: #A80036; stroke-width: 1.0;"/><!--MD5=[a6a408fa5faf91b5424f13dfeba9813b]
reverse link core.database.entity.BaseEntity to core.database.entity.DisplayedPhotos--><path codeLine="31" d="M1058.63,183.636 C1086.84,208.693 1119.84,238.014 1147.07,262.202 " fill="none" id="core.database.entity.BaseEntity&lt;-core.database.entity.DisplayedPhotos" style="stroke: #A80036; stroke-width: 1.0; stroke-dasharray: 7.0,7.0;"/><polygon fill="none" points="1053.82,188.73,1043.52,170.214,1063.12,178.263,1053.82,188.73" style="stroke: #A80036; stroke-width: 1.0;"/><!--MD5=[bd78a61d50a806e819b297ca41e19159]
link core.database.dao.UserInfoDao to core.database.dao.BaseDao--><path codeLine="55" d="M543.133,775.216 C528.894,787.995 510.339,804.649 491.561,821.503 " fill="none" id="core.database.dao.UserInfoDao-&gt;core.database.dao.BaseDao" style="stroke: #A80036; stroke-width: 1.0; stroke-dasharray: 7.0,7.0;"/><polygon fill="none" points="496.092,826.842,476.532,834.991,486.741,816.423,496.092,826.842" style="stroke: #A80036; stroke-width: 1.0;"/><!--MD5=[28f552e545f7e6e07736455be1fcc3da]
link core.database.dao.SelectedAlbumDao to core.database.dao.BaseDao--><path codeLine="56" d="M408,775.216 C408,786.224 408,800.107 408,814.516 " fill="none" id="core.database.dao.SelectedAlbumDao-&gt;core.database.dao.BaseDao" style="stroke: #A80036; stroke-width: 1.0; stroke-dasharray: 7.0,7.0;"/><polygon fill="none" points="415,814.991,408,834.991,401,814.991,415,814.991" style="stroke: #A80036; stroke-width: 1.0;"/><!--MD5=[30fd768caacdb2dcf2dcb11b49873448]
link core.database.dao.DisplayedPhotosDao to core.database.dao.BaseDao--><path codeLine="57" d="M252.723,775.216 C269.408,788.248 291.252,805.31 313.265,822.504 " fill="none" id="core.database.dao.DisplayedPhotosDao-&gt;core.database.dao.BaseDao" style="stroke: #A80036; stroke-width: 1.0; stroke-dasharray: 7.0,7.0;"/><polygon fill="none" points="317.799,817.164,329.252,834.991,309.181,828.197,317.799,817.164" style="stroke: #A80036; stroke-width: 1.0;"/><!--MD5=[fe9a21efac9d9fdc9ed85f36b6ea1f89]
reverse link core.database.BaseDatabase to core.database.UserInfoDatabase--><path codeLine="79" d="M429.901,209.973 C460.091,238.451 491.599,268.174 512.559,287.945 " fill="none" id="core.database.BaseDatabase&lt;-core.database.UserInfoDatabase" style="stroke: #A80036; stroke-width: 1.0; stroke-dasharray: 7.0,7.0;"/><polygon fill="none" points="424.984,214.958,415.238,196.142,434.59,204.774,424.984,214.958" style="stroke: #A80036; stroke-width: 1.0;"/><!--MD5=[185cba0d406da61d7cdf1010947e3d2c]
reverse link core.database.BaseDatabase to core.database.SelectedAlbumDatabase--><path codeLine="80" d="M343,216.202 C343,242.722 343,269.612 343,287.945 " fill="none" id="core.database.BaseDatabase&lt;-core.database.SelectedAlbumDatabase" style="stroke: #A80036; stroke-width: 1.0; stroke-dasharray: 7.0,7.0;"/><polygon fill="none" points="336,216.142,343,196.142,350,216.142,336,216.142" style="stroke: #A80036; stroke-width: 1.0;"/><!--MD5=[ead9bb8c8a4068cf960b02dd6bcc8118]
reverse link core.database.BaseDatabase to core.database.DisplayedPhotosDatabase--><path codeLine="81" d="M246.273,209.197 C212.069,237.91 176.231,267.994 152.465,287.945 " fill="none" id="core.database.BaseDatabase&lt;-core.database.DisplayedPhotosDatabase" style="stroke: #A80036; stroke-width: 1.0; stroke-dasharray: 7.0,7.0;"/><polygon fill="none" points="242.006,203.64,261.825,196.142,251.007,214.363,242.006,203.64" style="stroke: #A80036; stroke-width: 1.0;"/><!--MD5=[a5dc099e2d701d30c59db3d813e682a5]
reverse link core.database.UserInfoDatabase to core.database.impl.UserInfoDatabaseImpl--><path codeLine="85" d="M561.052,353.439 C577.952,381.853 599.969,418.872 614.049,442.544 " fill="none" id="core.database.UserInfoDatabase&lt;-core.database.impl.UserInfoDatabaseImpl" style="stroke: #A80036; stroke-width: 1.0; stroke-dasharray: 7.0,7.0;"/><polygon fill="none" points="555.028,357.005,550.821,336.237,567.061,349.848,555.028,357.005" style="stroke: #A80036; stroke-width: 1.0;"/><!--MD5=[45202c1af81e7314727d2817bcbe0a69]
reverse link core.database.SelectedAlbumDatabase to core.database.impl.SelectedAlbumDatabaseImpl--><path codeLine="86" d="M360.7,354.662 C372.699,382.908 388.122,419.21 398.035,442.544 " fill="none" id="core.database.SelectedAlbumDatabase&lt;-core.database.impl.SelectedAlbumDatabaseImpl" style="stroke: #A80036; stroke-width: 1.0; stroke-dasharray: 7.0,7.0;"/><polygon fill="none" points="354.25,357.382,352.872,336.237,367.135,351.908,354.25,357.382" style="stroke: #A80036; stroke-width: 1.0;"/><!--MD5=[b5e79e63f94d64c263bf202084ec4fc5]
reverse link core.database.DisplayedPhotosDatabase to core.database.impl.DisplayedPhotosDatabaseImpl--><path codeLine="87" d="M135.654,355.895 C142.623,383.957 151.463,419.548 157.174,442.544 " fill="none" id="core.database.DisplayedPhotosDatabase&lt;-core.database.impl.DisplayedPhotosDatabaseImpl" style="stroke: #A80036; stroke-width: 1.0; stroke-dasharray: 7.0,7.0;"/><polygon fill="none" points="128.799,357.335,130.771,336.237,142.386,353.96,128.799,357.335" style="stroke: #A80036; stroke-width: 1.0;"/><!--MD5=[50d9e379ae9b95c40a1b158086d4eb19]
reverse link core.database.impl.UserInfoDatabaseImpl to core.database.room.AppRoomDatabase--><path codeLine="89" d="M580.703,498.098 C549.616,517.881 508.497,544.047 474.18,565.886 " fill="none" id="core.database.impl.UserInfoDatabaseImpl&lt;-core.database.room.AppRoomDatabase" style="stroke: #A80036; stroke-width: 1.0;"/><polygon fill="#FFFFFF" points="591.671,491.118,584.4615,490.965,581.5474,497.5611,588.7569,497.7141,591.671,491.118" style="stroke: #A80036; stroke-width: 1.0;"/><!--MD5=[d3f96fa4a1acf7574c05cc0bbf45e3cf]
reverse link core.database.impl.SelectedAlbumDatabaseImpl to core.database.room.AppRoomDatabase--><path codeLine="90" d="M408,504.269 C408,523.116 408,546.25 408,565.886 " fill="none" id="core.database.impl.SelectedAlbumDatabaseImpl&lt;-core.database.room.AppRoomDatabase" style="stroke: #A80036; stroke-width: 1.0;"/><polygon fill="#FFFFFF" points="408,491.118,404,497.118,408,503.118,412,497.118,408,491.118" style="stroke: #A80036; stroke-width: 1.0;"/><!--MD5=[ded57c43610e91a21dc83f2eb88ceff1]
reverse link core.database.impl.DisplayedPhotosDatabaseImpl to core.database.room.AppRoomDatabase--><path codeLine="91" d="M214.763,497.579 C249.487,517.421 295.748,543.856 334.3,565.886 " fill="none" id="core.database.impl.DisplayedPhotosDatabaseImpl&lt;-core.database.room.AppRoomDatabase" style="stroke: #A80036; stroke-width: 1.0;"/><polygon fill="#FFFFFF" points="203.457,491.118,206.6822,497.5677,213.8762,497.0712,210.651,490.6216,203.457,491.118" style="stroke: #A80036; stroke-width: 1.0;"/><!--MD5=[8a25dd51a1767d5b17cf507c6c760608]
reverse link core.database.room.AppRoomDatabase to core.database.dao.UserInfoDao--><path codeLine="93" d="M470.377,660.459 C479.713,668.25 489.166,676.275 498,684 C513.836,697.848 531.135,713.908 544.692,726.719 " fill="none" id="core.database.room.AppRoomDatabase&lt;-core.database.dao.UserInfoDao" style="stroke: #A80036; stroke-width: 1.0;"/><polygon fill="#FFFFFF" points="460.325,652.122,462.3891,659.0314,469.5609,659.7834,467.4968,652.8741,460.325,652.122" style="stroke: #A80036; stroke-width: 1.0;"/><!--MD5=[e7c6227644a3aa80f4a827df436303dd]
reverse link core.database.room.AppRoomDatabase to core.database.dao.SelectedAlbumDao--><path codeLine="94" d="M408,665.038 C408,686.502 408,709.935 408,726.744 " fill="none" id="core.database.room.AppRoomDatabase&lt;-core.database.dao.SelectedAlbumDao" style="stroke: #A80036; stroke-width: 1.0;"/><polygon fill="#FFFFFF" points="408,652.005,404,658.005,408,664.005,412,658.005,408,652.005" style="stroke: #A80036; stroke-width: 1.0;"/><!--MD5=[34b4579a64f04163a01180a769333024]
reverse link core.database.room.AppRoomDatabase to core.database.dao.DisplayedPhotosDao--><path codeLine="95" d="M342.004,659.943 C311.793,682.805 277.464,708.784 253.466,726.944 " fill="none" id="core.database.room.AppRoomDatabase&lt;-core.database.dao.DisplayedPhotosDao" style="stroke: #A80036; stroke-width: 1.0;"/><polygon fill="#FFFFFF" points="352.494,652.005,345.2958,652.4355,342.9246,659.2457,350.1229,658.8151,352.494,652.005" style="stroke: #A80036; stroke-width: 1.0;"/><!--MD5=[7f4497c778f8d6749535509a1260142e]
@startuml
namespace core.database #FFEEFF {

  namespace entity {
    interface BaseEntity {
      + id: Long
      + createDateTimeMillis: Long
      + updateDateTimeMillis: Long
    }
    class UserInfo <<(D, sandybrown)>> {
      + emailAdress: String
      + accessToken: String
      + refreshToken: String
      + expiredAccessTokenTimeMillis: Long
      + updatePhotosTimeMillis: Long
    }
    class SelectedAlbum <<(D, sandybrown)>> {
      + userId: Long
      + albumId: String
      + albumTitle: String
      + coverMediaItemId: String
    }
    class DisplayedPhotos <<(D, sandybrown)>> {
      + selectedAlbumId: Long
      + mediaItemId: String
      + fileName: String
      + isCoveredAlbum: Boolean
    }

    UserInfo .up.|> BaseEntity
    SelectedAlbum  .up.|> BaseEntity
    DisplayedPhotos .up.|> BaseEntity
  }

  namespace room {
    abstract class AppRoomDatabase {
      + {abstract} userInfoDao(): UserInfoDao
      + {abstract} selectedAlbumDao(): SelectedAlbumDao
      + {abstract} displayedPhotosDao(): DisplayedPhotosDao
    }
  }

  namespace dao {
    interface BaseDao<KeyT, EntityT> {
      + insert(entity: EntityT)
      + update(entity: EntityT)
      + delete(entity: EntityT)
      + getAll(): List<EntityT>
      + findById(id: long): List<EntityT>
      + findByKey(key: KeyT): List<EntityT>
    }
    interface UserInfoDao
    interface SelectedAlbumDao
    interface DisplayedPhotosDao

    UserInfoDao ..|> BaseDao
    SelectedAlbumDao ..|> BaseDao
    DisplayedPhotosDao ..|> BaseDao
  }

  namespace impl {
    class UserInfoDatabaseImpl
    class SelectedAlbumDatabaseImpl
    class DisplayedPhotosDatabaseImpl
  }

  interface BaseDatabase<KeyT, EntityT, ResourceT> {
    + update(resource: ResourceT): Boolean
    + deleteById(id: long)
    + deleteByKey(key: KeyT)
    + getAll(): List<EntityT>
    + findById(id: long): EntityT?
    + findByKey(key: KeyT): EntityT?
    # dao(): BaseDao
  }
  interface UserInfoDatabase
  interface SelectedAlbumDatabase
  interface DisplayedPhotosDatabase

  UserInfoDatabase .up.|> BaseDatabase
  SelectedAlbumDatabase .up.|> BaseDatabase
  DisplayedPhotosDatabase .up.|> BaseDatabase

}

core.database.impl.UserInfoDatabaseImpl .up.|> core.database.UserInfoDatabase
core.database.impl.SelectedAlbumDatabaseImpl .up.|> core.database.SelectedAlbumDatabase
core.database.impl.DisplayedPhotosDatabaseImpl .up.|> core.database.DisplayedPhotosDatabase

core.database.impl.UserInfoDatabaseImpl o-down- core.database.room.AppRoomDatabase
core.database.impl.SelectedAlbumDatabaseImpl o-down- core.database.room.AppRoomDatabase
core.database.impl.DisplayedPhotosDatabaseImpl o-down- core.database.room.AppRoomDatabase

core.database.room.AppRoomDatabase o-down- core.database.dao.UserInfoDao
core.database.room.AppRoomDatabase o-down- core.database.dao.SelectedAlbumDao
core.database.room.AppRoomDatabase o-down- core.database.dao.DisplayedPhotosDao
@enduml

PlantUML version 1.2020.16beta3(Unknown compile time)
(GPL source distribution)
Java Runtime: Java(TM) SE Runtime Environment
JVM: Java HotSpot(TM) 64-Bit Server VM
Default Encoding: UTF-8
Language: en
Country: US
--></g></svg>