<?xml version="1.0" encoding="UTF-8" standalone="no"?><svg xmlns="http://www.w3.org/2000/svg" xmlns:xlink="http://www.w3.org/1999/xlink" contentScriptType="application/ecmascript" contentStyleType="text/css" height="1471px" preserveAspectRatio="none" style="width:470px;height:1471px;" version="1.1" viewBox="0 0 470 1471" width="470px" zoomAndPan="magnify"><defs><filter height="300%" id="fh8192pwiqeit" width="300%" x="-1" y="-1"><feGaussianBlur result="blurOut" stdDeviation="2.0"/><feColorMatrix in="blurOut" result="blurOut2" type="matrix" values="0 0 0 0 0 0 0 0 0 0 0 0 0 0 0 0 0 0 .4 0"/><feOffset dx="4.0" dy="4.0" in="blurOut2" result="blurOut3"/><feBlend in="SourceGraphic" in2="blurOut3" mode="normal"/></filter></defs><g><ellipse cx="232.5" cy="20" fill="#000000" filter="url(#fh8192pwiqeit)" rx="10" ry="10" style="stroke: none; stroke-width: 1.0;"/><rect fill="#FEFECE" filter="url(#fh8192pwiqeit)" height="33.9688" rx="12.5" ry="12.5" style="stroke: #A80036; stroke-width: 1.5;" width="156" x="154.5" y="50"/><text fill="#000000" font-family="sans-serif" font-size="12" lengthAdjust="spacingAndGlyphs" textLength="136" x="164.5" y="71.1387">Show app logo 2 secs</text><ellipse cx="232.5" cy="113.9688" fill="#FEFECE" filter="url(#fh8192pwiqeit)" rx="10" ry="10" style="stroke: #A80036; stroke-width: 1.5;"/><path d="M232.6094,110.1406 L231,114.4844 L234.2188,114.4844 L232.6094,110.1406 Z M231.9375,108.9688 L233.2813,108.9688 L236.6094,117.7188 L235.375,117.7188 L234.5781,115.4688 L230.6406,115.4688 L229.8438,117.7188 L228.5938,117.7188 L231.9375,108.9688 Z "/><rect fill="#FFFFFF" filter="url(#fh8192pwiqeit)" height="230.3784" style="stroke: #000000; stroke-width: 2.0;" width="310" x="113" y="133.9688"/><path d="M262,133.9688 L262,143.2656 L252,153.2656 L113,153.2656 " fill="none" style="stroke: #000000; stroke-width: 2.0;"/><text fill="#000000" font-family="sans-serif" font-size="14" lengthAdjust="spacingAndGlyphs" textLength="139" x="116" y="147.9639">RuntimePermission</text><rect fill="#FEFECE" filter="url(#fh8192pwiqeit)" height="33.9688" rx="12.5" ry="12.5" style="stroke: #A80036; stroke-width: 1.5;" width="167" x="149" y="218.668"/><text fill="#000000" font-family="sans-serif" font-size="12" lengthAdjust="spacingAndGlyphs" textLength="147" x="159" y="239.8066">StartRuntimePermissions</text><polygon fill="#FEFECE" filter="url(#fh8192pwiqeit)" points="145,272.6367,320,272.6367,332,284.6367,320,296.6367,145,296.6367,133,284.6367,145,272.6367" style="stroke: #A80036; stroke-width: 1.5;"/><text fill="#000000" font-family="sans-serif" font-size="11" lengthAdjust="spacingAndGlyphs" textLength="22" x="236.5" y="306.8472">YES</text><text fill="#000000" font-family="sans-serif" font-size="11" lengthAdjust="spacingAndGlyphs" textLength="175" x="145" y="288.4448">IsGrantedRuntimePermissions?</text><text fill="#000000" font-family="sans-serif" font-size="11" lengthAdjust="spacingAndGlyphs" textLength="17" x="332" y="282.0425">NO</text><ellipse cx="369" cy="284.6367" fill="#FEFECE" filter="url(#fh8192pwiqeit)" rx="10" ry="10" style="stroke: #A80036; stroke-width: 1.5;"/><path d="M366.6719,280.3867 L372.2031,280.3867 L372.2031,281.3867 L367.8594,281.3867 L367.8594,283.9805 L372.0313,283.9805 L372.0313,284.9648 L367.8594,284.9648 L367.8594,288.1367 L372.3125,288.1367 L372.3125,289.1367 L366.6719,289.1367 L366.6719,280.3867 Z "/><polygon fill="#FEFECE" filter="url(#fh8192pwiqeit)" points="145,170.2656,320,170.2656,332,182.2656,320,194.2656,145,194.2656,133,182.2656,145,170.2656" style="stroke: #A80036; stroke-width: 1.5;"/><text fill="#000000" font-family="sans-serif" font-size="11" lengthAdjust="spacingAndGlyphs" textLength="17" x="236.5" y="204.4761">NO</text><text fill="#000000" font-family="sans-serif" font-size="11" lengthAdjust="spacingAndGlyphs" textLength="175" x="145" y="186.0737">IsGrantedRuntimePermissions?</text><text fill="#000000" font-family="sans-serif" font-size="11" lengthAdjust="spacingAndGlyphs" textLength="22" x="332" y="179.6714">YES</text><polygon fill="#FEFECE" filter="url(#fh8192pwiqeit)" points="232.5,328.3472,244.5,340.3472,232.5,352.3472,220.5,340.3472,232.5,328.3472" style="stroke: #A80036; stroke-width: 1.5;"/><rect fill="#FFFFFF" filter="url(#fh8192pwiqeit)" height="205.9761" style="stroke: #000000; stroke-width: 2.0;" width="418.5" x="34.75" y="374.3472"/><path d="M139.75,374.3472 L139.75,383.644 L129.75,393.644 L34.75,393.644 " fill="none" style="stroke: #000000; stroke-width: 2.0;"/><text fill="#000000" font-family="sans-serif" font-size="14" lengthAdjust="spacingAndGlyphs" textLength="95" x="37.75" y="388.3423">GoogleSignIn</text><polygon fill="#FEFECE" filter="url(#fh8192pwiqeit)" points="177.5,410.644,287.5,410.644,299.5,422.644,287.5,434.644,177.5,434.644,165.5,422.644,177.5,410.644" style="stroke: #A80036; stroke-width: 1.5;"/><text fill="#000000" font-family="sans-serif" font-size="11" lengthAdjust="spacingAndGlyphs" textLength="110" x="177.5" y="426.4521">IsSignedInAccount?</text><text fill="#000000" font-family="sans-serif" font-size="11" lengthAdjust="spacingAndGlyphs" textLength="22" x="143.5" y="420.0498">YES</text><text fill="#000000" font-family="sans-serif" font-size="11" lengthAdjust="spacingAndGlyphs" textLength="17" x="299.5" y="420.0498">NO</text><rect fill="#FEFECE" filter="url(#fh8192pwiqeit)" height="33.9688" rx="12.5" ry="12.5" style="stroke: #A80036; stroke-width: 1.5;" width="138" x="54.75" y="444.644"/><text fill="#000000" font-family="sans-serif" font-size="12" lengthAdjust="spacingAndGlyphs" textLength="118" x="64.75" y="465.7827">RequestSilentSignIn</text><polygon fill="#FEFECE" filter="url(#fh8192pwiqeit)" points="82.75,498.6128,164.75,498.6128,176.75,510.6128,164.75,522.6128,82.75,522.6128,70.75,510.6128,82.75,498.6128" style="stroke: #A80036; stroke-width: 1.5;"/><text fill="#000000" font-family="sans-serif" font-size="11" lengthAdjust="spacingAndGlyphs" textLength="22" x="127.75" y="532.8232">YES</text><text fill="#000000" font-family="sans-serif" font-size="11" lengthAdjust="spacingAndGlyphs" textLength="82" x="82.75" y="514.4209">Is succeeded?</text><text fill="#000000" font-family="sans-serif" font-size="11" lengthAdjust="spacingAndGlyphs" textLength="17" x="176.75" y="508.0186">NO</text><ellipse cx="213.75" cy="510.6128" fill="#FEFECE" filter="url(#fh8192pwiqeit)" rx="10" ry="10" style="stroke: #A80036; stroke-width: 1.5;"/><path d="M211.4219,506.3628 L216.9531,506.3628 L216.9531,507.3628 L212.6094,507.3628 L212.6094,509.9565 L216.7813,509.9565 L216.7813,510.9409 L212.6094,510.9409 L212.6094,514.1128 L217.0625,514.1128 L217.0625,515.1128 L211.4219,515.1128 L211.4219,506.3628 Z "/><rect fill="#FEFECE" filter="url(#fh8192pwiqeit)" height="33.9688" rx="12.5" ry="12.5" style="stroke: #A80036; stroke-width: 1.5;" width="171" x="255.75" y="444.644"/><text fill="#000000" font-family="sans-serif" font-size="12" lengthAdjust="spacingAndGlyphs" textLength="151" x="265.75" y="465.7827">StartGoogleSignInActivity</text><polygon fill="#FEFECE" filter="url(#fh8192pwiqeit)" points="300.25,498.6128,382.25,498.6128,394.25,510.6128,382.25,522.6128,300.25,522.6128,288.25,510.6128,300.25,498.6128" style="stroke: #A80036; stroke-width: 1.5;"/><text fill="#000000" font-family="sans-serif" font-size="11" lengthAdjust="spacingAndGlyphs" textLength="22" x="345.25" y="532.8232">YES</text><text fill="#000000" font-family="sans-serif" font-size="11" lengthAdjust="spacingAndGlyphs" textLength="82" x="300.25" y="514.4209">Is succeeded?</text><text fill="#000000" font-family="sans-serif" font-size="11" lengthAdjust="spacingAndGlyphs" textLength="17" x="394.25" y="508.0186">NO</text><ellipse cx="431.25" cy="510.6128" fill="#FEFECE" filter="url(#fh8192pwiqeit)" rx="10" ry="10" style="stroke: #A80036; stroke-width: 1.5;"/><path d="M428.9219,506.3628 L434.4531,506.3628 L434.4531,507.3628 L430.1094,507.3628 L430.1094,509.9565 L434.2813,509.9565 L434.2813,510.9409 L430.1094,510.9409 L430.1094,514.1128 L434.5625,514.1128 L434.5625,515.1128 L428.9219,515.1128 L428.9219,506.3628 Z "/><polygon fill="#FEFECE" filter="url(#fh8192pwiqeit)" points="232.5,544.3232,244.5,556.3232,232.5,568.3232,220.5,556.3232,232.5,544.3232" style="stroke: #A80036; stroke-width: 1.5;"/><rect fill="#FFFFFF" filter="url(#fh8192pwiqeit)" height="556.9453" style="stroke: #000000; stroke-width: 2.0;" width="406.5" x="11" y="590.3232"/><path d="M132,590.3232 L132,599.6201 L122,609.6201 L11,609.6201 " fill="none" style="stroke: #000000; stroke-width: 2.0;"/><text fill="#000000" font-family="sans-serif" font-size="14" lengthAdjust="spacingAndGlyphs" textLength="111" x="14" y="604.3184">UpdateUserInfo</text><rect fill="#FEFECE" filter="url(#fh8192pwiqeit)" height="33.9688" rx="12.5" ry="12.5" style="stroke: #A80036; stroke-width: 1.5;" width="140" x="162.5" y="626.6201"/><text fill="#000000" font-family="sans-serif" font-size="12" lengthAdjust="spacingAndGlyphs" textLength="120" x="172.5" y="647.7588">getSignedInAccount</text><rect fill="#FEFECE" filter="url(#fh8192pwiqeit)" height="33.9688" rx="12.5" ry="12.5" style="stroke: #A80036; stroke-width: 1.5;" width="275" x="95" y="680.5889"/><text fill="#000000" font-family="sans-serif" font-size="12" lengthAdjust="spacingAndGlyphs" textLength="255" x="105" y="701.7275">AppDatabase findUserInfoByEmailAddress</text><rect fill="#FEFECE" filter="url(#fh8192pwiqeit)" height="33.9688" rx="12.5" ry="12.5" style="stroke: #A80036; stroke-width: 1.5;" width="237" x="114" y="782.96"/><text fill="#000000" font-family="sans-serif" font-size="12" lengthAdjust="spacingAndGlyphs" textLength="217" x="124" y="804.0986">RequestTokenInfoWithRefreshToken</text><polygon fill="#FEFECE" filter="url(#fh8192pwiqeit)" points="182,734.5576,283,734.5576,295,746.5576,283,758.5576,182,758.5576,170,746.5576,182,734.5576" style="stroke: #A80036; stroke-width: 1.5;"/><text fill="#000000" font-family="sans-serif" font-size="11" lengthAdjust="spacingAndGlyphs" textLength="22" x="236.5" y="768.7681">YES</text><text fill="#000000" font-family="sans-serif" font-size="11" lengthAdjust="spacingAndGlyphs" textLength="101" x="182" y="750.3657">Is userInfo found?</text><polygon fill="#FEFECE" filter="url(#fh8192pwiqeit)" points="232.5,836.9287,244.5,848.9287,232.5,860.9287,220.5,848.9287,232.5,836.9287" style="stroke: #A80036; stroke-width: 1.5;"/><rect fill="#FEFECE" filter="url(#fh8192pwiqeit)" height="33.9688" rx="12.5" ry="12.5" style="stroke: #A80036; stroke-width: 1.5;" width="212" x="126.5" y="929.3311"/><text fill="#000000" font-family="sans-serif" font-size="12" lengthAdjust="spacingAndGlyphs" textLength="192" x="136.5" y="950.4697">RequestTokenInfoWithAuthCode</text><polygon fill="#FEFECE" filter="url(#fh8192pwiqeit)" points="144,880.9287,321,880.9287,333,892.9287,321,904.9287,144,904.9287,132,892.9287,144,880.9287" style="stroke: #A80036; stroke-width: 1.5;"/><text fill="#000000" font-family="sans-serif" font-size="11" lengthAdjust="spacingAndGlyphs" textLength="17" x="236.5" y="915.1392">NO</text><text fill="#000000" font-family="sans-serif" font-size="11" lengthAdjust="spacingAndGlyphs" textLength="177" x="144" y="896.7368">Is succeeded to get tokenInfo?</text><polygon fill="#FEFECE" filter="url(#fh8192pwiqeit)" points="232.5,983.2998,244.5,995.2998,232.5,1007.2998,220.5,995.2998,232.5,983.2998" style="stroke: #A80036; stroke-width: 1.5;"/><polygon fill="#FEFECE" filter="url(#fh8192pwiqeit)" points="144,1027.2998,321,1027.2998,333,1039.2998,321,1051.2998,144,1051.2998,132,1039.2998,144,1027.2998" style="stroke: #A80036; stroke-width: 1.5;"/><text fill="#000000" font-family="sans-serif" font-size="11" lengthAdjust="spacingAndGlyphs" textLength="177" x="144" y="1043.1079">Is succeeded to get tokenInfo?</text><text fill="#000000" font-family="sans-serif" font-size="11" lengthAdjust="spacingAndGlyphs" textLength="22" x="110" y="1036.7056">YES</text><rect fill="#FEFECE" filter="url(#fh8192pwiqeit)" height="33.9688" rx="12.5" ry="12.5" style="stroke: #A80036; stroke-width: 1.5;" width="198" x="23" y="1061.2998"/><text fill="#000000" font-family="sans-serif" font-size="12" lengthAdjust="spacingAndGlyphs" textLength="178" x="33" y="1082.4385">AppDatabase updateUserInfo</text><rect fill="#FEFECE" filter="url(#fh8192pwiqeit)" height="33.9688" rx="12.5" ry="12.5" style="stroke: #A80036; stroke-width: 1.5;" width="109" x="288.5" y="1061.2998"/><text fill="#000000" font-family="sans-serif" font-size="12" lengthAdjust="spacingAndGlyphs" textLength="89" x="298.5" y="1082.4385">RevokeAccess</text><ellipse cx="343" cy="1125.2686" fill="#FEFECE" filter="url(#fh8192pwiqeit)" rx="10" ry="10" style="stroke: #A80036; stroke-width: 1.5;"/><path d="M340.6719,1121.0186 L346.2031,1121.0186 L346.2031,1122.0186 L341.8594,1122.0186 L341.8594,1124.6123 L346.0313,1124.6123 L346.0313,1125.5967 L341.8594,1125.5967 L341.8594,1128.7686 L346.3125,1128.7686 L346.3125,1129.7686 L340.6719,1129.7686 L340.6719,1121.0186 Z "/><rect fill="#FEFECE" filter="url(#fh8192pwiqeit)" height="33.9688" rx="12.5" ry="12.5" style="stroke: #A80036; stroke-width: 1.5;" width="118" x="173.5" y="1167.2686"/><text fill="#000000" font-family="sans-serif" font-size="12" lengthAdjust="spacingAndGlyphs" textLength="98" x="183.5" y="1188.4072">StartMainActivity</text><ellipse cx="232.5" cy="1231.2373" fill="#FFFFFF" filter="url(#fh8192pwiqeit)" rx="10" ry="10" style="stroke: #000000; stroke-width: 1.5;"/><line style="stroke: #000000; stroke-width: 2.5;" x1="226.3128" x2="238.6872" y1="1225.0501" y2="1237.4245"/><line style="stroke: #000000; stroke-width: 2.5;" x1="238.6872" x2="226.3128" y1="1225.0501" y2="1237.4245"/><rect fill="#FFFFFF" filter="url(#fh8192pwiqeit)" height="203.668" style="stroke: #000000; stroke-width: 2.0;" width="199" x="158" y="1251.2373"/><path d="M204,1251.2373 L204,1260.5342 L194,1270.5342 L158,1270.5342 " fill="none" style="stroke: #000000; stroke-width: 2.0;"/><text fill="#000000" font-family="sans-serif" font-size="14" lengthAdjust="spacingAndGlyphs" textLength="36" x="161" y="1265.2324">Error</text><ellipse cx="232.5" cy="1290.5342" fill="#FEFECE" filter="url(#fh8192pwiqeit)" rx="10" ry="10" style="stroke: #A80036; stroke-width: 1.5;"/><path d="M230.1719,1286.2842 L235.7031,1286.2842 L235.7031,1287.2842 L231.3594,1287.2842 L231.3594,1289.8779 L235.5313,1289.8779 L235.5313,1290.8623 L231.3594,1290.8623 L231.3594,1294.0342 L235.8125,1294.0342 L235.8125,1295.0342 L230.1719,1295.0342 L230.1719,1286.2842 Z "/><rect fill="#FEFECE" filter="url(#fh8192pwiqeit)" height="33.9688" rx="12.5" ry="12.5" style="stroke: #A80036; stroke-width: 1.5;" width="129" x="168" y="1320.5342"/><text fill="#000000" font-family="sans-serif" font-size="12" lengthAdjust="spacingAndGlyphs" textLength="109" x="178" y="1341.6729">Show error dialog</text><ellipse cx="232.5" cy="1432.9053" fill="#FFFFFF" filter="url(#fh8192pwiqeit)" rx="10" ry="10" style="stroke: #000000; stroke-width: 1.5;"/><line style="stroke: #000000; stroke-width: 2.5;" x1="226.3128" x2="238.6872" y1="1426.7181" y2="1439.0925"/><line style="stroke: #000000; stroke-width: 2.5;" x1="238.6872" x2="226.3128" y1="1426.7181" y2="1439.0925"/><polygon fill="#FEFECE" filter="url(#fh8192pwiqeit)" points="194,1374.5029,271,1374.5029,283,1386.5029,271,1398.5029,194,1398.5029,182,1386.5029,194,1374.5029" style="stroke: #A80036; stroke-width: 1.5;"/><text fill="#000000" font-family="sans-serif" font-size="11" lengthAdjust="spacingAndGlyphs" textLength="17" x="236.5" y="1408.7134">NO</text><text fill="#000000" font-family="sans-serif" font-size="11" lengthAdjust="spacingAndGlyphs" textLength="77" x="194" y="1390.311">Retry sign in?</text><text fill="#000000" font-family="sans-serif" font-size="11" lengthAdjust="spacingAndGlyphs" textLength="22" x="283" y="1383.9087">YES</text><ellipse cx="325" cy="1386.5029" fill="#FEFECE" filter="url(#fh8192pwiqeit)" rx="10" ry="10" style="stroke: #A80036; stroke-width: 1.5;"/><path d="M325.1094,1382.6748 L323.5,1387.0186 L326.7188,1387.0186 L325.1094,1382.6748 Z M324.4375,1381.5029 L325.7813,1381.5029 L329.1094,1390.2529 L327.875,1390.2529 L327.0781,1388.0029 L323.1406,1388.0029 L322.3438,1390.2529 L321.0938,1390.2529 L324.4375,1381.5029 Z "/><line style="stroke: #A80036; stroke-width: 1.5;" x1="232.5" x2="232.5" y1="30" y2="50"/><polygon fill="#A80036" points="228.5,40,232.5,50,236.5,40,232.5,44" style="stroke: #A80036; stroke-width: 1.0;"/><line style="stroke: #A80036; stroke-width: 1.5;" x1="232.5" x2="232.5" y1="83.9688" y2="103.9688"/><polygon fill="#A80036" points="228.5,93.9688,232.5,103.9688,236.5,93.9688,232.5,97.9688" style="stroke: #A80036; stroke-width: 1.0;"/><line style="stroke: #A80036; stroke-width: 1.5;" x1="232.5" x2="232.5" y1="296.6367" y2="328.3472"/><polygon fill="#A80036" points="228.5,318.3472,232.5,328.3472,236.5,318.3472,232.5,322.3472" style="stroke: #A80036; stroke-width: 1.0;"/><line style="stroke: #A80036; stroke-width: 1.5;" x1="332" x2="359" y1="284.6367" y2="284.6367"/><polygon fill="#A80036" points="349,280.6367,359,284.6367,349,288.6367,353,284.6367" style="stroke: #A80036; stroke-width: 1.0;"/><line style="stroke: #A80036; stroke-width: 1.5;" x1="232.5" x2="232.5" y1="252.6367" y2="272.6367"/><polygon fill="#A80036" points="228.5,262.6367,232.5,272.6367,236.5,262.6367,232.5,266.6367" style="stroke: #A80036; stroke-width: 1.0;"/><line style="stroke: #A80036; stroke-width: 1.5;" x1="232.5" x2="232.5" y1="194.2656" y2="218.668"/><polygon fill="#A80036" points="228.5,208.668,232.5,218.668,236.5,208.668,232.5,212.668" style="stroke: #A80036; stroke-width: 1.0;"/><line style="stroke: #A80036; stroke-width: 1.5;" x1="332" x2="401" y1="182.2656" y2="182.2656"/><polygon fill="#A80036" points="397,264.5547,401,274.5547,405,264.5547,401,268.5547" style="stroke: #A80036; stroke-width: 1.5;"/><line style="stroke: #A80036; stroke-width: 1.5;" x1="401" x2="401" y1="182.2656" y2="340.3472"/><line style="stroke: #A80036; stroke-width: 1.5;" x1="401" x2="244.5" y1="340.3472" y2="340.3472"/><polygon fill="#A80036" points="254.5,336.3472,244.5,340.3472,254.5,344.3472,250.5,340.3472" style="stroke: #A80036; stroke-width: 1.0;"/><line style="stroke: #A80036; stroke-width: 1.5;" x1="232.5" x2="232.5" y1="123.9688" y2="170.2656"/><polygon fill="#A80036" points="228.5,160.2656,232.5,170.2656,236.5,160.2656,232.5,164.2656" style="stroke: #A80036; stroke-width: 1.0;"/><line style="stroke: #A80036; stroke-width: 1.5;" x1="123.75" x2="123.75" y1="522.6128" y2="556.3232"/><line style="stroke: #A80036; stroke-width: 1.5;" x1="123.75" x2="220.5" y1="556.3232" y2="556.3232"/><polygon fill="#A80036" points="210.5,552.3232,220.5,556.3232,210.5,560.3232,214.5,556.3232" style="stroke: #A80036; stroke-width: 1.0;"/><line style="stroke: #A80036; stroke-width: 1.5;" x1="176.75" x2="203.75" y1="510.6128" y2="510.6128"/><polygon fill="#A80036" points="193.75,506.6128,203.75,510.6128,193.75,514.6128,197.75,510.6128" style="stroke: #A80036; stroke-width: 1.0;"/><line style="stroke: #A80036; stroke-width: 1.5;" x1="123.75" x2="123.75" y1="478.6128" y2="498.6128"/><polygon fill="#A80036" points="119.75,488.6128,123.75,498.6128,127.75,488.6128,123.75,492.6128" style="stroke: #A80036; stroke-width: 1.0;"/><line style="stroke: #A80036; stroke-width: 1.5;" x1="341.25" x2="341.25" y1="522.6128" y2="556.3232"/><line style="stroke: #A80036; stroke-width: 1.5;" x1="341.25" x2="244.5" y1="556.3232" y2="556.3232"/><polygon fill="#A80036" points="254.5,552.3232,244.5,556.3232,254.5,560.3232,250.5,556.3232" style="stroke: #A80036; stroke-width: 1.0;"/><line style="stroke: #A80036; stroke-width: 1.5;" x1="394.25" x2="421.25" y1="510.6128" y2="510.6128"/><polygon fill="#A80036" points="411.25,506.6128,421.25,510.6128,411.25,514.6128,415.25,510.6128" style="stroke: #A80036; stroke-width: 1.0;"/><line style="stroke: #A80036; stroke-width: 1.5;" x1="341.25" x2="341.25" y1="478.6128" y2="498.6128"/><polygon fill="#A80036" points="337.25,488.6128,341.25,498.6128,345.25,488.6128,341.25,492.6128" style="stroke: #A80036; stroke-width: 1.0;"/><line style="stroke: #A80036; stroke-width: 1.5;" x1="165.5" x2="123.75" y1="422.644" y2="422.644"/><line style="stroke: #A80036; stroke-width: 1.5;" x1="123.75" x2="123.75" y1="422.644" y2="444.644"/><polygon fill="#A80036" points="119.75,434.644,123.75,444.644,127.75,434.644,123.75,438.644" style="stroke: #A80036; stroke-width: 1.0;"/><line style="stroke: #A80036; stroke-width: 1.5;" x1="299.5" x2="341.25" y1="422.644" y2="422.644"/><line style="stroke: #A80036; stroke-width: 1.5;" x1="341.25" x2="341.25" y1="422.644" y2="444.644"/><polygon fill="#A80036" points="337.25,434.644,341.25,444.644,345.25,434.644,341.25,438.644" style="stroke: #A80036; stroke-width: 1.0;"/><line style="stroke: #A80036; stroke-width: 1.5;" x1="232.5" x2="232.5" y1="352.3472" y2="410.644"/><polygon fill="#A80036" points="228.5,400.644,232.5,410.644,236.5,400.644,232.5,404.644" style="stroke: #A80036; stroke-width: 1.0;"/><line style="stroke: #A80036; stroke-width: 1.5;" x1="232.5" x2="232.5" y1="660.5889" y2="680.5889"/><polygon fill="#A80036" points="228.5,670.5889,232.5,680.5889,236.5,670.5889,232.5,674.5889" style="stroke: #A80036; stroke-width: 1.0;"/><line style="stroke: #A80036; stroke-width: 1.5;" x1="232.5" x2="232.5" y1="758.5576" y2="782.96"/><polygon fill="#A80036" points="228.5,772.96,232.5,782.96,236.5,772.96,232.5,776.96" style="stroke: #A80036; stroke-width: 1.0;"/><line style="stroke: #A80036; stroke-width: 1.5;" x1="295" x2="361" y1="746.5576" y2="746.5576"/><polygon fill="#A80036" points="357,789.9443,361,799.9443,365,789.9443,361,793.9443" style="stroke: #A80036; stroke-width: 1.5;"/><line style="stroke: #A80036; stroke-width: 1.5;" x1="361" x2="361" y1="746.5576" y2="848.9287"/><line style="stroke: #A80036; stroke-width: 1.5;" x1="361" x2="244.5" y1="848.9287" y2="848.9287"/><polygon fill="#A80036" points="254.5,844.9287,244.5,848.9287,254.5,852.9287,250.5,848.9287" style="stroke: #A80036; stroke-width: 1.0;"/><line style="stroke: #A80036; stroke-width: 1.5;" x1="232.5" x2="232.5" y1="816.9287" y2="836.9287"/><polygon fill="#A80036" points="228.5,826.9287,232.5,836.9287,236.5,826.9287,232.5,830.9287" style="stroke: #A80036; stroke-width: 1.0;"/><line style="stroke: #A80036; stroke-width: 1.5;" x1="232.5" x2="232.5" y1="714.5576" y2="734.5576"/><polygon fill="#A80036" points="228.5,724.5576,232.5,734.5576,236.5,724.5576,232.5,728.5576" style="stroke: #A80036; stroke-width: 1.0;"/><line style="stroke: #A80036; stroke-width: 1.5;" x1="232.5" x2="232.5" y1="904.9287" y2="929.3311"/><polygon fill="#A80036" points="228.5,919.3311,232.5,929.3311,236.5,919.3311,232.5,923.3311" style="stroke: #A80036; stroke-width: 1.0;"/><line style="stroke: #A80036; stroke-width: 1.5;" x1="333" x2="348.5" y1="892.9287" y2="892.9287"/><polygon fill="#A80036" points="344.5,936.3154,348.5,946.3154,352.5,936.3154,348.5,940.3154" style="stroke: #A80036; stroke-width: 1.5;"/><line style="stroke: #A80036; stroke-width: 1.5;" x1="348.5" x2="348.5" y1="892.9287" y2="995.2998"/><line style="stroke: #A80036; stroke-width: 1.5;" x1="348.5" x2="244.5" y1="995.2998" y2="995.2998"/><polygon fill="#A80036" points="254.5,991.2998,244.5,995.2998,254.5,999.2998,250.5,995.2998" style="stroke: #A80036; stroke-width: 1.0;"/><line style="stroke: #A80036; stroke-width: 1.5;" x1="232.5" x2="232.5" y1="963.2998" y2="983.2998"/><polygon fill="#A80036" points="228.5,973.2998,232.5,983.2998,236.5,973.2998,232.5,977.2998" style="stroke: #A80036; stroke-width: 1.0;"/><line style="stroke: #A80036; stroke-width: 1.5;" x1="232.5" x2="232.5" y1="860.9287" y2="880.9287"/><polygon fill="#A80036" points="228.5,870.9287,232.5,880.9287,236.5,870.9287,232.5,874.9287" style="stroke: #A80036; stroke-width: 1.0;"/><line style="stroke: #A80036; stroke-width: 1.5;" x1="343" x2="343" y1="1095.2686" y2="1115.2686"/><polygon fill="#A80036" points="339,1105.2686,343,1115.2686,347,1105.2686,343,1109.2686" style="stroke: #A80036; stroke-width: 1.0;"/><line style="stroke: #A80036; stroke-width: 1.5;" x1="132" x2="122" y1="1039.2998" y2="1039.2998"/><line style="stroke: #A80036; stroke-width: 1.5;" x1="122" x2="122" y1="1039.2998" y2="1061.2998"/><polygon fill="#A80036" points="118,1051.2998,122,1061.2998,126,1051.2998,122,1055.2998" style="stroke: #A80036; stroke-width: 1.0;"/><line style="stroke: #A80036; stroke-width: 1.5;" x1="333" x2="343" y1="1039.2998" y2="1039.2998"/><line style="stroke: #A80036; stroke-width: 1.5;" x1="343" x2="343" y1="1039.2998" y2="1061.2998"/><polygon fill="#A80036" points="339,1051.2998,343,1061.2998,347,1051.2998,343,1055.2998" style="stroke: #A80036; stroke-width: 1.0;"/><line style="stroke: #A80036; stroke-width: 1.5;" x1="122" x2="122" y1="1095.2686" y2="1140.2686"/><line style="stroke: #A80036; stroke-width: 1.5;" x1="122" x2="232.5" y1="1140.2686" y2="1140.2686"/><line style="stroke: #A80036; stroke-width: 1.5;" x1="232.5" x2="232.5" y1="1140.2686" y2="1167.2686"/><polygon fill="#A80036" points="228.5,1157.2686,232.5,1167.2686,236.5,1157.2686,232.5,1161.2686" style="stroke: #A80036; stroke-width: 1.0;"/><line style="stroke: #A80036; stroke-width: 1.5;" x1="232.5" x2="232.5" y1="1007.2998" y2="1027.2998"/><polygon fill="#A80036" points="228.5,1017.2998,232.5,1027.2998,236.5,1017.2998,232.5,1021.2998" style="stroke: #A80036; stroke-width: 1.0;"/><line style="stroke: #A80036; stroke-width: 1.5;" x1="232.5" x2="232.5" y1="568.3232" y2="626.6201"/><polygon fill="#A80036" points="228.5,616.6201,232.5,626.6201,236.5,616.6201,232.5,620.6201" style="stroke: #A80036; stroke-width: 1.0;"/><line style="stroke: #A80036; stroke-width: 1.5;" x1="232.5" x2="232.5" y1="1201.2373" y2="1221.2373"/><polygon fill="#A80036" points="228.5,1211.2373,232.5,1221.2373,236.5,1211.2373,232.5,1215.2373" style="stroke: #A80036; stroke-width: 1.0;"/><line style="stroke: #A80036; stroke-width: 1.5;" x1="232.5" x2="232.5" y1="1300.5342" y2="1320.5342"/><polygon fill="#A80036" points="228.5,1310.5342,232.5,1320.5342,236.5,1310.5342,232.5,1314.5342" style="stroke: #A80036; stroke-width: 1.0;"/><line style="stroke: #A80036; stroke-width: 1.5;" x1="232.5" x2="232.5" y1="1398.5029" y2="1422.9053"/><polygon fill="#A80036" points="228.5,1412.9053,232.5,1422.9053,236.5,1412.9053,232.5,1416.9053" style="stroke: #A80036; stroke-width: 1.0;"/><line style="stroke: #A80036; stroke-width: 1.5;" x1="283" x2="315" y1="1386.5029" y2="1386.5029"/><polygon fill="#A80036" points="305,1382.5029,315,1386.5029,305,1390.5029,309,1386.5029" style="stroke: #A80036; stroke-width: 1.0;"/><line style="stroke: #A80036; stroke-width: 1.5;" x1="232.5" x2="232.5" y1="1354.5029" y2="1374.5029"/><polygon fill="#A80036" points="228.5,1364.5029,232.5,1374.5029,236.5,1364.5029,232.5,1368.5029" style="stroke: #A80036; stroke-width: 1.0;"/><!--MD5=[44928126632dec945cbc0d901d71fb6b]
@startuml
start
:Show app logo 2 secs;

(A)
partition RuntimePermission {
  if (IsGrantedRuntimePermissions?) then (YES)
  else (NO)
    :StartRuntimePermissions;

    if (IsGrantedRuntimePermissions?) then (YES)
    else (NO)
      (E)
      detach
    endif
  endif
}

partition GoogleSignIn {
  if (IsSignedInAccount?) then (YES)
    :RequestSilentSignIn;

    if (Is succeeded?) then (YES)
    else (NO)
      (E)
      detach
    endif

  else (NO)
    :StartGoogleSignInActivity;

    if (Is succeeded?) then (YES)
    else (NO)
      (E)
      detach
    endif

  endif
}

partition UpdateUserInfo {
  :getSignedInAccount;

  :AppDatabase findUserInfoByEmailAddress;

  if (Is userInfo found?) then (YES)
    :RequestTokenInfoWithRefreshToken;
  endif

  if (Is succeeded to get tokenInfo?) then (NO)
    :RequestTokenInfoWithAuthCode;
  endif

  if (Is succeeded to get tokenInfo?) then (YES)
    :AppDatabase updateUserInfo;
  else 
    :RevokeAccess;
    (E)
    detach
  endif
}

:StartMainActivity;
end

partition Error {
  (E)
  :Show error dialog;
  if (Retry sign in?) then (YES)
    (A)
  else (NO)
    end
  endif
}
@enduml

PlantUML version 1.2020.16beta7(Unknown compile time)
(GPL source distribution)
Java Runtime: Java(TM) SE Runtime Environment
JVM: Java HotSpot(TM) 64-Bit Server VM
Default Encoding: UTF-8
Language: en
Country: US
--></g></svg>