<?xml version="1.0" encoding="UTF-8" standalone="no"?><svg xmlns="http://www.w3.org/2000/svg" xmlns:xlink="http://www.w3.org/1999/xlink" contentScriptType="application/ecmascript" contentStyleType="text/css" height="1157px" preserveAspectRatio="none" style="width:554px;height:1157px;" version="1.1" viewBox="0 0 554 1157" width="554px" zoomAndPan="magnify"><defs><filter height="300%" id="f1s0c19prw6pbg" width="300%" x="-1" y="-1"><feGaussianBlur result="blurOut" stdDeviation="2.0"/><feColorMatrix in="blurOut" result="blurOut2" type="matrix" values="0 0 0 0 0 0 0 0 0 0 0 0 0 0 0 0 0 0 .4 0"/><feOffset dx="4.0" dy="4.0" in="blurOut2" result="blurOut3"/><feBlend in="SourceGraphic" in2="blurOut3" mode="normal"/></filter></defs><g><ellipse cx="289" cy="20" fill="#000000" filter="url(#f1s0c19prw6pbg)" rx="10" ry="10" style="stroke: none; stroke-width: 1.0;"/><rect fill="#FEFECE" filter="url(#f1s0c19prw6pbg)" height="33.9688" rx="12.5" ry="12.5" style="stroke: #A80036; stroke-width: 1.5;" width="156" x="211" y="50"/><text fill="#000000" font-family="sans-serif" font-size="12" lengthAdjust="spacingAndGlyphs" textLength="136" x="221" y="71.1387">Show app logo 2 secs</text><ellipse cx="289" cy="113.9688" fill="#FEFECE" filter="url(#f1s0c19prw6pbg)" rx="10" ry="10" style="stroke: #A80036; stroke-width: 1.5;"/><path d="M289.1094,110.1406 L287.5,114.4844 L290.7188,114.4844 L289.1094,110.1406 Z M288.4375,108.9688 L289.7813,108.9688 L293.1094,117.7188 L291.875,117.7188 L291.0781,115.4688 L287.1406,115.4688 L286.3438,117.7188 L285.0938,117.7188 L288.4375,108.9688 Z "/><rect fill="#FEFECE" filter="url(#f1s0c19prw6pbg)" height="33.9688" rx="12.5" ry="12.5" style="stroke: #A80036; stroke-width: 1.5;" width="105" x="236.5" y="143.9688"/><text fill="#000000" font-family="sans-serif" font-size="12" lengthAdjust="spacingAndGlyphs" textLength="85" x="246.5" y="165.1074">RequestSignIn</text><rect fill="#FFFFFF" filter="url(#f1s0c19prw6pbg)" height="230.3784" style="stroke: #000000; stroke-width: 2.0;" width="310" x="169.5" y="187.9375"/><path d="M318.5,187.9375 L318.5,197.2344 L308.5,207.2344 L169.5,207.2344 " fill="none" style="stroke: #000000; stroke-width: 2.0;"/><text fill="#000000" font-family="sans-serif" font-size="14" lengthAdjust="spacingAndGlyphs" textLength="139" x="172.5" y="201.9326">RuntimePermission</text><rect fill="#FEFECE" filter="url(#f1s0c19prw6pbg)" height="33.9688" rx="12.5" ry="12.5" style="stroke: #A80036; stroke-width: 1.5;" width="167" x="205.5" y="272.6367"/><text fill="#000000" font-family="sans-serif" font-size="12" lengthAdjust="spacingAndGlyphs" textLength="147" x="215.5" y="293.7754">StartRuntimePermissions</text><polygon fill="#FEFECE" filter="url(#f1s0c19prw6pbg)" points="201.5,326.6055,376.5,326.6055,388.5,338.6055,376.5,350.6055,201.5,350.6055,189.5,338.6055,201.5,326.6055" style="stroke: #A80036; stroke-width: 1.5;"/><text fill="#000000" font-family="sans-serif" font-size="11" lengthAdjust="spacingAndGlyphs" textLength="22" x="293" y="360.8159">YES</text><text fill="#000000" font-family="sans-serif" font-size="11" lengthAdjust="spacingAndGlyphs" textLength="175" x="201.5" y="342.4136">IsGrantedRuntimePermissions?</text><text fill="#000000" font-family="sans-serif" font-size="11" lengthAdjust="spacingAndGlyphs" textLength="17" x="388.5" y="336.0112">NO</text><ellipse cx="425.5" cy="338.6055" fill="#FEFECE" filter="url(#f1s0c19prw6pbg)" rx="10" ry="10" style="stroke: #A80036; stroke-width: 1.5;"/><path d="M423.1719,334.3555 L428.7031,334.3555 L428.7031,335.3555 L424.3594,335.3555 L424.3594,337.9492 L428.5313,337.9492 L428.5313,338.9336 L424.3594,338.9336 L424.3594,342.1055 L428.8125,342.1055 L428.8125,343.1055 L423.1719,343.1055 L423.1719,334.3555 Z "/><polygon fill="#FEFECE" filter="url(#f1s0c19prw6pbg)" points="201.5,224.2344,376.5,224.2344,388.5,236.2344,376.5,248.2344,201.5,248.2344,189.5,236.2344,201.5,224.2344" style="stroke: #A80036; stroke-width: 1.5;"/><text fill="#000000" font-family="sans-serif" font-size="11" lengthAdjust="spacingAndGlyphs" textLength="17" x="293" y="258.4448">NO</text><text fill="#000000" font-family="sans-serif" font-size="11" lengthAdjust="spacingAndGlyphs" textLength="175" x="201.5" y="240.0425">IsGrantedRuntimePermissions?</text><text fill="#000000" font-family="sans-serif" font-size="11" lengthAdjust="spacingAndGlyphs" textLength="22" x="388.5" y="233.6401">YES</text><polygon fill="#FEFECE" filter="url(#f1s0c19prw6pbg)" points="289,382.3159,301,394.3159,289,406.3159,277,394.3159,289,382.3159" style="stroke: #A80036; stroke-width: 1.5;"/><rect fill="#FFFFFF" filter="url(#f1s0c19prw6pbg)" height="267.8315" style="stroke: #000000; stroke-width: 2.0;" width="526" x="11" y="428.3159"/><path d="M116,428.3159 L116,437.6128 L106,447.6128 L11,447.6128 " fill="none" style="stroke: #000000; stroke-width: 2.0;"/><text fill="#000000" font-family="sans-serif" font-size="14" lengthAdjust="spacingAndGlyphs" textLength="95" x="14" y="442.311">GoogleSignIn</text><rect fill="#FEFECE" filter="url(#f1s0c19prw6pbg)" height="33.9688" rx="12.5" ry="12.5" style="stroke: #A80036; stroke-width: 1.5;" width="182" x="198" y="464.6128"/><text fill="#000000" font-family="sans-serif" font-size="12" lengthAdjust="spacingAndGlyphs" textLength="162" x="208" y="485.7515">RequestGoogleSilentSignIn</text><polygon fill="#FEFECE" filter="url(#f1s0c19prw6pbg)" points="33,518.5815,210,518.5815,222,530.5815,210,542.5815,33,542.5815,21,530.5815,33,518.5815" style="stroke: #A80036; stroke-width: 1.5;"/><text fill="#000000" font-family="sans-serif" font-size="11" lengthAdjust="spacingAndGlyphs" textLength="22" x="125.5" y="552.792">YES</text><text fill="#000000" font-family="sans-serif" font-size="11" lengthAdjust="spacingAndGlyphs" textLength="177" x="33" y="534.3896">result==ApiResult.SUCCEEDED</text><polygon fill="#FEFECE" filter="url(#f1s0c19prw6pbg)" points="269.5,518.5815,420.5,518.5815,432.5,530.5815,420.5,542.5815,269.5,542.5815,257.5,530.5815,269.5,518.5815" style="stroke: #A80036; stroke-width: 1.5;"/><text fill="#000000" font-family="sans-serif" font-size="11" lengthAdjust="spacingAndGlyphs" textLength="22" x="349" y="552.792">YES</text><text fill="#000000" font-family="sans-serif" font-size="11" lengthAdjust="spacingAndGlyphs" textLength="151" x="269.5" y="534.3896">result==ApiResult.INVALID</text><rect fill="#FEFECE" filter="url(#f1s0c19prw6pbg)" height="33.9688" rx="12.5" ry="12.5" style="stroke: #A80036; stroke-width: 1.5;" width="171" x="259.5" y="574.292"/><text fill="#000000" font-family="sans-serif" font-size="12" lengthAdjust="spacingAndGlyphs" textLength="151" x="269.5" y="595.4307">StartGoogleSignInActivity</text><polygon fill="#FEFECE" filter="url(#f1s0c19prw6pbg)" points="254,640.1475,436,640.1475,448,652.1475,436,664.1475,254,664.1475,242,652.1475,254,640.1475" style="stroke: #A80036; stroke-width: 1.5;"/><text fill="#000000" font-family="sans-serif" font-size="11" lengthAdjust="spacingAndGlyphs" textLength="182" x="254" y="655.9556">IsSucceededGoogleUserSignIn?</text><text fill="#000000" font-family="sans-serif" font-size="11" lengthAdjust="spacingAndGlyphs" textLength="17" x="448" y="649.5532">NO</text><ellipse cx="485" cy="652.1475" fill="#FEFECE" filter="url(#f1s0c19prw6pbg)" rx="10" ry="10" style="stroke: #A80036; stroke-width: 1.5;"/><path d="M482.6719,647.8975 L488.2031,647.8975 L488.2031,648.8975 L483.8594,648.8975 L483.8594,651.4912 L488.0313,651.4912 L488.0313,652.4756 L483.8594,652.4756 L483.8594,655.6475 L488.3125,655.6475 L488.3125,656.6475 L482.6719,656.6475 L482.6719,647.8975 Z "/><ellipse cx="515" cy="638.2607" fill="#FEFECE" filter="url(#f1s0c19prw6pbg)" rx="10" ry="10" style="stroke: #A80036; stroke-width: 1.5;"/><path d="M512.6719,634.0107 L518.2031,634.0107 L518.2031,635.0107 L513.8594,635.0107 L513.8594,637.6045 L518.0313,637.6045 L518.0313,638.5889 L513.8594,638.5889 L513.8594,641.7607 L518.3125,641.7607 L518.3125,642.7607 L512.6719,642.7607 L512.6719,634.0107 Z "/><rect fill="#FFFFFF" filter="url(#f1s0c19prw6pbg)" height="126.2656" style="stroke: #000000; stroke-width: 2.0;" width="213" x="197" y="706.1475"/><path d="M318,706.1475 L318,715.4443 L308,725.4443 L197,725.4443 " fill="none" style="stroke: #000000; stroke-width: 2.0;"/><text fill="#000000" font-family="sans-serif" font-size="14" lengthAdjust="spacingAndGlyphs" textLength="111" x="200" y="720.1426">UpdateUserInfo</text><rect fill="#FEFECE" filter="url(#f1s0c19prw6pbg)" height="33.9688" rx="12.5" ry="12.5" style="stroke: #A80036; stroke-width: 1.5;" width="164" x="207" y="742.4443"/><text fill="#000000" font-family="sans-serif" font-size="12" lengthAdjust="spacingAndGlyphs" textLength="144" x="217" y="763.583">RequestUpdateUserInfo</text><polygon fill="#FEFECE" filter="url(#f1s0c19prw6pbg)" points="249,796.4131,329,796.4131,341,808.4131,329,820.4131,249,820.4131,237,808.4131,249,796.4131" style="stroke: #A80036; stroke-width: 1.5;"/><text fill="#000000" font-family="sans-serif" font-size="11" lengthAdjust="spacingAndGlyphs" textLength="80" x="249" y="812.2212">IsSucceeded?</text><text fill="#000000" font-family="sans-serif" font-size="11" lengthAdjust="spacingAndGlyphs" textLength="17" x="341" y="805.8188">NO</text><ellipse cx="378" cy="808.4131" fill="#FEFECE" filter="url(#f1s0c19prw6pbg)" rx="10" ry="10" style="stroke: #A80036; stroke-width: 1.5;"/><path d="M375.6719,804.1631 L381.2031,804.1631 L381.2031,805.1631 L376.8594,805.1631 L376.8594,807.7568 L381.0313,807.7568 L381.0313,808.7412 L376.8594,808.7412 L376.8594,811.9131 L381.3125,811.9131 L381.3125,812.9131 L375.6719,812.9131 L375.6719,804.1631 Z "/><rect fill="#FEFECE" filter="url(#f1s0c19prw6pbg)" height="33.9688" rx="12.5" ry="12.5" style="stroke: #A80036; stroke-width: 1.5;" width="118" x="230" y="852.4131"/><text fill="#000000" font-family="sans-serif" font-size="12" lengthAdjust="spacingAndGlyphs" textLength="98" x="240" y="873.5518">StartMainActivity</text><ellipse cx="289" cy="916.3818" fill="#FFFFFF" filter="url(#f1s0c19prw6pbg)" rx="10" ry="10" style="stroke: #000000; stroke-width: 1.5;"/><line style="stroke: #000000; stroke-width: 2.5;" x1="282.8128" x2="295.1872" y1="910.1947" y2="922.569"/><line style="stroke: #000000; stroke-width: 2.5;" x1="295.1872" x2="282.8128" y1="910.1947" y2="922.569"/><rect fill="#FFFFFF" filter="url(#f1s0c19prw6pbg)" height="203.668" style="stroke: #000000; stroke-width: 2.0;" width="199" x="214.5" y="936.3818"/><path d="M260.5,936.3818 L260.5,945.6787 L250.5,955.6787 L214.5,955.6787 " fill="none" style="stroke: #000000; stroke-width: 2.0;"/><text fill="#000000" font-family="sans-serif" font-size="14" lengthAdjust="spacingAndGlyphs" textLength="36" x="217.5" y="950.377">Error</text><ellipse cx="289" cy="975.6787" fill="#FEFECE" filter="url(#f1s0c19prw6pbg)" rx="10" ry="10" style="stroke: #A80036; stroke-width: 1.5;"/><path d="M286.6719,971.4287 L292.2031,971.4287 L292.2031,972.4287 L287.8594,972.4287 L287.8594,975.0225 L292.0313,975.0225 L292.0313,976.0068 L287.8594,976.0068 L287.8594,979.1787 L292.3125,979.1787 L292.3125,980.1787 L286.6719,980.1787 L286.6719,971.4287 Z "/><rect fill="#FEFECE" filter="url(#f1s0c19prw6pbg)" height="33.9688" rx="12.5" ry="12.5" style="stroke: #A80036; stroke-width: 1.5;" width="129" x="224.5" y="1005.6787"/><text fill="#000000" font-family="sans-serif" font-size="12" lengthAdjust="spacingAndGlyphs" textLength="109" x="234.5" y="1026.8174">Show error dialog</text><ellipse cx="289" cy="1118.0498" fill="#FFFFFF" filter="url(#f1s0c19prw6pbg)" rx="10" ry="10" style="stroke: #000000; stroke-width: 1.5;"/><line style="stroke: #000000; stroke-width: 2.5;" x1="282.8128" x2="295.1872" y1="1111.8626" y2="1124.237"/><line style="stroke: #000000; stroke-width: 2.5;" x1="295.1872" x2="282.8128" y1="1111.8626" y2="1124.237"/><polygon fill="#FEFECE" filter="url(#f1s0c19prw6pbg)" points="250.5,1059.6475,327.5,1059.6475,339.5,1071.6475,327.5,1083.6475,250.5,1083.6475,238.5,1071.6475,250.5,1059.6475" style="stroke: #A80036; stroke-width: 1.5;"/><text fill="#000000" font-family="sans-serif" font-size="11" lengthAdjust="spacingAndGlyphs" textLength="17" x="293" y="1093.8579">NO</text><text fill="#000000" font-family="sans-serif" font-size="11" lengthAdjust="spacingAndGlyphs" textLength="77" x="250.5" y="1075.4556">Retry sign in?</text><text fill="#000000" font-family="sans-serif" font-size="11" lengthAdjust="spacingAndGlyphs" textLength="22" x="339.5" y="1069.0532">YES</text><ellipse cx="381.5" cy="1071.6475" fill="#FEFECE" filter="url(#f1s0c19prw6pbg)" rx="10" ry="10" style="stroke: #A80036; stroke-width: 1.5;"/><path d="M381.6094,1067.8193 L380,1072.1631 L383.2188,1072.1631 L381.6094,1067.8193 Z M380.9375,1066.6475 L382.2813,1066.6475 L385.6094,1075.3975 L384.375,1075.3975 L383.5781,1073.1475 L379.6406,1073.1475 L378.8438,1075.3975 L377.5938,1075.3975 L380.9375,1066.6475 Z "/><line style="stroke: #A80036; stroke-width: 1.5;" x1="289" x2="289" y1="30" y2="50"/><polygon fill="#A80036" points="285,40,289,50,293,40,289,44" style="stroke: #A80036; stroke-width: 1.0;"/><line style="stroke: #A80036; stroke-width: 1.5;" x1="289" x2="289" y1="83.9688" y2="103.9688"/><polygon fill="#A80036" points="285,93.9688,289,103.9688,293,93.9688,289,97.9688" style="stroke: #A80036; stroke-width: 1.0;"/><line style="stroke: #A80036; stroke-width: 1.5;" x1="289" x2="289" y1="123.9688" y2="143.9688"/><polygon fill="#A80036" points="285,133.9688,289,143.9688,293,133.9688,289,137.9688" style="stroke: #A80036; stroke-width: 1.0;"/><line style="stroke: #A80036; stroke-width: 1.5;" x1="289" x2="289" y1="350.6055" y2="382.3159"/><polygon fill="#A80036" points="285,372.3159,289,382.3159,293,372.3159,289,376.3159" style="stroke: #A80036; stroke-width: 1.0;"/><line style="stroke: #A80036; stroke-width: 1.5;" x1="388.5" x2="415.5" y1="338.6055" y2="338.6055"/><polygon fill="#A80036" points="405.5,334.6055,415.5,338.6055,405.5,342.6055,409.5,338.6055" style="stroke: #A80036; stroke-width: 1.0;"/><line style="stroke: #A80036; stroke-width: 1.5;" x1="289" x2="289" y1="306.6055" y2="326.6055"/><polygon fill="#A80036" points="285,316.6055,289,326.6055,293,316.6055,289,320.6055" style="stroke: #A80036; stroke-width: 1.0;"/><line style="stroke: #A80036; stroke-width: 1.5;" x1="289" x2="289" y1="248.2344" y2="272.6367"/><polygon fill="#A80036" points="285,262.6367,289,272.6367,293,262.6367,289,266.6367" style="stroke: #A80036; stroke-width: 1.0;"/><line style="stroke: #A80036; stroke-width: 1.5;" x1="388.5" x2="457.5" y1="236.2344" y2="236.2344"/><polygon fill="#A80036" points="453.5,318.5234,457.5,328.5234,461.5,318.5234,457.5,322.5234" style="stroke: #A80036; stroke-width: 1.5;"/><line style="stroke: #A80036; stroke-width: 1.5;" x1="457.5" x2="457.5" y1="236.2344" y2="394.3159"/><line style="stroke: #A80036; stroke-width: 1.5;" x1="457.5" x2="301" y1="394.3159" y2="394.3159"/><polygon fill="#A80036" points="311,390.3159,301,394.3159,311,398.3159,307,394.3159" style="stroke: #A80036; stroke-width: 1.0;"/><line style="stroke: #A80036; stroke-width: 1.5;" x1="289" x2="289" y1="177.9375" y2="224.2344"/><polygon fill="#A80036" points="285,214.2344,289,224.2344,293,214.2344,289,218.2344" style="stroke: #A80036; stroke-width: 1.0;"/><line style="stroke: #A80036; stroke-width: 1.5;" x1="345" x2="345" y1="664.1475" y2="684.1475"/><polygon fill="#A80036" points="341,674.1475,345,684.1475,349,674.1475,345,678.1475" style="stroke: #A80036; stroke-width: 1.0;"/><line style="stroke: #A80036; stroke-width: 1.5;" x1="448" x2="475" y1="652.1475" y2="652.1475"/><polygon fill="#A80036" points="465,648.1475,475,652.1475,465,656.1475,469,652.1475" style="stroke: #A80036; stroke-width: 1.0;"/><line style="stroke: #A80036; stroke-width: 1.5;" x1="345" x2="345" y1="608.2607" y2="640.1475"/><polygon fill="#A80036" points="341,630.1475,345,640.1475,349,630.1475,345,634.1475" style="stroke: #A80036; stroke-width: 1.0;"/><line style="stroke: #A80036; stroke-width: 1.5;" x1="121.5" x2="121.5" y1="542.5815" y2="684.1475"/><polygon fill="#A80036" points="117.5,674.1475,121.5,684.1475,125.5,674.1475,121.5,678.1475" style="stroke: #A80036; stroke-width: 1.0;"/><line style="stroke: #A80036; stroke-width: 1.5;" x1="345" x2="345" y1="542.5815" y2="574.292"/><polygon fill="#A80036" points="341,564.292,345,574.292,349,564.292,345,568.292" style="stroke: #A80036; stroke-width: 1.0;"/><line style="stroke: #A80036; stroke-width: 1.5;" x1="222" x2="257.5" y1="530.5815" y2="530.5815"/><polygon fill="#A80036" points="247.5,526.5815,257.5,530.5815,247.5,534.5815,251.5,530.5815" style="stroke: #A80036; stroke-width: 1.0;"/><line style="stroke: #A80036; stroke-width: 1.5;" x1="289" x2="289" y1="498.5815" y2="503.5815"/><line style="stroke: #A80036; stroke-width: 1.5;" x1="289" x2="121.5" y1="503.5815" y2="503.5815"/><line style="stroke: #A80036; stroke-width: 1.5;" x1="121.5" x2="121.5" y1="503.5815" y2="518.5815"/><polygon fill="#A80036" points="117.5,508.5815,121.5,518.5815,125.5,508.5815,121.5,512.5815" style="stroke: #A80036; stroke-width: 1.0;"/><line style="stroke: #A80036; stroke-width: 1.5;" x1="432.5" x2="515" y1="530.5815" y2="530.5815"/><line style="stroke: #A80036; stroke-width: 1.5;" x1="515" x2="515" y1="530.5815" y2="628.2607"/><polygon fill="#A80036" points="511,618.2607,515,628.2607,519,618.2607,515,622.2607" style="stroke: #A80036; stroke-width: 1.0;"/><line style="stroke: #A80036; stroke-width: 1.5;" x1="121.5" x2="345" y1="684.1475" y2="684.1475"/><line style="stroke: #A80036; stroke-width: 1.5;" x1="289" x2="289" y1="406.3159" y2="464.6128"/><polygon fill="#A80036" points="285,454.6128,289,464.6128,293,454.6128,289,458.6128" style="stroke: #A80036; stroke-width: 1.0;"/><line style="stroke: #A80036; stroke-width: 1.5;" x1="289" x2="289" y1="820.4131" y2="852.4131"/><polygon fill="#A80036" points="285,842.4131,289,852.4131,293,842.4131,289,846.4131" style="stroke: #A80036; stroke-width: 1.0;"/><line style="stroke: #A80036; stroke-width: 1.5;" x1="341" x2="368" y1="808.4131" y2="808.4131"/><polygon fill="#A80036" points="358,804.4131,368,808.4131,358,812.4131,362,808.4131" style="stroke: #A80036; stroke-width: 1.0;"/><line style="stroke: #A80036; stroke-width: 1.5;" x1="289" x2="289" y1="776.4131" y2="796.4131"/><polygon fill="#A80036" points="285,786.4131,289,796.4131,293,786.4131,289,790.4131" style="stroke: #A80036; stroke-width: 1.0;"/><line style="stroke: #A80036; stroke-width: 1.5;" x1="289" x2="289" y1="684.1475" y2="742.4443"/><polygon fill="#A80036" points="285,732.4443,289,742.4443,293,732.4443,289,736.4443" style="stroke: #A80036; stroke-width: 1.0;"/><line style="stroke: #A80036; stroke-width: 1.5;" x1="289" x2="289" y1="886.3818" y2="906.3818"/><polygon fill="#A80036" points="285,896.3818,289,906.3818,293,896.3818,289,900.3818" style="stroke: #A80036; stroke-width: 1.0;"/><line style="stroke: #A80036; stroke-width: 1.5;" x1="289" x2="289" y1="985.6787" y2="1005.6787"/><polygon fill="#A80036" points="285,995.6787,289,1005.6787,293,995.6787,289,999.6787" style="stroke: #A80036; stroke-width: 1.0;"/><line style="stroke: #A80036; stroke-width: 1.5;" x1="289" x2="289" y1="1083.6475" y2="1108.0498"/><polygon fill="#A80036" points="285,1098.0498,289,1108.0498,293,1098.0498,289,1102.0498" style="stroke: #A80036; stroke-width: 1.0;"/><line style="stroke: #A80036; stroke-width: 1.5;" x1="339.5" x2="371.5" y1="1071.6475" y2="1071.6475"/><polygon fill="#A80036" points="361.5,1067.6475,371.5,1071.6475,361.5,1075.6475,365.5,1071.6475" style="stroke: #A80036; stroke-width: 1.0;"/><line style="stroke: #A80036; stroke-width: 1.5;" x1="289" x2="289" y1="1039.6475" y2="1059.6475"/><polygon fill="#A80036" points="285,1049.6475,289,1059.6475,293,1049.6475,289,1053.6475" style="stroke: #A80036; stroke-width: 1.0;"/><!--MD5=[848bdd645d60d892aad31f69c3d58d47]
@startuml
start
:Show app logo 2 secs;
(A)
:RequestSignIn;

partition RuntimePermission {
  if (IsGrantedRuntimePermissions?) then (YES)
  else (NO)
    :StartRuntimePermissions;

    if (IsGrantedRuntimePermissions?) then (YES)
    else (NO)
      (E)
      detach
    endif
  endif
}

partition GoogleSignIn {
  :RequestGoogleSilentSignIn;

  if (result==ApiResult.SUCCEEDED) then (YES)
  elseif (result==ApiResult.INVALID) then (YES)
    :StartGoogleSignInActivity;

    if (IsSucceededGoogleUserSignIn?) then (NO)
      (E)
      detach
    endif
  else
    (E)
    detach
  endif
}

partition UpdateUserInfo {
  :RequestUpdateUserInfo;

  if (IsSucceeded?) then (NO)
    (E)
    detach
  endif
}

:StartMainActivity;
end

partition Error {
  (E)
  :Show error dialog;
  if (Retry sign in?) then (YES)
    (A)
  else (NO)
    end
  endif
}
@enduml

PlantUML version 1.2020.17beta5(Unknown compile time)
(GPL source distribution)
Java Runtime: Java(TM) SE Runtime Environment
JVM: Java HotSpot(TM) 64-Bit Server VM
Default Encoding: UTF-8
Language: en
Country: US
--></g></svg>