<?xml version="1.0" encoding="UTF-8" standalone="no"?><svg xmlns="http://www.w3.org/2000/svg" xmlns:xlink="http://www.w3.org/1999/xlink" contentScriptType="application/ecmascript" contentStyleType="text/css" height="1411px" preserveAspectRatio="none" style="width:460px;height:1411px;" version="1.1" viewBox="0 0 460 1411" width="460px" zoomAndPan="magnify"><defs><filter height="300%" id="fgo73ylhflvy0" width="300%" x="-1" y="-1"><feGaussianBlur result="blurOut" stdDeviation="2.0"/><feColorMatrix in="blurOut" result="blurOut2" type="matrix" values="0 0 0 0 0 0 0 0 0 0 0 0 0 0 0 0 0 0 .4 0"/><feOffset dx="4.0" dy="4.0" in="blurOut2" result="blurOut3"/><feBlend in="SourceGraphic" in2="blurOut3" mode="normal"/></filter></defs><g><ellipse cx="228.5" cy="20" fill="#000000" filter="url(#fgo73ylhflvy0)" rx="10" ry="10" style="stroke: none; stroke-width: 1.0;"/><rect fill="#FEFECE" filter="url(#fgo73ylhflvy0)" height="33.9688" rx="12.5" ry="12.5" style="stroke: #A80036; stroke-width: 1.5;" width="156" x="150.5" y="50"/><text fill="#000000" font-family="sans-serif" font-size="12" lengthAdjust="spacingAndGlyphs" textLength="136" x="160.5" y="71.1387">Show app logo 2 secs</text><ellipse cx="228.5" cy="113.9688" fill="#FEFECE" filter="url(#fgo73ylhflvy0)" rx="10" ry="10" style="stroke: #A80036; stroke-width: 1.5;"/><path d="M228.6094,110.1406 L227,114.4844 L230.2188,114.4844 L228.6094,110.1406 Z M227.9375,108.9688 L229.2813,108.9688 L232.6094,117.7188 L231.375,117.7188 L230.5781,115.4688 L226.6406,115.4688 L225.8438,117.7188 L224.5938,117.7188 L227.9375,108.9688 Z "/><rect fill="#FFFFFF" filter="url(#fgo73ylhflvy0)" height="230.3784" style="stroke: #000000; stroke-width: 2.0;" width="310" x="109" y="133.9688"/><path d="M258,134.9688 L258,143.2656 L248,153.2656 L109,153.2656 " fill="none" style="stroke: #000000; stroke-width: 2.0;"/><text fill="#000000" font-family="sans-serif" font-size="14" lengthAdjust="spacingAndGlyphs" textLength="139" x="112" y="147.9639">RuntimePermission</text><rect fill="#FEFECE" filter="url(#fgo73ylhflvy0)" height="33.9688" rx="12.5" ry="12.5" style="stroke: #A80036; stroke-width: 1.5;" width="167" x="145" y="218.668"/><text fill="#000000" font-family="sans-serif" font-size="12" lengthAdjust="spacingAndGlyphs" textLength="147" x="155" y="239.8066">StartRuntimePermissions</text><polygon fill="#FEFECE" filter="url(#fgo73ylhflvy0)" points="141,272.6367,316,272.6367,328,284.6367,316,296.6367,141,296.6367,129,284.6367,141,272.6367" style="stroke: #A80036; stroke-width: 1.5;"/><text fill="#000000" font-family="sans-serif" font-size="11" lengthAdjust="spacingAndGlyphs" textLength="22" x="232.5" y="306.8472">YES</text><text fill="#000000" font-family="sans-serif" font-size="11" lengthAdjust="spacingAndGlyphs" textLength="175" x="141" y="288.4448">IsGrantedRuntimePermissions?</text><text fill="#000000" font-family="sans-serif" font-size="11" lengthAdjust="spacingAndGlyphs" textLength="17" x="328" y="282.0425">NO</text><ellipse cx="365" cy="284.6367" fill="#FEFECE" filter="url(#fgo73ylhflvy0)" rx="10" ry="10" style="stroke: #A80036; stroke-width: 1.5;"/><path d="M362.6719,280.3867 L368.2031,280.3867 L368.2031,281.3867 L363.8594,281.3867 L363.8594,283.9805 L368.0313,283.9805 L368.0313,284.9648 L363.8594,284.9648 L363.8594,288.1367 L368.3125,288.1367 L368.3125,289.1367 L362.6719,289.1367 L362.6719,280.3867 Z "/><polygon fill="#FEFECE" filter="url(#fgo73ylhflvy0)" points="141,170.2656,316,170.2656,328,182.2656,316,194.2656,141,194.2656,129,182.2656,141,170.2656" style="stroke: #A80036; stroke-width: 1.5;"/><text fill="#000000" font-family="sans-serif" font-size="11" lengthAdjust="spacingAndGlyphs" textLength="17" x="232.5" y="204.4761">NO</text><text fill="#000000" font-family="sans-serif" font-size="11" lengthAdjust="spacingAndGlyphs" textLength="175" x="141" y="186.0737">IsGrantedRuntimePermissions?</text><text fill="#000000" font-family="sans-serif" font-size="11" lengthAdjust="spacingAndGlyphs" textLength="22" x="328" y="179.6714">YES</text><polygon fill="#FEFECE" filter="url(#fgo73ylhflvy0)" points="228.5,328.3472,240.5,340.3472,228.5,352.3472,216.5,340.3472,228.5,328.3472" style="stroke: #A80036; stroke-width: 1.5;"/><rect fill="#FFFFFF" filter="url(#fgo73ylhflvy0)" height="205.9761" style="stroke: #000000; stroke-width: 2.0;" width="418.5" x="30.75" y="374.3472"/><path d="M135.75,375.3472 L135.75,383.644 L125.75,393.644 L30.75,393.644 " fill="none" style="stroke: #000000; stroke-width: 2.0;"/><text fill="#000000" font-family="sans-serif" font-size="14" lengthAdjust="spacingAndGlyphs" textLength="95" x="33.75" y="388.3423">GoogleSignIn</text><polygon fill="#FEFECE" filter="url(#fgo73ylhflvy0)" points="173.5,410.644,283.5,410.644,295.5,422.644,283.5,434.644,173.5,434.644,161.5,422.644,173.5,410.644" style="stroke: #A80036; stroke-width: 1.5;"/><text fill="#000000" font-family="sans-serif" font-size="11" lengthAdjust="spacingAndGlyphs" textLength="110" x="173.5" y="426.4521">IsSignedInAccount?</text><text fill="#000000" font-family="sans-serif" font-size="11" lengthAdjust="spacingAndGlyphs" textLength="22" x="139.5" y="420.0498">YES</text><text fill="#000000" font-family="sans-serif" font-size="11" lengthAdjust="spacingAndGlyphs" textLength="17" x="295.5" y="420.0498">NO</text><rect fill="#FEFECE" filter="url(#fgo73ylhflvy0)" height="33.9688" rx="12.5" ry="12.5" style="stroke: #A80036; stroke-width: 1.5;" width="138" x="50.75" y="444.644"/><text fill="#000000" font-family="sans-serif" font-size="12" lengthAdjust="spacingAndGlyphs" textLength="118" x="60.75" y="465.7827">RequestSilentSignIn</text><polygon fill="#FEFECE" filter="url(#fgo73ylhflvy0)" points="78.75,498.6128,160.75,498.6128,172.75,510.6128,160.75,522.6128,78.75,522.6128,66.75,510.6128,78.75,498.6128" style="stroke: #A80036; stroke-width: 1.5;"/><text fill="#000000" font-family="sans-serif" font-size="11" lengthAdjust="spacingAndGlyphs" textLength="22" x="123.75" y="532.8232">YES</text><text fill="#000000" font-family="sans-serif" font-size="11" lengthAdjust="spacingAndGlyphs" textLength="82" x="78.75" y="514.4209">Is succeeded?</text><text fill="#000000" font-family="sans-serif" font-size="11" lengthAdjust="spacingAndGlyphs" textLength="17" x="172.75" y="508.0186">NO</text><ellipse cx="209.75" cy="510.6128" fill="#FEFECE" filter="url(#fgo73ylhflvy0)" rx="10" ry="10" style="stroke: #A80036; stroke-width: 1.5;"/><path d="M207.4219,506.3628 L212.9531,506.3628 L212.9531,507.3628 L208.6094,507.3628 L208.6094,509.9565 L212.7813,509.9565 L212.7813,510.9409 L208.6094,510.9409 L208.6094,514.1128 L213.0625,514.1128 L213.0625,515.1128 L207.4219,515.1128 L207.4219,506.3628 Z "/><rect fill="#FEFECE" filter="url(#fgo73ylhflvy0)" height="33.9688" rx="12.5" ry="12.5" style="stroke: #A80036; stroke-width: 1.5;" width="171" x="251.75" y="444.644"/><text fill="#000000" font-family="sans-serif" font-size="12" lengthAdjust="spacingAndGlyphs" textLength="151" x="261.75" y="465.7827">StartGoogleSignInActivity</text><polygon fill="#FEFECE" filter="url(#fgo73ylhflvy0)" points="296.25,498.6128,378.25,498.6128,390.25,510.6128,378.25,522.6128,296.25,522.6128,284.25,510.6128,296.25,498.6128" style="stroke: #A80036; stroke-width: 1.5;"/><text fill="#000000" font-family="sans-serif" font-size="11" lengthAdjust="spacingAndGlyphs" textLength="22" x="341.25" y="532.8232">YES</text><text fill="#000000" font-family="sans-serif" font-size="11" lengthAdjust="spacingAndGlyphs" textLength="82" x="296.25" y="514.4209">Is succeeded?</text><text fill="#000000" font-family="sans-serif" font-size="11" lengthAdjust="spacingAndGlyphs" textLength="17" x="390.25" y="508.0186">NO</text><ellipse cx="427.25" cy="510.6128" fill="#FEFECE" filter="url(#fgo73ylhflvy0)" rx="10" ry="10" style="stroke: #A80036; stroke-width: 1.5;"/><path d="M424.9219,506.3628 L430.4531,506.3628 L430.4531,507.3628 L426.1094,507.3628 L426.1094,509.9565 L430.2813,509.9565 L430.2813,510.9409 L426.1094,510.9409 L426.1094,514.1128 L430.5625,514.1128 L430.5625,515.1128 L424.9219,515.1128 L424.9219,506.3628 Z "/><polygon fill="#FEFECE" filter="url(#fgo73ylhflvy0)" points="228.5,544.3232,240.5,556.3232,228.5,568.3232,216.5,556.3232,228.5,544.3232" style="stroke: #A80036; stroke-width: 1.5;"/><rect fill="#FFFFFF" filter="url(#fgo73ylhflvy0)" height="502.9766" style="stroke: #000000; stroke-width: 2.0;" width="403.5" x="10" y="590.3232"/><path d="M131,591.3232 L131,599.6201 L121,609.6201 L10,609.6201 " fill="none" style="stroke: #000000; stroke-width: 2.0;"/><text fill="#000000" font-family="sans-serif" font-size="14" lengthAdjust="spacingAndGlyphs" textLength="111" x="13" y="604.3184">UpdateUserInfo</text><rect fill="#FEFECE" filter="url(#fgo73ylhflvy0)" height="33.9688" rx="12.5" ry="12.5" style="stroke: #A80036; stroke-width: 1.5;" width="189" x="134" y="626.6201"/><text fill="#000000" font-family="sans-serif" font-size="12" lengthAdjust="spacingAndGlyphs" textLength="169" x="144" y="647.7588">FindUserInfo from Database</text><rect fill="#FEFECE" filter="url(#fgo73ylhflvy0)" height="33.9688" rx="12.5" ry="12.5" style="stroke: #A80036; stroke-width: 1.5;" width="237" x="110" y="728.9912"/><text fill="#000000" font-family="sans-serif" font-size="12" lengthAdjust="spacingAndGlyphs" textLength="217" x="120" y="750.1299">RequestTokenInfoWithRefreshToken</text><polygon fill="#FEFECE" filter="url(#fgo73ylhflvy0)" points="178,680.5889,279,680.5889,291,692.5889,279,704.5889,178,704.5889,166,692.5889,178,680.5889" style="stroke: #A80036; stroke-width: 1.5;"/><text fill="#000000" font-family="sans-serif" font-size="11" lengthAdjust="spacingAndGlyphs" textLength="22" x="232.5" y="714.7993">YES</text><text fill="#000000" font-family="sans-serif" font-size="11" lengthAdjust="spacingAndGlyphs" textLength="101" x="178" y="696.397">Is found userInfo?</text><polygon fill="#FEFECE" filter="url(#fgo73ylhflvy0)" points="228.5,782.96,240.5,794.96,228.5,806.96,216.5,794.96,228.5,782.96" style="stroke: #A80036; stroke-width: 1.5;"/><rect fill="#FEFECE" filter="url(#fgo73ylhflvy0)" height="33.9688" rx="12.5" ry="12.5" style="stroke: #A80036; stroke-width: 1.5;" width="212" x="122.5" y="875.3623"/><text fill="#000000" font-family="sans-serif" font-size="12" lengthAdjust="spacingAndGlyphs" textLength="192" x="132.5" y="896.501">RequestTokenInfoWithAuthCode</text><polygon fill="#FEFECE" filter="url(#fgo73ylhflvy0)" points="140,826.96,317,826.96,329,838.96,317,850.96,140,850.96,128,838.96,140,826.96" style="stroke: #A80036; stroke-width: 1.5;"/><text fill="#000000" font-family="sans-serif" font-size="11" lengthAdjust="spacingAndGlyphs" textLength="17" x="232.5" y="861.1704">NO</text><text fill="#000000" font-family="sans-serif" font-size="11" lengthAdjust="spacingAndGlyphs" textLength="177" x="140" y="842.7681">Is succeeded to get tokenInfo?</text><polygon fill="#FEFECE" filter="url(#fgo73ylhflvy0)" points="228.5,929.3311,240.5,941.3311,228.5,953.3311,216.5,941.3311,228.5,929.3311" style="stroke: #A80036; stroke-width: 1.5;"/><polygon fill="#FEFECE" filter="url(#fgo73ylhflvy0)" points="140,973.3311,317,973.3311,329,985.3311,317,997.3311,140,997.3311,128,985.3311,140,973.3311" style="stroke: #A80036; stroke-width: 1.5;"/><text fill="#000000" font-family="sans-serif" font-size="11" lengthAdjust="spacingAndGlyphs" textLength="177" x="140" y="989.1392">Is susceeded to get tokenInfo?</text><text fill="#000000" font-family="sans-serif" font-size="11" lengthAdjust="spacingAndGlyphs" textLength="22" x="106" y="982.7368">YES</text><text fill="#000000" font-family="sans-serif" font-size="11" lengthAdjust="spacingAndGlyphs" textLength="17" x="329" y="982.7368">NO</text><rect fill="#FEFECE" filter="url(#fgo73ylhflvy0)" height="33.9688" rx="12.5" ry="12.5" style="stroke: #A80036; stroke-width: 1.5;" width="192" x="22" y="1007.3311"/><text fill="#000000" font-family="sans-serif" font-size="12" lengthAdjust="spacingAndGlyphs" textLength="172" x="32" y="1028.4697">UpdateUserInfo to Database</text><rect fill="#FEFECE" filter="url(#fgo73ylhflvy0)" height="33.9688" rx="12.5" ry="12.5" style="stroke: #A80036; stroke-width: 1.5;" width="109" x="284.5" y="1007.3311"/><text fill="#000000" font-family="sans-serif" font-size="12" lengthAdjust="spacingAndGlyphs" textLength="89" x="294.5" y="1028.4697">RevokeAccess</text><ellipse cx="339" cy="1071.2998" fill="#FEFECE" filter="url(#fgo73ylhflvy0)" rx="10" ry="10" style="stroke: #A80036; stroke-width: 1.5;"/><path d="M336.6719,1067.0498 L342.2031,1067.0498 L342.2031,1068.0498 L337.8594,1068.0498 L337.8594,1070.6436 L342.0313,1070.6436 L342.0313,1071.6279 L337.8594,1071.6279 L337.8594,1074.7998 L342.3125,1074.7998 L342.3125,1075.7998 L336.6719,1075.7998 L336.6719,1067.0498 Z "/><rect fill="#FEFECE" filter="url(#fgo73ylhflvy0)" height="33.9688" rx="12.5" ry="12.5" style="stroke: #A80036; stroke-width: 1.5;" width="118" x="169.5" y="1113.2998"/><text fill="#000000" font-family="sans-serif" font-size="12" lengthAdjust="spacingAndGlyphs" textLength="98" x="179.5" y="1134.4385">StartMainActivity</text><ellipse cx="228.5" cy="1177.2686" fill="#FFFFFF" filter="url(#fgo73ylhflvy0)" rx="10" ry="10" style="stroke: #000000; stroke-width: 1.5;"/><line style="stroke: #000000; stroke-width: 2.5;" x1="222.3128" x2="234.6872" y1="1171.0814" y2="1183.4557"/><line style="stroke: #000000; stroke-width: 2.5;" x1="234.6872" x2="222.3128" y1="1171.0814" y2="1183.4557"/><rect fill="#FFFFFF" filter="url(#fgo73ylhflvy0)" height="203.668" style="stroke: #000000; stroke-width: 2.0;" width="199" x="154" y="1197.2686"/><path d="M200,1198.2686 L200,1206.5654 L190,1216.5654 L154,1216.5654 " fill="none" style="stroke: #000000; stroke-width: 2.0;"/><text fill="#000000" font-family="sans-serif" font-size="14" lengthAdjust="spacingAndGlyphs" textLength="36" x="157" y="1211.2637">Error</text><ellipse cx="228.5" cy="1236.5654" fill="#FEFECE" filter="url(#fgo73ylhflvy0)" rx="10" ry="10" style="stroke: #A80036; stroke-width: 1.5;"/><path d="M226.1719,1232.3154 L231.7031,1232.3154 L231.7031,1233.3154 L227.3594,1233.3154 L227.3594,1235.9092 L231.5313,1235.9092 L231.5313,1236.8936 L227.3594,1236.8936 L227.3594,1240.0654 L231.8125,1240.0654 L231.8125,1241.0654 L226.1719,1241.0654 L226.1719,1232.3154 Z "/><rect fill="#FEFECE" filter="url(#fgo73ylhflvy0)" height="33.9688" rx="12.5" ry="12.5" style="stroke: #A80036; stroke-width: 1.5;" width="129" x="164" y="1266.5654"/><text fill="#000000" font-family="sans-serif" font-size="12" lengthAdjust="spacingAndGlyphs" textLength="109" x="174" y="1287.7041">Show error dialog</text><ellipse cx="228.5" cy="1378.9365" fill="#FFFFFF" filter="url(#fgo73ylhflvy0)" rx="10" ry="10" style="stroke: #000000; stroke-width: 1.5;"/><line style="stroke: #000000; stroke-width: 2.5;" x1="222.3128" x2="234.6872" y1="1372.7493" y2="1385.1237"/><line style="stroke: #000000; stroke-width: 2.5;" x1="234.6872" x2="222.3128" y1="1372.7493" y2="1385.1237"/><polygon fill="#FEFECE" filter="url(#fgo73ylhflvy0)" points="190,1320.5342,267,1320.5342,279,1332.5342,267,1344.5342,190,1344.5342,178,1332.5342,190,1320.5342" style="stroke: #A80036; stroke-width: 1.5;"/><text fill="#000000" font-family="sans-serif" font-size="11" lengthAdjust="spacingAndGlyphs" textLength="17" x="232.5" y="1354.7446">NO</text><text fill="#000000" font-family="sans-serif" font-size="11" lengthAdjust="spacingAndGlyphs" textLength="77" x="190" y="1336.3423">Retry sign in?</text><text fill="#000000" font-family="sans-serif" font-size="11" lengthAdjust="spacingAndGlyphs" textLength="22" x="279" y="1329.9399">YES</text><ellipse cx="321" cy="1332.5342" fill="#FEFECE" filter="url(#fgo73ylhflvy0)" rx="10" ry="10" style="stroke: #A80036; stroke-width: 1.5;"/><path d="M321.1094,1328.7061 L319.5,1333.0498 L322.7188,1333.0498 L321.1094,1328.7061 Z M320.4375,1327.5342 L321.7813,1327.5342 L325.1094,1336.2842 L323.875,1336.2842 L323.0781,1334.0342 L319.1406,1334.0342 L318.3438,1336.2842 L317.0938,1336.2842 L320.4375,1327.5342 Z "/><line style="stroke: #A80036; stroke-width: 1.5;" x1="228.5" x2="228.5" y1="30" y2="50"/><polygon fill="#A80036" points="224.5,40,228.5,50,232.5,40,228.5,44" style="stroke: #A80036; stroke-width: 1.0;"/><line style="stroke: #A80036; stroke-width: 1.5;" x1="228.5" x2="228.5" y1="83.9688" y2="103.9688"/><polygon fill="#A80036" points="224.5,93.9688,228.5,103.9688,232.5,93.9688,228.5,97.9688" style="stroke: #A80036; stroke-width: 1.0;"/><line style="stroke: #A80036; stroke-width: 1.5;" x1="228.5" x2="228.5" y1="296.6367" y2="328.3472"/><polygon fill="#A80036" points="224.5,318.3472,228.5,328.3472,232.5,318.3472,228.5,322.3472" style="stroke: #A80036; stroke-width: 1.0;"/><line style="stroke: #A80036; stroke-width: 1.5;" x1="328" x2="355" y1="284.6367" y2="284.6367"/><polygon fill="#A80036" points="345,280.6367,355,284.6367,345,288.6367,349,284.6367" style="stroke: #A80036; stroke-width: 1.0;"/><line style="stroke: #A80036; stroke-width: 1.5;" x1="228.5" x2="228.5" y1="252.6367" y2="272.6367"/><polygon fill="#A80036" points="224.5,262.6367,228.5,272.6367,232.5,262.6367,228.5,266.6367" style="stroke: #A80036; stroke-width: 1.0;"/><line style="stroke: #A80036; stroke-width: 1.5;" x1="228.5" x2="228.5" y1="194.2656" y2="218.668"/><polygon fill="#A80036" points="224.5,208.668,228.5,218.668,232.5,208.668,228.5,212.668" style="stroke: #A80036; stroke-width: 1.0;"/><line style="stroke: #A80036; stroke-width: 1.5;" x1="328" x2="397" y1="182.2656" y2="182.2656"/><polygon fill="#A80036" points="393,264.5547,397,274.5547,401,264.5547,397,268.5547" style="stroke: #A80036; stroke-width: 1.5;"/><line style="stroke: #A80036; stroke-width: 1.5;" x1="397" x2="397" y1="182.2656" y2="340.3472"/><line style="stroke: #A80036; stroke-width: 1.5;" x1="397" x2="240.5" y1="340.3472" y2="340.3472"/><polygon fill="#A80036" points="250.5,336.3472,240.5,340.3472,250.5,344.3472,246.5,340.3472" style="stroke: #A80036; stroke-width: 1.0;"/><line style="stroke: #A80036; stroke-width: 1.5;" x1="228.5" x2="228.5" y1="123.9688" y2="170.2656"/><polygon fill="#A80036" points="224.5,160.2656,228.5,170.2656,232.5,160.2656,228.5,164.2656" style="stroke: #A80036; stroke-width: 1.0;"/><line style="stroke: #A80036; stroke-width: 1.5;" x1="119.75" x2="119.75" y1="522.6128" y2="556.3232"/><line style="stroke: #A80036; stroke-width: 1.5;" x1="119.75" x2="216.5" y1="556.3232" y2="556.3232"/><polygon fill="#A80036" points="206.5,552.3232,216.5,556.3232,206.5,560.3232,210.5,556.3232" style="stroke: #A80036; stroke-width: 1.0;"/><line style="stroke: #A80036; stroke-width: 1.5;" x1="172.75" x2="199.75" y1="510.6128" y2="510.6128"/><polygon fill="#A80036" points="189.75,506.6128,199.75,510.6128,189.75,514.6128,193.75,510.6128" style="stroke: #A80036; stroke-width: 1.0;"/><line style="stroke: #A80036; stroke-width: 1.5;" x1="119.75" x2="119.75" y1="478.6128" y2="498.6128"/><polygon fill="#A80036" points="115.75,488.6128,119.75,498.6128,123.75,488.6128,119.75,492.6128" style="stroke: #A80036; stroke-width: 1.0;"/><line style="stroke: #A80036; stroke-width: 1.5;" x1="337.25" x2="337.25" y1="522.6128" y2="556.3232"/><line style="stroke: #A80036; stroke-width: 1.5;" x1="337.25" x2="240.5" y1="556.3232" y2="556.3232"/><polygon fill="#A80036" points="250.5,552.3232,240.5,556.3232,250.5,560.3232,246.5,556.3232" style="stroke: #A80036; stroke-width: 1.0;"/><line style="stroke: #A80036; stroke-width: 1.5;" x1="390.25" x2="417.25" y1="510.6128" y2="510.6128"/><polygon fill="#A80036" points="407.25,506.6128,417.25,510.6128,407.25,514.6128,411.25,510.6128" style="stroke: #A80036; stroke-width: 1.0;"/><line style="stroke: #A80036; stroke-width: 1.5;" x1="337.25" x2="337.25" y1="478.6128" y2="498.6128"/><polygon fill="#A80036" points="333.25,488.6128,337.25,498.6128,341.25,488.6128,337.25,492.6128" style="stroke: #A80036; stroke-width: 1.0;"/><line style="stroke: #A80036; stroke-width: 1.5;" x1="161.5" x2="119.75" y1="422.644" y2="422.644"/><line style="stroke: #A80036; stroke-width: 1.5;" x1="119.75" x2="119.75" y1="422.644" y2="444.644"/><polygon fill="#A80036" points="115.75,434.644,119.75,444.644,123.75,434.644,119.75,438.644" style="stroke: #A80036; stroke-width: 1.0;"/><line style="stroke: #A80036; stroke-width: 1.5;" x1="295.5" x2="337.25" y1="422.644" y2="422.644"/><line style="stroke: #A80036; stroke-width: 1.5;" x1="337.25" x2="337.25" y1="422.644" y2="444.644"/><polygon fill="#A80036" points="333.25,434.644,337.25,444.644,341.25,434.644,337.25,438.644" style="stroke: #A80036; stroke-width: 1.0;"/><line style="stroke: #A80036; stroke-width: 1.5;" x1="228.5" x2="228.5" y1="352.3472" y2="410.644"/><polygon fill="#A80036" points="224.5,400.644,228.5,410.644,232.5,400.644,228.5,404.644" style="stroke: #A80036; stroke-width: 1.0;"/><line style="stroke: #A80036; stroke-width: 1.5;" x1="228.5" x2="228.5" y1="704.5889" y2="728.9912"/><polygon fill="#A80036" points="224.5,718.9912,228.5,728.9912,232.5,718.9912,228.5,722.9912" style="stroke: #A80036; stroke-width: 1.0;"/><line style="stroke: #A80036; stroke-width: 1.5;" x1="291" x2="357" y1="692.5889" y2="692.5889"/><polygon fill="#A80036" points="353,735.9756,357,745.9756,361,735.9756,357,739.9756" style="stroke: #A80036; stroke-width: 1.5;"/><line style="stroke: #A80036; stroke-width: 1.5;" x1="357" x2="357" y1="692.5889" y2="794.96"/><line style="stroke: #A80036; stroke-width: 1.5;" x1="357" x2="240.5" y1="794.96" y2="794.96"/><polygon fill="#A80036" points="250.5,790.96,240.5,794.96,250.5,798.96,246.5,794.96" style="stroke: #A80036; stroke-width: 1.0;"/><line style="stroke: #A80036; stroke-width: 1.5;" x1="228.5" x2="228.5" y1="762.96" y2="782.96"/><polygon fill="#A80036" points="224.5,772.96,228.5,782.96,232.5,772.96,228.5,776.96" style="stroke: #A80036; stroke-width: 1.0;"/><line style="stroke: #A80036; stroke-width: 1.5;" x1="228.5" x2="228.5" y1="660.5889" y2="680.5889"/><polygon fill="#A80036" points="224.5,670.5889,228.5,680.5889,232.5,670.5889,228.5,674.5889" style="stroke: #A80036; stroke-width: 1.0;"/><line style="stroke: #A80036; stroke-width: 1.5;" x1="228.5" x2="228.5" y1="850.96" y2="875.3623"/><polygon fill="#A80036" points="224.5,865.3623,228.5,875.3623,232.5,865.3623,228.5,869.3623" style="stroke: #A80036; stroke-width: 1.0;"/><line style="stroke: #A80036; stroke-width: 1.5;" x1="329" x2="344.5" y1="838.96" y2="838.96"/><polygon fill="#A80036" points="340.5,882.3467,344.5,892.3467,348.5,882.3467,344.5,886.3467" style="stroke: #A80036; stroke-width: 1.5;"/><line style="stroke: #A80036; stroke-width: 1.5;" x1="344.5" x2="344.5" y1="838.96" y2="941.3311"/><line style="stroke: #A80036; stroke-width: 1.5;" x1="344.5" x2="240.5" y1="941.3311" y2="941.3311"/><polygon fill="#A80036" points="250.5,937.3311,240.5,941.3311,250.5,945.3311,246.5,941.3311" style="stroke: #A80036; stroke-width: 1.0;"/><line style="stroke: #A80036; stroke-width: 1.5;" x1="228.5" x2="228.5" y1="909.3311" y2="929.3311"/><polygon fill="#A80036" points="224.5,919.3311,228.5,929.3311,232.5,919.3311,228.5,923.3311" style="stroke: #A80036; stroke-width: 1.0;"/><line style="stroke: #A80036; stroke-width: 1.5;" x1="228.5" x2="228.5" y1="806.96" y2="826.96"/><polygon fill="#A80036" points="224.5,816.96,228.5,826.96,232.5,816.96,228.5,820.96" style="stroke: #A80036; stroke-width: 1.0;"/><line style="stroke: #A80036; stroke-width: 1.5;" x1="339" x2="339" y1="1041.2998" y2="1061.2998"/><polygon fill="#A80036" points="335,1051.2998,339,1061.2998,343,1051.2998,339,1055.2998" style="stroke: #A80036; stroke-width: 1.0;"/><line style="stroke: #A80036; stroke-width: 1.5;" x1="128" x2="118" y1="985.3311" y2="985.3311"/><line style="stroke: #A80036; stroke-width: 1.5;" x1="118" x2="118" y1="985.3311" y2="1007.3311"/><polygon fill="#A80036" points="114,997.3311,118,1007.3311,122,997.3311,118,1001.3311" style="stroke: #A80036; stroke-width: 1.0;"/><line style="stroke: #A80036; stroke-width: 1.5;" x1="329" x2="339" y1="985.3311" y2="985.3311"/><line style="stroke: #A80036; stroke-width: 1.5;" x1="339" x2="339" y1="985.3311" y2="1007.3311"/><polygon fill="#A80036" points="335,997.3311,339,1007.3311,343,997.3311,339,1001.3311" style="stroke: #A80036; stroke-width: 1.0;"/><line style="stroke: #A80036; stroke-width: 1.5;" x1="118" x2="118" y1="1041.2998" y2="1086.2998"/><line style="stroke: #A80036; stroke-width: 1.5;" x1="118" x2="228.5" y1="1086.2998" y2="1086.2998"/><line style="stroke: #A80036; stroke-width: 1.5;" x1="228.5" x2="228.5" y1="1086.2998" y2="1113.2998"/><polygon fill="#A80036" points="224.5,1103.2998,228.5,1113.2998,232.5,1103.2998,228.5,1107.2998" style="stroke: #A80036; stroke-width: 1.0;"/><line style="stroke: #A80036; stroke-width: 1.5;" x1="228.5" x2="228.5" y1="953.3311" y2="973.3311"/><polygon fill="#A80036" points="224.5,963.3311,228.5,973.3311,232.5,963.3311,228.5,967.3311" style="stroke: #A80036; stroke-width: 1.0;"/><line style="stroke: #A80036; stroke-width: 1.5;" x1="228.5" x2="228.5" y1="568.3232" y2="626.6201"/><polygon fill="#A80036" points="224.5,616.6201,228.5,626.6201,232.5,616.6201,228.5,620.6201" style="stroke: #A80036; stroke-width: 1.0;"/><line style="stroke: #A80036; stroke-width: 1.5;" x1="228.5" x2="228.5" y1="1147.2686" y2="1167.2686"/><polygon fill="#A80036" points="224.5,1157.2686,228.5,1167.2686,232.5,1157.2686,228.5,1161.2686" style="stroke: #A80036; stroke-width: 1.0;"/><line style="stroke: #A80036; stroke-width: 1.5;" x1="228.5" x2="228.5" y1="1246.5654" y2="1266.5654"/><polygon fill="#A80036" points="224.5,1256.5654,228.5,1266.5654,232.5,1256.5654,228.5,1260.5654" style="stroke: #A80036; stroke-width: 1.0;"/><line style="stroke: #A80036; stroke-width: 1.5;" x1="228.5" x2="228.5" y1="1344.5342" y2="1368.9365"/><polygon fill="#A80036" points="224.5,1358.9365,228.5,1368.9365,232.5,1358.9365,228.5,1362.9365" style="stroke: #A80036; stroke-width: 1.0;"/><line style="stroke: #A80036; stroke-width: 1.5;" x1="279" x2="311" y1="1332.5342" y2="1332.5342"/><polygon fill="#A80036" points="301,1328.5342,311,1332.5342,301,1336.5342,305,1332.5342" style="stroke: #A80036; stroke-width: 1.0;"/><line style="stroke: #A80036; stroke-width: 1.5;" x1="228.5" x2="228.5" y1="1300.5342" y2="1320.5342"/><polygon fill="#A80036" points="224.5,1310.5342,228.5,1320.5342,232.5,1310.5342,228.5,1314.5342" style="stroke: #A80036; stroke-width: 1.0;"/><!--MD5=[38c9ca21219d4d5e7ba30b6ab6c3d78d]
@startuml
start
:Show app logo 2 secs;

(A)
partition RuntimePermission {
  if (IsGrantedRuntimePermissions?) then (YES)
  else (NO)
    :StartRuntimePermissions;

    if (IsGrantedRuntimePermissions?) then (YES)
    else (NO)
      (E)
      detach
    endif
  endif
}

partition GoogleSignIn {
  if (IsSignedInAccount?) then (YES)
    :RequestSilentSignIn;

    if (Is succeeded?) then (YES)
    else (NO)
      (E)
      detach
    endif

  else (NO)
    :StartGoogleSignInActivity;

    if (Is succeeded?) then (YES)
    else (NO)
      (E)
      detach
    endif

  endif
}

partition UpdateUserInfo {
  :FindUserInfo from Database;

  if (Is found userInfo?) then (YES)
    :RequestTokenInfoWithRefreshToken;
  endif

  if (Is succeeded to get tokenInfo?) then (NO)
    :RequestTokenInfoWithAuthCode;
  endif

  if (Is susceeded to get tokenInfo?) then (YES)
    :UpdateUserInfo to Database;
  else (NO)
    :RevokeAccess;
    (E)
    detach
  endif
}

:StartMainActivity;
end

partition Error {
  (E)
  :Show error dialog;
  if (Retry sign in?) then (YES)
    (A)
  else (NO)
    end
  endif
}
@enduml

PlantUML version 1.2020.11(Sat May 30 10:13:43 UTC 2020)
(GPL source distribution)
Java Runtime: Java(TM) SE Runtime Environment
JVM: Java HotSpot(TM) 64-Bit Server VM
Default Encoding: UTF-8
Language: en
Country: US
--></g></svg>