<?xml version="1.0" encoding="UTF-8" standalone="no"?><svg xmlns="http://www.w3.org/2000/svg" xmlns:xlink="http://www.w3.org/1999/xlink" contentScriptType="application/ecmascript" contentStyleType="text/css" height="1754px" preserveAspectRatio="none" style="width:438px;height:1754px;" version="1.1" viewBox="0 0 438 1754" width="438px" zoomAndPan="magnify"><defs><filter height="300%" id="fdjoaiyjio9n0" width="300%" x="-1" y="-1"><feGaussianBlur result="blurOut" stdDeviation="2.0"/><feColorMatrix in="blurOut" result="blurOut2" type="matrix" values="0 0 0 0 0 0 0 0 0 0 0 0 0 0 0 0 0 0 .4 0"/><feOffset dx="4.0" dy="4.0" in="blurOut2" result="blurOut3"/><feBlend in="SourceGraphic" in2="blurOut3" mode="normal"/></filter></defs><g><ellipse cx="200.75" cy="20" fill="#000000" filter="url(#fdjoaiyjio9n0)" rx="10" ry="10" style="stroke: none; stroke-width: 1.0;"/><rect fill="#FEFECE" filter="url(#fdjoaiyjio9n0)" height="33.9688" rx="12.5" ry="12.5" style="stroke: #A80036; stroke-width: 1.5;" width="156" x="122.75" y="50"/><text fill="#000000" font-family="sans-serif" font-size="12" lengthAdjust="spacingAndGlyphs" textLength="136" x="132.75" y="71.1387">Show app logo 2 secs</text><ellipse cx="200.75" cy="113.9688" fill="#FEFECE" filter="url(#fdjoaiyjio9n0)" rx="10" ry="10" style="stroke: #A80036; stroke-width: 1.5;"/><path d="M200.8594,110.1406 L199.25,114.4844 L202.4688,114.4844 L200.8594,110.1406 Z M200.1875,108.9688 L201.5313,108.9688 L204.8594,117.7188 L203.625,117.7188 L202.8281,115.4688 L198.8906,115.4688 L198.0938,117.7188 L196.8438,117.7188 L200.1875,108.9688 Z "/><rect fill="#FFFFFF" filter="url(#fdjoaiyjio9n0)" height="230.3784" style="stroke: #000000; stroke-width: 2.0;" width="310" x="81.25" y="133.9688"/><path d="M230.25,134.9688 L230.25,143.2656 L220.25,153.2656 L81.25,153.2656 " fill="none" style="stroke: #000000; stroke-width: 2.0;"/><text fill="#000000" font-family="sans-serif" font-size="14" lengthAdjust="spacingAndGlyphs" textLength="139" x="84.25" y="147.9639">RuntimePermission</text><rect fill="#FEFECE" filter="url(#fdjoaiyjio9n0)" height="33.9688" rx="12.5" ry="12.5" style="stroke: #A80036; stroke-width: 1.5;" width="167" x="117.25" y="218.668"/><text fill="#000000" font-family="sans-serif" font-size="12" lengthAdjust="spacingAndGlyphs" textLength="147" x="127.25" y="239.8066">StartRuntimePermissions</text><polygon fill="#FEFECE" filter="url(#fdjoaiyjio9n0)" points="113.25,272.6367,288.25,272.6367,300.25,284.6367,288.25,296.6367,113.25,296.6367,101.25,284.6367,113.25,272.6367" style="stroke: #A80036; stroke-width: 1.5;"/><text fill="#000000" font-family="sans-serif" font-size="11" lengthAdjust="spacingAndGlyphs" textLength="22" x="204.75" y="306.8472">YES</text><text fill="#000000" font-family="sans-serif" font-size="11" lengthAdjust="spacingAndGlyphs" textLength="175" x="113.25" y="288.4448">IsGrantedRuntimePermissions?</text><text fill="#000000" font-family="sans-serif" font-size="11" lengthAdjust="spacingAndGlyphs" textLength="17" x="300.25" y="282.0425">NO</text><ellipse cx="337.25" cy="284.6367" fill="#FEFECE" filter="url(#fdjoaiyjio9n0)" rx="10" ry="10" style="stroke: #A80036; stroke-width: 1.5;"/><path d="M334.9219,280.3867 L340.4531,280.3867 L340.4531,281.3867 L336.1094,281.3867 L336.1094,283.9805 L340.2813,283.9805 L340.2813,284.9648 L336.1094,284.9648 L336.1094,288.1367 L340.5625,288.1367 L340.5625,289.1367 L334.9219,289.1367 L334.9219,280.3867 Z "/><polygon fill="#FEFECE" filter="url(#fdjoaiyjio9n0)" points="113.25,170.2656,288.25,170.2656,300.25,182.2656,288.25,194.2656,113.25,194.2656,101.25,182.2656,113.25,170.2656" style="stroke: #A80036; stroke-width: 1.5;"/><text fill="#000000" font-family="sans-serif" font-size="11" lengthAdjust="spacingAndGlyphs" textLength="17" x="204.75" y="204.4761">NO</text><text fill="#000000" font-family="sans-serif" font-size="11" lengthAdjust="spacingAndGlyphs" textLength="175" x="113.25" y="186.0737">IsGrantedRuntimePermissions?</text><text fill="#000000" font-family="sans-serif" font-size="11" lengthAdjust="spacingAndGlyphs" textLength="22" x="300.25" y="179.6714">YES</text><polygon fill="#FEFECE" filter="url(#fdjoaiyjio9n0)" points="200.75,328.3472,212.75,340.3472,200.75,352.3472,188.75,340.3472,200.75,328.3472" style="stroke: #A80036; stroke-width: 1.5;"/><rect fill="#FFFFFF" filter="url(#fdjoaiyjio9n0)" height="205.9761" style="stroke: #000000; stroke-width: 2.0;" width="410.5" x="11" y="374.3472"/><path d="M116,375.3472 L116,383.644 L106,393.644 L11,393.644 " fill="none" style="stroke: #000000; stroke-width: 2.0;"/><text fill="#000000" font-family="sans-serif" font-size="14" lengthAdjust="spacingAndGlyphs" textLength="95" x="14" y="388.3423">GoogleSignIn</text><polygon fill="#FEFECE" filter="url(#fdjoaiyjio9n0)" points="145.75,410.644,255.75,410.644,267.75,422.644,255.75,434.644,145.75,434.644,133.75,422.644,145.75,410.644" style="stroke: #A80036; stroke-width: 1.5;"/><text fill="#000000" font-family="sans-serif" font-size="11" lengthAdjust="spacingAndGlyphs" textLength="110" x="145.75" y="426.4521">IsSignedInAccount?</text><text fill="#000000" font-family="sans-serif" font-size="11" lengthAdjust="spacingAndGlyphs" textLength="22" x="111.75" y="420.0498">YES</text><text fill="#000000" font-family="sans-serif" font-size="11" lengthAdjust="spacingAndGlyphs" textLength="17" x="267.75" y="420.0498">NO</text><rect fill="#FEFECE" filter="url(#fdjoaiyjio9n0)" height="33.9688" rx="12.5" ry="12.5" style="stroke: #A80036; stroke-width: 1.5;" width="138" x="23" y="444.644"/><text fill="#000000" font-family="sans-serif" font-size="12" lengthAdjust="spacingAndGlyphs" textLength="118" x="33" y="465.7827">RequestSilentSignIn</text><polygon fill="#FEFECE" filter="url(#fdjoaiyjio9n0)" points="51,498.6128,133,498.6128,145,510.6128,133,522.6128,51,522.6128,39,510.6128,51,498.6128" style="stroke: #A80036; stroke-width: 1.5;"/><text fill="#000000" font-family="sans-serif" font-size="11" lengthAdjust="spacingAndGlyphs" textLength="22" x="96" y="532.8232">YES</text><text fill="#000000" font-family="sans-serif" font-size="11" lengthAdjust="spacingAndGlyphs" textLength="82" x="51" y="514.4209">Is succeeded?</text><text fill="#000000" font-family="sans-serif" font-size="11" lengthAdjust="spacingAndGlyphs" textLength="17" x="145" y="508.0186">NO</text><ellipse cx="182" cy="510.6128" fill="#FEFECE" filter="url(#fdjoaiyjio9n0)" rx="10" ry="10" style="stroke: #A80036; stroke-width: 1.5;"/><path d="M179.6719,506.3628 L185.2031,506.3628 L185.2031,507.3628 L180.8594,507.3628 L180.8594,509.9565 L185.0313,509.9565 L185.0313,510.9409 L180.8594,510.9409 L180.8594,514.1128 L185.3125,514.1128 L185.3125,515.1128 L179.6719,515.1128 L179.6719,506.3628 Z "/><rect fill="#FEFECE" filter="url(#fdjoaiyjio9n0)" height="33.9688" rx="12.5" ry="12.5" style="stroke: #A80036; stroke-width: 1.5;" width="171" x="224" y="444.644"/><text fill="#000000" font-family="sans-serif" font-size="12" lengthAdjust="spacingAndGlyphs" textLength="151" x="234" y="465.7827">StartGoogleSignInActivity</text><polygon fill="#FEFECE" filter="url(#fdjoaiyjio9n0)" points="268.5,498.6128,350.5,498.6128,362.5,510.6128,350.5,522.6128,268.5,522.6128,256.5,510.6128,268.5,498.6128" style="stroke: #A80036; stroke-width: 1.5;"/><text fill="#000000" font-family="sans-serif" font-size="11" lengthAdjust="spacingAndGlyphs" textLength="22" x="313.5" y="532.8232">YES</text><text fill="#000000" font-family="sans-serif" font-size="11" lengthAdjust="spacingAndGlyphs" textLength="82" x="268.5" y="514.4209">Is succeeded?</text><text fill="#000000" font-family="sans-serif" font-size="11" lengthAdjust="spacingAndGlyphs" textLength="17" x="362.5" y="508.0186">NO</text><ellipse cx="399.5" cy="510.6128" fill="#FEFECE" filter="url(#fdjoaiyjio9n0)" rx="10" ry="10" style="stroke: #A80036; stroke-width: 1.5;"/><path d="M397.1719,506.3628 L402.7031,506.3628 L402.7031,507.3628 L398.3594,507.3628 L398.3594,509.9565 L402.5313,509.9565 L402.5313,510.9409 L398.3594,510.9409 L398.3594,514.1128 L402.8125,514.1128 L402.8125,515.1128 L397.1719,515.1128 L397.1719,506.3628 Z "/><polygon fill="#FEFECE" filter="url(#fdjoaiyjio9n0)" points="200.75,544.3232,212.75,556.3232,200.75,568.3232,188.75,556.3232,200.75,544.3232" style="stroke: #A80036; stroke-width: 1.5;"/><rect fill="#FFFFFF" filter="url(#fdjoaiyjio9n0)" height="839.6367" style="stroke: #000000; stroke-width: 2.0;" width="321" x="52.25" y="590.3232"/><path d="M173.25,591.3232 L173.25,599.6201 L163.25,609.6201 L52.25,609.6201 " fill="none" style="stroke: #000000; stroke-width: 2.0;"/><text fill="#000000" font-family="sans-serif" font-size="14" lengthAdjust="spacingAndGlyphs" textLength="111" x="55.25" y="604.3184">UpdateUserInfo</text><rect fill="#FEFECE" filter="url(#fdjoaiyjio9n0)" height="33.9688" rx="12.5" ry="12.5" style="stroke: #A80036; stroke-width: 1.5;" width="140" x="130.75" y="626.6201"/><text fill="#000000" font-family="sans-serif" font-size="12" lengthAdjust="spacingAndGlyphs" textLength="120" x="140.75" y="647.7588">getSignedInAccount</text><rect fill="#FEFECE" filter="url(#fdjoaiyjio9n0)" height="33.9688" rx="12.5" ry="12.5" style="stroke: #A80036; stroke-width: 1.5;" width="154" x="123.75" y="728.9912"/><text fill="#000000" font-family="sans-serif" font-size="12" lengthAdjust="spacingAndGlyphs" textLength="134" x="133.75" y="750.1299">UserInfoDatabase find</text><rect fill="#FEFECE" filter="url(#fdjoaiyjio9n0)" height="33.9688" rx="12.5" ry="12.5" style="stroke: #A80036; stroke-width: 1.5;" width="237" x="82.25" y="831.3623"/><text fill="#000000" font-family="sans-serif" font-size="12" lengthAdjust="spacingAndGlyphs" textLength="217" x="92.25" y="852.501">RequestTokenInfoWithRefreshToken</text><polygon fill="#FEFECE" filter="url(#fdjoaiyjio9n0)" points="150.25,782.96,251.25,782.96,263.25,794.96,251.25,806.96,150.25,806.96,138.25,794.96,150.25,782.96" style="stroke: #A80036; stroke-width: 1.5;"/><text fill="#000000" font-family="sans-serif" font-size="11" lengthAdjust="spacingAndGlyphs" textLength="22" x="204.75" y="817.1704">YES</text><text fill="#000000" font-family="sans-serif" font-size="11" lengthAdjust="spacingAndGlyphs" textLength="101" x="150.25" y="798.7681">Is userInfo found?</text><polygon fill="#FEFECE" filter="url(#fdjoaiyjio9n0)" points="200.75,885.3311,212.75,897.3311,200.75,909.3311,188.75,897.3311,200.75,885.3311" style="stroke: #A80036; stroke-width: 1.5;"/><rect fill="#FEFECE" filter="url(#fdjoaiyjio9n0)" height="33.9688" rx="12.5" ry="12.5" style="stroke: #A80036; stroke-width: 1.5;" width="212" x="94.75" y="977.7334"/><text fill="#000000" font-family="sans-serif" font-size="12" lengthAdjust="spacingAndGlyphs" textLength="192" x="104.75" y="998.8721">RequestTokenInfoWithAuthCode</text><polygon fill="#FEFECE" filter="url(#fdjoaiyjio9n0)" points="112.25,929.3311,289.25,929.3311,301.25,941.3311,289.25,953.3311,112.25,953.3311,100.25,941.3311,112.25,929.3311" style="stroke: #A80036; stroke-width: 1.5;"/><text fill="#000000" font-family="sans-serif" font-size="11" lengthAdjust="spacingAndGlyphs" textLength="17" x="204.75" y="963.5415">NO</text><text fill="#000000" font-family="sans-serif" font-size="11" lengthAdjust="spacingAndGlyphs" textLength="177" x="112.25" y="945.1392">Is succeeded to get tokenInfo?</text><polygon fill="#FEFECE" filter="url(#fdjoaiyjio9n0)" points="200.75,1031.7021,212.75,1043.7021,200.75,1055.7021,188.75,1043.7021,200.75,1031.7021" style="stroke: #A80036; stroke-width: 1.5;"/><rect fill="#FEFECE" filter="url(#fdjoaiyjio9n0)" height="33.9688" rx="12.5" ry="12.5" style="stroke: #A80036; stroke-width: 1.5;" width="174" x="113.75" y="1124.1045"/><text fill="#000000" font-family="sans-serif" font-size="12" lengthAdjust="spacingAndGlyphs" textLength="154" x="123.75" y="1145.2432">UserInfoDatabase update</text><polygon fill="#FEFECE" filter="url(#fdjoaiyjio9n0)" points="112.25,1075.7021,289.25,1075.7021,301.25,1087.7021,289.25,1099.7021,112.25,1099.7021,100.25,1087.7021,112.25,1075.7021" style="stroke: #A80036; stroke-width: 1.5;"/><text fill="#000000" font-family="sans-serif" font-size="11" lengthAdjust="spacingAndGlyphs" textLength="22" x="204.75" y="1109.9126">YES</text><text fill="#000000" font-family="sans-serif" font-size="11" lengthAdjust="spacingAndGlyphs" textLength="177" x="112.25" y="1091.5103">Is succeeded to get tokenInfo?</text><polygon fill="#FEFECE" filter="url(#fdjoaiyjio9n0)" points="200.75,1178.0732,212.75,1190.0732,200.75,1202.0732,188.75,1190.0732,200.75,1178.0732" style="stroke: #A80036; stroke-width: 1.5;"/><polygon fill="#FEFECE" filter="url(#fdjoaiyjio9n0)" points="114.25,680.5889,287.25,680.5889,299.25,692.5889,287.25,704.5889,114.25,704.5889,102.25,692.5889,114.25,680.5889" style="stroke: #A80036; stroke-width: 1.5;"/><text fill="#000000" font-family="sans-serif" font-size="11" lengthAdjust="spacingAndGlyphs" textLength="22" x="204.75" y="714.7993">YES</text><text fill="#000000" font-family="sans-serif" font-size="11" lengthAdjust="spacingAndGlyphs" textLength="173" x="114.25" y="696.397">Is email contained in account?</text><polygon fill="#FEFECE" filter="url(#fdjoaiyjio9n0)" points="200.75,1222.0732,212.75,1234.0732,200.75,1246.0732,188.75,1234.0732,200.75,1222.0732" style="stroke: #A80036; stroke-width: 1.5;"/><rect fill="#FEFECE" filter="url(#fdjoaiyjio9n0)" height="33.9688" rx="12.5" ry="12.5" style="stroke: #A80036; stroke-width: 1.5;" width="109" x="146.25" y="1314.4756"/><text fill="#000000" font-family="sans-serif" font-size="12" lengthAdjust="spacingAndGlyphs" textLength="89" x="156.25" y="1335.6143">RevokeAccess</text><ellipse cx="200.75" cy="1385.96" fill="#FEFECE" filter="url(#fdjoaiyjio9n0)" rx="10" ry="10" style="stroke: #A80036; stroke-width: 1.5;"/><path d="M198.4219,1381.71 L203.9531,1381.71 L203.9531,1382.71 L199.6094,1382.71 L199.6094,1385.3037 L203.7813,1385.3037 L203.7813,1386.2881 L199.6094,1386.2881 L199.6094,1389.46 L204.0625,1389.46 L204.0625,1390.46 L198.4219,1390.46 L198.4219,1381.71 Z "/><polygon fill="#FEFECE" filter="url(#fdjoaiyjio9n0)" points="101.75,1266.0732,299.75,1266.0732,311.75,1278.0732,299.75,1290.0732,101.75,1290.0732,89.75,1278.0732,101.75,1266.0732" style="stroke: #A80036; stroke-width: 1.5;"/><text fill="#000000" font-family="sans-serif" font-size="11" lengthAdjust="spacingAndGlyphs" textLength="17" x="204.75" y="1300.2837">NO</text><text fill="#000000" font-family="sans-serif" font-size="11" lengthAdjust="spacingAndGlyphs" textLength="198" x="101.75" y="1281.8813">Is succeeded to update database?</text><rect fill="#FEFECE" filter="url(#fdjoaiyjio9n0)" height="33.9688" rx="12.5" ry="12.5" style="stroke: #A80036; stroke-width: 1.5;" width="118" x="141.75" y="1449.96"/><text fill="#000000" font-family="sans-serif" font-size="12" lengthAdjust="spacingAndGlyphs" textLength="98" x="151.75" y="1471.0986">StartMainActivity</text><ellipse cx="200.75" cy="1513.9287" fill="#FFFFFF" filter="url(#fdjoaiyjio9n0)" rx="10" ry="10" style="stroke: #000000; stroke-width: 1.5;"/><line style="stroke: #000000; stroke-width: 2.5;" x1="194.5628" x2="206.9372" y1="1507.7415" y2="1520.1159"/><line style="stroke: #000000; stroke-width: 2.5;" x1="206.9372" x2="194.5628" y1="1507.7415" y2="1520.1159"/><rect fill="#FFFFFF" filter="url(#fdjoaiyjio9n0)" height="203.668" style="stroke: #000000; stroke-width: 2.0;" width="199" x="126.25" y="1533.9287"/><path d="M172.25,1534.9287 L172.25,1543.2256 L162.25,1553.2256 L126.25,1553.2256 " fill="none" style="stroke: #000000; stroke-width: 2.0;"/><text fill="#000000" font-family="sans-serif" font-size="14" lengthAdjust="spacingAndGlyphs" textLength="36" x="129.25" y="1547.9238">Error</text><ellipse cx="200.75" cy="1573.2256" fill="#FEFECE" filter="url(#fdjoaiyjio9n0)" rx="10" ry="10" style="stroke: #A80036; stroke-width: 1.5;"/><path d="M198.4219,1568.9756 L203.9531,1568.9756 L203.9531,1569.9756 L199.6094,1569.9756 L199.6094,1572.5693 L203.7813,1572.5693 L203.7813,1573.5537 L199.6094,1573.5537 L199.6094,1576.7256 L204.0625,1576.7256 L204.0625,1577.7256 L198.4219,1577.7256 L198.4219,1568.9756 Z "/><rect fill="#FEFECE" filter="url(#fdjoaiyjio9n0)" height="33.9688" rx="12.5" ry="12.5" style="stroke: #A80036; stroke-width: 1.5;" width="129" x="136.25" y="1603.2256"/><text fill="#000000" font-family="sans-serif" font-size="12" lengthAdjust="spacingAndGlyphs" textLength="109" x="146.25" y="1624.3643">Show error dialog</text><ellipse cx="200.75" cy="1715.5967" fill="#FFFFFF" filter="url(#fdjoaiyjio9n0)" rx="10" ry="10" style="stroke: #000000; stroke-width: 1.5;"/><line style="stroke: #000000; stroke-width: 2.5;" x1="194.5628" x2="206.9372" y1="1709.4095" y2="1721.7839"/><line style="stroke: #000000; stroke-width: 2.5;" x1="206.9372" x2="194.5628" y1="1709.4095" y2="1721.7839"/><polygon fill="#FEFECE" filter="url(#fdjoaiyjio9n0)" points="162.25,1657.1943,239.25,1657.1943,251.25,1669.1943,239.25,1681.1943,162.25,1681.1943,150.25,1669.1943,162.25,1657.1943" style="stroke: #A80036; stroke-width: 1.5;"/><text fill="#000000" font-family="sans-serif" font-size="11" lengthAdjust="spacingAndGlyphs" textLength="17" x="204.75" y="1691.4048">NO</text><text fill="#000000" font-family="sans-serif" font-size="11" lengthAdjust="spacingAndGlyphs" textLength="77" x="162.25" y="1673.0024">Retry sign in?</text><text fill="#000000" font-family="sans-serif" font-size="11" lengthAdjust="spacingAndGlyphs" textLength="22" x="251.25" y="1666.6001">YES</text><ellipse cx="293.25" cy="1669.1943" fill="#FEFECE" filter="url(#fdjoaiyjio9n0)" rx="10" ry="10" style="stroke: #A80036; stroke-width: 1.5;"/><path d="M293.3594,1665.3662 L291.75,1669.71 L294.9688,1669.71 L293.3594,1665.3662 Z M292.6875,1664.1943 L294.0313,1664.1943 L297.3594,1672.9443 L296.125,1672.9443 L295.3281,1670.6943 L291.3906,1670.6943 L290.5938,1672.9443 L289.3438,1672.9443 L292.6875,1664.1943 Z "/><line style="stroke: #A80036; stroke-width: 1.5;" x1="200.75" x2="200.75" y1="30" y2="50"/><polygon fill="#A80036" points="196.75,40,200.75,50,204.75,40,200.75,44" style="stroke: #A80036; stroke-width: 1.0;"/><line style="stroke: #A80036; stroke-width: 1.5;" x1="200.75" x2="200.75" y1="83.9688" y2="103.9688"/><polygon fill="#A80036" points="196.75,93.9688,200.75,103.9688,204.75,93.9688,200.75,97.9688" style="stroke: #A80036; stroke-width: 1.0;"/><line style="stroke: #A80036; stroke-width: 1.5;" x1="200.75" x2="200.75" y1="296.6367" y2="328.3472"/><polygon fill="#A80036" points="196.75,318.3472,200.75,328.3472,204.75,318.3472,200.75,322.3472" style="stroke: #A80036; stroke-width: 1.0;"/><line style="stroke: #A80036; stroke-width: 1.5;" x1="300.25" x2="327.25" y1="284.6367" y2="284.6367"/><polygon fill="#A80036" points="317.25,280.6367,327.25,284.6367,317.25,288.6367,321.25,284.6367" style="stroke: #A80036; stroke-width: 1.0;"/><line style="stroke: #A80036; stroke-width: 1.5;" x1="200.75" x2="200.75" y1="252.6367" y2="272.6367"/><polygon fill="#A80036" points="196.75,262.6367,200.75,272.6367,204.75,262.6367,200.75,266.6367" style="stroke: #A80036; stroke-width: 1.0;"/><line style="stroke: #A80036; stroke-width: 1.5;" x1="200.75" x2="200.75" y1="194.2656" y2="218.668"/><polygon fill="#A80036" points="196.75,208.668,200.75,218.668,204.75,208.668,200.75,212.668" style="stroke: #A80036; stroke-width: 1.0;"/><line style="stroke: #A80036; stroke-width: 1.5;" x1="300.25" x2="369.25" y1="182.2656" y2="182.2656"/><polygon fill="#A80036" points="365.25,264.5547,369.25,274.5547,373.25,264.5547,369.25,268.5547" style="stroke: #A80036; stroke-width: 1.5;"/><line style="stroke: #A80036; stroke-width: 1.5;" x1="369.25" x2="369.25" y1="182.2656" y2="340.3472"/><line style="stroke: #A80036; stroke-width: 1.5;" x1="369.25" x2="212.75" y1="340.3472" y2="340.3472"/><polygon fill="#A80036" points="222.75,336.3472,212.75,340.3472,222.75,344.3472,218.75,340.3472" style="stroke: #A80036; stroke-width: 1.0;"/><line style="stroke: #A80036; stroke-width: 1.5;" x1="200.75" x2="200.75" y1="123.9688" y2="170.2656"/><polygon fill="#A80036" points="196.75,160.2656,200.75,170.2656,204.75,160.2656,200.75,164.2656" style="stroke: #A80036; stroke-width: 1.0;"/><line style="stroke: #A80036; stroke-width: 1.5;" x1="92" x2="92" y1="522.6128" y2="556.3232"/><line style="stroke: #A80036; stroke-width: 1.5;" x1="92" x2="188.75" y1="556.3232" y2="556.3232"/><polygon fill="#A80036" points="178.75,552.3232,188.75,556.3232,178.75,560.3232,182.75,556.3232" style="stroke: #A80036; stroke-width: 1.0;"/><line style="stroke: #A80036; stroke-width: 1.5;" x1="145" x2="172" y1="510.6128" y2="510.6128"/><polygon fill="#A80036" points="162,506.6128,172,510.6128,162,514.6128,166,510.6128" style="stroke: #A80036; stroke-width: 1.0;"/><line style="stroke: #A80036; stroke-width: 1.5;" x1="92" x2="92" y1="478.6128" y2="498.6128"/><polygon fill="#A80036" points="88,488.6128,92,498.6128,96,488.6128,92,492.6128" style="stroke: #A80036; stroke-width: 1.0;"/><line style="stroke: #A80036; stroke-width: 1.5;" x1="309.5" x2="309.5" y1="522.6128" y2="556.3232"/><line style="stroke: #A80036; stroke-width: 1.5;" x1="309.5" x2="212.75" y1="556.3232" y2="556.3232"/><polygon fill="#A80036" points="222.75,552.3232,212.75,556.3232,222.75,560.3232,218.75,556.3232" style="stroke: #A80036; stroke-width: 1.0;"/><line style="stroke: #A80036; stroke-width: 1.5;" x1="362.5" x2="389.5" y1="510.6128" y2="510.6128"/><polygon fill="#A80036" points="379.5,506.6128,389.5,510.6128,379.5,514.6128,383.5,510.6128" style="stroke: #A80036; stroke-width: 1.0;"/><line style="stroke: #A80036; stroke-width: 1.5;" x1="309.5" x2="309.5" y1="478.6128" y2="498.6128"/><polygon fill="#A80036" points="305.5,488.6128,309.5,498.6128,313.5,488.6128,309.5,492.6128" style="stroke: #A80036; stroke-width: 1.0;"/><line style="stroke: #A80036; stroke-width: 1.5;" x1="133.75" x2="92" y1="422.644" y2="422.644"/><line style="stroke: #A80036; stroke-width: 1.5;" x1="92" x2="92" y1="422.644" y2="444.644"/><polygon fill="#A80036" points="88,434.644,92,444.644,96,434.644,92,438.644" style="stroke: #A80036; stroke-width: 1.0;"/><line style="stroke: #A80036; stroke-width: 1.5;" x1="267.75" x2="309.5" y1="422.644" y2="422.644"/><line style="stroke: #A80036; stroke-width: 1.5;" x1="309.5" x2="309.5" y1="422.644" y2="444.644"/><polygon fill="#A80036" points="305.5,434.644,309.5,444.644,313.5,434.644,309.5,438.644" style="stroke: #A80036; stroke-width: 1.0;"/><line style="stroke: #A80036; stroke-width: 1.5;" x1="200.75" x2="200.75" y1="352.3472" y2="410.644"/><polygon fill="#A80036" points="196.75,400.644,200.75,410.644,204.75,400.644,200.75,404.644" style="stroke: #A80036; stroke-width: 1.0;"/><line style="stroke: #A80036; stroke-width: 1.5;" x1="200.75" x2="200.75" y1="806.96" y2="831.3623"/><polygon fill="#A80036" points="196.75,821.3623,200.75,831.3623,204.75,821.3623,200.75,825.3623" style="stroke: #A80036; stroke-width: 1.0;"/><line style="stroke: #A80036; stroke-width: 1.5;" x1="263.25" x2="329.25" y1="794.96" y2="794.96"/><polygon fill="#A80036" points="325.25,838.3467,329.25,848.3467,333.25,838.3467,329.25,842.3467" style="stroke: #A80036; stroke-width: 1.5;"/><line style="stroke: #A80036; stroke-width: 1.5;" x1="329.25" x2="329.25" y1="794.96" y2="897.3311"/><line style="stroke: #A80036; stroke-width: 1.5;" x1="329.25" x2="212.75" y1="897.3311" y2="897.3311"/><polygon fill="#A80036" points="222.75,893.3311,212.75,897.3311,222.75,901.3311,218.75,897.3311" style="stroke: #A80036; stroke-width: 1.0;"/><line style="stroke: #A80036; stroke-width: 1.5;" x1="200.75" x2="200.75" y1="865.3311" y2="885.3311"/><polygon fill="#A80036" points="196.75,875.3311,200.75,885.3311,204.75,875.3311,200.75,879.3311" style="stroke: #A80036; stroke-width: 1.0;"/><line style="stroke: #A80036; stroke-width: 1.5;" x1="200.75" x2="200.75" y1="762.96" y2="782.96"/><polygon fill="#A80036" points="196.75,772.96,200.75,782.96,204.75,772.96,200.75,776.96" style="stroke: #A80036; stroke-width: 1.0;"/><line style="stroke: #A80036; stroke-width: 1.5;" x1="200.75" x2="200.75" y1="953.3311" y2="977.7334"/><polygon fill="#A80036" points="196.75,967.7334,200.75,977.7334,204.75,967.7334,200.75,971.7334" style="stroke: #A80036; stroke-width: 1.0;"/><line style="stroke: #A80036; stroke-width: 1.5;" x1="301.25" x2="316.75" y1="941.3311" y2="941.3311"/><polygon fill="#A80036" points="312.75,984.7178,316.75,994.7178,320.75,984.7178,316.75,988.7178" style="stroke: #A80036; stroke-width: 1.5;"/><line style="stroke: #A80036; stroke-width: 1.5;" x1="316.75" x2="316.75" y1="941.3311" y2="1043.7021"/><line style="stroke: #A80036; stroke-width: 1.5;" x1="316.75" x2="212.75" y1="1043.7021" y2="1043.7021"/><polygon fill="#A80036" points="222.75,1039.7021,212.75,1043.7021,222.75,1047.7021,218.75,1043.7021" style="stroke: #A80036; stroke-width: 1.0;"/><line style="stroke: #A80036; stroke-width: 1.5;" x1="200.75" x2="200.75" y1="1011.7021" y2="1031.7021"/><polygon fill="#A80036" points="196.75,1021.7021,200.75,1031.7021,204.75,1021.7021,200.75,1025.7021" style="stroke: #A80036; stroke-width: 1.0;"/><line style="stroke: #A80036; stroke-width: 1.5;" x1="200.75" x2="200.75" y1="909.3311" y2="929.3311"/><polygon fill="#A80036" points="196.75,919.3311,200.75,929.3311,204.75,919.3311,200.75,923.3311" style="stroke: #A80036; stroke-width: 1.0;"/><line style="stroke: #A80036; stroke-width: 1.5;" x1="200.75" x2="200.75" y1="1099.7021" y2="1124.1045"/><polygon fill="#A80036" points="196.75,1114.1045,200.75,1124.1045,204.75,1114.1045,200.75,1118.1045" style="stroke: #A80036; stroke-width: 1.0;"/><line style="stroke: #A80036; stroke-width: 1.5;" x1="301.25" x2="313.25" y1="1087.7021" y2="1087.7021"/><polygon fill="#A80036" points="309.25,1131.0889,313.25,1141.0889,317.25,1131.0889,313.25,1135.0889" style="stroke: #A80036; stroke-width: 1.5;"/><line style="stroke: #A80036; stroke-width: 1.5;" x1="313.25" x2="313.25" y1="1087.7021" y2="1190.0732"/><line style="stroke: #A80036; stroke-width: 1.5;" x1="313.25" x2="212.75" y1="1190.0732" y2="1190.0732"/><polygon fill="#A80036" points="222.75,1186.0732,212.75,1190.0732,222.75,1194.0732,218.75,1190.0732" style="stroke: #A80036; stroke-width: 1.0;"/><line style="stroke: #A80036; stroke-width: 1.5;" x1="200.75" x2="200.75" y1="1158.0732" y2="1178.0732"/><polygon fill="#A80036" points="196.75,1168.0732,200.75,1178.0732,204.75,1168.0732,200.75,1172.0732" style="stroke: #A80036; stroke-width: 1.0;"/><line style="stroke: #A80036; stroke-width: 1.5;" x1="200.75" x2="200.75" y1="1055.7021" y2="1075.7021"/><polygon fill="#A80036" points="196.75,1065.7021,200.75,1075.7021,204.75,1065.7021,200.75,1069.7021" style="stroke: #A80036; stroke-width: 1.0;"/><line style="stroke: #A80036; stroke-width: 1.5;" x1="200.75" x2="200.75" y1="704.5889" y2="728.9912"/><polygon fill="#A80036" points="196.75,718.9912,200.75,728.9912,204.75,718.9912,200.75,722.9912" style="stroke: #A80036; stroke-width: 1.0;"/><line style="stroke: #A80036; stroke-width: 1.5;" x1="299.25" x2="351.25" y1="692.5889" y2="692.5889"/><polygon fill="#A80036" points="347.25,950.2334,351.25,960.2334,355.25,950.2334,351.25,954.2334" style="stroke: #A80036; stroke-width: 1.5;"/><line style="stroke: #A80036; stroke-width: 1.5;" x1="351.25" x2="351.25" y1="692.5889" y2="1234.0732"/><line style="stroke: #A80036; stroke-width: 1.5;" x1="351.25" x2="212.75" y1="1234.0732" y2="1234.0732"/><polygon fill="#A80036" points="222.75,1230.0732,212.75,1234.0732,222.75,1238.0732,218.75,1234.0732" style="stroke: #A80036; stroke-width: 1.0;"/><line style="stroke: #A80036; stroke-width: 1.5;" x1="200.75" x2="200.75" y1="1202.0732" y2="1222.0732"/><polygon fill="#A80036" points="196.75,1212.0732,200.75,1222.0732,204.75,1212.0732,200.75,1216.0732" style="stroke: #A80036; stroke-width: 1.0;"/><line style="stroke: #A80036; stroke-width: 1.5;" x1="200.75" x2="200.75" y1="660.5889" y2="680.5889"/><polygon fill="#A80036" points="196.75,670.5889,200.75,680.5889,204.75,670.5889,200.75,674.5889" style="stroke: #A80036; stroke-width: 1.0;"/><line style="stroke: #A80036; stroke-width: 1.5;" x1="200.75" x2="200.75" y1="1348.4443" y2="1375.96"/><polygon fill="#A80036" points="196.75,1365.96,200.75,1375.96,204.75,1365.96,200.75,1369.96" style="stroke: #A80036; stroke-width: 1.0;"/><line style="stroke: #A80036; stroke-width: 1.5;" x1="200.75" x2="200.75" y1="1290.0732" y2="1314.4756"/><polygon fill="#A80036" points="196.75,1304.4756,200.75,1314.4756,204.75,1304.4756,200.75,1308.4756" style="stroke: #A80036; stroke-width: 1.0;"/><line style="stroke: #A80036; stroke-width: 1.5;" x1="311.75" x2="323.75" y1="1278.0732" y2="1278.0732"/><polygon fill="#A80036" points="319.75,1345.96,323.75,1355.96,327.75,1345.96,323.75,1349.96" style="stroke: #A80036; stroke-width: 1.5;"/><line style="stroke: #A80036; stroke-width: 1.5;" x1="323.75" x2="323.75" y1="1278.0732" y2="1417.96"/><line style="stroke: #A80036; stroke-width: 1.5;" x1="323.75" x2="200.75" y1="1417.96" y2="1417.96"/><line style="stroke: #A80036; stroke-width: 1.5;" x1="200.75" x2="200.75" y1="1417.96" y2="1449.96"/><polygon fill="#A80036" points="196.75,1439.96,200.75,1449.96,204.75,1439.96,200.75,1443.96" style="stroke: #A80036; stroke-width: 1.0;"/><line style="stroke: #A80036; stroke-width: 1.5;" x1="200.75" x2="200.75" y1="1246.0732" y2="1266.0732"/><polygon fill="#A80036" points="196.75,1256.0732,200.75,1266.0732,204.75,1256.0732,200.75,1260.0732" style="stroke: #A80036; stroke-width: 1.0;"/><line style="stroke: #A80036; stroke-width: 1.5;" x1="200.75" x2="200.75" y1="568.3232" y2="626.6201"/><polygon fill="#A80036" points="196.75,616.6201,200.75,626.6201,204.75,616.6201,200.75,620.6201" style="stroke: #A80036; stroke-width: 1.0;"/><line style="stroke: #A80036; stroke-width: 1.5;" x1="200.75" x2="200.75" y1="1483.9287" y2="1503.9287"/><polygon fill="#A80036" points="196.75,1493.9287,200.75,1503.9287,204.75,1493.9287,200.75,1497.9287" style="stroke: #A80036; stroke-width: 1.0;"/><line style="stroke: #A80036; stroke-width: 1.5;" x1="200.75" x2="200.75" y1="1583.2256" y2="1603.2256"/><polygon fill="#A80036" points="196.75,1593.2256,200.75,1603.2256,204.75,1593.2256,200.75,1597.2256" style="stroke: #A80036; stroke-width: 1.0;"/><line style="stroke: #A80036; stroke-width: 1.5;" x1="200.75" x2="200.75" y1="1681.1943" y2="1705.5967"/><polygon fill="#A80036" points="196.75,1695.5967,200.75,1705.5967,204.75,1695.5967,200.75,1699.5967" style="stroke: #A80036; stroke-width: 1.0;"/><line style="stroke: #A80036; stroke-width: 1.5;" x1="251.25" x2="283.25" y1="1669.1943" y2="1669.1943"/><polygon fill="#A80036" points="273.25,1665.1943,283.25,1669.1943,273.25,1673.1943,277.25,1669.1943" style="stroke: #A80036; stroke-width: 1.0;"/><line style="stroke: #A80036; stroke-width: 1.5;" x1="200.75" x2="200.75" y1="1637.1943" y2="1657.1943"/><polygon fill="#A80036" points="196.75,1647.1943,200.75,1657.1943,204.75,1647.1943,200.75,1651.1943" style="stroke: #A80036; stroke-width: 1.0;"/><!--MD5=[8e07f94287c68c9550c26b3713bae807]
@startuml
start
:Show app logo 2 secs;

(A)
partition RuntimePermission {
  if (IsGrantedRuntimePermissions?) then (YES)
  else (NO)
    :StartRuntimePermissions;

    if (IsGrantedRuntimePermissions?) then (YES)
    else (NO)
      (E)
      detach
    endif
  endif
}

partition GoogleSignIn {
  if (IsSignedInAccount?) then (YES)
    :RequestSilentSignIn;

    if (Is succeeded?) then (YES)
    else (NO)
      (E)
      detach
    endif

  else (NO)
    :StartGoogleSignInActivity;

    if (Is succeeded?) then (YES)
    else (NO)
      (E)
      detach
    endif

  endif
}

partition UpdateUserInfo {
  :getSignedInAccount;

  if (Is email contained in account?) then (YES)
    :UserInfoDatabase find;

    if (Is userInfo found?) then (YES)
      :RequestTokenInfoWithRefreshToken;
    endif

    if (Is succeeded to get tokenInfo?) then (NO)
      :RequestTokenInfoWithAuthCode;
    endif

    if (Is succeeded to get tokenInfo?) then (YES)
      :UserInfoDatabase update;
    endif
  endif

  if (Is succeeded to update database?) then (NO)
    :RevokeAccess;
    (E)
    detach
  endif
}

:StartMainActivity;
end

partition Error {
  (E)
  :Show error dialog;
  if (Retry sign in?) then (YES)
    (A)
  else (NO)
    end
  endif
}
@enduml

PlantUML version 1.2020.13(Sat Jun 13 12:26:38 UTC 2020)
(GPL source distribution)
Java Runtime: Java(TM) SE Runtime Environment
JVM: Java HotSpot(TM) 64-Bit Server VM
Default Encoding: UTF-8
Language: en
Country: US
--></g></svg>