<?xml version="1.0" encoding="UTF-8" standalone="no"?><svg xmlns="http://www.w3.org/2000/svg" xmlns:xlink="http://www.w3.org/1999/xlink" contentScriptType="application/ecmascript" contentStyleType="text/css" height="1241px" preserveAspectRatio="none" style="width:545px;height:1241px;" version="1.1" viewBox="0 0 545 1241" width="545px" zoomAndPan="magnify"><defs><filter height="300%" id="f1vi0wkuom4rdo" width="300%" x="-1" y="-1"><feGaussianBlur result="blurOut" stdDeviation="2.0"/><feColorMatrix in="blurOut" result="blurOut2" type="matrix" values="0 0 0 0 0 0 0 0 0 0 0 0 0 0 0 0 0 0 .4 0"/><feOffset dx="4.0" dy="4.0" in="blurOut2" result="blurOut3"/><feBlend in="SourceGraphic" in2="blurOut3" mode="normal"/></filter></defs><g><ellipse cx="218.75" cy="20" fill="#000000" filter="url(#f1vi0wkuom4rdo)" rx="10" ry="10" style="stroke: none; stroke-width: 1.0;"/><rect fill="#FEFECE" filter="url(#f1vi0wkuom4rdo)" height="33.9688" rx="12.5" ry="12.5" style="stroke: #A80036; stroke-width: 1.5;" width="156" x="140.75" y="50"/><text fill="#000000" font-family="sans-serif" font-size="12" lengthAdjust="spacingAndGlyphs" textLength="136" x="150.75" y="71.1387">Show app logo 2 secs</text><ellipse cx="218.75" cy="113.9688" fill="#FEFECE" filter="url(#f1vi0wkuom4rdo)" rx="10" ry="10" style="stroke: #A80036; stroke-width: 1.5;"/><path d="M218.8594,110.1406 L217.25,114.4844 L220.4688,114.4844 L218.8594,110.1406 Z M218.1875,108.9688 L219.5313,108.9688 L222.8594,117.7188 L221.625,117.7188 L220.8281,115.4688 L216.8906,115.4688 L216.0938,117.7188 L214.8438,117.7188 L218.1875,108.9688 Z "/><rect fill="#FFFFFF" filter="url(#f1vi0wkuom4rdo)" height="230.3784" style="stroke: #000000; stroke-width: 2.0;" width="310" x="99.25" y="133.9688"/><path d="M248.25,134.9688 L248.25,143.2656 L238.25,153.2656 L99.25,153.2656 " fill="none" style="stroke: #000000; stroke-width: 2.0;"/><text fill="#000000" font-family="sans-serif" font-size="14" lengthAdjust="spacingAndGlyphs" textLength="139" x="102.25" y="147.9639">RuntimePermission</text><rect fill="#FEFECE" filter="url(#f1vi0wkuom4rdo)" height="33.9688" rx="12.5" ry="12.5" style="stroke: #A80036; stroke-width: 1.5;" width="167" x="135.25" y="218.668"/><text fill="#000000" font-family="sans-serif" font-size="12" lengthAdjust="spacingAndGlyphs" textLength="147" x="145.25" y="239.8066">StartRuntimePermissions</text><polygon fill="#FEFECE" filter="url(#f1vi0wkuom4rdo)" points="131.25,272.6367,306.25,272.6367,318.25,284.6367,306.25,296.6367,131.25,296.6367,119.25,284.6367,131.25,272.6367" style="stroke: #A80036; stroke-width: 1.5;"/><text fill="#000000" font-family="sans-serif" font-size="11" lengthAdjust="spacingAndGlyphs" textLength="22" x="222.75" y="306.8472">YES</text><text fill="#000000" font-family="sans-serif" font-size="11" lengthAdjust="spacingAndGlyphs" textLength="175" x="131.25" y="288.4448">IsGrantedRuntimePermissions?</text><text fill="#000000" font-family="sans-serif" font-size="11" lengthAdjust="spacingAndGlyphs" textLength="17" x="318.25" y="282.0425">NO</text><ellipse cx="355.25" cy="284.6367" fill="#FEFECE" filter="url(#f1vi0wkuom4rdo)" rx="10" ry="10" style="stroke: #A80036; stroke-width: 1.5;"/><path d="M352.9219,280.3867 L358.4531,280.3867 L358.4531,281.3867 L354.1094,281.3867 L354.1094,283.9805 L358.2813,283.9805 L358.2813,284.9648 L354.1094,284.9648 L354.1094,288.1367 L358.5625,288.1367 L358.5625,289.1367 L352.9219,289.1367 L352.9219,280.3867 Z "/><polygon fill="#FEFECE" filter="url(#f1vi0wkuom4rdo)" points="131.25,170.2656,306.25,170.2656,318.25,182.2656,306.25,194.2656,131.25,194.2656,119.25,182.2656,131.25,170.2656" style="stroke: #A80036; stroke-width: 1.5;"/><text fill="#000000" font-family="sans-serif" font-size="11" lengthAdjust="spacingAndGlyphs" textLength="17" x="222.75" y="204.4761">NO</text><text fill="#000000" font-family="sans-serif" font-size="11" lengthAdjust="spacingAndGlyphs" textLength="175" x="131.25" y="186.0737">IsGrantedRuntimePermissions?</text><text fill="#000000" font-family="sans-serif" font-size="11" lengthAdjust="spacingAndGlyphs" textLength="22" x="318.25" y="179.6714">YES</text><polygon fill="#FEFECE" filter="url(#f1vi0wkuom4rdo)" points="218.75,328.3472,230.75,340.3472,218.75,352.3472,206.75,340.3472,218.75,328.3472" style="stroke: #A80036; stroke-width: 1.5;"/><rect fill="#FFFFFF" filter="url(#f1vi0wkuom4rdo)" height="205.9761" style="stroke: #000000; stroke-width: 2.0;" width="438.5" x="21" y="374.3472"/><path d="M126,375.3472 L126,383.644 L116,393.644 L21,393.644 " fill="none" style="stroke: #000000; stroke-width: 2.0;"/><text fill="#000000" font-family="sans-serif" font-size="14" lengthAdjust="spacingAndGlyphs" textLength="95" x="24" y="388.3423">GoogleSignIn</text><polygon fill="#FEFECE" filter="url(#f1vi0wkuom4rdo)" points="163.75,410.644,273.75,410.644,285.75,422.644,273.75,434.644,163.75,434.644,151.75,422.644,163.75,410.644" style="stroke: #A80036; stroke-width: 1.5;"/><text fill="#000000" font-family="sans-serif" font-size="11" lengthAdjust="spacingAndGlyphs" textLength="110" x="163.75" y="426.4521">IsSignedInAccount?</text><text fill="#000000" font-family="sans-serif" font-size="11" lengthAdjust="spacingAndGlyphs" textLength="22" x="129.75" y="420.0498">YES</text><text fill="#000000" font-family="sans-serif" font-size="11" lengthAdjust="spacingAndGlyphs" textLength="17" x="285.75" y="420.0498">NO</text><rect fill="#FEFECE" filter="url(#f1vi0wkuom4rdo)" height="33.9688" rx="12.5" ry="12.5" style="stroke: #A80036; stroke-width: 1.5;" width="138" x="41" y="444.644"/><text fill="#000000" font-family="sans-serif" font-size="12" lengthAdjust="spacingAndGlyphs" textLength="118" x="51" y="465.7827">RequestSilentSignIn</text><polygon fill="#FEFECE" filter="url(#f1vi0wkuom4rdo)" points="69,498.6128,151,498.6128,163,510.6128,151,522.6128,69,522.6128,57,510.6128,69,498.6128" style="stroke: #A80036; stroke-width: 1.5;"/><text fill="#000000" font-family="sans-serif" font-size="11" lengthAdjust="spacingAndGlyphs" textLength="22" x="114" y="532.8232">YES</text><text fill="#000000" font-family="sans-serif" font-size="11" lengthAdjust="spacingAndGlyphs" textLength="82" x="69" y="514.4209">Is succeeded?</text><text fill="#000000" font-family="sans-serif" font-size="11" lengthAdjust="spacingAndGlyphs" textLength="17" x="163" y="508.0186">NO</text><ellipse cx="200" cy="510.6128" fill="#FEFECE" filter="url(#f1vi0wkuom4rdo)" rx="10" ry="10" style="stroke: #A80036; stroke-width: 1.5;"/><path d="M197.6719,506.3628 L203.2031,506.3628 L203.2031,507.3628 L198.8594,507.3628 L198.8594,509.9565 L203.0313,509.9565 L203.0313,510.9409 L198.8594,510.9409 L198.8594,514.1128 L203.3125,514.1128 L203.3125,515.1128 L197.6719,515.1128 L197.6719,506.3628 Z "/><rect fill="#FEFECE" filter="url(#f1vi0wkuom4rdo)" height="33.9688" rx="12.5" ry="12.5" style="stroke: #A80036; stroke-width: 1.5;" width="171" x="242" y="444.644"/><text fill="#000000" font-family="sans-serif" font-size="12" lengthAdjust="spacingAndGlyphs" textLength="151" x="252" y="465.7827">StartGoogleSignInActivity</text><polygon fill="#FEFECE" filter="url(#f1vi0wkuom4rdo)" points="286.5,498.6128,368.5,498.6128,380.5,510.6128,368.5,522.6128,286.5,522.6128,274.5,510.6128,286.5,498.6128" style="stroke: #A80036; stroke-width: 1.5;"/><text fill="#000000" font-family="sans-serif" font-size="11" lengthAdjust="spacingAndGlyphs" textLength="22" x="331.5" y="532.8232">YES</text><text fill="#000000" font-family="sans-serif" font-size="11" lengthAdjust="spacingAndGlyphs" textLength="82" x="286.5" y="514.4209">Is succeeded?</text><text fill="#000000" font-family="sans-serif" font-size="11" lengthAdjust="spacingAndGlyphs" textLength="17" x="380.5" y="508.0186">NO</text><ellipse cx="417.5" cy="510.6128" fill="#FEFECE" filter="url(#f1vi0wkuom4rdo)" rx="10" ry="10" style="stroke: #A80036; stroke-width: 1.5;"/><path d="M415.1719,506.3628 L420.7031,506.3628 L420.7031,507.3628 L416.3594,507.3628 L416.3594,509.9565 L420.5313,509.9565 L420.5313,510.9409 L416.3594,510.9409 L416.3594,514.1128 L420.8125,514.1128 L420.8125,515.1128 L415.1719,515.1128 L415.1719,506.3628 Z "/><polygon fill="#FEFECE" filter="url(#f1vi0wkuom4rdo)" points="218.75,544.3232,230.75,556.3232,218.75,568.3232,206.75,556.3232,218.75,544.3232" style="stroke: #A80036; stroke-width: 1.5;"/><rect fill="#FFFFFF" filter="url(#f1vi0wkuom4rdo)" height="332.2031" style="stroke: #000000; stroke-width: 2.0;" width="524" x="10" y="590.3232"/><path d="M148,591.3232 L148,599.6201 L138,609.6201 L10,609.6201 " fill="none" style="stroke: #000000; stroke-width: 2.0;"/><text fill="#000000" font-family="sans-serif" font-size="14" lengthAdjust="spacingAndGlyphs" textLength="128" x="13" y="604.3184">GetRefreshToken</text><rect fill="#FEFECE" filter="url(#f1vi0wkuom4rdo)" height="33.9688" rx="12.5" ry="12.5" style="stroke: #A80036; stroke-width: 1.5;" width="212" x="112.75" y="626.6201"/><text fill="#000000" font-family="sans-serif" font-size="12" lengthAdjust="spacingAndGlyphs" textLength="192" x="122.75" y="647.7588">RequestTokenInfoWithAuthCode</text><polygon fill="#FEFECE" filter="url(#f1vi0wkuom4rdo)" points="117.25,680.5889,320.25,680.5889,332.25,692.5889,320.25,704.5889,117.25,704.5889,105.25,692.5889,117.25,680.5889" style="stroke: #A80036; stroke-width: 1.5;"/><text fill="#000000" font-family="sans-serif" font-size="11" lengthAdjust="spacingAndGlyphs" textLength="203" x="117.25" y="696.397">TokenInfo.RefreshToken is not null?</text><text fill="#000000" font-family="sans-serif" font-size="11" lengthAdjust="spacingAndGlyphs" textLength="22" x="83.25" y="689.9946">YES</text><text fill="#000000" font-family="sans-serif" font-size="11" lengthAdjust="spacingAndGlyphs" textLength="17" x="332.25" y="689.9946">NO</text><rect fill="#FEFECE" filter="url(#f1vi0wkuom4rdo)" height="33.9688" rx="12.5" ry="12.5" style="stroke: #A80036; stroke-width: 1.5;" width="115" x="30" y="714.5889"/><text fill="#000000" font-family="sans-serif" font-size="12" lengthAdjust="spacingAndGlyphs" textLength="95" x="40" y="735.7275">UpdateUserInfo</text><rect fill="#FEFECE" filter="url(#f1vi0wkuom4rdo)" height="33.9688" rx="12.5" ry="12.5" style="stroke: #A80036; stroke-width: 1.5;" width="96" x="302" y="714.5889"/><text fill="#000000" font-family="sans-serif" font-size="12" lengthAdjust="spacingAndGlyphs" textLength="76" x="312" y="735.7275">FindUserInfo</text><polygon fill="#FEFECE" filter="url(#f1vi0wkuom4rdo)" points="254.5,768.5576,445.5,768.5576,457.5,780.5576,445.5,792.5576,254.5,792.5576,242.5,780.5576,254.5,768.5576" style="stroke: #A80036; stroke-width: 1.5;"/><text fill="#000000" font-family="sans-serif" font-size="11" lengthAdjust="spacingAndGlyphs" textLength="191" x="254.5" y="784.3657">UserInfo.refreshToken is not null?</text><text fill="#000000" font-family="sans-serif" font-size="11" lengthAdjust="spacingAndGlyphs" textLength="22" x="220.5" y="777.9634">YES</text><text fill="#000000" font-family="sans-serif" font-size="11" lengthAdjust="spacingAndGlyphs" textLength="17" x="457.5" y="777.9634">NO</text><rect fill="#FEFECE" filter="url(#f1vi0wkuom4rdo)" height="33.9688" rx="12.5" ry="12.5" style="stroke: #A80036; stroke-width: 1.5;" width="115" x="175" y="802.5576"/><text fill="#000000" font-family="sans-serif" font-size="12" lengthAdjust="spacingAndGlyphs" textLength="95" x="185" y="823.6963">UpdateUserInfo</text><rect fill="#FEFECE" filter="url(#f1vi0wkuom4rdo)" height="33.9688" rx="12.5" ry="12.5" style="stroke: #A80036; stroke-width: 1.5;" width="109" x="413" y="802.5576"/><text fill="#000000" font-family="sans-serif" font-size="12" lengthAdjust="spacingAndGlyphs" textLength="89" x="423" y="823.6963">RevokeAccess</text><ellipse cx="467.5" cy="866.5264" fill="#FEFECE" filter="url(#f1vi0wkuom4rdo)" rx="10" ry="10" style="stroke: #A80036; stroke-width: 1.5;"/><path d="M465.1719,862.2764 L470.7031,862.2764 L470.7031,863.2764 L466.3594,863.2764 L466.3594,865.8701 L470.5313,865.8701 L470.5313,866.8545 L466.3594,866.8545 L466.3594,870.0264 L470.8125,870.0264 L470.8125,871.0264 L465.1719,871.0264 L465.1719,862.2764 Z "/><polygon fill="#FEFECE" filter="url(#f1vi0wkuom4rdo)" points="218.75,886.5264,230.75,898.5264,218.75,910.5264,206.75,898.5264,218.75,886.5264" style="stroke: #A80036; stroke-width: 1.5;"/><rect fill="#FEFECE" filter="url(#f1vi0wkuom4rdo)" height="33.9688" rx="12.5" ry="12.5" style="stroke: #A80036; stroke-width: 1.5;" width="118" x="159.75" y="942.5264"/><text fill="#000000" font-family="sans-serif" font-size="12" lengthAdjust="spacingAndGlyphs" textLength="98" x="169.75" y="963.665">StartMainActivity</text><ellipse cx="218.75" cy="1006.4951" fill="#FFFFFF" filter="url(#f1vi0wkuom4rdo)" rx="10" ry="10" style="stroke: #000000; stroke-width: 1.5;"/><line style="stroke: #000000; stroke-width: 2.5;" x1="212.5628" x2="224.9372" y1="1000.3079" y2="1012.6823"/><line style="stroke: #000000; stroke-width: 2.5;" x1="224.9372" x2="212.5628" y1="1000.3079" y2="1012.6823"/><rect fill="#FFFFFF" filter="url(#f1vi0wkuom4rdo)" height="203.668" style="stroke: #000000; stroke-width: 2.0;" width="199" x="144.25" y="1026.4951"/><path d="M190.25,1027.4951 L190.25,1035.792 L180.25,1045.792 L144.25,1045.792 " fill="none" style="stroke: #000000; stroke-width: 2.0;"/><text fill="#000000" font-family="sans-serif" font-size="14" lengthAdjust="spacingAndGlyphs" textLength="36" x="147.25" y="1040.4902">Error</text><ellipse cx="218.75" cy="1065.792" fill="#FEFECE" filter="url(#f1vi0wkuom4rdo)" rx="10" ry="10" style="stroke: #A80036; stroke-width: 1.5;"/><path d="M216.4219,1061.542 L221.9531,1061.542 L221.9531,1062.542 L217.6094,1062.542 L217.6094,1065.1357 L221.7813,1065.1357 L221.7813,1066.1201 L217.6094,1066.1201 L217.6094,1069.292 L222.0625,1069.292 L222.0625,1070.292 L216.4219,1070.292 L216.4219,1061.542 Z "/><rect fill="#FEFECE" filter="url(#f1vi0wkuom4rdo)" height="33.9688" rx="12.5" ry="12.5" style="stroke: #A80036; stroke-width: 1.5;" width="129" x="154.25" y="1095.792"/><text fill="#000000" font-family="sans-serif" font-size="12" lengthAdjust="spacingAndGlyphs" textLength="109" x="164.25" y="1116.9307">Show error dialog</text><ellipse cx="218.75" cy="1208.1631" fill="#FFFFFF" filter="url(#f1vi0wkuom4rdo)" rx="10" ry="10" style="stroke: #000000; stroke-width: 1.5;"/><line style="stroke: #000000; stroke-width: 2.5;" x1="212.5628" x2="224.9372" y1="1201.9759" y2="1214.3503"/><line style="stroke: #000000; stroke-width: 2.5;" x1="224.9372" x2="212.5628" y1="1201.9759" y2="1214.3503"/><polygon fill="#FEFECE" filter="url(#f1vi0wkuom4rdo)" points="180.25,1149.7607,257.25,1149.7607,269.25,1161.7607,257.25,1173.7607,180.25,1173.7607,168.25,1161.7607,180.25,1149.7607" style="stroke: #A80036; stroke-width: 1.5;"/><text fill="#000000" font-family="sans-serif" font-size="11" lengthAdjust="spacingAndGlyphs" textLength="17" x="222.75" y="1183.9712">NO</text><text fill="#000000" font-family="sans-serif" font-size="11" lengthAdjust="spacingAndGlyphs" textLength="77" x="180.25" y="1165.5688">Retry sign in?</text><text fill="#000000" font-family="sans-serif" font-size="11" lengthAdjust="spacingAndGlyphs" textLength="22" x="269.25" y="1159.1665">YES</text><ellipse cx="311.25" cy="1161.7607" fill="#FEFECE" filter="url(#f1vi0wkuom4rdo)" rx="10" ry="10" style="stroke: #A80036; stroke-width: 1.5;"/><path d="M311.3594,1157.9326 L309.75,1162.2764 L312.9688,1162.2764 L311.3594,1157.9326 Z M310.6875,1156.7607 L312.0313,1156.7607 L315.3594,1165.5107 L314.125,1165.5107 L313.3281,1163.2607 L309.3906,1163.2607 L308.5938,1165.5107 L307.3438,1165.5107 L310.6875,1156.7607 Z "/><line style="stroke: #A80036; stroke-width: 1.5;" x1="218.75" x2="218.75" y1="30" y2="50"/><polygon fill="#A80036" points="214.75,40,218.75,50,222.75,40,218.75,44" style="stroke: #A80036; stroke-width: 1.0;"/><line style="stroke: #A80036; stroke-width: 1.5;" x1="218.75" x2="218.75" y1="83.9688" y2="103.9688"/><polygon fill="#A80036" points="214.75,93.9688,218.75,103.9688,222.75,93.9688,218.75,97.9688" style="stroke: #A80036; stroke-width: 1.0;"/><line style="stroke: #A80036; stroke-width: 1.5;" x1="218.75" x2="218.75" y1="296.6367" y2="328.3472"/><polygon fill="#A80036" points="214.75,318.3472,218.75,328.3472,222.75,318.3472,218.75,322.3472" style="stroke: #A80036; stroke-width: 1.0;"/><line style="stroke: #A80036; stroke-width: 1.5;" x1="318.25" x2="345.25" y1="284.6367" y2="284.6367"/><polygon fill="#A80036" points="335.25,280.6367,345.25,284.6367,335.25,288.6367,339.25,284.6367" style="stroke: #A80036; stroke-width: 1.0;"/><line style="stroke: #A80036; stroke-width: 1.5;" x1="218.75" x2="218.75" y1="252.6367" y2="272.6367"/><polygon fill="#A80036" points="214.75,262.6367,218.75,272.6367,222.75,262.6367,218.75,266.6367" style="stroke: #A80036; stroke-width: 1.0;"/><line style="stroke: #A80036; stroke-width: 1.5;" x1="218.75" x2="218.75" y1="194.2656" y2="218.668"/><polygon fill="#A80036" points="214.75,208.668,218.75,218.668,222.75,208.668,218.75,212.668" style="stroke: #A80036; stroke-width: 1.0;"/><line style="stroke: #A80036; stroke-width: 1.5;" x1="318.25" x2="387.25" y1="182.2656" y2="182.2656"/><polygon fill="#A80036" points="383.25,264.5547,387.25,274.5547,391.25,264.5547,387.25,268.5547" style="stroke: #A80036; stroke-width: 1.5;"/><line style="stroke: #A80036; stroke-width: 1.5;" x1="387.25" x2="387.25" y1="182.2656" y2="340.3472"/><line style="stroke: #A80036; stroke-width: 1.5;" x1="387.25" x2="230.75" y1="340.3472" y2="340.3472"/><polygon fill="#A80036" points="240.75,336.3472,230.75,340.3472,240.75,344.3472,236.75,340.3472" style="stroke: #A80036; stroke-width: 1.0;"/><line style="stroke: #A80036; stroke-width: 1.5;" x1="218.75" x2="218.75" y1="123.9688" y2="170.2656"/><polygon fill="#A80036" points="214.75,160.2656,218.75,170.2656,222.75,160.2656,218.75,164.2656" style="stroke: #A80036; stroke-width: 1.0;"/><line style="stroke: #A80036; stroke-width: 1.5;" x1="110" x2="110" y1="522.6128" y2="556.3232"/><line style="stroke: #A80036; stroke-width: 1.5;" x1="110" x2="206.75" y1="556.3232" y2="556.3232"/><polygon fill="#A80036" points="196.75,552.3232,206.75,556.3232,196.75,560.3232,200.75,556.3232" style="stroke: #A80036; stroke-width: 1.0;"/><line style="stroke: #A80036; stroke-width: 1.5;" x1="163" x2="190" y1="510.6128" y2="510.6128"/><polygon fill="#A80036" points="180,506.6128,190,510.6128,180,514.6128,184,510.6128" style="stroke: #A80036; stroke-width: 1.0;"/><line style="stroke: #A80036; stroke-width: 1.5;" x1="110" x2="110" y1="478.6128" y2="498.6128"/><polygon fill="#A80036" points="106,488.6128,110,498.6128,114,488.6128,110,492.6128" style="stroke: #A80036; stroke-width: 1.0;"/><line style="stroke: #A80036; stroke-width: 1.5;" x1="327.5" x2="327.5" y1="522.6128" y2="556.3232"/><line style="stroke: #A80036; stroke-width: 1.5;" x1="327.5" x2="230.75" y1="556.3232" y2="556.3232"/><polygon fill="#A80036" points="240.75,552.3232,230.75,556.3232,240.75,560.3232,236.75,556.3232" style="stroke: #A80036; stroke-width: 1.0;"/><line style="stroke: #A80036; stroke-width: 1.5;" x1="380.5" x2="407.5" y1="510.6128" y2="510.6128"/><polygon fill="#A80036" points="397.5,506.6128,407.5,510.6128,397.5,514.6128,401.5,510.6128" style="stroke: #A80036; stroke-width: 1.0;"/><line style="stroke: #A80036; stroke-width: 1.5;" x1="327.5" x2="327.5" y1="478.6128" y2="498.6128"/><polygon fill="#A80036" points="323.5,488.6128,327.5,498.6128,331.5,488.6128,327.5,492.6128" style="stroke: #A80036; stroke-width: 1.0;"/><line style="stroke: #A80036; stroke-width: 1.5;" x1="151.75" x2="110" y1="422.644" y2="422.644"/><line style="stroke: #A80036; stroke-width: 1.5;" x1="110" x2="110" y1="422.644" y2="444.644"/><polygon fill="#A80036" points="106,434.644,110,444.644,114,434.644,110,438.644" style="stroke: #A80036; stroke-width: 1.0;"/><line style="stroke: #A80036; stroke-width: 1.5;" x1="285.75" x2="327.5" y1="422.644" y2="422.644"/><line style="stroke: #A80036; stroke-width: 1.5;" x1="327.5" x2="327.5" y1="422.644" y2="444.644"/><polygon fill="#A80036" points="323.5,434.644,327.5,444.644,331.5,434.644,327.5,438.644" style="stroke: #A80036; stroke-width: 1.0;"/><line style="stroke: #A80036; stroke-width: 1.5;" x1="218.75" x2="218.75" y1="352.3472" y2="410.644"/><polygon fill="#A80036" points="214.75,400.644,218.75,410.644,222.75,400.644,218.75,404.644" style="stroke: #A80036; stroke-width: 1.0;"/><line style="stroke: #A80036; stroke-width: 1.5;" x1="467.5" x2="467.5" y1="836.5264" y2="856.5264"/><polygon fill="#A80036" points="463.5,846.5264,467.5,856.5264,471.5,846.5264,467.5,850.5264" style="stroke: #A80036; stroke-width: 1.0;"/><line style="stroke: #A80036; stroke-width: 1.5;" x1="242.5" x2="232.5" y1="780.5576" y2="780.5576"/><line style="stroke: #A80036; stroke-width: 1.5;" x1="232.5" x2="232.5" y1="780.5576" y2="802.5576"/><polygon fill="#A80036" points="228.5,792.5576,232.5,802.5576,236.5,792.5576,232.5,796.5576" style="stroke: #A80036; stroke-width: 1.0;"/><line style="stroke: #A80036; stroke-width: 1.5;" x1="457.5" x2="467.5" y1="780.5576" y2="780.5576"/><line style="stroke: #A80036; stroke-width: 1.5;" x1="467.5" x2="467.5" y1="780.5576" y2="802.5576"/><polygon fill="#A80036" points="463.5,792.5576,467.5,802.5576,471.5,792.5576,467.5,796.5576" style="stroke: #A80036; stroke-width: 1.0;"/><line style="stroke: #A80036; stroke-width: 1.5;" x1="232.5" x2="232.5" y1="836.5264" y2="881.5264"/><line style="stroke: #A80036; stroke-width: 1.5;" x1="232.5" x2="350" y1="881.5264" y2="881.5264"/><line style="stroke: #A80036; stroke-width: 1.5;" x1="350" x2="350" y1="881.5264" y2="898.5264"/><line style="stroke: #A80036; stroke-width: 1.5;" x1="350" x2="230.75" y1="898.5264" y2="898.5264"/><polygon fill="#A80036" points="240.75,894.5264,230.75,898.5264,240.75,902.5264,236.75,898.5264" style="stroke: #A80036; stroke-width: 1.0;"/><line style="stroke: #A80036; stroke-width: 1.5;" x1="350" x2="350" y1="748.5576" y2="768.5576"/><polygon fill="#A80036" points="346,758.5576,350,768.5576,354,758.5576,350,762.5576" style="stroke: #A80036; stroke-width: 1.0;"/><line style="stroke: #A80036; stroke-width: 1.5;" x1="105.25" x2="87.5" y1="692.5889" y2="692.5889"/><line style="stroke: #A80036; stroke-width: 1.5;" x1="87.5" x2="87.5" y1="692.5889" y2="714.5889"/><polygon fill="#A80036" points="83.5,704.5889,87.5,714.5889,91.5,704.5889,87.5,708.5889" style="stroke: #A80036; stroke-width: 1.0;"/><line style="stroke: #A80036; stroke-width: 1.5;" x1="332.25" x2="350" y1="692.5889" y2="692.5889"/><line style="stroke: #A80036; stroke-width: 1.5;" x1="350" x2="350" y1="692.5889" y2="714.5889"/><polygon fill="#A80036" points="346,704.5889,350,714.5889,354,704.5889,350,708.5889" style="stroke: #A80036; stroke-width: 1.0;"/><line style="stroke: #A80036; stroke-width: 1.5;" x1="87.5" x2="87.5" y1="748.5576" y2="898.5264"/><line style="stroke: #A80036; stroke-width: 1.5;" x1="87.5" x2="206.75" y1="898.5264" y2="898.5264"/><polygon fill="#A80036" points="196.75,894.5264,206.75,898.5264,196.75,902.5264,200.75,898.5264" style="stroke: #A80036; stroke-width: 1.0;"/><line style="stroke: #A80036; stroke-width: 1.5;" x1="218.75" x2="218.75" y1="660.5889" y2="680.5889"/><polygon fill="#A80036" points="214.75,670.5889,218.75,680.5889,222.75,670.5889,218.75,674.5889" style="stroke: #A80036; stroke-width: 1.0;"/><line style="stroke: #A80036; stroke-width: 1.5;" x1="218.75" x2="218.75" y1="568.3232" y2="626.6201"/><polygon fill="#A80036" points="214.75,616.6201,218.75,626.6201,222.75,616.6201,218.75,620.6201" style="stroke: #A80036; stroke-width: 1.0;"/><line style="stroke: #A80036; stroke-width: 1.5;" x1="218.75" x2="218.75" y1="910.5264" y2="942.5264"/><polygon fill="#A80036" points="214.75,932.5264,218.75,942.5264,222.75,932.5264,218.75,936.5264" style="stroke: #A80036; stroke-width: 1.0;"/><line style="stroke: #A80036; stroke-width: 1.5;" x1="218.75" x2="218.75" y1="976.4951" y2="996.4951"/><polygon fill="#A80036" points="214.75,986.4951,218.75,996.4951,222.75,986.4951,218.75,990.4951" style="stroke: #A80036; stroke-width: 1.0;"/><line style="stroke: #A80036; stroke-width: 1.5;" x1="218.75" x2="218.75" y1="1075.792" y2="1095.792"/><polygon fill="#A80036" points="214.75,1085.792,218.75,1095.792,222.75,1085.792,218.75,1089.792" style="stroke: #A80036; stroke-width: 1.0;"/><line style="stroke: #A80036; stroke-width: 1.5;" x1="218.75" x2="218.75" y1="1173.7607" y2="1198.1631"/><polygon fill="#A80036" points="214.75,1188.1631,218.75,1198.1631,222.75,1188.1631,218.75,1192.1631" style="stroke: #A80036; stroke-width: 1.0;"/><line style="stroke: #A80036; stroke-width: 1.5;" x1="269.25" x2="301.25" y1="1161.7607" y2="1161.7607"/><polygon fill="#A80036" points="291.25,1157.7607,301.25,1161.7607,291.25,1165.7607,295.25,1161.7607" style="stroke: #A80036; stroke-width: 1.0;"/><line style="stroke: #A80036; stroke-width: 1.5;" x1="218.75" x2="218.75" y1="1129.7607" y2="1149.7607"/><polygon fill="#A80036" points="214.75,1139.7607,218.75,1149.7607,222.75,1139.7607,218.75,1143.7607" style="stroke: #A80036; stroke-width: 1.0;"/><!--MD5=[20d8f847b6f38fead836c2d978f75c8b]
@startuml
start
:Show app logo 2 secs;

(A)
partition RuntimePermission {
  if (IsGrantedRuntimePermissions?) then (YES)
  else (NO)
    :StartRuntimePermissions;

    if (IsGrantedRuntimePermissions?) then (YES)
    else (NO)
      (E)
      detach
    endif
  endif
}

partition GoogleSignIn {
  if (IsSignedInAccount?) then (YES)
    :RequestSilentSignIn;

    if (Is succeeded?) then (YES)
    else (NO)
      (E)
      detach
    endif

  else (NO)
    :StartGoogleSignInActivity;

    if (Is succeeded?) then (YES)
    else (NO)
      (E)
      detach
    endif

  endif
}

partition GetRefreshToken {
  :RequestTokenInfoWithAuthCode;

  if (TokenInfo.RefreshToken is not null?) then (YES)
    :UpdateUserInfo;
  else (NO)
    :FindUserInfo;
    if (UserInfo.refreshToken is not null?) then (YES)
      :UpdateUserInfo;
    else (NO)
      :RevokeAccess;
      (E)
      detach
    endif
  endif
}

:StartMainActivity;
end

partition Error {
  (E)
  :Show error dialog;
  if (Retry sign in?) then (YES)
    (A)
  else (NO)
    end
  endif
}
@enduml

PlantUML version 1.2020.10(Sun May 17 09:48:49 UTC 2020)
(GPL source distribution)
Java Runtime: Java(TM) SE Runtime Environment
JVM: Java HotSpot(TM) 64-Bit Server VM
Operating System: Linux
Default Encoding: UTF-8
Language: en
Country: US
--></g></svg>