<?xml version="1.0" encoding="UTF-8" standalone="no"?><svg xmlns="http://www.w3.org/2000/svg" xmlns:xlink="http://www.w3.org/1999/xlink" contentScriptType="application/ecmascript" contentStyleType="text/css" height="558px" preserveAspectRatio="none" style="width:1763px;height:558px;" version="1.1" viewBox="0 0 1763 558" width="1763px" zoomAndPan="magnify"><defs><filter height="300%" id="fw5eon61g7993" width="300%" x="-1" y="-1"><feGaussianBlur result="blurOut" stdDeviation="2.0"/><feColorMatrix in="blurOut" result="blurOut2" type="matrix" values="0 0 0 0 0 0 0 0 0 0 0 0 0 0 0 0 0 0 .4 0"/><feOffset dx="4.0" dy="4.0" in="blurOut2" result="blurOut3"/><feBlend in="SourceGraphic" in2="blurOut3" mode="normal"/></filter></defs><g><!--MD5=[2a96228d3f581488ff170e4c22043396]
cluster app.splash--><polygon fill="#FFFFEE" filter="url(#fw5eon61g7993)" points="912,6,1006,6,1013,28.2969,1074,28.2969,1074,105,912,105,912,6" style="stroke: #000000; stroke-width: 1.5;"/><line style="stroke: #000000; stroke-width: 1.5;" x1="912" x2="1013" y1="28.2969" y2="28.2969"/><text fill="#000000" font-family="sans-serif" font-size="14" font-weight="bold" lengthAdjust="spacingAndGlyphs" textLength="88" x="916" y="20.9951">app.splash</text><!--MD5=[3ce32bb550aa839ce29f258eb10ccb5c]
cluster core.webapi--><polygon fill="#EEFFFF" filter="url(#fw5eon61g7993)" points="16,160.5,119,160.5,126,182.7969,963,182.7969,963,546,16,546,16,160.5" style="stroke: #000000; stroke-width: 1.5;"/><line style="stroke: #000000; stroke-width: 1.5;" x1="16" x2="126" y1="182.7969" y2="182.7969"/><text fill="#000000" font-family="sans-serif" font-size="14" font-weight="bold" lengthAdjust="spacingAndGlyphs" textLength="97" x="20" y="175.4951">core.webapi</text><!--MD5=[4d444dac6e5c3bced4931249b00abad2]
cluster core.webapi.client--><polygon fill="#EEFFFF" filter="url(#fw5eon61g7993)" points="721,229,773,229,780,251.2969,939,251.2969,939,341,721,341,721,229" style="stroke: #000000; stroke-width: 1.5;"/><line style="stroke: #000000; stroke-width: 1.5;" x1="721" x2="780" y1="251.2969" y2="251.2969"/><text fill="#000000" font-family="sans-serif" font-size="14" font-weight="bold" lengthAdjust="spacingAndGlyphs" textLength="46" x="725" y="243.9951">client</text><!--MD5=[27bf8290cf25a9153e41c9ef9509c68c]
cluster core.webapi.entity--><polygon fill="#EEFFFF" filter="url(#fw5eon61g7993)" points="40,203.5,95,203.5,102,225.7969,308,225.7969,308,522,40,522,40,203.5" style="stroke: #000000; stroke-width: 1.5;"/><line style="stroke: #000000; stroke-width: 1.5;" x1="40" x2="102" y1="225.7969" y2="225.7969"/><text fill="#000000" font-family="sans-serif" font-size="14" font-weight="bold" lengthAdjust="spacingAndGlyphs" textLength="49" x="44" y="218.4951">entity</text><!--MD5=[36dcaeb2ee32dc79d2fef22c819c4e4a]
cluster core.database--><polygon fill="#FFEEFF" filter="url(#fw5eon61g7993)" points="1091,154,1213,154,1220,176.2969,1741,176.2969,1741,509.5,1091,509.5,1091,154" style="stroke: #000000; stroke-width: 1.5;"/><line style="stroke: #000000; stroke-width: 1.5;" x1="1091" x2="1220" y1="176.2969" y2="176.2969"/><text fill="#000000" font-family="sans-serif" font-size="14" font-weight="bold" lengthAdjust="spacingAndGlyphs" textLength="116" x="1095" y="168.9951">core.database</text><!--MD5=[ad949281d8795506a47ed9505af68aa3]
cluster core.database.entity--><polygon fill="#FFEEFF" filter="url(#fw5eon61g7993)" points="1449,197,1504,197,1511,219.2969,1717,219.2969,1717,373,1449,373,1449,197" style="stroke: #000000; stroke-width: 1.5;"/><line style="stroke: #000000; stroke-width: 1.5;" x1="1449" x2="1511" y1="219.2969" y2="219.2969"/><text fill="#000000" font-family="sans-serif" font-size="14" font-weight="bold" lengthAdjust="spacingAndGlyphs" textLength="49" x="1453" y="211.9951">entity</text><!--MD5=[46444ac2f8e682ff904afb8e89ce9f78]
class app.splash.SplashInteractor--><rect fill="#FEFECE" filter="url(#fw5eon61g7993)" height="48" id="app.splash.SplashInteractor" style="stroke: #A80036; stroke-width: 1.5;" width="130" x="928" y="41"/><ellipse cx="943" cy="57" fill="#ADD1B2" rx="11" ry="11" style="stroke: #A80036; stroke-width: 1.0;"/><path d="M945.3438,52.6719 C944.4063,52.2344 943.8125,52.0938 942.9375,52.0938 C940.3125,52.0938 938.3125,54.1719 938.3125,56.8906 L938.3125,58.0156 C938.3125,60.5938 940.4219,62.4844 943.3125,62.4844 C944.5313,62.4844 945.6875,62.1875 946.4375,61.6406 C947.0156,61.2344 947.3438,60.7813 947.3438,60.3906 C947.3438,59.9375 946.9531,59.5469 946.4844,59.5469 C946.2656,59.5469 946.0625,59.625 945.875,59.8125 C945.4219,60.2969 945.4219,60.2969 945.2344,60.3906 C944.8125,60.6563 944.125,60.7813 943.3594,60.7813 C941.3125,60.7813 940.0156,59.6875 940.0156,57.9844 L940.0156,56.8906 C940.0156,55.1094 941.2656,53.7969 943,53.7969 C943.5781,53.7969 944.1875,53.9531 944.6563,54.2031 C945.1406,54.4844 945.3125,54.7031 945.4063,55.1094 C945.4688,55.5156 945.5,55.6406 945.6406,55.7656 C945.7813,55.9063 946.0156,56.0156 946.2344,56.0156 C946.5,56.0156 946.7656,55.875 946.9375,55.6563 C947.0469,55.5 947.0781,55.3125 947.0781,54.8906 L947.0781,53.4688 C947.0781,53.0313 947.0625,52.9063 946.9688,52.75 C946.8125,52.4844 946.5313,52.3438 946.2344,52.3438 C945.9375,52.3438 945.7344,52.4375 945.5156,52.75 L945.3438,52.6719 Z "/><text fill="#000000" font-family="sans-serif" font-size="12" lengthAdjust="spacingAndGlyphs" textLength="98" x="957" y="61.1543">SplashInteractor</text><line style="stroke: #A80036; stroke-width: 1.5;" x1="929" x2="1057" y1="73" y2="73"/><line style="stroke: #A80036; stroke-width: 1.5;" x1="929" x2="1057" y1="81" y2="81"/><!--MD5=[9dc4add96efb686b57691790338143fd]
class core.webapi.GoogleSignInApi--><rect fill="#FEFECE" filter="url(#fw5eon61g7993)" height="124.8281" id="core.webapi.GoogleSignInApi" style="stroke: #A80036; stroke-width: 1.5;" width="377" x="324.5" y="232"/><ellipse cx="459.25" cy="248" fill="#B4A7E5" rx="11" ry="11" style="stroke: #A80036; stroke-width: 1.0;"/><path d="M460.2031,244.7813 L461.9219,244.7813 C462.3125,244.7813 462.5,244.75 462.625,244.6719 C462.8906,244.5156 463.0313,244.2344 463.0313,243.9375 C463.0313,243.6719 462.9219,243.4063 462.6875,243.2344 C462.5156,243.125 462.375,243.0938 461.9219,243.0938 L456.7813,243.0938 C456.3438,243.0938 456.2188,243.1094 456.0625,243.2031 C455.8125,243.3594 455.6563,243.6563 455.6563,243.9375 C455.6563,244.2188 455.7969,244.4688 456.0156,244.6406 C456.1719,244.75 456.3594,244.7813 456.7813,244.7813 L458.5,244.7813 L458.5,251.2969 L456.7813,251.2969 C456.3438,251.2969 456.2188,251.3125 456.0625,251.4219 C455.8125,251.5781 455.6563,251.8594 455.6563,252.1563 C455.6563,252.4063 455.7969,252.6719 456.0156,252.8281 C456.1719,252.9531 456.375,253 456.7813,253 L461.9219,253 C462.6719,253 463.0313,252.7188 463.0313,252.1563 C463.0313,251.875 462.9219,251.625 462.6875,251.4531 C462.5156,251.3281 462.375,251.2969 461.9219,251.2969 L460.2031,251.2969 L460.2031,244.7813 Z "/><text fill="#000000" font-family="sans-serif" font-size="12" font-style="italic" lengthAdjust="spacingAndGlyphs" textLength="99" x="479.75" y="252.1543">GoogleSignInApi</text><line style="stroke: #A80036; stroke-width: 1.5;" x1="325.5" x2="700.5" y1="264" y2="264"/><line style="stroke: #A80036; stroke-width: 1.5;" x1="325.5" x2="700.5" y1="272" y2="272"/><ellipse cx="335.5" cy="283" fill="#84BE84" rx="3" ry="3" style="stroke: #038048; stroke-width: 1.0;"/><text fill="#000000" font-family="sans-serif" font-size="11" lengthAdjust="spacingAndGlyphs" textLength="180" x="344.5" y="286.2104">requestSilentSignIn(): ApiResult</text><ellipse cx="335.5" cy="295.8047" fill="#84BE84" rx="3" ry="3" style="stroke: #038048; stroke-width: 1.0;"/><text fill="#000000" font-family="sans-serif" font-size="11" lengthAdjust="spacingAndGlyphs" textLength="157" x="344.5" y="299.0151">requestSignOut(): ApiResult</text><ellipse cx="335.5" cy="308.6094" fill="#84BE84" rx="3" ry="3" style="stroke: #038048; stroke-width: 1.0;"/><text fill="#000000" font-family="sans-serif" font-size="11" lengthAdjust="spacingAndGlyphs" textLength="195" x="344.5" y="311.8198">requestRevokeAccess(): ApiResult</text><ellipse cx="335.5" cy="321.4141" fill="#84BE84" rx="3" ry="3" style="stroke: #038048; stroke-width: 1.0;"/><text fill="#000000" font-family="sans-serif" font-size="11" lengthAdjust="spacingAndGlyphs" text-decoration="underline" textLength="261" x="344.5" y="324.6245">isSignedInAccount(context: Context): Boolean</text><ellipse cx="335.5" cy="334.2188" fill="#84BE84" rx="3" ry="3" style="stroke: #038048; stroke-width: 1.0;"/><text fill="#000000" font-family="sans-serif" font-size="11" lengthAdjust="spacingAndGlyphs" text-decoration="underline" textLength="351" x="344.5" y="337.4292">getSignedInAccount(context: Context): GoogleSignInAccount?</text><ellipse cx="335.5" cy="347.0234" fill="#84BE84" rx="3" ry="3" style="stroke: #038048; stroke-width: 1.0;"/><text fill="#000000" font-family="sans-serif" font-size="11" lengthAdjust="spacingAndGlyphs" text-decoration="underline" textLength="268" x="344.5" y="350.2339">isSucceededUserSignIn(data: Intent?): Boolean</text><!--MD5=[0859dedf61d8e3f88a3865835bcb9c55]
class core.webapi.GoogleOAuth2Api--><rect fill="#FEFECE" filter="url(#fw5eon61g7993)" height="73.6094" id="core.webapi.GoogleOAuth2Api" style="stroke: #A80036; stroke-width: 1.5;" width="423" x="424.5" y="426"/><ellipse cx="578.75" cy="442" fill="#B4A7E5" rx="11" ry="11" style="stroke: #A80036; stroke-width: 1.0;"/><path d="M579.7031,438.7813 L581.4219,438.7813 C581.8125,438.7813 582,438.75 582.125,438.6719 C582.3906,438.5156 582.5313,438.2344 582.5313,437.9375 C582.5313,437.6719 582.4219,437.4063 582.1875,437.2344 C582.0156,437.125 581.875,437.0938 581.4219,437.0938 L576.2813,437.0938 C575.8438,437.0938 575.7188,437.1094 575.5625,437.2031 C575.3125,437.3594 575.1563,437.6563 575.1563,437.9375 C575.1563,438.2188 575.2969,438.4688 575.5156,438.6406 C575.6719,438.75 575.8594,438.7813 576.2813,438.7813 L578,438.7813 L578,445.2969 L576.2813,445.2969 C575.8438,445.2969 575.7188,445.3125 575.5625,445.4219 C575.3125,445.5781 575.1563,445.8594 575.1563,446.1563 C575.1563,446.4063 575.2969,446.6719 575.5156,446.8281 C575.6719,446.9531 575.875,447 576.2813,447 L581.4219,447 C582.1719,447 582.5313,446.7188 582.5313,446.1563 C582.5313,445.875 582.4219,445.625 582.1875,445.4531 C582.0156,445.3281 581.875,445.2969 581.4219,445.2969 L579.7031,445.2969 L579.7031,438.7813 Z "/><text fill="#000000" font-family="sans-serif" font-size="12" font-style="italic" lengthAdjust="spacingAndGlyphs" textLength="106" x="599.25" y="446.1543">GoogleOAuth2Api</text><line style="stroke: #A80036; stroke-width: 1.5;" x1="425.5" x2="846.5" y1="458" y2="458"/><line style="stroke: #A80036; stroke-width: 1.5;" x1="425.5" x2="846.5" y1="466" y2="466"/><ellipse cx="435.5" cy="477" fill="#84BE84" rx="3" ry="3" style="stroke: #038048; stroke-width: 1.0;"/><text fill="#000000" font-family="sans-serif" font-size="11" lengthAdjust="spacingAndGlyphs" textLength="391" x="444.5" y="480.2104">requestTokenInfoWithAuthCode(serverAuthCode: String): TokenInfo?</text><ellipse cx="435.5" cy="489.8047" fill="#84BE84" rx="3" ry="3" style="stroke: #038048; stroke-width: 1.0;"/><text fill="#000000" font-family="sans-serif" font-size="11" lengthAdjust="spacingAndGlyphs" textLength="397" x="444.5" y="493.0151">requestTokenInfoWithRefreshToken(refreshToken: String): TokenInfo?</text><!--MD5=[53d9095e3df4f97108c8b343b83cd9b7]
class core.webapi.client.GoogleSignInClientHolder--><rect fill="#FEFECE" filter="url(#fw5eon61g7993)" height="60.8047" id="core.webapi.client.GoogleSignInClientHolder" style="stroke: #A80036; stroke-width: 1.5;" width="186" x="737" y="264"/><ellipse cx="752" cy="280" fill="#ADD1B2" rx="11" ry="11" style="stroke: #A80036; stroke-width: 1.0;"/><path d="M754.3438,275.6719 C753.4063,275.2344 752.8125,275.0938 751.9375,275.0938 C749.3125,275.0938 747.3125,277.1719 747.3125,279.8906 L747.3125,281.0156 C747.3125,283.5938 749.4219,285.4844 752.3125,285.4844 C753.5313,285.4844 754.6875,285.1875 755.4375,284.6406 C756.0156,284.2344 756.3438,283.7813 756.3438,283.3906 C756.3438,282.9375 755.9531,282.5469 755.4844,282.5469 C755.2656,282.5469 755.0625,282.625 754.875,282.8125 C754.4219,283.2969 754.4219,283.2969 754.2344,283.3906 C753.8125,283.6563 753.125,283.7813 752.3594,283.7813 C750.3125,283.7813 749.0156,282.6875 749.0156,280.9844 L749.0156,279.8906 C749.0156,278.1094 750.2656,276.7969 752,276.7969 C752.5781,276.7969 753.1875,276.9531 753.6563,277.2031 C754.1406,277.4844 754.3125,277.7031 754.4063,278.1094 C754.4688,278.5156 754.5,278.6406 754.6406,278.7656 C754.7813,278.9063 755.0156,279.0156 755.2344,279.0156 C755.5,279.0156 755.7656,278.875 755.9375,278.6563 C756.0469,278.5 756.0781,278.3125 756.0781,277.8906 L756.0781,276.4688 C756.0781,276.0313 756.0625,275.9063 755.9688,275.75 C755.8125,275.4844 755.5313,275.3438 755.2344,275.3438 C754.9375,275.3438 754.7344,275.4375 754.5156,275.75 L754.3438,275.6719 Z "/><text fill="#000000" font-family="sans-serif" font-size="12" lengthAdjust="spacingAndGlyphs" textLength="154" x="766" y="284.1543">GoogleSignInClientHolder</text><line style="stroke: #A80036; stroke-width: 1.5;" x1="738" x2="922" y1="296" y2="296"/><ellipse cx="748" cy="307" fill="none" rx="3" ry="3" style="stroke: #038048; stroke-width: 1.0;"/><text fill="#000000" font-family="sans-serif" font-size="11" lengthAdjust="spacingAndGlyphs" textLength="147" x="757" y="310.2104">client: GoogleSignInClient</text><line style="stroke: #A80036; stroke-width: 1.5;" x1="738" x2="922" y1="316.8047" y2="316.8047"/><!--MD5=[ff62f648d77ce11cd3e90026639b81a5]
class core.webapi.entity.ApiResult--><rect fill="#FEFECE" filter="url(#fw5eon61g7993)" height="86.4141" id="core.webapi.entity.ApiResult" style="stroke: #A80036; stroke-width: 1.5;" width="87" x="62.5" y="251.5"/><ellipse cx="77.5" cy="267.5" fill="#EB937F" rx="11" ry="11" style="stroke: #A80036; stroke-width: 1.0;"/><path d="M76.2969,268.375 L77.75,268.375 L77.75,268.4844 C77.75,268.8906 77.7813,269.0469 77.8594,269.2031 C78.0156,269.4531 78.2969,269.6094 78.5938,269.6094 C78.8438,269.6094 79.1094,269.4688 79.2656,269.25 C79.3906,269.0938 79.4219,268.9375 79.4219,268.4844 L79.4219,266.5625 C79.4219,266.4063 79.4219,266.3594 79.4063,266.2031 C79.3438,265.7344 79.0313,265.4219 78.5781,265.4219 C78.3281,265.4219 78.0625,265.5625 77.8906,265.7813 C77.7813,265.9531 77.75,266.1094 77.75,266.5625 L77.75,266.6875 L76.2969,266.6875 L76.2969,264.2813 L80.2813,264.2813 L80.2813,265.1406 C80.2813,265.5469 80.3125,265.7188 80.3906,265.875 C80.5625,266.125 80.8438,266.2813 81.125,266.2813 C81.3906,266.2813 81.6563,266.1406 81.8281,265.9219 C81.9375,265.75 81.9688,265.6094 81.9688,265.1406 L81.9688,262.5938 L74.3438,262.5938 C73.9063,262.5938 73.7813,262.6094 73.625,262.7031 C73.375,262.8594 73.2188,263.1563 73.2188,263.4375 C73.2188,263.7188 73.3594,263.9688 73.5781,264.1406 C73.7344,264.25 73.9219,264.2813 74.3438,264.2813 L74.5938,264.2813 L74.5938,270.7969 L74.3438,270.7969 C73.9375,270.7969 73.7813,270.8125 73.625,270.9219 C73.375,271.0938 73.2188,271.3594 73.2188,271.6563 C73.2188,271.9219 73.3594,272.1719 73.5781,272.3281 C73.7188,272.4531 73.9531,272.5 74.3438,272.5 L82.3438,272.5 L82.3438,269.9219 C82.3438,269.4844 82.3125,269.3438 82.2344,269.1875 C82.0625,268.9375 81.7813,268.7813 81.5,268.7813 C81.2344,268.7813 80.9688,268.8906 80.7969,269.1406 C80.6875,269.2969 80.6563,269.4375 80.6563,269.9219 L80.6563,270.7969 L76.2969,270.7969 L76.2969,268.375 Z "/><text fill="#000000" font-family="sans-serif" font-size="12" lengthAdjust="spacingAndGlyphs" textLength="55" x="91.5" y="271.6543">ApiResult</text><line style="stroke: #A80036; stroke-width: 1.5;" x1="63.5" x2="148.5" y1="283.5" y2="283.5"/><text fill="#000000" font-family="sans-serif" font-size="11" lengthAdjust="spacingAndGlyphs" textLength="71" x="68.5" y="297.7104">SUCCEEDED</text><text fill="#000000" font-family="sans-serif" font-size="11" lengthAdjust="spacingAndGlyphs" textLength="39" x="68.5" y="310.5151">FAILED</text><text fill="#000000" font-family="sans-serif" font-size="11" lengthAdjust="spacingAndGlyphs" textLength="61" x="68.5" y="323.3198">CANCELED</text><line style="stroke: #A80036; stroke-width: 1.5;" x1="63.5" x2="148.5" y1="329.9141" y2="329.9141"/><!--MD5=[0f8479c8f8fc0238a6b87a26c6873552]
class core.webapi.entity.PhotoScope--><rect fill="#FEFECE" filter="url(#fw5eon61g7993)" height="112.0234" id="core.webapi.entity.PhotoScope" style="stroke: #A80036; stroke-width: 1.5;" width="105" x="184.5" y="238.5"/><ellipse cx="199.95" cy="254.5" fill="#EB937F" rx="11" ry="11" style="stroke: #A80036; stroke-width: 1.0;"/><path d="M198.7469,255.375 L200.2,255.375 L200.2,255.4844 C200.2,255.8906 200.2313,256.0469 200.3094,256.2031 C200.4656,256.4531 200.7469,256.6094 201.0438,256.6094 C201.2938,256.6094 201.5594,256.4688 201.7156,256.25 C201.8406,256.0938 201.8719,255.9375 201.8719,255.4844 L201.8719,253.5625 C201.8719,253.4063 201.8719,253.3594 201.8563,253.2031 C201.7938,252.7344 201.4813,252.4219 201.0281,252.4219 C200.7781,252.4219 200.5125,252.5625 200.3406,252.7813 C200.2313,252.9531 200.2,253.1094 200.2,253.5625 L200.2,253.6875 L198.7469,253.6875 L198.7469,251.2813 L202.7313,251.2813 L202.7313,252.1406 C202.7313,252.5469 202.7625,252.7188 202.8406,252.875 C203.0125,253.125 203.2938,253.2813 203.575,253.2813 C203.8406,253.2813 204.1063,253.1406 204.2781,252.9219 C204.3875,252.75 204.4188,252.6094 204.4188,252.1406 L204.4188,249.5938 L196.7938,249.5938 C196.3563,249.5938 196.2313,249.6094 196.075,249.7031 C195.825,249.8594 195.6688,250.1563 195.6688,250.4375 C195.6688,250.7188 195.8094,250.9688 196.0281,251.1406 C196.1844,251.25 196.3719,251.2813 196.7938,251.2813 L197.0438,251.2813 L197.0438,257.7969 L196.7938,257.7969 C196.3875,257.7969 196.2313,257.8125 196.075,257.9219 C195.825,258.0938 195.6688,258.3594 195.6688,258.6563 C195.6688,258.9219 195.8094,259.1719 196.0281,259.3281 C196.1688,259.4531 196.4031,259.5 196.7938,259.5 L204.7938,259.5 L204.7938,256.9219 C204.7938,256.4844 204.7625,256.3438 204.6844,256.1875 C204.5125,255.9375 204.2313,255.7813 203.95,255.7813 C203.6844,255.7813 203.4188,255.8906 203.2469,256.1406 C203.1375,256.2969 203.1063,256.4375 203.1063,256.9219 L203.1063,257.7969 L198.7469,257.7969 L198.7469,255.375 Z "/><text fill="#000000" font-family="sans-serif" font-size="12" lengthAdjust="spacingAndGlyphs" textLength="72" x="214.05" y="258.6543">PhotoScope</text><line style="stroke: #A80036; stroke-width: 1.5;" x1="185.5" x2="288.5" y1="270.5" y2="270.5"/><text fill="#000000" font-family="sans-serif" font-size="11" lengthAdjust="spacingAndGlyphs" textLength="72" x="190.5" y="284.7104">READ_WRITE</text><text fill="#000000" font-family="sans-serif" font-size="11" lengthAdjust="spacingAndGlyphs" textLength="67" x="190.5" y="297.5151">READ_ONLY</text><text fill="#000000" font-family="sans-serif" font-size="11" lengthAdjust="spacingAndGlyphs" textLength="71" x="190.5" y="310.3198">WRITE_ONLY</text><text fill="#000000" font-family="sans-serif" font-size="11" lengthAdjust="spacingAndGlyphs" textLength="93" x="190.5" y="323.1245">READ_ONLY_APP</text><text fill="#000000" font-family="sans-serif" font-size="11" lengthAdjust="spacingAndGlyphs" textLength="51" x="190.5" y="335.9292">SHARING</text><line style="stroke: #A80036; stroke-width: 1.5;" x1="185.5" x2="288.5" y1="342.5234" y2="342.5234"/><!--MD5=[b58e679e47af320424cf6f7a18ecbe60]
class core.webapi.entity.TokenInfo--><rect fill="#FEFECE" filter="url(#fw5eon61g7993)" height="86.4141" id="core.webapi.entity.TokenInfo" style="stroke: #A80036; stroke-width: 1.5;" width="235" x="56.5" y="420"/><ellipse cx="140.25" cy="436" fill="#ADD1B2" rx="11" ry="11" style="stroke: #A80036; stroke-width: 1.0;"/><path d="M142.5938,431.6719 C141.6563,431.2344 141.0625,431.0938 140.1875,431.0938 C137.5625,431.0938 135.5625,433.1719 135.5625,435.8906 L135.5625,437.0156 C135.5625,439.5938 137.6719,441.4844 140.5625,441.4844 C141.7813,441.4844 142.9375,441.1875 143.6875,440.6406 C144.2656,440.2344 144.5938,439.7813 144.5938,439.3906 C144.5938,438.9375 144.2031,438.5469 143.7344,438.5469 C143.5156,438.5469 143.3125,438.625 143.125,438.8125 C142.6719,439.2969 142.6719,439.2969 142.4844,439.3906 C142.0625,439.6563 141.375,439.7813 140.6094,439.7813 C138.5625,439.7813 137.2656,438.6875 137.2656,436.9844 L137.2656,435.8906 C137.2656,434.1094 138.5156,432.7969 140.25,432.7969 C140.8281,432.7969 141.4375,432.9531 141.9063,433.2031 C142.3906,433.4844 142.5625,433.7031 142.6563,434.1094 C142.7188,434.5156 142.75,434.6406 142.8906,434.7656 C143.0313,434.9063 143.2656,435.0156 143.4844,435.0156 C143.75,435.0156 144.0156,434.875 144.1875,434.6563 C144.2969,434.5 144.3281,434.3125 144.3281,433.8906 L144.3281,432.4688 C144.3281,432.0313 144.3125,431.9063 144.2188,431.75 C144.0625,431.4844 143.7813,431.3438 143.4844,431.3438 C143.1875,431.3438 142.9844,431.4375 142.7656,431.75 L142.5938,431.6719 Z "/><text fill="#000000" font-family="sans-serif" font-size="12" lengthAdjust="spacingAndGlyphs" textLength="59" x="160.75" y="440.1543">TokenInfo</text><line style="stroke: #A80036; stroke-width: 1.5;" x1="57.5" x2="290.5" y1="452" y2="452"/><ellipse cx="67.5" cy="463" fill="none" rx="3" ry="3" style="stroke: #038048; stroke-width: 1.0;"/><text fill="#000000" font-family="sans-serif" font-size="11" lengthAdjust="spacingAndGlyphs" textLength="114" x="76.5" y="466.2104">accessToken: String</text><ellipse cx="67.5" cy="475.8047" fill="none" rx="3" ry="3" style="stroke: #038048; stroke-width: 1.0;"/><text fill="#000000" font-family="sans-serif" font-size="11" lengthAdjust="spacingAndGlyphs" textLength="116" x="76.5" y="479.0151">refreshToken: String</text><ellipse cx="67.5" cy="488.6094" fill="none" rx="3" ry="3" style="stroke: #038048; stroke-width: 1.0;"/><text fill="#000000" font-family="sans-serif" font-size="11" lengthAdjust="spacingAndGlyphs" textLength="209" x="76.5" y="491.8198">expiredAccessTokenTimeMillis: Long</text><line style="stroke: #A80036; stroke-width: 1.5;" x1="57.5" x2="290.5" y1="498.4141" y2="498.4141"/><!--MD5=[4f5598559aab2ff013676d61efc28cec]
class core.database.UserInfoDatabase--><rect fill="#FEFECE" filter="url(#fw5eon61g7993)" height="86.4141" id="core.database.UserInfoDatabase" style="stroke: #A80036; stroke-width: 1.5;" width="323" x="1107.5" y="251.5"/><ellipse cx="1211.75" cy="267.5" fill="#B4A7E5" rx="11" ry="11" style="stroke: #A80036; stroke-width: 1.0;"/><path d="M1212.7031,264.2813 L1214.4219,264.2813 C1214.8125,264.2813 1215,264.25 1215.125,264.1719 C1215.3906,264.0156 1215.5313,263.7344 1215.5313,263.4375 C1215.5313,263.1719 1215.4219,262.9063 1215.1875,262.7344 C1215.0156,262.625 1214.875,262.5938 1214.4219,262.5938 L1209.2813,262.5938 C1208.8438,262.5938 1208.7188,262.6094 1208.5625,262.7031 C1208.3125,262.8594 1208.1563,263.1563 1208.1563,263.4375 C1208.1563,263.7188 1208.2969,263.9688 1208.5156,264.1406 C1208.6719,264.25 1208.8594,264.2813 1209.2813,264.2813 L1211,264.2813 L1211,270.7969 L1209.2813,270.7969 C1208.8438,270.7969 1208.7188,270.8125 1208.5625,270.9219 C1208.3125,271.0781 1208.1563,271.3594 1208.1563,271.6563 C1208.1563,271.9063 1208.2969,272.1719 1208.5156,272.3281 C1208.6719,272.4531 1208.875,272.5 1209.2813,272.5 L1214.4219,272.5 C1215.1719,272.5 1215.5313,272.2188 1215.5313,271.6563 C1215.5313,271.375 1215.4219,271.125 1215.1875,270.9531 C1215.0156,270.8281 1214.875,270.7969 1214.4219,270.7969 L1212.7031,270.7969 L1212.7031,264.2813 Z "/><text fill="#000000" font-family="sans-serif" font-size="12" font-style="italic" lengthAdjust="spacingAndGlyphs" textLength="106" x="1232.25" y="271.6543">UserInfoDatabase</text><line style="stroke: #A80036; stroke-width: 1.5;" x1="1108.5" x2="1429.5" y1="283.5" y2="283.5"/><line style="stroke: #A80036; stroke-width: 1.5;" x1="1108.5" x2="1429.5" y1="291.5" y2="291.5"/><ellipse cx="1118.5" cy="302.5" fill="#84BE84" rx="3" ry="3" style="stroke: #038048; stroke-width: 1.0;"/><text fill="#000000" font-family="sans-serif" font-size="11" lengthAdjust="spacingAndGlyphs" textLength="297" x="1127.5" y="305.7104">update(email: String, tokenInfo: TokenInfo): Boolean</text><ellipse cx="1118.5" cy="315.3047" fill="#84BE84" rx="3" ry="3" style="stroke: #038048; stroke-width: 1.0;"/><text fill="#000000" font-family="sans-serif" font-size="11" lengthAdjust="spacingAndGlyphs" textLength="118" x="1127.5" y="318.5151">delete(email: String)</text><ellipse cx="1118.5" cy="328.1094" fill="#84BE84" rx="3" ry="3" style="stroke: #038048; stroke-width: 1.0;"/><text fill="#000000" font-family="sans-serif" font-size="11" lengthAdjust="spacingAndGlyphs" textLength="161" x="1127.5" y="331.3198">find(email: String): UserInfo?</text><!--MD5=[4faf1b3c94cc078cd7f59c0361f6387c]
class core.database.BaseDatabase--><rect fill="#FEFECE" filter="url(#fw5eon61g7993)" height="60.8047" id="core.database.BaseDatabase" style="stroke: #A80036; stroke-width: 1.5;" width="127" x="1205.5" y="432.5"/><ellipse cx="1220.5" cy="448.5" fill="#B4A7E5" rx="11" ry="11" style="stroke: #A80036; stroke-width: 1.0;"/><path d="M1221.4531,445.2813 L1223.1719,445.2813 C1223.5625,445.2813 1223.75,445.25 1223.875,445.1719 C1224.1406,445.0156 1224.2813,444.7344 1224.2813,444.4375 C1224.2813,444.1719 1224.1719,443.9063 1223.9375,443.7344 C1223.7656,443.625 1223.625,443.5938 1223.1719,443.5938 L1218.0313,443.5938 C1217.5938,443.5938 1217.4688,443.6094 1217.3125,443.7031 C1217.0625,443.8594 1216.9063,444.1563 1216.9063,444.4375 C1216.9063,444.7188 1217.0469,444.9688 1217.2656,445.1406 C1217.4219,445.25 1217.6094,445.2813 1218.0313,445.2813 L1219.75,445.2813 L1219.75,451.7969 L1218.0313,451.7969 C1217.5938,451.7969 1217.4688,451.8125 1217.3125,451.9219 C1217.0625,452.0781 1216.9063,452.3594 1216.9063,452.6563 C1216.9063,452.9063 1217.0469,453.1719 1217.2656,453.3281 C1217.4219,453.4531 1217.625,453.5 1218.0313,453.5 L1223.1719,453.5 C1223.9219,453.5 1224.2813,453.2188 1224.2813,452.6563 C1224.2813,452.375 1224.1719,452.125 1223.9375,451.9531 C1223.7656,451.8281 1223.625,451.7969 1223.1719,451.7969 L1221.4531,451.7969 L1221.4531,445.2813 Z "/><text fill="#000000" font-family="sans-serif" font-size="12" font-style="italic" lengthAdjust="spacingAndGlyphs" textLength="84" x="1234.5" y="452.6543">BaseDatabase</text><rect fill="#FFFFFF" height="15.9688" style="stroke: #000000; stroke-width: 1.0; stroke-dasharray: 2.0,2.0;" width="9" x="1326.5" y="429.5"/><text fill="#000000" font-family="sans-serif" font-size="12" font-style="italic" lengthAdjust="spacingAndGlyphs" textLength="7" x="1327.5" y="441.6387">T</text><line style="stroke: #A80036; stroke-width: 1.5;" x1="1206.5" x2="1331.5" y1="464.5" y2="464.5"/><line style="stroke: #A80036; stroke-width: 1.5;" x1="1206.5" x2="1331.5" y1="472.5" y2="472.5"/><ellipse cx="1216.5" cy="483.5" fill="#84BE84" rx="3" ry="3" style="stroke: #038048; stroke-width: 1.0;"/><text fill="#000000" font-family="sans-serif" font-size="11" lengthAdjust="spacingAndGlyphs" textLength="92" x="1225.5" y="486.7104">getAll(): List&lt;T&gt;</text><!--MD5=[309e374e200c298650928d6ed03894f9]
class core.database.entity.UserInfo--><rect fill="#FEFECE" filter="url(#fw5eon61g7993)" height="124.8281" id="core.database.entity.UserInfo" style="stroke: #A80036; stroke-width: 1.5;" width="235" x="1465.5" y="232"/><ellipse cx="1553.25" cy="248" fill="#ADD1B2" rx="11" ry="11" style="stroke: #A80036; stroke-width: 1.0;"/><path d="M1555.5938,243.6719 C1554.6563,243.2344 1554.0625,243.0938 1553.1875,243.0938 C1550.5625,243.0938 1548.5625,245.1719 1548.5625,247.8906 L1548.5625,249.0156 C1548.5625,251.5938 1550.6719,253.4844 1553.5625,253.4844 C1554.7813,253.4844 1555.9375,253.1875 1556.6875,252.6406 C1557.2656,252.2344 1557.5938,251.7813 1557.5938,251.3906 C1557.5938,250.9375 1557.2031,250.5469 1556.7344,250.5469 C1556.5156,250.5469 1556.3125,250.625 1556.125,250.8125 C1555.6719,251.2969 1555.6719,251.2969 1555.4844,251.3906 C1555.0625,251.6563 1554.375,251.7813 1553.6094,251.7813 C1551.5625,251.7813 1550.2656,250.6875 1550.2656,248.9844 L1550.2656,247.8906 C1550.2656,246.1094 1551.5156,244.7969 1553.25,244.7969 C1553.8281,244.7969 1554.4375,244.9531 1554.9063,245.2031 C1555.3906,245.4844 1555.5625,245.7031 1555.6563,246.1094 C1555.7188,246.5156 1555.75,246.6406 1555.8906,246.7656 C1556.0313,246.9063 1556.2656,247.0156 1556.4844,247.0156 C1556.75,247.0156 1557.0156,246.875 1557.1875,246.6563 C1557.2969,246.5 1557.3281,246.3125 1557.3281,245.8906 L1557.3281,244.4688 C1557.3281,244.0313 1557.3125,243.9063 1557.2188,243.75 C1557.0625,243.4844 1556.7813,243.3438 1556.4844,243.3438 C1556.1875,243.3438 1555.9844,243.4375 1555.7656,243.75 L1555.5938,243.6719 Z "/><text fill="#000000" font-family="sans-serif" font-size="12" lengthAdjust="spacingAndGlyphs" textLength="51" x="1573.75" y="252.1543">UserInfo</text><line style="stroke: #A80036; stroke-width: 1.5;" x1="1466.5" x2="1699.5" y1="264" y2="264"/><ellipse cx="1476.5" cy="275" fill="none" rx="3" ry="3" style="stroke: #038048; stroke-width: 1.0;"/><text fill="#000000" font-family="sans-serif" font-size="11" lengthAdjust="spacingAndGlyphs" textLength="44" x="1485.5" y="278.2104">id: Long</text><ellipse cx="1476.5" cy="287.8047" fill="none" rx="3" ry="3" style="stroke: #038048; stroke-width: 1.0;"/><text fill="#000000" font-family="sans-serif" font-size="11" lengthAdjust="spacingAndGlyphs" textLength="118" x="1485.5" y="291.0151">emailAddress: String</text><ellipse cx="1476.5" cy="300.6094" fill="none" rx="3" ry="3" style="stroke: #038048; stroke-width: 1.0;"/><text fill="#000000" font-family="sans-serif" font-size="11" lengthAdjust="spacingAndGlyphs" textLength="114" x="1485.5" y="303.8198">accessToken: String</text><ellipse cx="1476.5" cy="313.4141" fill="none" rx="3" ry="3" style="stroke: #038048; stroke-width: 1.0;"/><text fill="#000000" font-family="sans-serif" font-size="11" lengthAdjust="spacingAndGlyphs" textLength="116" x="1485.5" y="316.6245">refreshToken: String</text><ellipse cx="1476.5" cy="326.2188" fill="none" rx="3" ry="3" style="stroke: #038048; stroke-width: 1.0;"/><text fill="#000000" font-family="sans-serif" font-size="11" lengthAdjust="spacingAndGlyphs" textLength="209" x="1485.5" y="329.4292">expiredAccessTokenTimeMillis: Long</text><ellipse cx="1476.5" cy="339.0234" fill="none" rx="3" ry="3" style="stroke: #038048; stroke-width: 1.0;"/><text fill="#000000" font-family="sans-serif" font-size="11" lengthAdjust="spacingAndGlyphs" textLength="158" x="1485.5" y="342.2339">updateDateTimeMillis: Long</text><line style="stroke: #A80036; stroke-width: 1.5;" x1="1466.5" x2="1699.5" y1="348.8281" y2="348.8281"/><!--MD5=[66139ef54b555fc5b60e47fd2eddd36a]
link core.webapi.GoogleSignInApi to core.webapi.GoogleOAuth2Api--><!--MD5=[5c4466f58a54eb5ea19c5ae27a772681]
link core.database.UserInfoDatabase to core.database.BaseDatabase--><path d="M1269,337.515 C1269,360.159 1269,388.247 1269,412.009 " fill="none" id="core.database.UserInfoDatabase-&gt;core.database.BaseDatabase" style="stroke: #A80036; stroke-width: 1.0; stroke-dasharray: 7.0,7.0;"/><polygon fill="none" points="1276,412.335,1269,432.335,1262,412.335,1276,412.335" style="stroke: #A80036; stroke-width: 1.0;"/><!--MD5=[af3173b8bd7d5e1ac7d4e61d5c375c68]
reverse link app.splash.SplashInteractor to core.webapi.GoogleSignInApi--><path d="M914.845,81.738 C859.068,94.682 783.224,115.832 721,146 C673.597,168.982 625.32,202.47 587.223,231.73 " fill="none" id="app.splash.SplashInteractor&lt;-core.webapi.GoogleSignInApi" style="stroke: #A80036; stroke-width: 1.0;"/><polygon fill="#FFFFFF" points="927.855,78.783,921.1179,76.2116,916.1532,81.4414,922.8902,84.0128,927.855,78.783" style="stroke: #A80036; stroke-width: 1.0;"/><rect fill="none" height="6" style="stroke: #C82930; stroke-width: 1.0;" width="6" x="782" y="127.0664"/><text fill="#000000" font-family="sans-serif" font-size="13" lengthAdjust="spacingAndGlyphs" textLength="57" x="792" y="134.0669">signInApi</text><!--MD5=[f15165019abd1e2d032c3807147f1eaf]
reverse link app.splash.SplashInteractor to core.webapi.GoogleOAuth2Api--><path d="M998.246,102.432 C1005.38,167.253 1010.08,303.104 939,381 C922.851,398.698 882,413.8 835.339,425.999 " fill="none" id="app.splash.SplashInteractor&lt;-core.webapi.GoogleOAuth2Api" style="stroke: #A80036; stroke-width: 1.0;"/><polygon fill="#FFFFFF" points="996.665,89.361,993.4156,95.7985,998.1081,101.2739,1001.3575,94.8364,996.665,89.361" style="stroke: #A80036; stroke-width: 1.0;"/><rect fill="none" height="6" style="stroke: #C82930; stroke-width: 1.0;" width="6" x="1006" y="292.0664"/><text fill="#000000" font-family="sans-serif" font-size="13" lengthAdjust="spacingAndGlyphs" textLength="65" x="1016" y="299.0669">oauth2Api</text><!--MD5=[56fa1a2400e0278812f7025dc8262cf2]
reverse link app.splash.SplashInteractor to core.database.UserInfoDatabase--><path d="M1031.07,97.377 C1079.6,137.384 1163.7,206.702 1217.81,251.306 " fill="none" id="app.splash.SplashInteractor&lt;-core.database.UserInfoDatabase" style="stroke: #A80036; stroke-width: 1.0;"/><polygon fill="#FFFFFF" points="1020.98,89.066,1023.0646,95.9692,1030.2385,96.7001,1028.154,89.7969,1020.98,89.066" style="stroke: #A80036; stroke-width: 1.0;"/><rect fill="none" height="6" style="stroke: #C82930; stroke-width: 1.0;" width="6" x="1078" y="127.0664"/><text fill="#000000" font-family="sans-serif" font-size="13" lengthAdjust="spacingAndGlyphs" textLength="60" x="1088" y="134.0669">database</text><!--MD5=[8bf928f77d84222d5a3585deae6b9773]
link core.webapi.entity.ApiResult to core.webapi.entity.PhotoScope--><!--MD5=[9c4297b2450d629ac3e7f856dc977e12]
link core.webapi.entity.ApiResult to core.webapi.entity.TokenInfo--><!--MD5=[0d33ea56f3e74d6df66f76effa50a686]
@startuml
namespace app.splash #FFFFEE {
  class SplashInteractor
}

namespace core.webapi #EEFFFF {
  interface GoogleSignInApi {
    + requestSilentSignIn(): ApiResult
    + requestSignOut(): ApiResult
    + requestRevokeAccess(): ApiResult
    + {static} isSignedInAccount(context: Context): Boolean
    + {static} getSignedInAccount(context: Context): GoogleSignInAccount?
    + {static} isSucceededUserSignIn(data: Intent?): Boolean
  }
  interface GoogleOAuth2Api {
    + requestTokenInfoWithAuthCode(serverAuthCode: String): TokenInfo?
    + requestTokenInfoWithRefreshToken(refreshToken: String): TokenInfo?
  }

  GoogleSignInApi -[hidden]-> GoogleOAuth2Api

  namespace client {
    class GoogleSignInClientHolder {
      + client: GoogleSignInClient
    }
  }

  namespace entity {
    enum ApiResult {
      SUCCEEDED
      FAILED
      CANCELED
    }
    enum PhotoScope {
      READ_WRITE
      READ_ONLY
      WRITE_ONLY
      READ_ONLY_APP
      SHARING
    }
    class TokenInfo {
      + accessToken: String
      + refreshToken: String
      + expiredAccessTokenTimeMillis: Long
    }
  }
}

namespace core.database #FFEEFF {
  interface UserInfoDatabase {
    + update(email: String, tokenInfo: TokenInfo): Boolean
    + delete(email: String)
    + find(email: String): UserInfo?
  }
  interface BaseDatabase<T> {
    + getAll(): List<T>
  }

  UserInfoDatabase ..|> BaseDatabase

  namespace entity {
    class UserInfo {
      + id: Long
      + emailAddress: String
      + accessToken: String
      + refreshToken: String
      + expiredAccessTokenTimeMillis: Long
      + updateDateTimeMillis: Long
    }
  }
}

app.splash.SplashInteractor o- - core.webapi.GoogleSignInApi: -signInApi
app.splash.SplashInteractor o- - core.webapi.GoogleOAuth2Api: -oauth2Api
app.splash.SplashInteractor o- - core.database.UserInfoDatabase: -database
@enduml

PlantUML version 1.2020.15beta1(Unknown compile time)
(GPL source distribution)
Java Runtime: Java(TM) SE Runtime Environment
JVM: Java HotSpot(TM) 64-Bit Server VM
Default Encoding: UTF-8
Language: en
Country: US
--></g></svg>