<?xml version="1.0" encoding="UTF-8" standalone="no"?><svg xmlns="http://www.w3.org/2000/svg" xmlns:xlink="http://www.w3.org/1999/xlink" contentScriptType="application/ecmascript" contentStyleType="text/css" height="1022px" preserveAspectRatio="none" style="width:1249px;height:1022px;" version="1.1" viewBox="0 0 1249 1022" width="1249px" zoomAndPan="magnify"><defs><filter height="300%" id="fr2xbaf25l0u7" width="300%" x="-1" y="-1"><feGaussianBlur result="blurOut" stdDeviation="2.0"/><feColorMatrix in="blurOut" result="blurOut2" type="matrix" values="0 0 0 0 0 0 0 0 0 0 0 0 0 0 0 0 0 0 .4 0"/><feOffset dx="4.0" dy="4.0" in="blurOut2" result="blurOut3"/><feBlend in="SourceGraphic" in2="blurOut3" mode="normal"/></filter></defs><g><!--MD5=[2a96228d3f581488ff170e4c22043396]
cluster app.splash--><polygon fill="#FFFFEE" filter="url(#fr2xbaf25l0u7)" points="16,6,110,6,117,28.2969,264,28.2969,264,991,16,991,16,6" style="stroke: #000000; stroke-width: 1.5;"/><line style="stroke: #000000; stroke-width: 1.5;" x1="16" x2="117" y1="28.2969" y2="28.2969"/><text fill="#000000" font-family="sans-serif" font-size="14" font-weight="bold" lengthAdjust="spacingAndGlyphs" textLength="88" x="20" y="20.9951">app.splash</text><!--MD5=[866e8dce3d52014c766811fd38c69b87]
cluster app.splash.entity--><polygon fill="#FFFFEE" filter="url(#fr2xbaf25l0u7)" points="48,57,103,57,110,79.2969,224,79.2969,224,207,48,207,48,57" style="stroke: #000000; stroke-width: 1.5;"/><line style="stroke: #000000; stroke-width: 1.5;" x1="48" x2="110" y1="79.2969" y2="79.2969"/><text fill="#000000" font-family="sans-serif" font-size="14" font-weight="bold" lengthAdjust="spacingAndGlyphs" textLength="49" x="52" y="71.9951">entity</text><!--MD5=[c83d1fd1a1968b652cdf7b3ece76fca7]
cluster app.splash.contract.SplashContract--><polygon fill="#EEEEEE" filter="url(#fr2xbaf25l0u7)" points="304,248,605,248,612,270.2969,980,270.2969,980,1010,304,1010,304,248" style="stroke: #000000; stroke-width: 1.5;"/><line style="stroke: #000000; stroke-width: 1.5;" x1="304" x2="612" y1="270.2969" y2="270.2969"/><text fill="#000000" font-family="sans-serif" font-size="14" font-weight="bold" lengthAdjust="spacingAndGlyphs" textLength="295" x="308" y="262.9951">app.splash.contract.SplashContract</text><!--MD5=[6834d4c3e4960f6dbfe701b70c07ed62]
cluster core.viper.ViperContract--><polygon fill="#DDDDDD" filter="url(#fr2xbaf25l0u7)" points="1012,256,1217,256,1224,278.2969,1227,278.2969,1227,983,1012,983,1012,256" style="stroke: #000000; stroke-width: 1.5;"/><line style="stroke: #000000; stroke-width: 1.5;" x1="1012" x2="1224" y1="278.2969" y2="278.2969"/><text fill="#000000" font-family="sans-serif" font-size="14" font-weight="bold" lengthAdjust="spacingAndGlyphs" textLength="199" x="1016" y="270.9951">core.viper.ViperContract</text><!--MD5=[039b86f07d81291e45b9afd15ac1cc2e]
class app.splash.SplashActivity--><rect fill="#FEFECE" filter="url(#fr2xbaf25l0u7)" height="48" id="app.splash.SplashActivity" style="stroke: #A80036; stroke-width: 1.5;" width="115" x="98.5" y="297.5"/><ellipse cx="113.5" cy="313.5" fill="#ADD1B2" rx="11" ry="11" style="stroke: #A80036; stroke-width: 1.0;"/><path d="M115.8438,309.1719 C114.9063,308.7344 114.3125,308.5938 113.4375,308.5938 C110.8125,308.5938 108.8125,310.6719 108.8125,313.3906 L108.8125,314.5156 C108.8125,317.0938 110.9219,318.9844 113.8125,318.9844 C115.0313,318.9844 116.1875,318.6875 116.9375,318.1406 C117.5156,317.7344 117.8438,317.2813 117.8438,316.8906 C117.8438,316.4375 117.4531,316.0469 116.9844,316.0469 C116.7656,316.0469 116.5625,316.125 116.375,316.3125 C115.9219,316.7969 115.9219,316.7969 115.7344,316.8906 C115.3125,317.1563 114.625,317.2813 113.8594,317.2813 C111.8125,317.2813 110.5156,316.1875 110.5156,314.4844 L110.5156,313.3906 C110.5156,311.6094 111.7656,310.2969 113.5,310.2969 C114.0781,310.2969 114.6875,310.4531 115.1563,310.7031 C115.6406,310.9844 115.8125,311.2031 115.9063,311.6094 C115.9688,312.0156 116,312.1406 116.1406,312.2656 C116.2813,312.4063 116.5156,312.5156 116.7344,312.5156 C117,312.5156 117.2656,312.375 117.4375,312.1563 C117.5469,312 117.5781,311.8125 117.5781,311.3906 L117.5781,309.9688 C117.5781,309.5313 117.5625,309.4063 117.4688,309.25 C117.3125,308.9844 117.0313,308.8438 116.7344,308.8438 C116.4375,308.8438 116.2344,308.9375 116.0156,309.25 L115.8438,309.1719 Z "/><text fill="#000000" font-family="sans-serif" font-size="12" lengthAdjust="spacingAndGlyphs" textLength="83" x="127.5" y="317.6543">SplashActivity</text><line style="stroke: #A80036; stroke-width: 1.5;" x1="99.5" x2="212.5" y1="329.5" y2="329.5"/><line style="stroke: #A80036; stroke-width: 1.5;" x1="99.5" x2="212.5" y1="337.5" y2="337.5"/><!--MD5=[437fc10d34a4f2a6bf8ab538f885004c]
class app.splash.SplashPresenter--><rect fill="#FEFECE" filter="url(#fr2xbaf25l0u7)" height="48" id="app.splash.SplashPresenter" style="stroke: #A80036; stroke-width: 1.5;" width="130" x="97" y="448"/><ellipse cx="112" cy="464" fill="#ADD1B2" rx="11" ry="11" style="stroke: #A80036; stroke-width: 1.0;"/><path d="M114.3438,459.6719 C113.4063,459.2344 112.8125,459.0938 111.9375,459.0938 C109.3125,459.0938 107.3125,461.1719 107.3125,463.8906 L107.3125,465.0156 C107.3125,467.5938 109.4219,469.4844 112.3125,469.4844 C113.5313,469.4844 114.6875,469.1875 115.4375,468.6406 C116.0156,468.2344 116.3438,467.7813 116.3438,467.3906 C116.3438,466.9375 115.9531,466.5469 115.4844,466.5469 C115.2656,466.5469 115.0625,466.625 114.875,466.8125 C114.4219,467.2969 114.4219,467.2969 114.2344,467.3906 C113.8125,467.6563 113.125,467.7813 112.3594,467.7813 C110.3125,467.7813 109.0156,466.6875 109.0156,464.9844 L109.0156,463.8906 C109.0156,462.1094 110.2656,460.7969 112,460.7969 C112.5781,460.7969 113.1875,460.9531 113.6563,461.2031 C114.1406,461.4844 114.3125,461.7031 114.4063,462.1094 C114.4688,462.5156 114.5,462.6406 114.6406,462.7656 C114.7813,462.9063 115.0156,463.0156 115.2344,463.0156 C115.5,463.0156 115.7656,462.875 115.9375,462.6563 C116.0469,462.5 116.0781,462.3125 116.0781,461.8906 L116.0781,460.4688 C116.0781,460.0313 116.0625,459.9063 115.9688,459.75 C115.8125,459.4844 115.5313,459.3438 115.2344,459.3438 C114.9375,459.3438 114.7344,459.4375 114.5156,459.75 L114.3438,459.6719 Z "/><text fill="#000000" font-family="sans-serif" font-size="12" lengthAdjust="spacingAndGlyphs" textLength="98" x="126" y="468.1543">SplashPresenter</text><line style="stroke: #A80036; stroke-width: 1.5;" x1="98" x2="226" y1="480" y2="480"/><line style="stroke: #A80036; stroke-width: 1.5;" x1="98" x2="226" y1="488" y2="488"/><!--MD5=[46444ac2f8e682ff904afb8e89ce9f78]
class app.splash.SplashInteractor--><rect fill="#FEFECE" filter="url(#fr2xbaf25l0u7)" height="48" id="app.splash.SplashInteractor" style="stroke: #A80036; stroke-width: 1.5;" width="130" x="102" y="759"/><ellipse cx="117" cy="775" fill="#ADD1B2" rx="11" ry="11" style="stroke: #A80036; stroke-width: 1.0;"/><path d="M119.3438,770.6719 C118.4063,770.2344 117.8125,770.0938 116.9375,770.0938 C114.3125,770.0938 112.3125,772.1719 112.3125,774.8906 L112.3125,776.0156 C112.3125,778.5938 114.4219,780.4844 117.3125,780.4844 C118.5313,780.4844 119.6875,780.1875 120.4375,779.6406 C121.0156,779.2344 121.3438,778.7813 121.3438,778.3906 C121.3438,777.9375 120.9531,777.5469 120.4844,777.5469 C120.2656,777.5469 120.0625,777.625 119.875,777.8125 C119.4219,778.2969 119.4219,778.2969 119.2344,778.3906 C118.8125,778.6563 118.125,778.7813 117.3594,778.7813 C115.3125,778.7813 114.0156,777.6875 114.0156,775.9844 L114.0156,774.8906 C114.0156,773.1094 115.2656,771.7969 117,771.7969 C117.5781,771.7969 118.1875,771.9531 118.6563,772.2031 C119.1406,772.4844 119.3125,772.7031 119.4063,773.1094 C119.4688,773.5156 119.5,773.6406 119.6406,773.7656 C119.7813,773.9063 120.0156,774.0156 120.2344,774.0156 C120.5,774.0156 120.7656,773.875 120.9375,773.6563 C121.0469,773.5 121.0781,773.3125 121.0781,772.8906 L121.0781,771.4688 C121.0781,771.0313 121.0625,770.9063 120.9688,770.75 C120.8125,770.4844 120.5313,770.3438 120.2344,770.3438 C119.9375,770.3438 119.7344,770.4375 119.5156,770.75 L119.3438,770.6719 Z "/><text fill="#000000" font-family="sans-serif" font-size="12" lengthAdjust="spacingAndGlyphs" textLength="98" x="131" y="779.1543">SplashInteractor</text><line style="stroke: #A80036; stroke-width: 1.5;" x1="103" x2="231" y1="791" y2="791"/><line style="stroke: #A80036; stroke-width: 1.5;" x1="103" x2="231" y1="799" y2="799"/><!--MD5=[a75dc8629eebccefb2d92c98e4caf292]
class app.splash.SplashRouter--><rect fill="#FEFECE" filter="url(#fr2xbaf25l0u7)" height="48" id="app.splash.SplashRouter" style="stroke: #A80036; stroke-width: 1.5;" width="111" x="80.5" y="919"/><ellipse cx="95.5" cy="935" fill="#ADD1B2" rx="11" ry="11" style="stroke: #A80036; stroke-width: 1.0;"/><path d="M97.8438,930.6719 C96.9063,930.2344 96.3125,930.0938 95.4375,930.0938 C92.8125,930.0938 90.8125,932.1719 90.8125,934.8906 L90.8125,936.0156 C90.8125,938.5938 92.9219,940.4844 95.8125,940.4844 C97.0313,940.4844 98.1875,940.1875 98.9375,939.6406 C99.5156,939.2344 99.8438,938.7813 99.8438,938.3906 C99.8438,937.9375 99.4531,937.5469 98.9844,937.5469 C98.7656,937.5469 98.5625,937.625 98.375,937.8125 C97.9219,938.2969 97.9219,938.2969 97.7344,938.3906 C97.3125,938.6563 96.625,938.7813 95.8594,938.7813 C93.8125,938.7813 92.5156,937.6875 92.5156,935.9844 L92.5156,934.8906 C92.5156,933.1094 93.7656,931.7969 95.5,931.7969 C96.0781,931.7969 96.6875,931.9531 97.1563,932.2031 C97.6406,932.4844 97.8125,932.7031 97.9063,933.1094 C97.9688,933.5156 98,933.6406 98.1406,933.7656 C98.2813,933.9063 98.5156,934.0156 98.7344,934.0156 C99,934.0156 99.2656,933.875 99.4375,933.6563 C99.5469,933.5 99.5781,933.3125 99.5781,932.8906 L99.5781,931.4688 C99.5781,931.0313 99.5625,930.9063 99.4688,930.75 C99.3125,930.4844 99.0313,930.3438 98.7344,930.3438 C98.4375,930.3438 98.2344,930.4375 98.0156,930.75 L97.8438,930.6719 Z "/><text fill="#000000" font-family="sans-serif" font-size="12" lengthAdjust="spacingAndGlyphs" textLength="79" x="109.5" y="939.1543">SplashRouter</text><line style="stroke: #A80036; stroke-width: 1.5;" x1="81.5" x2="190.5" y1="951" y2="951"/><line style="stroke: #A80036; stroke-width: 1.5;" x1="81.5" x2="190.5" y1="959" y2="959"/><!--MD5=[6be5fb1d5d23ee194bc9aea57941ccd1]
class app.splash.entity.SignInRequest--><rect fill="#FEFECE" filter="url(#fr2xbaf25l0u7)" height="99.2188" id="app.splash.entity.SignInRequest" style="stroke: #A80036; stroke-width: 1.5;" width="143" x="64.5" y="92"/><ellipse cx="91.2" cy="108" fill="#EB937F" rx="11" ry="11" style="stroke: #A80036; stroke-width: 1.0;"/><path d="M89.9969,108.875 L91.45,108.875 L91.45,108.9844 C91.45,109.3906 91.4813,109.5469 91.5594,109.7031 C91.7156,109.9531 91.9969,110.1094 92.2938,110.1094 C92.5438,110.1094 92.8094,109.9688 92.9656,109.75 C93.0906,109.5938 93.1219,109.4375 93.1219,108.9844 L93.1219,107.0625 C93.1219,106.9063 93.1219,106.8594 93.1063,106.7031 C93.0438,106.2344 92.7313,105.9219 92.2781,105.9219 C92.0281,105.9219 91.7625,106.0625 91.5906,106.2813 C91.4813,106.4531 91.45,106.6094 91.45,107.0625 L91.45,107.1875 L89.9969,107.1875 L89.9969,104.7813 L93.9813,104.7813 L93.9813,105.6406 C93.9813,106.0469 94.0125,106.2188 94.0906,106.375 C94.2625,106.625 94.5438,106.7813 94.825,106.7813 C95.0906,106.7813 95.3563,106.6406 95.5281,106.4219 C95.6375,106.25 95.6688,106.1094 95.6688,105.6406 L95.6688,103.0938 L88.0438,103.0938 C87.6063,103.0938 87.4813,103.1094 87.325,103.2031 C87.075,103.3594 86.9188,103.6563 86.9188,103.9375 C86.9188,104.2188 87.0594,104.4688 87.2781,104.6406 C87.4344,104.75 87.6219,104.7813 88.0438,104.7813 L88.2938,104.7813 L88.2938,111.2969 L88.0438,111.2969 C87.6375,111.2969 87.4813,111.3125 87.325,111.4219 C87.075,111.5938 86.9188,111.8594 86.9188,112.1563 C86.9188,112.4219 87.0594,112.6719 87.2781,112.8281 C87.4188,112.9531 87.6531,113 88.0438,113 L96.0438,113 L96.0438,110.4219 C96.0438,109.9844 96.0125,109.8438 95.9344,109.6875 C95.7625,109.4375 95.4813,109.2813 95.2,109.2813 C94.9344,109.2813 94.6688,109.3906 94.4969,109.6406 C94.3875,109.7969 94.3563,109.9375 94.3563,110.4219 L94.3563,111.2969 L89.9969,111.2969 L89.9969,108.875 Z "/><text fill="#000000" font-family="sans-serif" font-size="12" lengthAdjust="spacingAndGlyphs" textLength="85" x="107.8" y="112.1543">SignInRequest</text><line style="stroke: #A80036; stroke-width: 1.5;" x1="65.5" x2="206.5" y1="124" y2="124"/><text fill="#000000" font-family="sans-serif" font-size="11" lengthAdjust="spacingAndGlyphs" textLength="131" x="70.5" y="138.2104">RUNTIME_PERMISSIONS</text><text fill="#000000" font-family="sans-serif" font-size="11" lengthAdjust="spacingAndGlyphs" textLength="100" x="70.5" y="151.0151">GOOGLE_SIGN_IN</text><text fill="#000000" font-family="sans-serif" font-size="11" lengthAdjust="spacingAndGlyphs" textLength="113" x="70.5" y="163.8198">UPDATE_USER_INFO</text><text fill="#000000" font-family="sans-serif" font-size="11" lengthAdjust="spacingAndGlyphs" textLength="68" x="70.5" y="176.6245">COMPLETED</text><line style="stroke: #A80036; stroke-width: 1.5;" x1="65.5" x2="206.5" y1="183.2188" y2="183.2188"/><!--MD5=[f1030a3ad301bef10eebe25566e96449]
class app.splash.contract.SplashContract.Presenter--><rect fill="#FEFECE" filter="url(#fr2xbaf25l0u7)" height="86.4141" id="app.splash.contract.SplashContract.Presenter" style="stroke: #A80036; stroke-width: 1.5;" width="620" x="336" y="429"/><ellipse cx="613.25" cy="445" fill="#B4A7E5" rx="11" ry="11" style="stroke: #A80036; stroke-width: 1.0;"/><path d="M614.2031,441.7813 L615.9219,441.7813 C616.3125,441.7813 616.5,441.75 616.625,441.6719 C616.8906,441.5156 617.0313,441.2344 617.0313,440.9375 C617.0313,440.6719 616.9219,440.4063 616.6875,440.2344 C616.5156,440.125 616.375,440.0938 615.9219,440.0938 L610.7813,440.0938 C610.3438,440.0938 610.2188,440.1094 610.0625,440.2031 C609.8125,440.3594 609.6563,440.6563 609.6563,440.9375 C609.6563,441.2188 609.7969,441.4688 610.0156,441.6406 C610.1719,441.75 610.3594,441.7813 610.7813,441.7813 L612.5,441.7813 L612.5,448.2969 L610.7813,448.2969 C610.3438,448.2969 610.2188,448.3125 610.0625,448.4219 C609.8125,448.5781 609.6563,448.8594 609.6563,449.1563 C609.6563,449.4063 609.7969,449.6719 610.0156,449.8281 C610.1719,449.9531 610.375,450 610.7813,450 L615.9219,450 C616.6719,450 617.0313,449.7188 617.0313,449.1563 C617.0313,448.875 616.9219,448.625 616.6875,448.4531 C616.5156,448.3281 616.375,448.2969 615.9219,448.2969 L614.2031,448.2969 L614.2031,441.7813 Z "/><text fill="#000000" font-family="sans-serif" font-size="12" font-style="italic" lengthAdjust="spacingAndGlyphs" textLength="57" x="633.75" y="449.1543">Presenter</text><line style="stroke: #A80036; stroke-width: 1.5;" x1="337" x2="955" y1="461" y2="461"/><line style="stroke: #A80036; stroke-width: 1.5;" x1="337" x2="955" y1="469" y2="469"/><ellipse cx="347" cy="480" fill="#84BE84" rx="3" ry="3" style="stroke: #038048; stroke-width: 1.0;"/><text fill="#000000" font-family="sans-serif" font-size="11" lengthAdjust="spacingAndGlyphs" textLength="87" x="356" y="483.2104">requestSignIn()</text><ellipse cx="347" cy="492.8047" fill="#84BE84" rx="3" ry="3" style="stroke: #038048; stroke-width: 1.0;"/><text fill="#000000" font-family="sans-serif" font-size="11" lengthAdjust="spacingAndGlyphs" textLength="399" x="356" y="496.0151">evaluateActivityResult(requestCode: Int, resultCode: Int, data: Intent?)</text><ellipse cx="347" cy="505.6094" fill="#84BE84" rx="3" ry="3" style="stroke: #038048; stroke-width: 1.0;"/><text fill="#000000" font-family="sans-serif" font-size="11" lengthAdjust="spacingAndGlyphs" textLength="594" x="356" y="508.8198">evaluateRequestPermissionsResult(requestCode: Int, permissions: Array&lt;String&gt;, grantResults: IntArray)</text><!--MD5=[55d1f437f05628c5e786be7f055fc3c8]
class app.splash.contract.SplashContract.Interactor--><rect fill="#FEFECE" filter="url(#fr2xbaf25l0u7)" height="112.0234" id="app.splash.contract.SplashContract.Interactor" style="stroke: #A80036; stroke-width: 1.5;" width="413" x="431.5" y="727"/><ellipse cx="603.75" cy="743" fill="#B4A7E5" rx="11" ry="11" style="stroke: #A80036; stroke-width: 1.0;"/><path d="M604.7031,739.7813 L606.4219,739.7813 C606.8125,739.7813 607,739.75 607.125,739.6719 C607.3906,739.5156 607.5313,739.2344 607.5313,738.9375 C607.5313,738.6719 607.4219,738.4063 607.1875,738.2344 C607.0156,738.125 606.875,738.0938 606.4219,738.0938 L601.2813,738.0938 C600.8438,738.0938 600.7188,738.1094 600.5625,738.2031 C600.3125,738.3594 600.1563,738.6563 600.1563,738.9375 C600.1563,739.2188 600.2969,739.4688 600.5156,739.6406 C600.6719,739.75 600.8594,739.7813 601.2813,739.7813 L603,739.7813 L603,746.2969 L601.2813,746.2969 C600.8438,746.2969 600.7188,746.3125 600.5625,746.4219 C600.3125,746.5781 600.1563,746.8594 600.1563,747.1563 C600.1563,747.4063 600.2969,747.6719 600.5156,747.8281 C600.6719,747.9531 600.875,748 601.2813,748 L606.4219,748 C607.1719,748 607.5313,747.7188 607.5313,747.1563 C607.5313,746.875 607.4219,746.625 607.1875,746.4531 C607.0156,746.3281 606.875,746.2969 606.4219,746.2969 L604.7031,746.2969 L604.7031,739.7813 Z "/><text fill="#000000" font-family="sans-serif" font-size="12" font-style="italic" lengthAdjust="spacingAndGlyphs" textLength="60" x="624.25" y="747.1543">Interactor</text><line style="stroke: #A80036; stroke-width: 1.5;" x1="432.5" x2="843.5" y1="759" y2="759"/><line style="stroke: #A80036; stroke-width: 1.5;" x1="432.5" x2="843.5" y1="767" y2="767"/><ellipse cx="442.5" cy="778" fill="#84BE84" rx="3" ry="3" style="stroke: #038048; stroke-width: 1.0;"/><text fill="#000000" font-family="sans-serif" font-size="11" lengthAdjust="spacingAndGlyphs" textLength="161" x="451.5" y="781.2104">requestGoogleSilentSignIn()</text><ellipse cx="442.5" cy="790.8047" fill="#84BE84" rx="3" ry="3" style="stroke: #038048; stroke-width: 1.0;"/><text fill="#000000" font-family="sans-serif" font-size="11" lengthAdjust="spacingAndGlyphs" textLength="140" x="451.5" y="794.0151">requestUpdateUserInfo()</text><ellipse cx="442.5" cy="803.6094" fill="#84BE84" rx="3" ry="3" style="stroke: #038048; stroke-width: 1.0;"/><text fill="#000000" font-family="sans-serif" font-size="11" lengthAdjust="spacingAndGlyphs" textLength="387" x="451.5" y="806.8198">isGrantedRuntimePermissions(permissions: Array&lt;String&gt;): Boolean</text><ellipse cx="442.5" cy="816.4141" fill="#84BE84" rx="3" ry="3" style="stroke: #038048; stroke-width: 1.0;"/><text fill="#000000" font-family="sans-serif" font-size="11" lengthAdjust="spacingAndGlyphs" textLength="108" x="451.5" y="819.6245">isGoogleSignedIn()</text><ellipse cx="442.5" cy="829.2188" fill="#84BE84" rx="3" ry="3" style="stroke: #038048; stroke-width: 1.0;"/><text fill="#000000" font-family="sans-serif" font-size="11" lengthAdjust="spacingAndGlyphs" textLength="309" x="451.5" y="832.4292">isSucceededGoogleUserSignIn(data: Intent?): Boolean</text><!--MD5=[c4d7be2f8fc2ddbc79709a65a0a31b45]
class app.splash.contract.SplashContract.Router--><rect fill="#FEFECE" filter="url(#fr2xbaf25l0u7)" height="86.4141" id="app.splash.contract.SplashContract.Router" style="stroke: #A80036; stroke-width: 1.5;" width="597" x="339.5" y="900"/><ellipse cx="613.75" cy="916" fill="#B4A7E5" rx="11" ry="11" style="stroke: #A80036; stroke-width: 1.0;"/><path d="M614.7031,912.7813 L616.4219,912.7813 C616.8125,912.7813 617,912.75 617.125,912.6719 C617.3906,912.5156 617.5313,912.2344 617.5313,911.9375 C617.5313,911.6719 617.4219,911.4063 617.1875,911.2344 C617.0156,911.125 616.875,911.0938 616.4219,911.0938 L611.2813,911.0938 C610.8438,911.0938 610.7188,911.1094 610.5625,911.2031 C610.3125,911.3594 610.1563,911.6563 610.1563,911.9375 C610.1563,912.2188 610.2969,912.4688 610.5156,912.6406 C610.6719,912.75 610.8594,912.7813 611.2813,912.7813 L613,912.7813 L613,919.2969 L611.2813,919.2969 C610.8438,919.2969 610.7188,919.3125 610.5625,919.4219 C610.3125,919.5781 610.1563,919.8594 610.1563,920.1563 C610.1563,920.4063 610.2969,920.6719 610.5156,920.8281 C610.6719,920.9531 610.875,921 611.2813,921 L616.4219,921 C617.1719,921 617.5313,920.7188 617.5313,920.1563 C617.5313,919.875 617.4219,919.625 617.1875,919.4531 C617.0156,919.3281 616.875,919.2969 616.4219,919.2969 L614.7031,919.2969 L614.7031,912.7813 Z "/><text fill="#000000" font-family="sans-serif" font-size="12" font-style="italic" lengthAdjust="spacingAndGlyphs" textLength="40" x="634.25" y="920.1543">Router</text><line style="stroke: #A80036; stroke-width: 1.5;" x1="340.5" x2="935.5" y1="932" y2="932"/><line style="stroke: #A80036; stroke-width: 1.5;" x1="340.5" x2="935.5" y1="940" y2="940"/><ellipse cx="350.5" cy="951" fill="#84BE84" rx="3" ry="3" style="stroke: #038048; stroke-width: 1.0;"/><text fill="#000000" font-family="sans-serif" font-size="11" lengthAdjust="spacingAndGlyphs" textLength="502" x="359.5" y="954.2104">startRuntimePermissions(activity: Activity, permissions: Array&lt;String&gt;, requestCode: Int)</text><ellipse cx="350.5" cy="963.8047" fill="#84BE84" rx="3" ry="3" style="stroke: #038048; stroke-width: 1.0;"/><text fill="#000000" font-family="sans-serif" font-size="11" lengthAdjust="spacingAndGlyphs" textLength="571" x="359.5" y="967.0151">startGoogleSignInActivity(activity: Activity, clientHolder: GoogleSignInClientHolder, requestCode: Int)</text><ellipse cx="350.5" cy="976.6094" fill="#84BE84" rx="3" ry="3" style="stroke: #038048; stroke-width: 1.0;"/><text fill="#000000" font-family="sans-serif" font-size="11" lengthAdjust="spacingAndGlyphs" textLength="191" x="359.5" y="979.8198">startMainActivity(activity: Activity)</text><!--MD5=[3c473f5619a54f75a0edff63b827d9bf]
class app.splash.contract.SplashContract.PresenterCallback--><rect fill="#FEFECE" filter="url(#fr2xbaf25l0u7)" height="60.8047" id="app.splash.contract.SplashContract.PresenterCallback" style="stroke: #A80036; stroke-width: 1.5;" width="281" x="386.5" y="291"/><ellipse cx="469.25" cy="307" fill="#B4A7E5" rx="11" ry="11" style="stroke: #A80036; stroke-width: 1.0;"/><path d="M470.2031,303.7813 L471.9219,303.7813 C472.3125,303.7813 472.5,303.75 472.625,303.6719 C472.8906,303.5156 473.0313,303.2344 473.0313,302.9375 C473.0313,302.6719 472.9219,302.4063 472.6875,302.2344 C472.5156,302.125 472.375,302.0938 471.9219,302.0938 L466.7813,302.0938 C466.3438,302.0938 466.2188,302.1094 466.0625,302.2031 C465.8125,302.3594 465.6563,302.6563 465.6563,302.9375 C465.6563,303.2188 465.7969,303.4688 466.0156,303.6406 C466.1719,303.75 466.3594,303.7813 466.7813,303.7813 L468.5,303.7813 L468.5,310.2969 L466.7813,310.2969 C466.3438,310.2969 466.2188,310.3125 466.0625,310.4219 C465.8125,310.5781 465.6563,310.8594 465.6563,311.1563 C465.6563,311.4063 465.7969,311.6719 466.0156,311.8281 C466.1719,311.9531 466.375,312 466.7813,312 L471.9219,312 C472.6719,312 473.0313,311.7188 473.0313,311.1563 C473.0313,310.875 472.9219,310.625 472.6875,310.4531 C472.5156,310.3281 472.375,310.2969 471.9219,310.2969 L470.2031,310.2969 L470.2031,303.7813 Z "/><text fill="#000000" font-family="sans-serif" font-size="12" font-style="italic" lengthAdjust="spacingAndGlyphs" textLength="107" x="489.75" y="311.1543">PresenterCallback</text><line style="stroke: #A80036; stroke-width: 1.5;" x1="387.5" x2="666.5" y1="323" y2="323"/><line style="stroke: #A80036; stroke-width: 1.5;" x1="387.5" x2="666.5" y1="331" y2="331"/><ellipse cx="397.5" cy="342" fill="#84BE84" rx="3" ry="3" style="stroke: #038048; stroke-width: 1.0;"/><text fill="#000000" font-family="sans-serif" font-size="11" lengthAdjust="spacingAndGlyphs" textLength="255" x="406.5" y="345.2104">requestSignInResult(request: SignInRequest)</text><!--MD5=[bd8f5a99360b29d1d7282380101cd4bb]
class app.splash.contract.SplashContract.InteractorCallback--><rect fill="#FEFECE" filter="url(#fr2xbaf25l0u7)" height="73.6094" id="app.splash.contract.SplashContract.InteractorCallback" style="stroke: #A80036; stroke-width: 1.5;" width="350" x="463" y="576"/><ellipse cx="578.75" cy="592" fill="#B4A7E5" rx="11" ry="11" style="stroke: #A80036; stroke-width: 1.0;"/><path d="M579.7031,588.7813 L581.4219,588.7813 C581.8125,588.7813 582,588.75 582.125,588.6719 C582.3906,588.5156 582.5313,588.2344 582.5313,587.9375 C582.5313,587.6719 582.4219,587.4063 582.1875,587.2344 C582.0156,587.125 581.875,587.0938 581.4219,587.0938 L576.2813,587.0938 C575.8438,587.0938 575.7188,587.1094 575.5625,587.2031 C575.3125,587.3594 575.1563,587.6563 575.1563,587.9375 C575.1563,588.2188 575.2969,588.4688 575.5156,588.6406 C575.6719,588.75 575.8594,588.7813 576.2813,588.7813 L578,588.7813 L578,595.2969 L576.2813,595.2969 C575.8438,595.2969 575.7188,595.3125 575.5625,595.4219 C575.3125,595.5781 575.1563,595.8594 575.1563,596.1563 C575.1563,596.4063 575.2969,596.6719 575.5156,596.8281 C575.6719,596.9531 575.875,597 576.2813,597 L581.4219,597 C582.1719,597 582.5313,596.7188 582.5313,596.1563 C582.5313,595.875 582.4219,595.625 582.1875,595.4531 C582.0156,595.3281 581.875,595.2969 581.4219,595.2969 L579.7031,595.2969 L579.7031,588.7813 Z "/><text fill="#000000" font-family="sans-serif" font-size="12" font-style="italic" lengthAdjust="spacingAndGlyphs" textLength="110" x="599.25" y="596.1543">InteractorCallback</text><line style="stroke: #A80036; stroke-width: 1.5;" x1="464" x2="812" y1="608" y2="608"/><line style="stroke: #A80036; stroke-width: 1.5;" x1="464" x2="812" y1="616" y2="616"/><ellipse cx="474" cy="627" fill="#84BE84" rx="3" ry="3" style="stroke: #038048; stroke-width: 1.0;"/><text fill="#000000" font-family="sans-serif" font-size="11" lengthAdjust="spacingAndGlyphs" textLength="324" x="483" y="630.2104">requestGoogleSilentSignInResult(isSucceeded: Boolean)</text><ellipse cx="474" cy="639.8047" fill="#84BE84" rx="3" ry="3" style="stroke: #038048; stroke-width: 1.0;"/><text fill="#000000" font-family="sans-serif" font-size="11" lengthAdjust="spacingAndGlyphs" textLength="303" x="483" y="643.0151">requestUpdateUserInfoResult(isSucceeded: Boolean)</text><!--MD5=[a73abe5de16d4ae8f7cebc11a3c6e1fe]
class core.viper.ViperContract.Presenter--><rect fill="#FEFECE" filter="url(#fr2xbaf25l0u7)" height="60.8047" id="core.viper.ViperContract.Presenter" style="stroke: #A80036; stroke-width: 1.5;" width="89" x="1054.5" y="441.5"/><ellipse cx="1069.5" cy="457.5" fill="#B4A7E5" rx="11" ry="11" style="stroke: #A80036; stroke-width: 1.0;"/><path d="M1070.4531,454.2813 L1072.1719,454.2813 C1072.5625,454.2813 1072.75,454.25 1072.875,454.1719 C1073.1406,454.0156 1073.2813,453.7344 1073.2813,453.4375 C1073.2813,453.1719 1073.1719,452.9063 1072.9375,452.7344 C1072.7656,452.625 1072.625,452.5938 1072.1719,452.5938 L1067.0313,452.5938 C1066.5938,452.5938 1066.4688,452.6094 1066.3125,452.7031 C1066.0625,452.8594 1065.9063,453.1563 1065.9063,453.4375 C1065.9063,453.7188 1066.0469,453.9688 1066.2656,454.1406 C1066.4219,454.25 1066.6094,454.2813 1067.0313,454.2813 L1068.75,454.2813 L1068.75,460.7969 L1067.0313,460.7969 C1066.5938,460.7969 1066.4688,460.8125 1066.3125,460.9219 C1066.0625,461.0781 1065.9063,461.3594 1065.9063,461.6563 C1065.9063,461.9063 1066.0469,462.1719 1066.2656,462.3281 C1066.4219,462.4531 1066.625,462.5 1067.0313,462.5 L1072.1719,462.5 C1072.9219,462.5 1073.2813,462.2188 1073.2813,461.6563 C1073.2813,461.375 1073.1719,461.125 1072.9375,460.9531 C1072.7656,460.8281 1072.625,460.7969 1072.1719,460.7969 L1070.4531,460.7969 L1070.4531,454.2813 Z "/><text fill="#000000" font-family="sans-serif" font-size="12" font-style="italic" lengthAdjust="spacingAndGlyphs" textLength="57" x="1083.5" y="461.6543">Presenter</text><line style="stroke: #A80036; stroke-width: 1.5;" x1="1055.5" x2="1142.5" y1="473.5" y2="473.5"/><line style="stroke: #A80036; stroke-width: 1.5;" x1="1055.5" x2="1142.5" y1="481.5" y2="481.5"/><ellipse cx="1065.5" cy="492.5" fill="#84BE84" rx="3" ry="3" style="stroke: #038048; stroke-width: 1.0;"/><text fill="#000000" font-family="sans-serif" font-size="11" lengthAdjust="spacingAndGlyphs" textLength="51" x="1074.5" y="495.7104">destroy()</text><!--MD5=[587da1590874ac044f3f2eaaedd1375f]
class core.viper.ViperContract.PresenterCallback--><rect fill="#FEFECE" filter="url(#fr2xbaf25l0u7)" height="60.8047" id="core.viper.ViperContract.PresenterCallback" style="stroke: #A80036; stroke-width: 1.5;" width="144" x="1028" y="291"/><ellipse cx="1045.25" cy="307" fill="#B4A7E5" rx="11" ry="11" style="stroke: #A80036; stroke-width: 1.0;"/><path d="M1046.2031,303.7813 L1047.9219,303.7813 C1048.3125,303.7813 1048.5,303.75 1048.625,303.6719 C1048.8906,303.5156 1049.0313,303.2344 1049.0313,302.9375 C1049.0313,302.6719 1048.9219,302.4063 1048.6875,302.2344 C1048.5156,302.125 1048.375,302.0938 1047.9219,302.0938 L1042.7813,302.0938 C1042.3438,302.0938 1042.2188,302.1094 1042.0625,302.2031 C1041.8125,302.3594 1041.6563,302.6563 1041.6563,302.9375 C1041.6563,303.2188 1041.7969,303.4688 1042.0156,303.6406 C1042.1719,303.75 1042.3594,303.7813 1042.7813,303.7813 L1044.5,303.7813 L1044.5,310.2969 L1042.7813,310.2969 C1042.3438,310.2969 1042.2188,310.3125 1042.0625,310.4219 C1041.8125,310.5781 1041.6563,310.8594 1041.6563,311.1563 C1041.6563,311.4063 1041.7969,311.6719 1042.0156,311.8281 C1042.1719,311.9531 1042.375,312 1042.7813,312 L1047.9219,312 C1048.6719,312 1049.0313,311.7188 1049.0313,311.1563 C1049.0313,310.875 1048.9219,310.625 1048.6875,310.4531 C1048.5156,310.3281 1048.375,310.2969 1047.9219,310.2969 L1046.2031,310.2969 L1046.2031,303.7813 Z "/><text fill="#000000" font-family="sans-serif" font-size="12" font-style="italic" lengthAdjust="spacingAndGlyphs" textLength="107" x="1059.75" y="311.1543">PresenterCallback</text><line style="stroke: #A80036; stroke-width: 1.5;" x1="1029" x2="1171" y1="323" y2="323"/><line style="stroke: #A80036; stroke-width: 1.5;" x1="1029" x2="1171" y1="331" y2="331"/><ellipse cx="1039" cy="342" fill="#84BE84" rx="3" ry="3" style="stroke: #038048; stroke-width: 1.0;"/><text fill="#000000" font-family="sans-serif" font-size="11" lengthAdjust="spacingAndGlyphs" textLength="118" x="1048" y="345.2104">getActivity(): Activity</text><!--MD5=[ec1a8c1a0905d2094598a56ebb97c9ab]
class core.viper.ViperContract.Interactor--><rect fill="#FEFECE" filter="url(#fr2xbaf25l0u7)" height="60.8047" id="core.viper.ViperContract.Interactor" style="stroke: #A80036; stroke-width: 1.5;" width="92" x="1028" y="752.5"/><ellipse cx="1043" cy="768.5" fill="#B4A7E5" rx="11" ry="11" style="stroke: #A80036; stroke-width: 1.0;"/><path d="M1043.9531,765.2813 L1045.6719,765.2813 C1046.0625,765.2813 1046.25,765.25 1046.375,765.1719 C1046.6406,765.0156 1046.7813,764.7344 1046.7813,764.4375 C1046.7813,764.1719 1046.6719,763.9063 1046.4375,763.7344 C1046.2656,763.625 1046.125,763.5938 1045.6719,763.5938 L1040.5313,763.5938 C1040.0938,763.5938 1039.9688,763.6094 1039.8125,763.7031 C1039.5625,763.8594 1039.4063,764.1563 1039.4063,764.4375 C1039.4063,764.7188 1039.5469,764.9688 1039.7656,765.1406 C1039.9219,765.25 1040.1094,765.2813 1040.5313,765.2813 L1042.25,765.2813 L1042.25,771.7969 L1040.5313,771.7969 C1040.0938,771.7969 1039.9688,771.8125 1039.8125,771.9219 C1039.5625,772.0781 1039.4063,772.3594 1039.4063,772.6563 C1039.4063,772.9063 1039.5469,773.1719 1039.7656,773.3281 C1039.9219,773.4531 1040.125,773.5 1040.5313,773.5 L1045.6719,773.5 C1046.4219,773.5 1046.7813,773.2188 1046.7813,772.6563 C1046.7813,772.375 1046.6719,772.125 1046.4375,771.9531 C1046.2656,771.8281 1046.125,771.7969 1045.6719,771.7969 L1043.9531,771.7969 L1043.9531,765.2813 Z "/><text fill="#000000" font-family="sans-serif" font-size="12" font-style="italic" lengthAdjust="spacingAndGlyphs" textLength="60" x="1057" y="772.6543">Interactor</text><line style="stroke: #A80036; stroke-width: 1.5;" x1="1029" x2="1119" y1="784.5" y2="784.5"/><line style="stroke: #A80036; stroke-width: 1.5;" x1="1029" x2="1119" y1="792.5" y2="792.5"/><ellipse cx="1039" cy="803.5" fill="#84BE84" rx="3" ry="3" style="stroke: #038048; stroke-width: 1.0;"/><text fill="#000000" font-family="sans-serif" font-size="11" lengthAdjust="spacingAndGlyphs" textLength="51" x="1048" y="806.7104">destroy()</text><!--MD5=[e77a630e059dc31e4db28b962d60c6d2]
class core.viper.ViperContract.InteractorCallback--><rect fill="#FEFECE" filter="url(#fr2xbaf25l0u7)" height="48" id="core.viper.ViperContract.InteractorCallback" style="stroke: #A80036; stroke-width: 1.5;" width="142" x="1028" y="589"/><ellipse cx="1043" cy="605" fill="#B4A7E5" rx="11" ry="11" style="stroke: #A80036; stroke-width: 1.0;"/><path d="M1043.9531,601.7813 L1045.6719,601.7813 C1046.0625,601.7813 1046.25,601.75 1046.375,601.6719 C1046.6406,601.5156 1046.7813,601.2344 1046.7813,600.9375 C1046.7813,600.6719 1046.6719,600.4063 1046.4375,600.2344 C1046.2656,600.125 1046.125,600.0938 1045.6719,600.0938 L1040.5313,600.0938 C1040.0938,600.0938 1039.9688,600.1094 1039.8125,600.2031 C1039.5625,600.3594 1039.4063,600.6563 1039.4063,600.9375 C1039.4063,601.2188 1039.5469,601.4688 1039.7656,601.6406 C1039.9219,601.75 1040.1094,601.7813 1040.5313,601.7813 L1042.25,601.7813 L1042.25,608.2969 L1040.5313,608.2969 C1040.0938,608.2969 1039.9688,608.3125 1039.8125,608.4219 C1039.5625,608.5781 1039.4063,608.8594 1039.4063,609.1563 C1039.4063,609.4063 1039.5469,609.6719 1039.7656,609.8281 C1039.9219,609.9531 1040.125,610 1040.5313,610 L1045.6719,610 C1046.4219,610 1046.7813,609.7188 1046.7813,609.1563 C1046.7813,608.875 1046.6719,608.625 1046.4375,608.4531 C1046.2656,608.3281 1046.125,608.2969 1045.6719,608.2969 L1043.9531,608.2969 L1043.9531,601.7813 Z "/><text fill="#000000" font-family="sans-serif" font-size="12" font-style="italic" lengthAdjust="spacingAndGlyphs" textLength="110" x="1057" y="609.1543">InteractorCallback</text><line style="stroke: #A80036; stroke-width: 1.5;" x1="1029" x2="1169" y1="621" y2="621"/><line style="stroke: #A80036; stroke-width: 1.5;" x1="1029" x2="1169" y1="629" y2="629"/><!--MD5=[1825269ddad9ed22789ebb49bf96ca62]
class core.viper.ViperContract.Router--><rect fill="#FEFECE" filter="url(#fr2xbaf25l0u7)" height="48" id="core.viper.ViperContract.Router" style="stroke: #A80036; stroke-width: 1.5;" width="72" x="1030" y="919"/><ellipse cx="1045" cy="935" fill="#B4A7E5" rx="11" ry="11" style="stroke: #A80036; stroke-width: 1.0;"/><path d="M1045.9531,931.7813 L1047.6719,931.7813 C1048.0625,931.7813 1048.25,931.75 1048.375,931.6719 C1048.6406,931.5156 1048.7813,931.2344 1048.7813,930.9375 C1048.7813,930.6719 1048.6719,930.4063 1048.4375,930.2344 C1048.2656,930.125 1048.125,930.0938 1047.6719,930.0938 L1042.5313,930.0938 C1042.0938,930.0938 1041.9688,930.1094 1041.8125,930.2031 C1041.5625,930.3594 1041.4063,930.6563 1041.4063,930.9375 C1041.4063,931.2188 1041.5469,931.4688 1041.7656,931.6406 C1041.9219,931.75 1042.1094,931.7813 1042.5313,931.7813 L1044.25,931.7813 L1044.25,938.2969 L1042.5313,938.2969 C1042.0938,938.2969 1041.9688,938.3125 1041.8125,938.4219 C1041.5625,938.5781 1041.4063,938.8594 1041.4063,939.1563 C1041.4063,939.4063 1041.5469,939.6719 1041.7656,939.8281 C1041.9219,939.9531 1042.125,940 1042.5313,940 L1047.6719,940 C1048.4219,940 1048.7813,939.7188 1048.7813,939.1563 C1048.7813,938.875 1048.6719,938.625 1048.4375,938.4531 C1048.2656,938.3281 1048.125,938.2969 1047.6719,938.2969 L1045.9531,938.2969 L1045.9531,931.7813 Z "/><text fill="#000000" font-family="sans-serif" font-size="12" font-style="italic" lengthAdjust="spacingAndGlyphs" textLength="40" x="1059" y="939.1543">Router</text><line style="stroke: #A80036; stroke-width: 1.5;" x1="1031" x2="1101" y1="951" y2="951"/><line style="stroke: #A80036; stroke-width: 1.5;" x1="1031" x2="1101" y1="959" y2="959"/><!--MD5=[d1b14fe910d579f1dd339fb4a231de99]
reverse link app.splash.SplashActivity to app.splash.SplashPresenter--><path d="M157.469,358.855 C158.592,386.661 160.107,424.156 161.069,447.96 " fill="none" id="app.splash.SplashActivity&lt;-app.splash.SplashPresenter" style="stroke: #A80036; stroke-width: 1.0;"/><polygon fill="#FFFFFF" points="156.938,345.703,153.1832,351.8594,157.4219,357.6932,161.1767,351.5368,156.938,345.703" style="stroke: #A80036; stroke-width: 1.0;"/><rect fill="none" height="6" style="stroke: #C82930; stroke-width: 1.0;" width="6" x="162" y="388.0664"/><text fill="#000000" font-family="sans-serif" font-size="13" lengthAdjust="spacingAndGlyphs" textLength="62" x="172" y="395.0669">presenter</text><!--MD5=[f91676235e457bf53bba641bc0a61a35]
reverse link app.splash.SplashPresenter to app.splash.SplashInteractor--><path d="M162.592,509.615 C163.634,574.001 165.765,705.707 166.627,758.927 " fill="none" id="app.splash.SplashPresenter&lt;-app.splash.SplashInteractor" style="stroke: #A80036; stroke-width: 1.0;"/><polygon fill="#FFFFFF" points="162.376,496.225,158.4734,502.2888,162.5698,508.2234,166.4724,502.1596,162.376,496.225" style="stroke: #A80036; stroke-width: 1.0;"/><rect fill="none" height="6" style="stroke: #C82930; stroke-width: 1.0;" width="6" x="168" y="610.5664"/><text fill="#000000" font-family="sans-serif" font-size="13" lengthAdjust="spacingAndGlyphs" textLength="62" x="178" y="617.5669">interactor</text><!--MD5=[f6d4c8b2b3fb2120ac8d0b5658ad082d]
reverse link app.splash.SplashPresenter to app.splash.SplashRouter--><path d="M144.031,508.201 C112.973,573.585 55.2183,718.127 84,839 C90.9601,868.23 107.617,898.568 120.217,918.681 " fill="none" id="app.splash.SplashPresenter&lt;-app.splash.SplashRouter" style="stroke: #A80036; stroke-width: 1.0;"/><polygon fill="#FFFFFF" points="149.853,496.209,143.6343,499.8597,144.6123,507.0042,150.8311,503.3535,149.853,496.209" style="stroke: #A80036; stroke-width: 1.0;"/><rect fill="none" height="6" style="stroke: #C82930; stroke-width: 1.0;" width="6" x="89" y="686.0664"/><text fill="#000000" font-family="sans-serif" font-size="13" lengthAdjust="spacingAndGlyphs" textLength="39" x="99" y="693.0669">router</text><!--MD5=[4a3fa21c44f6d76d85a5cbf9aed1c6f4]
link app.splash.SplashPresenter to app.splash.contract.SplashContract.Presenter--><path d="M227.227,472 C256.578,472 285.929,472 315.28,472 " fill="none" id="app.splash.SplashPresenter-&gt;app.splash.contract.SplashContract.Presenter" style="stroke: #A80036; stroke-width: 1.0; stroke-dasharray: 7.0,7.0;"/><polygon fill="none" points="315.601,465,335.601,472,315.601,479,315.601,465" style="stroke: #A80036; stroke-width: 1.0;"/><!--MD5=[89c9c81a6a5449b73b0f6e47e1c1018e]
link app.splash.contract.SplashContract.Presenter to app.splash.SplashPresenter--><!--MD5=[88f2c8acc0354bac6f3d02bb07be8272]
link app.splash.SplashInteractor to app.splash.contract.SplashContract.Interactor--><path d="M232.314,783 C291.875,783 351.436,783 410.997,783 " fill="none" id="app.splash.SplashInteractor-&gt;app.splash.contract.SplashContract.Interactor" style="stroke: #A80036; stroke-width: 1.0; stroke-dasharray: 7.0,7.0;"/><polygon fill="none" points="411.195,776,431.195,783,411.195,790,411.195,776" style="stroke: #A80036; stroke-width: 1.0;"/><!--MD5=[23aba68c0758d8751b4b52e71a0879da]
link app.splash.contract.SplashContract.Interactor to app.splash.SplashInteractor--><!--MD5=[f3b453277492f0dfdc03350d28f6acee]
link app.splash.SplashRouter to app.splash.contract.SplashContract.Router--><path d="M191.887,943 C234.26,943 276.633,943 319.007,943 " fill="none" id="app.splash.SplashRouter-&gt;app.splash.contract.SplashContract.Router" style="stroke: #A80036; stroke-width: 1.0; stroke-dasharray: 7.0,7.0;"/><polygon fill="none" points="319.139,935.9999,339.139,943,319.139,949.9999,319.139,935.9999" style="stroke: #A80036; stroke-width: 1.0;"/><!--MD5=[e26c28e3b4e72dbec67da16904f3d5ba]
link app.splash.contract.SplashContract.Router to app.splash.SplashRouter--><!--MD5=[63e12b800cfdf6b28eaf388d7f2a2de3]
link app.splash.SplashActivity to app.splash.contract.SplashContract.PresenterCallback--><path d="M182.192,297.442 C211.561,272.454 261.871,235.375 313.5,223.5 C373.194,209.77 436.329,245.879 478.322,278.075 " fill="none" id="app.splash.SplashActivity-&gt;app.splash.contract.SplashContract.PresenterCallback" style="stroke: #A80036; stroke-width: 1.0; stroke-dasharray: 7.0,7.0;"/><polygon fill="none" points="482.938,272.805,494.14,290.791,474.167,283.716,482.938,272.805" style="stroke: #A80036; stroke-width: 1.0;"/><!--MD5=[8a9d7373beac840ed398afebcaa45f42]
reverse link app.splash.SplashPresenter to app.splash.contract.SplashContract.PresenterCallback--><path d="M230.915,442.962 C294.78,416.979 389.45,378.462 454.451,352.016 " fill="none" id="app.splash.SplashPresenter&lt;-app.splash.contract.SplashContract.PresenterCallback" style="stroke: #A80036; stroke-width: 1.0;"/><polygon fill="#FFFFFF" points="218.571,447.984,225.6359,449.4285,229.6866,443.4626,222.6217,442.0181,218.571,447.984" style="stroke: #A80036; stroke-width: 1.0;"/><rect fill="none" height="6" style="stroke: #C82930; stroke-width: 1.0;" width="6" x="381" y="388.0664"/><text fill="#000000" font-family="sans-serif" font-size="13" lengthAdjust="spacingAndGlyphs" textLength="51" x="391" y="395.0669">callback</text><!--MD5=[28576bd7b8dcbd86209090d56d5c73fa]
link app.splash.SplashPresenter to app.splash.contract.SplashContract.InteractorCallback--><path d="M227.188,492.036 C295.861,512.09 406.181,544.305 495.215,570.304 " fill="none" id="app.splash.SplashPresenter-&gt;app.splash.contract.SplashContract.InteractorCallback" style="stroke: #A80036; stroke-width: 1.0; stroke-dasharray: 7.0,7.0;"/><polygon fill="none" points="497.208,563.594,514.444,575.92,493.284,577.033,497.208,563.594" style="stroke: #A80036; stroke-width: 1.0;"/><!--MD5=[752984750464c7ee6ba6018813c5518f]
reverse link app.splash.SplashInteractor to app.splash.contract.SplashContract.InteractorCallback--><path d="M243.504,754.436 C267.94,745.649 295.102,735.899 320,727 C392.276,701.168 473.852,672.184 536.284,650.037 " fill="none" id="app.splash.SplashInteractor&lt;-app.splash.contract.SplashContract.InteractorCallback" style="stroke: #A80036; stroke-width: 1.0;"/><polygon fill="#FFFFFF" points="231.001,758.934,238.0009,760.6664,242.2924,754.8713,235.2925,753.1389,231.001,758.934" style="stroke: #A80036; stroke-width: 1.0;"/><rect fill="none" height="6" style="stroke: #C82930; stroke-width: 1.0;" width="6" x="454" y="686.0664"/><text fill="#000000" font-family="sans-serif" font-size="13" lengthAdjust="spacingAndGlyphs" textLength="51" x="464" y="693.0669">callback</text><!--MD5=[822488e2f5e5d7044a8c33b25b1ca95a]
link app.splash.entity.SignInRequest to app.splash.SplashActivity--><!--MD5=[60fbdfd0700c1e091e04aab4c680ae02]
link app.splash.contract.SplashContract.PresenterCallback to app.splash.contract.SplashContract.Presenter--><!--MD5=[b3bf049ce59d2595879a1fd8288beef5]
link app.splash.contract.SplashContract.Presenter to app.splash.contract.SplashContract.InteractorCallback--><!--MD5=[00b6d89bc9c196133b7cb6c7661407e9]
link app.splash.contract.SplashContract.InteractorCallback to app.splash.contract.SplashContract.Interactor--><!--MD5=[77b25775f01acfdb62435ac9d3d43dd8]
link app.splash.contract.SplashContract.Interactor to app.splash.contract.SplashContract.Router--><!--MD5=[2e06be8c3c75336d7d11f1a2914bd201]
link app.splash.contract.SplashContract.Presenter to core.viper.ViperContract.Presenter--><path d="M956.11,472 C982.077,472 1008.04,472 1034.01,472 " fill="none" id="app.splash.contract.SplashContract.Presenter-&gt;core.viper.ViperContract.Presenter" style="stroke: #A80036; stroke-width: 1.0; stroke-dasharray: 7.0,7.0;"/><polygon fill="none" points="1034.35,465,1054.35,472,1034.35,479,1034.35,465" style="stroke: #A80036; stroke-width: 1.0;"/><!--MD5=[b2995618d5b21c8d3c2860a72f4dc93c]
link app.splash.contract.SplashContract.PresenterCallback to core.viper.ViperContract.PresenterCallback--><path d="M667.732,321.5 C781.078,321.5 894.425,321.5 1007.77,321.5 " fill="none" id="app.splash.contract.SplashContract.PresenterCallback-&gt;core.viper.ViperContract.PresenterCallback" style="stroke: #A80036; stroke-width: 1.0; stroke-dasharray: 7.0,7.0;"/><polygon fill="none" points="1007.81,314.5,1027.81,321.5,1007.81,328.5,1007.81,314.5" style="stroke: #A80036; stroke-width: 1.0;"/><!--MD5=[89165bf8658882d720ff072a5eccd2c7]
link app.splash.contract.SplashContract.Interactor to core.viper.ViperContract.Interactor--><path d="M844.504,783 C898.929,783 953.355,783 1007.78,783 " fill="none" id="app.splash.contract.SplashContract.Interactor-&gt;core.viper.ViperContract.Interactor" style="stroke: #A80036; stroke-width: 1.0; stroke-dasharray: 7.0,7.0;"/><polygon fill="none" points="1007.83,776,1027.83,783,1007.83,790,1007.83,776" style="stroke: #A80036; stroke-width: 1.0;"/><!--MD5=[786f0f25dfa8f76932e88831b62b0fa7]
link app.splash.contract.SplashContract.InteractorCallback to core.viper.ViperContract.InteractorCallback--><path d="M813.126,613 C877.979,613 942.831,613 1007.68,613 " fill="none" id="app.splash.contract.SplashContract.InteractorCallback-&gt;core.viper.ViperContract.InteractorCallback" style="stroke: #A80036; stroke-width: 1.0; stroke-dasharray: 7.0,7.0;"/><polygon fill="none" points="1007.81,606,1027.81,613,1007.81,620,1007.81,606" style="stroke: #A80036; stroke-width: 1.0;"/><!--MD5=[9cb584ed7fa3fabf5331b65e42323807]
link app.splash.contract.SplashContract.Router to core.viper.ViperContract.Router--><path d="M936.848,943 C961.087,943 985.327,943 1009.57,943 " fill="none" id="app.splash.contract.SplashContract.Router-&gt;core.viper.ViperContract.Router" style="stroke: #A80036; stroke-width: 1.0; stroke-dasharray: 7.0,7.0;"/><polygon fill="none" points="1009.93,935.9999,1029.93,943,1009.93,949.9999,1009.93,935.9999" style="stroke: #A80036; stroke-width: 1.0;"/><!--MD5=[627c911084275ce60a3872a5173c4f97]
reverse link app.splash to app.splash.contract.SplashContract--><path d="M264.0644,168.1325 C264.1415,168.3775 264.219,168.6239 264.2969,168.8716 C264.6086,169.8624 264.9269,170.8741 265.2514,171.9057 C270.4437,188.4099 277.2274,209.9726 284.0104,231.5327 C290.7933,253.0929 297.5755,274.6504 302.7646,291.1445 C303.089,292.1753 303.4071,293.1864 303.7186,294.1765 C303.7964,294.424 303.8739,294.6703 303.9509,294.9151 " fill="none" id="app.splash&lt;-app.splash.contract.SplashContract" style="stroke: #A80036; stroke-width: 1.0;"/><ellipse cx="266.4652" cy="175.7638" fill="#FFFFFF" rx="8" ry="8" style="stroke: #A80036; stroke-width: 1.0;"/><line style="stroke: #A80036; stroke-width: 1.0;" x1="268.866" x2="264.0644" y1="183.395" y2="168.1325"/><line style="stroke: #A80036; stroke-width: 1.0;" x1="258.8339" x2="274.0964" y1="178.1646" y2="173.3629"/><!--MD5=[87f8738a1428cad8e95c20e665af5898]
link core.viper.ViperContract.PresenterCallback to core.viper.ViperContract.Presenter--><!--MD5=[6573e0256b6fb7c6a0505a89fdc8309d]
link core.viper.ViperContract.Presenter to core.viper.ViperContract.InteractorCallback--><!--MD5=[f8d939142a6dbc42db09fcc57fec4775]
link core.viper.ViperContract.InteractorCallback to core.viper.ViperContract.Interactor--><!--MD5=[37f12353853fdc756113b71d7b56ae43]
link core.viper.ViperContract.Interactor to core.viper.ViperContract.Router--><!--MD5=[cc0e54e3720d45ed3c8da267b3409386]
@startuml
namespace app.splash #FFFFEE {
  SplashActivity o- - SplashPresenter: -presenter
  SplashPresenter o- - - SplashInteractor: -interactor
  SplashPresenter o- - - - SplashRouter: -router

  SplashPresenter .|> app.splash.contract.SplashContract.Presenter
  SplashInteractor .|> app.splash.contract.SplashContract.Interactor
  SplashRouter .|> app.splash.contract.SplashContract.Router

  SplashActivity ..|> app.splash.contract.SplashContract.PresenterCallback
  SplashPresenter o- - app.splash.contract.SplashContract.PresenterCallback: -callback
  SplashPresenter ..|> app.splash.contract.SplashContract.InteractorCallback
  SplashInteractor o- - app.splash.contract.SplashContract.InteractorCallback: -callback

  app.splash.contract.SplashContract.Presenter -[hidden]> SplashPresenter
  app.splash.contract.SplashContract.Interactor -[hidden]> SplashInteractor
  app.splash.contract.SplashContract.Router -[hidden]> SplashRouter

  namespace entity {
    enum SignInRequest {
      RUNTIME_PERMISSIONS
      GOOGLE_SIGN_IN
      UPDATE_USER_INFO
      COMPLETED
    }

    SignInRequest -[hidden]-> app.splash.SplashActivity
  }
}

namespace app.splash.contract.SplashContract #EEEEEE {
  interface Presenter {
    + requestSignIn()
    + evaluateActivityResult(requestCode: Int, resultCode: Int, data: Intent?)
    + evaluateRequestPermissionsResult(requestCode: Int, permissions: Array<String>, grantResults: IntArray)
  }
  interface PresenterCallback {
    + requestSignInResult(request: SignInRequest)
  }
  interface Interactor {
    + requestGoogleSilentSignIn()
    + requestUpdateUserInfo()
    + isGrantedRuntimePermissions(permissions: Array<String>): Boolean
    + isGoogleSignedIn()
    + isSucceededGoogleUserSignIn(data: Intent?): Boolean
  }
  interface InteractorCallback {
    + requestGoogleSilentSignInResult(isSucceeded: Boolean)
    + requestUpdateUserInfoResult(isSucceeded: Boolean)
  }
  interface Router {
    + startRuntimePermissions(activity: Activity, permissions: Array<String>, requestCode: Int)
    + startGoogleSignInActivity(activity: Activity, clientHolder: GoogleSignInClientHolder, requestCode: Int)
    + startMainActivity(activity: Activity)
  }

  PresenterCallback -[hidden]-> Presenter
  Presenter -[hidden]-> InteractorCallback
  InteractorCallback -[hidden]-> Interactor
  Interactor -[hidden]-> Router

  Presenter .|> core.viper.ViperContract.Presenter
  PresenterCallback .|> core.viper.ViperContract.PresenterCallback
  Interactor .|> core.viper.ViperContract.Interactor
  InteractorCallback .|> core.viper.ViperContract.InteractorCallback
  Router .|> core.viper.ViperContract.Router
}

app.splash +- - app.splash.contract.SplashContract

namespace core.viper.ViperContract #DDDDDD {
  interface Presenter {
    + destroy()
  }
  interface PresenterCallback {
    + getActivity(): Activity
  }
  interface Interactor {
    + destroy()
  }
  interface InteractorCallback
  interface Router

  PresenterCallback -[hidden]-> Presenter
  Presenter -[hidden]-> InteractorCallback
  InteractorCallback -[hidden]-> Interactor
  Interactor -[hidden]-> Router
}
@enduml

PlantUML version 1.2020.15beta1(Unknown compile time)
(GPL source distribution)
Java Runtime: Java(TM) SE Runtime Environment
JVM: Java HotSpot(TM) 64-Bit Server VM
Default Encoding: UTF-8
Language: en
Country: US
--></g></svg>