<?xml version="1.0" encoding="UTF-8" standalone="no"?><svg xmlns="http://www.w3.org/2000/svg" xmlns:xlink="http://www.w3.org/1999/xlink" contentScriptType="application/ecmascript" contentStyleType="text/css" height="1048px" preserveAspectRatio="none" style="width:1263px;height:1048px;" version="1.1" viewBox="0 0 1263 1048" width="1263px" zoomAndPan="magnify"><defs><filter height="300%" id="fe1ni5ckv3wra" width="300%" x="-1" y="-1"><feGaussianBlur result="blurOut" stdDeviation="2.0"/><feColorMatrix in="blurOut" result="blurOut2" type="matrix" values="0 0 0 0 0 0 0 0 0 0 0 0 0 0 0 0 0 0 .4 0"/><feOffset dx="4.0" dy="4.0" in="blurOut2" result="blurOut3"/><feBlend in="SourceGraphic" in2="blurOut3" mode="normal"/></filter></defs><g><!--MD5=[2a96228d3f581488ff170e4c22043396]
cluster app.splash--><polygon fill="#FFFFFF" filter="url(#fe1ni5ckv3wra)" points="30,32,124,32,131,54.2969,278,54.2969,278,1017,30,1017,30,32" style="stroke: #000000; stroke-width: 1.5;"/><line style="stroke: #000000; stroke-width: 1.5;" x1="30" x2="131" y1="54.2969" y2="54.2969"/><text fill="#000000" font-family="sans-serif" font-size="14" font-weight="bold" lengthAdjust="spacingAndGlyphs" textLength="88" x="34" y="46.9951">app.splash</text><!--MD5=[866e8dce3d52014c766811fd38c69b87]
cluster app.splash.entity--><polygon fill="#FFFFFF" filter="url(#fe1ni5ckv3wra)" points="62,83,117,83,124,105.2969,238,105.2969,238,233,62,233,62,83" style="stroke: #000000; stroke-width: 1.5;"/><line style="stroke: #000000; stroke-width: 1.5;" x1="62" x2="124" y1="105.2969" y2="105.2969"/><text fill="#000000" font-family="sans-serif" font-size="14" font-weight="bold" lengthAdjust="spacingAndGlyphs" textLength="49" x="66" y="97.9951">entity</text><!--MD5=[c83d1fd1a1968b652cdf7b3ece76fca7]
cluster app.splash.contract.SplashContract--><polygon fill="#FFFFFF" filter="url(#fe1ni5ckv3wra)" points="318,274,619,274,626,296.2969,994,296.2969,994,1036,318,1036,318,274" style="stroke: #000000; stroke-width: 1.5;"/><line style="stroke: #000000; stroke-width: 1.5;" x1="318" x2="626" y1="296.2969" y2="296.2969"/><text fill="#000000" font-family="sans-serif" font-size="14" font-weight="bold" lengthAdjust="spacingAndGlyphs" textLength="295" x="322" y="288.9951">app.splash.contract.SplashContract</text><!--MD5=[6834d4c3e4960f6dbfe701b70c07ed62]
cluster core.viper.ViperContract--><polygon fill="#FFFFFF" filter="url(#fe1ni5ckv3wra)" points="1026,282,1231,282,1238,304.2969,1241,304.2969,1241,1009,1026,1009,1026,282" style="stroke: #000000; stroke-width: 1.5;"/><line style="stroke: #000000; stroke-width: 1.5;" x1="1026" x2="1238" y1="304.2969" y2="304.2969"/><text fill="#000000" font-family="sans-serif" font-size="14" font-weight="bold" lengthAdjust="spacingAndGlyphs" textLength="199" x="1030" y="296.9951">core.viper.ViperContract</text><!--MD5=[039b86f07d81291e45b9afd15ac1cc2e]
class app.splash.SplashActivity--><rect fill="#FEFECE" filter="url(#fe1ni5ckv3wra)" height="48" id="app.splash.SplashActivity" style="stroke: #A80036; stroke-width: 1.5;" width="115" x="112.5" y="323.5"/><ellipse cx="127.5" cy="339.5" fill="#ADD1B2" rx="11" ry="11" style="stroke: #A80036; stroke-width: 1.0;"/><path d="M129.8438,335.1719 C128.9063,334.7344 128.3125,334.5938 127.4375,334.5938 C124.8125,334.5938 122.8125,336.6719 122.8125,339.3906 L122.8125,340.5156 C122.8125,343.0938 124.9219,344.9844 127.8125,344.9844 C129.0313,344.9844 130.1875,344.6875 130.9375,344.1406 C131.5156,343.7344 131.8438,343.2813 131.8438,342.8906 C131.8438,342.4375 131.4531,342.0469 130.9844,342.0469 C130.7656,342.0469 130.5625,342.125 130.375,342.3125 C129.9219,342.7969 129.9219,342.7969 129.7344,342.8906 C129.3125,343.1563 128.625,343.2813 127.8594,343.2813 C125.8125,343.2813 124.5156,342.1875 124.5156,340.4844 L124.5156,339.3906 C124.5156,337.6094 125.7656,336.2969 127.5,336.2969 C128.0781,336.2969 128.6875,336.4531 129.1563,336.7031 C129.6406,336.9844 129.8125,337.2031 129.9063,337.6094 C129.9688,338.0156 130,338.1406 130.1406,338.2656 C130.2813,338.4063 130.5156,338.5156 130.7344,338.5156 C131,338.5156 131.2656,338.375 131.4375,338.1563 C131.5469,338 131.5781,337.8125 131.5781,337.3906 L131.5781,335.9688 C131.5781,335.5313 131.5625,335.4063 131.4688,335.25 C131.3125,334.9844 131.0313,334.8438 130.7344,334.8438 C130.4375,334.8438 130.2344,334.9375 130.0156,335.25 L129.8438,335.1719 Z "/><text fill="#000000" font-family="sans-serif" font-size="12" lengthAdjust="spacingAndGlyphs" textLength="83" x="141.5" y="343.6543">SplashActivity</text><line style="stroke: #A80036; stroke-width: 1.5;" x1="113.5" x2="226.5" y1="355.5" y2="355.5"/><line style="stroke: #A80036; stroke-width: 1.5;" x1="113.5" x2="226.5" y1="363.5" y2="363.5"/><!--MD5=[437fc10d34a4f2a6bf8ab538f885004c]
class app.splash.SplashPresenter--><rect fill="#FEFECE" filter="url(#fe1ni5ckv3wra)" height="48" id="app.splash.SplashPresenter" style="stroke: #A80036; stroke-width: 1.5;" width="130" x="111" y="474"/><ellipse cx="126" cy="490" fill="#ADD1B2" rx="11" ry="11" style="stroke: #A80036; stroke-width: 1.0;"/><path d="M128.3438,485.6719 C127.4063,485.2344 126.8125,485.0938 125.9375,485.0938 C123.3125,485.0938 121.3125,487.1719 121.3125,489.8906 L121.3125,491.0156 C121.3125,493.5938 123.4219,495.4844 126.3125,495.4844 C127.5313,495.4844 128.6875,495.1875 129.4375,494.6406 C130.0156,494.2344 130.3438,493.7813 130.3438,493.3906 C130.3438,492.9375 129.9531,492.5469 129.4844,492.5469 C129.2656,492.5469 129.0625,492.625 128.875,492.8125 C128.4219,493.2969 128.4219,493.2969 128.2344,493.3906 C127.8125,493.6563 127.125,493.7813 126.3594,493.7813 C124.3125,493.7813 123.0156,492.6875 123.0156,490.9844 L123.0156,489.8906 C123.0156,488.1094 124.2656,486.7969 126,486.7969 C126.5781,486.7969 127.1875,486.9531 127.6563,487.2031 C128.1406,487.4844 128.3125,487.7031 128.4063,488.1094 C128.4688,488.5156 128.5,488.6406 128.6406,488.7656 C128.7813,488.9063 129.0156,489.0156 129.2344,489.0156 C129.5,489.0156 129.7656,488.875 129.9375,488.6563 C130.0469,488.5 130.0781,488.3125 130.0781,487.8906 L130.0781,486.4688 C130.0781,486.0313 130.0625,485.9063 129.9688,485.75 C129.8125,485.4844 129.5313,485.3438 129.2344,485.3438 C128.9375,485.3438 128.7344,485.4375 128.5156,485.75 L128.3438,485.6719 Z "/><text fill="#000000" font-family="sans-serif" font-size="12" lengthAdjust="spacingAndGlyphs" textLength="98" x="140" y="494.1543">SplashPresenter</text><line style="stroke: #A80036; stroke-width: 1.5;" x1="112" x2="240" y1="506" y2="506"/><line style="stroke: #A80036; stroke-width: 1.5;" x1="112" x2="240" y1="514" y2="514"/><!--MD5=[46444ac2f8e682ff904afb8e89ce9f78]
class app.splash.SplashInteractor--><rect fill="#FEFECE" filter="url(#fe1ni5ckv3wra)" height="48" id="app.splash.SplashInteractor" style="stroke: #A80036; stroke-width: 1.5;" width="130" x="116" y="785"/><ellipse cx="131" cy="801" fill="#ADD1B2" rx="11" ry="11" style="stroke: #A80036; stroke-width: 1.0;"/><path d="M133.3438,796.6719 C132.4063,796.2344 131.8125,796.0938 130.9375,796.0938 C128.3125,796.0938 126.3125,798.1719 126.3125,800.8906 L126.3125,802.0156 C126.3125,804.5938 128.4219,806.4844 131.3125,806.4844 C132.5313,806.4844 133.6875,806.1875 134.4375,805.6406 C135.0156,805.2344 135.3438,804.7813 135.3438,804.3906 C135.3438,803.9375 134.9531,803.5469 134.4844,803.5469 C134.2656,803.5469 134.0625,803.625 133.875,803.8125 C133.4219,804.2969 133.4219,804.2969 133.2344,804.3906 C132.8125,804.6563 132.125,804.7813 131.3594,804.7813 C129.3125,804.7813 128.0156,803.6875 128.0156,801.9844 L128.0156,800.8906 C128.0156,799.1094 129.2656,797.7969 131,797.7969 C131.5781,797.7969 132.1875,797.9531 132.6563,798.2031 C133.1406,798.4844 133.3125,798.7031 133.4063,799.1094 C133.4688,799.5156 133.5,799.6406 133.6406,799.7656 C133.7813,799.9063 134.0156,800.0156 134.2344,800.0156 C134.5,800.0156 134.7656,799.875 134.9375,799.6563 C135.0469,799.5 135.0781,799.3125 135.0781,798.8906 L135.0781,797.4688 C135.0781,797.0313 135.0625,796.9063 134.9688,796.75 C134.8125,796.4844 134.5313,796.3438 134.2344,796.3438 C133.9375,796.3438 133.7344,796.4375 133.5156,796.75 L133.3438,796.6719 Z "/><text fill="#000000" font-family="sans-serif" font-size="12" lengthAdjust="spacingAndGlyphs" textLength="98" x="145" y="805.1543">SplashInteractor</text><line style="stroke: #A80036; stroke-width: 1.5;" x1="117" x2="245" y1="817" y2="817"/><line style="stroke: #A80036; stroke-width: 1.5;" x1="117" x2="245" y1="825" y2="825"/><!--MD5=[a75dc8629eebccefb2d92c98e4caf292]
class app.splash.SplashRouter--><rect fill="#FEFECE" filter="url(#fe1ni5ckv3wra)" height="48" id="app.splash.SplashRouter" style="stroke: #A80036; stroke-width: 1.5;" width="111" x="94.5" y="945"/><ellipse cx="109.5" cy="961" fill="#ADD1B2" rx="11" ry="11" style="stroke: #A80036; stroke-width: 1.0;"/><path d="M111.8438,956.6719 C110.9063,956.2344 110.3125,956.0938 109.4375,956.0938 C106.8125,956.0938 104.8125,958.1719 104.8125,960.8906 L104.8125,962.0156 C104.8125,964.5938 106.9219,966.4844 109.8125,966.4844 C111.0313,966.4844 112.1875,966.1875 112.9375,965.6406 C113.5156,965.2344 113.8438,964.7813 113.8438,964.3906 C113.8438,963.9375 113.4531,963.5469 112.9844,963.5469 C112.7656,963.5469 112.5625,963.625 112.375,963.8125 C111.9219,964.2969 111.9219,964.2969 111.7344,964.3906 C111.3125,964.6563 110.625,964.7813 109.8594,964.7813 C107.8125,964.7813 106.5156,963.6875 106.5156,961.9844 L106.5156,960.8906 C106.5156,959.1094 107.7656,957.7969 109.5,957.7969 C110.0781,957.7969 110.6875,957.9531 111.1563,958.2031 C111.6406,958.4844 111.8125,958.7031 111.9063,959.1094 C111.9688,959.5156 112,959.6406 112.1406,959.7656 C112.2813,959.9063 112.5156,960.0156 112.7344,960.0156 C113,960.0156 113.2656,959.875 113.4375,959.6563 C113.5469,959.5 113.5781,959.3125 113.5781,958.8906 L113.5781,957.4688 C113.5781,957.0313 113.5625,956.9063 113.4688,956.75 C113.3125,956.4844 113.0313,956.3438 112.7344,956.3438 C112.4375,956.3438 112.2344,956.4375 112.0156,956.75 L111.8438,956.6719 Z "/><text fill="#000000" font-family="sans-serif" font-size="12" lengthAdjust="spacingAndGlyphs" textLength="79" x="123.5" y="965.1543">SplashRouter</text><line style="stroke: #A80036; stroke-width: 1.5;" x1="95.5" x2="204.5" y1="977" y2="977"/><line style="stroke: #A80036; stroke-width: 1.5;" x1="95.5" x2="204.5" y1="985" y2="985"/><!--MD5=[6be5fb1d5d23ee194bc9aea57941ccd1]
class app.splash.entity.SignInRequest--><rect fill="#FEFECE" filter="url(#fe1ni5ckv3wra)" height="99.2188" id="app.splash.entity.SignInRequest" style="stroke: #A80036; stroke-width: 1.5;" width="143" x="78.5" y="118"/><ellipse cx="105.2" cy="134" fill="#EB937F" rx="11" ry="11" style="stroke: #A80036; stroke-width: 1.0;"/><path d="M103.9969,134.875 L105.45,134.875 L105.45,134.9844 C105.45,135.3906 105.4813,135.5469 105.5594,135.7031 C105.7156,135.9531 105.9969,136.1094 106.2938,136.1094 C106.5438,136.1094 106.8094,135.9688 106.9656,135.75 C107.0906,135.5938 107.1219,135.4375 107.1219,134.9844 L107.1219,133.0625 C107.1219,132.9063 107.1219,132.8594 107.1063,132.7031 C107.0438,132.2344 106.7313,131.9219 106.2781,131.9219 C106.0281,131.9219 105.7625,132.0625 105.5906,132.2813 C105.4813,132.4531 105.45,132.6094 105.45,133.0625 L105.45,133.1875 L103.9969,133.1875 L103.9969,130.7813 L107.9813,130.7813 L107.9813,131.6406 C107.9813,132.0469 108.0125,132.2188 108.0906,132.375 C108.2625,132.625 108.5438,132.7813 108.825,132.7813 C109.0906,132.7813 109.3563,132.6406 109.5281,132.4219 C109.6375,132.25 109.6688,132.1094 109.6688,131.6406 L109.6688,129.0938 L102.0438,129.0938 C101.6063,129.0938 101.4813,129.1094 101.325,129.2031 C101.075,129.3594 100.9188,129.6563 100.9188,129.9375 C100.9188,130.2188 101.0594,130.4688 101.2781,130.6406 C101.4344,130.75 101.6219,130.7813 102.0438,130.7813 L102.2938,130.7813 L102.2938,137.2969 L102.0438,137.2969 C101.6375,137.2969 101.4813,137.3125 101.325,137.4219 C101.075,137.5938 100.9188,137.8594 100.9188,138.1563 C100.9188,138.4219 101.0594,138.6719 101.2781,138.8281 C101.4188,138.9531 101.6531,139 102.0438,139 L110.0438,139 L110.0438,136.4219 C110.0438,135.9844 110.0125,135.8438 109.9344,135.6875 C109.7625,135.4375 109.4813,135.2813 109.2,135.2813 C108.9344,135.2813 108.6688,135.3906 108.4969,135.6406 C108.3875,135.7969 108.3563,135.9375 108.3563,136.4219 L108.3563,137.2969 L103.9969,137.2969 L103.9969,134.875 Z "/><text fill="#000000" font-family="sans-serif" font-size="12" lengthAdjust="spacingAndGlyphs" textLength="85" x="121.8" y="138.1543">SignInRequest</text><line style="stroke: #A80036; stroke-width: 1.5;" x1="79.5" x2="220.5" y1="150" y2="150"/><text fill="#000000" font-family="sans-serif" font-size="11" lengthAdjust="spacingAndGlyphs" textLength="131" x="84.5" y="164.2104">RUNTIME_PERMISSIONS</text><text fill="#000000" font-family="sans-serif" font-size="11" lengthAdjust="spacingAndGlyphs" textLength="100" x="84.5" y="177.0151">GOOGLE_SIGN_IN</text><text fill="#000000" font-family="sans-serif" font-size="11" lengthAdjust="spacingAndGlyphs" textLength="113" x="84.5" y="189.8198">UPDATE_USER_INFO</text><text fill="#000000" font-family="sans-serif" font-size="11" lengthAdjust="spacingAndGlyphs" textLength="68" x="84.5" y="202.6245">COMPLETED</text><line style="stroke: #A80036; stroke-width: 1.5;" x1="79.5" x2="220.5" y1="209.2188" y2="209.2188"/><!--MD5=[f1030a3ad301bef10eebe25566e96449]
class app.splash.contract.SplashContract.Presenter--><rect fill="#FEFECE" filter="url(#fe1ni5ckv3wra)" height="86.4141" id="app.splash.contract.SplashContract.Presenter" style="stroke: #A80036; stroke-width: 1.5;" width="620" x="350" y="455"/><ellipse cx="627.25" cy="471" fill="#B4A7E5" rx="11" ry="11" style="stroke: #A80036; stroke-width: 1.0;"/><path d="M628.2031,467.7813 L629.9219,467.7813 C630.3125,467.7813 630.5,467.75 630.625,467.6719 C630.8906,467.5156 631.0313,467.2344 631.0313,466.9375 C631.0313,466.6719 630.9219,466.4063 630.6875,466.2344 C630.5156,466.125 630.375,466.0938 629.9219,466.0938 L624.7813,466.0938 C624.3438,466.0938 624.2188,466.1094 624.0625,466.2031 C623.8125,466.3594 623.6563,466.6563 623.6563,466.9375 C623.6563,467.2188 623.7969,467.4688 624.0156,467.6406 C624.1719,467.75 624.3594,467.7813 624.7813,467.7813 L626.5,467.7813 L626.5,474.2969 L624.7813,474.2969 C624.3438,474.2969 624.2188,474.3125 624.0625,474.4219 C623.8125,474.5781 623.6563,474.8594 623.6563,475.1563 C623.6563,475.4063 623.7969,475.6719 624.0156,475.8281 C624.1719,475.9531 624.375,476 624.7813,476 L629.9219,476 C630.6719,476 631.0313,475.7188 631.0313,475.1563 C631.0313,474.875 630.9219,474.625 630.6875,474.4531 C630.5156,474.3281 630.375,474.2969 629.9219,474.2969 L628.2031,474.2969 L628.2031,467.7813 Z "/><text fill="#000000" font-family="sans-serif" font-size="12" font-style="italic" lengthAdjust="spacingAndGlyphs" textLength="57" x="647.75" y="475.1543">Presenter</text><line style="stroke: #A80036; stroke-width: 1.5;" x1="351" x2="969" y1="487" y2="487"/><line style="stroke: #A80036; stroke-width: 1.5;" x1="351" x2="969" y1="495" y2="495"/><ellipse cx="361" cy="506" fill="#84BE84" rx="3" ry="3" style="stroke: #038048; stroke-width: 1.0;"/><text fill="#000000" font-family="sans-serif" font-size="11" lengthAdjust="spacingAndGlyphs" textLength="87" x="370" y="509.2104">requestSignIn()</text><ellipse cx="361" cy="518.8047" fill="#84BE84" rx="3" ry="3" style="stroke: #038048; stroke-width: 1.0;"/><text fill="#000000" font-family="sans-serif" font-size="11" lengthAdjust="spacingAndGlyphs" textLength="399" x="370" y="522.0151">evaluateActivityResult(requestCode: Int, resultCode: Int, data: Intent?)</text><ellipse cx="361" cy="531.6094" fill="#84BE84" rx="3" ry="3" style="stroke: #038048; stroke-width: 1.0;"/><text fill="#000000" font-family="sans-serif" font-size="11" lengthAdjust="spacingAndGlyphs" textLength="594" x="370" y="534.8198">evaluateRequestPermissionsResult(requestCode: Int, permissions: Array&lt;String&gt;, grantResults: IntArray)</text><!--MD5=[55d1f437f05628c5e786be7f055fc3c8]
class app.splash.contract.SplashContract.Interactor--><rect fill="#FEFECE" filter="url(#fe1ni5ckv3wra)" height="112.0234" id="app.splash.contract.SplashContract.Interactor" style="stroke: #A80036; stroke-width: 1.5;" width="413" x="445.5" y="753"/><ellipse cx="617.75" cy="769" fill="#B4A7E5" rx="11" ry="11" style="stroke: #A80036; stroke-width: 1.0;"/><path d="M618.7031,765.7813 L620.4219,765.7813 C620.8125,765.7813 621,765.75 621.125,765.6719 C621.3906,765.5156 621.5313,765.2344 621.5313,764.9375 C621.5313,764.6719 621.4219,764.4063 621.1875,764.2344 C621.0156,764.125 620.875,764.0938 620.4219,764.0938 L615.2813,764.0938 C614.8438,764.0938 614.7188,764.1094 614.5625,764.2031 C614.3125,764.3594 614.1563,764.6563 614.1563,764.9375 C614.1563,765.2188 614.2969,765.4688 614.5156,765.6406 C614.6719,765.75 614.8594,765.7813 615.2813,765.7813 L617,765.7813 L617,772.2969 L615.2813,772.2969 C614.8438,772.2969 614.7188,772.3125 614.5625,772.4219 C614.3125,772.5781 614.1563,772.8594 614.1563,773.1563 C614.1563,773.4063 614.2969,773.6719 614.5156,773.8281 C614.6719,773.9531 614.875,774 615.2813,774 L620.4219,774 C621.1719,774 621.5313,773.7188 621.5313,773.1563 C621.5313,772.875 621.4219,772.625 621.1875,772.4531 C621.0156,772.3281 620.875,772.2969 620.4219,772.2969 L618.7031,772.2969 L618.7031,765.7813 Z "/><text fill="#000000" font-family="sans-serif" font-size="12" font-style="italic" lengthAdjust="spacingAndGlyphs" textLength="60" x="638.25" y="773.1543">Interactor</text><line style="stroke: #A80036; stroke-width: 1.5;" x1="446.5" x2="857.5" y1="785" y2="785"/><line style="stroke: #A80036; stroke-width: 1.5;" x1="446.5" x2="857.5" y1="793" y2="793"/><ellipse cx="456.5" cy="804" fill="#84BE84" rx="3" ry="3" style="stroke: #038048; stroke-width: 1.0;"/><text fill="#000000" font-family="sans-serif" font-size="11" lengthAdjust="spacingAndGlyphs" textLength="161" x="465.5" y="807.2104">requestGoogleSilentSignIn()</text><ellipse cx="456.5" cy="816.8047" fill="#84BE84" rx="3" ry="3" style="stroke: #038048; stroke-width: 1.0;"/><text fill="#000000" font-family="sans-serif" font-size="11" lengthAdjust="spacingAndGlyphs" textLength="140" x="465.5" y="820.0151">requestUpdateUserInfo()</text><ellipse cx="456.5" cy="829.6094" fill="#84BE84" rx="3" ry="3" style="stroke: #038048; stroke-width: 1.0;"/><text fill="#000000" font-family="sans-serif" font-size="11" lengthAdjust="spacingAndGlyphs" textLength="387" x="465.5" y="832.8198">isGrantedRuntimePermissions(permissions: Array&lt;String&gt;): Boolean</text><ellipse cx="456.5" cy="842.4141" fill="#84BE84" rx="3" ry="3" style="stroke: #038048; stroke-width: 1.0;"/><text fill="#000000" font-family="sans-serif" font-size="11" lengthAdjust="spacingAndGlyphs" textLength="108" x="465.5" y="845.6245">isGoogleSignedIn()</text><ellipse cx="456.5" cy="855.2188" fill="#84BE84" rx="3" ry="3" style="stroke: #038048; stroke-width: 1.0;"/><text fill="#000000" font-family="sans-serif" font-size="11" lengthAdjust="spacingAndGlyphs" textLength="309" x="465.5" y="858.4292">isSucceededGoogleUserSignIn(data: Intent?): Boolean</text><!--MD5=[c4d7be2f8fc2ddbc79709a65a0a31b45]
class app.splash.contract.SplashContract.Router--><rect fill="#FEFECE" filter="url(#fe1ni5ckv3wra)" height="86.4141" id="app.splash.contract.SplashContract.Router" style="stroke: #A80036; stroke-width: 1.5;" width="597" x="353.5" y="926"/><ellipse cx="627.75" cy="942" fill="#B4A7E5" rx="11" ry="11" style="stroke: #A80036; stroke-width: 1.0;"/><path d="M628.7031,938.7813 L630.4219,938.7813 C630.8125,938.7813 631,938.75 631.125,938.6719 C631.3906,938.5156 631.5313,938.2344 631.5313,937.9375 C631.5313,937.6719 631.4219,937.4063 631.1875,937.2344 C631.0156,937.125 630.875,937.0938 630.4219,937.0938 L625.2813,937.0938 C624.8438,937.0938 624.7188,937.1094 624.5625,937.2031 C624.3125,937.3594 624.1563,937.6563 624.1563,937.9375 C624.1563,938.2188 624.2969,938.4688 624.5156,938.6406 C624.6719,938.75 624.8594,938.7813 625.2813,938.7813 L627,938.7813 L627,945.2969 L625.2813,945.2969 C624.8438,945.2969 624.7188,945.3125 624.5625,945.4219 C624.3125,945.5781 624.1563,945.8594 624.1563,946.1563 C624.1563,946.4063 624.2969,946.6719 624.5156,946.8281 C624.6719,946.9531 624.875,947 625.2813,947 L630.4219,947 C631.1719,947 631.5313,946.7188 631.5313,946.1563 C631.5313,945.875 631.4219,945.625 631.1875,945.4531 C631.0156,945.3281 630.875,945.2969 630.4219,945.2969 L628.7031,945.2969 L628.7031,938.7813 Z "/><text fill="#000000" font-family="sans-serif" font-size="12" font-style="italic" lengthAdjust="spacingAndGlyphs" textLength="40" x="648.25" y="946.1543">Router</text><line style="stroke: #A80036; stroke-width: 1.5;" x1="354.5" x2="949.5" y1="958" y2="958"/><line style="stroke: #A80036; stroke-width: 1.5;" x1="354.5" x2="949.5" y1="966" y2="966"/><ellipse cx="364.5" cy="977" fill="#84BE84" rx="3" ry="3" style="stroke: #038048; stroke-width: 1.0;"/><text fill="#000000" font-family="sans-serif" font-size="11" lengthAdjust="spacingAndGlyphs" textLength="502" x="373.5" y="980.2104">startRuntimePermissions(activity: Activity, permissions: Array&lt;String&gt;, requestCode: Int)</text><ellipse cx="364.5" cy="989.8047" fill="#84BE84" rx="3" ry="3" style="stroke: #038048; stroke-width: 1.0;"/><text fill="#000000" font-family="sans-serif" font-size="11" lengthAdjust="spacingAndGlyphs" textLength="571" x="373.5" y="993.0151">startGoogleSignInActivity(activity: Activity, clientHolder: GoogleSignInClientHolder, requestCode: Int)</text><ellipse cx="364.5" cy="1002.6094" fill="#84BE84" rx="3" ry="3" style="stroke: #038048; stroke-width: 1.0;"/><text fill="#000000" font-family="sans-serif" font-size="11" lengthAdjust="spacingAndGlyphs" textLength="191" x="373.5" y="1005.8198">startMainActivity(activity: Activity)</text><!--MD5=[3c473f5619a54f75a0edff63b827d9bf]
class app.splash.contract.SplashContract.PresenterCallback--><rect fill="#FEFECE" filter="url(#fe1ni5ckv3wra)" height="60.8047" id="app.splash.contract.SplashContract.PresenterCallback" style="stroke: #A80036; stroke-width: 1.5;" width="281" x="400.5" y="317"/><ellipse cx="483.25" cy="333" fill="#B4A7E5" rx="11" ry="11" style="stroke: #A80036; stroke-width: 1.0;"/><path d="M484.2031,329.7813 L485.9219,329.7813 C486.3125,329.7813 486.5,329.75 486.625,329.6719 C486.8906,329.5156 487.0313,329.2344 487.0313,328.9375 C487.0313,328.6719 486.9219,328.4063 486.6875,328.2344 C486.5156,328.125 486.375,328.0938 485.9219,328.0938 L480.7813,328.0938 C480.3438,328.0938 480.2188,328.1094 480.0625,328.2031 C479.8125,328.3594 479.6563,328.6563 479.6563,328.9375 C479.6563,329.2188 479.7969,329.4688 480.0156,329.6406 C480.1719,329.75 480.3594,329.7813 480.7813,329.7813 L482.5,329.7813 L482.5,336.2969 L480.7813,336.2969 C480.3438,336.2969 480.2188,336.3125 480.0625,336.4219 C479.8125,336.5781 479.6563,336.8594 479.6563,337.1563 C479.6563,337.4063 479.7969,337.6719 480.0156,337.8281 C480.1719,337.9531 480.375,338 480.7813,338 L485.9219,338 C486.6719,338 487.0313,337.7188 487.0313,337.1563 C487.0313,336.875 486.9219,336.625 486.6875,336.4531 C486.5156,336.3281 486.375,336.2969 485.9219,336.2969 L484.2031,336.2969 L484.2031,329.7813 Z "/><text fill="#000000" font-family="sans-serif" font-size="12" font-style="italic" lengthAdjust="spacingAndGlyphs" textLength="107" x="503.75" y="337.1543">PresenterCallback</text><line style="stroke: #A80036; stroke-width: 1.5;" x1="401.5" x2="680.5" y1="349" y2="349"/><line style="stroke: #A80036; stroke-width: 1.5;" x1="401.5" x2="680.5" y1="357" y2="357"/><ellipse cx="411.5" cy="368" fill="#84BE84" rx="3" ry="3" style="stroke: #038048; stroke-width: 1.0;"/><text fill="#000000" font-family="sans-serif" font-size="11" lengthAdjust="spacingAndGlyphs" textLength="255" x="420.5" y="371.2104">requestSignInResult(request: SignInRequest)</text><!--MD5=[bd8f5a99360b29d1d7282380101cd4bb]
class app.splash.contract.SplashContract.InteractorCallback--><rect fill="#FEFECE" filter="url(#fe1ni5ckv3wra)" height="73.6094" id="app.splash.contract.SplashContract.InteractorCallback" style="stroke: #A80036; stroke-width: 1.5;" width="350" x="477" y="602"/><ellipse cx="592.75" cy="618" fill="#B4A7E5" rx="11" ry="11" style="stroke: #A80036; stroke-width: 1.0;"/><path d="M593.7031,614.7813 L595.4219,614.7813 C595.8125,614.7813 596,614.75 596.125,614.6719 C596.3906,614.5156 596.5313,614.2344 596.5313,613.9375 C596.5313,613.6719 596.4219,613.4063 596.1875,613.2344 C596.0156,613.125 595.875,613.0938 595.4219,613.0938 L590.2813,613.0938 C589.8438,613.0938 589.7188,613.1094 589.5625,613.2031 C589.3125,613.3594 589.1563,613.6563 589.1563,613.9375 C589.1563,614.2188 589.2969,614.4688 589.5156,614.6406 C589.6719,614.75 589.8594,614.7813 590.2813,614.7813 L592,614.7813 L592,621.2969 L590.2813,621.2969 C589.8438,621.2969 589.7188,621.3125 589.5625,621.4219 C589.3125,621.5781 589.1563,621.8594 589.1563,622.1563 C589.1563,622.4063 589.2969,622.6719 589.5156,622.8281 C589.6719,622.9531 589.875,623 590.2813,623 L595.4219,623 C596.1719,623 596.5313,622.7188 596.5313,622.1563 C596.5313,621.875 596.4219,621.625 596.1875,621.4531 C596.0156,621.3281 595.875,621.2969 595.4219,621.2969 L593.7031,621.2969 L593.7031,614.7813 Z "/><text fill="#000000" font-family="sans-serif" font-size="12" font-style="italic" lengthAdjust="spacingAndGlyphs" textLength="110" x="613.25" y="622.1543">InteractorCallback</text><line style="stroke: #A80036; stroke-width: 1.5;" x1="478" x2="826" y1="634" y2="634"/><line style="stroke: #A80036; stroke-width: 1.5;" x1="478" x2="826" y1="642" y2="642"/><ellipse cx="488" cy="653" fill="#84BE84" rx="3" ry="3" style="stroke: #038048; stroke-width: 1.0;"/><text fill="#000000" font-family="sans-serif" font-size="11" lengthAdjust="spacingAndGlyphs" textLength="324" x="497" y="656.2104">requestGoogleSilentSignInResult(isSucceeded: Boolean)</text><ellipse cx="488" cy="665.8047" fill="#84BE84" rx="3" ry="3" style="stroke: #038048; stroke-width: 1.0;"/><text fill="#000000" font-family="sans-serif" font-size="11" lengthAdjust="spacingAndGlyphs" textLength="303" x="497" y="669.0151">requestUpdateUserInfoResult(isSucceeded: Boolean)</text><!--MD5=[a73abe5de16d4ae8f7cebc11a3c6e1fe]
class core.viper.ViperContract.Presenter--><rect fill="#FEFECE" filter="url(#fe1ni5ckv3wra)" height="60.8047" id="core.viper.ViperContract.Presenter" style="stroke: #A80036; stroke-width: 1.5;" width="89" x="1068.5" y="467.5"/><ellipse cx="1083.5" cy="483.5" fill="#B4A7E5" rx="11" ry="11" style="stroke: #A80036; stroke-width: 1.0;"/><path d="M1084.4531,480.2813 L1086.1719,480.2813 C1086.5625,480.2813 1086.75,480.25 1086.875,480.1719 C1087.1406,480.0156 1087.2813,479.7344 1087.2813,479.4375 C1087.2813,479.1719 1087.1719,478.9063 1086.9375,478.7344 C1086.7656,478.625 1086.625,478.5938 1086.1719,478.5938 L1081.0313,478.5938 C1080.5938,478.5938 1080.4688,478.6094 1080.3125,478.7031 C1080.0625,478.8594 1079.9063,479.1563 1079.9063,479.4375 C1079.9063,479.7188 1080.0469,479.9688 1080.2656,480.1406 C1080.4219,480.25 1080.6094,480.2813 1081.0313,480.2813 L1082.75,480.2813 L1082.75,486.7969 L1081.0313,486.7969 C1080.5938,486.7969 1080.4688,486.8125 1080.3125,486.9219 C1080.0625,487.0781 1079.9063,487.3594 1079.9063,487.6563 C1079.9063,487.9063 1080.0469,488.1719 1080.2656,488.3281 C1080.4219,488.4531 1080.625,488.5 1081.0313,488.5 L1086.1719,488.5 C1086.9219,488.5 1087.2813,488.2188 1087.2813,487.6563 C1087.2813,487.375 1087.1719,487.125 1086.9375,486.9531 C1086.7656,486.8281 1086.625,486.7969 1086.1719,486.7969 L1084.4531,486.7969 L1084.4531,480.2813 Z "/><text fill="#000000" font-family="sans-serif" font-size="12" font-style="italic" lengthAdjust="spacingAndGlyphs" textLength="57" x="1097.5" y="487.6543">Presenter</text><line style="stroke: #A80036; stroke-width: 1.5;" x1="1069.5" x2="1156.5" y1="499.5" y2="499.5"/><line style="stroke: #A80036; stroke-width: 1.5;" x1="1069.5" x2="1156.5" y1="507.5" y2="507.5"/><ellipse cx="1079.5" cy="518.5" fill="#84BE84" rx="3" ry="3" style="stroke: #038048; stroke-width: 1.0;"/><text fill="#000000" font-family="sans-serif" font-size="11" lengthAdjust="spacingAndGlyphs" textLength="51" x="1088.5" y="521.7104">destroy()</text><!--MD5=[587da1590874ac044f3f2eaaedd1375f]
class core.viper.ViperContract.PresenterCallback--><rect fill="#FEFECE" filter="url(#fe1ni5ckv3wra)" height="60.8047" id="core.viper.ViperContract.PresenterCallback" style="stroke: #A80036; stroke-width: 1.5;" width="144" x="1042" y="317"/><ellipse cx="1059.25" cy="333" fill="#B4A7E5" rx="11" ry="11" style="stroke: #A80036; stroke-width: 1.0;"/><path d="M1060.2031,329.7813 L1061.9219,329.7813 C1062.3125,329.7813 1062.5,329.75 1062.625,329.6719 C1062.8906,329.5156 1063.0313,329.2344 1063.0313,328.9375 C1063.0313,328.6719 1062.9219,328.4063 1062.6875,328.2344 C1062.5156,328.125 1062.375,328.0938 1061.9219,328.0938 L1056.7813,328.0938 C1056.3438,328.0938 1056.2188,328.1094 1056.0625,328.2031 C1055.8125,328.3594 1055.6563,328.6563 1055.6563,328.9375 C1055.6563,329.2188 1055.7969,329.4688 1056.0156,329.6406 C1056.1719,329.75 1056.3594,329.7813 1056.7813,329.7813 L1058.5,329.7813 L1058.5,336.2969 L1056.7813,336.2969 C1056.3438,336.2969 1056.2188,336.3125 1056.0625,336.4219 C1055.8125,336.5781 1055.6563,336.8594 1055.6563,337.1563 C1055.6563,337.4063 1055.7969,337.6719 1056.0156,337.8281 C1056.1719,337.9531 1056.375,338 1056.7813,338 L1061.9219,338 C1062.6719,338 1063.0313,337.7188 1063.0313,337.1563 C1063.0313,336.875 1062.9219,336.625 1062.6875,336.4531 C1062.5156,336.3281 1062.375,336.2969 1061.9219,336.2969 L1060.2031,336.2969 L1060.2031,329.7813 Z "/><text fill="#000000" font-family="sans-serif" font-size="12" font-style="italic" lengthAdjust="spacingAndGlyphs" textLength="107" x="1073.75" y="337.1543">PresenterCallback</text><line style="stroke: #A80036; stroke-width: 1.5;" x1="1043" x2="1185" y1="349" y2="349"/><line style="stroke: #A80036; stroke-width: 1.5;" x1="1043" x2="1185" y1="357" y2="357"/><ellipse cx="1053" cy="368" fill="#84BE84" rx="3" ry="3" style="stroke: #038048; stroke-width: 1.0;"/><text fill="#000000" font-family="sans-serif" font-size="11" lengthAdjust="spacingAndGlyphs" textLength="118" x="1062" y="371.2104">getActivity(): Activity</text><!--MD5=[ec1a8c1a0905d2094598a56ebb97c9ab]
class core.viper.ViperContract.Interactor--><rect fill="#FEFECE" filter="url(#fe1ni5ckv3wra)" height="60.8047" id="core.viper.ViperContract.Interactor" style="stroke: #A80036; stroke-width: 1.5;" width="92" x="1042" y="778.5"/><ellipse cx="1057" cy="794.5" fill="#B4A7E5" rx="11" ry="11" style="stroke: #A80036; stroke-width: 1.0;"/><path d="M1057.9531,791.2813 L1059.6719,791.2813 C1060.0625,791.2813 1060.25,791.25 1060.375,791.1719 C1060.6406,791.0156 1060.7813,790.7344 1060.7813,790.4375 C1060.7813,790.1719 1060.6719,789.9063 1060.4375,789.7344 C1060.2656,789.625 1060.125,789.5938 1059.6719,789.5938 L1054.5313,789.5938 C1054.0938,789.5938 1053.9688,789.6094 1053.8125,789.7031 C1053.5625,789.8594 1053.4063,790.1563 1053.4063,790.4375 C1053.4063,790.7188 1053.5469,790.9688 1053.7656,791.1406 C1053.9219,791.25 1054.1094,791.2813 1054.5313,791.2813 L1056.25,791.2813 L1056.25,797.7969 L1054.5313,797.7969 C1054.0938,797.7969 1053.9688,797.8125 1053.8125,797.9219 C1053.5625,798.0781 1053.4063,798.3594 1053.4063,798.6563 C1053.4063,798.9063 1053.5469,799.1719 1053.7656,799.3281 C1053.9219,799.4531 1054.125,799.5 1054.5313,799.5 L1059.6719,799.5 C1060.4219,799.5 1060.7813,799.2188 1060.7813,798.6563 C1060.7813,798.375 1060.6719,798.125 1060.4375,797.9531 C1060.2656,797.8281 1060.125,797.7969 1059.6719,797.7969 L1057.9531,797.7969 L1057.9531,791.2813 Z "/><text fill="#000000" font-family="sans-serif" font-size="12" font-style="italic" lengthAdjust="spacingAndGlyphs" textLength="60" x="1071" y="798.6543">Interactor</text><line style="stroke: #A80036; stroke-width: 1.5;" x1="1043" x2="1133" y1="810.5" y2="810.5"/><line style="stroke: #A80036; stroke-width: 1.5;" x1="1043" x2="1133" y1="818.5" y2="818.5"/><ellipse cx="1053" cy="829.5" fill="#84BE84" rx="3" ry="3" style="stroke: #038048; stroke-width: 1.0;"/><text fill="#000000" font-family="sans-serif" font-size="11" lengthAdjust="spacingAndGlyphs" textLength="51" x="1062" y="832.7104">destroy()</text><!--MD5=[e77a630e059dc31e4db28b962d60c6d2]
class core.viper.ViperContract.InteractorCallback--><rect fill="#FEFECE" filter="url(#fe1ni5ckv3wra)" height="48" id="core.viper.ViperContract.InteractorCallback" style="stroke: #A80036; stroke-width: 1.5;" width="142" x="1042" y="615"/><ellipse cx="1057" cy="631" fill="#B4A7E5" rx="11" ry="11" style="stroke: #A80036; stroke-width: 1.0;"/><path d="M1057.9531,627.7813 L1059.6719,627.7813 C1060.0625,627.7813 1060.25,627.75 1060.375,627.6719 C1060.6406,627.5156 1060.7813,627.2344 1060.7813,626.9375 C1060.7813,626.6719 1060.6719,626.4063 1060.4375,626.2344 C1060.2656,626.125 1060.125,626.0938 1059.6719,626.0938 L1054.5313,626.0938 C1054.0938,626.0938 1053.9688,626.1094 1053.8125,626.2031 C1053.5625,626.3594 1053.4063,626.6563 1053.4063,626.9375 C1053.4063,627.2188 1053.5469,627.4688 1053.7656,627.6406 C1053.9219,627.75 1054.1094,627.7813 1054.5313,627.7813 L1056.25,627.7813 L1056.25,634.2969 L1054.5313,634.2969 C1054.0938,634.2969 1053.9688,634.3125 1053.8125,634.4219 C1053.5625,634.5781 1053.4063,634.8594 1053.4063,635.1563 C1053.4063,635.4063 1053.5469,635.6719 1053.7656,635.8281 C1053.9219,635.9531 1054.125,636 1054.5313,636 L1059.6719,636 C1060.4219,636 1060.7813,635.7188 1060.7813,635.1563 C1060.7813,634.875 1060.6719,634.625 1060.4375,634.4531 C1060.2656,634.3281 1060.125,634.2969 1059.6719,634.2969 L1057.9531,634.2969 L1057.9531,627.7813 Z "/><text fill="#000000" font-family="sans-serif" font-size="12" font-style="italic" lengthAdjust="spacingAndGlyphs" textLength="110" x="1071" y="635.1543">InteractorCallback</text><line style="stroke: #A80036; stroke-width: 1.5;" x1="1043" x2="1183" y1="647" y2="647"/><line style="stroke: #A80036; stroke-width: 1.5;" x1="1043" x2="1183" y1="655" y2="655"/><!--MD5=[1825269ddad9ed22789ebb49bf96ca62]
class core.viper.ViperContract.Router--><rect fill="#FEFECE" filter="url(#fe1ni5ckv3wra)" height="48" id="core.viper.ViperContract.Router" style="stroke: #A80036; stroke-width: 1.5;" width="72" x="1044" y="945"/><ellipse cx="1059" cy="961" fill="#B4A7E5" rx="11" ry="11" style="stroke: #A80036; stroke-width: 1.0;"/><path d="M1059.9531,957.7813 L1061.6719,957.7813 C1062.0625,957.7813 1062.25,957.75 1062.375,957.6719 C1062.6406,957.5156 1062.7813,957.2344 1062.7813,956.9375 C1062.7813,956.6719 1062.6719,956.4063 1062.4375,956.2344 C1062.2656,956.125 1062.125,956.0938 1061.6719,956.0938 L1056.5313,956.0938 C1056.0938,956.0938 1055.9688,956.1094 1055.8125,956.2031 C1055.5625,956.3594 1055.4063,956.6563 1055.4063,956.9375 C1055.4063,957.2188 1055.5469,957.4688 1055.7656,957.6406 C1055.9219,957.75 1056.1094,957.7813 1056.5313,957.7813 L1058.25,957.7813 L1058.25,964.2969 L1056.5313,964.2969 C1056.0938,964.2969 1055.9688,964.3125 1055.8125,964.4219 C1055.5625,964.5781 1055.4063,964.8594 1055.4063,965.1563 C1055.4063,965.4063 1055.5469,965.6719 1055.7656,965.8281 C1055.9219,965.9531 1056.125,966 1056.5313,966 L1061.6719,966 C1062.4219,966 1062.7813,965.7188 1062.7813,965.1563 C1062.7813,964.875 1062.6719,964.625 1062.4375,964.4531 C1062.2656,964.3281 1062.125,964.2969 1061.6719,964.2969 L1059.9531,964.2969 L1059.9531,957.7813 Z "/><text fill="#000000" font-family="sans-serif" font-size="12" font-style="italic" lengthAdjust="spacingAndGlyphs" textLength="40" x="1073" y="965.1543">Router</text><line style="stroke: #A80036; stroke-width: 1.5;" x1="1045" x2="1115" y1="977" y2="977"/><line style="stroke: #A80036; stroke-width: 1.5;" x1="1045" x2="1115" y1="985" y2="985"/><!--MD5=[d1b14fe910d579f1dd339fb4a231de99]
reverse link app.splash.SplashActivity to app.splash.SplashPresenter--><path d="M171.469,384.855 C172.592,412.661 174.107,450.156 175.069,473.96 " fill="none" id="app.splash.SplashActivity&lt;-app.splash.SplashPresenter" style="stroke: #A80036; stroke-width: 1.0;"/><polygon fill="#FFFFFF" points="170.938,371.703,167.1832,377.8594,171.4219,383.6932,175.1767,377.5368,170.938,371.703" style="stroke: #A80036; stroke-width: 1.0;"/><rect fill="none" height="6" style="stroke: #C82930; stroke-width: 1.0;" width="6" x="176" y="414.0664"/><text fill="#000000" font-family="sans-serif" font-size="13" lengthAdjust="spacingAndGlyphs" textLength="62" x="186" y="421.0669">presenter</text><!--MD5=[f91676235e457bf53bba641bc0a61a35]
reverse link app.splash.SplashPresenter to app.splash.SplashInteractor--><path d="M176.592,535.615 C177.634,600.001 179.765,731.707 180.627,784.927 " fill="none" id="app.splash.SplashPresenter&lt;-app.splash.SplashInteractor" style="stroke: #A80036; stroke-width: 1.0;"/><polygon fill="#FFFFFF" points="176.376,522.225,172.4734,528.2888,176.5698,534.2234,180.4724,528.1596,176.376,522.225" style="stroke: #A80036; stroke-width: 1.0;"/><rect fill="none" height="6" style="stroke: #C82930; stroke-width: 1.0;" width="6" x="182" y="636.5664"/><text fill="#000000" font-family="sans-serif" font-size="13" lengthAdjust="spacingAndGlyphs" textLength="62" x="192" y="643.5669">interactor</text><!--MD5=[f6d4c8b2b3fb2120ac8d0b5658ad082d]
reverse link app.splash.SplashPresenter to app.splash.SplashRouter--><path d="M158.031,534.201 C126.973,599.585 69.2183,744.127 98,865 C104.9601,894.23 121.617,924.568 134.217,944.681 " fill="none" id="app.splash.SplashPresenter&lt;-app.splash.SplashRouter" style="stroke: #A80036; stroke-width: 1.0;"/><polygon fill="#FFFFFF" points="163.853,522.209,157.6343,525.8597,158.6123,533.0042,164.8311,529.3535,163.853,522.209" style="stroke: #A80036; stroke-width: 1.0;"/><rect fill="none" height="6" style="stroke: #C82930; stroke-width: 1.0;" width="6" x="103" y="712.0664"/><text fill="#000000" font-family="sans-serif" font-size="13" lengthAdjust="spacingAndGlyphs" textLength="39" x="113" y="719.0669">router</text><!--MD5=[4a3fa21c44f6d76d85a5cbf9aed1c6f4]
link app.splash.SplashPresenter to app.splash.contract.SplashContract.Presenter--><path d="M241.227,498 C270.578,498 299.929,498 329.28,498 " fill="none" id="app.splash.SplashPresenter-&gt;app.splash.contract.SplashContract.Presenter" style="stroke: #A80036; stroke-width: 1.0; stroke-dasharray: 7.0,7.0;"/><polygon fill="none" points="329.601,491,349.601,498,329.601,505,329.601,491" style="stroke: #A80036; stroke-width: 1.0;"/><!--MD5=[89c9c81a6a5449b73b0f6e47e1c1018e]
link app.splash.contract.SplashContract.Presenter to app.splash.SplashPresenter--><!--MD5=[88f2c8acc0354bac6f3d02bb07be8272]
link app.splash.SplashInteractor to app.splash.contract.SplashContract.Interactor--><path d="M246.314,809 C305.875,809 365.436,809 424.997,809 " fill="none" id="app.splash.SplashInteractor-&gt;app.splash.contract.SplashContract.Interactor" style="stroke: #A80036; stroke-width: 1.0; stroke-dasharray: 7.0,7.0;"/><polygon fill="none" points="425.195,802,445.195,809,425.195,816,425.195,802" style="stroke: #A80036; stroke-width: 1.0;"/><!--MD5=[23aba68c0758d8751b4b52e71a0879da]
link app.splash.contract.SplashContract.Interactor to app.splash.SplashInteractor--><!--MD5=[f3b453277492f0dfdc03350d28f6acee]
link app.splash.SplashRouter to app.splash.contract.SplashContract.Router--><path d="M205.887,969 C248.26,969 290.633,969 333.007,969 " fill="none" id="app.splash.SplashRouter-&gt;app.splash.contract.SplashContract.Router" style="stroke: #A80036; stroke-width: 1.0; stroke-dasharray: 7.0,7.0;"/><polygon fill="none" points="333.139,961.9999,353.139,969,333.139,975.9999,333.139,961.9999" style="stroke: #A80036; stroke-width: 1.0;"/><!--MD5=[e26c28e3b4e72dbec67da16904f3d5ba]
link app.splash.contract.SplashContract.Router to app.splash.SplashRouter--><!--MD5=[63e12b800cfdf6b28eaf388d7f2a2de3]
link app.splash.SplashActivity to app.splash.contract.SplashContract.PresenterCallback--><path d="M196.192,323.442 C225.561,298.454 275.871,261.375 327.5,249.5 C387.194,235.77 450.329,271.879 492.322,304.075 " fill="none" id="app.splash.SplashActivity-&gt;app.splash.contract.SplashContract.PresenterCallback" style="stroke: #A80036; stroke-width: 1.0; stroke-dasharray: 7.0,7.0;"/><polygon fill="none" points="496.938,298.805,508.14,316.791,488.167,309.716,496.938,298.805" style="stroke: #A80036; stroke-width: 1.0;"/><!--MD5=[8a9d7373beac840ed398afebcaa45f42]
reverse link app.splash.SplashPresenter to app.splash.contract.SplashContract.PresenterCallback--><path d="M244.915,468.962 C308.78,442.979 403.45,404.462 468.451,378.016 " fill="none" id="app.splash.SplashPresenter&lt;-app.splash.contract.SplashContract.PresenterCallback" style="stroke: #A80036; stroke-width: 1.0;"/><polygon fill="#FFFFFF" points="232.571,473.984,239.6359,475.4285,243.6866,469.4626,236.6217,468.0181,232.571,473.984" style="stroke: #A80036; stroke-width: 1.0;"/><rect fill="none" height="6" style="stroke: #C82930; stroke-width: 1.0;" width="6" x="395" y="414.0664"/><text fill="#000000" font-family="sans-serif" font-size="13" lengthAdjust="spacingAndGlyphs" textLength="51" x="405" y="421.0669">callback</text><!--MD5=[28576bd7b8dcbd86209090d56d5c73fa]
link app.splash.SplashPresenter to app.splash.contract.SplashContract.InteractorCallback--><path d="M241.188,518.036 C309.861,538.09 420.181,570.305 509.215,596.304 " fill="none" id="app.splash.SplashPresenter-&gt;app.splash.contract.SplashContract.InteractorCallback" style="stroke: #A80036; stroke-width: 1.0; stroke-dasharray: 7.0,7.0;"/><polygon fill="none" points="511.208,589.594,528.444,601.92,507.284,603.033,511.208,589.594" style="stroke: #A80036; stroke-width: 1.0;"/><!--MD5=[752984750464c7ee6ba6018813c5518f]
reverse link app.splash.SplashInteractor to app.splash.contract.SplashContract.InteractorCallback--><path d="M257.504,780.436 C281.94,771.649 309.102,761.899 334,753 C406.276,727.168 487.852,698.184 550.284,676.037 " fill="none" id="app.splash.SplashInteractor&lt;-app.splash.contract.SplashContract.InteractorCallback" style="stroke: #A80036; stroke-width: 1.0;"/><polygon fill="#FFFFFF" points="245.001,784.934,252.0009,786.6664,256.2924,780.8713,249.2925,779.1389,245.001,784.934" style="stroke: #A80036; stroke-width: 1.0;"/><rect fill="none" height="6" style="stroke: #C82930; stroke-width: 1.0;" width="6" x="468" y="712.0664"/><text fill="#000000" font-family="sans-serif" font-size="13" lengthAdjust="spacingAndGlyphs" textLength="51" x="478" y="719.0669">callback</text><!--MD5=[822488e2f5e5d7044a8c33b25b1ca95a]
link app.splash.entity.SignInRequest to app.splash.SplashActivity--><!--MD5=[60fbdfd0700c1e091e04aab4c680ae02]
link app.splash.contract.SplashContract.PresenterCallback to app.splash.contract.SplashContract.Presenter--><!--MD5=[b3bf049ce59d2595879a1fd8288beef5]
link app.splash.contract.SplashContract.Presenter to app.splash.contract.SplashContract.InteractorCallback--><!--MD5=[00b6d89bc9c196133b7cb6c7661407e9]
link app.splash.contract.SplashContract.InteractorCallback to app.splash.contract.SplashContract.Interactor--><!--MD5=[77b25775f01acfdb62435ac9d3d43dd8]
link app.splash.contract.SplashContract.Interactor to app.splash.contract.SplashContract.Router--><!--MD5=[2e06be8c3c75336d7d11f1a2914bd201]
link app.splash.contract.SplashContract.Presenter to core.viper.ViperContract.Presenter--><path d="M970.11,498 C996.077,498 1022.04,498 1048.01,498 " fill="none" id="app.splash.contract.SplashContract.Presenter-&gt;core.viper.ViperContract.Presenter" style="stroke: #A80036; stroke-width: 1.0; stroke-dasharray: 7.0,7.0;"/><polygon fill="none" points="1048.35,491,1068.35,498,1048.35,505,1048.35,491" style="stroke: #A80036; stroke-width: 1.0;"/><!--MD5=[b2995618d5b21c8d3c2860a72f4dc93c]
link app.splash.contract.SplashContract.PresenterCallback to core.viper.ViperContract.PresenterCallback--><path d="M681.732,347.5 C795.078,347.5 908.425,347.5 1021.77,347.5 " fill="none" id="app.splash.contract.SplashContract.PresenterCallback-&gt;core.viper.ViperContract.PresenterCallback" style="stroke: #A80036; stroke-width: 1.0; stroke-dasharray: 7.0,7.0;"/><polygon fill="none" points="1021.81,340.5,1041.81,347.5,1021.81,354.5,1021.81,340.5" style="stroke: #A80036; stroke-width: 1.0;"/><!--MD5=[89165bf8658882d720ff072a5eccd2c7]
link app.splash.contract.SplashContract.Interactor to core.viper.ViperContract.Interactor--><path d="M858.504,809 C912.929,809 967.355,809 1021.78,809 " fill="none" id="app.splash.contract.SplashContract.Interactor-&gt;core.viper.ViperContract.Interactor" style="stroke: #A80036; stroke-width: 1.0; stroke-dasharray: 7.0,7.0;"/><polygon fill="none" points="1021.83,802,1041.83,809,1021.83,816,1021.83,802" style="stroke: #A80036; stroke-width: 1.0;"/><!--MD5=[786f0f25dfa8f76932e88831b62b0fa7]
link app.splash.contract.SplashContract.InteractorCallback to core.viper.ViperContract.InteractorCallback--><path d="M827.126,639 C891.979,639 956.831,639 1021.68,639 " fill="none" id="app.splash.contract.SplashContract.InteractorCallback-&gt;core.viper.ViperContract.InteractorCallback" style="stroke: #A80036; stroke-width: 1.0; stroke-dasharray: 7.0,7.0;"/><polygon fill="none" points="1021.81,632,1041.81,639,1021.81,646,1021.81,632" style="stroke: #A80036; stroke-width: 1.0;"/><!--MD5=[9cb584ed7fa3fabf5331b65e42323807]
link app.splash.contract.SplashContract.Router to core.viper.ViperContract.Router--><path d="M950.848,969 C975.087,969 999.327,969 1023.57,969 " fill="none" id="app.splash.contract.SplashContract.Router-&gt;core.viper.ViperContract.Router" style="stroke: #A80036; stroke-width: 1.0; stroke-dasharray: 7.0,7.0;"/><polygon fill="none" points="1023.93,961.9999,1043.93,969,1023.93,975.9999,1023.93,961.9999" style="stroke: #A80036; stroke-width: 1.0;"/><!--MD5=[627c911084275ce60a3872a5173c4f97]
reverse link app.splash to app.splash.contract.SplashContract--><path d="M278.0644,194.1325 C278.1415,194.3775 278.219,194.6239 278.2969,194.8716 C278.6086,195.8624 278.9269,196.8741 279.2514,197.9057 C284.4437,214.4099 291.2274,235.9726 298.0104,257.5327 C304.7933,279.0929 311.5755,300.6504 316.7646,317.1445 C317.089,318.1753 317.4071,319.1864 317.7186,320.1765 C317.7964,320.424 317.8739,320.6703 317.9509,320.9151 " fill="none" id="app.splash&lt;-app.splash.contract.SplashContract" style="stroke: #A80036; stroke-width: 1.0;"/><ellipse cx="280.4652" cy="201.7638" fill="#FFFFFF" rx="8" ry="8" style="stroke: #A80036; stroke-width: 1.0;"/><line style="stroke: #A80036; stroke-width: 1.0;" x1="282.866" x2="278.0644" y1="209.395" y2="194.1325"/><line style="stroke: #A80036; stroke-width: 1.0;" x1="272.8339" x2="288.0964" y1="204.1646" y2="199.3629"/><!--MD5=[87f8738a1428cad8e95c20e665af5898]
link core.viper.ViperContract.PresenterCallback to core.viper.ViperContract.Presenter--><!--MD5=[6573e0256b6fb7c6a0505a89fdc8309d]
link core.viper.ViperContract.Presenter to core.viper.ViperContract.InteractorCallback--><!--MD5=[f8d939142a6dbc42db09fcc57fec4775]
link core.viper.ViperContract.InteractorCallback to core.viper.ViperContract.Interactor--><!--MD5=[37f12353853fdc756113b71d7b56ae43]
link core.viper.ViperContract.Interactor to core.viper.ViperContract.Router--><!--MD5=[50246540c28bbdadee65a9f5d3c45331]
@startuml
namespace app.splash {
  SplashActivity o- - SplashPresenter: -presenter
  SplashPresenter o- - - SplashInteractor: -interactor
  SplashPresenter o- - - - SplashRouter: -router

  SplashPresenter .|> app.splash.contract.SplashContract.Presenter
  SplashInteractor .|> app.splash.contract.SplashContract.Interactor
  SplashRouter .|> app.splash.contract.SplashContract.Router

  SplashActivity ..|> app.splash.contract.SplashContract.PresenterCallback
  SplashPresenter o- - app.splash.contract.SplashContract.PresenterCallback: -callback
  SplashPresenter ..|> app.splash.contract.SplashContract.InteractorCallback
  SplashInteractor o- - app.splash.contract.SplashContract.InteractorCallback: -callback

  app.splash.contract.SplashContract.Presenter -[hidden]> SplashPresenter
  app.splash.contract.SplashContract.Interactor -[hidden]> SplashInteractor
  app.splash.contract.SplashContract.Router -[hidden]> SplashRouter

  namespace entity {
    enum SignInRequest {
      RUNTIME_PERMISSIONS
      GOOGLE_SIGN_IN
      UPDATE_USER_INFO
      COMPLETED
    }

    SignInRequest -[hidden]-> app.splash.SplashActivity
  }
}

namespace app.splash.contract.SplashContract {
  interface Presenter {
    + requestSignIn()
    + evaluateActivityResult(requestCode: Int, resultCode: Int, data: Intent?)
    + evaluateRequestPermissionsResult(requestCode: Int, permissions: Array<String>, grantResults: IntArray)
  }
  interface PresenterCallback {
    + requestSignInResult(request: SignInRequest)
  }
  interface Interactor {
    + requestGoogleSilentSignIn()
    + requestUpdateUserInfo()
    + isGrantedRuntimePermissions(permissions: Array<String>): Boolean
    + isGoogleSignedIn()
    + isSucceededGoogleUserSignIn(data: Intent?): Boolean
  }
  interface InteractorCallback {
    + requestGoogleSilentSignInResult(isSucceeded: Boolean)
    + requestUpdateUserInfoResult(isSucceeded: Boolean)
  }
  interface Router {
    + startRuntimePermissions(activity: Activity, permissions: Array<String>, requestCode: Int)
    + startGoogleSignInActivity(activity: Activity, clientHolder: GoogleSignInClientHolder, requestCode: Int)
    + startMainActivity(activity: Activity)
  }

  PresenterCallback -[hidden]-> Presenter
  Presenter -[hidden]-> InteractorCallback
  InteractorCallback -[hidden]-> Interactor
  Interactor -[hidden]-> Router

  Presenter .|> core.viper.ViperContract.Presenter
  PresenterCallback .|> core.viper.ViperContract.PresenterCallback
  Interactor .|> core.viper.ViperContract.Interactor
  InteractorCallback .|> core.viper.ViperContract.InteractorCallback
  Router .|> core.viper.ViperContract.Router
}

app.splash +- - app.splash.contract.SplashContract

namespace core.viper.ViperContract {
  interface Presenter {
    + destroy()
  }
  interface PresenterCallback {
    + getActivity(): Activity
  }
  interface Interactor {
    + destroy()
  }
  interface InteractorCallback
  interface Router

  PresenterCallback -[hidden]-> Presenter
  Presenter -[hidden]-> InteractorCallback
  InteractorCallback -[hidden]-> Interactor
  Interactor -[hidden]-> Router
}
@enduml

PlantUML version 1.2020.10(Sun May 17 09:48:49 UTC 2020)
(GPL source distribution)
Java Runtime: Java(TM) SE Runtime Environment
JVM: Java HotSpot(TM) 64-Bit Server VM
Operating System: Linux
Default Encoding: UTF-8
Language: en
Country: US
--></g></svg>