<?xml version="1.0" encoding="UTF-8" standalone="no"?><svg xmlns="http://www.w3.org/2000/svg" xmlns:xlink="http://www.w3.org/1999/xlink" contentScriptType="application/ecmascript" contentStyleType="text/css" height="1081px" preserveAspectRatio="none" style="width:1328px;height:1081px;" version="1.1" viewBox="0 0 1328 1081" width="1328px" zoomAndPan="magnify"><defs><filter height="300%" id="flmru7wlq1t82" width="300%" x="-1" y="-1"><feGaussianBlur result="blurOut" stdDeviation="2.0"/><feColorMatrix in="blurOut" result="blurOut2" type="matrix" values="0 0 0 0 0 0 0 0 0 0 0 0 0 0 0 0 0 0 .4 0"/><feOffset dx="4.0" dy="4.0" in="blurOut2" result="blurOut3"/><feBlend in="SourceGraphic" in2="blurOut3" mode="normal"/></filter></defs><g><!--MD5=[2a96228d3f581488ff170e4c22043396]
cluster app.splash--><polygon fill="#FFFFEE" filter="url(#flmru7wlq1t82)" points="16,6,110,6,117,28.2969,343,28.2969,343,1050,16,1050,16,6" style="stroke: #000000; stroke-width: 1.5;"/><line style="stroke: #000000; stroke-width: 1.5;" x1="16" x2="117" y1="28.2969" y2="28.2969"/><text fill="#000000" font-family="sans-serif" font-size="14" font-weight="bold" lengthAdjust="spacingAndGlyphs" textLength="88" x="20" y="20.9951">app.splash</text><!--MD5=[866e8dce3d52014c766811fd38c69b87]
cluster app.splash.entity--><polygon fill="#FFFFEE" filter="url(#flmru7wlq1t82)" points="121,57,176,57,183,79.2969,303,79.2969,303,266,121,266,121,57" style="stroke: #000000; stroke-width: 1.5;"/><line style="stroke: #000000; stroke-width: 1.5;" x1="121" x2="183" y1="79.2969" y2="79.2969"/><text fill="#000000" font-family="sans-serif" font-size="14" font-weight="bold" lengthAdjust="spacingAndGlyphs" textLength="49" x="125" y="71.9951">entity</text><!--MD5=[c83d1fd1a1968b652cdf7b3ece76fca7]
cluster app.splash.contract.SplashContract--><polygon fill="#EEEEEE" filter="url(#flmru7wlq1t82)" points="383,307,684,307,691,329.2969,1059,329.2969,1059,1069,383,1069,383,307" style="stroke: #000000; stroke-width: 1.5;"/><line style="stroke: #000000; stroke-width: 1.5;" x1="383" x2="691" y1="329.2969" y2="329.2969"/><text fill="#000000" font-family="sans-serif" font-size="14" font-weight="bold" lengthAdjust="spacingAndGlyphs" textLength="295" x="387" y="321.9951">app.splash.contract.SplashContract</text><!--MD5=[6834d4c3e4960f6dbfe701b70c07ed62]
cluster core.viper.ViperContract--><polygon fill="#DDDDDD" filter="url(#flmru7wlq1t82)" points="1091,315,1296,315,1303,337.2969,1306,337.2969,1306,1042,1091,1042,1091,315" style="stroke: #000000; stroke-width: 1.5;"/><line style="stroke: #000000; stroke-width: 1.5;" x1="1091" x2="1303" y1="337.2969" y2="337.2969"/><text fill="#000000" font-family="sans-serif" font-size="14" font-weight="bold" lengthAdjust="spacingAndGlyphs" textLength="199" x="1095" y="329.9951">core.viper.ViperContract</text><!--MD5=[039b86f07d81291e45b9afd15ac1cc2e]
class app.splash.SplashActivity--><rect codeLine="20" fill="#FEFECE" filter="url(#flmru7wlq1t82)" height="48" id="app.splash.SplashActivity" style="stroke: #A80036; stroke-width: 1.5;" width="115" x="177.5" y="356.5"/><ellipse cx="192.5" cy="372.5" fill="#ADD1B2" rx="11" ry="11" style="stroke: #A80036; stroke-width: 1.0;"/><path d="M194.8438,368.1719 C193.9063,367.7344 193.3125,367.5938 192.4375,367.5938 C189.8125,367.5938 187.8125,369.6719 187.8125,372.3906 L187.8125,373.5156 C187.8125,376.0938 189.9219,377.9844 192.8125,377.9844 C194.0313,377.9844 195.1875,377.6875 195.9375,377.1406 C196.5156,376.7344 196.8438,376.2813 196.8438,375.8906 C196.8438,375.4375 196.4531,375.0469 195.9844,375.0469 C195.7656,375.0469 195.5625,375.125 195.375,375.3125 C194.9219,375.7969 194.9219,375.7969 194.7344,375.8906 C194.3125,376.1563 193.625,376.2813 192.8594,376.2813 C190.8125,376.2813 189.5156,375.1875 189.5156,373.4844 L189.5156,372.3906 C189.5156,370.6094 190.7656,369.2969 192.5,369.2969 C193.0781,369.2969 193.6875,369.4531 194.1563,369.7031 C194.6406,369.9844 194.8125,370.2031 194.9063,370.6094 C194.9688,371.0156 195,371.1406 195.1406,371.2656 C195.2813,371.4063 195.5156,371.5156 195.7344,371.5156 C196,371.5156 196.2656,371.375 196.4375,371.1563 C196.5469,371 196.5781,370.8125 196.5781,370.3906 L196.5781,368.9688 C196.5781,368.5313 196.5625,368.4063 196.4688,368.25 C196.3125,367.9844 196.0313,367.8438 195.7344,367.8438 C195.4375,367.8438 195.2344,367.9375 195.0156,368.25 L194.8438,368.1719 Z "/><text fill="#000000" font-family="sans-serif" font-size="12" lengthAdjust="spacingAndGlyphs" textLength="83" x="206.5" y="376.6543">SplashActivity</text><line style="stroke: #A80036; stroke-width: 1.5;" x1="178.5" x2="291.5" y1="388.5" y2="388.5"/><line style="stroke: #A80036; stroke-width: 1.5;" x1="178.5" x2="291.5" y1="396.5" y2="396.5"/><!--MD5=[437fc10d34a4f2a6bf8ab538f885004c]
class app.splash.SplashPresenter--><rect codeLine="21" fill="#FEFECE" filter="url(#flmru7wlq1t82)" height="48" id="app.splash.SplashPresenter" style="stroke: #A80036; stroke-width: 1.5;" width="130" x="175" y="507"/><ellipse cx="190" cy="523" fill="#ADD1B2" rx="11" ry="11" style="stroke: #A80036; stroke-width: 1.0;"/><path d="M192.3438,518.6719 C191.4063,518.2344 190.8125,518.0938 189.9375,518.0938 C187.3125,518.0938 185.3125,520.1719 185.3125,522.8906 L185.3125,524.0156 C185.3125,526.5938 187.4219,528.4844 190.3125,528.4844 C191.5313,528.4844 192.6875,528.1875 193.4375,527.6406 C194.0156,527.2344 194.3438,526.7813 194.3438,526.3906 C194.3438,525.9375 193.9531,525.5469 193.4844,525.5469 C193.2656,525.5469 193.0625,525.625 192.875,525.8125 C192.4219,526.2969 192.4219,526.2969 192.2344,526.3906 C191.8125,526.6563 191.125,526.7813 190.3594,526.7813 C188.3125,526.7813 187.0156,525.6875 187.0156,523.9844 L187.0156,522.8906 C187.0156,521.1094 188.2656,519.7969 190,519.7969 C190.5781,519.7969 191.1875,519.9531 191.6563,520.2031 C192.1406,520.4844 192.3125,520.7031 192.4063,521.1094 C192.4688,521.5156 192.5,521.6406 192.6406,521.7656 C192.7813,521.9063 193.0156,522.0156 193.2344,522.0156 C193.5,522.0156 193.7656,521.875 193.9375,521.6563 C194.0469,521.5 194.0781,521.3125 194.0781,520.8906 L194.0781,519.4688 C194.0781,519.0313 194.0625,518.9063 193.9688,518.75 C193.8125,518.4844 193.5313,518.3438 193.2344,518.3438 C192.9375,518.3438 192.7344,518.4375 192.5156,518.75 L192.3438,518.6719 Z "/><text fill="#000000" font-family="sans-serif" font-size="12" lengthAdjust="spacingAndGlyphs" textLength="98" x="204" y="527.1543">SplashPresenter</text><line style="stroke: #A80036; stroke-width: 1.5;" x1="176" x2="304" y1="539" y2="539"/><line style="stroke: #A80036; stroke-width: 1.5;" x1="176" x2="304" y1="547" y2="547"/><!--MD5=[46444ac2f8e682ff904afb8e89ce9f78]
class app.splash.SplashInteractor--><rect codeLine="22" fill="#FEFECE" filter="url(#flmru7wlq1t82)" height="86.4141" id="app.splash.SplashInteractor" style="stroke: #A80036; stroke-width: 1.5;" width="233" x="77.5" y="799"/><ellipse cx="140.75" cy="815" fill="#ADD1B2" rx="11" ry="11" style="stroke: #A80036; stroke-width: 1.0;"/><path d="M143.0938,810.6719 C142.1563,810.2344 141.5625,810.0938 140.6875,810.0938 C138.0625,810.0938 136.0625,812.1719 136.0625,814.8906 L136.0625,816.0156 C136.0625,818.5938 138.1719,820.4844 141.0625,820.4844 C142.2813,820.4844 143.4375,820.1875 144.1875,819.6406 C144.7656,819.2344 145.0938,818.7813 145.0938,818.3906 C145.0938,817.9375 144.7031,817.5469 144.2344,817.5469 C144.0156,817.5469 143.8125,817.625 143.625,817.8125 C143.1719,818.2969 143.1719,818.2969 142.9844,818.3906 C142.5625,818.6563 141.875,818.7813 141.1094,818.7813 C139.0625,818.7813 137.7656,817.6875 137.7656,815.9844 L137.7656,814.8906 C137.7656,813.1094 139.0156,811.7969 140.75,811.7969 C141.3281,811.7969 141.9375,811.9531 142.4063,812.2031 C142.8906,812.4844 143.0625,812.7031 143.1563,813.1094 C143.2188,813.5156 143.25,813.6406 143.3906,813.7656 C143.5313,813.9063 143.7656,814.0156 143.9844,814.0156 C144.25,814.0156 144.5156,813.875 144.6875,813.6563 C144.7969,813.5 144.8281,813.3125 144.8281,812.8906 L144.8281,811.4688 C144.8281,811.0313 144.8125,810.9063 144.7188,810.75 C144.5625,810.4844 144.2813,810.3438 143.9844,810.3438 C143.6875,810.3438 143.4844,810.4375 143.2656,810.75 L143.0938,810.6719 Z "/><text fill="#000000" font-family="sans-serif" font-size="12" lengthAdjust="spacingAndGlyphs" textLength="98" x="161.25" y="819.1543">SplashInteractor</text><line style="stroke: #A80036; stroke-width: 1.5;" x1="78.5" x2="309.5" y1="831" y2="831"/><rect fill="none" height="6" style="stroke: #C82930; stroke-width: 1.0;" width="6" x="85.5" y="839"/><text fill="#000000" font-family="sans-serif" font-size="11" lengthAdjust="spacingAndGlyphs" textLength="160" x="97.5" y="845.2104">appDatabase: AppDatabase</text><rect fill="none" height="6" style="stroke: #C82930; stroke-width: 1.0;" width="6" x="85.5" y="851.8047"/><text fill="#000000" font-family="sans-serif" font-size="11" lengthAdjust="spacingAndGlyphs" textLength="193" x="97.5" y="858.0151">googleSignInApi: GoogleSignInApi</text><rect fill="none" height="6" style="stroke: #C82930; stroke-width: 1.0;" width="6" x="85.5" y="864.6094"/><text fill="#000000" font-family="sans-serif" font-size="11" lengthAdjust="spacingAndGlyphs" textLength="207" x="97.5" y="870.8198">googleOAuth2Api: GoogleOAuth2Api</text><line style="stroke: #A80036; stroke-width: 1.5;" x1="78.5" x2="309.5" y1="877.4141" y2="877.4141"/><!--MD5=[a75dc8629eebccefb2d92c98e4caf292]
class app.splash.SplashRouter--><rect codeLine="27" fill="#FEFECE" filter="url(#flmru7wlq1t82)" height="48" id="app.splash.SplashRouter" style="stroke: #A80036; stroke-width: 1.5;" width="111" x="119.5" y="978"/><ellipse cx="134.5" cy="994" fill="#ADD1B2" rx="11" ry="11" style="stroke: #A80036; stroke-width: 1.0;"/><path d="M136.8438,989.6719 C135.9063,989.2344 135.3125,989.0938 134.4375,989.0938 C131.8125,989.0938 129.8125,991.1719 129.8125,993.8906 L129.8125,995.0156 C129.8125,997.5938 131.9219,999.4844 134.8125,999.4844 C136.0313,999.4844 137.1875,999.1875 137.9375,998.6406 C138.5156,998.2344 138.8438,997.7813 138.8438,997.3906 C138.8438,996.9375 138.4531,996.5469 137.9844,996.5469 C137.7656,996.5469 137.5625,996.625 137.375,996.8125 C136.9219,997.2969 136.9219,997.2969 136.7344,997.3906 C136.3125,997.6563 135.625,997.7813 134.8594,997.7813 C132.8125,997.7813 131.5156,996.6875 131.5156,994.9844 L131.5156,993.8906 C131.5156,992.1094 132.7656,990.7969 134.5,990.7969 C135.0781,990.7969 135.6875,990.9531 136.1563,991.2031 C136.6406,991.4844 136.8125,991.7031 136.9063,992.1094 C136.9688,992.5156 137,992.6406 137.1406,992.7656 C137.2813,992.9063 137.5156,993.0156 137.7344,993.0156 C138,993.0156 138.2656,992.875 138.4375,992.6563 C138.5469,992.5 138.5781,992.3125 138.5781,991.8906 L138.5781,990.4688 C138.5781,990.0313 138.5625,989.9063 138.4688,989.75 C138.3125,989.4844 138.0313,989.3438 137.7344,989.3438 C137.4375,989.3438 137.2344,989.4375 137.0156,989.75 L136.8438,989.6719 Z "/><text fill="#000000" font-family="sans-serif" font-size="12" lengthAdjust="spacingAndGlyphs" textLength="79" x="148.5" y="998.1543">SplashRouter</text><line style="stroke: #A80036; stroke-width: 1.5;" x1="120.5" x2="229.5" y1="1010" y2="1010"/><line style="stroke: #A80036; stroke-width: 1.5;" x1="120.5" x2="229.5" y1="1018" y2="1018"/><!--MD5=[6be5fb1d5d23ee194bc9aea57941ccd1]
class app.splash.entity.SignInRequest--><rect codeLine="4" fill="#FEFECE" filter="url(#flmru7wlq1t82)" height="158.4375" id="app.splash.entity.SignInRequest" style="stroke: #A80036; stroke-width: 1.5;" width="149" x="137.5" y="92"/><ellipse cx="166.9" cy="108" fill="#EB937F" rx="11" ry="11" style="stroke: #A80036; stroke-width: 1.0;"/><path d="M165.6969,108.875 L167.15,108.875 L167.15,108.9844 C167.15,109.3906 167.1813,109.5469 167.2594,109.7031 C167.4156,109.9531 167.6969,110.1094 167.9938,110.1094 C168.2438,110.1094 168.5094,109.9688 168.6656,109.75 C168.7906,109.5938 168.8219,109.4375 168.8219,108.9844 L168.8219,107.0625 C168.8219,106.9063 168.8219,106.8594 168.8063,106.7031 C168.7438,106.2344 168.4313,105.9219 167.9781,105.9219 C167.7281,105.9219 167.4625,106.0625 167.2906,106.2813 C167.1813,106.4531 167.15,106.6094 167.15,107.0625 L167.15,107.1875 L165.6969,107.1875 L165.6969,104.7813 L169.6813,104.7813 L169.6813,105.6406 C169.6813,106.0469 169.7125,106.2188 169.7906,106.375 C169.9625,106.625 170.2438,106.7813 170.525,106.7813 C170.7906,106.7813 171.0563,106.6406 171.2281,106.4219 C171.3375,106.25 171.3688,106.1094 171.3688,105.6406 L171.3688,103.0938 L163.7438,103.0938 C163.3063,103.0938 163.1813,103.1094 163.025,103.2031 C162.775,103.3594 162.6188,103.6563 162.6188,103.9375 C162.6188,104.2188 162.7594,104.4688 162.9781,104.6406 C163.1344,104.75 163.3219,104.7813 163.7438,104.7813 L163.9938,104.7813 L163.9938,111.2969 L163.7438,111.2969 C163.3375,111.2969 163.1813,111.3125 163.025,111.4219 C162.775,111.5938 162.6188,111.8594 162.6188,112.1563 C162.6188,112.4219 162.7594,112.6719 162.9781,112.8281 C163.1188,112.9531 163.3531,113 163.7438,113 L171.7438,113 L171.7438,110.4219 C171.7438,109.9844 171.7125,109.8438 171.6344,109.6875 C171.4625,109.4375 171.1813,109.2813 170.9,109.2813 C170.6344,109.2813 170.3688,109.3906 170.1969,109.6406 C170.0875,109.7969 170.0563,109.9375 170.0563,110.4219 L170.0563,111.2969 L165.6969,111.2969 L165.6969,108.875 Z "/><text fill="#000000" font-family="sans-serif" font-size="12" lengthAdjust="spacingAndGlyphs" textLength="85" x="184.1" y="112.1543">SignInRequest</text><line style="stroke: #A80036; stroke-width: 1.5;" x1="138.5" x2="285.5" y1="124" y2="124"/><text fill="#000000" font-family="sans-serif" font-size="11" lengthAdjust="spacingAndGlyphs" textLength="131" x="143.5" y="138.2104">RUNTIME_PERMISSIONS</text><text fill="#000000" font-family="sans-serif" font-size="11" lengthAdjust="spacingAndGlyphs" textLength="100" x="143.5" y="151.0151">GOOGLE_SIGN_IN</text><text fill="#000000" font-family="sans-serif" font-size="11" lengthAdjust="spacingAndGlyphs" textLength="113" x="143.5" y="163.8198">UPDATE_USER_INFO</text><text fill="#000000" font-family="sans-serif" font-size="11" lengthAdjust="spacingAndGlyphs" textLength="68" x="143.5" y="176.6245">COMPLETED</text><line style="stroke: #A80036; stroke-width: 1.0;" x1="138.5" x2="285.5" y1="183.2188" y2="183.2188"/><line style="stroke: #A80036; stroke-width: 1.0;" x1="138.5" x2="285.5" y1="185.2188" y2="185.2188"/><ellipse cx="148.5" cy="194.2188" fill="none" rx="3" ry="3" style="stroke: #038048; stroke-width: 1.0;"/><text fill="#000000" font-family="sans-serif" font-size="11" lengthAdjust="spacingAndGlyphs" textLength="49" x="157.5" y="197.4292">code: Int</text><ellipse cx="148.5" cy="207.0234" fill="none" rx="3" ry="3" style="stroke: #038048; stroke-width: 1.0;"/><text fill="#000000" font-family="sans-serif" font-size="11" lengthAdjust="spacingAndGlyphs" textLength="78" x="157.5" y="210.2339">failedTitle: Int</text><ellipse cx="148.5" cy="219.8281" fill="none" rx="3" ry="3" style="stroke: #038048; stroke-width: 1.0;"/><text fill="#000000" font-family="sans-serif" font-size="11" lengthAdjust="spacingAndGlyphs" textLength="104" x="157.5" y="223.0386">failedMessage: Int</text><line style="stroke: #A80036; stroke-width: 1.5;" x1="138.5" x2="285.5" y1="229.6328" y2="229.6328"/><ellipse cx="148.5" cy="240.6328" fill="#84BE84" rx="3" ry="3" style="stroke: #038048; stroke-width: 1.0;"/><text fill="#000000" font-family="sans-serif" font-size="11" lengthAdjust="spacingAndGlyphs" textLength="123" x="157.5" y="243.8433">next(): SignInRequest</text><!--MD5=[f1030a3ad301bef10eebe25566e96449]
class app.splash.contract.SplashContract.Presenter--><rect codeLine="49" fill="#FEFECE" filter="url(#flmru7wlq1t82)" height="86.4141" id="app.splash.contract.SplashContract.Presenter" style="stroke: #A80036; stroke-width: 1.5;" width="620" x="415" y="488"/><ellipse cx="692.25" cy="504" fill="#B4A7E5" rx="11" ry="11" style="stroke: #A80036; stroke-width: 1.0;"/><path d="M693.2031,500.7813 L694.9219,500.7813 C695.3125,500.7813 695.5,500.75 695.625,500.6719 C695.8906,500.5156 696.0313,500.2344 696.0313,499.9375 C696.0313,499.6719 695.9219,499.4063 695.6875,499.2344 C695.5156,499.125 695.375,499.0938 694.9219,499.0938 L689.7813,499.0938 C689.3438,499.0938 689.2188,499.1094 689.0625,499.2031 C688.8125,499.3594 688.6563,499.6563 688.6563,499.9375 C688.6563,500.2188 688.7969,500.4688 689.0156,500.6406 C689.1719,500.75 689.3594,500.7813 689.7813,500.7813 L691.5,500.7813 L691.5,507.2969 L689.7813,507.2969 C689.3438,507.2969 689.2188,507.3125 689.0625,507.4219 C688.8125,507.5781 688.6563,507.8594 688.6563,508.1563 C688.6563,508.4063 688.7969,508.6719 689.0156,508.8281 C689.1719,508.9531 689.375,509 689.7813,509 L694.9219,509 C695.6719,509 696.0313,508.7188 696.0313,508.1563 C696.0313,507.875 695.9219,507.625 695.6875,507.4531 C695.5156,507.3281 695.375,507.2969 694.9219,507.2969 L693.2031,507.2969 L693.2031,500.7813 Z "/><text fill="#000000" font-family="sans-serif" font-size="12" font-style="italic" lengthAdjust="spacingAndGlyphs" textLength="57" x="712.75" y="508.1543">Presenter</text><line style="stroke: #A80036; stroke-width: 1.5;" x1="416" x2="1034" y1="520" y2="520"/><line style="stroke: #A80036; stroke-width: 1.5;" x1="416" x2="1034" y1="528" y2="528"/><ellipse cx="426" cy="539" fill="#84BE84" rx="3" ry="3" style="stroke: #038048; stroke-width: 1.0;"/><text fill="#000000" font-family="sans-serif" font-size="11" lengthAdjust="spacingAndGlyphs" textLength="87" x="435" y="542.2104">requestSignIn()</text><ellipse cx="426" cy="551.8047" fill="#84BE84" rx="3" ry="3" style="stroke: #038048; stroke-width: 1.0;"/><text fill="#000000" font-family="sans-serif" font-size="11" lengthAdjust="spacingAndGlyphs" textLength="399" x="435" y="555.0151">evaluateActivityResult(requestCode: Int, resultCode: Int, data: Intent?)</text><ellipse cx="426" cy="564.6094" fill="#84BE84" rx="3" ry="3" style="stroke: #038048; stroke-width: 1.0;"/><text fill="#000000" font-family="sans-serif" font-size="11" lengthAdjust="spacingAndGlyphs" textLength="594" x="435" y="567.8198">evaluateRequestPermissionsResult(requestCode: Int, permissions: Array&lt;String&gt;, grantResults: IntArray)</text><!--MD5=[55d1f437f05628c5e786be7f055fc3c8]
class app.splash.contract.SplashContract.Interactor--><rect codeLine="57" fill="#FEFECE" filter="url(#flmru7wlq1t82)" height="112.0234" id="app.splash.contract.SplashContract.Interactor" style="stroke: #A80036; stroke-width: 1.5;" width="413" x="510.5" y="786"/><ellipse cx="682.75" cy="802" fill="#B4A7E5" rx="11" ry="11" style="stroke: #A80036; stroke-width: 1.0;"/><path d="M683.7031,798.7813 L685.4219,798.7813 C685.8125,798.7813 686,798.75 686.125,798.6719 C686.3906,798.5156 686.5313,798.2344 686.5313,797.9375 C686.5313,797.6719 686.4219,797.4063 686.1875,797.2344 C686.0156,797.125 685.875,797.0938 685.4219,797.0938 L680.2813,797.0938 C679.8438,797.0938 679.7188,797.1094 679.5625,797.2031 C679.3125,797.3594 679.1563,797.6563 679.1563,797.9375 C679.1563,798.2188 679.2969,798.4688 679.5156,798.6406 C679.6719,798.75 679.8594,798.7813 680.2813,798.7813 L682,798.7813 L682,805.2969 L680.2813,805.2969 C679.8438,805.2969 679.7188,805.3125 679.5625,805.4219 C679.3125,805.5781 679.1563,805.8594 679.1563,806.1563 C679.1563,806.4063 679.2969,806.6719 679.5156,806.8281 C679.6719,806.9531 679.875,807 680.2813,807 L685.4219,807 C686.1719,807 686.5313,806.7188 686.5313,806.1563 C686.5313,805.875 686.4219,805.625 686.1875,805.4531 C686.0156,805.3281 685.875,805.2969 685.4219,805.2969 L683.7031,805.2969 L683.7031,798.7813 Z "/><text fill="#000000" font-family="sans-serif" font-size="12" font-style="italic" lengthAdjust="spacingAndGlyphs" textLength="60" x="703.25" y="806.1543">Interactor</text><line style="stroke: #A80036; stroke-width: 1.5;" x1="511.5" x2="922.5" y1="818" y2="818"/><line style="stroke: #A80036; stroke-width: 1.5;" x1="511.5" x2="922.5" y1="826" y2="826"/><ellipse cx="521.5" cy="837" fill="#84BE84" rx="3" ry="3" style="stroke: #038048; stroke-width: 1.0;"/><text fill="#000000" font-family="sans-serif" font-size="11" lengthAdjust="spacingAndGlyphs" textLength="161" x="530.5" y="840.2104">requestGoogleSilentSignIn()</text><ellipse cx="521.5" cy="849.8047" fill="#84BE84" rx="3" ry="3" style="stroke: #038048; stroke-width: 1.0;"/><text fill="#000000" font-family="sans-serif" font-size="11" lengthAdjust="spacingAndGlyphs" textLength="140" x="530.5" y="853.0151">requestUpdateUserInfo()</text><ellipse cx="521.5" cy="862.6094" fill="#84BE84" rx="3" ry="3" style="stroke: #038048; stroke-width: 1.0;"/><text fill="#000000" font-family="sans-serif" font-size="11" lengthAdjust="spacingAndGlyphs" textLength="387" x="530.5" y="865.8198">isGrantedRuntimePermissions(permissions: Array&lt;String&gt;): Boolean</text><ellipse cx="521.5" cy="875.4141" fill="#84BE84" rx="3" ry="3" style="stroke: #038048; stroke-width: 1.0;"/><text fill="#000000" font-family="sans-serif" font-size="11" lengthAdjust="spacingAndGlyphs" textLength="108" x="530.5" y="878.6245">isGoogleSignedIn()</text><ellipse cx="521.5" cy="888.2188" fill="#84BE84" rx="3" ry="3" style="stroke: #038048; stroke-width: 1.0;"/><text fill="#000000" font-family="sans-serif" font-size="11" lengthAdjust="spacingAndGlyphs" textLength="309" x="530.5" y="891.4292">isSucceededGoogleUserSignIn(data: Intent?): Boolean</text><!--MD5=[c4d7be2f8fc2ddbc79709a65a0a31b45]
class app.splash.contract.SplashContract.Router--><rect codeLine="68" fill="#FEFECE" filter="url(#flmru7wlq1t82)" height="86.4141" id="app.splash.contract.SplashContract.Router" style="stroke: #A80036; stroke-width: 1.5;" width="597" x="418.5" y="959"/><ellipse cx="692.75" cy="975" fill="#B4A7E5" rx="11" ry="11" style="stroke: #A80036; stroke-width: 1.0;"/><path d="M693.7031,971.7813 L695.4219,971.7813 C695.8125,971.7813 696,971.75 696.125,971.6719 C696.3906,971.5156 696.5313,971.2344 696.5313,970.9375 C696.5313,970.6719 696.4219,970.4063 696.1875,970.2344 C696.0156,970.125 695.875,970.0938 695.4219,970.0938 L690.2813,970.0938 C689.8438,970.0938 689.7188,970.1094 689.5625,970.2031 C689.3125,970.3594 689.1563,970.6563 689.1563,970.9375 C689.1563,971.2188 689.2969,971.4688 689.5156,971.6406 C689.6719,971.75 689.8594,971.7813 690.2813,971.7813 L692,971.7813 L692,978.2969 L690.2813,978.2969 C689.8438,978.2969 689.7188,978.3125 689.5625,978.4219 C689.3125,978.5781 689.1563,978.8594 689.1563,979.1563 C689.1563,979.4063 689.2969,979.6719 689.5156,979.8281 C689.6719,979.9531 689.875,980 690.2813,980 L695.4219,980 C696.1719,980 696.5313,979.7188 696.5313,979.1563 C696.5313,978.875 696.4219,978.625 696.1875,978.4531 C696.0156,978.3281 695.875,978.2969 695.4219,978.2969 L693.7031,978.2969 L693.7031,971.7813 Z "/><text fill="#000000" font-family="sans-serif" font-size="12" font-style="italic" lengthAdjust="spacingAndGlyphs" textLength="40" x="713.25" y="979.1543">Router</text><line style="stroke: #A80036; stroke-width: 1.5;" x1="419.5" x2="1014.5" y1="991" y2="991"/><line style="stroke: #A80036; stroke-width: 1.5;" x1="419.5" x2="1014.5" y1="999" y2="999"/><ellipse cx="429.5" cy="1010" fill="#84BE84" rx="3" ry="3" style="stroke: #038048; stroke-width: 1.0;"/><text fill="#000000" font-family="sans-serif" font-size="11" lengthAdjust="spacingAndGlyphs" textLength="502" x="438.5" y="1013.2104">startRuntimePermissions(activity: Activity, permissions: Array&lt;String&gt;, requestCode: Int)</text><ellipse cx="429.5" cy="1022.8047" fill="#84BE84" rx="3" ry="3" style="stroke: #038048; stroke-width: 1.0;"/><text fill="#000000" font-family="sans-serif" font-size="11" lengthAdjust="spacingAndGlyphs" textLength="571" x="438.5" y="1026.0151">startGoogleSignInActivity(activity: Activity, clientHolder: GoogleSignInClientHolder, requestCode: Int)</text><ellipse cx="429.5" cy="1035.6094" fill="#84BE84" rx="3" ry="3" style="stroke: #038048; stroke-width: 1.0;"/><text fill="#000000" font-family="sans-serif" font-size="11" lengthAdjust="spacingAndGlyphs" textLength="191" x="438.5" y="1038.8198">startMainActivity(activity: Activity)</text><!--MD5=[3c473f5619a54f75a0edff63b827d9bf]
class app.splash.contract.SplashContract.PresenterCallback--><rect codeLine="54" fill="#FEFECE" filter="url(#flmru7wlq1t82)" height="60.8047" id="app.splash.contract.SplashContract.PresenterCallback" style="stroke: #A80036; stroke-width: 1.5;" width="281" x="465.5" y="350"/><ellipse cx="548.25" cy="366" fill="#B4A7E5" rx="11" ry="11" style="stroke: #A80036; stroke-width: 1.0;"/><path d="M549.2031,362.7813 L550.9219,362.7813 C551.3125,362.7813 551.5,362.75 551.625,362.6719 C551.8906,362.5156 552.0313,362.2344 552.0313,361.9375 C552.0313,361.6719 551.9219,361.4063 551.6875,361.2344 C551.5156,361.125 551.375,361.0938 550.9219,361.0938 L545.7813,361.0938 C545.3438,361.0938 545.2188,361.1094 545.0625,361.2031 C544.8125,361.3594 544.6563,361.6563 544.6563,361.9375 C544.6563,362.2188 544.7969,362.4688 545.0156,362.6406 C545.1719,362.75 545.3594,362.7813 545.7813,362.7813 L547.5,362.7813 L547.5,369.2969 L545.7813,369.2969 C545.3438,369.2969 545.2188,369.3125 545.0625,369.4219 C544.8125,369.5781 544.6563,369.8594 544.6563,370.1563 C544.6563,370.4063 544.7969,370.6719 545.0156,370.8281 C545.1719,370.9531 545.375,371 545.7813,371 L550.9219,371 C551.6719,371 552.0313,370.7188 552.0313,370.1563 C552.0313,369.875 551.9219,369.625 551.6875,369.4531 C551.5156,369.3281 551.375,369.2969 550.9219,369.2969 L549.2031,369.2969 L549.2031,362.7813 Z "/><text fill="#000000" font-family="sans-serif" font-size="12" font-style="italic" lengthAdjust="spacingAndGlyphs" textLength="107" x="568.75" y="370.1543">PresenterCallback</text><line style="stroke: #A80036; stroke-width: 1.5;" x1="466.5" x2="745.5" y1="382" y2="382"/><line style="stroke: #A80036; stroke-width: 1.5;" x1="466.5" x2="745.5" y1="390" y2="390"/><ellipse cx="476.5" cy="401" fill="#84BE84" rx="3" ry="3" style="stroke: #038048; stroke-width: 1.0;"/><text fill="#000000" font-family="sans-serif" font-size="11" lengthAdjust="spacingAndGlyphs" textLength="255" x="485.5" y="404.2104">requestSignInResult(request: SignInRequest)</text><!--MD5=[bd8f5a99360b29d1d7282380101cd4bb]
class app.splash.contract.SplashContract.InteractorCallback--><rect codeLine="64" fill="#FEFECE" filter="url(#flmru7wlq1t82)" height="73.6094" id="app.splash.contract.SplashContract.InteractorCallback" style="stroke: #A80036; stroke-width: 1.5;" width="350" x="542" y="635"/><ellipse cx="657.75" cy="651" fill="#B4A7E5" rx="11" ry="11" style="stroke: #A80036; stroke-width: 1.0;"/><path d="M658.7031,647.7813 L660.4219,647.7813 C660.8125,647.7813 661,647.75 661.125,647.6719 C661.3906,647.5156 661.5313,647.2344 661.5313,646.9375 C661.5313,646.6719 661.4219,646.4063 661.1875,646.2344 C661.0156,646.125 660.875,646.0938 660.4219,646.0938 L655.2813,646.0938 C654.8438,646.0938 654.7188,646.1094 654.5625,646.2031 C654.3125,646.3594 654.1563,646.6563 654.1563,646.9375 C654.1563,647.2188 654.2969,647.4688 654.5156,647.6406 C654.6719,647.75 654.8594,647.7813 655.2813,647.7813 L657,647.7813 L657,654.2969 L655.2813,654.2969 C654.8438,654.2969 654.7188,654.3125 654.5625,654.4219 C654.3125,654.5781 654.1563,654.8594 654.1563,655.1563 C654.1563,655.4063 654.2969,655.6719 654.5156,655.8281 C654.6719,655.9531 654.875,656 655.2813,656 L660.4219,656 C661.1719,656 661.5313,655.7188 661.5313,655.1563 C661.5313,654.875 661.4219,654.625 661.1875,654.4531 C661.0156,654.3281 660.875,654.2969 660.4219,654.2969 L658.7031,654.2969 L658.7031,647.7813 Z "/><text fill="#000000" font-family="sans-serif" font-size="12" font-style="italic" lengthAdjust="spacingAndGlyphs" textLength="110" x="678.25" y="655.1543">InteractorCallback</text><line style="stroke: #A80036; stroke-width: 1.5;" x1="543" x2="891" y1="667" y2="667"/><line style="stroke: #A80036; stroke-width: 1.5;" x1="543" x2="891" y1="675" y2="675"/><ellipse cx="553" cy="686" fill="#84BE84" rx="3" ry="3" style="stroke: #038048; stroke-width: 1.0;"/><text fill="#000000" font-family="sans-serif" font-size="11" lengthAdjust="spacingAndGlyphs" textLength="324" x="562" y="689.2104">requestGoogleSilentSignInResult(isSucceeded: Boolean)</text><ellipse cx="553" cy="698.8047" fill="#84BE84" rx="3" ry="3" style="stroke: #038048; stroke-width: 1.0;"/><text fill="#000000" font-family="sans-serif" font-size="11" lengthAdjust="spacingAndGlyphs" textLength="303" x="562" y="702.0151">requestUpdateUserInfoResult(isSucceeded: Boolean)</text><!--MD5=[a73abe5de16d4ae8f7cebc11a3c6e1fe]
class core.viper.ViperContract.Presenter--><rect codeLine="89" fill="#FEFECE" filter="url(#flmru7wlq1t82)" height="60.8047" id="core.viper.ViperContract.Presenter" style="stroke: #A80036; stroke-width: 1.5;" width="89" x="1133.5" y="500.5"/><ellipse cx="1148.5" cy="516.5" fill="#B4A7E5" rx="11" ry="11" style="stroke: #A80036; stroke-width: 1.0;"/><path d="M1149.4531,513.2813 L1151.1719,513.2813 C1151.5625,513.2813 1151.75,513.25 1151.875,513.1719 C1152.1406,513.0156 1152.2813,512.7344 1152.2813,512.4375 C1152.2813,512.1719 1152.1719,511.9063 1151.9375,511.7344 C1151.7656,511.625 1151.625,511.5938 1151.1719,511.5938 L1146.0313,511.5938 C1145.5938,511.5938 1145.4688,511.6094 1145.3125,511.7031 C1145.0625,511.8594 1144.9063,512.1563 1144.9063,512.4375 C1144.9063,512.7188 1145.0469,512.9688 1145.2656,513.1406 C1145.4219,513.25 1145.6094,513.2813 1146.0313,513.2813 L1147.75,513.2813 L1147.75,519.7969 L1146.0313,519.7969 C1145.5938,519.7969 1145.4688,519.8125 1145.3125,519.9219 C1145.0625,520.0781 1144.9063,520.3594 1144.9063,520.6563 C1144.9063,520.9063 1145.0469,521.1719 1145.2656,521.3281 C1145.4219,521.4531 1145.625,521.5 1146.0313,521.5 L1151.1719,521.5 C1151.9219,521.5 1152.2813,521.2188 1152.2813,520.6563 C1152.2813,520.375 1152.1719,520.125 1151.9375,519.9531 C1151.7656,519.8281 1151.625,519.7969 1151.1719,519.7969 L1149.4531,519.7969 L1149.4531,513.2813 Z "/><text fill="#000000" font-family="sans-serif" font-size="12" font-style="italic" lengthAdjust="spacingAndGlyphs" textLength="57" x="1162.5" y="520.6543">Presenter</text><line style="stroke: #A80036; stroke-width: 1.5;" x1="1134.5" x2="1221.5" y1="532.5" y2="532.5"/><line style="stroke: #A80036; stroke-width: 1.5;" x1="1134.5" x2="1221.5" y1="540.5" y2="540.5"/><ellipse cx="1144.5" cy="551.5" fill="#84BE84" rx="3" ry="3" style="stroke: #038048; stroke-width: 1.0;"/><text fill="#000000" font-family="sans-serif" font-size="11" lengthAdjust="spacingAndGlyphs" textLength="51" x="1153.5" y="554.7104">destroy()</text><!--MD5=[587da1590874ac044f3f2eaaedd1375f]
class core.viper.ViperContract.PresenterCallback--><rect codeLine="92" fill="#FEFECE" filter="url(#flmru7wlq1t82)" height="60.8047" id="core.viper.ViperContract.PresenterCallback" style="stroke: #A80036; stroke-width: 1.5;" width="144" x="1107" y="350"/><ellipse cx="1124.25" cy="366" fill="#B4A7E5" rx="11" ry="11" style="stroke: #A80036; stroke-width: 1.0;"/><path d="M1125.2031,362.7813 L1126.9219,362.7813 C1127.3125,362.7813 1127.5,362.75 1127.625,362.6719 C1127.8906,362.5156 1128.0313,362.2344 1128.0313,361.9375 C1128.0313,361.6719 1127.9219,361.4063 1127.6875,361.2344 C1127.5156,361.125 1127.375,361.0938 1126.9219,361.0938 L1121.7813,361.0938 C1121.3438,361.0938 1121.2188,361.1094 1121.0625,361.2031 C1120.8125,361.3594 1120.6563,361.6563 1120.6563,361.9375 C1120.6563,362.2188 1120.7969,362.4688 1121.0156,362.6406 C1121.1719,362.75 1121.3594,362.7813 1121.7813,362.7813 L1123.5,362.7813 L1123.5,369.2969 L1121.7813,369.2969 C1121.3438,369.2969 1121.2188,369.3125 1121.0625,369.4219 C1120.8125,369.5781 1120.6563,369.8594 1120.6563,370.1563 C1120.6563,370.4063 1120.7969,370.6719 1121.0156,370.8281 C1121.1719,370.9531 1121.375,371 1121.7813,371 L1126.9219,371 C1127.6719,371 1128.0313,370.7188 1128.0313,370.1563 C1128.0313,369.875 1127.9219,369.625 1127.6875,369.4531 C1127.5156,369.3281 1127.375,369.2969 1126.9219,369.2969 L1125.2031,369.2969 L1125.2031,362.7813 Z "/><text fill="#000000" font-family="sans-serif" font-size="12" font-style="italic" lengthAdjust="spacingAndGlyphs" textLength="107" x="1138.75" y="370.1543">PresenterCallback</text><line style="stroke: #A80036; stroke-width: 1.5;" x1="1108" x2="1250" y1="382" y2="382"/><line style="stroke: #A80036; stroke-width: 1.5;" x1="1108" x2="1250" y1="390" y2="390"/><ellipse cx="1118" cy="401" fill="#84BE84" rx="3" ry="3" style="stroke: #038048; stroke-width: 1.0;"/><text fill="#000000" font-family="sans-serif" font-size="11" lengthAdjust="spacingAndGlyphs" textLength="118" x="1127" y="404.2104">getActivity(): Activity</text><!--MD5=[ec1a8c1a0905d2094598a56ebb97c9ab]
class core.viper.ViperContract.Interactor--><rect codeLine="95" fill="#FEFECE" filter="url(#flmru7wlq1t82)" height="60.8047" id="core.viper.ViperContract.Interactor" style="stroke: #A80036; stroke-width: 1.5;" width="92" x="1107" y="811.5"/><ellipse cx="1122" cy="827.5" fill="#B4A7E5" rx="11" ry="11" style="stroke: #A80036; stroke-width: 1.0;"/><path d="M1122.9531,824.2813 L1124.6719,824.2813 C1125.0625,824.2813 1125.25,824.25 1125.375,824.1719 C1125.6406,824.0156 1125.7813,823.7344 1125.7813,823.4375 C1125.7813,823.1719 1125.6719,822.9063 1125.4375,822.7344 C1125.2656,822.625 1125.125,822.5938 1124.6719,822.5938 L1119.5313,822.5938 C1119.0938,822.5938 1118.9688,822.6094 1118.8125,822.7031 C1118.5625,822.8594 1118.4063,823.1563 1118.4063,823.4375 C1118.4063,823.7188 1118.5469,823.9688 1118.7656,824.1406 C1118.9219,824.25 1119.1094,824.2813 1119.5313,824.2813 L1121.25,824.2813 L1121.25,830.7969 L1119.5313,830.7969 C1119.0938,830.7969 1118.9688,830.8125 1118.8125,830.9219 C1118.5625,831.0781 1118.4063,831.3594 1118.4063,831.6563 C1118.4063,831.9063 1118.5469,832.1719 1118.7656,832.3281 C1118.9219,832.4531 1119.125,832.5 1119.5313,832.5 L1124.6719,832.5 C1125.4219,832.5 1125.7813,832.2188 1125.7813,831.6563 C1125.7813,831.375 1125.6719,831.125 1125.4375,830.9531 C1125.2656,830.8281 1125.125,830.7969 1124.6719,830.7969 L1122.9531,830.7969 L1122.9531,824.2813 Z "/><text fill="#000000" font-family="sans-serif" font-size="12" font-style="italic" lengthAdjust="spacingAndGlyphs" textLength="60" x="1136" y="831.6543">Interactor</text><line style="stroke: #A80036; stroke-width: 1.5;" x1="1108" x2="1198" y1="843.5" y2="843.5"/><line style="stroke: #A80036; stroke-width: 1.5;" x1="1108" x2="1198" y1="851.5" y2="851.5"/><ellipse cx="1118" cy="862.5" fill="#84BE84" rx="3" ry="3" style="stroke: #038048; stroke-width: 1.0;"/><text fill="#000000" font-family="sans-serif" font-size="11" lengthAdjust="spacingAndGlyphs" textLength="51" x="1127" y="865.7104">destroy()</text><!--MD5=[e77a630e059dc31e4db28b962d60c6d2]
class core.viper.ViperContract.InteractorCallback--><rect codeLine="98" fill="#FEFECE" filter="url(#flmru7wlq1t82)" height="48" id="core.viper.ViperContract.InteractorCallback" style="stroke: #A80036; stroke-width: 1.5;" width="142" x="1107" y="648"/><ellipse cx="1122" cy="664" fill="#B4A7E5" rx="11" ry="11" style="stroke: #A80036; stroke-width: 1.0;"/><path d="M1122.9531,660.7813 L1124.6719,660.7813 C1125.0625,660.7813 1125.25,660.75 1125.375,660.6719 C1125.6406,660.5156 1125.7813,660.2344 1125.7813,659.9375 C1125.7813,659.6719 1125.6719,659.4063 1125.4375,659.2344 C1125.2656,659.125 1125.125,659.0938 1124.6719,659.0938 L1119.5313,659.0938 C1119.0938,659.0938 1118.9688,659.1094 1118.8125,659.2031 C1118.5625,659.3594 1118.4063,659.6563 1118.4063,659.9375 C1118.4063,660.2188 1118.5469,660.4688 1118.7656,660.6406 C1118.9219,660.75 1119.1094,660.7813 1119.5313,660.7813 L1121.25,660.7813 L1121.25,667.2969 L1119.5313,667.2969 C1119.0938,667.2969 1118.9688,667.3125 1118.8125,667.4219 C1118.5625,667.5781 1118.4063,667.8594 1118.4063,668.1563 C1118.4063,668.4063 1118.5469,668.6719 1118.7656,668.8281 C1118.9219,668.9531 1119.125,669 1119.5313,669 L1124.6719,669 C1125.4219,669 1125.7813,668.7188 1125.7813,668.1563 C1125.7813,667.875 1125.6719,667.625 1125.4375,667.4531 C1125.2656,667.3281 1125.125,667.2969 1124.6719,667.2969 L1122.9531,667.2969 L1122.9531,660.7813 Z "/><text fill="#000000" font-family="sans-serif" font-size="12" font-style="italic" lengthAdjust="spacingAndGlyphs" textLength="110" x="1136" y="668.1543">InteractorCallback</text><line style="stroke: #A80036; stroke-width: 1.5;" x1="1108" x2="1248" y1="680" y2="680"/><line style="stroke: #A80036; stroke-width: 1.5;" x1="1108" x2="1248" y1="688" y2="688"/><!--MD5=[1825269ddad9ed22789ebb49bf96ca62]
class core.viper.ViperContract.Router--><rect codeLine="99" fill="#FEFECE" filter="url(#flmru7wlq1t82)" height="48" id="core.viper.ViperContract.Router" style="stroke: #A80036; stroke-width: 1.5;" width="72" x="1109" y="978"/><ellipse cx="1124" cy="994" fill="#B4A7E5" rx="11" ry="11" style="stroke: #A80036; stroke-width: 1.0;"/><path d="M1124.9531,990.7813 L1126.6719,990.7813 C1127.0625,990.7813 1127.25,990.75 1127.375,990.6719 C1127.6406,990.5156 1127.7813,990.2344 1127.7813,989.9375 C1127.7813,989.6719 1127.6719,989.4063 1127.4375,989.2344 C1127.2656,989.125 1127.125,989.0938 1126.6719,989.0938 L1121.5313,989.0938 C1121.0938,989.0938 1120.9688,989.1094 1120.8125,989.2031 C1120.5625,989.3594 1120.4063,989.6563 1120.4063,989.9375 C1120.4063,990.2188 1120.5469,990.4688 1120.7656,990.6406 C1120.9219,990.75 1121.1094,990.7813 1121.5313,990.7813 L1123.25,990.7813 L1123.25,997.2969 L1121.5313,997.2969 C1121.0938,997.2969 1120.9688,997.3125 1120.8125,997.4219 C1120.5625,997.5781 1120.4063,997.8594 1120.4063,998.1563 C1120.4063,998.4063 1120.5469,998.6719 1120.7656,998.8281 C1120.9219,998.9531 1121.125,999 1121.5313,999 L1126.6719,999 C1127.4219,999 1127.7813,998.7188 1127.7813,998.1563 C1127.7813,997.875 1127.6719,997.625 1127.4375,997.4531 C1127.2656,997.3281 1127.125,997.2969 1126.6719,997.2969 L1124.9531,997.2969 L1124.9531,990.7813 Z "/><text fill="#000000" font-family="sans-serif" font-size="12" font-style="italic" lengthAdjust="spacingAndGlyphs" textLength="40" x="1138" y="998.1543">Router</text><line style="stroke: #A80036; stroke-width: 1.5;" x1="1110" x2="1180" y1="1010" y2="1010"/><line style="stroke: #A80036; stroke-width: 1.5;" x1="1110" x2="1180" y1="1018" y2="1018"/><!--MD5=[822488e2f5e5d7044a8c33b25b1ca95a]
link app.splash.entity.SignInRequest to app.splash.SplashActivity--><!--MD5=[d1b14fe910d579f1dd339fb4a231de99]
reverse link app.splash.SplashActivity to app.splash.SplashPresenter--><path codeLine="29" d="M236.224,417.855 C237.16,445.661 238.423,483.156 239.224,506.96 " fill="none" id="app.splash.SplashActivity&lt;-app.splash.SplashPresenter" style="stroke: #A80036; stroke-width: 1.0;"/><polygon fill="#FFFFFF" points="235.781,404.703,231.985,410.8341,236.1845,416.6962,239.9805,410.5651,235.781,404.703" style="stroke: #A80036; stroke-width: 1.0;"/><rect fill="none" height="6" style="stroke: #C82930; stroke-width: 1.0;" width="6" x="241" y="447.0664"/><text fill="#000000" font-family="sans-serif" font-size="13" lengthAdjust="spacingAndGlyphs" textLength="62" x="251" y="454.0669">presenter</text><!--MD5=[f91676235e457bf53bba641bc0a61a35]
reverse link app.splash.SplashPresenter to app.splash.SplashInteractor--><path codeLine="30" d="M234.595,568.305 C226.02,625.911 209.339,737.961 200.258,798.964 " fill="none" id="app.splash.SplashPresenter&lt;-app.splash.SplashInteractor" style="stroke: #A80036; stroke-width: 1.0;"/><polygon fill="#FFFFFF" points="236.543,555.225,231.7031,560.5706,234.776,567.0942,239.6159,561.7486,236.543,555.225" style="stroke: #A80036; stroke-width: 1.0;"/><rect fill="none" height="6" style="stroke: #C82930; stroke-width: 1.0;" width="6" x="228" y="669.5664"/><text fill="#000000" font-family="sans-serif" font-size="13" lengthAdjust="spacingAndGlyphs" textLength="62" x="238" y="676.5669">interactor</text><!--MD5=[f6d4c8b2b3fb2120ac8d0b5658ad082d]
reverse link app.splash.SplashPresenter to app.splash.SplashRouter--><path codeLine="31" d="M206.492,564.578 C162.872,609.578 88.813,695.509 60,786 C44.8975,833.431 39.6938,852.552 60,898 C75.3073,932.259 108.266,959.852 134.991,977.824 " fill="none" id="app.splash.SplashPresenter&lt;-app.splash.SplashRouter" style="stroke: #A80036; stroke-width: 1.0;"/><polygon fill="#FFFFFF" points="215.834,555.086,208.7745,556.5568,207.4169,563.6389,214.4764,562.1682,215.834,555.086" style="stroke: #A80036; stroke-width: 1.0;"/><rect fill="none" height="6" style="stroke: #C82930; stroke-width: 1.0;" width="6" x="82" y="745.0664"/><text fill="#000000" font-family="sans-serif" font-size="13" lengthAdjust="spacingAndGlyphs" textLength="39" x="92" y="752.0669">router</text><!--MD5=[4a3fa21c44f6d76d85a5cbf9aed1c6f4]
link app.splash.SplashPresenter to app.splash.contract.SplashContract.Presenter--><path codeLine="33" d="M305.361,531 C335.138,531 364.914,531 394.69,531 " fill="none" id="app.splash.SplashPresenter-&gt;app.splash.contract.SplashContract.Presenter" style="stroke: #A80036; stroke-width: 1.0; stroke-dasharray: 7.0,7.0;"/><polygon fill="none" points="394.779,524,414.779,531,394.779,538,394.779,524" style="stroke: #A80036; stroke-width: 1.0;"/><!--MD5=[89c9c81a6a5449b73b0f6e47e1c1018e]
link app.splash.contract.SplashContract.Presenter to app.splash.SplashPresenter--><!--MD5=[88f2c8acc0354bac6f3d02bb07be8272]
link app.splash.SplashInteractor to app.splash.contract.SplashContract.Interactor--><path codeLine="34" d="M310.705,842 C370.474,842 430.243,842 490.012,842 " fill="none" id="app.splash.SplashInteractor-&gt;app.splash.contract.SplashContract.Interactor" style="stroke: #A80036; stroke-width: 1.0; stroke-dasharray: 7.0,7.0;"/><polygon fill="none" points="490.281,835,510.281,842,490.281,849,490.281,835" style="stroke: #A80036; stroke-width: 1.0;"/><!--MD5=[23aba68c0758d8751b4b52e71a0879da]
link app.splash.contract.SplashContract.Interactor to app.splash.SplashInteractor--><!--MD5=[f3b453277492f0dfdc03350d28f6acee]
link app.splash.SplashRouter to app.splash.contract.SplashContract.Router--><path codeLine="35" d="M230.576,1002 C286.402,1002 342.228,1002 398.054,1002 " fill="none" id="app.splash.SplashRouter-&gt;app.splash.contract.SplashContract.Router" style="stroke: #A80036; stroke-width: 1.0; stroke-dasharray: 7.0,7.0;"/><polygon fill="none" points="398.21,994.9999,418.21,1002,398.21,1008.9999,398.21,994.9999" style="stroke: #A80036; stroke-width: 1.0;"/><!--MD5=[e26c28e3b4e72dbec67da16904f3d5ba]
link app.splash.contract.SplashContract.Router to app.splash.SplashRouter--><!--MD5=[63e12b800cfdf6b28eaf388d7f2a2de3]
link app.splash.SplashActivity to app.splash.contract.SplashContract.PresenterCallback--><path codeLine="37" d="M261.192,356.442 C290.561,331.454 340.871,294.375 392.5,282.5 C452.194,268.77 515.329,304.879 557.322,337.075 " fill="none" id="app.splash.SplashActivity-&gt;app.splash.contract.SplashContract.PresenterCallback" style="stroke: #A80036; stroke-width: 1.0; stroke-dasharray: 7.0,7.0;"/><polygon fill="none" points="561.938,331.805,573.14,349.791,553.167,342.716,561.938,331.805" style="stroke: #A80036; stroke-width: 1.0;"/><!--MD5=[8a9d7373beac840ed398afebcaa45f42]
reverse link app.splash.SplashPresenter to app.splash.contract.SplashContract.PresenterCallback--><path codeLine="38" d="M309.104,501.962 C373.144,475.979 468.073,437.462 533.253,411.016 " fill="none" id="app.splash.SplashPresenter&lt;-app.splash.contract.SplashContract.PresenterCallback" style="stroke: #A80036; stroke-width: 1.0;"/><polygon fill="#FFFFFF" points="296.726,506.984,303.7896,508.4351,307.8459,502.473,300.7823,501.0219,296.726,506.984" style="stroke: #A80036; stroke-width: 1.0;"/><rect fill="none" height="6" style="stroke: #C82930; stroke-width: 1.0;" width="6" x="459" y="447.0664"/><text fill="#000000" font-family="sans-serif" font-size="13" lengthAdjust="spacingAndGlyphs" textLength="51" x="469" y="454.0669">callback</text><!--MD5=[28576bd7b8dcbd86209090d56d5c73fa]
link app.splash.SplashPresenter to app.splash.contract.SplashContract.InteractorCallback--><path codeLine="39" d="M305.325,551.036 C374.142,571.09 484.694,603.305 573.915,629.304 " fill="none" id="app.splash.SplashPresenter-&gt;app.splash.contract.SplashContract.InteractorCallback" style="stroke: #A80036; stroke-width: 1.0; stroke-dasharray: 7.0,7.0;"/><polygon fill="none" points="575.942,622.604,593.185,634.92,572.025,636.045,575.942,622.604" style="stroke: #A80036; stroke-width: 1.0;"/><!--MD5=[752984750464c7ee6ba6018813c5518f]
reverse link app.splash.SplashInteractor to app.splash.contract.SplashContract.InteractorCallback--><path codeLine="40" d="M323.093,799.532 C409.508,771.774 522.127,735.598 604.803,709.04 " fill="none" id="app.splash.SplashInteractor&lt;-app.splash.contract.SplashContract.InteractorCallback" style="stroke: #A80036; stroke-width: 1.0;"/><polygon fill="#FFFFFF" points="310.54,803.565,317.4758,805.5384,321.9651,799.8951,315.0292,797.9217,310.54,803.565" style="stroke: #A80036; stroke-width: 1.0;"/><rect fill="none" height="6" style="stroke: #C82930; stroke-width: 1.0;" width="6" x="506" y="745.0664"/><text fill="#000000" font-family="sans-serif" font-size="13" lengthAdjust="spacingAndGlyphs" textLength="51" x="516" y="752.0669">callback</text><!--MD5=[60fbdfd0700c1e091e04aab4c680ae02]
link app.splash.contract.SplashContract.PresenterCallback to app.splash.contract.SplashContract.Presenter--><!--MD5=[b3bf049ce59d2595879a1fd8288beef5]
link app.splash.contract.SplashContract.Presenter to app.splash.contract.SplashContract.InteractorCallback--><!--MD5=[00b6d89bc9c196133b7cb6c7661407e9]
link app.splash.contract.SplashContract.InteractorCallback to app.splash.contract.SplashContract.Interactor--><!--MD5=[77b25775f01acfdb62435ac9d3d43dd8]
link app.splash.contract.SplashContract.Interactor to app.splash.contract.SplashContract.Router--><!--MD5=[2e06be8c3c75336d7d11f1a2914bd201]
link app.splash.contract.SplashContract.Presenter to core.viper.ViperContract.Presenter--><path codeLine="79" d="M1035.11,531 C1061.08,531 1087.04,531 1113.01,531 " fill="none" id="app.splash.contract.SplashContract.Presenter-&gt;core.viper.ViperContract.Presenter" style="stroke: #A80036; stroke-width: 1.0; stroke-dasharray: 7.0,7.0;"/><polygon fill="none" points="1113.35,524,1133.35,531,1113.35,538,1113.35,524" style="stroke: #A80036; stroke-width: 1.0;"/><!--MD5=[b2995618d5b21c8d3c2860a72f4dc93c]
link app.splash.contract.SplashContract.PresenterCallback to core.viper.ViperContract.PresenterCallback--><path codeLine="80" d="M746.732,380.5 C860.078,380.5 973.425,380.5 1086.77,380.5 " fill="none" id="app.splash.contract.SplashContract.PresenterCallback-&gt;core.viper.ViperContract.PresenterCallback" style="stroke: #A80036; stroke-width: 1.0; stroke-dasharray: 7.0,7.0;"/><polygon fill="none" points="1086.81,373.5,1106.81,380.5,1086.81,387.5,1086.81,373.5" style="stroke: #A80036; stroke-width: 1.0;"/><!--MD5=[89165bf8658882d720ff072a5eccd2c7]
link app.splash.contract.SplashContract.Interactor to core.viper.ViperContract.Interactor--><path codeLine="81" d="M923.504,842 C977.929,842 1032.35,842 1086.78,842 " fill="none" id="app.splash.contract.SplashContract.Interactor-&gt;core.viper.ViperContract.Interactor" style="stroke: #A80036; stroke-width: 1.0; stroke-dasharray: 7.0,7.0;"/><polygon fill="none" points="1086.83,835,1106.83,842,1086.83,849,1086.83,835" style="stroke: #A80036; stroke-width: 1.0;"/><!--MD5=[786f0f25dfa8f76932e88831b62b0fa7]
link app.splash.contract.SplashContract.InteractorCallback to core.viper.ViperContract.InteractorCallback--><path codeLine="82" d="M892.126,672 C956.979,672 1021.83,672 1086.68,672 " fill="none" id="app.splash.contract.SplashContract.InteractorCallback-&gt;core.viper.ViperContract.InteractorCallback" style="stroke: #A80036; stroke-width: 1.0; stroke-dasharray: 7.0,7.0;"/><polygon fill="none" points="1086.81,665,1106.81,672,1086.81,679,1086.81,665" style="stroke: #A80036; stroke-width: 1.0;"/><!--MD5=[9cb584ed7fa3fabf5331b65e42323807]
link app.splash.contract.SplashContract.Router to core.viper.ViperContract.Router--><path codeLine="83" d="M1015.85,1002 C1040.09,1002 1064.33,1002 1088.57,1002 " fill="none" id="app.splash.contract.SplashContract.Router-&gt;core.viper.ViperContract.Router" style="stroke: #A80036; stroke-width: 1.0; stroke-dasharray: 7.0,7.0;"/><polygon fill="none" points="1088.93,994.9999,1108.93,1002,1088.93,1008.9999,1088.93,994.9999" style="stroke: #A80036; stroke-width: 1.0;"/><!--MD5=[627c911084275ce60a3872a5173c4f97]
reverse link app.splash to app.splash.contract.SplashContract--><path d="M343.0644,201.8804 C343.1415,202.1661 343.219,202.4533 343.2969,202.7421 C343.6086,203.897 343.9269,205.0765 344.2514,206.2789 C349.4437,225.5185 356.2274,250.6548 363.0104,275.788 C369.7933,300.9213 376.5755,326.0515 381.7646,345.2791 C382.089,346.4808 382.4071,347.6595 382.7186,348.8136 C382.7964,349.1022 382.8739,349.3892 382.9509,349.6746 " fill="none" id="app.splash&lt;-app.splash.contract.SplashContract" style="stroke: #A80036; stroke-width: 1.0;"/><ellipse cx="345.1488" cy="209.6041" fill="#FFFFFF" rx="8" ry="8" style="stroke: #A80036; stroke-width: 1.0;"/><line style="stroke: #A80036; stroke-width: 1.0;" x1="347.2332" x2="343.0644" y1="217.3278" y2="201.8804"/><line style="stroke: #A80036; stroke-width: 1.0;" x1="337.4251" x2="352.8725" y1="211.6886" y2="207.5197"/><!--MD5=[87f8738a1428cad8e95c20e665af5898]
link core.viper.ViperContract.PresenterCallback to core.viper.ViperContract.Presenter--><!--MD5=[6573e0256b6fb7c6a0505a89fdc8309d]
link core.viper.ViperContract.Presenter to core.viper.ViperContract.InteractorCallback--><!--MD5=[f8d939142a6dbc42db09fcc57fec4775]
link core.viper.ViperContract.InteractorCallback to core.viper.ViperContract.Interactor--><!--MD5=[37f12353853fdc756113b71d7b56ae43]
link core.viper.ViperContract.Interactor to core.viper.ViperContract.Router--><!--MD5=[f8fb49ebcce8ca78e93e6cda101618e2]
@startuml
namespace app.splash #FFFFEE {

  namespace entity {
    enum SignInRequest {
      RUNTIME_PERMISSIONS
      GOOGLE_SIGN_IN
      UPDATE_USER_INFO
      COMPLETED
      ==
      + code: Int
      + failedTitle: Int
      + failedMessage: Int
      __
      + next(): SignInRequest
    }

    SignInRequest -[hidden]-> app.splash.SplashActivity
  }

  class SplashActivity
  class SplashPresenter
  class SplashInteractor {
    - appDatabase: AppDatabase
    - googleSignInApi: GoogleSignInApi
    - googleOAuth2Api: GoogleOAuth2Api
  }
  class SplashRouter

  SplashActivity o- - SplashPresenter: -presenter
  SplashPresenter o- - - SplashInteractor: -interactor
  SplashPresenter o- - - - SplashRouter: -router

  SplashPresenter .|> app.splash.contract.SplashContract.Presenter
  SplashInteractor .|> app.splash.contract.SplashContract.Interactor
  SplashRouter .|> app.splash.contract.SplashContract.Router

  SplashActivity ..|> app.splash.contract.SplashContract.PresenterCallback
  SplashPresenter o- - app.splash.contract.SplashContract.PresenterCallback: -callback
  SplashPresenter ..|> app.splash.contract.SplashContract.InteractorCallback
  SplashInteractor o- - app.splash.contract.SplashContract.InteractorCallback: -callback

  app.splash.contract.SplashContract.Presenter -[hidden]> SplashPresenter
  app.splash.contract.SplashContract.Interactor -[hidden]> SplashInteractor
  app.splash.contract.SplashContract.Router -[hidden]> SplashRouter

}

namespace app.splash.contract.SplashContract #EEEEEE {
  interface Presenter {
    + requestSignIn()
    + evaluateActivityResult(requestCode: Int, resultCode: Int, data: Intent?)
    + evaluateRequestPermissionsResult(requestCode: Int, permissions: Array<String>, grantResults: IntArray)
  }
  interface PresenterCallback {
    + requestSignInResult(request: SignInRequest)
  }
  interface Interactor {
    + requestGoogleSilentSignIn()
    + requestUpdateUserInfo()
    + isGrantedRuntimePermissions(permissions: Array<String>): Boolean
    + isGoogleSignedIn()
    + isSucceededGoogleUserSignIn(data: Intent?): Boolean
  }
  interface InteractorCallback {
    + requestGoogleSilentSignInResult(isSucceeded: Boolean)
    + requestUpdateUserInfoResult(isSucceeded: Boolean)
  }
  interface Router {
    + startRuntimePermissions(activity: Activity, permissions: Array<String>, requestCode: Int)
    + startGoogleSignInActivity(activity: Activity, clientHolder: GoogleSignInClientHolder, requestCode: Int)
    + startMainActivity(activity: Activity)
  }

  PresenterCallback -[hidden]-> Presenter
  Presenter -[hidden]-> InteractorCallback
  InteractorCallback -[hidden]-> Interactor
  Interactor -[hidden]-> Router

  Presenter .|> core.viper.ViperContract.Presenter
  PresenterCallback .|> core.viper.ViperContract.PresenterCallback
  Interactor .|> core.viper.ViperContract.Interactor
  InteractorCallback .|> core.viper.ViperContract.InteractorCallback
  Router .|> core.viper.ViperContract.Router
}

app.splash +- - app.splash.contract.SplashContract

namespace core.viper.ViperContract #DDDDDD {
  interface Presenter {
    + destroy()
  }
  interface PresenterCallback {
    + getActivity(): Activity
  }
  interface Interactor {
    + destroy()
  }
  interface InteractorCallback
  interface Router

  PresenterCallback -[hidden]-> Presenter
  Presenter -[hidden]-> InteractorCallback
  InteractorCallback -[hidden]-> Interactor
  Interactor -[hidden]-> Router
}
@enduml

PlantUML version 1.2020.16beta7(Unknown compile time)
(GPL source distribution)
Java Runtime: Java(TM) SE Runtime Environment
JVM: Java HotSpot(TM) 64-Bit Server VM
Default Encoding: UTF-8
Language: en
Country: US
--></g></svg>