<?xml version="1.0" encoding="UTF-8" standalone="no"?><svg xmlns="http://www.w3.org/2000/svg" xmlns:xlink="http://www.w3.org/1999/xlink" contentScriptType="application/ecmascript" contentStyleType="text/css" height="600px" preserveAspectRatio="none" style="width:2120px;height:600px;" version="1.1" viewBox="0 0 2120 600" width="2120px" zoomAndPan="magnify"><defs><filter height="300%" id="fb7asdgllihsx" width="300%" x="-1" y="-1"><feGaussianBlur result="blurOut" stdDeviation="2.0"/><feColorMatrix in="blurOut" result="blurOut2" type="matrix" values="0 0 0 0 0 0 0 0 0 0 0 0 0 0 0 0 0 0 .4 0"/><feOffset dx="4.0" dy="4.0" in="blurOut2" result="blurOut3"/><feBlend in="SourceGraphic" in2="blurOut3" mode="normal"/></filter></defs><g><!--MD5=[2a96228d3f581488ff170e4c22043396]
cluster app.splash--><polygon fill="#FFFFFF" filter="url(#fb7asdgllihsx)" points="581,24,675,24,682,46.2969,743,46.2969,743,123,581,123,581,24" style="stroke: #000000; stroke-width: 1.5;"/><line style="stroke: #000000; stroke-width: 1.5;" x1="581" x2="682" y1="46.2969" y2="46.2969"/><text fill="#000000" font-family="sans-serif" font-size="14" font-weight="bold" lengthAdjust="spacingAndGlyphs" textLength="88" x="585" y="38.9951">app.splash</text><!--MD5=[3ce32bb550aa839ce29f258eb10ccb5c]
cluster core.webapi--><polygon fill="#FFFFFF" filter="url(#fb7asdgllihsx)" points="22,178.5,125,178.5,132,200.7969,1424,200.7969,1424,588,22,588,22,178.5" style="stroke: #000000; stroke-width: 1.5;"/><line style="stroke: #000000; stroke-width: 1.5;" x1="22" x2="132" y1="200.7969" y2="200.7969"/><text fill="#000000" font-family="sans-serif" font-size="14" font-weight="bold" lengthAdjust="spacingAndGlyphs" textLength="97" x="26" y="193.4951">core.webapi</text><!--MD5=[4d444dac6e5c3bced4931249b00abad2]
cluster core.webapi.client--><polygon fill="#FFFFFF" filter="url(#fb7asdgllihsx)" points="1182,247,1234,247,1241,269.2969,1400,269.2969,1400,359,1182,359,1182,247" style="stroke: #000000; stroke-width: 1.5;"/><line style="stroke: #000000; stroke-width: 1.5;" x1="1182" x2="1241" y1="269.2969" y2="269.2969"/><text fill="#000000" font-family="sans-serif" font-size="14" font-weight="bold" lengthAdjust="spacingAndGlyphs" textLength="46" x="1186" y="261.9951">client</text><!--MD5=[27bf8290cf25a9153e41c9ef9509c68c]
cluster core.webapi.entity--><polygon fill="#FFFFFF" filter="url(#fb7asdgllihsx)" points="890,221.5,945,221.5,952,243.7969,1158,243.7969,1158,564,890,564,890,221.5" style="stroke: #000000; stroke-width: 1.5;"/><line style="stroke: #000000; stroke-width: 1.5;" x1="890" x2="952" y1="243.7969" y2="243.7969"/><text fill="#000000" font-family="sans-serif" font-size="14" font-weight="bold" lengthAdjust="spacingAndGlyphs" textLength="49" x="894" y="236.4951">entity</text><!--MD5=[36dcaeb2ee32dc79d2fef22c819c4e4a]
cluster core.database--><polygon fill="#FFFFFF" filter="url(#fb7asdgllihsx)" points="1448,172,1570,172,1577,194.2969,2098,194.2969,2098,415,1448,415,1448,172" style="stroke: #000000; stroke-width: 1.5;"/><line style="stroke: #000000; stroke-width: 1.5;" x1="1448" x2="1577" y1="194.2969" y2="194.2969"/><text fill="#000000" font-family="sans-serif" font-size="14" font-weight="bold" lengthAdjust="spacingAndGlyphs" textLength="116" x="1452" y="186.9951">core.database</text><!--MD5=[ad949281d8795506a47ed9505af68aa3]
cluster core.database.entity--><polygon fill="#FFFFFF" filter="url(#fb7asdgllihsx)" points="1806,215,1861,215,1868,237.2969,2074,237.2969,2074,391,1806,391,1806,215" style="stroke: #000000; stroke-width: 1.5;"/><line style="stroke: #000000; stroke-width: 1.5;" x1="1806" x2="1868" y1="237.2969" y2="237.2969"/><text fill="#000000" font-family="sans-serif" font-size="14" font-weight="bold" lengthAdjust="spacingAndGlyphs" textLength="49" x="1810" y="229.9951">entity</text><!--MD5=[46444ac2f8e682ff904afb8e89ce9f78]
class app.splash.SplashInteractor--><rect fill="#FEFECE" filter="url(#fb7asdgllihsx)" height="48" id="app.splash.SplashInteractor" style="stroke: #A80036; stroke-width: 1.5;" width="130" x="597" y="59"/><ellipse cx="612" cy="75" fill="#ADD1B2" rx="11" ry="11" style="stroke: #A80036; stroke-width: 1.0;"/><path d="M614.3438,70.6719 C613.4063,70.2344 612.8125,70.0938 611.9375,70.0938 C609.3125,70.0938 607.3125,72.1719 607.3125,74.8906 L607.3125,76.0156 C607.3125,78.5938 609.4219,80.4844 612.3125,80.4844 C613.5313,80.4844 614.6875,80.1875 615.4375,79.6406 C616.0156,79.2344 616.3438,78.7813 616.3438,78.3906 C616.3438,77.9375 615.9531,77.5469 615.4844,77.5469 C615.2656,77.5469 615.0625,77.625 614.875,77.8125 C614.4219,78.2969 614.4219,78.2969 614.2344,78.3906 C613.8125,78.6563 613.125,78.7813 612.3594,78.7813 C610.3125,78.7813 609.0156,77.6875 609.0156,75.9844 L609.0156,74.8906 C609.0156,73.1094 610.2656,71.7969 612,71.7969 C612.5781,71.7969 613.1875,71.9531 613.6563,72.2031 C614.1406,72.4844 614.3125,72.7031 614.4063,73.1094 C614.4688,73.5156 614.5,73.6406 614.6406,73.7656 C614.7813,73.9063 615.0156,74.0156 615.2344,74.0156 C615.5,74.0156 615.7656,73.875 615.9375,73.6563 C616.0469,73.5 616.0781,73.3125 616.0781,72.8906 L616.0781,71.4688 C616.0781,71.0313 616.0625,70.9063 615.9688,70.75 C615.8125,70.4844 615.5313,70.3438 615.2344,70.3438 C614.9375,70.3438 614.7344,70.4375 614.5156,70.75 L614.3438,70.6719 Z "/><text fill="#000000" font-family="sans-serif" font-size="12" lengthAdjust="spacingAndGlyphs" textLength="98" x="626" y="79.1543">SplashInteractor</text><line style="stroke: #A80036; stroke-width: 1.5;" x1="598" x2="726" y1="91" y2="91"/><line style="stroke: #A80036; stroke-width: 1.5;" x1="598" x2="726" y1="99" y2="99"/><!--MD5=[9dc4add96efb686b57691790338143fd]
class core.webapi.GoogleSignInApi--><rect fill="#FEFECE" filter="url(#fb7asdgllihsx)" height="124.8281" id="core.webapi.GoogleSignInApi" style="stroke: #A80036; stroke-width: 1.5;" width="377" x="38.5" y="250"/><ellipse cx="173.25" cy="266" fill="#B4A7E5" rx="11" ry="11" style="stroke: #A80036; stroke-width: 1.0;"/><path d="M174.2031,262.7813 L175.9219,262.7813 C176.3125,262.7813 176.5,262.75 176.625,262.6719 C176.8906,262.5156 177.0313,262.2344 177.0313,261.9375 C177.0313,261.6719 176.9219,261.4063 176.6875,261.2344 C176.5156,261.125 176.375,261.0938 175.9219,261.0938 L170.7813,261.0938 C170.3438,261.0938 170.2188,261.1094 170.0625,261.2031 C169.8125,261.3594 169.6563,261.6563 169.6563,261.9375 C169.6563,262.2188 169.7969,262.4688 170.0156,262.6406 C170.1719,262.75 170.3594,262.7813 170.7813,262.7813 L172.5,262.7813 L172.5,269.2969 L170.7813,269.2969 C170.3438,269.2969 170.2188,269.3125 170.0625,269.4219 C169.8125,269.5781 169.6563,269.8594 169.6563,270.1563 C169.6563,270.4063 169.7969,270.6719 170.0156,270.8281 C170.1719,270.9531 170.375,271 170.7813,271 L175.9219,271 C176.6719,271 177.0313,270.7188 177.0313,270.1563 C177.0313,269.875 176.9219,269.625 176.6875,269.4531 C176.5156,269.3281 176.375,269.2969 175.9219,269.2969 L174.2031,269.2969 L174.2031,262.7813 Z "/><text fill="#000000" font-family="sans-serif" font-size="12" font-style="italic" lengthAdjust="spacingAndGlyphs" textLength="99" x="193.75" y="270.1543">GoogleSignInApi</text><line style="stroke: #A80036; stroke-width: 1.5;" x1="39.5" x2="414.5" y1="282" y2="282"/><line style="stroke: #A80036; stroke-width: 1.5;" x1="39.5" x2="414.5" y1="290" y2="290"/><ellipse cx="49.5" cy="301" fill="#84BE84" rx="3" ry="3" style="stroke: #038048; stroke-width: 1.0;"/><text fill="#000000" font-family="sans-serif" font-size="11" lengthAdjust="spacingAndGlyphs" textLength="180" x="58.5" y="304.2104">requestSilentSignIn(): ApiResult</text><ellipse cx="49.5" cy="313.8047" fill="#84BE84" rx="3" ry="3" style="stroke: #038048; stroke-width: 1.0;"/><text fill="#000000" font-family="sans-serif" font-size="11" lengthAdjust="spacingAndGlyphs" textLength="157" x="58.5" y="317.0151">requestSignOut(): ApiResult</text><ellipse cx="49.5" cy="326.6094" fill="#84BE84" rx="3" ry="3" style="stroke: #038048; stroke-width: 1.0;"/><text fill="#000000" font-family="sans-serif" font-size="11" lengthAdjust="spacingAndGlyphs" textLength="195" x="58.5" y="329.8198">requestRevokeAccess(): ApiResult</text><ellipse cx="49.5" cy="339.4141" fill="#84BE84" rx="3" ry="3" style="stroke: #038048; stroke-width: 1.0;"/><text fill="#000000" font-family="sans-serif" font-size="11" lengthAdjust="spacingAndGlyphs" text-decoration="underline" textLength="261" x="58.5" y="342.6245">isSignedInAccount(context: Context): Boolean</text><ellipse cx="49.5" cy="352.2188" fill="#84BE84" rx="3" ry="3" style="stroke: #038048; stroke-width: 1.0;"/><text fill="#000000" font-family="sans-serif" font-size="11" lengthAdjust="spacingAndGlyphs" text-decoration="underline" textLength="351" x="58.5" y="355.4292">getSignedInAccount(context: Context): GoogleSignInAccount?</text><ellipse cx="49.5" cy="365.0234" fill="#84BE84" rx="3" ry="3" style="stroke: #038048; stroke-width: 1.0;"/><text fill="#000000" font-family="sans-serif" font-size="11" lengthAdjust="spacingAndGlyphs" text-decoration="underline" textLength="268" x="58.5" y="368.2339">isSucceededUserSignIn(data: Intent?): Boolean</text><!--MD5=[0859dedf61d8e3f88a3865835bcb9c55]
class core.webapi.GoogleOAuth2Api--><rect fill="#FEFECE" filter="url(#fb7asdgllihsx)" height="73.6094" id="core.webapi.GoogleOAuth2Api" style="stroke: #A80036; stroke-width: 1.5;" width="423" x="450.5" y="275.5"/><ellipse cx="604.75" cy="291.5" fill="#B4A7E5" rx="11" ry="11" style="stroke: #A80036; stroke-width: 1.0;"/><path d="M605.7031,288.2813 L607.4219,288.2813 C607.8125,288.2813 608,288.25 608.125,288.1719 C608.3906,288.0156 608.5313,287.7344 608.5313,287.4375 C608.5313,287.1719 608.4219,286.9063 608.1875,286.7344 C608.0156,286.625 607.875,286.5938 607.4219,286.5938 L602.2813,286.5938 C601.8438,286.5938 601.7188,286.6094 601.5625,286.7031 C601.3125,286.8594 601.1563,287.1563 601.1563,287.4375 C601.1563,287.7188 601.2969,287.9688 601.5156,288.1406 C601.6719,288.25 601.8594,288.2813 602.2813,288.2813 L604,288.2813 L604,294.7969 L602.2813,294.7969 C601.8438,294.7969 601.7188,294.8125 601.5625,294.9219 C601.3125,295.0781 601.1563,295.3594 601.1563,295.6563 C601.1563,295.9063 601.2969,296.1719 601.5156,296.3281 C601.6719,296.4531 601.875,296.5 602.2813,296.5 L607.4219,296.5 C608.1719,296.5 608.5313,296.2188 608.5313,295.6563 C608.5313,295.375 608.4219,295.125 608.1875,294.9531 C608.0156,294.8281 607.875,294.7969 607.4219,294.7969 L605.7031,294.7969 L605.7031,288.2813 Z "/><text fill="#000000" font-family="sans-serif" font-size="12" font-style="italic" lengthAdjust="spacingAndGlyphs" textLength="106" x="625.25" y="295.6543">GoogleOAuth2Api</text><line style="stroke: #A80036; stroke-width: 1.5;" x1="451.5" x2="872.5" y1="307.5" y2="307.5"/><line style="stroke: #A80036; stroke-width: 1.5;" x1="451.5" x2="872.5" y1="315.5" y2="315.5"/><ellipse cx="461.5" cy="326.5" fill="#84BE84" rx="3" ry="3" style="stroke: #038048; stroke-width: 1.0;"/><text fill="#000000" font-family="sans-serif" font-size="11" lengthAdjust="spacingAndGlyphs" textLength="391" x="470.5" y="329.7104">requestTokenInfoWithAuthCode(serverAuthCode: String): TokenInfo?</text><ellipse cx="461.5" cy="339.3047" fill="#84BE84" rx="3" ry="3" style="stroke: #038048; stroke-width: 1.0;"/><text fill="#000000" font-family="sans-serif" font-size="11" lengthAdjust="spacingAndGlyphs" textLength="397" x="470.5" y="342.5151">requestTokenInfoWithRefreshToken(refreshToken: String): TokenInfo?</text><!--MD5=[53d9095e3df4f97108c8b343b83cd9b7]
class core.webapi.client.GoogleSignInClientHolder--><rect fill="#FEFECE" filter="url(#fb7asdgllihsx)" height="60.8047" id="core.webapi.client.GoogleSignInClientHolder" style="stroke: #A80036; stroke-width: 1.5;" width="186" x="1198" y="282"/><ellipse cx="1213" cy="298" fill="#ADD1B2" rx="11" ry="11" style="stroke: #A80036; stroke-width: 1.0;"/><path d="M1215.3438,293.6719 C1214.4063,293.2344 1213.8125,293.0938 1212.9375,293.0938 C1210.3125,293.0938 1208.3125,295.1719 1208.3125,297.8906 L1208.3125,299.0156 C1208.3125,301.5938 1210.4219,303.4844 1213.3125,303.4844 C1214.5313,303.4844 1215.6875,303.1875 1216.4375,302.6406 C1217.0156,302.2344 1217.3438,301.7813 1217.3438,301.3906 C1217.3438,300.9375 1216.9531,300.5469 1216.4844,300.5469 C1216.2656,300.5469 1216.0625,300.625 1215.875,300.8125 C1215.4219,301.2969 1215.4219,301.2969 1215.2344,301.3906 C1214.8125,301.6563 1214.125,301.7813 1213.3594,301.7813 C1211.3125,301.7813 1210.0156,300.6875 1210.0156,298.9844 L1210.0156,297.8906 C1210.0156,296.1094 1211.2656,294.7969 1213,294.7969 C1213.5781,294.7969 1214.1875,294.9531 1214.6563,295.2031 C1215.1406,295.4844 1215.3125,295.7031 1215.4063,296.1094 C1215.4688,296.5156 1215.5,296.6406 1215.6406,296.7656 C1215.7813,296.9063 1216.0156,297.0156 1216.2344,297.0156 C1216.5,297.0156 1216.7656,296.875 1216.9375,296.6563 C1217.0469,296.5 1217.0781,296.3125 1217.0781,295.8906 L1217.0781,294.4688 C1217.0781,294.0313 1217.0625,293.9063 1216.9688,293.75 C1216.8125,293.4844 1216.5313,293.3438 1216.2344,293.3438 C1215.9375,293.3438 1215.7344,293.4375 1215.5156,293.75 L1215.3438,293.6719 Z "/><text fill="#000000" font-family="sans-serif" font-size="12" lengthAdjust="spacingAndGlyphs" textLength="154" x="1227" y="302.1543">GoogleSignInClientHolder</text><line style="stroke: #A80036; stroke-width: 1.5;" x1="1199" x2="1383" y1="314" y2="314"/><ellipse cx="1209" cy="325" fill="none" rx="3" ry="3" style="stroke: #038048; stroke-width: 1.0;"/><text fill="#000000" font-family="sans-serif" font-size="11" lengthAdjust="spacingAndGlyphs" textLength="147" x="1218" y="328.2104">client: GoogleSignInClient</text><line style="stroke: #A80036; stroke-width: 1.5;" x1="1199" x2="1383" y1="334.8047" y2="334.8047"/><!--MD5=[ff62f648d77ce11cd3e90026639b81a5]
class core.webapi.entity.ApiResult--><rect fill="#FEFECE" filter="url(#fb7asdgllihsx)" height="86.4141" id="core.webapi.entity.ApiResult" style="stroke: #A80036; stroke-width: 1.5;" width="87" x="914.5" y="269.5"/><ellipse cx="929.5" cy="285.5" fill="#EB937F" rx="11" ry="11" style="stroke: #A80036; stroke-width: 1.0;"/><path d="M928.2969,286.375 L929.75,286.375 L929.75,286.4844 C929.75,286.8906 929.7813,287.0469 929.8594,287.2031 C930.0156,287.4531 930.2969,287.6094 930.5938,287.6094 C930.8438,287.6094 931.1094,287.4688 931.2656,287.25 C931.3906,287.0938 931.4219,286.9375 931.4219,286.4844 L931.4219,284.5625 C931.4219,284.4063 931.4219,284.3594 931.4063,284.2031 C931.3438,283.7344 931.0313,283.4219 930.5781,283.4219 C930.3281,283.4219 930.0625,283.5625 929.8906,283.7813 C929.7813,283.9531 929.75,284.1094 929.75,284.5625 L929.75,284.6875 L928.2969,284.6875 L928.2969,282.2813 L932.2813,282.2813 L932.2813,283.1406 C932.2813,283.5469 932.3125,283.7188 932.3906,283.875 C932.5625,284.125 932.8438,284.2813 933.125,284.2813 C933.3906,284.2813 933.6563,284.1406 933.8281,283.9219 C933.9375,283.75 933.9688,283.6094 933.9688,283.1406 L933.9688,280.5938 L926.3438,280.5938 C925.9063,280.5938 925.7813,280.6094 925.625,280.7031 C925.375,280.8594 925.2188,281.1563 925.2188,281.4375 C925.2188,281.7188 925.3594,281.9688 925.5781,282.1406 C925.7344,282.25 925.9219,282.2813 926.3438,282.2813 L926.5938,282.2813 L926.5938,288.7969 L926.3438,288.7969 C925.9375,288.7969 925.7813,288.8125 925.625,288.9219 C925.375,289.0938 925.2188,289.3594 925.2188,289.6563 C925.2188,289.9219 925.3594,290.1719 925.5781,290.3281 C925.7188,290.4531 925.9531,290.5 926.3438,290.5 L934.3438,290.5 L934.3438,287.9219 C934.3438,287.4844 934.3125,287.3438 934.2344,287.1875 C934.0625,286.9375 933.7813,286.7813 933.5,286.7813 C933.2344,286.7813 932.9688,286.8906 932.7969,287.1406 C932.6875,287.2969 932.6563,287.4375 932.6563,287.9219 L932.6563,288.7969 L928.2969,288.7969 L928.2969,286.375 Z "/><text fill="#000000" font-family="sans-serif" font-size="12" lengthAdjust="spacingAndGlyphs" textLength="55" x="943.5" y="289.6543">ApiResult</text><line style="stroke: #A80036; stroke-width: 1.5;" x1="915.5" x2="1000.5" y1="301.5" y2="301.5"/><text fill="#000000" font-family="sans-serif" font-size="11" lengthAdjust="spacingAndGlyphs" textLength="71" x="920.5" y="315.7104">SUCCEEDED</text><text fill="#000000" font-family="sans-serif" font-size="11" lengthAdjust="spacingAndGlyphs" textLength="39" x="920.5" y="328.5151">FAILED</text><text fill="#000000" font-family="sans-serif" font-size="11" lengthAdjust="spacingAndGlyphs" textLength="61" x="920.5" y="341.3198">CANCELED</text><line style="stroke: #A80036; stroke-width: 1.5;" x1="915.5" x2="1000.5" y1="347.9141" y2="347.9141"/><!--MD5=[0f8479c8f8fc0238a6b87a26c6873552]
class core.webapi.entity.PhotoScope--><rect fill="#FEFECE" filter="url(#fb7asdgllihsx)" height="112.0234" id="core.webapi.entity.PhotoScope" style="stroke: #A80036; stroke-width: 1.5;" width="105" x="1036.5" y="256.5"/><ellipse cx="1051.95" cy="272.5" fill="#EB937F" rx="11" ry="11" style="stroke: #A80036; stroke-width: 1.0;"/><path d="M1050.7469,273.375 L1052.2,273.375 L1052.2,273.4844 C1052.2,273.8906 1052.2313,274.0469 1052.3094,274.2031 C1052.4656,274.4531 1052.7469,274.6094 1053.0438,274.6094 C1053.2938,274.6094 1053.5594,274.4688 1053.7156,274.25 C1053.8406,274.0938 1053.8719,273.9375 1053.8719,273.4844 L1053.8719,271.5625 C1053.8719,271.4063 1053.8719,271.3594 1053.8563,271.2031 C1053.7938,270.7344 1053.4813,270.4219 1053.0281,270.4219 C1052.7781,270.4219 1052.5125,270.5625 1052.3406,270.7813 C1052.2313,270.9531 1052.2,271.1094 1052.2,271.5625 L1052.2,271.6875 L1050.7469,271.6875 L1050.7469,269.2813 L1054.7313,269.2813 L1054.7313,270.1406 C1054.7313,270.5469 1054.7625,270.7188 1054.8406,270.875 C1055.0125,271.125 1055.2938,271.2813 1055.575,271.2813 C1055.8406,271.2813 1056.1063,271.1406 1056.2781,270.9219 C1056.3875,270.75 1056.4188,270.6094 1056.4188,270.1406 L1056.4188,267.5938 L1048.7938,267.5938 C1048.3563,267.5938 1048.2313,267.6094 1048.075,267.7031 C1047.825,267.8594 1047.6688,268.1563 1047.6688,268.4375 C1047.6688,268.7188 1047.8094,268.9688 1048.0281,269.1406 C1048.1844,269.25 1048.3719,269.2813 1048.7938,269.2813 L1049.0438,269.2813 L1049.0438,275.7969 L1048.7938,275.7969 C1048.3875,275.7969 1048.2313,275.8125 1048.075,275.9219 C1047.825,276.0938 1047.6688,276.3594 1047.6688,276.6563 C1047.6688,276.9219 1047.8094,277.1719 1048.0281,277.3281 C1048.1688,277.4531 1048.4031,277.5 1048.7938,277.5 L1056.7938,277.5 L1056.7938,274.9219 C1056.7938,274.4844 1056.7625,274.3438 1056.6844,274.1875 C1056.5125,273.9375 1056.2313,273.7813 1055.95,273.7813 C1055.6844,273.7813 1055.4188,273.8906 1055.2469,274.1406 C1055.1375,274.2969 1055.1063,274.4375 1055.1063,274.9219 L1055.1063,275.7969 L1050.7469,275.7969 L1050.7469,273.375 Z "/><text fill="#000000" font-family="sans-serif" font-size="12" lengthAdjust="spacingAndGlyphs" textLength="72" x="1066.05" y="276.6543">PhotoScope</text><line style="stroke: #A80036; stroke-width: 1.5;" x1="1037.5" x2="1140.5" y1="288.5" y2="288.5"/><text fill="#000000" font-family="sans-serif" font-size="11" lengthAdjust="spacingAndGlyphs" textLength="72" x="1042.5" y="302.7104">READ_WRITE</text><text fill="#000000" font-family="sans-serif" font-size="11" lengthAdjust="spacingAndGlyphs" textLength="67" x="1042.5" y="315.5151">READ_ONLY</text><text fill="#000000" font-family="sans-serif" font-size="11" lengthAdjust="spacingAndGlyphs" textLength="71" x="1042.5" y="328.3198">WRITE_ONLY</text><text fill="#000000" font-family="sans-serif" font-size="11" lengthAdjust="spacingAndGlyphs" textLength="93" x="1042.5" y="341.1245">READ_ONLY_APP</text><text fill="#000000" font-family="sans-serif" font-size="11" lengthAdjust="spacingAndGlyphs" textLength="51" x="1042.5" y="353.9292">SHARING</text><line style="stroke: #A80036; stroke-width: 1.5;" x1="1037.5" x2="1140.5" y1="360.5234" y2="360.5234"/><!--MD5=[b58e679e47af320424cf6f7a18ecbe60]
class core.webapi.entity.TokenInfo--><rect fill="#FEFECE" filter="url(#fb7asdgllihsx)" height="86.4141" id="core.webapi.entity.TokenInfo" style="stroke: #A80036; stroke-width: 1.5;" width="235" x="906.5" y="462"/><ellipse cx="990.25" cy="478" fill="#ADD1B2" rx="11" ry="11" style="stroke: #A80036; stroke-width: 1.0;"/><path d="M992.5938,473.6719 C991.6563,473.2344 991.0625,473.0938 990.1875,473.0938 C987.5625,473.0938 985.5625,475.1719 985.5625,477.8906 L985.5625,479.0156 C985.5625,481.5938 987.6719,483.4844 990.5625,483.4844 C991.7813,483.4844 992.9375,483.1875 993.6875,482.6406 C994.2656,482.2344 994.5938,481.7813 994.5938,481.3906 C994.5938,480.9375 994.2031,480.5469 993.7344,480.5469 C993.5156,480.5469 993.3125,480.625 993.125,480.8125 C992.6719,481.2969 992.6719,481.2969 992.4844,481.3906 C992.0625,481.6563 991.375,481.7813 990.6094,481.7813 C988.5625,481.7813 987.2656,480.6875 987.2656,478.9844 L987.2656,477.8906 C987.2656,476.1094 988.5156,474.7969 990.25,474.7969 C990.8281,474.7969 991.4375,474.9531 991.9063,475.2031 C992.3906,475.4844 992.5625,475.7031 992.6563,476.1094 C992.7188,476.5156 992.75,476.6406 992.8906,476.7656 C993.0313,476.9063 993.2656,477.0156 993.4844,477.0156 C993.75,477.0156 994.0156,476.875 994.1875,476.6563 C994.2969,476.5 994.3281,476.3125 994.3281,475.8906 L994.3281,474.4688 C994.3281,474.0313 994.3125,473.9063 994.2188,473.75 C994.0625,473.4844 993.7813,473.3438 993.4844,473.3438 C993.1875,473.3438 992.9844,473.4375 992.7656,473.75 L992.5938,473.6719 Z "/><text fill="#000000" font-family="sans-serif" font-size="12" lengthAdjust="spacingAndGlyphs" textLength="59" x="1010.75" y="482.1543">TokenInfo</text><line style="stroke: #A80036; stroke-width: 1.5;" x1="907.5" x2="1140.5" y1="494" y2="494"/><ellipse cx="917.5" cy="505" fill="none" rx="3" ry="3" style="stroke: #038048; stroke-width: 1.0;"/><text fill="#000000" font-family="sans-serif" font-size="11" lengthAdjust="spacingAndGlyphs" textLength="120" x="926.5" y="508.2104">accessToken: String?</text><ellipse cx="917.5" cy="517.8047" fill="none" rx="3" ry="3" style="stroke: #038048; stroke-width: 1.0;"/><text fill="#000000" font-family="sans-serif" font-size="11" lengthAdjust="spacingAndGlyphs" textLength="122" x="926.5" y="521.0151">refreshToken: String?</text><ellipse cx="917.5" cy="530.6094" fill="none" rx="3" ry="3" style="stroke: #038048; stroke-width: 1.0;"/><text fill="#000000" font-family="sans-serif" font-size="11" lengthAdjust="spacingAndGlyphs" textLength="209" x="926.5" y="533.8198">expiredAccessTokenTimeMillis: Long</text><line style="stroke: #A80036; stroke-width: 1.5;" x1="907.5" x2="1140.5" y1="540.4141" y2="540.4141"/><!--MD5=[4f5598559aab2ff013676d61efc28cec]
class core.database.UserInfoDatabase--><rect fill="#FEFECE" filter="url(#fb7asdgllihsx)" height="99.2188" id="core.database.UserInfoDatabase" style="stroke: #A80036; stroke-width: 1.5;" width="323" x="1464.5" y="263"/><ellipse cx="1568.75" cy="279" fill="#B4A7E5" rx="11" ry="11" style="stroke: #A80036; stroke-width: 1.0;"/><path d="M1569.7031,275.7813 L1571.4219,275.7813 C1571.8125,275.7813 1572,275.75 1572.125,275.6719 C1572.3906,275.5156 1572.5313,275.2344 1572.5313,274.9375 C1572.5313,274.6719 1572.4219,274.4063 1572.1875,274.2344 C1572.0156,274.125 1571.875,274.0938 1571.4219,274.0938 L1566.2813,274.0938 C1565.8438,274.0938 1565.7188,274.1094 1565.5625,274.2031 C1565.3125,274.3594 1565.1563,274.6563 1565.1563,274.9375 C1565.1563,275.2188 1565.2969,275.4688 1565.5156,275.6406 C1565.6719,275.75 1565.8594,275.7813 1566.2813,275.7813 L1568,275.7813 L1568,282.2969 L1566.2813,282.2969 C1565.8438,282.2969 1565.7188,282.3125 1565.5625,282.4219 C1565.3125,282.5781 1565.1563,282.8594 1565.1563,283.1563 C1565.1563,283.4063 1565.2969,283.6719 1565.5156,283.8281 C1565.6719,283.9531 1565.875,284 1566.2813,284 L1571.4219,284 C1572.1719,284 1572.5313,283.7188 1572.5313,283.1563 C1572.5313,282.875 1572.4219,282.625 1572.1875,282.4531 C1572.0156,282.3281 1571.875,282.2969 1571.4219,282.2969 L1569.7031,282.2969 L1569.7031,275.7813 Z "/><text fill="#000000" font-family="sans-serif" font-size="12" font-style="italic" lengthAdjust="spacingAndGlyphs" textLength="106" x="1589.25" y="283.1543">UserInfoDatabase</text><line style="stroke: #A80036; stroke-width: 1.5;" x1="1465.5" x2="1786.5" y1="295" y2="295"/><line style="stroke: #A80036; stroke-width: 1.5;" x1="1465.5" x2="1786.5" y1="303" y2="303"/><ellipse cx="1475.5" cy="314" fill="#84BE84" rx="3" ry="3" style="stroke: #038048; stroke-width: 1.0;"/><text fill="#000000" font-family="sans-serif" font-size="11" lengthAdjust="spacingAndGlyphs" textLength="297" x="1484.5" y="317.2104">update(email: String, tokenInfo: TokenInfo): Boolean</text><ellipse cx="1475.5" cy="326.8047" fill="#84BE84" rx="3" ry="3" style="stroke: #038048; stroke-width: 1.0;"/><text fill="#000000" font-family="sans-serif" font-size="11" lengthAdjust="spacingAndGlyphs" textLength="118" x="1484.5" y="330.0151">delete(email: String)</text><ellipse cx="1475.5" cy="339.6094" fill="#84BE84" rx="3" ry="3" style="stroke: #038048; stroke-width: 1.0;"/><text fill="#000000" font-family="sans-serif" font-size="11" lengthAdjust="spacingAndGlyphs" textLength="161" x="1484.5" y="342.8198">find(email: String): UserInfo?</text><ellipse cx="1475.5" cy="352.4141" fill="#84BE84" rx="3" ry="3" style="stroke: #038048; stroke-width: 1.0;"/><text fill="#000000" font-family="sans-serif" font-size="11" lengthAdjust="spacingAndGlyphs" textLength="132" x="1484.5" y="355.6245">getAll(): List&lt;UserInfo&gt;</text><!--MD5=[309e374e200c298650928d6ed03894f9]
class core.database.entity.UserInfo--><rect fill="#FEFECE" filter="url(#fb7asdgllihsx)" height="124.8281" id="core.database.entity.UserInfo" style="stroke: #A80036; stroke-width: 1.5;" width="235" x="1822.5" y="250"/><ellipse cx="1910.25" cy="266" fill="#ADD1B2" rx="11" ry="11" style="stroke: #A80036; stroke-width: 1.0;"/><path d="M1912.5938,261.6719 C1911.6563,261.2344 1911.0625,261.0938 1910.1875,261.0938 C1907.5625,261.0938 1905.5625,263.1719 1905.5625,265.8906 L1905.5625,267.0156 C1905.5625,269.5938 1907.6719,271.4844 1910.5625,271.4844 C1911.7813,271.4844 1912.9375,271.1875 1913.6875,270.6406 C1914.2656,270.2344 1914.5938,269.7813 1914.5938,269.3906 C1914.5938,268.9375 1914.2031,268.5469 1913.7344,268.5469 C1913.5156,268.5469 1913.3125,268.625 1913.125,268.8125 C1912.6719,269.2969 1912.6719,269.2969 1912.4844,269.3906 C1912.0625,269.6563 1911.375,269.7813 1910.6094,269.7813 C1908.5625,269.7813 1907.2656,268.6875 1907.2656,266.9844 L1907.2656,265.8906 C1907.2656,264.1094 1908.5156,262.7969 1910.25,262.7969 C1910.8281,262.7969 1911.4375,262.9531 1911.9063,263.2031 C1912.3906,263.4844 1912.5625,263.7031 1912.6563,264.1094 C1912.7188,264.5156 1912.75,264.6406 1912.8906,264.7656 C1913.0313,264.9063 1913.2656,265.0156 1913.4844,265.0156 C1913.75,265.0156 1914.0156,264.875 1914.1875,264.6563 C1914.2969,264.5 1914.3281,264.3125 1914.3281,263.8906 L1914.3281,262.4688 C1914.3281,262.0313 1914.3125,261.9063 1914.2188,261.75 C1914.0625,261.4844 1913.7813,261.3438 1913.4844,261.3438 C1913.1875,261.3438 1912.9844,261.4375 1912.7656,261.75 L1912.5938,261.6719 Z "/><text fill="#000000" font-family="sans-serif" font-size="12" lengthAdjust="spacingAndGlyphs" textLength="51" x="1930.75" y="270.1543">UserInfo</text><line style="stroke: #A80036; stroke-width: 1.5;" x1="1823.5" x2="2056.5" y1="282" y2="282"/><ellipse cx="1833.5" cy="293" fill="none" rx="3" ry="3" style="stroke: #038048; stroke-width: 1.0;"/><text fill="#000000" font-family="sans-serif" font-size="11" lengthAdjust="spacingAndGlyphs" textLength="44" x="1842.5" y="296.2104">id: Long</text><ellipse cx="1833.5" cy="305.8047" fill="none" rx="3" ry="3" style="stroke: #038048; stroke-width: 1.0;"/><text fill="#000000" font-family="sans-serif" font-size="11" lengthAdjust="spacingAndGlyphs" textLength="118" x="1842.5" y="309.0151">emailAddress: String</text><ellipse cx="1833.5" cy="318.6094" fill="none" rx="3" ry="3" style="stroke: #038048; stroke-width: 1.0;"/><text fill="#000000" font-family="sans-serif" font-size="11" lengthAdjust="spacingAndGlyphs" textLength="114" x="1842.5" y="321.8198">accessToken: String</text><ellipse cx="1833.5" cy="331.4141" fill="none" rx="3" ry="3" style="stroke: #038048; stroke-width: 1.0;"/><text fill="#000000" font-family="sans-serif" font-size="11" lengthAdjust="spacingAndGlyphs" textLength="116" x="1842.5" y="334.6245">refreshToken: String</text><ellipse cx="1833.5" cy="344.2188" fill="none" rx="3" ry="3" style="stroke: #038048; stroke-width: 1.0;"/><text fill="#000000" font-family="sans-serif" font-size="11" lengthAdjust="spacingAndGlyphs" textLength="209" x="1842.5" y="347.4292">expiredAccessTokenTimeMillis: Long</text><ellipse cx="1833.5" cy="357.0234" fill="none" rx="3" ry="3" style="stroke: #038048; stroke-width: 1.0;"/><text fill="#000000" font-family="sans-serif" font-size="11" lengthAdjust="spacingAndGlyphs" textLength="158" x="1842.5" y="360.2339">updateDateTimeMillis: Long</text><line style="stroke: #A80036; stroke-width: 1.5;" x1="1823.5" x2="2056.5" y1="366.8281" y2="366.8281"/><!--MD5=[af3173b8bd7d5e1ac7d4e61d5c375c68]
reverse link app.splash.SplashInteractor to core.webapi.GoogleSignInApi--><path d="M584.319,105.091 C538.885,118.892 481.175,138.997 433,164 C386.931,187.91 339.565,221.117 301.885,249.969 " fill="none" id="app.splash.SplashInteractor&lt;-core.webapi.GoogleSignInApi" style="stroke: #A80036; stroke-width: 1.0;"/><polygon fill="#FFFFFF" points="596.79,101.367,589.8963,99.2511,585.2917,104.8007,592.1854,106.9166,596.79,101.367" style="stroke: #A80036; stroke-width: 1.0;"/><rect fill="none" height="6" style="stroke: #C82930; stroke-width: 1.0;" width="6" x="491" y="145.0664"/><text fill="#000000" font-family="sans-serif" font-size="13" lengthAdjust="spacingAndGlyphs" textLength="57" x="501" y="152.0669">signInApi</text><!--MD5=[f15165019abd1e2d032c3807147f1eaf]
reverse link app.splash.SplashInteractor to core.webapi.GoogleOAuth2Api--><path d="M662,120.081 C662,162.587 662,232.787 662,275.331 " fill="none" id="app.splash.SplashInteractor&lt;-core.webapi.GoogleOAuth2Api" style="stroke: #A80036; stroke-width: 1.0;"/><polygon fill="#FFFFFF" points="662,107.066,658,113.066,662,119.066,666,113.066,662,107.066" style="stroke: #A80036; stroke-width: 1.0;"/><rect fill="none" height="6" style="stroke: #C82930; stroke-width: 1.0;" width="6" x="665" y="145.0664"/><text fill="#000000" font-family="sans-serif" font-size="13" lengthAdjust="spacingAndGlyphs" textLength="65" x="675" y="152.0669">oauth2Api</text><!--MD5=[56fa1a2400e0278812f7025dc8262cf2]
reverse link app.splash.SplashInteractor to core.database.UserInfoDatabase--><path d="M740.442,87.874 C904.787,96.74 1279.96,121.118 1400,164 C1462.43,186.304 1524.89,229.015 1568.28,262.759 " fill="none" id="app.splash.SplashInteractor&lt;-core.database.UserInfoDatabase" style="stroke: #A80036; stroke-width: 1.0;"/><polygon fill="#FFFFFF" points="727.091,87.163,732.8698,91.4765,739.074,87.8013,733.2953,83.4878,727.091,87.163" style="stroke: #A80036; stroke-width: 1.0;"/><rect fill="none" height="6" style="stroke: #C82930; stroke-width: 1.0;" width="6" x="1370" y="145.0664"/><text fill="#000000" font-family="sans-serif" font-size="13" lengthAdjust="spacingAndGlyphs" textLength="60" x="1380" y="152.0669">database</text><!--MD5=[8bf928f77d84222d5a3585deae6b9773]
link core.webapi.entity.ApiResult to core.webapi.entity.PhotoScope--><!--MD5=[9c4297b2450d629ac3e7f856dc977e12]
link core.webapi.entity.ApiResult to core.webapi.entity.TokenInfo--><!--MD5=[5993079402dac0ad1a5f64ff3a964f47]
@startuml
namespace app.splash {
  class SplashInteractor
}

namespace core.webapi {
  interface GoogleSignInApi {
    + requestSilentSignIn(): ApiResult
    + requestSignOut(): ApiResult
    + requestRevokeAccess(): ApiResult
    + {static} isSignedInAccount(context: Context): Boolean
    + {static} getSignedInAccount(context: Context): GoogleSignInAccount?
    + {static} isSucceededUserSignIn(data: Intent?): Boolean
  }
  interface GoogleOAuth2Api {
    + requestTokenInfoWithAuthCode(serverAuthCode: String): TokenInfo?
    + requestTokenInfoWithRefreshToken(refreshToken: String): TokenInfo?
  }

  namespace client {
    class GoogleSignInClientHolder {
      + client: GoogleSignInClient
    }
  }

  namespace entity {
    enum ApiResult {
      SUCCEEDED
      FAILED
      CANCELED
    }
    enum PhotoScope {
      READ_WRITE
      READ_ONLY
      WRITE_ONLY
      READ_ONLY_APP
      SHARING
    }
    class TokenInfo {
      + accessToken: String?
      + refreshToken: String?
      + expiredAccessTokenTimeMillis: Long
    }
  }
}

namespace core.database {
  interface UserInfoDatabase {
    + update(email: String, tokenInfo: TokenInfo): Boolean
    + delete(email: String)
    + find(email: String): UserInfo?
    + getAll(): List<UserInfo>
  }

  namespace entity {
    class UserInfo {
      + id: Long
      + emailAddress: String
      + accessToken: String
      + refreshToken: String
      + expiredAccessTokenTimeMillis: Long
      + updateDateTimeMillis: Long
    }
  }
}

app.splash.SplashInteractor o- - core.webapi.GoogleSignInApi: -signInApi
app.splash.SplashInteractor o- - core.webapi.GoogleOAuth2Api: -oauth2Api
app.splash.SplashInteractor o- - core.database.UserInfoDatabase: -database
@enduml

PlantUML version 1.2020.11(Sat May 30 10:13:43 UTC 2020)
(GPL source distribution)
Java Runtime: Java(TM) SE Runtime Environment
JVM: Java HotSpot(TM) 64-Bit Server VM
Default Encoding: UTF-8
Language: en
Country: US
--></g></svg>