<?xml version="1.0" encoding="UTF-8" standalone="no"?><svg xmlns="http://www.w3.org/2000/svg" xmlns:xlink="http://www.w3.org/1999/xlink" contentScriptType="application/ecmascript" contentStyleType="text/css" height="2261px" preserveAspectRatio="none" style="width:1246px;height:2261px;" version="1.1" viewBox="0 0 1246 2261" width="1246px" zoomAndPan="magnify"><defs><filter height="300%" id="f7ot4t0wv8a4r" width="300%" x="-1" y="-1"><feGaussianBlur result="blurOut" stdDeviation="2.0"/><feColorMatrix in="blurOut" result="blurOut2" type="matrix" values="0 0 0 0 0 0 0 0 0 0 0 0 0 0 0 0 0 0 .4 0"/><feOffset dx="4.0" dy="4.0" in="blurOut2" result="blurOut3"/><feBlend in="SourceGraphic" in2="blurOut3" mode="normal"/></filter></defs><g><rect fill="#FFFFFF" filter="url(#f7ot4t0wv8a4r)" height="2141.2344" style="stroke: #A80036; stroke-width: 1.0;" width="10" x="54" y="54.2969"/><rect fill="#FFFFFF" filter="url(#f7ot4t0wv8a4r)" height="64.1328" style="stroke: #A80036; stroke-width: 1.0;" width="10" x="59" y="91.4297"/><rect fill="#FFFFFF" filter="url(#f7ot4t0wv8a4r)" height="28" style="stroke: #A80036; stroke-width: 1.0;" width="10" x="59" y="502.0234"/><rect fill="#FFFFFF" filter="url(#f7ot4t0wv8a4r)" height="28" style="stroke: #A80036; stroke-width: 1.0;" width="10" x="59" y="941.75"/><rect fill="#FFFFFF" filter="url(#f7ot4t0wv8a4r)" height="28" style="stroke: #A80036; stroke-width: 1.0;" width="10" x="59" y="1264.9453"/><rect fill="#FFFFFF" filter="url(#f7ot4t0wv8a4r)" height="28" style="stroke: #A80036; stroke-width: 1.0;" width="10" x="59" y="1979.8672"/><rect fill="#FFFFFF" filter="url(#f7ot4t0wv8a4r)" height="2011.7031" style="stroke: #A80036; stroke-width: 1.0;" width="10" x="314" y="125.5625"/><rect fill="#FFFFFF" filter="url(#f7ot4t0wv8a4r)" height="29.1328" style="stroke: #A80036; stroke-width: 1.0;" width="10" x="314" y="2166.3984"/><rect fill="#FFFFFF" filter="url(#f7ot4t0wv8a4r)" height="29.1328" style="stroke: #A80036; stroke-width: 1.0;" width="10" x="619" y="227.8281"/><rect fill="#FFFFFF" filter="url(#f7ot4t0wv8a4r)" height="29.1328" style="stroke: #A80036; stroke-width: 1.0;" width="10" x="619" y="382.4922"/><rect fill="#FFFFFF" filter="url(#f7ot4t0wv8a4r)" height="87.3984" style="stroke: #A80036; stroke-width: 1.0;" width="10" x="619" y="623.2891"/><rect fill="#FFFFFF" filter="url(#f7ot4t0wv8a4r)" height="87.3984" style="stroke: #A80036; stroke-width: 1.0;" width="10" x="619" y="763.9531"/><rect fill="#FFFFFF" filter="url(#f7ot4t0wv8a4r)" height="87.3984" style="stroke: #A80036; stroke-width: 1.0;" width="10" x="619" y="1087.1484"/><rect fill="#FFFFFF" filter="url(#f7ot4t0wv8a4r)" height="664.7891" style="stroke: #A80036; stroke-width: 1.0;" width="10" x="619" y="1386.2109"/><rect fill="#FFFFFF" filter="url(#f7ot4t0wv8a4r)" height="29.1328" style="stroke: #A80036; stroke-width: 1.0;" width="10" x="820" y="652.4219"/><rect fill="#FFFFFF" filter="url(#f7ot4t0wv8a4r)" height="29.1328" style="stroke: #A80036; stroke-width: 1.0;" width="10" x="820" y="793.0859"/><rect fill="#FFFFFF" filter="url(#f7ot4t0wv8a4r)" height="29.1328" style="stroke: #A80036; stroke-width: 1.0;" width="10" x="820" y="1116.2813"/><rect fill="#FFFFFF" filter="url(#f7ot4t0wv8a4r)" height="29.1328" style="stroke: #A80036; stroke-width: 1.0;" width="10" x="820" y="1415.3438"/><rect fill="#FFFFFF" filter="url(#f7ot4t0wv8a4r)" height="29.1328" style="stroke: #A80036; stroke-width: 1.0;" width="10" x="820" y="1855.3359"/><rect fill="#FFFFFF" filter="url(#f7ot4t0wv8a4r)" height="29.1328" style="stroke: #A80036; stroke-width: 1.0;" width="10" x="971.5" y="1580.1406"/><rect fill="#FFFFFF" filter="url(#f7ot4t0wv8a4r)" height="29.1328" style="stroke: #A80036; stroke-width: 1.0;" width="10" x="971.5" y="1669.5391"/><rect fill="#FFFFFF" filter="url(#f7ot4t0wv8a4r)" height="29.1328" style="stroke: #A80036; stroke-width: 1.0;" width="10" x="1127" y="1497.7422"/><rect fill="#FFFFFF" filter="url(#f7ot4t0wv8a4r)" height="29.1328" style="stroke: #A80036; stroke-width: 1.0;" width="10" x="1127" y="1758.9375"/><rect fill="#FFFFFF" filter="url(#f7ot4t0wv8a4r)" height="280.0625" style="stroke: #000000; stroke-width: 2.0;" width="743.5" x="13" y="271.9609"/><rect fill="#FFFFFF" filter="url(#f7ot4t0wv8a4r)" height="118.3984" style="stroke: #000000; stroke-width: 2.0;" width="350.5" x="23" y="426.625"/><rect fill="#FFFFFF" filter="url(#f7ot4t0wv8a4r)" height="589.2578" style="stroke: #000000; stroke-width: 2.0;" width="890.5" x="13" y="725.6875"/><rect fill="#FFFFFF" filter="url(#f7ot4t0wv8a4r)" height="118.3984" style="stroke: #000000; stroke-width: 2.0;" width="350.5" x="23" y="866.3516"/><rect fill="#FFFFFF" height="323.1953" style="stroke: none; stroke-width: 1.0;" width="890.5" x="13" y="991.75"/><rect fill="#FFFFFF" filter="url(#f7ot4t0wv8a4r)" height="118.3984" style="stroke: #000000; stroke-width: 2.0;" width="350.5" x="23" y="1189.5469"/><rect fill="#FFFFFF" filter="url(#f7ot4t0wv8a4r)" height="343.5938" style="stroke: #000000; stroke-width: 2.0;" width="666" x="558.5" y="1459.4766"/><rect fill="#FFFFFF" filter="url(#f7ot4t0wv8a4r)" height="75.3984" style="stroke: #000000; stroke-width: 2.0;" width="491" x="568.5" y="1541.875"/><rect fill="#FFFFFF" filter="url(#f7ot4t0wv8a4r)" height="75.3984" style="stroke: #000000; stroke-width: 2.0;" width="491" x="568.5" y="1631.2734"/><rect fill="#FFFFFF" filter="url(#f7ot4t0wv8a4r)" height="75.3984" style="stroke: #000000; stroke-width: 2.0;" width="646" x="568.5" y="1720.6719"/><rect fill="#FFFFFF" filter="url(#f7ot4t0wv8a4r)" height="205.7969" style="stroke: #000000; stroke-width: 2.0;" width="880.5" x="23" y="1817.0703"/><line style="stroke: #A80036; stroke-width: 1.0; stroke-dasharray: 5.0,5.0;" x1="59" x2="59" y1="38.2969" y2="2213.5313"/><line style="stroke: #A80036; stroke-width: 1.0; stroke-dasharray: 5.0,5.0;" x1="318.5" x2="318.5" y1="38.2969" y2="2213.5313"/><line style="stroke: #A80036; stroke-width: 1.0; stroke-dasharray: 5.0,5.0;" x1="623.5" x2="623.5" y1="38.2969" y2="2213.5313"/><line style="stroke: #A80036; stroke-width: 1.0; stroke-dasharray: 5.0,5.0;" x1="712.5" x2="712.5" y1="38.2969" y2="2213.5313"/><line style="stroke: #A80036; stroke-width: 1.0; stroke-dasharray: 5.0,5.0;" x1="824.5" x2="824.5" y1="38.2969" y2="2213.5313"/><line style="stroke: #A80036; stroke-width: 1.0; stroke-dasharray: 5.0,5.0;" x1="976.5" x2="976.5" y1="38.2969" y2="2213.5313"/><line style="stroke: #A80036; stroke-width: 1.0; stroke-dasharray: 5.0,5.0;" x1="1131.5" x2="1131.5" y1="38.2969" y2="2213.5313"/><rect fill="#FEFECE" filter="url(#f7ot4t0wv8a4r)" height="30.2969" style="stroke: #A80036; stroke-width: 1.5;" width="48" x="33" y="3"/><text fill="#000000" font-family="sans-serif" font-size="14" lengthAdjust="spacingAndGlyphs" textLength="34" x="40" y="22.9951">View</text><rect fill="#FEFECE" filter="url(#f7ot4t0wv8a4r)" height="30.2969" style="stroke: #A80036; stroke-width: 1.5;" width="48" x="33" y="2212.5313"/><text fill="#000000" font-family="sans-serif" font-size="14" lengthAdjust="spacingAndGlyphs" textLength="34" x="40" y="2232.5264">View</text><rect fill="#FEFECE" filter="url(#f7ot4t0wv8a4r)" height="30.2969" style="stroke: #A80036; stroke-width: 1.5;" width="85" x="274.5" y="3"/><text fill="#000000" font-family="sans-serif" font-size="14" lengthAdjust="spacingAndGlyphs" textLength="71" x="281.5" y="22.9951">Presenter</text><rect fill="#FEFECE" filter="url(#f7ot4t0wv8a4r)" height="30.2969" style="stroke: #A80036; stroke-width: 1.5;" width="85" x="274.5" y="2212.5313"/><text fill="#000000" font-family="sans-serif" font-size="14" lengthAdjust="spacingAndGlyphs" textLength="71" x="281.5" y="2232.5264">Presenter</text><rect fill="#FEFECE" filter="url(#f7ot4t0wv8a4r)" height="30.2969" style="stroke: #A80036; stroke-width: 1.5;" width="87" x="578.5" y="3"/><text fill="#000000" font-family="sans-serif" font-size="14" lengthAdjust="spacingAndGlyphs" textLength="73" x="585.5" y="22.9951">Interactor</text><rect fill="#FEFECE" filter="url(#f7ot4t0wv8a4r)" height="30.2969" style="stroke: #A80036; stroke-width: 1.5;" width="87" x="578.5" y="2212.5313"/><text fill="#000000" font-family="sans-serif" font-size="14" lengthAdjust="spacingAndGlyphs" textLength="73" x="585.5" y="2232.5264">Interactor</text><rect fill="#FEFECE" filter="url(#f7ot4t0wv8a4r)" height="30.2969" style="stroke: #A80036; stroke-width: 1.5;" width="63" x="679.5" y="3"/><text fill="#000000" font-family="sans-serif" font-size="14" lengthAdjust="spacingAndGlyphs" textLength="49" x="686.5" y="22.9951">Router</text><rect fill="#FEFECE" filter="url(#f7ot4t0wv8a4r)" height="30.2969" style="stroke: #A80036; stroke-width: 1.5;" width="63" x="679.5" y="2212.5313"/><text fill="#000000" font-family="sans-serif" font-size="14" lengthAdjust="spacingAndGlyphs" textLength="49" x="686.5" y="2232.5264">Router</text><rect fill="#FEFECE" filter="url(#f7ot4t0wv8a4r)" height="30.2969" style="stroke: #A80036; stroke-width: 1.5;" width="133" x="756.5" y="3"/><text fill="#000000" font-family="sans-serif" font-size="14" lengthAdjust="spacingAndGlyphs" textLength="119" x="763.5" y="22.9951">GoogleSignInApi</text><rect fill="#FEFECE" filter="url(#f7ot4t0wv8a4r)" height="30.2969" style="stroke: #A80036; stroke-width: 1.5;" width="133" x="756.5" y="2212.5313"/><text fill="#000000" font-family="sans-serif" font-size="14" lengthAdjust="spacingAndGlyphs" textLength="119" x="763.5" y="2232.5264">GoogleSignInApi</text><rect fill="#FEFECE" filter="url(#f7ot4t0wv8a4r)" height="30.2969" style="stroke: #A80036; stroke-width: 1.5;" width="142" x="903.5" y="3"/><text fill="#000000" font-family="sans-serif" font-size="14" lengthAdjust="spacingAndGlyphs" textLength="128" x="910.5" y="22.9951">GoogleOAuth2Api</text><rect fill="#FEFECE" filter="url(#f7ot4t0wv8a4r)" height="30.2969" style="stroke: #A80036; stroke-width: 1.5;" width="142" x="903.5" y="2212.5313"/><text fill="#000000" font-family="sans-serif" font-size="14" lengthAdjust="spacingAndGlyphs" textLength="128" x="910.5" y="2232.5264">GoogleOAuth2Api</text><rect fill="#FEFECE" filter="url(#f7ot4t0wv8a4r)" height="30.2969" style="stroke: #A80036; stroke-width: 1.5;" width="141" x="1059.5" y="3"/><text fill="#000000" font-family="sans-serif" font-size="14" lengthAdjust="spacingAndGlyphs" textLength="127" x="1066.5" y="22.9951">UserInfoDatabase</text><rect fill="#FEFECE" filter="url(#f7ot4t0wv8a4r)" height="30.2969" style="stroke: #A80036; stroke-width: 1.5;" width="141" x="1059.5" y="2212.5313"/><text fill="#000000" font-family="sans-serif" font-size="14" lengthAdjust="spacingAndGlyphs" textLength="127" x="1066.5" y="2232.5264">UserInfoDatabase</text><rect fill="#FFFFFF" filter="url(#f7ot4t0wv8a4r)" height="2141.2344" style="stroke: #A80036; stroke-width: 1.0;" width="10" x="54" y="54.2969"/><rect fill="#FFFFFF" filter="url(#f7ot4t0wv8a4r)" height="64.1328" style="stroke: #A80036; stroke-width: 1.0;" width="10" x="59" y="91.4297"/><rect fill="#FFFFFF" filter="url(#f7ot4t0wv8a4r)" height="28" style="stroke: #A80036; stroke-width: 1.0;" width="10" x="59" y="502.0234"/><rect fill="#FFFFFF" filter="url(#f7ot4t0wv8a4r)" height="28" style="stroke: #A80036; stroke-width: 1.0;" width="10" x="59" y="941.75"/><rect fill="#FFFFFF" filter="url(#f7ot4t0wv8a4r)" height="28" style="stroke: #A80036; stroke-width: 1.0;" width="10" x="59" y="1264.9453"/><rect fill="#FFFFFF" filter="url(#f7ot4t0wv8a4r)" height="28" style="stroke: #A80036; stroke-width: 1.0;" width="10" x="59" y="1979.8672"/><rect fill="#FFFFFF" filter="url(#f7ot4t0wv8a4r)" height="2011.7031" style="stroke: #A80036; stroke-width: 1.0;" width="10" x="314" y="125.5625"/><rect fill="#FFFFFF" filter="url(#f7ot4t0wv8a4r)" height="29.1328" style="stroke: #A80036; stroke-width: 1.0;" width="10" x="314" y="2166.3984"/><rect fill="#FFFFFF" filter="url(#f7ot4t0wv8a4r)" height="29.1328" style="stroke: #A80036; stroke-width: 1.0;" width="10" x="619" y="227.8281"/><rect fill="#FFFFFF" filter="url(#f7ot4t0wv8a4r)" height="29.1328" style="stroke: #A80036; stroke-width: 1.0;" width="10" x="619" y="382.4922"/><rect fill="#FFFFFF" filter="url(#f7ot4t0wv8a4r)" height="87.3984" style="stroke: #A80036; stroke-width: 1.0;" width="10" x="619" y="623.2891"/><rect fill="#FFFFFF" filter="url(#f7ot4t0wv8a4r)" height="87.3984" style="stroke: #A80036; stroke-width: 1.0;" width="10" x="619" y="763.9531"/><rect fill="#FFFFFF" filter="url(#f7ot4t0wv8a4r)" height="87.3984" style="stroke: #A80036; stroke-width: 1.0;" width="10" x="619" y="1087.1484"/><rect fill="#FFFFFF" filter="url(#f7ot4t0wv8a4r)" height="664.7891" style="stroke: #A80036; stroke-width: 1.0;" width="10" x="619" y="1386.2109"/><rect fill="#FFFFFF" filter="url(#f7ot4t0wv8a4r)" height="29.1328" style="stroke: #A80036; stroke-width: 1.0;" width="10" x="820" y="652.4219"/><rect fill="#FFFFFF" filter="url(#f7ot4t0wv8a4r)" height="29.1328" style="stroke: #A80036; stroke-width: 1.0;" width="10" x="820" y="793.0859"/><rect fill="#FFFFFF" filter="url(#f7ot4t0wv8a4r)" height="29.1328" style="stroke: #A80036; stroke-width: 1.0;" width="10" x="820" y="1116.2813"/><rect fill="#FFFFFF" filter="url(#f7ot4t0wv8a4r)" height="29.1328" style="stroke: #A80036; stroke-width: 1.0;" width="10" x="820" y="1415.3438"/><rect fill="#FFFFFF" filter="url(#f7ot4t0wv8a4r)" height="29.1328" style="stroke: #A80036; stroke-width: 1.0;" width="10" x="820" y="1855.3359"/><rect fill="#FFFFFF" filter="url(#f7ot4t0wv8a4r)" height="29.1328" style="stroke: #A80036; stroke-width: 1.0;" width="10" x="971.5" y="1580.1406"/><rect fill="#FFFFFF" filter="url(#f7ot4t0wv8a4r)" height="29.1328" style="stroke: #A80036; stroke-width: 1.0;" width="10" x="971.5" y="1669.5391"/><rect fill="#FFFFFF" filter="url(#f7ot4t0wv8a4r)" height="29.1328" style="stroke: #A80036; stroke-width: 1.0;" width="10" x="1127" y="1497.7422"/><rect fill="#FFFFFF" filter="url(#f7ot4t0wv8a4r)" height="29.1328" style="stroke: #A80036; stroke-width: 1.0;" width="10" x="1127" y="1758.9375"/><polygon fill="#A80036" points="42,50.2969,52,54.2969,42,58.2969,46,54.2969" style="stroke: #A80036; stroke-width: 1.0;"/><line style="stroke: #A80036; stroke-width: 1.0;" x1="3" x2="48" y1="54.2969" y2="54.2969"/><line style="stroke: #A80036; stroke-width: 1.0;" x1="64" x2="111" y1="78.4297" y2="78.4297"/><line style="stroke: #A80036; stroke-width: 1.0;" x1="111" x2="111" y1="78.4297" y2="91.4297"/><line style="stroke: #A80036; stroke-width: 1.0;" x1="70" x2="111" y1="91.4297" y2="91.4297"/><polygon fill="#A80036" points="80,87.4297,70,91.4297,80,95.4297,76,91.4297" style="stroke: #A80036; stroke-width: 1.0;"/><text fill="#000000" font-family="sans-serif" font-size="13" lengthAdjust="spacingAndGlyphs" textLength="143" x="76" y="73.3638">Show app logo 2 secs.</text><polygon fill="#A80036" points="302,121.5625,312,125.5625,302,129.5625,306,125.5625" style="stroke: #A80036; stroke-width: 1.0;"/><line style="stroke: #A80036; stroke-width: 1.0;" x1="69" x2="308" y1="125.5625" y2="125.5625"/><text fill="#000000" font-family="sans-serif" font-size="13" lengthAdjust="spacingAndGlyphs" textLength="87" x="76" y="120.4966">requestSignIn</text><rect fill="#EEEEEE" filter="url(#f7ot4t0wv8a4r)" height="3" style="stroke: #EEEEEE; stroke-width: 1.0;" width="1231.5" x="3" y="184.1289"/><line style="stroke: #000000; stroke-width: 1.0;" x1="3" x2="1234.5" y1="184.1289" y2="184.1289"/><line style="stroke: #000000; stroke-width: 1.0;" x1="3" x2="1234.5" y1="187.1289" y2="187.1289"/><rect fill="#EEEEEE" filter="url(#f7ot4t0wv8a4r)" height="23.1328" style="stroke: #000000; stroke-width: 2.0;" width="178" x="529.75" y="173.5625"/><text fill="#000000" font-family="sans-serif" font-size="13" font-weight="bold" lengthAdjust="spacingAndGlyphs" textLength="159" x="535.75" y="189.6294">Runtime Permissions</text><polygon fill="#A80036" points="607,223.8281,617,227.8281,607,231.8281,611,227.8281" style="stroke: #A80036; stroke-width: 1.0;"/><line style="stroke: #A80036; stroke-width: 1.0;" x1="324" x2="613" y1="227.8281" y2="227.8281"/><text fill="#000000" font-family="sans-serif" font-size="13" lengthAdjust="spacingAndGlyphs" textLength="193" x="331" y="222.7622">isGrantedRuntimePermissions</text><polygon fill="#A80036" points="335,252.9609,325,256.9609,335,260.9609,331,256.9609" style="stroke: #A80036; stroke-width: 1.0;"/><line style="stroke: #A80036; stroke-width: 1.0; stroke-dasharray: 2.0,2.0;" x1="329" x2="623" y1="256.9609" y2="256.9609"/><text fill="#000000" font-family="sans-serif" font-size="13" lengthAdjust="spacingAndGlyphs" textLength="51" x="341" y="251.895">Boolean</text><path d="M13,271.9609 L85,271.9609 L85,278.9609 L75,288.9609 L13,288.9609 L13,271.9609 " fill="#EEEEEE" style="stroke: #000000; stroke-width: 1.0;"/><rect fill="none" height="280.0625" style="stroke: #000000; stroke-width: 2.0;" width="743.5" x="13" y="271.9609"/><text fill="#000000" font-family="sans-serif" font-size="13" font-weight="bold" lengthAdjust="spacingAndGlyphs" textLength="27" x="28" y="285.0278">opt</text><text fill="#000000" font-family="sans-serif" font-size="11" font-weight="bold" lengthAdjust="spacingAndGlyphs" textLength="218" x="100" y="284.1714">[!isGrantedRuntimePermissions]</text><polygon fill="#A80036" points="701,306.2266,711,310.2266,701,314.2266,705,310.2266" style="stroke: #A80036; stroke-width: 1.0;"/><line style="stroke: #A80036; stroke-width: 1.0;" x1="324" x2="707" y1="310.2266" y2="310.2266"/><text fill="#000000" font-family="sans-serif" font-size="13" lengthAdjust="spacingAndGlyphs" textLength="161" x="331" y="305.1606">startRuntimePermissions</text><polygon fill="#A80036" points="42,320.2266,52,324.2266,42,328.2266,46,324.2266" style="stroke: #A80036; stroke-width: 1.0;"/><line style="stroke: #A80036; stroke-width: 1.0; stroke-dasharray: 2.0,2.0;" x1="3" x2="48" y1="324.2266" y2="324.2266"/><polygon fill="#A80036" points="302,349.3594,312,353.3594,302,357.3594,306,353.3594" style="stroke: #A80036; stroke-width: 1.0;"/><line style="stroke: #A80036; stroke-width: 1.0; stroke-dasharray: 2.0,2.0;" x1="64" x2="308" y1="353.3594" y2="353.3594"/><text fill="#000000" font-family="sans-serif" font-size="13" lengthAdjust="spacingAndGlyphs" textLength="226" x="71" y="348.2935">evaluateRequestPermissionsResult</text><polygon fill="#A80036" points="607,378.4922,617,382.4922,607,386.4922,611,382.4922" style="stroke: #A80036; stroke-width: 1.0;"/><line style="stroke: #A80036; stroke-width: 1.0;" x1="324" x2="613" y1="382.4922" y2="382.4922"/><text fill="#000000" font-family="sans-serif" font-size="13" lengthAdjust="spacingAndGlyphs" textLength="193" x="331" y="377.4263">isGrantedRuntimePermissions</text><polygon fill="#A80036" points="335,407.625,325,411.625,335,415.625,331,411.625" style="stroke: #A80036; stroke-width: 1.0;"/><line style="stroke: #A80036; stroke-width: 1.0; stroke-dasharray: 2.0,2.0;" x1="329" x2="623" y1="411.625" y2="411.625"/><text fill="#000000" font-family="sans-serif" font-size="13" lengthAdjust="spacingAndGlyphs" textLength="51" x="341" y="406.5591">Boolean</text><path d="M23,426.625 L95,426.625 L95,433.625 L85,443.625 L23,443.625 L23,426.625 " fill="#EEEEEE" style="stroke: #000000; stroke-width: 1.0;"/><rect fill="none" height="118.3984" style="stroke: #000000; stroke-width: 2.0;" width="350.5" x="23" y="426.625"/><text fill="#000000" font-family="sans-serif" font-size="13" font-weight="bold" lengthAdjust="spacingAndGlyphs" textLength="27" x="38" y="439.6919">opt</text><text fill="#000000" font-family="sans-serif" font-size="11" font-weight="bold" lengthAdjust="spacingAndGlyphs" textLength="218" x="110" y="438.8354">[!isGrantedRuntimePermissions]</text><polygon fill="#A80036" points="75,460.8906,65,464.8906,75,468.8906,71,464.8906" style="stroke: #A80036; stroke-width: 1.0;"/><line style="stroke: #A80036; stroke-width: 1.0; stroke-dasharray: 2.0,2.0;" x1="69" x2="313" y1="464.8906" y2="464.8906"/><text fill="#000000" font-family="sans-serif" font-size="13" lengthAdjust="spacingAndGlyphs" textLength="191" x="81" y="459.8247">Callback#requestSignInResult</text><line style="stroke: #A80036; stroke-width: 1.0;" x1="64" x2="111" y1="489.0234" y2="489.0234"/><line style="stroke: #A80036; stroke-width: 1.0;" x1="111" x2="111" y1="489.0234" y2="502.0234"/><line style="stroke: #A80036; stroke-width: 1.0;" x1="70" x2="111" y1="502.0234" y2="502.0234"/><polygon fill="#A80036" points="80,498.0234,70,502.0234,80,506.0234,76,502.0234" style="stroke: #A80036; stroke-width: 1.0;"/><text fill="#000000" font-family="sans-serif" font-size="13" lengthAdjust="spacingAndGlyphs" textLength="112" x="76" y="483.9575">Show error dialog</text><line style="stroke: #A80036; stroke-width: 2.0;" x1="50" x2="68" y1="528.0234" y2="546.0234"/><line style="stroke: #A80036; stroke-width: 2.0;" x1="50" x2="68" y1="546.0234" y2="528.0234"/><rect fill="#EEEEEE" filter="url(#f7ot4t0wv8a4r)" height="3" style="stroke: #EEEEEE; stroke-width: 1.0;" width="1231.5" x="3" y="579.5898"/><line style="stroke: #000000; stroke-width: 1.0;" x1="3" x2="1234.5" y1="579.5898" y2="579.5898"/><line style="stroke: #000000; stroke-width: 1.0;" x1="3" x2="1234.5" y1="582.5898" y2="582.5898"/><rect fill="#EEEEEE" filter="url(#f7ot4t0wv8a4r)" height="23.1328" style="stroke: #000000; stroke-width: 2.0;" width="127" x="555.25" y="569.0234"/><text fill="#000000" font-family="sans-serif" font-size="13" font-weight="bold" lengthAdjust="spacingAndGlyphs" textLength="108" x="561.25" y="585.0903">Google Sign In</text><polygon fill="#A80036" points="607,619.2891,617,623.2891,607,627.2891,611,623.2891" style="stroke: #A80036; stroke-width: 1.0;"/><line style="stroke: #A80036; stroke-width: 1.0;" x1="324" x2="613" y1="623.2891" y2="623.2891"/><text fill="#000000" font-family="sans-serif" font-size="13" lengthAdjust="spacingAndGlyphs" textLength="109" x="331" y="618.2231">isGoogleSignedIn</text><polygon fill="#A80036" points="808,648.4219,818,652.4219,808,656.4219,812,652.4219" style="stroke: #A80036; stroke-width: 1.0;"/><line style="stroke: #A80036; stroke-width: 1.0;" x1="629" x2="814" y1="652.4219" y2="652.4219"/><text fill="#000000" font-family="sans-serif" font-size="13" lengthAdjust="spacingAndGlyphs" textLength="116" x="636" y="647.356">isSignedInAccount</text><polygon fill="#A80036" points="640,677.5547,630,681.5547,640,685.5547,636,681.5547" style="stroke: #A80036; stroke-width: 1.0;"/><line style="stroke: #A80036; stroke-width: 1.0; stroke-dasharray: 2.0,2.0;" x1="634" x2="824" y1="681.5547" y2="681.5547"/><text fill="#000000" font-family="sans-serif" font-size="13" lengthAdjust="spacingAndGlyphs" textLength="51" x="646" y="676.4888">Boolean</text><polygon fill="#A80036" points="335,706.6875,325,710.6875,335,714.6875,331,710.6875" style="stroke: #A80036; stroke-width: 1.0;"/><line style="stroke: #A80036; stroke-width: 1.0; stroke-dasharray: 2.0,2.0;" x1="329" x2="623" y1="710.6875" y2="710.6875"/><text fill="#000000" font-family="sans-serif" font-size="13" lengthAdjust="spacingAndGlyphs" textLength="51" x="341" y="705.6216">Boolean</text><path d="M13,725.6875 L79,725.6875 L79,732.6875 L69,742.6875 L13,742.6875 L13,725.6875 " fill="#EEEEEE" style="stroke: #000000; stroke-width: 1.0;"/><rect fill="none" height="589.2578" style="stroke: #000000; stroke-width: 2.0;" width="890.5" x="13" y="725.6875"/><text fill="#000000" font-family="sans-serif" font-size="13" font-weight="bold" lengthAdjust="spacingAndGlyphs" textLength="21" x="28" y="738.7544">alt</text><text fill="#000000" font-family="sans-serif" font-size="11" font-weight="bold" lengthAdjust="spacingAndGlyphs" textLength="125" x="94" y="737.8979">[isGoogleSignedIn]</text><polygon fill="#A80036" points="607,759.9531,617,763.9531,607,767.9531,611,763.9531" style="stroke: #A80036; stroke-width: 1.0;"/><line style="stroke: #A80036; stroke-width: 1.0;" x1="324" x2="613" y1="763.9531" y2="763.9531"/><text fill="#000000" font-family="sans-serif" font-size="13" lengthAdjust="spacingAndGlyphs" textLength="167" x="331" y="758.8872">requestGoogleSilentSignIn</text><polygon fill="#A80036" points="808,789.0859,818,793.0859,808,797.0859,812,793.0859" style="stroke: #A80036; stroke-width: 1.0;"/><line style="stroke: #A80036; stroke-width: 1.0;" x1="629" x2="814" y1="793.0859" y2="793.0859"/><text fill="#000000" font-family="sans-serif" font-size="13" lengthAdjust="spacingAndGlyphs" textLength="122" x="636" y="788.02">requestSilentSignIn</text><polygon fill="#A80036" points="640,818.2188,630,822.2188,640,826.2188,636,822.2188" style="stroke: #A80036; stroke-width: 1.0;"/><line style="stroke: #A80036; stroke-width: 1.0; stroke-dasharray: 2.0,2.0;" x1="634" x2="824" y1="822.2188" y2="822.2188"/><text fill="#000000" font-family="sans-serif" font-size="13" lengthAdjust="spacingAndGlyphs" textLength="60" x="646" y="817.1528">ApiResult</text><polygon fill="#A80036" points="335,847.3516,325,851.3516,335,855.3516,331,851.3516" style="stroke: #A80036; stroke-width: 1.0;"/><line style="stroke: #A80036; stroke-width: 1.0; stroke-dasharray: 2.0,2.0;" x1="329" x2="623" y1="851.3516" y2="851.3516"/><text fill="#000000" font-family="sans-serif" font-size="13" lengthAdjust="spacingAndGlyphs" textLength="271" x="341" y="846.2856">Callback#requestGoogleSilentSignInResult</text><path d="M23,866.3516 L95,866.3516 L95,873.3516 L85,883.3516 L23,883.3516 L23,866.3516 " fill="#EEEEEE" style="stroke: #000000; stroke-width: 1.0;"/><rect fill="none" height="118.3984" style="stroke: #000000; stroke-width: 2.0;" width="350.5" x="23" y="866.3516"/><text fill="#000000" font-family="sans-serif" font-size="13" font-weight="bold" lengthAdjust="spacingAndGlyphs" textLength="27" x="38" y="879.4185">opt</text><text fill="#000000" font-family="sans-serif" font-size="11" font-weight="bold" lengthAdjust="spacingAndGlyphs" textLength="158" x="110" y="878.562">[ApiResult!=Succeeded]</text><polygon fill="#A80036" points="75,900.6172,65,904.6172,75,908.6172,71,904.6172" style="stroke: #A80036; stroke-width: 1.0;"/><line style="stroke: #A80036; stroke-width: 1.0; stroke-dasharray: 2.0,2.0;" x1="69" x2="313" y1="904.6172" y2="904.6172"/><text fill="#000000" font-family="sans-serif" font-size="13" lengthAdjust="spacingAndGlyphs" textLength="191" x="81" y="899.5513">Callback#requestSignInResult</text><line style="stroke: #A80036; stroke-width: 1.0;" x1="64" x2="111" y1="928.75" y2="928.75"/><line style="stroke: #A80036; stroke-width: 1.0;" x1="111" x2="111" y1="928.75" y2="941.75"/><line style="stroke: #A80036; stroke-width: 1.0;" x1="70" x2="111" y1="941.75" y2="941.75"/><polygon fill="#A80036" points="80,937.75,70,941.75,80,945.75,76,941.75" style="stroke: #A80036; stroke-width: 1.0;"/><text fill="#000000" font-family="sans-serif" font-size="13" lengthAdjust="spacingAndGlyphs" textLength="112" x="76" y="923.6841">Show error dialog</text><line style="stroke: #A80036; stroke-width: 2.0;" x1="50" x2="68" y1="967.75" y2="985.75"/><line style="stroke: #A80036; stroke-width: 2.0;" x1="50" x2="68" y1="985.75" y2="967.75"/><line style="stroke: #000000; stroke-width: 1.0; stroke-dasharray: 2.0,2.0;" x1="13" x2="903.5" y1="992.75" y2="992.75"/><polygon fill="#A80036" points="701,1010.8828,711,1014.8828,701,1018.8828,705,1014.8828" style="stroke: #A80036; stroke-width: 1.0;"/><line style="stroke: #A80036; stroke-width: 1.0;" x1="324" x2="707" y1="1014.8828" y2="1014.8828"/><text fill="#000000" font-family="sans-serif" font-size="13" lengthAdjust="spacingAndGlyphs" textLength="161" x="331" y="1009.8169">startGoogleSignInActivity</text><polygon fill="#A80036" points="42,1024.8828,52,1028.8828,42,1032.8828,46,1028.8828" style="stroke: #A80036; stroke-width: 1.0;"/><line style="stroke: #A80036; stroke-width: 1.0; stroke-dasharray: 2.0,2.0;" x1="3" x2="48" y1="1028.8828" y2="1028.8828"/><polygon fill="#A80036" points="302,1054.0156,312,1058.0156,302,1062.0156,306,1058.0156" style="stroke: #A80036; stroke-width: 1.0;"/><line style="stroke: #A80036; stroke-width: 1.0; stroke-dasharray: 2.0,2.0;" x1="64" x2="308" y1="1058.0156" y2="1058.0156"/><text fill="#000000" font-family="sans-serif" font-size="13" lengthAdjust="spacingAndGlyphs" textLength="144" x="71" y="1052.9497">evaluateActivityResult</text><polygon fill="#A80036" points="607,1083.1484,617,1087.1484,607,1091.1484,611,1087.1484" style="stroke: #A80036; stroke-width: 1.0;"/><line style="stroke: #A80036; stroke-width: 1.0;" x1="324" x2="613" y1="1087.1484" y2="1087.1484"/><text fill="#000000" font-family="sans-serif" font-size="13" lengthAdjust="spacingAndGlyphs" textLength="192" x="331" y="1082.0825">isSucceededGoogleUserSignIn</text><polygon fill="#A80036" points="808,1112.2813,818,1116.2813,808,1120.2813,812,1116.2813" style="stroke: #A80036; stroke-width: 1.0;"/><line style="stroke: #A80036; stroke-width: 1.0;" x1="629" x2="814" y1="1116.2813" y2="1116.2813"/><text fill="#000000" font-family="sans-serif" font-size="13" lengthAdjust="spacingAndGlyphs" textLength="147" x="636" y="1111.2153">isSucceededUserSignIn</text><polygon fill="#A80036" points="640,1141.4141,630,1145.4141,640,1149.4141,636,1145.4141" style="stroke: #A80036; stroke-width: 1.0;"/><line style="stroke: #A80036; stroke-width: 1.0; stroke-dasharray: 2.0,2.0;" x1="634" x2="824" y1="1145.4141" y2="1145.4141"/><text fill="#000000" font-family="sans-serif" font-size="13" lengthAdjust="spacingAndGlyphs" textLength="51" x="646" y="1140.3481">Boolean</text><polygon fill="#A80036" points="335,1170.5469,325,1174.5469,335,1178.5469,331,1174.5469" style="stroke: #A80036; stroke-width: 1.0;"/><line style="stroke: #A80036; stroke-width: 1.0; stroke-dasharray: 2.0,2.0;" x1="329" x2="623" y1="1174.5469" y2="1174.5469"/><text fill="#000000" font-family="sans-serif" font-size="13" lengthAdjust="spacingAndGlyphs" textLength="51" x="341" y="1169.481">Boolean</text><path d="M23,1189.5469 L95,1189.5469 L95,1196.5469 L85,1206.5469 L23,1206.5469 L23,1189.5469 " fill="#EEEEEE" style="stroke: #000000; stroke-width: 1.0;"/><rect fill="none" height="118.3984" style="stroke: #000000; stroke-width: 2.0;" width="350.5" x="23" y="1189.5469"/><text fill="#000000" font-family="sans-serif" font-size="13" font-weight="bold" lengthAdjust="spacingAndGlyphs" textLength="27" x="38" y="1202.6138">opt</text><text fill="#000000" font-family="sans-serif" font-size="11" font-weight="bold" lengthAdjust="spacingAndGlyphs" textLength="215" x="110" y="1201.7573">[!isSucceededGoogleUserSignIn]</text><polygon fill="#A80036" points="75,1223.8125,65,1227.8125,75,1231.8125,71,1227.8125" style="stroke: #A80036; stroke-width: 1.0;"/><line style="stroke: #A80036; stroke-width: 1.0; stroke-dasharray: 2.0,2.0;" x1="69" x2="313" y1="1227.8125" y2="1227.8125"/><text fill="#000000" font-family="sans-serif" font-size="13" lengthAdjust="spacingAndGlyphs" textLength="191" x="81" y="1222.7466">Callback#requestSignInResult</text><line style="stroke: #A80036; stroke-width: 1.0;" x1="64" x2="111" y1="1251.9453" y2="1251.9453"/><line style="stroke: #A80036; stroke-width: 1.0;" x1="111" x2="111" y1="1251.9453" y2="1264.9453"/><line style="stroke: #A80036; stroke-width: 1.0;" x1="70" x2="111" y1="1264.9453" y2="1264.9453"/><polygon fill="#A80036" points="80,1260.9453,70,1264.9453,80,1268.9453,76,1264.9453" style="stroke: #A80036; stroke-width: 1.0;"/><text fill="#000000" font-family="sans-serif" font-size="13" lengthAdjust="spacingAndGlyphs" textLength="112" x="76" y="1246.8794">Show error dialog</text><line style="stroke: #A80036; stroke-width: 2.0;" x1="50" x2="68" y1="1290.9453" y2="1308.9453"/><line style="stroke: #A80036; stroke-width: 2.0;" x1="50" x2="68" y1="1308.9453" y2="1290.9453"/><rect fill="#EEEEEE" filter="url(#f7ot4t0wv8a4r)" height="3" style="stroke: #EEEEEE; stroke-width: 1.0;" width="1231.5" x="3" y="1342.5117"/><line style="stroke: #000000; stroke-width: 1.0;" x1="3" x2="1234.5" y1="1342.5117" y2="1342.5117"/><line style="stroke: #000000; stroke-width: 1.0;" x1="3" x2="1234.5" y1="1345.5117" y2="1345.5117"/><rect fill="#EEEEEE" filter="url(#f7ot4t0wv8a4r)" height="23.1328" style="stroke: #000000; stroke-width: 2.0;" width="143" x="547.25" y="1331.9453"/><text fill="#000000" font-family="sans-serif" font-size="13" font-weight="bold" lengthAdjust="spacingAndGlyphs" textLength="124" x="553.25" y="1348.0122">Update UserInfo</text><polygon fill="#A80036" points="607,1382.2109,617,1386.2109,607,1390.2109,611,1386.2109" style="stroke: #A80036; stroke-width: 1.0;"/><line style="stroke: #A80036; stroke-width: 1.0;" x1="324" x2="613" y1="1386.2109" y2="1386.2109"/><text fill="#000000" font-family="sans-serif" font-size="13" lengthAdjust="spacingAndGlyphs" textLength="148" x="331" y="1381.145">requestUpdateUserInfo</text><polygon fill="#A80036" points="808,1411.3438,818,1415.3438,808,1419.3438,812,1415.3438" style="stroke: #A80036; stroke-width: 1.0;"/><line style="stroke: #A80036; stroke-width: 1.0;" x1="629" x2="814" y1="1415.3438" y2="1415.3438"/><text fill="#000000" font-family="sans-serif" font-size="13" lengthAdjust="spacingAndGlyphs" textLength="127" x="636" y="1410.2778">getSignedInAccount</text><polygon fill="#A80036" points="640,1440.4766,630,1444.4766,640,1448.4766,636,1444.4766" style="stroke: #A80036; stroke-width: 1.0;"/><line style="stroke: #A80036; stroke-width: 1.0; stroke-dasharray: 2.0,2.0;" x1="634" x2="824" y1="1444.4766" y2="1444.4766"/><text fill="#000000" font-family="sans-serif" font-size="13" lengthAdjust="spacingAndGlyphs" textLength="135" x="646" y="1439.4106">GoogleSignInAccount</text><path d="M558.5,1459.4766 L630.5,1459.4766 L630.5,1466.4766 L620.5,1476.4766 L558.5,1476.4766 L558.5,1459.4766 " fill="#EEEEEE" style="stroke: #000000; stroke-width: 1.0;"/><rect fill="none" height="343.5938" style="stroke: #000000; stroke-width: 2.0;" width="666" x="558.5" y="1459.4766"/><text fill="#000000" font-family="sans-serif" font-size="13" font-weight="bold" lengthAdjust="spacingAndGlyphs" textLength="27" x="573.5" y="1472.5435">opt</text><text fill="#000000" font-family="sans-serif" font-size="11" font-weight="bold" lengthAdjust="spacingAndGlyphs" textLength="232" x="645.5" y="1471.687">[GoogleSignInAccount.email!=null]</text><polygon fill="#A80036" points="1115,1493.7422,1125,1497.7422,1115,1501.7422,1119,1497.7422" style="stroke: #A80036; stroke-width: 1.0;"/><line style="stroke: #A80036; stroke-width: 1.0;" x1="629" x2="1121" y1="1497.7422" y2="1497.7422"/><text fill="#000000" font-family="sans-serif" font-size="13" lengthAdjust="spacingAndGlyphs" textLength="24" x="636" y="1492.6763">find</text><polygon fill="#A80036" points="640,1522.875,630,1526.875,640,1530.875,636,1526.875" style="stroke: #A80036; stroke-width: 1.0;"/><line style="stroke: #A80036; stroke-width: 1.0; stroke-dasharray: 2.0,2.0;" x1="634" x2="1131" y1="1526.875" y2="1526.875"/><text fill="#000000" font-family="sans-serif" font-size="13" lengthAdjust="spacingAndGlyphs" textLength="53" x="646" y="1521.8091">UserInfo</text><path d="M568.5,1541.875 L640.5,1541.875 L640.5,1548.875 L630.5,1558.875 L568.5,1558.875 L568.5,1541.875 " fill="#EEEEEE" style="stroke: #000000; stroke-width: 1.0;"/><rect fill="none" height="75.3984" style="stroke: #000000; stroke-width: 2.0;" width="491" x="568.5" y="1541.875"/><text fill="#000000" font-family="sans-serif" font-size="13" font-weight="bold" lengthAdjust="spacingAndGlyphs" textLength="27" x="583.5" y="1554.9419">opt</text><text fill="#000000" font-family="sans-serif" font-size="11" font-weight="bold" lengthAdjust="spacingAndGlyphs" textLength="107" x="655.5" y="1554.0854">[UserInfo!=null]</text><polygon fill="#A80036" points="959.5,1576.1406,969.5,1580.1406,959.5,1584.1406,963.5,1580.1406" style="stroke: #A80036; stroke-width: 1.0;"/><line style="stroke: #A80036; stroke-width: 1.0;" x1="629" x2="965.5" y1="1580.1406" y2="1580.1406"/><text fill="#000000" font-family="sans-serif" font-size="13" lengthAdjust="spacingAndGlyphs" textLength="230" x="636" y="1575.0747">requestTokenInfoWithRefreshToken</text><polygon fill="#A80036" points="640,1605.2734,630,1609.2734,640,1613.2734,636,1609.2734" style="stroke: #A80036; stroke-width: 1.0;"/><line style="stroke: #A80036; stroke-width: 1.0; stroke-dasharray: 2.0,2.0;" x1="634" x2="975.5" y1="1609.2734" y2="1609.2734"/><text fill="#000000" font-family="sans-serif" font-size="13" lengthAdjust="spacingAndGlyphs" textLength="63" x="646" y="1604.2075">TokenInfo</text><path d="M568.5,1631.2734 L640.5,1631.2734 L640.5,1638.2734 L630.5,1648.2734 L568.5,1648.2734 L568.5,1631.2734 " fill="#EEEEEE" style="stroke: #000000; stroke-width: 1.0;"/><rect fill="none" height="75.3984" style="stroke: #000000; stroke-width: 2.0;" width="491" x="568.5" y="1631.2734"/><text fill="#000000" font-family="sans-serif" font-size="13" font-weight="bold" lengthAdjust="spacingAndGlyphs" textLength="27" x="583.5" y="1644.3403">opt</text><text fill="#000000" font-family="sans-serif" font-size="11" font-weight="bold" lengthAdjust="spacingAndGlyphs" textLength="121" x="655.5" y="1643.4839">[TokenInfo==null]</text><polygon fill="#A80036" points="959.5,1665.5391,969.5,1669.5391,959.5,1673.5391,963.5,1669.5391" style="stroke: #A80036; stroke-width: 1.0;"/><line style="stroke: #A80036; stroke-width: 1.0;" x1="629" x2="965.5" y1="1669.5391" y2="1669.5391"/><text fill="#000000" font-family="sans-serif" font-size="13" lengthAdjust="spacingAndGlyphs" textLength="204" x="636" y="1664.4731">requestTokenInfoWithAuthCode</text><polygon fill="#A80036" points="640,1694.6719,630,1698.6719,640,1702.6719,636,1698.6719" style="stroke: #A80036; stroke-width: 1.0;"/><line style="stroke: #A80036; stroke-width: 1.0; stroke-dasharray: 2.0,2.0;" x1="634" x2="975.5" y1="1698.6719" y2="1698.6719"/><text fill="#000000" font-family="sans-serif" font-size="13" lengthAdjust="spacingAndGlyphs" textLength="63" x="646" y="1693.606">TokenInfo</text><path d="M568.5,1720.6719 L640.5,1720.6719 L640.5,1727.6719 L630.5,1737.6719 L568.5,1737.6719 L568.5,1720.6719 " fill="#EEEEEE" style="stroke: #000000; stroke-width: 1.0;"/><rect fill="none" height="75.3984" style="stroke: #000000; stroke-width: 2.0;" width="646" x="568.5" y="1720.6719"/><text fill="#000000" font-family="sans-serif" font-size="13" font-weight="bold" lengthAdjust="spacingAndGlyphs" textLength="27" x="583.5" y="1733.7388">opt</text><text fill="#000000" font-family="sans-serif" font-size="11" font-weight="bold" lengthAdjust="spacingAndGlyphs" textLength="118" x="655.5" y="1732.8823">[TokenInfo!=null]</text><polygon fill="#A80036" points="1115,1754.9375,1125,1758.9375,1115,1762.9375,1119,1758.9375" style="stroke: #A80036; stroke-width: 1.0;"/><line style="stroke: #A80036; stroke-width: 1.0;" x1="629" x2="1121" y1="1758.9375" y2="1758.9375"/><text fill="#000000" font-family="sans-serif" font-size="13" lengthAdjust="spacingAndGlyphs" textLength="45" x="636" y="1753.8716">update</text><polygon fill="#A80036" points="640,1784.0703,630,1788.0703,640,1792.0703,636,1788.0703" style="stroke: #A80036; stroke-width: 1.0;"/><line style="stroke: #A80036; stroke-width: 1.0; stroke-dasharray: 2.0,2.0;" x1="634" x2="1131" y1="1788.0703" y2="1788.0703"/><text fill="#000000" font-family="sans-serif" font-size="13" lengthAdjust="spacingAndGlyphs" textLength="51" x="646" y="1783.0044">Boolean</text><path d="M23,1817.0703 L95,1817.0703 L95,1824.0703 L85,1834.0703 L23,1834.0703 L23,1817.0703 " fill="#EEEEEE" style="stroke: #000000; stroke-width: 1.0;"/><rect fill="none" height="205.7969" style="stroke: #000000; stroke-width: 2.0;" width="880.5" x="23" y="1817.0703"/><text fill="#000000" font-family="sans-serif" font-size="13" font-weight="bold" lengthAdjust="spacingAndGlyphs" textLength="27" x="38" y="1830.1372">opt</text><text fill="#000000" font-family="sans-serif" font-size="11" font-weight="bold" lengthAdjust="spacingAndGlyphs" textLength="166" x="110" y="1829.2808">[Failed update database]</text><polygon fill="#A80036" points="808,1851.3359,818,1855.3359,808,1859.3359,812,1855.3359" style="stroke: #A80036; stroke-width: 1.0;"/><line style="stroke: #A80036; stroke-width: 1.0;" x1="629" x2="814" y1="1855.3359" y2="1855.3359"/><text fill="#000000" font-family="sans-serif" font-size="13" lengthAdjust="spacingAndGlyphs" textLength="89" x="636" y="1850.27">revokeAccess</text><polygon fill="#A80036" points="640,1880.4688,630,1884.4688,640,1888.4688,636,1884.4688" style="stroke: #A80036; stroke-width: 1.0;"/><line style="stroke: #A80036; stroke-width: 1.0; stroke-dasharray: 2.0,2.0;" x1="634" x2="824" y1="1884.4688" y2="1884.4688"/><text fill="#000000" font-family="sans-serif" font-size="13" lengthAdjust="spacingAndGlyphs" textLength="60" x="646" y="1879.4028">ApiResult</text><polygon fill="#A80036" points="335,1909.6016,325,1913.6016,335,1917.6016,331,1913.6016" style="stroke: #A80036; stroke-width: 1.0;"/><line style="stroke: #A80036; stroke-width: 1.0; stroke-dasharray: 2.0,2.0;" x1="329" x2="618" y1="1913.6016" y2="1913.6016"/><text fill="#000000" font-family="sans-serif" font-size="13" lengthAdjust="spacingAndGlyphs" textLength="252" x="341" y="1908.5356">Callback#requestUpdateUserInfoResult</text><polygon fill="#A80036" points="75,1938.7344,65,1942.7344,75,1946.7344,71,1942.7344" style="stroke: #A80036; stroke-width: 1.0;"/><line style="stroke: #A80036; stroke-width: 1.0; stroke-dasharray: 2.0,2.0;" x1="69" x2="313" y1="1942.7344" y2="1942.7344"/><text fill="#000000" font-family="sans-serif" font-size="13" lengthAdjust="spacingAndGlyphs" textLength="191" x="81" y="1937.6685">Callback#requestSignInResult</text><line style="stroke: #A80036; stroke-width: 1.0;" x1="64" x2="111" y1="1966.8672" y2="1966.8672"/><line style="stroke: #A80036; stroke-width: 1.0;" x1="111" x2="111" y1="1966.8672" y2="1979.8672"/><line style="stroke: #A80036; stroke-width: 1.0;" x1="70" x2="111" y1="1979.8672" y2="1979.8672"/><polygon fill="#A80036" points="80,1975.8672,70,1979.8672,80,1983.8672,76,1979.8672" style="stroke: #A80036; stroke-width: 1.0;"/><text fill="#000000" font-family="sans-serif" font-size="13" lengthAdjust="spacingAndGlyphs" textLength="112" x="76" y="1961.8013">Show error dialog</text><line style="stroke: #A80036; stroke-width: 2.0;" x1="50" x2="68" y1="2005.8672" y2="2023.8672"/><line style="stroke: #A80036; stroke-width: 2.0;" x1="50" x2="68" y1="2023.8672" y2="2005.8672"/><polygon fill="#A80036" points="335,2047,325,2051,335,2055,331,2051" style="stroke: #A80036; stroke-width: 1.0;"/><line style="stroke: #A80036; stroke-width: 1.0; stroke-dasharray: 2.0,2.0;" x1="329" x2="623" y1="2051" y2="2051"/><text fill="#000000" font-family="sans-serif" font-size="13" lengthAdjust="spacingAndGlyphs" textLength="252" x="341" y="2045.9341">Callback#requestUpdateUserInfoResult</text><rect fill="#EEEEEE" filter="url(#f7ot4t0wv8a4r)" height="3" style="stroke: #EEEEEE; stroke-width: 1.0;" width="1231.5" x="3" y="2072"/><line style="stroke: #000000; stroke-width: 1.0;" x1="3" x2="1234.5" y1="2072" y2="2072"/><line style="stroke: #000000; stroke-width: 1.0;" x1="3" x2="1234.5" y1="2075" y2="2075"/><polygon fill="#A80036" points="701,2104.1328,711,2108.1328,701,2112.1328,705,2108.1328" style="stroke: #A80036; stroke-width: 1.0;"/><line style="stroke: #A80036; stroke-width: 1.0;" x1="324" x2="707" y1="2108.1328" y2="2108.1328"/><text fill="#000000" font-family="sans-serif" font-size="13" lengthAdjust="spacingAndGlyphs" textLength="107" x="331" y="2103.0669">startMainActivity</text><polygon fill="#A80036" points="75,2133.2656,65,2137.2656,75,2141.2656,71,2137.2656" style="stroke: #A80036; stroke-width: 1.0;"/><line style="stroke: #A80036; stroke-width: 1.0; stroke-dasharray: 2.0,2.0;" x1="69" x2="318" y1="2137.2656" y2="2137.2656"/><text fill="#000000" font-family="sans-serif" font-size="13" lengthAdjust="spacingAndGlyphs" textLength="191" x="81" y="2132.1997">Callback#requestSignInResult</text><polygon fill="#A80036" points="302,2162.3984,312,2166.3984,302,2170.3984,306,2166.3984" style="stroke: #A80036; stroke-width: 1.0;"/><line style="stroke: #A80036; stroke-width: 1.0;" x1="64" x2="308" y1="2166.3984" y2="2166.3984"/><text fill="#000000" font-family="sans-serif" font-size="13" lengthAdjust="spacingAndGlyphs" textLength="49" x="71" y="2161.3325">destroy</text><polygon fill="#A80036" points="612,2191.5313,622,2195.5313,612,2199.5313,616,2195.5313" style="stroke: #A80036; stroke-width: 1.0;"/><line style="stroke: #A80036; stroke-width: 1.0;" x1="319" x2="618" y1="2195.5313" y2="2195.5313"/><text fill="#000000" font-family="sans-serif" font-size="13" lengthAdjust="spacingAndGlyphs" textLength="49" x="326" y="2190.4653">destroy</text><line style="stroke: #A80036; stroke-width: 2.0;" x1="615" x2="633" y1="2186.5313" y2="2204.5313"/><line style="stroke: #A80036; stroke-width: 2.0;" x1="615" x2="633" y1="2204.5313" y2="2186.5313"/><line style="stroke: #A80036; stroke-width: 2.0;" x1="310" x2="328" y1="2186.5313" y2="2204.5313"/><line style="stroke: #A80036; stroke-width: 2.0;" x1="310" x2="328" y1="2204.5313" y2="2186.5313"/><line style="stroke: #A80036; stroke-width: 2.0;" x1="50" x2="68" y1="2186.5313" y2="2204.5313"/><line style="stroke: #A80036; stroke-width: 2.0;" x1="50" x2="68" y1="2204.5313" y2="2186.5313"/><!--MD5=[8a7b1aaf1138f0ae93c9e6cd2f615a3b]
@startuml
participant View
participant Presenter
participant Interactor
participant Router

participant GoogleSignInApi
participant GoogleOAuth2Api
participant UserInfoDatabase


[-> View
activate View
View -> View++: Show app logo 2 secs.

View -> Presenter++: requestSignIn
View- -

== Runtime Permissions ==

Presenter -> Interactor++: isGrantedRuntimePermissions
return Boolean

opt !isGrantedRuntimePermissions
  Presenter -> Router: startRuntimePermissions
  [- -> View
  View - -> Presenter: evaluateRequestPermissionsResult

  Presenter -> Interactor++: isGrantedRuntimePermissions  
  return Boolean

  opt !isGrantedRuntimePermissions
    View <- - Presenter: Callback#requestSignInResult
    View -> View++: Show error dialog
    destroy View
  end
end

== Google Sign In ==

Presenter -> Interactor++: isGoogleSignedIn
  Interactor -> GoogleSignInApi++: isSignedInAccount
  return Boolean
return Boolean

alt isGoogleSignedIn
  Presenter -> Interactor++: requestGoogleSilentSignIn
    Interactor -> GoogleSignInApi++: requestSilentSignIn
    return ApiResult
  return Callback#requestGoogleSilentSignInResult

  opt ApiResult!=Succeeded
    View <- - Presenter: Callback#requestSignInResult
    View -> View++: Show error dialog
    destroy View
  end

else
  Presenter -> Router: startGoogleSignInActivity
  [- -> View
  View - -> Presenter: evaluateActivityResult

  Presenter -> Interactor++: isSucceededGoogleUserSignIn
    Interactor -> GoogleSignInApi++: isSucceededUserSignIn
    return Boolean  
  return Boolean

  opt !isSucceededGoogleUserSignIn
    View <- - Presenter: Callback#requestSignInResult
    View -> View++: Show error dialog
    destroy View
  end
end

== Update UserInfo ==

Presenter -> Interactor++: requestUpdateUserInfo

Interactor -> GoogleSignInApi++: getSignedInAccount
return GoogleSignInAccount

opt GoogleSignInAccount.email!=null

  Interactor -> UserInfoDatabase++: find
  return UserInfo

  opt UserInfo!=null
    Interactor -> GoogleOAuth2Api++: requestTokenInfoWithRefreshToken
    return TokenInfo
  end

  opt TokenInfo==null
    Interactor -> GoogleOAuth2Api++: requestTokenInfoWithAuthCode
    return TokenInfo
  end

  opt TokenInfo!=null
    Interactor -> UserInfoDatabase++: update
    return Boolean
  end
end

opt Failed update database
  Interactor -> GoogleSignInApi++: revokeAccess
  return ApiResult
  Presenter <- - Interactor: Callback#requestUpdateUserInfoResult
  View <- - Presenter: Callback#requestSignInResult
  View -> View++: Show error dialog
  destroy View
end

Presenter <- - Interactor- -: Callback#requestUpdateUserInfoResult

====

Presenter -> Router: startMainActivity
View <- - Presenter- -: Callback#requestSignInResult

View -> Presenter++: destroy
Presenter -> Interactor!!: destroy
destroy Presenter
destroy View
@enduml

PlantUML version 1.2020.13(Sat Jun 13 12:26:38 UTC 2020)
(GPL source distribution)
Java Runtime: Java(TM) SE Runtime Environment
JVM: Java HotSpot(TM) 64-Bit Server VM
Default Encoding: UTF-8
Language: en
Country: US
--></g></svg>