<?xml version="1.0" encoding="UTF-8" standalone="no"?><svg xmlns="http://www.w3.org/2000/svg" xmlns:xlink="http://www.w3.org/1999/xlink" contentScriptType="application/ecmascript" contentStyleType="text/css" height="1062px" preserveAspectRatio="none" style="width:1396px;height:1062px;" version="1.1" viewBox="0 0 1396 1062" width="1396px" zoomAndPan="magnify"><defs><filter height="300%" id="fvux3gg6jcam2" width="300%" x="-1" y="-1"><feGaussianBlur result="blurOut" stdDeviation="2.0"/><feColorMatrix in="blurOut" result="blurOut2" type="matrix" values="0 0 0 0 0 0 0 0 0 0 0 0 0 0 0 0 0 0 .4 0"/><feOffset dx="4.0" dy="4.0" in="blurOut2" result="blurOut3"/><feBlend in="SourceGraphic" in2="blurOut3" mode="normal"/></filter></defs><g><!--MD5=[3ce32bb550aa839ce29f258eb10ccb5c]
cluster core.webapi--><polygon fill="#EEFFFF" filter="url(#fvux3gg6jcam2)" points="16,6,119,6,126,28.2969,1374,28.2969,1374,1050,16,1050,16,6" style="stroke: #000000; stroke-width: 1.5;"/><line style="stroke: #000000; stroke-width: 1.5;" x1="16" x2="126" y1="28.2969" y2="28.2969"/><text fill="#000000" font-family="sans-serif" font-size="14" font-weight="bold" lengthAdjust="spacingAndGlyphs" textLength="97" x="20" y="20.9951">core.webapi</text><!--MD5=[27bf8290cf25a9153e41c9ef9509c68c]
cluster core.webapi.entity--><polygon fill="#EEFFFF" filter="url(#fvux3gg6jcam2)" points="620,602,675,602,682,624.2969,1131,624.2969,1131,1026,620,1026,620,602" style="stroke: #000000; stroke-width: 1.5;"/><line style="stroke: #000000; stroke-width: 1.5;" x1="620" x2="682" y1="624.2969" y2="624.2969"/><text fill="#000000" font-family="sans-serif" font-size="14" font-weight="bold" lengthAdjust="spacingAndGlyphs" textLength="49" x="624" y="616.9951">entity</text><!--MD5=[f1d71360560f5221bc0890725d8224b0]
cluster core.webapi.holder--><polygon fill="#EEFFFF" filter="url(#fvux3gg6jcam2)" points="324,358,381,358,388,380.2969,1156,380.2969,1156,553,324,553,324,358" style="stroke: #000000; stroke-width: 1.5;"/><line style="stroke: #000000; stroke-width: 1.5;" x1="324" x2="388" y1="380.2969" y2="380.2969"/><text fill="#000000" font-family="sans-serif" font-size="14" font-weight="bold" lengthAdjust="spacingAndGlyphs" textLength="51" x="328" y="372.9951">holder</text><!--MD5=[5ec597226546b000415934a087020203]
cluster core.webapi.impl--><polygon fill="#EEFFFF" filter="url(#fvux3gg6jcam2)" points="449,226,490,226,497,248.2969,1029,248.2969,1029,325,449,325,449,226" style="stroke: #000000; stroke-width: 1.5;"/><line style="stroke: #000000; stroke-width: 1.5;" x1="449" x2="497" y1="248.2969" y2="248.2969"/><text fill="#000000" font-family="sans-serif" font-size="14" font-weight="bold" lengthAdjust="spacingAndGlyphs" textLength="35" x="453" y="240.9951">impl</text><!--MD5=[9dc4add96efb686b57691790338143fd]
class core.webapi.GoogleSignInApi--><rect codeLine="59" fill="#FEFECE" filter="url(#fvux3gg6jcam2)" height="137.6328" id="core.webapi.GoogleSignInApi" style="stroke: #A80036; stroke-width: 1.5;" width="371" x="986.5" y="41"/><ellipse cx="1118.25" cy="57" fill="#B4A7E5" rx="11" ry="11" style="stroke: #A80036; stroke-width: 1.0;"/><path d="M1119.2031,53.7813 L1120.9219,53.7813 C1121.3125,53.7813 1121.5,53.75 1121.625,53.6719 C1121.8906,53.5156 1122.0313,53.2344 1122.0313,52.9375 C1122.0313,52.6719 1121.9219,52.4063 1121.6875,52.2344 C1121.5156,52.125 1121.375,52.0938 1120.9219,52.0938 L1115.7813,52.0938 C1115.3438,52.0938 1115.2188,52.1094 1115.0625,52.2031 C1114.8125,52.3594 1114.6563,52.6563 1114.6563,52.9375 C1114.6563,53.2188 1114.7969,53.4688 1115.0156,53.6406 C1115.1719,53.75 1115.3594,53.7813 1115.7813,53.7813 L1117.5,53.7813 L1117.5,60.2969 L1115.7813,60.2969 C1115.3438,60.2969 1115.2188,60.3125 1115.0625,60.4219 C1114.8125,60.5781 1114.6563,60.8594 1114.6563,61.1563 C1114.6563,61.4063 1114.7969,61.6719 1115.0156,61.8281 C1115.1719,61.9531 1115.375,62 1115.7813,62 L1120.9219,62 C1121.6719,62 1122.0313,61.7188 1122.0313,61.1563 C1122.0313,60.875 1121.9219,60.625 1121.6875,60.4531 C1121.5156,60.3281 1121.375,60.2969 1120.9219,60.2969 L1119.2031,60.2969 L1119.2031,53.7813 Z "/><text fill="#000000" font-family="sans-serif" font-size="12" font-style="italic" lengthAdjust="spacingAndGlyphs" textLength="99" x="1138.75" y="61.1543">GoogleSignInApi</text><line style="stroke: #A80036; stroke-width: 1.5;" x1="987.5" x2="1356.5" y1="73" y2="73"/><line style="stroke: #A80036; stroke-width: 1.5;" x1="987.5" x2="1356.5" y1="81" y2="81"/><ellipse cx="997.5" cy="92" fill="#84BE84" rx="3" ry="3" style="stroke: #038048; stroke-width: 1.0;"/><text fill="#000000" font-family="sans-serif" font-size="11" lengthAdjust="spacingAndGlyphs" textLength="180" x="1006.5" y="95.2104">requestSilentSignIn(): ApiResult</text><ellipse cx="997.5" cy="104.8047" fill="#84BE84" rx="3" ry="3" style="stroke: #038048; stroke-width: 1.0;"/><text fill="#000000" font-family="sans-serif" font-size="11" lengthAdjust="spacingAndGlyphs" textLength="157" x="1006.5" y="108.0151">requestSignOut(): ApiResult</text><ellipse cx="997.5" cy="117.6094" fill="#84BE84" rx="3" ry="3" style="stroke: #038048; stroke-width: 1.0;"/><text fill="#000000" font-family="sans-serif" font-size="11" lengthAdjust="spacingAndGlyphs" textLength="195" x="1006.5" y="120.8198">requestRevokeAccess(): ApiResult</text><ellipse cx="997.5" cy="130.4141" fill="#84BE84" rx="3" ry="3" style="stroke: #038048; stroke-width: 1.0;"/><text fill="#000000" font-family="sans-serif" font-size="11" lengthAdjust="spacingAndGlyphs" text-decoration="underline" textLength="261" x="1006.5" y="133.6245">isSignedInAccount(context: Context): Boolean</text><ellipse cx="997.5" cy="143.2188" fill="#84BE84" rx="3" ry="3" style="stroke: #038048; stroke-width: 1.0;"/><text fill="#000000" font-family="sans-serif" font-size="11" lengthAdjust="spacingAndGlyphs" text-decoration="underline" textLength="345" x="1006.5" y="146.4292">getSignedInAccount(context: Context): GoogleSignInAccount</text><ellipse cx="997.5" cy="156.0234" fill="#84BE84" rx="3" ry="3" style="stroke: #038048; stroke-width: 1.0;"/><text fill="#000000" font-family="sans-serif" font-size="11" lengthAdjust="spacingAndGlyphs" text-decoration="underline" textLength="289" x="1006.5" y="159.2339">getSignedInEmailAddress(context: Context): String</text><ellipse cx="997.5" cy="168.8281" fill="#84BE84" rx="3" ry="3" style="stroke: #038048; stroke-width: 1.0;"/><text fill="#000000" font-family="sans-serif" font-size="11" lengthAdjust="spacingAndGlyphs" text-decoration="underline" textLength="268" x="1006.5" y="172.0386">isSucceededUserSignIn(data: Intent?): Boolean</text><!--MD5=[0859dedf61d8e3f88a3865835bcb9c55]
class core.webapi.GoogleOAuth2Api--><rect codeLine="68" fill="#FEFECE" filter="url(#fvux3gg6jcam2)" height="73.6094" id="core.webapi.GoogleOAuth2Api" style="stroke: #A80036; stroke-width: 1.5;" width="423" x="528.5" y="73"/><ellipse cx="682.75" cy="89" fill="#B4A7E5" rx="11" ry="11" style="stroke: #A80036; stroke-width: 1.0;"/><path d="M683.7031,85.7813 L685.4219,85.7813 C685.8125,85.7813 686,85.75 686.125,85.6719 C686.3906,85.5156 686.5313,85.2344 686.5313,84.9375 C686.5313,84.6719 686.4219,84.4063 686.1875,84.2344 C686.0156,84.125 685.875,84.0938 685.4219,84.0938 L680.2813,84.0938 C679.8438,84.0938 679.7188,84.1094 679.5625,84.2031 C679.3125,84.3594 679.1563,84.6563 679.1563,84.9375 C679.1563,85.2188 679.2969,85.4688 679.5156,85.6406 C679.6719,85.75 679.8594,85.7813 680.2813,85.7813 L682,85.7813 L682,92.2969 L680.2813,92.2969 C679.8438,92.2969 679.7188,92.3125 679.5625,92.4219 C679.3125,92.5781 679.1563,92.8594 679.1563,93.1563 C679.1563,93.4063 679.2969,93.6719 679.5156,93.8281 C679.6719,93.9531 679.875,94 680.2813,94 L685.4219,94 C686.1719,94 686.5313,93.7188 686.5313,93.1563 C686.5313,92.875 686.4219,92.625 686.1875,92.4531 C686.0156,92.3281 685.875,92.2969 685.4219,92.2969 L683.7031,92.2969 L683.7031,85.7813 Z "/><text fill="#000000" font-family="sans-serif" font-size="12" font-style="italic" lengthAdjust="spacingAndGlyphs" textLength="106" x="703.25" y="93.1543">GoogleOAuth2Api</text><line style="stroke: #A80036; stroke-width: 1.5;" x1="529.5" x2="950.5" y1="105" y2="105"/><line style="stroke: #A80036; stroke-width: 1.5;" x1="529.5" x2="950.5" y1="113" y2="113"/><ellipse cx="539.5" cy="124" fill="#84BE84" rx="3" ry="3" style="stroke: #038048; stroke-width: 1.0;"/><text fill="#000000" font-family="sans-serif" font-size="11" lengthAdjust="spacingAndGlyphs" textLength="391" x="548.5" y="127.2104">requestTokenInfoWithAuthCode(serverAuthCode: String): TokenInfo?</text><ellipse cx="539.5" cy="136.8047" fill="#84BE84" rx="3" ry="3" style="stroke: #038048; stroke-width: 1.0;"/><text fill="#000000" font-family="sans-serif" font-size="11" lengthAdjust="spacingAndGlyphs" textLength="397" x="548.5" y="140.0151">requestTokenInfoWithRefreshToken(refreshToken: String): TokenInfo?</text><!--MD5=[0b180fd9b1121e78d88184fae5f0fd7e]
class core.webapi.PhotosLibraryApi--><rect codeLine="72" fill="#FEFECE" filter="url(#fvux3gg6jcam2)" height="124.8281" id="core.webapi.PhotosLibraryApi" style="stroke: #A80036; stroke-width: 1.5;" width="461" x="32.5" y="47.5"/><ellipse cx="208.25" cy="63.5" fill="#B4A7E5" rx="11" ry="11" style="stroke: #A80036; stroke-width: 1.0;"/><path d="M209.2031,60.2813 L210.9219,60.2813 C211.3125,60.2813 211.5,60.25 211.625,60.1719 C211.8906,60.0156 212.0313,59.7344 212.0313,59.4375 C212.0313,59.1719 211.9219,58.9063 211.6875,58.7344 C211.5156,58.625 211.375,58.5938 210.9219,58.5938 L205.7813,58.5938 C205.3438,58.5938 205.2188,58.6094 205.0625,58.7031 C204.8125,58.8594 204.6563,59.1563 204.6563,59.4375 C204.6563,59.7188 204.7969,59.9688 205.0156,60.1406 C205.1719,60.25 205.3594,60.2813 205.7813,60.2813 L207.5,60.2813 L207.5,66.7969 L205.7813,66.7969 C205.3438,66.7969 205.2188,66.8125 205.0625,66.9219 C204.8125,67.0781 204.6563,67.3594 204.6563,67.6563 C204.6563,67.9063 204.7969,68.1719 205.0156,68.3281 C205.1719,68.4531 205.375,68.5 205.7813,68.5 L210.9219,68.5 C211.6719,68.5 212.0313,68.2188 212.0313,67.6563 C212.0313,67.375 211.9219,67.125 211.6875,66.9531 C211.5156,66.8281 211.375,66.7969 210.9219,66.7969 L209.2031,66.7969 L209.2031,60.2813 Z "/><text fill="#000000" font-family="sans-serif" font-size="12" font-style="italic" lengthAdjust="spacingAndGlyphs" textLength="101" x="228.75" y="67.6543">PhotosLibraryApi</text><line style="stroke: #A80036; stroke-width: 1.5;" x1="33.5" x2="492.5" y1="79.5" y2="79.5"/><line style="stroke: #A80036; stroke-width: 1.5;" x1="33.5" x2="492.5" y1="87.5" y2="87.5"/><ellipse cx="43.5" cy="98.5" fill="#84BE84" rx="3" ry="3" style="stroke: #038048; stroke-width: 1.0;"/><text fill="#000000" font-family="sans-serif" font-size="11" lengthAdjust="spacingAndGlyphs" textLength="216" x="52.5" y="101.7104">requestAlbum(albumId: String): Album</text><ellipse cx="43.5" cy="111.3047" fill="#84BE84" rx="3" ry="3" style="stroke: #038048; stroke-width: 1.0;"/><text fill="#000000" font-family="sans-serif" font-size="11" lengthAdjust="spacingAndGlyphs" textLength="291" x="52.5" y="114.5151">requestMediaItem(mediaItemId: String): MediaItem</text><ellipse cx="43.5" cy="124.1094" fill="#84BE84" rx="3" ry="3" style="stroke: #038048; stroke-width: 1.0;"/><text fill="#000000" font-family="sans-serif" font-size="11" lengthAdjust="spacingAndGlyphs" textLength="336" x="52.5" y="127.3198">requestUpdateAlbums(albums: List&lt;Album&gt;): List&lt;Album&gt;</text><ellipse cx="43.5" cy="136.9141" fill="#84BE84" rx="3" ry="3" style="stroke: #038048; stroke-width: 1.0;"/><text fill="#000000" font-family="sans-serif" font-size="11" lengthAdjust="spacingAndGlyphs" textLength="435" x="52.5" y="140.1245">requestUpdateMediaItems(mediaItems: List&lt;MediaItem&gt;): List&lt;MediaItem&gt;</text><ellipse cx="43.5" cy="149.7188" fill="#84BE84" rx="3" ry="3" style="stroke: #038048; stroke-width: 1.0;"/><text fill="#000000" font-family="sans-serif" font-size="11" lengthAdjust="spacingAndGlyphs" textLength="215" x="52.5" y="152.9292">requestSharedAlbums(): List&lt;Album&gt;</text><ellipse cx="43.5" cy="162.5234" fill="#84BE84" rx="3" ry="3" style="stroke: #038048; stroke-width: 1.0;"/><text fill="#000000" font-family="sans-serif" font-size="11" lengthAdjust="spacingAndGlyphs" textLength="300" x="52.5" y="165.7339">requestMediaItems(album: Album): List&lt;MediaItem&gt;</text><!--MD5=[ff62f648d77ce11cd3e90026639b81a5]
class core.webapi.entity.ApiResult--><rect codeLine="4" fill="#FEFECE" filter="url(#fvux3gg6jcam2)" height="86.4141" id="core.webapi.entity.ApiResult" style="stroke: #A80036; stroke-width: 1.5;" width="87" x="881.5" y="667"/><ellipse cx="896.5" cy="683" fill="#EB937F" rx="11" ry="11" style="stroke: #A80036; stroke-width: 1.0;"/><path d="M895.2969,683.875 L896.75,683.875 L896.75,683.9844 C896.75,684.3906 896.7813,684.5469 896.8594,684.7031 C897.0156,684.9531 897.2969,685.1094 897.5938,685.1094 C897.8438,685.1094 898.1094,684.9688 898.2656,684.75 C898.3906,684.5938 898.4219,684.4375 898.4219,683.9844 L898.4219,682.0625 C898.4219,681.9063 898.4219,681.8594 898.4063,681.7031 C898.3438,681.2344 898.0313,680.9219 897.5781,680.9219 C897.3281,680.9219 897.0625,681.0625 896.8906,681.2813 C896.7813,681.4531 896.75,681.6094 896.75,682.0625 L896.75,682.1875 L895.2969,682.1875 L895.2969,679.7813 L899.2813,679.7813 L899.2813,680.6406 C899.2813,681.0469 899.3125,681.2188 899.3906,681.375 C899.5625,681.625 899.8438,681.7813 900.125,681.7813 C900.3906,681.7813 900.6563,681.6406 900.8281,681.4219 C900.9375,681.25 900.9688,681.1094 900.9688,680.6406 L900.9688,678.0938 L893.3438,678.0938 C892.9063,678.0938 892.7813,678.1094 892.625,678.2031 C892.375,678.3594 892.2188,678.6563 892.2188,678.9375 C892.2188,679.2188 892.3594,679.4688 892.5781,679.6406 C892.7344,679.75 892.9219,679.7813 893.3438,679.7813 L893.5938,679.7813 L893.5938,686.2969 L893.3438,686.2969 C892.9375,686.2969 892.7813,686.3125 892.625,686.4219 C892.375,686.5938 892.2188,686.8594 892.2188,687.1563 C892.2188,687.4219 892.3594,687.6719 892.5781,687.8281 C892.7188,687.9531 892.9531,688 893.3438,688 L901.3438,688 L901.3438,685.4219 C901.3438,684.9844 901.3125,684.8438 901.2344,684.6875 C901.0625,684.4375 900.7813,684.2813 900.5,684.2813 C900.2344,684.2813 899.9688,684.3906 899.7969,684.6406 C899.6875,684.7969 899.6563,684.9375 899.6563,685.4219 L899.6563,686.2969 L895.2969,686.2969 L895.2969,683.875 Z "/><text fill="#000000" font-family="sans-serif" font-size="12" lengthAdjust="spacingAndGlyphs" textLength="55" x="910.5" y="687.1543">ApiResult</text><line style="stroke: #A80036; stroke-width: 1.5;" x1="882.5" x2="967.5" y1="699" y2="699"/><text fill="#000000" font-family="sans-serif" font-size="11" lengthAdjust="spacingAndGlyphs" textLength="71" x="887.5" y="713.2104">SUCCEEDED</text><text fill="#000000" font-family="sans-serif" font-size="11" lengthAdjust="spacingAndGlyphs" textLength="39" x="887.5" y="726.0151">FAILED</text><text fill="#000000" font-family="sans-serif" font-size="11" lengthAdjust="spacingAndGlyphs" textLength="61" x="887.5" y="738.8198">CANCELED</text><line style="stroke: #A80036; stroke-width: 1.5;" x1="882.5" x2="967.5" y1="745.4141" y2="745.4141"/><!--MD5=[0f8479c8f8fc0238a6b87a26c6873552]
class core.webapi.entity.PhotoScope--><rect codeLine="9" fill="#FEFECE" filter="url(#fvux3gg6jcam2)" height="145.6328" id="core.webapi.entity.PhotoScope" style="stroke: #A80036; stroke-width: 1.5;" width="111" x="1003.5" y="637"/><ellipse cx="1021.65" cy="653" fill="#EB937F" rx="11" ry="11" style="stroke: #A80036; stroke-width: 1.0;"/><path d="M1020.4469,653.875 L1021.9,653.875 L1021.9,653.9844 C1021.9,654.3906 1021.9313,654.5469 1022.0094,654.7031 C1022.1656,654.9531 1022.4469,655.1094 1022.7438,655.1094 C1022.9938,655.1094 1023.2594,654.9688 1023.4156,654.75 C1023.5406,654.5938 1023.5719,654.4375 1023.5719,653.9844 L1023.5719,652.0625 C1023.5719,651.9063 1023.5719,651.8594 1023.5563,651.7031 C1023.4938,651.2344 1023.1813,650.9219 1022.7281,650.9219 C1022.4781,650.9219 1022.2125,651.0625 1022.0406,651.2813 C1021.9313,651.4531 1021.9,651.6094 1021.9,652.0625 L1021.9,652.1875 L1020.4469,652.1875 L1020.4469,649.7813 L1024.4313,649.7813 L1024.4313,650.6406 C1024.4313,651.0469 1024.4625,651.2188 1024.5406,651.375 C1024.7125,651.625 1024.9938,651.7813 1025.275,651.7813 C1025.5406,651.7813 1025.8063,651.6406 1025.9781,651.4219 C1026.0875,651.25 1026.1188,651.1094 1026.1188,650.6406 L1026.1188,648.0938 L1018.4938,648.0938 C1018.0563,648.0938 1017.9313,648.1094 1017.775,648.2031 C1017.525,648.3594 1017.3688,648.6563 1017.3688,648.9375 C1017.3688,649.2188 1017.5094,649.4688 1017.7281,649.6406 C1017.8844,649.75 1018.0719,649.7813 1018.4938,649.7813 L1018.7438,649.7813 L1018.7438,656.2969 L1018.4938,656.2969 C1018.0875,656.2969 1017.9313,656.3125 1017.775,656.4219 C1017.525,656.5938 1017.3688,656.8594 1017.3688,657.1563 C1017.3688,657.4219 1017.5094,657.6719 1017.7281,657.8281 C1017.8688,657.9531 1018.1031,658 1018.4938,658 L1026.4938,658 L1026.4938,655.4219 C1026.4938,654.9844 1026.4625,654.8438 1026.3844,654.6875 C1026.2125,654.4375 1025.9313,654.2813 1025.65,654.2813 C1025.3844,654.2813 1025.1188,654.3906 1024.9469,654.6406 C1024.8375,654.7969 1024.8063,654.9375 1024.8063,655.4219 L1024.8063,656.2969 L1020.4469,656.2969 L1020.4469,653.875 Z "/><text fill="#000000" font-family="sans-serif" font-size="12" lengthAdjust="spacingAndGlyphs" textLength="72" x="1036.35" y="657.1543">PhotoScope</text><line style="stroke: #A80036; stroke-width: 1.5;" x1="1004.5" x2="1113.5" y1="669" y2="669"/><text fill="#000000" font-family="sans-serif" font-size="11" lengthAdjust="spacingAndGlyphs" textLength="72" x="1009.5" y="683.2104">READ_WRITE</text><text fill="#000000" font-family="sans-serif" font-size="11" lengthAdjust="spacingAndGlyphs" textLength="67" x="1009.5" y="696.0151">READ_ONLY</text><text fill="#000000" font-family="sans-serif" font-size="11" lengthAdjust="spacingAndGlyphs" textLength="71" x="1009.5" y="708.8198">WRITE_ONLY</text><text fill="#000000" font-family="sans-serif" font-size="11" lengthAdjust="spacingAndGlyphs" textLength="93" x="1009.5" y="721.6245">READ_ONLY_APP</text><text fill="#000000" font-family="sans-serif" font-size="11" lengthAdjust="spacingAndGlyphs" textLength="51" x="1009.5" y="734.4292">SHARING</text><line style="stroke: #A80036; stroke-width: 1.0;" x1="1004.5" x2="1113.5" y1="741.0234" y2="741.0234"/><line style="stroke: #A80036; stroke-width: 1.0;" x1="1004.5" x2="1113.5" y1="743.0234" y2="743.0234"/><rect fill="none" height="6" style="stroke: #C82930; stroke-width: 1.0;" width="6" x="1011.5" y="749.0234"/><text fill="#000000" font-family="sans-serif" font-size="11" lengthAdjust="spacingAndGlyphs" textLength="72" x="1023.5" y="755.2339">value: String</text><line style="stroke: #A80036; stroke-width: 1.5;" x1="1004.5" x2="1113.5" y1="761.8281" y2="761.8281"/><ellipse cx="1014.5" cy="772.8281" fill="#84BE84" rx="3" ry="3" style="stroke: #038048; stroke-width: 1.0;"/><text fill="#000000" font-family="sans-serif" font-size="11" lengthAdjust="spacingAndGlyphs" textLength="85" x="1023.5" y="776.0386">scope(): Scope</text><!--MD5=[dcd4eb343618c63251134a61595b4484]
class core.webapi.entity.WebInfo--><rect codeLine="20" fill="#FEFECE" filter="url(#fvux3gg6jcam2)" height="150.4375" id="core.webapi.entity.WebInfo" style="stroke: #A80036; stroke-width: 1.5;" width="208" x="636" y="860"/><ellipse cx="710.75" cy="876" fill="#F4A460" rx="11" ry="11" style="stroke: #A80036; stroke-width: 1.0;"/><path d="M708.2656,879.2969 C707.6094,879.2969 707.2188,879.6094 707.2188,880.1563 C707.2188,880.4063 707.3594,880.6719 707.5781,880.8281 C707.7344,880.9531 707.9531,881 708.3594,881 L711.8281,881 C713.3125,881 714.3281,880.6094 715.1563,879.7188 C715.9375,878.9063 716.3438,877.8594 716.3438,876.6094 L716.3438,875.8125 C716.3438,873.1406 714.4531,871.0938 711.9688,871.0938 L708.3594,871.0938 C707.9063,871.0938 707.7813,871.1094 707.625,871.2031 C707.375,871.3594 707.2188,871.6563 707.2188,871.9375 C707.2188,872.4844 707.5938,872.7813 708.2656,872.7813 L708.2656,879.2969 Z M709.9531,879.2969 L709.9531,872.7813 L711.8281,872.7813 C712.7344,872.7813 713.375,873.0625 713.8906,873.6563 C714.375,874.2344 714.6563,874.9844 714.6563,875.7813 L714.6563,876.5625 C714.6563,877.4375 714.4219,878.0313 713.9531,878.5469 C713.4219,879.0938 712.8594,879.2969 711.8438,879.2969 L709.9531,879.2969 Z "/><text fill="#000000" font-family="sans-serif" font-size="12" lengthAdjust="spacingAndGlyphs" textLength="50" x="731.25" y="880.1543">WebInfo</text><line style="stroke: #A80036; stroke-width: 1.5;" x1="637" x2="843" y1="892" y2="892"/><ellipse cx="647" cy="903" fill="none" rx="3" ry="3" style="stroke: #038048; stroke-width: 1.0;"/><text fill="#000000" font-family="sans-serif" font-size="11" lengthAdjust="spacingAndGlyphs" textLength="84" x="656" y="906.2104">clientId: String,</text><ellipse cx="647" cy="915.8047" fill="none" rx="3" ry="3" style="stroke: #038048; stroke-width: 1.0;"/><text fill="#000000" font-family="sans-serif" font-size="11" lengthAdjust="spacingAndGlyphs" textLength="92" x="656" y="919.0151">projectId: String,</text><ellipse cx="647" cy="928.6094" fill="none" rx="3" ry="3" style="stroke: #038048; stroke-width: 1.0;"/><text fill="#000000" font-family="sans-serif" font-size="11" lengthAdjust="spacingAndGlyphs" textLength="83" x="656" y="931.8198">authUri: String,</text><ellipse cx="647" cy="941.4141" fill="none" rx="3" ry="3" style="stroke: #038048; stroke-width: 1.0;"/><text fill="#000000" font-family="sans-serif" font-size="11" lengthAdjust="spacingAndGlyphs" textLength="90" x="656" y="944.6245">tokenUri: String,</text><ellipse cx="647" cy="954.2188" fill="none" rx="3" ry="3" style="stroke: #038048; stroke-width: 1.0;"/><text fill="#000000" font-family="sans-serif" font-size="11" lengthAdjust="spacingAndGlyphs" textLength="182" x="656" y="957.4292">authProviderX509CertUrl: String,</text><ellipse cx="647" cy="967.0234" fill="none" rx="3" ry="3" style="stroke: #038048; stroke-width: 1.0;"/><text fill="#000000" font-family="sans-serif" font-size="11" lengthAdjust="spacingAndGlyphs" textLength="112" x="656" y="970.2339">clientSecret: String,</text><ellipse cx="647" cy="979.8281" fill="none" rx="3" ry="3" style="stroke: #038048; stroke-width: 1.0;"/><text fill="#000000" font-family="sans-serif" font-size="11" lengthAdjust="spacingAndGlyphs" textLength="145" x="656" y="983.0386">redirectUris: List&lt;String&gt;,</text><ellipse cx="647" cy="992.6328" fill="none" rx="3" ry="3" style="stroke: #038048; stroke-width: 1.0;"/><text fill="#000000" font-family="sans-serif" font-size="11" lengthAdjust="spacingAndGlyphs" textLength="170" x="656" y="995.8433">javascriptOrigins: List&lt;String&gt;</text><line style="stroke: #A80036; stroke-width: 1.5;" x1="637" x2="843" y1="1002.4375" y2="1002.4375"/><!--MD5=[fe8a50e4038cb06a9bb60aef73f793e1]
class core.webapi.entity.ClientSecret--><rect codeLine="30" fill="#FEFECE" filter="url(#fvux3gg6jcam2)" height="48" id="core.webapi.entity.ClientSecret" style="stroke: #A80036; stroke-width: 1.5;" width="105" x="687.5" y="686"/><ellipse cx="702.5" cy="702" fill="#F4A460" rx="11" ry="11" style="stroke: #A80036; stroke-width: 1.0;"/><path d="M700.0156,705.2969 C699.3594,705.2969 698.9688,705.6094 698.9688,706.1563 C698.9688,706.4063 699.1094,706.6719 699.3281,706.8281 C699.4844,706.9531 699.7031,707 700.1094,707 L703.5781,707 C705.0625,707 706.0781,706.6094 706.9063,705.7188 C707.6875,704.9063 708.0938,703.8594 708.0938,702.6094 L708.0938,701.8125 C708.0938,699.1406 706.2031,697.0938 703.7188,697.0938 L700.1094,697.0938 C699.6563,697.0938 699.5313,697.1094 699.375,697.2031 C699.125,697.3594 698.9688,697.6563 698.9688,697.9375 C698.9688,698.4844 699.3438,698.7813 700.0156,698.7813 L700.0156,705.2969 Z M701.7031,705.2969 L701.7031,698.7813 L703.5781,698.7813 C704.4844,698.7813 705.125,699.0625 705.6406,699.6563 C706.125,700.2344 706.4063,700.9844 706.4063,701.7813 L706.4063,702.5625 C706.4063,703.4375 706.1719,704.0313 705.7031,704.5469 C705.1719,705.0938 704.6094,705.2969 703.5938,705.2969 L701.7031,705.2969 Z "/><text fill="#000000" font-family="sans-serif" font-size="12" lengthAdjust="spacingAndGlyphs" textLength="73" x="716.5" y="706.1543">ClientSecret</text><line style="stroke: #A80036; stroke-width: 1.5;" x1="688.5" x2="791.5" y1="718" y2="718"/><line style="stroke: #A80036; stroke-width: 1.5;" x1="688.5" x2="791.5" y1="726" y2="726"/><!--MD5=[b58e679e47af320424cf6f7a18ecbe60]
class core.webapi.entity.TokenInfo--><rect codeLine="31" fill="#FEFECE" filter="url(#fvux3gg6jcam2)" height="86.4141" id="core.webapi.entity.TokenInfo" style="stroke: #A80036; stroke-width: 1.5;" width="235" x="879.5" y="892"/><ellipse cx="963.25" cy="908" fill="#F4A460" rx="11" ry="11" style="stroke: #A80036; stroke-width: 1.0;"/><path d="M960.7656,911.2969 C960.1094,911.2969 959.7188,911.6094 959.7188,912.1563 C959.7188,912.4063 959.8594,912.6719 960.0781,912.8281 C960.2344,912.9531 960.4531,913 960.8594,913 L964.3281,913 C965.8125,913 966.8281,912.6094 967.6563,911.7188 C968.4375,910.9063 968.8438,909.8594 968.8438,908.6094 L968.8438,907.8125 C968.8438,905.1406 966.9531,903.0938 964.4688,903.0938 L960.8594,903.0938 C960.4063,903.0938 960.2813,903.1094 960.125,903.2031 C959.875,903.3594 959.7188,903.6563 959.7188,903.9375 C959.7188,904.4844 960.0938,904.7813 960.7656,904.7813 L960.7656,911.2969 Z M962.4531,911.2969 L962.4531,904.7813 L964.3281,904.7813 C965.2344,904.7813 965.875,905.0625 966.3906,905.6563 C966.875,906.2344 967.1563,906.9844 967.1563,907.7813 L967.1563,908.5625 C967.1563,909.4375 966.9219,910.0313 966.4531,910.5469 C965.9219,911.0938 965.3594,911.2969 964.3438,911.2969 L962.4531,911.2969 Z "/><text fill="#000000" font-family="sans-serif" font-size="12" lengthAdjust="spacingAndGlyphs" textLength="59" x="983.75" y="912.1543">TokenInfo</text><line style="stroke: #A80036; stroke-width: 1.5;" x1="880.5" x2="1113.5" y1="924" y2="924"/><ellipse cx="890.5" cy="935" fill="none" rx="3" ry="3" style="stroke: #038048; stroke-width: 1.0;"/><text fill="#000000" font-family="sans-serif" font-size="11" lengthAdjust="spacingAndGlyphs" textLength="114" x="899.5" y="938.2104">accessToken: String</text><ellipse cx="890.5" cy="947.8047" fill="none" rx="3" ry="3" style="stroke: #038048; stroke-width: 1.0;"/><text fill="#000000" font-family="sans-serif" font-size="11" lengthAdjust="spacingAndGlyphs" textLength="116" x="899.5" y="951.0151">refreshToken: String</text><ellipse cx="890.5" cy="960.6094" fill="none" rx="3" ry="3" style="stroke: #038048; stroke-width: 1.0;"/><text fill="#000000" font-family="sans-serif" font-size="11" lengthAdjust="spacingAndGlyphs" textLength="209" x="899.5" y="963.8198">expiredAccessTokenTimeMillis: Long</text><line style="stroke: #A80036; stroke-width: 1.5;" x1="880.5" x2="1113.5" y1="970.4141" y2="970.4141"/><!--MD5=[bb0209262519db886dbebb72145ea451]
class core.webapi.holder.SingletonWebHolder--><rect codeLine="41" fill="#FEFECE" filter="url(#fvux3gg6jcam2)" height="143.5703" id="core.webapi.holder.SingletonWebHolder" style="stroke: #A80036; stroke-width: 1.5;" width="800" x="340" y="393"/><ellipse cx="673.25" cy="411.9688" fill="#FFD700" rx="11" ry="11" style="stroke: #A80036; stroke-width: 1.0;"/><path d="M673.3438,406.8125 C670.7344,406.8125 668.6094,409.1563 668.6094,412 C668.6094,414.875 670.7344,417.2031 673.3438,417.2031 C675.9375,417.2031 678.0938,414.875 678.0938,412.0938 C678.0938,410.4531 677.5625,409.1563 676.5,408.125 C675.5938,407.2813 674.4844,406.8125 673.3438,406.8125 Z M673.3438,408.5156 C675.0313,408.5156 676.3906,410.0938 676.3906,412.0625 C676.3906,413.9219 675,415.5 673.3438,415.5 C671.6875,415.5 670.3125,413.9219 670.3125,412 C670.3125,410.0938 671.6875,408.5156 673.3438,408.5156 Z "/><text fill="#000000" font-family="sans-serif" font-size="12" font-style="italic" lengthAdjust="spacingAndGlyphs" textLength="71" x="720.75" y="409.1387">«Singleton»</text><text fill="#000000" font-family="sans-serif" font-size="12" lengthAdjust="spacingAndGlyphs" textLength="125" x="693.75" y="423.1074">SingletonWebHolder</text><line style="stroke: #A80036; stroke-width: 1.5;" x1="341" x2="1139" y1="430.9375" y2="430.9375"/><ellipse cx="351" cy="441.9375" fill="none" rx="3" ry="3" style="stroke: #038048; stroke-width: 1.0;"/><text fill="#000000" font-family="sans-serif" font-size="11" lengthAdjust="spacingAndGlyphs" textLength="147" x="360" y="445.1479">okHttpClient: OkHttpClient</text><ellipse cx="351" cy="454.7422" fill="none" rx="3" ry="3" style="stroke: #038048; stroke-width: 1.0;"/><text fill="#000000" font-family="sans-serif" font-size="11" lengthAdjust="spacingAndGlyphs" textLength="223" x="360" y="457.9526">googleSignInClient: GoogleSignInClient</text><ellipse cx="351" cy="467.5469" fill="none" rx="3" ry="3" style="stroke: #038048; stroke-width: 1.0;"/><text fill="#000000" font-family="sans-serif" font-size="11" lengthAdjust="spacingAndGlyphs" textLength="230" x="360" y="470.7573">photosLibraryClient: PhotosLibraryClient?</text><line style="stroke: #A80036; stroke-width: 1.5;" x1="341" x2="1139" y1="477.3516" y2="477.3516"/><ellipse cx="351" cy="488.3516" fill="#84BE84" rx="3" ry="3" style="stroke: #038048; stroke-width: 1.0;"/><text fill="#000000" font-family="sans-serif" font-size="11" lengthAdjust="spacingAndGlyphs" textLength="431" x="360" y="491.562">loadClientSecret(assetsFileReader: AssetsFileReader, jsonFileName: String)</text><ellipse cx="351" cy="501.1563" fill="#84BE84" rx="3" ry="3" style="stroke: #038048; stroke-width: 1.0;"/><text fill="#000000" font-family="sans-serif" font-size="11" lengthAdjust="spacingAndGlyphs" textLength="631" x="360" y="504.3667">setupOkHttpClient(connectionTimeoutMilliSecs: Long, readTimeoutMilliSecs: Long, writeTimeoutMilliSecs: Long)</text><ellipse cx="351" cy="513.9609" fill="#84BE84" rx="3" ry="3" style="stroke: #038048; stroke-width: 1.0;"/><text fill="#000000" font-family="sans-serif" font-size="11" lengthAdjust="spacingAndGlyphs" textLength="774" x="360" y="517.1714">fun setupGoogleSignInClient(context: Context, scopes: List&lt;PhotoScope&gt;, requestIdToken: Boolean, requestServerAuthCode: Boolean)</text><ellipse cx="351" cy="526.7656" fill="#84BE84" rx="3" ry="3" style="stroke: #038048; stroke-width: 1.0;"/><text fill="#000000" font-family="sans-serif" font-size="11" lengthAdjust="spacingAndGlyphs" textLength="270" x="360" y="529.9761">updatePhotosLibraryClient(accessToken: String)</text><!--MD5=[052adc0ce636be2b8209592ffc7e5a12]
class core.webapi.impl.GoogleSignInApiImpl--><rect codeLine="54" fill="#FEFECE" filter="url(#fvux3gg6jcam2)" height="48" id="core.webapi.impl.GoogleSignInApiImpl" style="stroke: #A80036; stroke-width: 1.5;" width="156" x="857" y="261"/><ellipse cx="872" cy="277" fill="#ADD1B2" rx="11" ry="11" style="stroke: #A80036; stroke-width: 1.0;"/><path d="M874.3438,272.6719 C873.4063,272.2344 872.8125,272.0938 871.9375,272.0938 C869.3125,272.0938 867.3125,274.1719 867.3125,276.8906 L867.3125,278.0156 C867.3125,280.5938 869.4219,282.4844 872.3125,282.4844 C873.5313,282.4844 874.6875,282.1875 875.4375,281.6406 C876.0156,281.2344 876.3438,280.7813 876.3438,280.3906 C876.3438,279.9375 875.9531,279.5469 875.4844,279.5469 C875.2656,279.5469 875.0625,279.625 874.875,279.8125 C874.4219,280.2969 874.4219,280.2969 874.2344,280.3906 C873.8125,280.6563 873.125,280.7813 872.3594,280.7813 C870.3125,280.7813 869.0156,279.6875 869.0156,277.9844 L869.0156,276.8906 C869.0156,275.1094 870.2656,273.7969 872,273.7969 C872.5781,273.7969 873.1875,273.9531 873.6563,274.2031 C874.1406,274.4844 874.3125,274.7031 874.4063,275.1094 C874.4688,275.5156 874.5,275.6406 874.6406,275.7656 C874.7813,275.9063 875.0156,276.0156 875.2344,276.0156 C875.5,276.0156 875.7656,275.875 875.9375,275.6563 C876.0469,275.5 876.0781,275.3125 876.0781,274.8906 L876.0781,273.4688 C876.0781,273.0313 876.0625,272.9063 875.9688,272.75 C875.8125,272.4844 875.5313,272.3438 875.2344,272.3438 C874.9375,272.3438 874.7344,272.4375 874.5156,272.75 L874.3438,272.6719 Z "/><text fill="#000000" font-family="sans-serif" font-size="12" lengthAdjust="spacingAndGlyphs" textLength="124" x="886" y="281.1543">GoogleSignInApiImpl</text><line style="stroke: #A80036; stroke-width: 1.5;" x1="858" x2="1012" y1="293" y2="293"/><line style="stroke: #A80036; stroke-width: 1.5;" x1="858" x2="1012" y1="301" y2="301"/><!--MD5=[a74ca62ff71da314fe13d25031c0ef54]
class core.webapi.impl.GoogleOAuth2ApiImpl--><rect codeLine="55" fill="#FEFECE" filter="url(#fvux3gg6jcam2)" height="48" id="core.webapi.impl.GoogleOAuth2ApiImpl" style="stroke: #A80036; stroke-width: 1.5;" width="164" x="658" y="261"/><ellipse cx="673" cy="277" fill="#ADD1B2" rx="11" ry="11" style="stroke: #A80036; stroke-width: 1.0;"/><path d="M675.3438,272.6719 C674.4063,272.2344 673.8125,272.0938 672.9375,272.0938 C670.3125,272.0938 668.3125,274.1719 668.3125,276.8906 L668.3125,278.0156 C668.3125,280.5938 670.4219,282.4844 673.3125,282.4844 C674.5313,282.4844 675.6875,282.1875 676.4375,281.6406 C677.0156,281.2344 677.3438,280.7813 677.3438,280.3906 C677.3438,279.9375 676.9531,279.5469 676.4844,279.5469 C676.2656,279.5469 676.0625,279.625 675.875,279.8125 C675.4219,280.2969 675.4219,280.2969 675.2344,280.3906 C674.8125,280.6563 674.125,280.7813 673.3594,280.7813 C671.3125,280.7813 670.0156,279.6875 670.0156,277.9844 L670.0156,276.8906 C670.0156,275.1094 671.2656,273.7969 673,273.7969 C673.5781,273.7969 674.1875,273.9531 674.6563,274.2031 C675.1406,274.4844 675.3125,274.7031 675.4063,275.1094 C675.4688,275.5156 675.5,275.6406 675.6406,275.7656 C675.7813,275.9063 676.0156,276.0156 676.2344,276.0156 C676.5,276.0156 676.7656,275.875 676.9375,275.6563 C677.0469,275.5 677.0781,275.3125 677.0781,274.8906 L677.0781,273.4688 C677.0781,273.0313 677.0625,272.9063 676.9688,272.75 C676.8125,272.4844 676.5313,272.3438 676.2344,272.3438 C675.9375,272.3438 675.7344,272.4375 675.5156,272.75 L675.3438,272.6719 Z "/><text fill="#000000" font-family="sans-serif" font-size="12" lengthAdjust="spacingAndGlyphs" textLength="132" x="687" y="281.1543">GoogleOAuth2ApiImpl</text><line style="stroke: #A80036; stroke-width: 1.5;" x1="659" x2="821" y1="293" y2="293"/><line style="stroke: #A80036; stroke-width: 1.5;" x1="659" x2="821" y1="301" y2="301"/><!--MD5=[b3f56ac04d974e4d55c0ae9aba28b439]
class core.webapi.impl.PhotosLibraryApiImpl--><rect codeLine="56" fill="#FEFECE" filter="url(#fvux3gg6jcam2)" height="48" id="core.webapi.impl.PhotosLibraryApiImpl" style="stroke: #A80036; stroke-width: 1.5;" width="157" x="465.5" y="261"/><ellipse cx="480.5" cy="277" fill="#ADD1B2" rx="11" ry="11" style="stroke: #A80036; stroke-width: 1.0;"/><path d="M482.8438,272.6719 C481.9063,272.2344 481.3125,272.0938 480.4375,272.0938 C477.8125,272.0938 475.8125,274.1719 475.8125,276.8906 L475.8125,278.0156 C475.8125,280.5938 477.9219,282.4844 480.8125,282.4844 C482.0313,282.4844 483.1875,282.1875 483.9375,281.6406 C484.5156,281.2344 484.8438,280.7813 484.8438,280.3906 C484.8438,279.9375 484.4531,279.5469 483.9844,279.5469 C483.7656,279.5469 483.5625,279.625 483.375,279.8125 C482.9219,280.2969 482.9219,280.2969 482.7344,280.3906 C482.3125,280.6563 481.625,280.7813 480.8594,280.7813 C478.8125,280.7813 477.5156,279.6875 477.5156,277.9844 L477.5156,276.8906 C477.5156,275.1094 478.7656,273.7969 480.5,273.7969 C481.0781,273.7969 481.6875,273.9531 482.1563,274.2031 C482.6406,274.4844 482.8125,274.7031 482.9063,275.1094 C482.9688,275.5156 483,275.6406 483.1406,275.7656 C483.2813,275.9063 483.5156,276.0156 483.7344,276.0156 C484,276.0156 484.2656,275.875 484.4375,275.6563 C484.5469,275.5 484.5781,275.3125 484.5781,274.8906 L484.5781,273.4688 C484.5781,273.0313 484.5625,272.9063 484.4688,272.75 C484.3125,272.4844 484.0313,272.3438 483.7344,272.3438 C483.4375,272.3438 483.2344,272.4375 483.0156,272.75 L482.8438,272.6719 Z "/><text fill="#000000" font-family="sans-serif" font-size="12" lengthAdjust="spacingAndGlyphs" textLength="125" x="494.5" y="281.1543">PhotosLibraryApiImpl</text><line style="stroke: #A80036; stroke-width: 1.5;" x1="466.5" x2="621.5" y1="293" y2="293"/><line style="stroke: #A80036; stroke-width: 1.5;" x1="466.5" x2="621.5" y1="301" y2="301"/><!--MD5=[362ca46861c0123506f52f88684eeff3]
reverse link core.webapi.entity.ClientSecret to core.webapi.entity.WebInfo--><path codeLine="37" d="M740,747.331 C740,777.717 740,822.04 740,859.873 " fill="none" id="core.webapi.entity.ClientSecret&lt;-core.webapi.entity.WebInfo" style="stroke: #A80036; stroke-width: 1.0;"/><polygon fill="#A80036" points="740,734.025,736,740.025,740,746.025,744,740.025,740,734.025" style="stroke: #A80036; stroke-width: 1.0;"/><text fill="#000000" font-family="sans-serif" font-size="13" lengthAdjust="spacingAndGlyphs" textLength="27" x="741" y="826.0669">web</text><!--MD5=[dfc813967da7f91f6451b9342bc4055d]
reverse link core.webapi.holder.SingletonWebHolder to core.webapi.entity.ClientSecret--><path codeLine="82" d="M740,550.546 C740,598.528 740,655.008 740,685.91 " fill="none" id="core.webapi.holder.SingletonWebHolder&lt;-core.webapi.entity.ClientSecret" style="stroke: #A80036; stroke-width: 1.0;"/><polygon fill="#A80036" points="740,537.266,736,543.266,740,549.266,744,543.266,740,537.266" style="stroke: #A80036; stroke-width: 1.0;"/><text fill="#000000" font-family="sans-serif" font-size="13" lengthAdjust="spacingAndGlyphs" textLength="75" x="741" y="582.0669">clientSecret</text><!--MD5=[b41d7915fa33a95c44cc766fddfa899e]
link core.webapi.impl.GoogleSignInApiImpl to core.webapi.holder.SingletonWebHolder--><path codeLine="84" d="M909.507,309.27 C886.279,330.474 850.731,362.922 818.177,392.638 " fill="none" id="core.webapi.impl.GoogleSignInApiImpl-core.webapi.holder.SingletonWebHolder" style="stroke: #A80036; stroke-width: 1.0;"/><!--MD5=[e538daa0ce11b0b7a1f1343539a74eba]
link core.webapi.impl.GoogleOAuth2ApiImpl to core.webapi.holder.SingletonWebHolder--><path codeLine="85" d="M740,309.27 C740,330.474 740,362.922 740,392.638 " fill="none" id="core.webapi.impl.GoogleOAuth2ApiImpl-core.webapi.holder.SingletonWebHolder" style="stroke: #A80036; stroke-width: 1.0;"/><!--MD5=[c5cd323634433a9516817b67ff2f6a6d]
link core.webapi.impl.PhotosLibraryApiImpl to core.webapi.holder.SingletonWebHolder--><path codeLine="86" d="M569.624,309.27 C592.971,330.474 628.701,362.922 661.422,392.638 " fill="none" id="core.webapi.impl.PhotosLibraryApiImpl-core.webapi.holder.SingletonWebHolder" style="stroke: #A80036; stroke-width: 1.0;"/><!--MD5=[6bfd5726f7041360fce1772a095d43fb]
reverse link core.webapi.GoogleSignInApi to core.webapi.impl.GoogleSignInApiImpl--><path codeLine="88" d="M1062.19,191.159 C1027.23,216.677 991.256,242.935 966.528,260.986 " fill="none" id="core.webapi.GoogleSignInApi&lt;-core.webapi.impl.GoogleSignInApiImpl" style="stroke: #A80036; stroke-width: 1.0; stroke-dasharray: 7.0,7.0;"/><polygon fill="none" points="1058.39,185.264,1078.67,179.126,1066.64,196.572,1058.39,185.264" style="stroke: #A80036; stroke-width: 1.0;"/><!--MD5=[be5157b6ea6371bb408da8bdce88f763]
reverse link core.webapi.GoogleOAuth2Api to core.webapi.impl.GoogleOAuth2ApiImpl--><path codeLine="89" d="M740,167.484 C740,199.171 740,236.993 740,260.759 " fill="none" id="core.webapi.GoogleOAuth2Api&lt;-core.webapi.impl.GoogleOAuth2ApiImpl" style="stroke: #A80036; stroke-width: 1.0; stroke-dasharray: 7.0,7.0;"/><polygon fill="none" points="733,167.267,740,147.266,747,167.266,733,167.267" style="stroke: #A80036; stroke-width: 1.0;"/><!--MD5=[180535fc5c7dae414c751a7f63bd3856]
reverse link core.webapi.PhotosLibraryApi to core.webapi.impl.PhotosLibraryApiImpl--><path codeLine="90" d="M380.372,183.261 C425.551,211.076 474.011,240.911 506.368,260.832 " fill="none" id="core.webapi.PhotosLibraryApi&lt;-core.webapi.impl.PhotosLibraryApiImpl" style="stroke: #A80036; stroke-width: 1.0; stroke-dasharray: 7.0,7.0;"/><polygon fill="none" points="376.619,189.171,363.257,172.724,383.958,177.249,376.619,189.171" style="stroke: #A80036; stroke-width: 1.0;"/><!--MD5=[8bf928f77d84222d5a3585deae6b9773]
link core.webapi.entity.ApiResult to core.webapi.entity.PhotoScope--><!--MD5=[9c4297b2450d629ac3e7f856dc977e12]
link core.webapi.entity.ApiResult to core.webapi.entity.TokenInfo--><!--MD5=[a1ecaa92c86767b741c966b94c291d5e]
@startuml
namespace core.webapi #EEFFFF {

  namespace entity {
    enum ApiResult {
      SUCCEEDED
      FAILED
      CANCELED
    }
    enum PhotoScope {
      READ_WRITE
      READ_ONLY
      WRITE_ONLY
      READ_ONLY_APP
      SHARING
      ==
      - value: String
      __
      + scope(): Scope
    }
    class WebInfo << (D, sandybrown) >> {
      + clientId: String,
      + projectId: String,
      + authUri: String,
      + tokenUri: String,
      + authProviderX509CertUrl: String,
      + clientSecret: String,
      + redirectUris: List<String>,
      + javascriptOrigins: List<String>
    }
    class ClientSecret << (D, sandybrown) >>
    class TokenInfo << (D, sandybrown) >> {
      + accessToken: String
      + refreshToken: String
      + expiredAccessTokenTimeMillis: Long
    }

    ClientSecret *- - WebInfo: web
  }

  namespace holder {
    class SingletonWebHolder << (O, gold) Singleton >> {
      + okHttpClient: OkHttpClient
      + googleSignInClient: GoogleSignInClient
      + photosLibraryClient: PhotosLibraryClient?

      + loadClientSecret(assetsFileReader: AssetsFileReader, jsonFileName: String)
      + setupOkHttpClient(connectionTimeoutMilliSecs: Long, readTimeoutMilliSecs: Long, writeTimeoutMilliSecs: Long)
      + fun setupGoogleSignInClient(context: Context, scopes: List<PhotoScope>, requestIdToken: Boolean, requestServerAuthCode: Boolean)
      + updatePhotosLibraryClient(accessToken: String)
    }
  }

  namespace impl {
    class GoogleSignInApiImpl
    class GoogleOAuth2ApiImpl
    class PhotosLibraryApiImpl
  }

  interface GoogleSignInApi {
    + requestSilentSignIn(): ApiResult
    + requestSignOut(): ApiResult
    + requestRevokeAccess(): ApiResult
    + {static} isSignedInAccount(context: Context): Boolean
    + {static} getSignedInAccount(context: Context): GoogleSignInAccount
    + {static} getSignedInEmailAddress(context: Context): String
    + {static} isSucceededUserSignIn(data: Intent?): Boolean
  }
  interface GoogleOAuth2Api {
    + requestTokenInfoWithAuthCode(serverAuthCode: String): TokenInfo?
    + requestTokenInfoWithRefreshToken(refreshToken: String): TokenInfo?
  }
  interface PhotosLibraryApi {
    + requestAlbum(albumId: String): Album
    + requestMediaItem(mediaItemId: String): MediaItem
    + requestUpdateAlbums(albums: List<Album>): List<Album>
    + requestUpdateMediaItems(mediaItems: List<MediaItem>): List<MediaItem>
    + requestSharedAlbums(): List<Album>
    + requestMediaItems(album: Album): List<MediaItem>
  }
}

core.webapi.holder.SingletonWebHolder *- - core.webapi.entity.ClientSecret: clientSecret

core.webapi.impl.GoogleSignInApiImpl - - core.webapi.holder.SingletonWebHolder
core.webapi.impl.GoogleOAuth2ApiImpl - - core.webapi.holder.SingletonWebHolder
core.webapi.impl.PhotosLibraryApiImpl - - core.webapi.holder.SingletonWebHolder

core.webapi.GoogleSignInApi <|.. core.webapi.impl.GoogleSignInApiImpl
core.webapi.GoogleOAuth2Api <|.. core.webapi.impl.GoogleOAuth2ApiImpl
core.webapi.PhotosLibraryApi <|.. core.webapi.impl.PhotosLibraryApiImpl
@enduml

PlantUML version 1.2020.16beta7(Unknown compile time)
(GPL source distribution)
Java Runtime: Java(TM) SE Runtime Environment
JVM: Java HotSpot(TM) 64-Bit Server VM
Default Encoding: UTF-8
Language: en
Country: US
--></g></svg>