<?xml version="1.0" encoding="UTF-8" standalone="no"?><svg xmlns="http://www.w3.org/2000/svg" xmlns:xlink="http://www.w3.org/1999/xlink" contentScriptType="application/ecmascript" contentStyleType="text/css" height="467px" preserveAspectRatio="none" style="width:327px;height:467px;" version="1.1" viewBox="0 0 327 467" width="327px" zoomAndPan="magnify"><defs><filter height="300%" id="f1qz904ksopwhx" width="300%" x="-1" y="-1"><feGaussianBlur result="blurOut" stdDeviation="2.0"/><feColorMatrix in="blurOut" result="blurOut2" type="matrix" values="0 0 0 0 0 0 0 0 0 0 0 0 0 0 0 0 0 0 .4 0"/><feOffset dx="4.0" dy="4.0" in="blurOut2" result="blurOut3"/><feBlend in="SourceGraphic" in2="blurOut3" mode="normal"/></filter></defs><g><ellipse cx="151" cy="20" fill="#000000" filter="url(#f1qz904ksopwhx)" rx="10" ry="10" style="stroke: none; stroke-width: 1.0;"/><rect fill="#FEFECE" filter="url(#f1qz904ksopwhx)" height="33.9688" rx="12.5" ry="12.5" style="stroke: #A80036; stroke-width: 1.5;" width="111" x="95.5" y="50"/><text fill="#000000" font-family="sans-serif" font-size="12" lengthAdjust="spacingAndGlyphs" textLength="91" x="105.5" y="71.1387">Show Progress</text><rect fill="#FEFECE" filter="url(#f1qz904ksopwhx)" height="33.9688" rx="12.5" ry="12.5" style="stroke: #A80036; stroke-width: 1.5;" width="198" x="52" y="103.9688"/><text fill="#000000" font-family="sans-serif" font-size="12" lengthAdjust="spacingAndGlyphs" textLength="178" x="62" y="125.1074">RequestLoadDisplayedPhotos</text><rect fill="#FEFECE" filter="url(#f1qz904ksopwhx)" height="33.9688" rx="12.5" ry="12.5" style="stroke: #A80036; stroke-width: 1.5;" width="134" x="84" y="201.9375"/><text fill="#000000" font-family="sans-serif" font-size="12" lengthAdjust="spacingAndGlyphs" textLength="114" x="94" y="223.0762">GetDisplayedPhoto</text><polygon fill="#FEFECE" filter="url(#f1qz904ksopwhx)" points="87,255.9063,215,255.9063,227,267.9063,215,279.9063,87,279.9063,75,267.9063,87,255.9063" style="stroke: #A80036; stroke-width: 1.5;"/><text fill="#000000" font-family="sans-serif" font-size="11" lengthAdjust="spacingAndGlyphs" textLength="128" x="87" y="271.7144">displayedPhoto != null</text><text fill="#000000" font-family="sans-serif" font-size="11" lengthAdjust="spacingAndGlyphs" textLength="22" x="53" y="265.312">YES</text><rect fill="#FEFECE" filter="url(#f1qz904ksopwhx)" height="33.9688" rx="12.5" ry="12.5" style="stroke: #A80036; stroke-width: 1.5;" width="102" x="14" y="289.9063"/><text fill="#000000" font-family="sans-serif" font-size="12" lengthAdjust="spacingAndGlyphs" textLength="82" x="24" y="311.0449">PresentImage</text><rect fill="#FEFECE" filter="url(#f1qz904ksopwhx)" height="33.9688" rx="12.5" ry="12.5" style="stroke: #A80036; stroke-width: 1.5;" width="108" x="11" y="343.875"/><text fill="#000000" font-family="sans-serif" font-size="12" lengthAdjust="spacingAndGlyphs" textLength="88" x="21" y="365.0137">Delay X secs...</text><rect fill="#FEFECE" filter="url(#f1qz904ksopwhx)" height="33.9688" rx="12.5" ry="12.5" style="stroke: #A80036; stroke-width: 1.5;" width="100" x="187" y="289.9063"/><text fill="#000000" font-family="sans-serif" font-size="12" lengthAdjust="spacingAndGlyphs" textLength="80" x="197" y="311.0449">Delay 1 sec...</text><polygon fill="#FEFECE" filter="url(#f1qz904ksopwhx)" points="151,383.8438,163,395.8438,151,407.8438,139,395.8438,151,383.8438" style="stroke: #A80036; stroke-width: 1.5;"/><polygon fill="#FEFECE" filter="url(#f1qz904ksopwhx)" points="151,157.9375,163,169.9375,151,181.9375,139,169.9375,151,157.9375" style="stroke: #A80036; stroke-width: 1.5;"/><line style="stroke: #A80036; stroke-width: 1.5;" x1="151" x2="151" y1="30" y2="50"/><polygon fill="#A80036" points="147,40,151,50,155,40,151,44" style="stroke: #A80036; stroke-width: 1.0;"/><line style="stroke: #A80036; stroke-width: 1.5;" x1="151" x2="151" y1="83.9688" y2="103.9688"/><polygon fill="#A80036" points="147,93.9688,151,103.9688,155,93.9688,151,97.9688" style="stroke: #A80036; stroke-width: 1.0;"/><line style="stroke: #A80036; stroke-width: 1.5;" x1="65" x2="65" y1="323.875" y2="343.875"/><polygon fill="#A80036" points="61,333.875,65,343.875,69,333.875,65,337.875" style="stroke: #A80036; stroke-width: 1.0;"/><line style="stroke: #A80036; stroke-width: 1.5;" x1="75" x2="65" y1="267.9063" y2="267.9063"/><line style="stroke: #A80036; stroke-width: 1.5;" x1="65" x2="65" y1="267.9063" y2="289.9063"/><polygon fill="#A80036" points="61,279.9063,65,289.9063,69,279.9063,65,283.9063" style="stroke: #A80036; stroke-width: 1.0;"/><line style="stroke: #A80036; stroke-width: 1.5;" x1="227" x2="237" y1="267.9063" y2="267.9063"/><line style="stroke: #A80036; stroke-width: 1.5;" x1="237" x2="237" y1="267.9063" y2="289.9063"/><polygon fill="#A80036" points="233,279.9063,237,289.9063,241,279.9063,237,283.9063" style="stroke: #A80036; stroke-width: 1.0;"/><line style="stroke: #A80036; stroke-width: 1.5;" x1="65" x2="65" y1="377.8438" y2="395.8438"/><line style="stroke: #A80036; stroke-width: 1.5;" x1="65" x2="139" y1="395.8438" y2="395.8438"/><polygon fill="#A80036" points="129,391.8438,139,395.8438,129,399.8438,133,395.8438" style="stroke: #A80036; stroke-width: 1.0;"/><line style="stroke: #A80036; stroke-width: 1.5;" x1="237" x2="237" y1="323.875" y2="395.8438"/><line style="stroke: #A80036; stroke-width: 1.5;" x1="237" x2="163" y1="395.8438" y2="395.8438"/><polygon fill="#A80036" points="173,391.8438,163,395.8438,173,399.8438,169,395.8438" style="stroke: #A80036; stroke-width: 1.0;"/><line style="stroke: #A80036; stroke-width: 1.5;" x1="151" x2="151" y1="235.9063" y2="255.9063"/><polygon fill="#A80036" points="147,245.9063,151,255.9063,155,245.9063,151,249.9063" style="stroke: #A80036; stroke-width: 1.0;"/><line style="stroke: #A80036; stroke-width: 1.5;" x1="151" x2="151" y1="181.9375" y2="201.9375"/><polygon fill="#A80036" points="147,191.9375,151,201.9375,155,191.9375,151,195.9375" style="stroke: #A80036; stroke-width: 1.0;"/><line style="stroke: #A80036; stroke-width: 1.5;" x1="151" x2="151" y1="407.8438" y2="455.8438"/><line style="stroke: #A80036; stroke-width: 1.5;" x1="151" x2="301" y1="455.8438" y2="455.8438"/><polygon fill="#A80036" points="297,308.8906,301,298.8906,305,308.8906,301,304.8906" style="stroke: #A80036; stroke-width: 1.5;"/><line style="stroke: #A80036; stroke-width: 1.5;" x1="301" x2="301" y1="169.9375" y2="455.8438"/><line style="stroke: #A80036; stroke-width: 1.5;" x1="301" x2="163" y1="169.9375" y2="169.9375"/><polygon fill="#A80036" points="173,165.9375,163,169.9375,173,173.9375,169,169.9375" style="stroke: #A80036; stroke-width: 1.0;"/><line style="stroke: #A80036; stroke-width: 1.5;" x1="151" x2="151" y1="137.9375" y2="157.9375"/><polygon fill="#A80036" points="147,147.9375,151,157.9375,155,147.9375,151,151.9375" style="stroke: #A80036; stroke-width: 1.0;"/><!--MD5=[13da9c6628de51c1285e081fc1affb1a]
@startuml
start

:Show Progress;
:RequestLoadDisplayedPhotos;

repeat
  :GetDisplayedPhoto;

  if (displayedPhoto != null) then (YES)
    :PresentImage;
    :Delay X secs...;
  else
    :Delay 1 sec...;
  endif

repeat while
@enduml

PlantUML version 1.2020.17beta5(Unknown compile time)
(GPL source distribution)
Java Runtime: Java(TM) SE Runtime Environment
JVM: Java HotSpot(TM) 64-Bit Server VM
Default Encoding: UTF-8
Language: en
Country: US
--></g></svg>