<?xml version="1.0" encoding="UTF-8" standalone="no"?><svg xmlns="http://www.w3.org/2000/svg" xmlns:xlink="http://www.w3.org/1999/xlink" contentScriptType="application/ecmascript" contentStyleType="text/css" height="643px" preserveAspectRatio="none" style="width:389px;height:643px;" version="1.1" viewBox="0 0 389 643" width="389px" zoomAndPan="magnify"><defs><filter height="300%" id="fi64d49oi4cjo" width="300%" x="-1" y="-1"><feGaussianBlur result="blurOut" stdDeviation="2.0"/><feColorMatrix in="blurOut" result="blurOut2" type="matrix" values="0 0 0 0 0 0 0 0 0 0 0 0 0 0 0 0 0 0 .4 0"/><feOffset dx="4.0" dy="4.0" in="blurOut2" result="blurOut3"/><feBlend in="SourceGraphic" in2="blurOut3" mode="normal"/></filter></defs><g><ellipse cx="116.5" cy="20" fill="#000000" filter="url(#fi64d49oi4cjo)" rx="10" ry="10" style="stroke: none; stroke-width: 1.0;"/><rect fill="#FEFECE" filter="url(#fi64d49oi4cjo)" height="33.9688" rx="12.5" ry="12.5" style="stroke: #A80036; stroke-width: 1.5;" width="111" x="61" y="50"/><text fill="#000000" font-family="sans-serif" font-size="12" lengthAdjust="spacingAndGlyphs" textLength="91" x="71" y="71.1387">Show Progress</text><rect fill="#FEFECE" filter="url(#fi64d49oi4cjo)" height="33.9688" rx="12.5" ry="12.5" style="stroke: #A80036; stroke-width: 1.5;" width="196" x="18.5" y="147.9688"/><text fill="#000000" font-family="sans-serif" font-size="12" lengthAdjust="spacingAndGlyphs" textLength="176" x="28.5" y="169.1074">requestLoadDisplayedPhotos</text><polygon fill="#FEFECE" filter="url(#fi64d49oi4cjo)" points="42.5,201.9375,190.5,201.9375,202.5,213.9375,190.5,225.9375,42.5,225.9375,30.5,213.9375,42.5,201.9375" style="stroke: #A80036; stroke-width: 1.5;"/><text fill="#000000" font-family="sans-serif" font-size="11" lengthAdjust="spacingAndGlyphs" textLength="148" x="42.5" y="217.7456">displayedPhotos.isEmpty()</text><text fill="#000000" font-family="sans-serif" font-size="11" lengthAdjust="spacingAndGlyphs" textLength="22" x="202.5" y="211.3433">YES</text><ellipse cx="246.5" cy="213.9375" fill="#FFFFFF" filter="url(#fi64d49oi4cjo)" rx="11" ry="11" style="stroke: #000000; stroke-width: 1.0;"/><ellipse cx="246.5" cy="213.9375" fill="#000000" rx="6" ry="6" style="stroke: #7F7F7F; stroke-width: 1.0;"/><rect fill="#FEFECE" filter="url(#fi64d49oi4cjo)" height="33.9688" rx="12.5" ry="12.5" style="stroke: #A80036; stroke-width: 1.5;" width="211" x="11" y="338.3398"/><text fill="#000000" font-family="sans-serif" font-size="12" lengthAdjust="spacingAndGlyphs" textLength="191" x="21" y="359.4785">requestUpdateDisplayedPhotos</text><polygon fill="#FEFECE" filter="url(#fi64d49oi4cjo)" points="85.5,289.9375,147.5,289.9375,159.5,301.9375,147.5,313.9375,85.5,313.9375,73.5,301.9375,85.5,289.9375" style="stroke: #A80036; stroke-width: 1.5;"/><text fill="#000000" font-family="sans-serif" font-size="11" lengthAdjust="spacingAndGlyphs" textLength="22" x="120.5" y="324.1479">YES</text><text fill="#000000" font-family="sans-serif" font-size="11" lengthAdjust="spacingAndGlyphs" textLength="62" x="85.5" y="305.7456">Is Index 0?</text><polygon fill="#FEFECE" filter="url(#fi64d49oi4cjo)" points="116.5,392.3086,128.5,404.3086,116.5,416.3086,104.5,404.3086,116.5,392.3086" style="stroke: #A80036; stroke-width: 1.5;"/><rect fill="#FEFECE" filter="url(#fi64d49oi4cjo)" height="33.9688" rx="12.5" ry="12.5" style="stroke: #A80036; stroke-width: 1.5;" width="126" x="53.5" y="451.3086"/><text fill="#000000" font-family="sans-serif" font-size="12" lengthAdjust="spacingAndGlyphs" textLength="106" x="63.5" y="472.4473">Displayed photos</text><rect fill="#FEFECE" filter="url(#fi64d49oi4cjo)" height="33.9688" rx="12.5" ry="12.5" style="stroke: #A80036; stroke-width: 1.5;" width="119" x="57" y="505.2773"/><text fill="#000000" font-family="sans-serif" font-size="12" lengthAdjust="spacingAndGlyphs" textLength="99" x="67" y="526.416">Wait a moment...</text><polygon fill="#FEFECE" filter="url(#fi64d49oi4cjo)" points="116.5,245.9375,128.5,257.9375,116.5,269.9375,104.5,257.9375,116.5,245.9375" style="stroke: #A80036; stroke-width: 1.5;"/><polygon fill="#FEFECE" filter="url(#fi64d49oi4cjo)" points="39.5,559.2461,193.5,559.2461,205.5,571.2461,193.5,583.2461,39.5,583.2461,27.5,571.2461,39.5,559.2461" style="stroke: #A80036; stroke-width: 1.5;"/><text fill="#000000" font-family="sans-serif" font-size="11" lengthAdjust="spacingAndGlyphs" textLength="154" x="39.5" y="575.0542">No notified update photos?</text><rect fill="#FEFECE" filter="url(#fi64d49oi4cjo)" height="33.9688" rx="12.5" ry="12.5" style="stroke: #A80036; stroke-width: 1.5;" width="84" x="267.5" y="402.9063"/><text fill="#000000" font-family="sans-serif" font-size="12" lengthAdjust="spacingAndGlyphs" textLength="64" x="277.5" y="424.0449">Next Index</text><polygon fill="#FEFECE" filter="url(#fi64d49oi4cjo)" points="116.5,103.9688,128.5,115.9688,116.5,127.9688,104.5,115.9688,116.5,103.9688" style="stroke: #A80036; stroke-width: 1.5;"/><line style="stroke: #A80036; stroke-width: 1.5;" x1="116.5" x2="116.5" y1="30" y2="50"/><polygon fill="#A80036" points="112.5,40,116.5,50,120.5,40,116.5,44" style="stroke: #A80036; stroke-width: 1.0;"/><line style="stroke: #A80036; stroke-width: 1.5;" x1="116.5" x2="116.5" y1="225.9375" y2="245.9375"/><polygon fill="#A80036" points="112.5,235.9375,116.5,245.9375,120.5,235.9375,116.5,239.9375" style="stroke: #A80036; stroke-width: 1.0;"/><line style="stroke: #A80036; stroke-width: 1.5;" x1="202.5" x2="235.5" y1="213.9375" y2="213.9375"/><polygon fill="#A80036" points="225.5,209.9375,235.5,213.9375,225.5,217.9375,229.5,213.9375" style="stroke: #A80036; stroke-width: 1.0;"/><line style="stroke: #A80036; stroke-width: 1.5;" x1="116.5" x2="116.5" y1="181.9375" y2="201.9375"/><polygon fill="#A80036" points="112.5,191.9375,116.5,201.9375,120.5,191.9375,116.5,195.9375" style="stroke: #A80036; stroke-width: 1.0;"/><line style="stroke: #A80036; stroke-width: 1.5;" x1="116.5" x2="116.5" y1="313.9375" y2="338.3398"/><polygon fill="#A80036" points="112.5,328.3398,116.5,338.3398,120.5,328.3398,116.5,332.3398" style="stroke: #A80036; stroke-width: 1.0;"/><line style="stroke: #A80036; stroke-width: 1.5;" x1="159.5" x2="232" y1="301.9375" y2="301.9375"/><polygon fill="#A80036" points="228,345.3242,232,355.3242,236,345.3242,232,349.3242" style="stroke: #A80036; stroke-width: 1.5;"/><line style="stroke: #A80036; stroke-width: 1.5;" x1="232" x2="232" y1="301.9375" y2="404.3086"/><line style="stroke: #A80036; stroke-width: 1.5;" x1="232" x2="128.5" y1="404.3086" y2="404.3086"/><polygon fill="#A80036" points="138.5,400.3086,128.5,404.3086,138.5,408.3086,134.5,404.3086" style="stroke: #A80036; stroke-width: 1.0;"/><line style="stroke: #A80036; stroke-width: 1.5;" x1="116.5" x2="116.5" y1="372.3086" y2="392.3086"/><polygon fill="#A80036" points="112.5,382.3086,116.5,392.3086,120.5,382.3086,116.5,386.3086" style="stroke: #A80036; stroke-width: 1.0;"/><line style="stroke: #A80036; stroke-width: 1.5;" x1="116.5" x2="116.5" y1="416.3086" y2="451.3086"/><polygon fill="#A80036" points="112.5,441.3086,116.5,451.3086,120.5,441.3086,116.5,445.3086" style="stroke: #A80036; stroke-width: 1.0;"/><line style="stroke: #A80036; stroke-width: 1.5;" x1="116.5" x2="116.5" y1="485.2773" y2="505.2773"/><polygon fill="#A80036" points="112.5,495.2773,116.5,505.2773,120.5,495.2773,116.5,499.2773" style="stroke: #A80036; stroke-width: 1.0;"/><line style="stroke: #A80036; stroke-width: 1.5;" x1="116.5" x2="116.5" y1="269.9375" y2="289.9375"/><polygon fill="#A80036" points="112.5,279.9375,116.5,289.9375,120.5,279.9375,116.5,283.9375" style="stroke: #A80036; stroke-width: 1.0;"/><line style="stroke: #A80036; stroke-width: 1.5;" x1="205.5" x2="309.5" y1="571.2461" y2="571.2461"/><line style="stroke: #A80036; stroke-width: 1.5;" x1="309.5" x2="309.5" y1="436.875" y2="571.2461"/><polygon fill="#A80036" points="305.5,446.875,309.5,436.875,313.5,446.875,309.5,442.875" style="stroke: #A80036; stroke-width: 1.0;"/><polygon fill="#A80036" points="305.5,328.623,309.5,318.623,313.5,328.623,309.5,324.623" style="stroke: #A80036; stroke-width: 1.5;"/><line style="stroke: #A80036; stroke-width: 1.5;" x1="309.5" x2="309.5" y1="257.9375" y2="402.9063"/><line style="stroke: #A80036; stroke-width: 1.5;" x1="309.5" x2="128.5" y1="257.9375" y2="257.9375"/><polygon fill="#A80036" points="138.5,253.9375,128.5,257.9375,138.5,261.9375,134.5,257.9375" style="stroke: #A80036; stroke-width: 1.0;"/><line style="stroke: #A80036; stroke-width: 1.5;" x1="116.5" x2="116.5" y1="539.2461" y2="559.2461"/><polygon fill="#A80036" points="112.5,549.2461,116.5,559.2461,120.5,549.2461,116.5,553.2461" style="stroke: #A80036; stroke-width: 1.0;"/><line style="stroke: #A80036; stroke-width: 1.5;" x1="116.5" x2="116.5" y1="127.9688" y2="147.9688"/><polygon fill="#A80036" points="112.5,137.9688,116.5,147.9688,120.5,137.9688,116.5,141.9688" style="stroke: #A80036; stroke-width: 1.0;"/><line style="stroke: #A80036; stroke-width: 1.5;" x1="116.5" x2="116.5" y1="583.2461" y2="631.2461"/><line style="stroke: #A80036; stroke-width: 1.5;" x1="116.5" x2="363.5" y1="631.2461" y2="631.2461"/><polygon fill="#A80036" points="359.5,340.3086,363.5,330.3086,367.5,340.3086,363.5,336.3086" style="stroke: #A80036; stroke-width: 1.5;"/><line style="stroke: #A80036; stroke-width: 1.5;" x1="363.5" x2="363.5" y1="115.9688" y2="631.2461"/><line style="stroke: #A80036; stroke-width: 1.5;" x1="363.5" x2="128.5" y1="115.9688" y2="115.9688"/><polygon fill="#A80036" points="138.5,111.9688,128.5,115.9688,138.5,119.9688,134.5,115.9688" style="stroke: #A80036; stroke-width: 1.0;"/><line style="stroke: #A80036; stroke-width: 1.5;" x1="116.5" x2="116.5" y1="83.9688" y2="103.9688"/><polygon fill="#A80036" points="112.5,93.9688,116.5,103.9688,120.5,93.9688,116.5,97.9688" style="stroke: #A80036; stroke-width: 1.0;"/><!--MD5=[51cd73115753c011ba525f9f4a8593f2]
@startuml
start

:Show Progress;

repeat
  :requestLoadDisplayedPhotos;

  if (displayedPhotos.isEmpty()) then (YES)
    stop
  endif

  repeat
    if (Is Index 0?) then (YES)
      :requestUpdateDisplayedPhotos;
    endif

    :Displayed photos;
    :Wait a moment...;

    backward:Next Index;
  repeat while (No notified update photos?)

repeat while
@enduml

PlantUML version 1.2020.16beta7(Unknown compile time)
(GPL source distribution)
Java Runtime: Java(TM) SE Runtime Environment
JVM: Java HotSpot(TM) 64-Bit Server VM
Default Encoding: UTF-8
Language: en
Country: US
--></g></svg>