<?xml version="1.0" encoding="UTF-8" standalone="no"?><svg xmlns="http://www.w3.org/2000/svg" xmlns:xlink="http://www.w3.org/1999/xlink" contentScriptType="application/ecmascript" contentStyleType="text/css" height="576px" preserveAspectRatio="none" style="width:298px;height:576px;" version="1.1" viewBox="0 0 298 576" width="298px" zoomAndPan="magnify"><defs><filter height="300%" id="f1llkdfppkbzy" width="300%" x="-1" y="-1"><feGaussianBlur result="blurOut" stdDeviation="2.0"/><feColorMatrix in="blurOut" result="blurOut2" type="matrix" values="0 0 0 0 0 0 0 0 0 0 0 0 0 0 0 0 0 0 .4 0"/><feOffset dx="4.0" dy="4.0" in="blurOut2" result="blurOut3"/><feBlend in="SourceGraphic" in2="blurOut3" mode="normal"/></filter></defs><g><rect fill="#FEFECE" filter="url(#f1llkdfppkbzy)" height="33.9688" rx="12.5" ry="12.5" style="stroke: #A80036; stroke-width: 1.5;" width="198" x="18.5" y="11"/><text fill="#000000" font-family="sans-serif" font-size="12" lengthAdjust="spacingAndGlyphs" textLength="178" x="28.5" y="32.1387">RequestLoadDisplayedPhotos</text><rect fill="#FEFECE" filter="url(#f1llkdfppkbzy)" height="33.9688" rx="12.5" ry="12.5" style="stroke: #A80036; stroke-width: 1.5;" width="213" x="11" y="64.9688"/><text fill="#000000" font-family="sans-serif" font-size="12" lengthAdjust="spacingAndGlyphs" textLength="193" x="21" y="86.1074">RequestUpdateDisplayedPhotos</text><polygon fill="#FEFECE" filter="url(#f1llkdfppkbzy)" points="48,118.9375,187,118.9375,199,130.9375,187,142.9375,48,142.9375,36,130.9375,48,118.9375" style="stroke: #A80036; stroke-width: 1.5;"/><text fill="#000000" font-family="sans-serif" font-size="11" lengthAdjust="spacingAndGlyphs" textLength="139" x="48" y="134.7456">IsNeededUpdatePhotos?</text><text fill="#000000" font-family="sans-serif" font-size="11" lengthAdjust="spacingAndGlyphs" textLength="17" x="199" y="128.3433">NO</text><ellipse cx="238" cy="130.9375" fill="#FFFFFF" filter="url(#f1llkdfppkbzy)" rx="11" ry="11" style="stroke: #000000; stroke-width: 1.0;"/><ellipse cx="238" cy="130.9375" fill="#000000" rx="6" ry="6" style="stroke: #7F7F7F; stroke-width: 1.0;"/><rect fill="#FFFFFF" filter="url(#f1llkdfppkbzy)" height="218.668" style="stroke: #000000; stroke-width: 2.0;" width="268" x="13.5" y="152.9375"/><path d="M119.5,152.9375 L119.5,162.2344 L109.5,172.2344 L13.5,172.2344 " fill="none" style="stroke: #000000; stroke-width: 2.0;"/><text fill="#000000" font-family="sans-serif" font-size="14" lengthAdjust="spacingAndGlyphs" textLength="96" x="16.5" y="166.9326">DecideAlbum</text><rect fill="#FEFECE" filter="url(#f1llkdfppkbzy)" height="33.9688" rx="12.5" ry="12.5" style="stroke: #A80036; stroke-width: 1.5;" width="129" x="53" y="237.6367"/><text fill="#000000" font-family="sans-serif" font-size="12" lengthAdjust="spacingAndGlyphs" textLength="109" x="63" y="258.7754">StartSelectActivity</text><polygon fill="#FEFECE" filter="url(#f1llkdfppkbzy)" points="45.5,291.6055,189.5,291.6055,201.5,303.6055,189.5,315.6055,45.5,315.6055,33.5,303.6055,45.5,291.6055" style="stroke: #A80036; stroke-width: 1.5;"/><text fill="#000000" font-family="sans-serif" font-size="11" lengthAdjust="spacingAndGlyphs" textLength="144" x="45.5" y="307.4136">Is selected album found?</text><text fill="#000000" font-family="sans-serif" font-size="11" lengthAdjust="spacingAndGlyphs" textLength="17" x="201.5" y="301.0112">NO</text><ellipse cx="240.5" cy="303.6055" fill="#FFFFFF" filter="url(#f1llkdfppkbzy)" rx="11" ry="11" style="stroke: #000000; stroke-width: 1.0;"/><ellipse cx="240.5" cy="303.6055" fill="#000000" rx="6" ry="6" style="stroke: #7F7F7F; stroke-width: 1.0;"/><polygon fill="#FEFECE" filter="url(#f1llkdfppkbzy)" points="57,189.2344,178,189.2344,190,201.2344,178,213.2344,57,213.2344,45,201.2344,57,189.2344" style="stroke: #A80036; stroke-width: 1.5;"/><text fill="#000000" font-family="sans-serif" font-size="11" lengthAdjust="spacingAndGlyphs" textLength="17" x="121.5" y="223.4448">NO</text><text fill="#000000" font-family="sans-serif" font-size="11" lengthAdjust="spacingAndGlyphs" textLength="121" x="57" y="205.0425">HasSelectedAlbums?</text><polygon fill="#FEFECE" filter="url(#f1llkdfppkbzy)" points="117.5,335.6055,129.5,347.6055,117.5,359.6055,105.5,347.6055,117.5,335.6055" style="stroke: #A80036; stroke-width: 1.5;"/><rect fill="#FFFFFF" filter="url(#f1llkdfppkbzy)" height="136.2344" style="stroke: #000000; stroke-width: 2.0;" width="190" x="22.5" y="381.6055"/><path d="M153.5,381.6055 L153.5,390.9023 L143.5,400.9023 L22.5,400.9023 " fill="none" style="stroke: #000000; stroke-width: 2.0;"/><text fill="#000000" font-family="sans-serif" font-size="14" lengthAdjust="spacingAndGlyphs" textLength="121" x="25.5" y="395.6006">DownloadImages</text><rect fill="#FEFECE" filter="url(#f1llkdfppkbzy)" height="33.9688" rx="12.5" ry="12.5" style="stroke: #A80036; stroke-width: 1.5;" width="169" x="33" y="417.9023"/><text fill="#000000" font-family="sans-serif" font-size="12" lengthAdjust="spacingAndGlyphs" textLength="149" x="43" y="439.041">RequestDownloadPhotos</text><rect fill="#FEFECE" filter="url(#f1llkdfppkbzy)" height="33.9688" rx="12.5" ry="12.5" style="stroke: #A80036; stroke-width: 1.5;" width="170" x="32.5" y="471.8711"/><text fill="#000000" font-family="sans-serif" font-size="12" lengthAdjust="spacingAndGlyphs" textLength="150" x="42.5" y="493.0098">RequestUpdateDatabase</text><ellipse cx="117.5" cy="548.8398" fill="#FFFFFF" filter="url(#f1llkdfppkbzy)" rx="11" ry="11" style="stroke: #000000; stroke-width: 1.0;"/><ellipse cx="117.5" cy="548.8398" fill="#000000" rx="6" ry="6" style="stroke: #7F7F7F; stroke-width: 1.0;"/><line style="stroke: #A80036; stroke-width: 1.5;" x1="117.5" x2="117.5" y1="44.9688" y2="64.9688"/><polygon fill="#A80036" points="113.5,54.9688,117.5,64.9688,121.5,54.9688,117.5,58.9688" style="stroke: #A80036; stroke-width: 1.0;"/><line style="stroke: #A80036; stroke-width: 1.5;" x1="117.5" x2="117.5" y1="142.9375" y2="189.2344"/><polygon fill="#A80036" points="113.5,179.2344,117.5,189.2344,121.5,179.2344,117.5,183.2344" style="stroke: #A80036; stroke-width: 1.0;"/><line style="stroke: #A80036; stroke-width: 1.5;" x1="199" x2="227" y1="130.9375" y2="130.9375"/><polygon fill="#A80036" points="217,126.9375,227,130.9375,217,134.9375,221,130.9375" style="stroke: #A80036; stroke-width: 1.0;"/><line style="stroke: #A80036; stroke-width: 1.5;" x1="117.5" x2="117.5" y1="98.9375" y2="118.9375"/><polygon fill="#A80036" points="113.5,108.9375,117.5,118.9375,121.5,108.9375,117.5,112.9375" style="stroke: #A80036; stroke-width: 1.0;"/><line style="stroke: #A80036; stroke-width: 1.5;" x1="117.5" x2="117.5" y1="315.6055" y2="335.6055"/><polygon fill="#A80036" points="113.5,325.6055,117.5,335.6055,121.5,325.6055,117.5,329.6055" style="stroke: #A80036; stroke-width: 1.0;"/><line style="stroke: #A80036; stroke-width: 1.5;" x1="201.5" x2="229.5" y1="303.6055" y2="303.6055"/><polygon fill="#A80036" points="219.5,299.6055,229.5,303.6055,219.5,307.6055,223.5,303.6055" style="stroke: #A80036; stroke-width: 1.0;"/><line style="stroke: #A80036; stroke-width: 1.5;" x1="117.5" x2="117.5" y1="271.6055" y2="291.6055"/><polygon fill="#A80036" points="113.5,281.6055,117.5,291.6055,121.5,281.6055,117.5,285.6055" style="stroke: #A80036; stroke-width: 1.0;"/><line style="stroke: #A80036; stroke-width: 1.5;" x1="117.5" x2="117.5" y1="213.2344" y2="237.6367"/><polygon fill="#A80036" points="113.5,227.6367,117.5,237.6367,121.5,227.6367,117.5,231.6367" style="stroke: #A80036; stroke-width: 1.0;"/><line style="stroke: #A80036; stroke-width: 1.5;" x1="190" x2="265.5" y1="201.2344" y2="201.2344"/><polygon fill="#A80036" points="261.5,283.1211,265.5,293.1211,269.5,283.1211,265.5,287.1211" style="stroke: #A80036; stroke-width: 1.5;"/><line style="stroke: #A80036; stroke-width: 1.5;" x1="265.5" x2="265.5" y1="201.2344" y2="347.6055"/><line style="stroke: #A80036; stroke-width: 1.5;" x1="265.5" x2="129.5" y1="347.6055" y2="347.6055"/><polygon fill="#A80036" points="139.5,343.6055,129.5,347.6055,139.5,351.6055,135.5,347.6055" style="stroke: #A80036; stroke-width: 1.0;"/><line style="stroke: #A80036; stroke-width: 1.5;" x1="117.5" x2="117.5" y1="451.8711" y2="471.8711"/><polygon fill="#A80036" points="113.5,461.8711,117.5,471.8711,121.5,461.8711,117.5,465.8711" style="stroke: #A80036; stroke-width: 1.0;"/><line style="stroke: #A80036; stroke-width: 1.5;" x1="117.5" x2="117.5" y1="359.6055" y2="417.9023"/><polygon fill="#A80036" points="113.5,407.9023,117.5,417.9023,121.5,407.9023,117.5,411.9023" style="stroke: #A80036; stroke-width: 1.0;"/><line style="stroke: #A80036; stroke-width: 1.5;" x1="117.5" x2="117.5" y1="505.8398" y2="537.8398"/><polygon fill="#A80036" points="113.5,527.8398,117.5,537.8398,121.5,527.8398,117.5,531.8398" style="stroke: #A80036; stroke-width: 1.0;"/><!--MD5=[18e7cb6b71d9825ce99115d111b6e206]
@startuml
:RequestLoadDisplayedPhotos;
:RequestUpdateDisplayedPhotos;

if (IsNeededUpdatePhotos?) then (NO)
  stop
endif

partition DecideAlbum {
  if (HasSelectedAlbums?) then (NO)
    :StartSelectActivity;

    if (Is selected album found?) then (NO)
      stop
    endif
  endif
}

partition DownloadImages {
  :RequestDownloadPhotos;
  :RequestUpdateDatabase;
}

stop
@enduml

PlantUML version 1.2020.17beta5(Unknown compile time)
(GPL source distribution)
Java Runtime: Java(TM) SE Runtime Environment
JVM: Java HotSpot(TM) 64-Bit Server VM
Default Encoding: UTF-8
Language: en
Country: US
--></g></svg>