<?xml version="1.0" encoding="UTF-8" standalone="no"?><svg xmlns="http://www.w3.org/2000/svg" xmlns:xlink="http://www.w3.org/1999/xlink" contentScriptType="application/ecmascript" contentStyleType="text/css" height="1062px" preserveAspectRatio="none" style="width:1075px;height:1062px;" version="1.1" viewBox="0 0 1075 1062" width="1075px" zoomAndPan="magnify"><defs><filter height="300%" id="fv7xjyzc6ocb6" width="300%" x="-1" y="-1"><feGaussianBlur result="blurOut" stdDeviation="2.0"/><feColorMatrix in="blurOut" result="blurOut2" type="matrix" values="0 0 0 0 0 0 0 0 0 0 0 0 0 0 0 0 0 0 .4 0"/><feOffset dx="4.0" dy="4.0" in="blurOut2" result="blurOut3"/><feBlend in="SourceGraphic" in2="blurOut3" mode="normal"/></filter></defs><g><!--MD5=[2a96228d3f581488ff170e4c22043396]
cluster app.splash--><polygon fill="#FFFFEE" filter="url(#fv7xjyzc6ocb6)" points="16,6,110,6,117,28.2969,284,28.2969,284,1043.5,16,1043.5,16,6" style="stroke: #000000; stroke-width: 1.5;"/><line style="stroke: #000000; stroke-width: 1.5;" x1="16" x2="117" y1="28.2969" y2="28.2969"/><text fill="#000000" font-family="sans-serif" font-size="14" font-weight="bold" lengthAdjust="spacingAndGlyphs" textLength="88" x="20" y="20.9951">app.splash</text><!--MD5=[866e8dce3d52014c766811fd38c69b87]
cluster app.splash.entity--><polygon fill="#FFFFEE" filter="url(#fv7xjyzc6ocb6)" points="48,57,103,57,110,79.2969,244,79.2969,244,233,48,233,48,57" style="stroke: #000000; stroke-width: 1.5;"/><line style="stroke: #000000; stroke-width: 1.5;" x1="48" x2="110" y1="79.2969" y2="79.2969"/><text fill="#000000" font-family="sans-serif" font-size="14" font-weight="bold" lengthAdjust="spacingAndGlyphs" textLength="49" x="52" y="71.9951">entity</text><!--MD5=[c83d1fd1a1968b652cdf7b3ece76fca7]
cluster app.splash.contract.SplashContract--><polygon fill="#EEEEEE" filter="url(#fv7xjyzc6ocb6)" points="324,274,625,274,632,296.2969,806,296.2969,806,1050,324,1050,324,274" style="stroke: #000000; stroke-width: 1.5;"/><line style="stroke: #000000; stroke-width: 1.5;" x1="324" x2="632" y1="296.2969" y2="296.2969"/><text fill="#000000" font-family="sans-serif" font-size="14" font-weight="bold" lengthAdjust="spacingAndGlyphs" textLength="295" x="328" y="288.9951">app.splash.contract.SplashContract</text><!--MD5=[6834d4c3e4960f6dbfe701b70c07ed62]
cluster core.viper.ViperContract--><polygon fill="#DDDDDD" filter="url(#fv7xjyzc6ocb6)" points="838,282,1043,282,1050,304.2969,1053,304.2969,1053,1035.5,838,1035.5,838,282" style="stroke: #000000; stroke-width: 1.5;"/><line style="stroke: #000000; stroke-width: 1.5;" x1="838" x2="1050" y1="304.2969" y2="304.2969"/><text fill="#000000" font-family="sans-serif" font-size="14" font-weight="bold" lengthAdjust="spacingAndGlyphs" textLength="199" x="842" y="296.9951">core.viper.ViperContract</text><!--MD5=[039b86f07d81291e45b9afd15ac1cc2e]
class app.splash.SplashActivity--><rect fill="#FEFECE" filter="url(#fv7xjyzc6ocb6)" height="48" id="app.splash.SplashActivity" style="stroke: #A80036; stroke-width: 1.5;" width="115" x="118.5" y="323.5"/><ellipse cx="133.5" cy="339.5" fill="#ADD1B2" rx="11" ry="11" style="stroke: #A80036; stroke-width: 1.0;"/><path d="M135.8438,335.1719 C134.9063,334.7344 134.3125,334.5938 133.4375,334.5938 C130.8125,334.5938 128.8125,336.6719 128.8125,339.3906 L128.8125,340.5156 C128.8125,343.0938 130.9219,344.9844 133.8125,344.9844 C135.0313,344.9844 136.1875,344.6875 136.9375,344.1406 C137.5156,343.7344 137.8438,343.2813 137.8438,342.8906 C137.8438,342.4375 137.4531,342.0469 136.9844,342.0469 C136.7656,342.0469 136.5625,342.125 136.375,342.3125 C135.9219,342.7969 135.9219,342.7969 135.7344,342.8906 C135.3125,343.1563 134.625,343.2813 133.8594,343.2813 C131.8125,343.2813 130.5156,342.1875 130.5156,340.4844 L130.5156,339.3906 C130.5156,337.6094 131.7656,336.2969 133.5,336.2969 C134.0781,336.2969 134.6875,336.4531 135.1563,336.7031 C135.6406,336.9844 135.8125,337.2031 135.9063,337.6094 C135.9688,338.0156 136,338.1406 136.1406,338.2656 C136.2813,338.4063 136.5156,338.5156 136.7344,338.5156 C137,338.5156 137.2656,338.375 137.4375,338.1563 C137.5469,338 137.5781,337.8125 137.5781,337.3906 L137.5781,335.9688 C137.5781,335.5313 137.5625,335.4063 137.4688,335.25 C137.3125,334.9844 137.0313,334.8438 136.7344,334.8438 C136.4375,334.8438 136.2344,334.9375 136.0156,335.25 L135.8438,335.1719 Z "/><text fill="#000000" font-family="sans-serif" font-size="12" lengthAdjust="spacingAndGlyphs" textLength="83" x="147.5" y="343.6543">SplashActivity</text><line style="stroke: #A80036; stroke-width: 1.5;" x1="119.5" x2="232.5" y1="355.5" y2="355.5"/><line style="stroke: #A80036; stroke-width: 1.5;" x1="119.5" x2="232.5" y1="363.5" y2="363.5"/><!--MD5=[437fc10d34a4f2a6bf8ab538f885004c]
class app.splash.SplashPresenter--><rect fill="#FEFECE" filter="url(#fv7xjyzc6ocb6)" height="48" id="app.splash.SplashPresenter" style="stroke: #A80036; stroke-width: 1.5;" width="130" x="117" y="468"/><ellipse cx="132" cy="484" fill="#ADD1B2" rx="11" ry="11" style="stroke: #A80036; stroke-width: 1.0;"/><path d="M134.3438,479.6719 C133.4063,479.2344 132.8125,479.0938 131.9375,479.0938 C129.3125,479.0938 127.3125,481.1719 127.3125,483.8906 L127.3125,485.0156 C127.3125,487.5938 129.4219,489.4844 132.3125,489.4844 C133.5313,489.4844 134.6875,489.1875 135.4375,488.6406 C136.0156,488.2344 136.3438,487.7813 136.3438,487.3906 C136.3438,486.9375 135.9531,486.5469 135.4844,486.5469 C135.2656,486.5469 135.0625,486.625 134.875,486.8125 C134.4219,487.2969 134.4219,487.2969 134.2344,487.3906 C133.8125,487.6563 133.125,487.7813 132.3594,487.7813 C130.3125,487.7813 129.0156,486.6875 129.0156,484.9844 L129.0156,483.8906 C129.0156,482.1094 130.2656,480.7969 132,480.7969 C132.5781,480.7969 133.1875,480.9531 133.6563,481.2031 C134.1406,481.4844 134.3125,481.7031 134.4063,482.1094 C134.4688,482.5156 134.5,482.6406 134.6406,482.7656 C134.7813,482.9063 135.0156,483.0156 135.2344,483.0156 C135.5,483.0156 135.7656,482.875 135.9375,482.6563 C136.0469,482.5 136.0781,482.3125 136.0781,481.8906 L136.0781,480.4688 C136.0781,480.0313 136.0625,479.9063 135.9688,479.75 C135.8125,479.4844 135.5313,479.3438 135.2344,479.3438 C134.9375,479.3438 134.7344,479.4375 134.5156,479.75 L134.3438,479.6719 Z "/><text fill="#000000" font-family="sans-serif" font-size="12" lengthAdjust="spacingAndGlyphs" textLength="98" x="146" y="488.1543">SplashPresenter</text><line style="stroke: #A80036; stroke-width: 1.5;" x1="118" x2="246" y1="500" y2="500"/><line style="stroke: #A80036; stroke-width: 1.5;" x1="118" x2="246" y1="508" y2="508"/><!--MD5=[46444ac2f8e682ff904afb8e89ce9f78]
class app.splash.SplashInteractor--><rect fill="#FEFECE" filter="url(#fv7xjyzc6ocb6)" height="48" id="app.splash.SplashInteractor" style="stroke: #A80036; stroke-width: 1.5;" width="130" x="122" y="817.5"/><ellipse cx="137" cy="833.5" fill="#ADD1B2" rx="11" ry="11" style="stroke: #A80036; stroke-width: 1.0;"/><path d="M139.3438,829.1719 C138.4063,828.7344 137.8125,828.5938 136.9375,828.5938 C134.3125,828.5938 132.3125,830.6719 132.3125,833.3906 L132.3125,834.5156 C132.3125,837.0938 134.4219,838.9844 137.3125,838.9844 C138.5313,838.9844 139.6875,838.6875 140.4375,838.1406 C141.0156,837.7344 141.3438,837.2813 141.3438,836.8906 C141.3438,836.4375 140.9531,836.0469 140.4844,836.0469 C140.2656,836.0469 140.0625,836.125 139.875,836.3125 C139.4219,836.7969 139.4219,836.7969 139.2344,836.8906 C138.8125,837.1563 138.125,837.2813 137.3594,837.2813 C135.3125,837.2813 134.0156,836.1875 134.0156,834.4844 L134.0156,833.3906 C134.0156,831.6094 135.2656,830.2969 137,830.2969 C137.5781,830.2969 138.1875,830.4531 138.6563,830.7031 C139.1406,830.9844 139.3125,831.2031 139.4063,831.6094 C139.4688,832.0156 139.5,832.1406 139.6406,832.2656 C139.7813,832.4063 140.0156,832.5156 140.2344,832.5156 C140.5,832.5156 140.7656,832.375 140.9375,832.1563 C141.0469,832 141.0781,831.8125 141.0781,831.3906 L141.0781,829.9688 C141.0781,829.5313 141.0625,829.4063 140.9688,829.25 C140.8125,828.9844 140.5313,828.8438 140.2344,828.8438 C139.9375,828.8438 139.7344,828.9375 139.5156,829.25 L139.3438,829.1719 Z "/><text fill="#000000" font-family="sans-serif" font-size="12" lengthAdjust="spacingAndGlyphs" textLength="98" x="151" y="837.6543">SplashInteractor</text><line style="stroke: #A80036; stroke-width: 1.5;" x1="123" x2="251" y1="849.5" y2="849.5"/><line style="stroke: #A80036; stroke-width: 1.5;" x1="123" x2="251" y1="857.5" y2="857.5"/><!--MD5=[a75dc8629eebccefb2d92c98e4caf292]
class app.splash.SplashRouter--><rect fill="#FEFECE" filter="url(#fv7xjyzc6ocb6)" height="48" id="app.splash.SplashRouter" style="stroke: #A80036; stroke-width: 1.5;" width="111" x="90.5" y="971.5"/><ellipse cx="105.5" cy="987.5" fill="#ADD1B2" rx="11" ry="11" style="stroke: #A80036; stroke-width: 1.0;"/><path d="M107.8438,983.1719 C106.9063,982.7344 106.3125,982.5938 105.4375,982.5938 C102.8125,982.5938 100.8125,984.6719 100.8125,987.3906 L100.8125,988.5156 C100.8125,991.0938 102.9219,992.9844 105.8125,992.9844 C107.0313,992.9844 108.1875,992.6875 108.9375,992.1406 C109.5156,991.7344 109.8438,991.2813 109.8438,990.8906 C109.8438,990.4375 109.4531,990.0469 108.9844,990.0469 C108.7656,990.0469 108.5625,990.125 108.375,990.3125 C107.9219,990.7969 107.9219,990.7969 107.7344,990.8906 C107.3125,991.1563 106.625,991.2813 105.8594,991.2813 C103.8125,991.2813 102.5156,990.1875 102.5156,988.4844 L102.5156,987.3906 C102.5156,985.6094 103.7656,984.2969 105.5,984.2969 C106.0781,984.2969 106.6875,984.4531 107.1563,984.7031 C107.6406,984.9844 107.8125,985.2031 107.9063,985.6094 C107.9688,986.0156 108,986.1406 108.1406,986.2656 C108.2813,986.4063 108.5156,986.5156 108.7344,986.5156 C109,986.5156 109.2656,986.375 109.4375,986.1563 C109.5469,986 109.5781,985.8125 109.5781,985.3906 L109.5781,983.9688 C109.5781,983.5313 109.5625,983.4063 109.4688,983.25 C109.3125,982.9844 109.0313,982.8438 108.7344,982.8438 C108.4375,982.8438 108.2344,982.9375 108.0156,983.25 L107.8438,983.1719 Z "/><text fill="#000000" font-family="sans-serif" font-size="12" lengthAdjust="spacingAndGlyphs" textLength="79" x="119.5" y="991.6543">SplashRouter</text><line style="stroke: #A80036; stroke-width: 1.5;" x1="91.5" x2="200.5" y1="1003.5" y2="1003.5"/><line style="stroke: #A80036; stroke-width: 1.5;" x1="91.5" x2="200.5" y1="1011.5" y2="1011.5"/><!--MD5=[98be9855ea0a707efae9dc86ae1ce548]
class app.splash.entity.UpdatePhotoRequest--><rect fill="#FEFECE" filter="url(#fv7xjyzc6ocb6)" height="124.8281" id="app.splash.entity.UpdatePhotoRequest" style="stroke: #A80036; stroke-width: 1.5;" width="163" x="64.5" y="92"/><ellipse cx="81.75" cy="108" fill="#EB937F" rx="11" ry="11" style="stroke: #A80036; stroke-width: 1.0;"/><path d="M80.5469,108.875 L82,108.875 L82,108.9844 C82,109.3906 82.0313,109.5469 82.1094,109.7031 C82.2656,109.9531 82.5469,110.1094 82.8438,110.1094 C83.0938,110.1094 83.3594,109.9688 83.5156,109.75 C83.6406,109.5938 83.6719,109.4375 83.6719,108.9844 L83.6719,107.0625 C83.6719,106.9063 83.6719,106.8594 83.6563,106.7031 C83.5938,106.2344 83.2813,105.9219 82.8281,105.9219 C82.5781,105.9219 82.3125,106.0625 82.1406,106.2813 C82.0313,106.4531 82,106.6094 82,107.0625 L82,107.1875 L80.5469,107.1875 L80.5469,104.7813 L84.5313,104.7813 L84.5313,105.6406 C84.5313,106.0469 84.5625,106.2188 84.6406,106.375 C84.8125,106.625 85.0938,106.7813 85.375,106.7813 C85.6406,106.7813 85.9063,106.6406 86.0781,106.4219 C86.1875,106.25 86.2188,106.1094 86.2188,105.6406 L86.2188,103.0938 L78.5938,103.0938 C78.1563,103.0938 78.0313,103.1094 77.875,103.2031 C77.625,103.3594 77.4688,103.6563 77.4688,103.9375 C77.4688,104.2188 77.6094,104.4688 77.8281,104.6406 C77.9844,104.75 78.1719,104.7813 78.5938,104.7813 L78.8438,104.7813 L78.8438,111.2969 L78.5938,111.2969 C78.1875,111.2969 78.0313,111.3125 77.875,111.4219 C77.625,111.5938 77.4688,111.8594 77.4688,112.1563 C77.4688,112.4219 77.6094,112.6719 77.8281,112.8281 C77.9688,112.9531 78.2031,113 78.5938,113 L86.5938,113 L86.5938,110.4219 C86.5938,109.9844 86.5625,109.8438 86.4844,109.6875 C86.3125,109.4375 86.0313,109.2813 85.75,109.2813 C85.4844,109.2813 85.2188,109.3906 85.0469,109.6406 C84.9375,109.7969 84.9063,109.9375 84.9063,110.4219 L84.9063,111.2969 L80.5469,111.2969 L80.5469,108.875 Z "/><text fill="#000000" font-family="sans-serif" font-size="12" lengthAdjust="spacingAndGlyphs" textLength="126" x="96.25" y="112.1543">UpdatePhotoRequest</text><line style="stroke: #A80036; stroke-width: 1.5;" x1="65.5" x2="226.5" y1="124" y2="124"/><text fill="#000000" font-family="sans-serif" font-size="11" lengthAdjust="spacingAndGlyphs" textLength="46" x="70.5" y="138.2104">SKIPPED</text><text fill="#000000" font-family="sans-serif" font-size="11" lengthAdjust="spacingAndGlyphs" textLength="145" x="70.5" y="151.0151">UPDATE_REFRESH_TOKEN</text><text fill="#000000" font-family="sans-serif" font-size="11" lengthAdjust="spacingAndGlyphs" textLength="88" x="70.5" y="163.8198">SELECT_ALBUM</text><text fill="#000000" font-family="sans-serif" font-size="11" lengthAdjust="spacingAndGlyphs" textLength="151" x="70.5" y="176.6245">DOWNLOAD_MEDIA_ITEMS</text><text fill="#000000" font-family="sans-serif" font-size="11" lengthAdjust="spacingAndGlyphs" textLength="68" x="70.5" y="189.4292">COMPLETED</text><text fill="#000000" font-family="sans-serif" font-size="11" lengthAdjust="spacingAndGlyphs" textLength="51" x="70.5" y="202.2339">UNKOWN</text><line style="stroke: #A80036; stroke-width: 1.5;" x1="65.5" x2="226.5" y1="208.8281" y2="208.8281"/><!--MD5=[f1030a3ad301bef10eebe25566e96449]
class app.splash.contract.SplashContract.Presenter--><rect fill="#FEFECE" filter="url(#fv7xjyzc6ocb6)" height="73.6094" id="app.splash.contract.SplashContract.Presenter" style="stroke: #A80036; stroke-width: 1.5;" width="425" x="356.5" y="455"/><ellipse cx="536.25" cy="471" fill="#B4A7E5" rx="11" ry="11" style="stroke: #A80036; stroke-width: 1.0;"/><path d="M537.2031,467.7813 L538.9219,467.7813 C539.3125,467.7813 539.5,467.75 539.625,467.6719 C539.8906,467.5156 540.0313,467.2344 540.0313,466.9375 C540.0313,466.6719 539.9219,466.4063 539.6875,466.2344 C539.5156,466.125 539.375,466.0938 538.9219,466.0938 L533.7813,466.0938 C533.3438,466.0938 533.2188,466.1094 533.0625,466.2031 C532.8125,466.3594 532.6563,466.6563 532.6563,466.9375 C532.6563,467.2188 532.7969,467.4688 533.0156,467.6406 C533.1719,467.75 533.3594,467.7813 533.7813,467.7813 L535.5,467.7813 L535.5,474.2969 L533.7813,474.2969 C533.3438,474.2969 533.2188,474.3125 533.0625,474.4219 C532.8125,474.5781 532.6563,474.8594 532.6563,475.1563 C532.6563,475.4063 532.7969,475.6719 533.0156,475.8281 C533.1719,475.9531 533.375,476 533.7813,476 L538.9219,476 C539.6719,476 540.0313,475.7188 540.0313,475.1563 C540.0313,474.875 539.9219,474.625 539.6875,474.4531 C539.5156,474.3281 539.375,474.2969 538.9219,474.2969 L537.2031,474.2969 L537.2031,467.7813 Z "/><text fill="#000000" font-family="sans-serif" font-size="12" font-style="italic" lengthAdjust="spacingAndGlyphs" textLength="57" x="556.75" y="475.1543">Presenter</text><line style="stroke: #A80036; stroke-width: 1.5;" x1="357.5" x2="780.5" y1="487" y2="487"/><line style="stroke: #A80036; stroke-width: 1.5;" x1="357.5" x2="780.5" y1="495" y2="495"/><ellipse cx="367.5" cy="506" fill="#84BE84" rx="3" ry="3" style="stroke: #038048; stroke-width: 1.0;"/><text fill="#000000" font-family="sans-serif" font-size="11" lengthAdjust="spacingAndGlyphs" textLength="130" x="376.5" y="509.2104">requestUpdatePhotos()</text><ellipse cx="367.5" cy="518.8047" fill="#84BE84" rx="3" ry="3" style="stroke: #038048; stroke-width: 1.0;"/><text fill="#000000" font-family="sans-serif" font-size="11" lengthAdjust="spacingAndGlyphs" textLength="399" x="376.5" y="522.0151">evaluateActivityResult(requestCode: Int, resultCode: Int, data: Intent?)</text><!--MD5=[55d1f437f05628c5e786be7f055fc3c8]
class app.splash.contract.SplashContract.Interactor--><rect fill="#FEFECE" filter="url(#fv7xjyzc6ocb6)" height="124.8281" id="app.splash.contract.SplashContract.Interactor" style="stroke: #A80036; stroke-width: 1.5;" width="207" x="443.5" y="779"/><ellipse cx="512.75" cy="795" fill="#B4A7E5" rx="11" ry="11" style="stroke: #A80036; stroke-width: 1.0;"/><path d="M513.7031,791.7813 L515.4219,791.7813 C515.8125,791.7813 516,791.75 516.125,791.6719 C516.3906,791.5156 516.5313,791.2344 516.5313,790.9375 C516.5313,790.6719 516.4219,790.4063 516.1875,790.2344 C516.0156,790.125 515.875,790.0938 515.4219,790.0938 L510.2813,790.0938 C509.8438,790.0938 509.7188,790.1094 509.5625,790.2031 C509.3125,790.3594 509.1563,790.6563 509.1563,790.9375 C509.1563,791.2188 509.2969,791.4688 509.5156,791.6406 C509.6719,791.75 509.8594,791.7813 510.2813,791.7813 L512,791.7813 L512,798.2969 L510.2813,798.2969 C509.8438,798.2969 509.7188,798.3125 509.5625,798.4219 C509.3125,798.5781 509.1563,798.8594 509.1563,799.1563 C509.1563,799.4063 509.2969,799.6719 509.5156,799.8281 C509.6719,799.9531 509.875,800 510.2813,800 L515.4219,800 C516.1719,800 516.5313,799.7188 516.5313,799.1563 C516.5313,798.875 516.4219,798.625 516.1875,798.4531 C516.0156,798.3281 515.875,798.2969 515.4219,798.2969 L513.7031,798.2969 L513.7031,791.7813 Z "/><text fill="#000000" font-family="sans-serif" font-size="12" font-style="italic" lengthAdjust="spacingAndGlyphs" textLength="60" x="533.25" y="799.1543">Interactor</text><line style="stroke: #A80036; stroke-width: 1.5;" x1="444.5" x2="649.5" y1="811" y2="811"/><line style="stroke: #A80036; stroke-width: 1.5;" x1="444.5" x2="649.5" y1="819" y2="819"/><ellipse cx="454.5" cy="830" fill="#84BE84" rx="3" ry="3" style="stroke: #038048; stroke-width: 1.0;"/><text fill="#000000" font-family="sans-serif" font-size="11" lengthAdjust="spacingAndGlyphs" textLength="168" x="463.5" y="833.2104">requestUpdateAccessToken()</text><ellipse cx="454.5" cy="842.8047" fill="#84BE84" rx="3" ry="3" style="stroke: #038048; stroke-width: 1.0;"/><text fill="#000000" font-family="sans-serif" font-size="11" lengthAdjust="spacingAndGlyphs" textLength="181" x="463.5" y="846.0151">requestUpdateSelectedAlbum()</text><ellipse cx="454.5" cy="855.6094" fill="#84BE84" rx="3" ry="3" style="stroke: #038048; stroke-width: 1.0;"/><text fill="#000000" font-family="sans-serif" font-size="11" lengthAdjust="spacingAndGlyphs" textLength="174" x="463.5" y="858.8198">requestDownloadMediaItems()</text><ellipse cx="454.5" cy="868.4141" fill="#84BE84" rx="3" ry="3" style="stroke: #038048; stroke-width: 1.0;"/><text fill="#000000" font-family="sans-serif" font-size="11" lengthAdjust="spacingAndGlyphs" textLength="141" x="463.5" y="871.6245">isNeededUpdatePhotos()</text><ellipse cx="454.5" cy="881.2188" fill="#84BE84" rx="3" ry="3" style="stroke: #038048; stroke-width: 1.0;"/><text fill="#000000" font-family="sans-serif" font-size="11" lengthAdjust="spacingAndGlyphs" textLength="179" x="463.5" y="884.4292">isNeededUpdateAccessToken()</text><ellipse cx="454.5" cy="894.0234" fill="#84BE84" rx="3" ry="3" style="stroke: #038048; stroke-width: 1.0;"/><text fill="#000000" font-family="sans-serif" font-size="11" lengthAdjust="spacingAndGlyphs" textLength="116" x="463.5" y="897.2339">hasSelectedAlbum()</text><!--MD5=[c4d7be2f8fc2ddbc79709a65a0a31b45]
class app.splash.contract.SplashContract.Router--><rect fill="#FEFECE" filter="url(#fv7xjyzc6ocb6)" height="60.8047" id="app.splash.contract.SplashContract.Router" style="stroke: #A80036; stroke-width: 1.5;" width="228" x="433" y="965"/><ellipse cx="522.75" cy="981" fill="#B4A7E5" rx="11" ry="11" style="stroke: #A80036; stroke-width: 1.0;"/><path d="M523.7031,977.7813 L525.4219,977.7813 C525.8125,977.7813 526,977.75 526.125,977.6719 C526.3906,977.5156 526.5313,977.2344 526.5313,976.9375 C526.5313,976.6719 526.4219,976.4063 526.1875,976.2344 C526.0156,976.125 525.875,976.0938 525.4219,976.0938 L520.2813,976.0938 C519.8438,976.0938 519.7188,976.1094 519.5625,976.2031 C519.3125,976.3594 519.1563,976.6563 519.1563,976.9375 C519.1563,977.2188 519.2969,977.4688 519.5156,977.6406 C519.6719,977.75 519.8594,977.7813 520.2813,977.7813 L522,977.7813 L522,984.2969 L520.2813,984.2969 C519.8438,984.2969 519.7188,984.3125 519.5625,984.4219 C519.3125,984.5781 519.1563,984.8594 519.1563,985.1563 C519.1563,985.4063 519.2969,985.6719 519.5156,985.8281 C519.6719,985.9531 519.875,986 520.2813,986 L525.4219,986 C526.1719,986 526.5313,985.7188 526.5313,985.1563 C526.5313,984.875 526.4219,984.625 526.1875,984.4531 C526.0156,984.3281 525.875,984.2969 525.4219,984.2969 L523.7031,984.2969 L523.7031,977.7813 Z "/><text fill="#000000" font-family="sans-serif" font-size="12" font-style="italic" lengthAdjust="spacingAndGlyphs" textLength="40" x="543.25" y="985.1543">Router</text><line style="stroke: #A80036; stroke-width: 1.5;" x1="434" x2="660" y1="997" y2="997"/><line style="stroke: #A80036; stroke-width: 1.5;" x1="434" x2="660" y1="1005" y2="1005"/><ellipse cx="444" cy="1016" fill="#84BE84" rx="3" ry="3" style="stroke: #038048; stroke-width: 1.0;"/><text fill="#000000" font-family="sans-serif" font-size="11" lengthAdjust="spacingAndGlyphs" textLength="202" x="453" y="1019.2104">startSelectActivity(activity: Activity)</text><!--MD5=[3c473f5619a54f75a0edff63b827d9bf]
class app.splash.contract.SplashContract.PresenterCallback--><rect fill="#FEFECE" filter="url(#fv7xjyzc6ocb6)" height="60.8047" id="app.splash.contract.SplashContract.PresenterCallback" style="stroke: #A80036; stroke-width: 1.5;" width="191" x="393.5" y="317"/><ellipse cx="431.9" cy="333" fill="#B4A7E5" rx="11" ry="11" style="stroke: #A80036; stroke-width: 1.0;"/><path d="M432.8531,329.7813 L434.5719,329.7813 C434.9625,329.7813 435.15,329.75 435.275,329.6719 C435.5406,329.5156 435.6813,329.2344 435.6813,328.9375 C435.6813,328.6719 435.5719,328.4063 435.3375,328.2344 C435.1656,328.125 435.025,328.0938 434.5719,328.0938 L429.4313,328.0938 C428.9938,328.0938 428.8688,328.1094 428.7125,328.2031 C428.4625,328.3594 428.3063,328.6563 428.3063,328.9375 C428.3063,329.2188 428.4469,329.4688 428.6656,329.6406 C428.8219,329.75 429.0094,329.7813 429.4313,329.7813 L431.15,329.7813 L431.15,336.2969 L429.4313,336.2969 C428.9938,336.2969 428.8688,336.3125 428.7125,336.4219 C428.4625,336.5781 428.3063,336.8594 428.3063,337.1563 C428.3063,337.4063 428.4469,337.6719 428.6656,337.8281 C428.8219,337.9531 429.025,338 429.4313,338 L434.5719,338 C435.3219,338 435.6813,337.7188 435.6813,337.1563 C435.6813,336.875 435.5719,336.625 435.3375,336.4531 C435.1656,336.3281 435.025,336.2969 434.5719,336.2969 L432.8531,336.2969 L432.8531,329.7813 Z "/><text fill="#000000" font-family="sans-serif" font-size="12" font-style="italic" lengthAdjust="spacingAndGlyphs" textLength="107" x="451.1" y="337.1543">PresenterCallback</text><line style="stroke: #A80036; stroke-width: 1.5;" x1="394.5" x2="583.5" y1="349" y2="349"/><line style="stroke: #A80036; stroke-width: 1.5;" x1="394.5" x2="583.5" y1="357" y2="357"/><ellipse cx="404.5" cy="368" fill="#84BE84" rx="3" ry="3" style="stroke: #038048; stroke-width: 1.0;"/><text fill="#000000" font-family="sans-serif" font-size="11" lengthAdjust="spacingAndGlyphs" textLength="165" x="413.5" y="371.2104">requestUpdatePhotosResult()</text><!--MD5=[bd8f5a99360b29d1d7282380101cd4bb]
class app.splash.contract.SplashContract.InteractorCallback--><rect fill="#FEFECE" filter="url(#fv7xjyzc6ocb6)" height="112.0234" id="app.splash.contract.SplashContract.InteractorCallback" style="stroke: #A80036; stroke-width: 1.5;" width="368" x="363" y="590"/><ellipse cx="487.75" cy="606" fill="#B4A7E5" rx="11" ry="11" style="stroke: #A80036; stroke-width: 1.0;"/><path d="M488.7031,602.7813 L490.4219,602.7813 C490.8125,602.7813 491,602.75 491.125,602.6719 C491.3906,602.5156 491.5313,602.2344 491.5313,601.9375 C491.5313,601.6719 491.4219,601.4063 491.1875,601.2344 C491.0156,601.125 490.875,601.0938 490.4219,601.0938 L485.2813,601.0938 C484.8438,601.0938 484.7188,601.1094 484.5625,601.2031 C484.3125,601.3594 484.1563,601.6563 484.1563,601.9375 C484.1563,602.2188 484.2969,602.4688 484.5156,602.6406 C484.6719,602.75 484.8594,602.7813 485.2813,602.7813 L487,602.7813 L487,609.2969 L485.2813,609.2969 C484.8438,609.2969 484.7188,609.3125 484.5625,609.4219 C484.3125,609.5781 484.1563,609.8594 484.1563,610.1563 C484.1563,610.4063 484.2969,610.6719 484.5156,610.8281 C484.6719,610.9531 484.875,611 485.2813,611 L490.4219,611 C491.1719,611 491.5313,610.7188 491.5313,610.1563 C491.5313,609.875 491.4219,609.625 491.1875,609.4531 C491.0156,609.3281 490.875,609.2969 490.4219,609.2969 L488.7031,609.2969 L488.7031,602.7813 Z "/><text fill="#000000" font-family="sans-serif" font-size="12" font-style="italic" lengthAdjust="spacingAndGlyphs" textLength="110" x="508.25" y="610.1543">InteractorCallback</text><line style="stroke: #A80036; stroke-width: 1.5;" x1="364" x2="730" y1="622" y2="622"/><line style="stroke: #A80036; stroke-width: 1.5;" x1="364" x2="730" y1="630" y2="630"/><ellipse cx="374" cy="641" fill="#84BE84" rx="3" ry="3" style="stroke: #038048; stroke-width: 1.0;"/><text fill="#000000" font-family="sans-serif" font-size="11" lengthAdjust="spacingAndGlyphs" textLength="331" x="383" y="644.2104">requestUpdateAccessTokenResult(isSucceeded: Boolean)</text><ellipse cx="374" cy="653.8047" fill="#84BE84" rx="3" ry="3" style="stroke: #038048; stroke-width: 1.0;"/><text fill="#000000" font-family="sans-serif" font-size="11" lengthAdjust="spacingAndGlyphs" textLength="337" x="383" y="657.0151">requestDownloadMediaItemsResult(isSucceeded: Boolean)</text><ellipse cx="374" cy="666.6094" fill="#84BE84" rx="3" ry="3" style="stroke: #038048; stroke-width: 1.0;"/><text fill="#000000" font-family="sans-serif" font-size="11" lengthAdjust="spacingAndGlyphs" textLength="304" x="383" y="669.8198">isNeededUpdatePhotosResult(isSucceeded: Boolean)</text><ellipse cx="374" cy="679.4141" fill="#84BE84" rx="3" ry="3" style="stroke: #038048; stroke-width: 1.0;"/><text fill="#000000" font-family="sans-serif" font-size="11" lengthAdjust="spacingAndGlyphs" textLength="342" x="383" y="682.6245">isNeededUpdateAccessTokenResult(isSucceeded: Boolean)</text><ellipse cx="374" cy="692.2188" fill="#84BE84" rx="3" ry="3" style="stroke: #038048; stroke-width: 1.0;"/><text fill="#000000" font-family="sans-serif" font-size="11" lengthAdjust="spacingAndGlyphs" textLength="279" x="383" y="695.4292">hasSelectedAlbumResult(isSucceeded: Boolean)</text><!--MD5=[a73abe5de16d4ae8f7cebc11a3c6e1fe]
class core.viper.ViperContract.Presenter--><rect fill="#FEFECE" filter="url(#fv7xjyzc6ocb6)" height="60.8047" id="core.viper.ViperContract.Presenter" style="stroke: #A80036; stroke-width: 1.5;" width="89" x="880.5" y="461.5"/><ellipse cx="895.5" cy="477.5" fill="#B4A7E5" rx="11" ry="11" style="stroke: #A80036; stroke-width: 1.0;"/><path d="M896.4531,474.2813 L898.1719,474.2813 C898.5625,474.2813 898.75,474.25 898.875,474.1719 C899.1406,474.0156 899.2813,473.7344 899.2813,473.4375 C899.2813,473.1719 899.1719,472.9063 898.9375,472.7344 C898.7656,472.625 898.625,472.5938 898.1719,472.5938 L893.0313,472.5938 C892.5938,472.5938 892.4688,472.6094 892.3125,472.7031 C892.0625,472.8594 891.9063,473.1563 891.9063,473.4375 C891.9063,473.7188 892.0469,473.9688 892.2656,474.1406 C892.4219,474.25 892.6094,474.2813 893.0313,474.2813 L894.75,474.2813 L894.75,480.7969 L893.0313,480.7969 C892.5938,480.7969 892.4688,480.8125 892.3125,480.9219 C892.0625,481.0781 891.9063,481.3594 891.9063,481.6563 C891.9063,481.9063 892.0469,482.1719 892.2656,482.3281 C892.4219,482.4531 892.625,482.5 893.0313,482.5 L898.1719,482.5 C898.9219,482.5 899.2813,482.2188 899.2813,481.6563 C899.2813,481.375 899.1719,481.125 898.9375,480.9531 C898.7656,480.8281 898.625,480.7969 898.1719,480.7969 L896.4531,480.7969 L896.4531,474.2813 Z "/><text fill="#000000" font-family="sans-serif" font-size="12" font-style="italic" lengthAdjust="spacingAndGlyphs" textLength="57" x="909.5" y="481.6543">Presenter</text><line style="stroke: #A80036; stroke-width: 1.5;" x1="881.5" x2="968.5" y1="493.5" y2="493.5"/><line style="stroke: #A80036; stroke-width: 1.5;" x1="881.5" x2="968.5" y1="501.5" y2="501.5"/><ellipse cx="891.5" cy="512.5" fill="#84BE84" rx="3" ry="3" style="stroke: #038048; stroke-width: 1.0;"/><text fill="#000000" font-family="sans-serif" font-size="11" lengthAdjust="spacingAndGlyphs" textLength="51" x="900.5" y="515.7104">destroy()</text><!--MD5=[587da1590874ac044f3f2eaaedd1375f]
class core.viper.ViperContract.PresenterCallback--><rect fill="#FEFECE" filter="url(#fv7xjyzc6ocb6)" height="60.8047" id="core.viper.ViperContract.PresenterCallback" style="stroke: #A80036; stroke-width: 1.5;" width="144" x="854" y="317"/><ellipse cx="871.25" cy="333" fill="#B4A7E5" rx="11" ry="11" style="stroke: #A80036; stroke-width: 1.0;"/><path d="M872.2031,329.7813 L873.9219,329.7813 C874.3125,329.7813 874.5,329.75 874.625,329.6719 C874.8906,329.5156 875.0313,329.2344 875.0313,328.9375 C875.0313,328.6719 874.9219,328.4063 874.6875,328.2344 C874.5156,328.125 874.375,328.0938 873.9219,328.0938 L868.7813,328.0938 C868.3438,328.0938 868.2188,328.1094 868.0625,328.2031 C867.8125,328.3594 867.6563,328.6563 867.6563,328.9375 C867.6563,329.2188 867.7969,329.4688 868.0156,329.6406 C868.1719,329.75 868.3594,329.7813 868.7813,329.7813 L870.5,329.7813 L870.5,336.2969 L868.7813,336.2969 C868.3438,336.2969 868.2188,336.3125 868.0625,336.4219 C867.8125,336.5781 867.6563,336.8594 867.6563,337.1563 C867.6563,337.4063 867.7969,337.6719 868.0156,337.8281 C868.1719,337.9531 868.375,338 868.7813,338 L873.9219,338 C874.6719,338 875.0313,337.7188 875.0313,337.1563 C875.0313,336.875 874.9219,336.625 874.6875,336.4531 C874.5156,336.3281 874.375,336.2969 873.9219,336.2969 L872.2031,336.2969 L872.2031,329.7813 Z "/><text fill="#000000" font-family="sans-serif" font-size="12" font-style="italic" lengthAdjust="spacingAndGlyphs" textLength="107" x="885.75" y="337.1543">PresenterCallback</text><line style="stroke: #A80036; stroke-width: 1.5;" x1="855" x2="997" y1="349" y2="349"/><line style="stroke: #A80036; stroke-width: 1.5;" x1="855" x2="997" y1="357" y2="357"/><ellipse cx="865" cy="368" fill="#84BE84" rx="3" ry="3" style="stroke: #038048; stroke-width: 1.0;"/><text fill="#000000" font-family="sans-serif" font-size="11" lengthAdjust="spacingAndGlyphs" textLength="118" x="874" y="371.2104">getActivity(): Activity</text><!--MD5=[ec1a8c1a0905d2094598a56ebb97c9ab]
class core.viper.ViperContract.Interactor--><rect fill="#FEFECE" filter="url(#fv7xjyzc6ocb6)" height="60.8047" id="core.viper.ViperContract.Interactor" style="stroke: #A80036; stroke-width: 1.5;" width="92" x="854" y="811"/><ellipse cx="869" cy="827" fill="#B4A7E5" rx="11" ry="11" style="stroke: #A80036; stroke-width: 1.0;"/><path d="M869.9531,823.7813 L871.6719,823.7813 C872.0625,823.7813 872.25,823.75 872.375,823.6719 C872.6406,823.5156 872.7813,823.2344 872.7813,822.9375 C872.7813,822.6719 872.6719,822.4063 872.4375,822.2344 C872.2656,822.125 872.125,822.0938 871.6719,822.0938 L866.5313,822.0938 C866.0938,822.0938 865.9688,822.1094 865.8125,822.2031 C865.5625,822.3594 865.4063,822.6563 865.4063,822.9375 C865.4063,823.2188 865.5469,823.4688 865.7656,823.6406 C865.9219,823.75 866.1094,823.7813 866.5313,823.7813 L868.25,823.7813 L868.25,830.2969 L866.5313,830.2969 C866.0938,830.2969 865.9688,830.3125 865.8125,830.4219 C865.5625,830.5781 865.4063,830.8594 865.4063,831.1563 C865.4063,831.4063 865.5469,831.6719 865.7656,831.8281 C865.9219,831.9531 866.125,832 866.5313,832 L871.6719,832 C872.4219,832 872.7813,831.7188 872.7813,831.1563 C872.7813,830.875 872.6719,830.625 872.4375,830.4531 C872.2656,830.3281 872.125,830.2969 871.6719,830.2969 L869.9531,830.2969 L869.9531,823.7813 Z "/><text fill="#000000" font-family="sans-serif" font-size="12" font-style="italic" lengthAdjust="spacingAndGlyphs" textLength="60" x="883" y="831.1543">Interactor</text><line style="stroke: #A80036; stroke-width: 1.5;" x1="855" x2="945" y1="843" y2="843"/><line style="stroke: #A80036; stroke-width: 1.5;" x1="855" x2="945" y1="851" y2="851"/><ellipse cx="865" cy="862" fill="#84BE84" rx="3" ry="3" style="stroke: #038048; stroke-width: 1.0;"/><text fill="#000000" font-family="sans-serif" font-size="11" lengthAdjust="spacingAndGlyphs" textLength="51" x="874" y="865.2104">destroy()</text><!--MD5=[e77a630e059dc31e4db28b962d60c6d2]
class core.viper.ViperContract.InteractorCallback--><rect fill="#FEFECE" filter="url(#fv7xjyzc6ocb6)" height="48" id="core.viper.ViperContract.InteractorCallback" style="stroke: #A80036; stroke-width: 1.5;" width="142" x="854" y="622"/><ellipse cx="869" cy="638" fill="#B4A7E5" rx="11" ry="11" style="stroke: #A80036; stroke-width: 1.0;"/><path d="M869.9531,634.7813 L871.6719,634.7813 C872.0625,634.7813 872.25,634.75 872.375,634.6719 C872.6406,634.5156 872.7813,634.2344 872.7813,633.9375 C872.7813,633.6719 872.6719,633.4063 872.4375,633.2344 C872.2656,633.125 872.125,633.0938 871.6719,633.0938 L866.5313,633.0938 C866.0938,633.0938 865.9688,633.1094 865.8125,633.2031 C865.5625,633.3594 865.4063,633.6563 865.4063,633.9375 C865.4063,634.2188 865.5469,634.4688 865.7656,634.6406 C865.9219,634.75 866.1094,634.7813 866.5313,634.7813 L868.25,634.7813 L868.25,641.2969 L866.5313,641.2969 C866.0938,641.2969 865.9688,641.3125 865.8125,641.4219 C865.5625,641.5781 865.4063,641.8594 865.4063,642.1563 C865.4063,642.4063 865.5469,642.6719 865.7656,642.8281 C865.9219,642.9531 866.125,643 866.5313,643 L871.6719,643 C872.4219,643 872.7813,642.7188 872.7813,642.1563 C872.7813,641.875 872.6719,641.625 872.4375,641.4531 C872.2656,641.3281 872.125,641.2969 871.6719,641.2969 L869.9531,641.2969 L869.9531,634.7813 Z "/><text fill="#000000" font-family="sans-serif" font-size="12" font-style="italic" lengthAdjust="spacingAndGlyphs" textLength="110" x="883" y="642.1543">InteractorCallback</text><line style="stroke: #A80036; stroke-width: 1.5;" x1="855" x2="995" y1="654" y2="654"/><line style="stroke: #A80036; stroke-width: 1.5;" x1="855" x2="995" y1="662" y2="662"/><!--MD5=[1825269ddad9ed22789ebb49bf96ca62]
class core.viper.ViperContract.Router--><rect fill="#FEFECE" filter="url(#fv7xjyzc6ocb6)" height="48" id="core.viper.ViperContract.Router" style="stroke: #A80036; stroke-width: 1.5;" width="72" x="856" y="971.5"/><ellipse cx="871" cy="987.5" fill="#B4A7E5" rx="11" ry="11" style="stroke: #A80036; stroke-width: 1.0;"/><path d="M871.9531,984.2813 L873.6719,984.2813 C874.0625,984.2813 874.25,984.25 874.375,984.1719 C874.6406,984.0156 874.7813,983.7344 874.7813,983.4375 C874.7813,983.1719 874.6719,982.9063 874.4375,982.7344 C874.2656,982.625 874.125,982.5938 873.6719,982.5938 L868.5313,982.5938 C868.0938,982.5938 867.9688,982.6094 867.8125,982.7031 C867.5625,982.8594 867.4063,983.1563 867.4063,983.4375 C867.4063,983.7188 867.5469,983.9688 867.7656,984.1406 C867.9219,984.25 868.1094,984.2813 868.5313,984.2813 L870.25,984.2813 L870.25,990.7969 L868.5313,990.7969 C868.0938,990.7969 867.9688,990.8125 867.8125,990.9219 C867.5625,991.0781 867.4063,991.3594 867.4063,991.6563 C867.4063,991.9063 867.5469,992.1719 867.7656,992.3281 C867.9219,992.4531 868.125,992.5 868.5313,992.5 L873.6719,992.5 C874.4219,992.5 874.7813,992.2188 874.7813,991.6563 C874.7813,991.375 874.6719,991.125 874.4375,990.9531 C874.2656,990.8281 874.125,990.7969 873.6719,990.7969 L871.9531,990.7969 L871.9531,984.2813 Z "/><text fill="#000000" font-family="sans-serif" font-size="12" font-style="italic" lengthAdjust="spacingAndGlyphs" textLength="40" x="885" y="991.6543">Router</text><line style="stroke: #A80036; stroke-width: 1.5;" x1="857" x2="927" y1="1003.5" y2="1003.5"/><line style="stroke: #A80036; stroke-width: 1.5;" x1="857" x2="927" y1="1011.5" y2="1011.5"/><!--MD5=[d1b14fe910d579f1dd339fb4a231de99]
reverse link app.splash.SplashActivity to app.splash.SplashPresenter--><path d="M177.531,384.861 C178.63,410.955 180.077,445.339 181.023,467.798 " fill="none" id="app.splash.SplashActivity&lt;-app.splash.SplashPresenter" style="stroke: #A80036; stroke-width: 1.0;"/><polygon fill="#FFFFFF" points="176.977,371.712,173.2331,377.875,177.4821,383.7014,181.226,377.5383,176.977,371.712" style="stroke: #A80036; stroke-width: 1.0;"/><rect fill="none" height="6" style="stroke: #C82930; stroke-width: 1.0;" width="6" x="183" y="414.0664"/><text fill="#000000" font-family="sans-serif" font-size="13" lengthAdjust="spacingAndGlyphs" textLength="62" x="193" y="421.0669">presenter</text><!--MD5=[f91676235e457bf53bba641bc0a61a35]
reverse link app.splash.SplashPresenter to app.splash.SplashInteractor--><path d="M182.52,529.148 C183.547,600.54 185.811,757.849 186.665,817.211 " fill="none" id="app.splash.SplashPresenter&lt;-app.splash.SplashInteractor" style="stroke: #A80036; stroke-width: 1.0;"/><polygon fill="#FFFFFF" points="182.332,516.07,178.4188,522.127,182.5047,528.0688,186.418,522.0118,182.332,516.07" style="stroke: #A80036; stroke-width: 1.0;"/><rect fill="none" height="6" style="stroke: #C82930; stroke-width: 1.0;" width="6" x="188" y="643.5664"/><text fill="#000000" font-family="sans-serif" font-size="13" lengthAdjust="spacingAndGlyphs" textLength="62" x="198" y="650.5669">interactor</text><!--MD5=[f6d4c8b2b3fb2120ac8d0b5658ad082d]
reverse link app.splash.SplashPresenter to app.splash.SplashRouter--><path d="M165.563,528.471 C134.628,599.845 73.4932,765.796 104,904 C109.339,928.187 121.819,953.591 131.795,971.306 " fill="none" id="app.splash.SplashPresenter&lt;-app.splash.SplashRouter" style="stroke: #A80036; stroke-width: 1.0;"/><polygon fill="#FFFFFF" points="170.959,516.273,164.8734,520.1415,166.1037,527.2469,172.1893,523.3784,170.959,516.273" style="stroke: #A80036; stroke-width: 1.0;"/><rect fill="none" height="6" style="stroke: #C82930; stroke-width: 1.0;" width="6" x="107" y="738.0664"/><text fill="#000000" font-family="sans-serif" font-size="13" lengthAdjust="spacingAndGlyphs" textLength="39" x="117" y="745.0669">router</text><!--MD5=[4a3fa21c44f6d76d85a5cbf9aed1c6f4]
link app.splash.SplashPresenter to app.splash.contract.SplashContract.Presenter--><path d="M247.004,492 C276.783,492 306.563,492 336.342,492 " fill="none" id="app.splash.SplashPresenter-&gt;app.splash.contract.SplashContract.Presenter" style="stroke: #A80036; stroke-width: 1.0; stroke-dasharray: 7.0,7.0;"/><polygon fill="none" points="336.432,485,356.432,492,336.432,499,336.432,485" style="stroke: #A80036; stroke-width: 1.0;"/><!--MD5=[89c9c81a6a5449b73b0f6e47e1c1018e]
link app.splash.contract.SplashContract.Presenter to app.splash.SplashPresenter--><!--MD5=[88f2c8acc0354bac6f3d02bb07be8272]
link app.splash.SplashInteractor to app.splash.contract.SplashContract.Interactor--><path d="M252.039,841.5 C309.07,841.5 366.1,841.5 423.13,841.5 " fill="none" id="app.splash.SplashInteractor-&gt;app.splash.contract.SplashContract.Interactor" style="stroke: #A80036; stroke-width: 1.0; stroke-dasharray: 7.0,7.0;"/><polygon fill="none" points="423.303,834.5,443.303,841.5,423.303,848.5,423.303,834.5" style="stroke: #A80036; stroke-width: 1.0;"/><!--MD5=[23aba68c0758d8751b4b52e71a0879da]
link app.splash.contract.SplashContract.Interactor to app.splash.SplashInteractor--><!--MD5=[f3b453277492f0dfdc03350d28f6acee]
link app.splash.SplashRouter to app.splash.contract.SplashContract.Router--><path d="M201.607,995.5 C271.957,995.5 342.307,995.5 412.657,995.5 " fill="none" id="app.splash.SplashRouter-&gt;app.splash.contract.SplashContract.Router" style="stroke: #A80036; stroke-width: 1.0; stroke-dasharray: 7.0,7.0;"/><polygon fill="none" points="412.993,988.4999,432.993,995.5,412.993,1002.4999,412.993,988.4999" style="stroke: #A80036; stroke-width: 1.0;"/><!--MD5=[e26c28e3b4e72dbec67da16904f3d5ba]
link app.splash.contract.SplashContract.Router to app.splash.SplashRouter--><!--MD5=[63e12b800cfdf6b28eaf388d7f2a2de3]
link app.splash.SplashActivity to app.splash.contract.SplashContract.PresenterCallback--><path d="M202.192,323.442 C231.561,298.454 281.871,261.375 333.5,249.5 C357.819,243.906 368.28,244.094 389,258 C408.452,271.055 428.05,287.661 444.679,303.016 " fill="none" id="app.splash.SplashActivity-&gt;app.splash.contract.SplashContract.PresenterCallback" style="stroke: #A80036; stroke-width: 1.0; stroke-dasharray: 7.0,7.0;"/><polygon fill="none" points="449.63,298.064,459.317,316.91,439.992,308.218,449.63,298.064" style="stroke: #A80036; stroke-width: 1.0;"/><!--MD5=[8a9d7373beac840ed398afebcaa45f42]
reverse link app.splash.SplashPresenter to app.splash.contract.SplashContract.PresenterCallback--><path d="M243.763,462.331 C296.519,437.844 372.109,402.757 425.389,378.026 " fill="none" id="app.splash.SplashPresenter&lt;-app.splash.contract.SplashContract.PresenterCallback" style="stroke: #A80036; stroke-width: 1.0;"/><polygon fill="#FFFFFF" points="231.872,467.851,238.9984,468.9532,242.7567,462.799,235.6304,461.6968,231.872,467.851" style="stroke: #A80036; stroke-width: 1.0;"/><rect fill="none" height="6" style="stroke: #C82930; stroke-width: 1.0;" width="6" x="357" y="414.0664"/><text fill="#000000" font-family="sans-serif" font-size="13" lengthAdjust="spacingAndGlyphs" textLength="51" x="367" y="421.0669">callback</text><!--MD5=[28576bd7b8dcbd86209090d56d5c73fa]
link app.splash.SplashPresenter to app.splash.contract.SplashContract.InteractorCallback--><path d="M237.436,516.086 C279.723,533.696 340.079,558.83 396.285,582.237 " fill="none" id="app.splash.SplashPresenter-&gt;app.splash.contract.SplashContract.InteractorCallback" style="stroke: #A80036; stroke-width: 1.0; stroke-dasharray: 7.0,7.0;"/><polygon fill="none" points="398.985,575.778,414.757,589.929,393.603,588.702,398.985,575.778" style="stroke: #A80036; stroke-width: 1.0;"/><!--MD5=[752984750464c7ee6ba6018813c5518f]
reverse link app.splash.SplashInteractor to app.splash.contract.SplashContract.InteractorCallback--><path d="M241.864,811.011 C295.486,782.189 378.435,737.604 444.32,702.19 " fill="none" id="app.splash.SplashInteractor&lt;-app.splash.contract.SplashContract.InteractorCallback" style="stroke: #A80036; stroke-width: 1.0;"/><polygon fill="#FFFFFF" points="230.221,817.269,237.3997,817.9521,240.7912,811.5883,233.6125,810.9052,230.221,817.269" style="stroke: #A80036; stroke-width: 1.0;"/><rect fill="none" height="6" style="stroke: #C82930; stroke-width: 1.0;" width="6" x="392" y="738.0664"/><text fill="#000000" font-family="sans-serif" font-size="13" lengthAdjust="spacingAndGlyphs" textLength="51" x="402" y="745.0669">callback</text><!--MD5=[820df43acf374481b3bdcead29b5dd71]
link app.splash.entity.UpdatePhotoRequest to app.splash.SplashActivity--><!--MD5=[60fbdfd0700c1e091e04aab4c680ae02]
link app.splash.contract.SplashContract.PresenterCallback to app.splash.contract.SplashContract.Presenter--><!--MD5=[b3bf049ce59d2595879a1fd8288beef5]
link app.splash.contract.SplashContract.Presenter to app.splash.contract.SplashContract.InteractorCallback--><!--MD5=[00b6d89bc9c196133b7cb6c7661407e9]
link app.splash.contract.SplashContract.InteractorCallback to app.splash.contract.SplashContract.Interactor--><!--MD5=[77b25775f01acfdb62435ac9d3d43dd8]
link app.splash.contract.SplashContract.Interactor to app.splash.contract.SplashContract.Router--><!--MD5=[2e06be8c3c75336d7d11f1a2914bd201]
link app.splash.contract.SplashContract.Presenter to core.viper.ViperContract.Presenter--><path d="M781.766,492 C807.923,492 834.08,492 860.237,492 " fill="none" id="app.splash.contract.SplashContract.Presenter-&gt;core.viper.ViperContract.Presenter" style="stroke: #A80036; stroke-width: 1.0; stroke-dasharray: 7.0,7.0;"/><polygon fill="none" points="860.239,485,880.239,492,860.239,499,860.239,485" style="stroke: #A80036; stroke-width: 1.0;"/><!--MD5=[b2995618d5b21c8d3c2860a72f4dc93c]
link app.splash.contract.SplashContract.PresenterCallback to core.viper.ViperContract.PresenterCallback--><path d="M584.594,347.5 C667.638,347.5 750.683,347.5 833.728,347.5 " fill="none" id="app.splash.contract.SplashContract.PresenterCallback-&gt;core.viper.ViperContract.PresenterCallback" style="stroke: #A80036; stroke-width: 1.0; stroke-dasharray: 7.0,7.0;"/><polygon fill="none" points="833.985,340.5,853.985,347.5,833.985,354.5,833.985,340.5" style="stroke: #A80036; stroke-width: 1.0;"/><!--MD5=[89165bf8658882d720ff072a5eccd2c7]
link app.splash.contract.SplashContract.Interactor to core.viper.ViperContract.Interactor--><path d="M650.763,841.5 C711.687,841.5 772.611,841.5 833.535,841.5 " fill="none" id="app.splash.contract.SplashContract.Interactor-&gt;core.viper.ViperContract.Interactor" style="stroke: #A80036; stroke-width: 1.0; stroke-dasharray: 7.0,7.0;"/><polygon fill="none" points="833.755,834.5,853.755,841.5,833.755,848.5,833.755,834.5" style="stroke: #A80036; stroke-width: 1.0;"/><!--MD5=[786f0f25dfa8f76932e88831b62b0fa7]
link app.splash.contract.SplashContract.InteractorCallback to core.viper.ViperContract.InteractorCallback--><path d="M731.201,646 C765.374,646 799.546,646 833.719,646 " fill="none" id="app.splash.contract.SplashContract.InteractorCallback-&gt;core.viper.ViperContract.InteractorCallback" style="stroke: #A80036; stroke-width: 1.0; stroke-dasharray: 7.0,7.0;"/><polygon fill="none" points="833.84,639,853.839,646,833.839,653,833.84,639" style="stroke: #A80036; stroke-width: 1.0;"/><!--MD5=[9cb584ed7fa3fabf5331b65e42323807]
link app.splash.contract.SplashContract.Router to core.viper.ViperContract.Router--><path d="M661.214,995.5 C719.403,995.5 777.593,995.5 835.783,995.5 " fill="none" id="app.splash.contract.SplashContract.Router-&gt;core.viper.ViperContract.Router" style="stroke: #A80036; stroke-width: 1.0; stroke-dasharray: 7.0,7.0;"/><polygon fill="none" points="835.94,988.4999,855.94,995.5,835.94,1002.4999,835.94,988.4999" style="stroke: #A80036; stroke-width: 1.0;"/><!--MD5=[627c911084275ce60a3872a5173c4f97]
reverse link app.splash to app.splash.contract.SplashContract--><path d="M284.0644,183.0043 C284.1415,183.2673 284.219,183.5316 284.2969,183.7974 C284.6086,184.8606 284.9269,185.9462 285.2514,187.0531 C290.4437,204.7627 297.2274,227.9002 304.0104,251.035 C310.7933,274.1697 317.5755,297.3017 322.7646,315.0004 C323.089,316.1066 323.4071,317.1915 323.7186,318.2539 C323.7964,318.5195 323.8739,318.7837 323.9509,319.0465 " fill="none" id="app.splash&lt;-app.splash.contract.SplashContract" style="stroke: #A80036; stroke-width: 1.0;"/><ellipse cx="286.3151" cy="190.6812" fill="#FFFFFF" rx="8" ry="8" style="stroke: #A80036; stroke-width: 1.0;"/><line style="stroke: #A80036; stroke-width: 1.0;" x1="288.5659" x2="284.0644" y1="198.358" y2="183.0043"/><line style="stroke: #A80036; stroke-width: 1.0;" x1="278.6383" x2="293.992" y1="192.932" y2="188.4304"/><!--MD5=[87f8738a1428cad8e95c20e665af5898]
link core.viper.ViperContract.PresenterCallback to core.viper.ViperContract.Presenter--><!--MD5=[6573e0256b6fb7c6a0505a89fdc8309d]
link core.viper.ViperContract.Presenter to core.viper.ViperContract.InteractorCallback--><!--MD5=[f8d939142a6dbc42db09fcc57fec4775]
link core.viper.ViperContract.InteractorCallback to core.viper.ViperContract.Interactor--><!--MD5=[37f12353853fdc756113b71d7b56ae43]
link core.viper.ViperContract.Interactor to core.viper.ViperContract.Router--><!--MD5=[922dd2d4f3f3a5b86a81b51c9733b0e8]
@startuml
namespace app.splash #FFFFEE {
  SplashActivity o- - SplashPresenter: -presenter
  SplashPresenter o- - - SplashInteractor: -interactor
  SplashPresenter o- - - - SplashRouter: -router

  SplashPresenter .|> app.splash.contract.SplashContract.Presenter
  SplashInteractor .|> app.splash.contract.SplashContract.Interactor
  SplashRouter .|> app.splash.contract.SplashContract.Router

  SplashActivity ..|> app.splash.contract.SplashContract.PresenterCallback
  SplashPresenter o- - app.splash.contract.SplashContract.PresenterCallback: -callback
  SplashPresenter ..|> app.splash.contract.SplashContract.InteractorCallback
  SplashInteractor o- - app.splash.contract.SplashContract.InteractorCallback: -callback

  app.splash.contract.SplashContract.Presenter -[hidden]> SplashPresenter
  app.splash.contract.SplashContract.Interactor -[hidden]> SplashInteractor
  app.splash.contract.SplashContract.Router -[hidden]> SplashRouter

  namespace entity {
    enum UpdatePhotoRequest {
      SKIPPED
      UPDATE_REFRESH_TOKEN
      SELECT_ALBUM
      DOWNLOAD_MEDIA_ITEMS
      COMPLETED
      UNKOWN
    }

    UpdatePhotoRequest -[hidden]-> app.splash.SplashActivity
  }
}

namespace app.splash.contract.SplashContract #EEEEEE {
  interface Presenter {
    + requestUpdatePhotos()
    + evaluateActivityResult(requestCode: Int, resultCode: Int, data: Intent?)
  }
  interface PresenterCallback {
    + requestUpdatePhotosResult()
  }
  interface Interactor {
    + requestUpdateAccessToken()
    + requestUpdateSelectedAlbum()
    + requestDownloadMediaItems()
    + isNeededUpdatePhotos()
    + isNeededUpdateAccessToken()
    + hasSelectedAlbum()
  }
  interface InteractorCallback {
    + requestUpdateAccessTokenResult(isSucceeded: Boolean)
    + requestDownloadMediaItemsResult(isSucceeded: Boolean)
    + isNeededUpdatePhotosResult(isSucceeded: Boolean)
    + isNeededUpdateAccessTokenResult(isSucceeded: Boolean)
    + hasSelectedAlbumResult(isSucceeded: Boolean)
  }
  interface Router {
    + startSelectActivity(activity: Activity)
  }

  PresenterCallback -[hidden]-> Presenter
  Presenter -[hidden]-> InteractorCallback
  InteractorCallback -[hidden]-> Interactor
  Interactor -[hidden]-> Router

  Presenter .|> core.viper.ViperContract.Presenter
  PresenterCallback .|> core.viper.ViperContract.PresenterCallback
  Interactor .|> core.viper.ViperContract.Interactor
  InteractorCallback .|> core.viper.ViperContract.InteractorCallback
  Router .|> core.viper.ViperContract.Router
}

app.splash +- - app.splash.contract.SplashContract

namespace core.viper.ViperContract #DDDDDD {
  interface Presenter {
    + destroy()
  }
  interface PresenterCallback {
    + getActivity(): Activity
  }
  interface Interactor {
    + destroy()
  }
  interface InteractorCallback
  interface Router

  PresenterCallback -[hidden]-> Presenter
  Presenter -[hidden]-> InteractorCallback
  InteractorCallback -[hidden]-> Interactor
  Interactor -[hidden]-> Router
}
@enduml

PlantUML version 1.2020.15beta1(Unknown compile time)
(GPL source distribution)
Java Runtime: Java(TM) SE Runtime Environment
JVM: Java HotSpot(TM) 64-Bit Server VM
Default Encoding: UTF-8
Language: en
Country: US
--></g></svg>