<?xml version="1.0" encoding="UTF-8" standalone="no"?><svg xmlns="http://www.w3.org/2000/svg" xmlns:xlink="http://www.w3.org/1999/xlink" contentScriptType="application/ecmascript" contentStyleType="text/css" height="1035px" preserveAspectRatio="none" style="width:1112px;height:1035px;" version="1.1" viewBox="0 0 1112 1035" width="1112px" zoomAndPan="magnify"><defs><filter height="300%" id="fkim027ptfbva" width="300%" x="-1" y="-1"><feGaussianBlur result="blurOut" stdDeviation="2.0"/><feColorMatrix in="blurOut" result="blurOut2" type="matrix" values="0 0 0 0 0 0 0 0 0 0 0 0 0 0 0 0 0 0 .4 0"/><feOffset dx="4.0" dy="4.0" in="blurOut2" result="blurOut3"/><feBlend in="SourceGraphic" in2="blurOut3" mode="normal"/></filter></defs><g><!--MD5=[2a96228d3f581488ff170e4c22043396]
cluster app.splash--><polygon fill="#FFFFEE" filter="url(#fkim027ptfbva)" points="16,6,110,6,117,28.2969,278,28.2969,278,1016.5,16,1016.5,16,6" style="stroke: #000000; stroke-width: 1.5;"/><line style="stroke: #000000; stroke-width: 1.5;" x1="16" x2="117" y1="28.2969" y2="28.2969"/><text fill="#000000" font-family="sans-serif" font-size="14" font-weight="bold" lengthAdjust="spacingAndGlyphs" textLength="88" x="20" y="20.9951">app.splash</text><!--MD5=[866e8dce3d52014c766811fd38c69b87]
cluster app.splash.entity--><polygon fill="#FFFFEE" filter="url(#fkim027ptfbva)" points="48,57,103,57,110,79.2969,238,79.2969,238,220,48,220,48,57" style="stroke: #000000; stroke-width: 1.5;"/><line style="stroke: #000000; stroke-width: 1.5;" x1="48" x2="110" y1="79.2969" y2="79.2969"/><text fill="#000000" font-family="sans-serif" font-size="14" font-weight="bold" lengthAdjust="spacingAndGlyphs" textLength="49" x="52" y="71.9951">entity</text><!--MD5=[c83d1fd1a1968b652cdf7b3ece76fca7]
cluster app.splash.contract.SplashContract--><polygon fill="#EEEEEE" filter="url(#fkim027ptfbva)" points="318,261,619,261,626,283.2969,800,283.2969,800,1023,318,1023,318,261" style="stroke: #000000; stroke-width: 1.5;"/><line style="stroke: #000000; stroke-width: 1.5;" x1="318" x2="626" y1="283.2969" y2="283.2969"/><text fill="#000000" font-family="sans-serif" font-size="14" font-weight="bold" lengthAdjust="spacingAndGlyphs" textLength="295" x="322" y="275.9951">app.splash.contract.SplashContract</text><!--MD5=[6834d4c3e4960f6dbfe701b70c07ed62]
cluster core.viper.ViperContract--><polygon fill="#DDDDDD" filter="url(#fkim027ptfbva)" points="832,275.5,1037,275.5,1044,297.7969,1090,297.7969,1090,1008.5,832,1008.5,832,275.5" style="stroke: #000000; stroke-width: 1.5;"/><line style="stroke: #000000; stroke-width: 1.5;" x1="832" x2="1044" y1="297.7969" y2="297.7969"/><text fill="#000000" font-family="sans-serif" font-size="14" font-weight="bold" lengthAdjust="spacingAndGlyphs" textLength="199" x="836" y="290.4951">core.viper.ViperContract</text><!--MD5=[039b86f07d81291e45b9afd15ac1cc2e]
class app.splash.SplashActivity--><rect fill="#FEFECE" filter="url(#fkim027ptfbva)" height="48" id="app.splash.SplashActivity" style="stroke: #A80036; stroke-width: 1.5;" width="115" x="112.5" y="317"/><ellipse cx="127.5" cy="333" fill="#ADD1B2" rx="11" ry="11" style="stroke: #A80036; stroke-width: 1.0;"/><path d="M129.8438,328.6719 C128.9063,328.2344 128.3125,328.0938 127.4375,328.0938 C124.8125,328.0938 122.8125,330.1719 122.8125,332.8906 L122.8125,334.0156 C122.8125,336.5938 124.9219,338.4844 127.8125,338.4844 C129.0313,338.4844 130.1875,338.1875 130.9375,337.6406 C131.5156,337.2344 131.8438,336.7813 131.8438,336.3906 C131.8438,335.9375 131.4531,335.5469 130.9844,335.5469 C130.7656,335.5469 130.5625,335.625 130.375,335.8125 C129.9219,336.2969 129.9219,336.2969 129.7344,336.3906 C129.3125,336.6563 128.625,336.7813 127.8594,336.7813 C125.8125,336.7813 124.5156,335.6875 124.5156,333.9844 L124.5156,332.8906 C124.5156,331.1094 125.7656,329.7969 127.5,329.7969 C128.0781,329.7969 128.6875,329.9531 129.1563,330.2031 C129.6406,330.4844 129.8125,330.7031 129.9063,331.1094 C129.9688,331.5156 130,331.6406 130.1406,331.7656 C130.2813,331.9063 130.5156,332.0156 130.7344,332.0156 C131,332.0156 131.2656,331.875 131.4375,331.6563 C131.5469,331.5 131.5781,331.3125 131.5781,330.8906 L131.5781,329.4688 C131.5781,329.0313 131.5625,328.9063 131.4688,328.75 C131.3125,328.4844 131.0313,328.3438 130.7344,328.3438 C130.4375,328.3438 130.2344,328.4375 130.0156,328.75 L129.8438,328.6719 Z "/><text fill="#000000" font-family="sans-serif" font-size="12" lengthAdjust="spacingAndGlyphs" textLength="83" x="141.5" y="337.1543">SplashActivity</text><line style="stroke: #A80036; stroke-width: 1.5;" x1="113.5" x2="226.5" y1="349" y2="349"/><line style="stroke: #A80036; stroke-width: 1.5;" x1="113.5" x2="226.5" y1="357" y2="357"/><!--MD5=[437fc10d34a4f2a6bf8ab538f885004c]
class app.splash.SplashPresenter--><rect fill="#FEFECE" filter="url(#fkim027ptfbva)" height="48" id="app.splash.SplashPresenter" style="stroke: #A80036; stroke-width: 1.5;" width="130" x="111" y="474"/><ellipse cx="126" cy="490" fill="#ADD1B2" rx="11" ry="11" style="stroke: #A80036; stroke-width: 1.0;"/><path d="M128.3438,485.6719 C127.4063,485.2344 126.8125,485.0938 125.9375,485.0938 C123.3125,485.0938 121.3125,487.1719 121.3125,489.8906 L121.3125,491.0156 C121.3125,493.5938 123.4219,495.4844 126.3125,495.4844 C127.5313,495.4844 128.6875,495.1875 129.4375,494.6406 C130.0156,494.2344 130.3438,493.7813 130.3438,493.3906 C130.3438,492.9375 129.9531,492.5469 129.4844,492.5469 C129.2656,492.5469 129.0625,492.625 128.875,492.8125 C128.4219,493.2969 128.4219,493.2969 128.2344,493.3906 C127.8125,493.6563 127.125,493.7813 126.3594,493.7813 C124.3125,493.7813 123.0156,492.6875 123.0156,490.9844 L123.0156,489.8906 C123.0156,488.1094 124.2656,486.7969 126,486.7969 C126.5781,486.7969 127.1875,486.9531 127.6563,487.2031 C128.1406,487.4844 128.3125,487.7031 128.4063,488.1094 C128.4688,488.5156 128.5,488.6406 128.6406,488.7656 C128.7813,488.9063 129.0156,489.0156 129.2344,489.0156 C129.5,489.0156 129.7656,488.875 129.9375,488.6563 C130.0469,488.5 130.0781,488.3125 130.0781,487.8906 L130.0781,486.4688 C130.0781,486.0313 130.0625,485.9063 129.9688,485.75 C129.8125,485.4844 129.5313,485.3438 129.2344,485.3438 C128.9375,485.3438 128.7344,485.4375 128.5156,485.75 L128.3438,485.6719 Z "/><text fill="#000000" font-family="sans-serif" font-size="12" lengthAdjust="spacingAndGlyphs" textLength="98" x="140" y="494.1543">SplashPresenter</text><line style="stroke: #A80036; stroke-width: 1.5;" x1="112" x2="240" y1="506" y2="506"/><line style="stroke: #A80036; stroke-width: 1.5;" x1="112" x2="240" y1="514" y2="514"/><!--MD5=[46444ac2f8e682ff904afb8e89ce9f78]
class app.splash.SplashInteractor--><rect fill="#FEFECE" filter="url(#fkim027ptfbva)" height="48" id="app.splash.SplashInteractor" style="stroke: #A80036; stroke-width: 1.5;" width="130" x="116" y="797"/><ellipse cx="131" cy="813" fill="#ADD1B2" rx="11" ry="11" style="stroke: #A80036; stroke-width: 1.0;"/><path d="M133.3438,808.6719 C132.4063,808.2344 131.8125,808.0938 130.9375,808.0938 C128.3125,808.0938 126.3125,810.1719 126.3125,812.8906 L126.3125,814.0156 C126.3125,816.5938 128.4219,818.4844 131.3125,818.4844 C132.5313,818.4844 133.6875,818.1875 134.4375,817.6406 C135.0156,817.2344 135.3438,816.7813 135.3438,816.3906 C135.3438,815.9375 134.9531,815.5469 134.4844,815.5469 C134.2656,815.5469 134.0625,815.625 133.875,815.8125 C133.4219,816.2969 133.4219,816.2969 133.2344,816.3906 C132.8125,816.6563 132.125,816.7813 131.3594,816.7813 C129.3125,816.7813 128.0156,815.6875 128.0156,813.9844 L128.0156,812.8906 C128.0156,811.1094 129.2656,809.7969 131,809.7969 C131.5781,809.7969 132.1875,809.9531 132.6563,810.2031 C133.1406,810.4844 133.3125,810.7031 133.4063,811.1094 C133.4688,811.5156 133.5,811.6406 133.6406,811.7656 C133.7813,811.9063 134.0156,812.0156 134.2344,812.0156 C134.5,812.0156 134.7656,811.875 134.9375,811.6563 C135.0469,811.5 135.0781,811.3125 135.0781,810.8906 L135.0781,809.4688 C135.0781,809.0313 135.0625,808.9063 134.9688,808.75 C134.8125,808.4844 134.5313,808.3438 134.2344,808.3438 C133.9375,808.3438 133.7344,808.4375 133.5156,808.75 L133.3438,808.6719 Z "/><text fill="#000000" font-family="sans-serif" font-size="12" lengthAdjust="spacingAndGlyphs" textLength="98" x="145" y="817.1543">SplashInteractor</text><line style="stroke: #A80036; stroke-width: 1.5;" x1="117" x2="245" y1="829" y2="829"/><line style="stroke: #A80036; stroke-width: 1.5;" x1="117" x2="245" y1="837" y2="837"/><!--MD5=[a75dc8629eebccefb2d92c98e4caf292]
class app.splash.SplashRouter--><rect fill="#FEFECE" filter="url(#fkim027ptfbva)" height="48" id="app.splash.SplashRouter" style="stroke: #A80036; stroke-width: 1.5;" width="111" x="87.5" y="944.5"/><ellipse cx="102.5" cy="960.5" fill="#ADD1B2" rx="11" ry="11" style="stroke: #A80036; stroke-width: 1.0;"/><path d="M104.8438,956.1719 C103.9063,955.7344 103.3125,955.5938 102.4375,955.5938 C99.8125,955.5938 97.8125,957.6719 97.8125,960.3906 L97.8125,961.5156 C97.8125,964.0938 99.9219,965.9844 102.8125,965.9844 C104.0313,965.9844 105.1875,965.6875 105.9375,965.1406 C106.5156,964.7344 106.8438,964.2813 106.8438,963.8906 C106.8438,963.4375 106.4531,963.0469 105.9844,963.0469 C105.7656,963.0469 105.5625,963.125 105.375,963.3125 C104.9219,963.7969 104.9219,963.7969 104.7344,963.8906 C104.3125,964.1563 103.625,964.2813 102.8594,964.2813 C100.8125,964.2813 99.5156,963.1875 99.5156,961.4844 L99.5156,960.3906 C99.5156,958.6094 100.7656,957.2969 102.5,957.2969 C103.0781,957.2969 103.6875,957.4531 104.1563,957.7031 C104.6406,957.9844 104.8125,958.2031 104.9063,958.6094 C104.9688,959.0156 105,959.1406 105.1406,959.2656 C105.2813,959.4063 105.5156,959.5156 105.7344,959.5156 C106,959.5156 106.2656,959.375 106.4375,959.1563 C106.5469,959 106.5781,958.8125 106.5781,958.3906 L106.5781,956.9688 C106.5781,956.5313 106.5625,956.4063 106.4688,956.25 C106.3125,955.9844 106.0313,955.8438 105.7344,955.8438 C105.4375,955.8438 105.2344,955.9375 105.0156,956.25 L104.8438,956.1719 Z "/><text fill="#000000" font-family="sans-serif" font-size="12" lengthAdjust="spacingAndGlyphs" textLength="79" x="116.5" y="964.6543">SplashRouter</text><line style="stroke: #A80036; stroke-width: 1.5;" x1="88.5" x2="197.5" y1="976.5" y2="976.5"/><line style="stroke: #A80036; stroke-width: 1.5;" x1="88.5" x2="197.5" y1="984.5" y2="984.5"/><!--MD5=[98be9855ea0a707efae9dc86ae1ce548]
class app.splash.entity.UpdatePhotoRequest--><rect codeLine="20" fill="#FEFECE" filter="url(#fkim027ptfbva)" height="112.0234" id="app.splash.entity.UpdatePhotoRequest" style="stroke: #A80036; stroke-width: 1.5;" width="158" x="64" y="92"/><ellipse cx="79" cy="108" fill="#EB937F" rx="11" ry="11" style="stroke: #A80036; stroke-width: 1.0;"/><path d="M77.7969,108.875 L79.25,108.875 L79.25,108.9844 C79.25,109.3906 79.2813,109.5469 79.3594,109.7031 C79.5156,109.9531 79.7969,110.1094 80.0938,110.1094 C80.3438,110.1094 80.6094,109.9688 80.7656,109.75 C80.8906,109.5938 80.9219,109.4375 80.9219,108.9844 L80.9219,107.0625 C80.9219,106.9063 80.9219,106.8594 80.9063,106.7031 C80.8438,106.2344 80.5313,105.9219 80.0781,105.9219 C79.8281,105.9219 79.5625,106.0625 79.3906,106.2813 C79.2813,106.4531 79.25,106.6094 79.25,107.0625 L79.25,107.1875 L77.7969,107.1875 L77.7969,104.7813 L81.7813,104.7813 L81.7813,105.6406 C81.7813,106.0469 81.8125,106.2188 81.8906,106.375 C82.0625,106.625 82.3438,106.7813 82.625,106.7813 C82.8906,106.7813 83.1563,106.6406 83.3281,106.4219 C83.4375,106.25 83.4688,106.1094 83.4688,105.6406 L83.4688,103.0938 L75.8438,103.0938 C75.4063,103.0938 75.2813,103.1094 75.125,103.2031 C74.875,103.3594 74.7188,103.6563 74.7188,103.9375 C74.7188,104.2188 74.8594,104.4688 75.0781,104.6406 C75.2344,104.75 75.4219,104.7813 75.8438,104.7813 L76.0938,104.7813 L76.0938,111.2969 L75.8438,111.2969 C75.4375,111.2969 75.2813,111.3125 75.125,111.4219 C74.875,111.5938 74.7188,111.8594 74.7188,112.1563 C74.7188,112.4219 74.8594,112.6719 75.0781,112.8281 C75.2188,112.9531 75.4531,113 75.8438,113 L83.8438,113 L83.8438,110.4219 C83.8438,109.9844 83.8125,109.8438 83.7344,109.6875 C83.5625,109.4375 83.2813,109.2813 83,109.2813 C82.7344,109.2813 82.4688,109.3906 82.2969,109.6406 C82.1875,109.7969 82.1563,109.9375 82.1563,110.4219 L82.1563,111.2969 L77.7969,111.2969 L77.7969,108.875 Z "/><text fill="#000000" font-family="sans-serif" font-size="12" lengthAdjust="spacingAndGlyphs" textLength="126" x="93" y="112.1543">UpdatePhotoRequest</text><line style="stroke: #A80036; stroke-width: 1.5;" x1="65" x2="221" y1="124" y2="124"/><text fill="#000000" font-family="sans-serif" font-size="11" lengthAdjust="spacingAndGlyphs" textLength="46" x="70" y="138.2104">SKIPPED</text><text fill="#000000" font-family="sans-serif" font-size="11" lengthAdjust="spacingAndGlyphs" textLength="88" x="70" y="151.0151">SELECT_ALBUM</text><text fill="#000000" font-family="sans-serif" font-size="11" lengthAdjust="spacingAndGlyphs" textLength="122" x="70" y="163.8198">DOWNLOAD_PHOTOS</text><text fill="#000000" font-family="sans-serif" font-size="11" lengthAdjust="spacingAndGlyphs" textLength="68" x="70" y="176.6245">COMPLETED</text><text fill="#000000" font-family="sans-serif" font-size="11" lengthAdjust="spacingAndGlyphs" textLength="51" x="70" y="189.4292">UNKOWN</text><line style="stroke: #A80036; stroke-width: 1.5;" x1="65" x2="221" y1="196.0234" y2="196.0234"/><!--MD5=[f1030a3ad301bef10eebe25566e96449]
class app.splash.contract.SplashContract.Presenter--><rect codeLine="33" fill="#FEFECE" filter="url(#fkim027ptfbva)" height="86.4141" id="app.splash.contract.SplashContract.Presenter" style="stroke: #A80036; stroke-width: 1.5;" width="425" x="350.5" y="455"/><ellipse cx="530.25" cy="471" fill="#B4A7E5" rx="11" ry="11" style="stroke: #A80036; stroke-width: 1.0;"/><path d="M531.2031,467.7813 L532.9219,467.7813 C533.3125,467.7813 533.5,467.75 533.625,467.6719 C533.8906,467.5156 534.0313,467.2344 534.0313,466.9375 C534.0313,466.6719 533.9219,466.4063 533.6875,466.2344 C533.5156,466.125 533.375,466.0938 532.9219,466.0938 L527.7813,466.0938 C527.3438,466.0938 527.2188,466.1094 527.0625,466.2031 C526.8125,466.3594 526.6563,466.6563 526.6563,466.9375 C526.6563,467.2188 526.7969,467.4688 527.0156,467.6406 C527.1719,467.75 527.3594,467.7813 527.7813,467.7813 L529.5,467.7813 L529.5,474.2969 L527.7813,474.2969 C527.3438,474.2969 527.2188,474.3125 527.0625,474.4219 C526.8125,474.5781 526.6563,474.8594 526.6563,475.1563 C526.6563,475.4063 526.7969,475.6719 527.0156,475.8281 C527.1719,475.9531 527.375,476 527.7813,476 L532.9219,476 C533.6719,476 534.0313,475.7188 534.0313,475.1563 C534.0313,474.875 533.9219,474.625 533.6875,474.4531 C533.5156,474.3281 533.375,474.2969 532.9219,474.2969 L531.2031,474.2969 L531.2031,467.7813 Z "/><text fill="#000000" font-family="sans-serif" font-size="12" font-style="italic" lengthAdjust="spacingAndGlyphs" textLength="57" x="550.75" y="475.1543">Presenter</text><line style="stroke: #A80036; stroke-width: 1.5;" x1="351.5" x2="774.5" y1="487" y2="487"/><line style="stroke: #A80036; stroke-width: 1.5;" x1="351.5" x2="774.5" y1="495" y2="495"/><ellipse cx="361.5" cy="506" fill="#84BE84" rx="3" ry="3" style="stroke: #038048; stroke-width: 1.0;"/><text fill="#000000" font-family="sans-serif" font-size="11" lengthAdjust="spacingAndGlyphs" textLength="173" x="370.5" y="509.2104">requestLoadDisplayedPhotos()</text><ellipse cx="361.5" cy="518.8047" fill="#84BE84" rx="3" ry="3" style="stroke: #038048; stroke-width: 1.0;"/><text fill="#000000" font-family="sans-serif" font-size="11" lengthAdjust="spacingAndGlyphs" textLength="187" x="370.5" y="522.0151">requestUpdateDisplayedPhotos()</text><ellipse cx="361.5" cy="531.6094" fill="#84BE84" rx="3" ry="3" style="stroke: #038048; stroke-width: 1.0;"/><text fill="#000000" font-family="sans-serif" font-size="11" lengthAdjust="spacingAndGlyphs" textLength="399" x="370.5" y="534.8198">evaluateActivityResult(requestCode: Int, resultCode: Int, data: Intent?)</text><!--MD5=[55d1f437f05628c5e786be7f055fc3c8]
class app.splash.contract.SplashContract.Interactor--><rect codeLine="42" fill="#FEFECE" filter="url(#fkim027ptfbva)" height="112.0234" id="app.splash.contract.SplashContract.Interactor" style="stroke: #A80036; stroke-width: 1.5;" width="221" x="433.5" y="765"/><ellipse cx="509.75" cy="781" fill="#B4A7E5" rx="11" ry="11" style="stroke: #A80036; stroke-width: 1.0;"/><path d="M510.7031,777.7813 L512.4219,777.7813 C512.8125,777.7813 513,777.75 513.125,777.6719 C513.3906,777.5156 513.5313,777.2344 513.5313,776.9375 C513.5313,776.6719 513.4219,776.4063 513.1875,776.2344 C513.0156,776.125 512.875,776.0938 512.4219,776.0938 L507.2813,776.0938 C506.8438,776.0938 506.7188,776.1094 506.5625,776.2031 C506.3125,776.3594 506.1563,776.6563 506.1563,776.9375 C506.1563,777.2188 506.2969,777.4688 506.5156,777.6406 C506.6719,777.75 506.8594,777.7813 507.2813,777.7813 L509,777.7813 L509,784.2969 L507.2813,784.2969 C506.8438,784.2969 506.7188,784.3125 506.5625,784.4219 C506.3125,784.5781 506.1563,784.8594 506.1563,785.1563 C506.1563,785.4063 506.2969,785.6719 506.5156,785.8281 C506.6719,785.9531 506.875,786 507.2813,786 L512.4219,786 C513.1719,786 513.5313,785.7188 513.5313,785.1563 C513.5313,784.875 513.4219,784.625 513.1875,784.4531 C513.0156,784.3281 512.875,784.2969 512.4219,784.2969 L510.7031,784.2969 L510.7031,777.7813 Z "/><text fill="#000000" font-family="sans-serif" font-size="12" font-style="italic" lengthAdjust="spacingAndGlyphs" textLength="60" x="530.25" y="785.1543">Interactor</text><line style="stroke: #A80036; stroke-width: 1.5;" x1="434.5" x2="653.5" y1="797" y2="797"/><line style="stroke: #A80036; stroke-width: 1.5;" x1="434.5" x2="653.5" y1="805" y2="805"/><ellipse cx="444.5" cy="816" fill="#84BE84" rx="3" ry="3" style="stroke: #038048; stroke-width: 1.0;"/><text fill="#000000" font-family="sans-serif" font-size="11" lengthAdjust="spacingAndGlyphs" textLength="173" x="453.5" y="819.2104">requestLoadDisplayedPhotos()</text><ellipse cx="444.5" cy="828.8047" fill="#84BE84" rx="3" ry="3" style="stroke: #038048; stroke-width: 1.0;"/><text fill="#000000" font-family="sans-serif" font-size="11" lengthAdjust="spacingAndGlyphs" textLength="187" x="453.5" y="832.0151">requestUpdateSelectedAlbums()</text><ellipse cx="444.5" cy="841.6094" fill="#84BE84" rx="3" ry="3" style="stroke: #038048; stroke-width: 1.0;"/><text fill="#000000" font-family="sans-serif" font-size="11" lengthAdjust="spacingAndGlyphs" textLength="145" x="453.5" y="844.8198">requestDownloadPhotos()</text><ellipse cx="444.5" cy="854.4141" fill="#84BE84" rx="3" ry="3" style="stroke: #038048; stroke-width: 1.0;"/><text fill="#000000" font-family="sans-serif" font-size="11" lengthAdjust="spacingAndGlyphs" textLength="195" x="453.5" y="857.6245">isNeededUpdatePhotos(): Boolean</text><ellipse cx="444.5" cy="867.2188" fill="#84BE84" rx="3" ry="3" style="stroke: #038048; stroke-width: 1.0;"/><text fill="#000000" font-family="sans-serif" font-size="11" lengthAdjust="spacingAndGlyphs" textLength="170" x="453.5" y="870.4292">hasSelectedAlbum(): Boolean</text><!--MD5=[c4d7be2f8fc2ddbc79709a65a0a31b45]
class app.splash.contract.SplashContract.Router--><rect codeLine="54" fill="#FEFECE" filter="url(#fkim027ptfbva)" height="60.8047" id="app.splash.contract.SplashContract.Router" style="stroke: #A80036; stroke-width: 1.5;" width="228" x="430" y="938"/><ellipse cx="519.75" cy="954" fill="#B4A7E5" rx="11" ry="11" style="stroke: #A80036; stroke-width: 1.0;"/><path d="M520.7031,950.7813 L522.4219,950.7813 C522.8125,950.7813 523,950.75 523.125,950.6719 C523.3906,950.5156 523.5313,950.2344 523.5313,949.9375 C523.5313,949.6719 523.4219,949.4063 523.1875,949.2344 C523.0156,949.125 522.875,949.0938 522.4219,949.0938 L517.2813,949.0938 C516.8438,949.0938 516.7188,949.1094 516.5625,949.2031 C516.3125,949.3594 516.1563,949.6563 516.1563,949.9375 C516.1563,950.2188 516.2969,950.4688 516.5156,950.6406 C516.6719,950.75 516.8594,950.7813 517.2813,950.7813 L519,950.7813 L519,957.2969 L517.2813,957.2969 C516.8438,957.2969 516.7188,957.3125 516.5625,957.4219 C516.3125,957.5781 516.1563,957.8594 516.1563,958.1563 C516.1563,958.4063 516.2969,958.6719 516.5156,958.8281 C516.6719,958.9531 516.875,959 517.2813,959 L522.4219,959 C523.1719,959 523.5313,958.7188 523.5313,958.1563 C523.5313,957.875 523.4219,957.625 523.1875,957.4531 C523.0156,957.3281 522.875,957.2969 522.4219,957.2969 L520.7031,957.2969 L520.7031,950.7813 Z "/><text fill="#000000" font-family="sans-serif" font-size="12" font-style="italic" lengthAdjust="spacingAndGlyphs" textLength="40" x="540.25" y="958.1543">Router</text><line style="stroke: #A80036; stroke-width: 1.5;" x1="431" x2="657" y1="970" y2="970"/><line style="stroke: #A80036; stroke-width: 1.5;" x1="431" x2="657" y1="978" y2="978"/><ellipse cx="441" cy="989" fill="#84BE84" rx="3" ry="3" style="stroke: #038048; stroke-width: 1.0;"/><text fill="#000000" font-family="sans-serif" font-size="11" lengthAdjust="spacingAndGlyphs" textLength="202" x="450" y="992.2104">startSelectActivity(activity: Activity)</text><!--MD5=[3c473f5619a54f75a0edff63b827d9bf]
class app.splash.contract.SplashContract.PresenterCallback--><rect codeLine="38" fill="#FEFECE" filter="url(#fkim027ptfbva)" height="73.6094" id="app.splash.contract.SplashContract.PresenterCallback" style="stroke: #A80036; stroke-width: 1.5;" width="248" x="380" y="304"/><ellipse cx="446.25" cy="320" fill="#B4A7E5" rx="11" ry="11" style="stroke: #A80036; stroke-width: 1.0;"/><path d="M447.2031,316.7813 L448.9219,316.7813 C449.3125,316.7813 449.5,316.75 449.625,316.6719 C449.8906,316.5156 450.0313,316.2344 450.0313,315.9375 C450.0313,315.6719 449.9219,315.4063 449.6875,315.2344 C449.5156,315.125 449.375,315.0938 448.9219,315.0938 L443.7813,315.0938 C443.3438,315.0938 443.2188,315.1094 443.0625,315.2031 C442.8125,315.3594 442.6563,315.6563 442.6563,315.9375 C442.6563,316.2188 442.7969,316.4688 443.0156,316.6406 C443.1719,316.75 443.3594,316.7813 443.7813,316.7813 L445.5,316.7813 L445.5,323.2969 L443.7813,323.2969 C443.3438,323.2969 443.2188,323.3125 443.0625,323.4219 C442.8125,323.5781 442.6563,323.8594 442.6563,324.1563 C442.6563,324.4063 442.7969,324.6719 443.0156,324.8281 C443.1719,324.9531 443.375,325 443.7813,325 L448.9219,325 C449.6719,325 450.0313,324.7188 450.0313,324.1563 C450.0313,323.875 449.9219,323.625 449.6875,323.4531 C449.5156,323.3281 449.375,323.2969 448.9219,323.2969 L447.2031,323.2969 L447.2031,316.7813 Z "/><text fill="#000000" font-family="sans-serif" font-size="12" font-style="italic" lengthAdjust="spacingAndGlyphs" textLength="107" x="466.75" y="324.1543">PresenterCallback</text><line style="stroke: #A80036; stroke-width: 1.5;" x1="381" x2="627" y1="336" y2="336"/><line style="stroke: #A80036; stroke-width: 1.5;" x1="381" x2="627" y1="344" y2="344"/><ellipse cx="391" cy="355" fill="#84BE84" rx="3" ry="3" style="stroke: #038048; stroke-width: 1.0;"/><text fill="#000000" font-family="sans-serif" font-size="11" lengthAdjust="spacingAndGlyphs" textLength="208" x="400" y="358.2104">requestLoadDisplayedPhotosResult()</text><ellipse cx="391" cy="367.8047" fill="#84BE84" rx="3" ry="3" style="stroke: #038048; stroke-width: 1.0;"/><text fill="#000000" font-family="sans-serif" font-size="11" lengthAdjust="spacingAndGlyphs" textLength="222" x="400" y="371.0151">requestUpdateDisplayedPhotosResult()</text><!--MD5=[bd8f5a99360b29d1d7282380101cd4bb]
class app.splash.contract.SplashContract.InteractorCallback--><rect codeLine="49" fill="#FEFECE" filter="url(#fkim027ptfbva)" height="86.4141" id="app.splash.contract.SplashContract.InteractorCallback" style="stroke: #A80036; stroke-width: 1.5;" width="376" x="356" y="602"/><ellipse cx="484.75" cy="618" fill="#B4A7E5" rx="11" ry="11" style="stroke: #A80036; stroke-width: 1.0;"/><path d="M485.7031,614.7813 L487.4219,614.7813 C487.8125,614.7813 488,614.75 488.125,614.6719 C488.3906,614.5156 488.5313,614.2344 488.5313,613.9375 C488.5313,613.6719 488.4219,613.4063 488.1875,613.2344 C488.0156,613.125 487.875,613.0938 487.4219,613.0938 L482.2813,613.0938 C481.8438,613.0938 481.7188,613.1094 481.5625,613.2031 C481.3125,613.3594 481.1563,613.6563 481.1563,613.9375 C481.1563,614.2188 481.2969,614.4688 481.5156,614.6406 C481.6719,614.75 481.8594,614.7813 482.2813,614.7813 L484,614.7813 L484,621.2969 L482.2813,621.2969 C481.8438,621.2969 481.7188,621.3125 481.5625,621.4219 C481.3125,621.5781 481.1563,621.8594 481.1563,622.1563 C481.1563,622.4063 481.2969,622.6719 481.5156,622.8281 C481.6719,622.9531 481.875,623 482.2813,623 L487.4219,623 C488.1719,623 488.5313,622.7188 488.5313,622.1563 C488.5313,621.875 488.4219,621.625 488.1875,621.4531 C488.0156,621.3281 487.875,621.2969 487.4219,621.2969 L485.7031,621.2969 L485.7031,614.7813 Z "/><text fill="#000000" font-family="sans-serif" font-size="12" font-style="italic" lengthAdjust="spacingAndGlyphs" textLength="110" x="505.25" y="622.1543">InteractorCallback</text><line style="stroke: #A80036; stroke-width: 1.5;" x1="357" x2="731" y1="634" y2="634"/><line style="stroke: #A80036; stroke-width: 1.5;" x1="357" x2="731" y1="642" y2="642"/><ellipse cx="367" cy="653" fill="#84BE84" rx="3" ry="3" style="stroke: #038048; stroke-width: 1.0;"/><text fill="#000000" font-family="sans-serif" font-size="11" lengthAdjust="spacingAndGlyphs" textLength="336" x="376" y="656.2104">requestLoadDisplayedPhotosResult(isSucceeded: Boolean)</text><ellipse cx="367" cy="665.8047" fill="#84BE84" rx="3" ry="3" style="stroke: #038048; stroke-width: 1.0;"/><text fill="#000000" font-family="sans-serif" font-size="11" lengthAdjust="spacingAndGlyphs" textLength="350" x="376" y="669.0151">requestUpdateSelectedAlbumsResult(isSucceeded: Boolean)</text><ellipse cx="367" cy="678.6094" fill="#84BE84" rx="3" ry="3" style="stroke: #038048; stroke-width: 1.0;"/><text fill="#000000" font-family="sans-serif" font-size="11" lengthAdjust="spacingAndGlyphs" textLength="308" x="376" y="681.8198">requestDownloadPhotosResult(isSucceeded: Boolean)</text><!--MD5=[a73abe5de16d4ae8f7cebc11a3c6e1fe]
class core.viper.ViperContract.Presenter--><rect codeLine="73" fill="#FEFECE" filter="url(#fkim027ptfbva)" height="73.6094" id="core.viper.ViperContract.Presenter" style="stroke: #A80036; stroke-width: 1.5;" width="225" x="848.5" y="461"/><ellipse cx="928.25" cy="477" fill="#B4A7E5" rx="11" ry="11" style="stroke: #A80036; stroke-width: 1.0;"/><path d="M929.2031,473.7813 L930.9219,473.7813 C931.3125,473.7813 931.5,473.75 931.625,473.6719 C931.8906,473.5156 932.0313,473.2344 932.0313,472.9375 C932.0313,472.6719 931.9219,472.4063 931.6875,472.2344 C931.5156,472.125 931.375,472.0938 930.9219,472.0938 L925.7813,472.0938 C925.3438,472.0938 925.2188,472.1094 925.0625,472.2031 C924.8125,472.3594 924.6563,472.6563 924.6563,472.9375 C924.6563,473.2188 924.7969,473.4688 925.0156,473.6406 C925.1719,473.75 925.3594,473.7813 925.7813,473.7813 L927.5,473.7813 L927.5,480.2969 L925.7813,480.2969 C925.3438,480.2969 925.2188,480.3125 925.0625,480.4219 C924.8125,480.5781 924.6563,480.8594 924.6563,481.1563 C924.6563,481.4063 924.7969,481.6719 925.0156,481.8281 C925.1719,481.9531 925.375,482 925.7813,482 L930.9219,482 C931.6719,482 932.0313,481.7188 932.0313,481.1563 C932.0313,480.875 931.9219,480.625 931.6875,480.4531 C931.5156,480.3281 931.375,480.2969 930.9219,480.2969 L929.2031,480.2969 L929.2031,473.7813 Z "/><text fill="#000000" font-family="sans-serif" font-size="12" font-style="italic" lengthAdjust="spacingAndGlyphs" textLength="57" x="948.75" y="481.1543">Presenter</text><line style="stroke: #A80036; stroke-width: 1.5;" x1="849.5" x2="1072.5" y1="493" y2="493"/><line style="stroke: #A80036; stroke-width: 1.5;" x1="849.5" x2="1072.5" y1="501" y2="501"/><ellipse cx="859.5" cy="512" fill="#84BE84" rx="3" ry="3" style="stroke: #038048; stroke-width: 1.0;"/><text fill="#000000" font-family="sans-serif" font-size="11" lengthAdjust="spacingAndGlyphs" textLength="199" x="868.5" y="515.2104">create(callback: PresenterCallback)</text><ellipse cx="859.5" cy="524.8047" fill="#84BE84" rx="3" ry="3" style="stroke: #038048; stroke-width: 1.0;"/><text fill="#000000" font-family="sans-serif" font-size="11" lengthAdjust="spacingAndGlyphs" textLength="51" x="868.5" y="528.0151">destroy()</text><!--MD5=[587da1590874ac044f3f2eaaedd1375f]
class core.viper.ViperContract.PresenterCallback--><rect codeLine="77" fill="#FEFECE" filter="url(#fkim027ptfbva)" height="60.8047" id="core.viper.ViperContract.PresenterCallback" style="stroke: #A80036; stroke-width: 1.5;" width="144" x="868" y="310.5"/><ellipse cx="885.25" cy="326.5" fill="#B4A7E5" rx="11" ry="11" style="stroke: #A80036; stroke-width: 1.0;"/><path d="M886.2031,323.2813 L887.9219,323.2813 C888.3125,323.2813 888.5,323.25 888.625,323.1719 C888.8906,323.0156 889.0313,322.7344 889.0313,322.4375 C889.0313,322.1719 888.9219,321.9063 888.6875,321.7344 C888.5156,321.625 888.375,321.5938 887.9219,321.5938 L882.7813,321.5938 C882.3438,321.5938 882.2188,321.6094 882.0625,321.7031 C881.8125,321.8594 881.6563,322.1563 881.6563,322.4375 C881.6563,322.7188 881.7969,322.9688 882.0156,323.1406 C882.1719,323.25 882.3594,323.2813 882.7813,323.2813 L884.5,323.2813 L884.5,329.7969 L882.7813,329.7969 C882.3438,329.7969 882.2188,329.8125 882.0625,329.9219 C881.8125,330.0781 881.6563,330.3594 881.6563,330.6563 C881.6563,330.9063 881.7969,331.1719 882.0156,331.3281 C882.1719,331.4531 882.375,331.5 882.7813,331.5 L887.9219,331.5 C888.6719,331.5 889.0313,331.2188 889.0313,330.6563 C889.0313,330.375 888.9219,330.125 888.6875,329.9531 C888.5156,329.8281 888.375,329.7969 887.9219,329.7969 L886.2031,329.7969 L886.2031,323.2813 Z "/><text fill="#000000" font-family="sans-serif" font-size="12" font-style="italic" lengthAdjust="spacingAndGlyphs" textLength="107" x="899.75" y="330.6543">PresenterCallback</text><line style="stroke: #A80036; stroke-width: 1.5;" x1="869" x2="1011" y1="342.5" y2="342.5"/><line style="stroke: #A80036; stroke-width: 1.5;" x1="869" x2="1011" y1="350.5" y2="350.5"/><ellipse cx="879" cy="361.5" fill="#84BE84" rx="3" ry="3" style="stroke: #038048; stroke-width: 1.0;"/><text fill="#000000" font-family="sans-serif" font-size="11" lengthAdjust="spacingAndGlyphs" textLength="118" x="888" y="364.7104">getActivity(): Activity</text><!--MD5=[ec1a8c1a0905d2094598a56ebb97c9ab]
class core.viper.ViperContract.Interactor--><rect codeLine="80" fill="#FEFECE" filter="url(#fkim027ptfbva)" height="73.6094" id="core.viper.ViperContract.Interactor" style="stroke: #A80036; stroke-width: 1.5;" width="224" x="848" y="784"/><ellipse cx="925.75" cy="800" fill="#B4A7E5" rx="11" ry="11" style="stroke: #A80036; stroke-width: 1.0;"/><path d="M926.7031,796.7813 L928.4219,796.7813 C928.8125,796.7813 929,796.75 929.125,796.6719 C929.3906,796.5156 929.5313,796.2344 929.5313,795.9375 C929.5313,795.6719 929.4219,795.4063 929.1875,795.2344 C929.0156,795.125 928.875,795.0938 928.4219,795.0938 L923.2813,795.0938 C922.8438,795.0938 922.7188,795.1094 922.5625,795.2031 C922.3125,795.3594 922.1563,795.6563 922.1563,795.9375 C922.1563,796.2188 922.2969,796.4688 922.5156,796.6406 C922.6719,796.75 922.8594,796.7813 923.2813,796.7813 L925,796.7813 L925,803.2969 L923.2813,803.2969 C922.8438,803.2969 922.7188,803.3125 922.5625,803.4219 C922.3125,803.5781 922.1563,803.8594 922.1563,804.1563 C922.1563,804.4063 922.2969,804.6719 922.5156,804.8281 C922.6719,804.9531 922.875,805 923.2813,805 L928.4219,805 C929.1719,805 929.5313,804.7188 929.5313,804.1563 C929.5313,803.875 929.4219,803.625 929.1875,803.4531 C929.0156,803.3281 928.875,803.2969 928.4219,803.2969 L926.7031,803.2969 L926.7031,796.7813 Z "/><text fill="#000000" font-family="sans-serif" font-size="12" font-style="italic" lengthAdjust="spacingAndGlyphs" textLength="60" x="946.25" y="804.1543">Interactor</text><line style="stroke: #A80036; stroke-width: 1.5;" x1="849" x2="1071" y1="816" y2="816"/><line style="stroke: #A80036; stroke-width: 1.5;" x1="849" x2="1071" y1="824" y2="824"/><ellipse cx="859" cy="835" fill="#84BE84" rx="3" ry="3" style="stroke: #038048; stroke-width: 1.0;"/><text fill="#000000" font-family="sans-serif" font-size="11" lengthAdjust="spacingAndGlyphs" textLength="198" x="868" y="838.2104">create(callback: InteractorCallback)</text><ellipse cx="859" cy="847.8047" fill="#84BE84" rx="3" ry="3" style="stroke: #038048; stroke-width: 1.0;"/><text fill="#000000" font-family="sans-serif" font-size="11" lengthAdjust="spacingAndGlyphs" textLength="51" x="868" y="851.0151">destroy()</text><!--MD5=[e77a630e059dc31e4db28b962d60c6d2]
class core.viper.ViperContract.InteractorCallback--><rect codeLine="84" fill="#FEFECE" filter="url(#fkim027ptfbva)" height="48" id="core.viper.ViperContract.InteractorCallback" style="stroke: #A80036; stroke-width: 1.5;" width="142" x="889" y="621"/><ellipse cx="904" cy="637" fill="#B4A7E5" rx="11" ry="11" style="stroke: #A80036; stroke-width: 1.0;"/><path d="M904.9531,633.7813 L906.6719,633.7813 C907.0625,633.7813 907.25,633.75 907.375,633.6719 C907.6406,633.5156 907.7813,633.2344 907.7813,632.9375 C907.7813,632.6719 907.6719,632.4063 907.4375,632.2344 C907.2656,632.125 907.125,632.0938 906.6719,632.0938 L901.5313,632.0938 C901.0938,632.0938 900.9688,632.1094 900.8125,632.2031 C900.5625,632.3594 900.4063,632.6563 900.4063,632.9375 C900.4063,633.2188 900.5469,633.4688 900.7656,633.6406 C900.9219,633.75 901.1094,633.7813 901.5313,633.7813 L903.25,633.7813 L903.25,640.2969 L901.5313,640.2969 C901.0938,640.2969 900.9688,640.3125 900.8125,640.4219 C900.5625,640.5781 900.4063,640.8594 900.4063,641.1563 C900.4063,641.4063 900.5469,641.6719 900.7656,641.8281 C900.9219,641.9531 901.125,642 901.5313,642 L906.6719,642 C907.4219,642 907.7813,641.7188 907.7813,641.1563 C907.7813,640.875 907.6719,640.625 907.4375,640.4531 C907.2656,640.3281 907.125,640.2969 906.6719,640.2969 L904.9531,640.2969 L904.9531,633.7813 Z "/><text fill="#000000" font-family="sans-serif" font-size="12" font-style="italic" lengthAdjust="spacingAndGlyphs" textLength="110" x="918" y="641.1543">InteractorCallback</text><line style="stroke: #A80036; stroke-width: 1.5;" x1="890" x2="1030" y1="653" y2="653"/><line style="stroke: #A80036; stroke-width: 1.5;" x1="890" x2="1030" y1="661" y2="661"/><!--MD5=[1825269ddad9ed22789ebb49bf96ca62]
class core.viper.ViperContract.Router--><rect codeLine="85" fill="#FEFECE" filter="url(#fkim027ptfbva)" height="48" id="core.viper.ViperContract.Router" style="stroke: #A80036; stroke-width: 1.5;" width="72" x="867" y="944.5"/><ellipse cx="882" cy="960.5" fill="#B4A7E5" rx="11" ry="11" style="stroke: #A80036; stroke-width: 1.0;"/><path d="M882.9531,957.2813 L884.6719,957.2813 C885.0625,957.2813 885.25,957.25 885.375,957.1719 C885.6406,957.0156 885.7813,956.7344 885.7813,956.4375 C885.7813,956.1719 885.6719,955.9063 885.4375,955.7344 C885.2656,955.625 885.125,955.5938 884.6719,955.5938 L879.5313,955.5938 C879.0938,955.5938 878.9688,955.6094 878.8125,955.7031 C878.5625,955.8594 878.4063,956.1563 878.4063,956.4375 C878.4063,956.7188 878.5469,956.9688 878.7656,957.1406 C878.9219,957.25 879.1094,957.2813 879.5313,957.2813 L881.25,957.2813 L881.25,963.7969 L879.5313,963.7969 C879.0938,963.7969 878.9688,963.8125 878.8125,963.9219 C878.5625,964.0781 878.4063,964.3594 878.4063,964.6563 C878.4063,964.9063 878.5469,965.1719 878.7656,965.3281 C878.9219,965.4531 879.125,965.5 879.5313,965.5 L884.6719,965.5 C885.4219,965.5 885.7813,965.2188 885.7813,964.6563 C885.7813,964.375 885.6719,964.125 885.4375,963.9531 C885.2656,963.8281 885.125,963.7969 884.6719,963.7969 L882.9531,963.7969 L882.9531,957.2813 Z "/><text fill="#000000" font-family="sans-serif" font-size="12" font-style="italic" lengthAdjust="spacingAndGlyphs" textLength="40" x="896" y="964.6543">Router</text><line style="stroke: #A80036; stroke-width: 1.5;" x1="868" x2="938" y1="976.5" y2="976.5"/><line style="stroke: #A80036; stroke-width: 1.5;" x1="868" x2="938" y1="984.5" y2="984.5"/><!--MD5=[d1b14fe910d579f1dd339fb4a231de99]
reverse link app.splash.SplashActivity to app.splash.SplashPresenter--><path codeLine="2" d="M171.405,378.285 C172.548,407.825 174.128,448.63 175.105,473.89 " fill="none" id="app.splash.SplashActivity&lt;-app.splash.SplashPresenter" style="stroke: #A80036; stroke-width: 1.0;"/><polygon fill="#FFFFFF" points="170.898,365.205,167.1331,371.3552,171.3622,377.196,175.1271,371.0458,170.898,365.205" style="stroke: #A80036; stroke-width: 1.0;"/><rect fill="none" height="6" style="stroke: #C82930; stroke-width: 1.0;" width="6" x="177" y="414.0664"/><text fill="#000000" font-family="sans-serif" font-size="13" lengthAdjust="spacingAndGlyphs" textLength="62" x="187" y="421.0669">presenter</text><!--MD5=[f91676235e457bf53bba641bc0a61a35]
reverse link app.splash.SplashPresenter to app.splash.SplashInteractor--><path codeLine="3" d="M176.562,535.084 C177.596,601.487 179.774,741.306 180.637,796.692 " fill="none" id="app.splash.SplashPresenter&lt;-app.splash.SplashInteractor" style="stroke: #A80036; stroke-width: 1.0;"/><polygon fill="#FFFFFF" points="176.36,522.086,172.4541,528.1477,176.5473,534.0845,180.4531,528.0229,176.36,522.086" style="stroke: #A80036; stroke-width: 1.0;"/><rect fill="none" height="6" style="stroke: #C82930; stroke-width: 1.0;" width="6" x="182" y="642.5664"/><text fill="#000000" font-family="sans-serif" font-size="13" lengthAdjust="spacingAndGlyphs" textLength="62" x="192" y="649.5669">interactor</text><!--MD5=[f6d4c8b2b3fb2120ac8d0b5658ad082d]
reverse link app.splash.SplashPresenter to app.splash.SplashRouter--><path codeLine="4" d="M158.581,533.964 C127.524,600.833 68.4897,751.371 98,877 C103.738,901.427 117.107,926.803 127.791,944.446 " fill="none" id="app.splash.SplashPresenter&lt;-app.splash.SplashRouter" style="stroke: #A80036; stroke-width: 1.0;"/><polygon fill="#FFFFFF" points="164.206,522.107,158.02,525.8129,159.0616,532.9484,165.2476,529.2425,164.206,522.107" style="stroke: #A80036; stroke-width: 1.0;"/><rect fill="none" height="6" style="stroke: #C82930; stroke-width: 1.0;" width="6" x="101" y="724.0664"/><text fill="#000000" font-family="sans-serif" font-size="13" lengthAdjust="spacingAndGlyphs" textLength="39" x="111" y="731.0669">router</text><!--MD5=[4a3fa21c44f6d76d85a5cbf9aed1c6f4]
link app.splash.SplashPresenter to app.splash.contract.SplashContract.Presenter--><path codeLine="6" d="M241.004,498 C270.783,498 300.563,498 330.342,498 " fill="none" id="app.splash.SplashPresenter-&gt;app.splash.contract.SplashContract.Presenter" style="stroke: #A80036; stroke-width: 1.0; stroke-dasharray: 7.0,7.0;"/><polygon fill="none" points="330.432,491,350.432,498,330.432,505,330.432,491" style="stroke: #A80036; stroke-width: 1.0;"/><!--MD5=[89c9c81a6a5449b73b0f6e47e1c1018e]
link app.splash.contract.SplashContract.Presenter to app.splash.SplashPresenter--><!--MD5=[88f2c8acc0354bac6f3d02bb07be8272]
link app.splash.SplashInteractor to app.splash.contract.SplashContract.Interactor--><path codeLine="7" d="M246.227,821 C301.945,821 357.663,821 413.381,821 " fill="none" id="app.splash.SplashInteractor-&gt;app.splash.contract.SplashContract.Interactor" style="stroke: #A80036; stroke-width: 1.0; stroke-dasharray: 7.0,7.0;"/><polygon fill="none" points="413.498,814,433.498,821,413.498,828,413.498,814" style="stroke: #A80036; stroke-width: 1.0;"/><!--MD5=[23aba68c0758d8751b4b52e71a0879da]
link app.splash.contract.SplashContract.Interactor to app.splash.SplashInteractor--><!--MD5=[f3b453277492f0dfdc03350d28f6acee]
link app.splash.SplashRouter to app.splash.contract.SplashContract.Router--><path codeLine="8" d="M198.607,968.5 C268.957,968.5 339.307,968.5 409.657,968.5 " fill="none" id="app.splash.SplashRouter-&gt;app.splash.contract.SplashContract.Router" style="stroke: #A80036; stroke-width: 1.0; stroke-dasharray: 7.0,7.0;"/><polygon fill="none" points="409.993,961.4999,429.993,968.5,409.993,975.4999,409.993,961.4999" style="stroke: #A80036; stroke-width: 1.0;"/><!--MD5=[e26c28e3b4e72dbec67da16904f3d5ba]
link app.splash.contract.SplashContract.Router to app.splash.SplashRouter--><!--MD5=[63e12b800cfdf6b28eaf388d7f2a2de3]
link app.splash.SplashActivity to app.splash.contract.SplashContract.PresenterCallback--><path codeLine="10" d="M190.692,316.9 C223.748,281.474 291.585,221.109 358.5,236.5 C394.518,244.784 428.45,267.896 454.471,290.283 " fill="none" id="app.splash.SplashActivity-&gt;app.splash.contract.SplashContract.PresenterCallback" style="stroke: #A80036; stroke-width: 1.0; stroke-dasharray: 7.0,7.0;"/><polygon fill="none" points="459.477,285.374,469.598,303.99,450.077,295.748,459.477,285.374" style="stroke: #A80036; stroke-width: 1.0;"/><!--MD5=[8a9d7373beac840ed398afebcaa45f42]
reverse link app.splash.SplashPresenter to app.splash.contract.SplashContract.PresenterCallback--><path codeLine="11" d="M236.831,468.254 C290.653,442.82 369.436,405.59 427.513,378.145 " fill="none" id="app.splash.SplashPresenter&lt;-app.splash.contract.SplashContract.PresenterCallback" style="stroke: #A80036; stroke-width: 1.0;"/><polygon fill="#FFFFFF" points="225.068,473.813,232.2018,474.8661,235.9177,468.6862,228.7839,467.633,225.068,473.813" style="stroke: #A80036; stroke-width: 1.0;"/><rect fill="none" height="6" style="stroke: #C82930; stroke-width: 1.0;" width="6" x="363" y="414.0664"/><text fill="#000000" font-family="sans-serif" font-size="13" lengthAdjust="spacingAndGlyphs" textLength="51" x="373" y="421.0669">callback</text><!--MD5=[28576bd7b8dcbd86209090d56d5c73fa]
link app.splash.SplashPresenter to app.splash.contract.SplashContract.InteractorCallback--><path codeLine="12" d="M234.718,522.136 C284.002,541.555 356.125,569.973 418.328,594.482 " fill="none" id="app.splash.SplashPresenter-&gt;app.splash.contract.SplashContract.InteractorCallback" style="stroke: #A80036; stroke-width: 1.0; stroke-dasharray: 7.0,7.0;"/><polygon fill="none" points="421.236,588.104,437.277,601.949,416.103,601.13,421.236,588.104" style="stroke: #A80036; stroke-width: 1.0;"/><!--MD5=[752984750464c7ee6ba6018813c5518f]
reverse link app.splash.SplashInteractor to app.splash.contract.SplashContract.InteractorCallback--><path codeLine="13" d="M241.148,791.169 C299.758,763.075 389.524,720.046 456.128,688.121 " fill="none" id="app.splash.SplashInteractor&lt;-app.splash.contract.SplashContract.InteractorCallback" style="stroke: #A80036; stroke-width: 1.0;"/><polygon fill="#FFFFFF" points="229.133,796.928,236.2726,797.9412,239.9538,791.7405,232.8142,790.7273,229.133,796.928" style="stroke: #A80036; stroke-width: 1.0;"/><rect fill="none" height="6" style="stroke: #C82930; stroke-width: 1.0;" width="6" x="388" y="724.0664"/><text fill="#000000" font-family="sans-serif" font-size="13" lengthAdjust="spacingAndGlyphs" textLength="51" x="398" y="731.0669">callback</text><!--MD5=[820df43acf374481b3bdcead29b5dd71]
link app.splash.entity.UpdatePhotoRequest to app.splash.SplashActivity--><!--MD5=[60fbdfd0700c1e091e04aab4c680ae02]
link app.splash.contract.SplashContract.PresenterCallback to app.splash.contract.SplashContract.Presenter--><!--MD5=[b3bf049ce59d2595879a1fd8288beef5]
link app.splash.contract.SplashContract.Presenter to app.splash.contract.SplashContract.InteractorCallback--><!--MD5=[00b6d89bc9c196133b7cb6c7661407e9]
link app.splash.contract.SplashContract.InteractorCallback to app.splash.contract.SplashContract.Interactor--><!--MD5=[77b25775f01acfdb62435ac9d3d43dd8]
link app.splash.contract.SplashContract.Interactor to app.splash.contract.SplashContract.Router--><!--MD5=[2e06be8c3c75336d7d11f1a2914bd201]
link app.splash.contract.SplashContract.Presenter to core.viper.ViperContract.Presenter--><path codeLine="63" d="M775.604,498 C793.136,498 810.668,498 828.2,498 " fill="none" id="app.splash.contract.SplashContract.Presenter-&gt;core.viper.ViperContract.Presenter" style="stroke: #A80036; stroke-width: 1.0; stroke-dasharray: 7.0,7.0;"/><polygon fill="none" points="828.386,491,848.386,498,828.386,505,828.386,491" style="stroke: #A80036; stroke-width: 1.0;"/><!--MD5=[b2995618d5b21c8d3c2860a72f4dc93c]
link app.splash.contract.SplashContract.PresenterCallback to core.viper.ViperContract.PresenterCallback--><path codeLine="64" d="M628.328,341 C701.468,341 774.608,341 847.748,341 " fill="none" id="app.splash.contract.SplashContract.PresenterCallback-&gt;core.viper.ViperContract.PresenterCallback" style="stroke: #A80036; stroke-width: 1.0; stroke-dasharray: 7.0,7.0;"/><polygon fill="none" points="847.865,334,867.865,341,847.865,348,847.865,334" style="stroke: #A80036; stroke-width: 1.0;"/><!--MD5=[89165bf8658882d720ff072a5eccd2c7]
link app.splash.contract.SplashContract.Interactor to core.viper.ViperContract.Interactor--><path codeLine="65" d="M654.906,821 C712.474,821 770.043,821 827.611,821 " fill="none" id="app.splash.contract.SplashContract.Interactor-&gt;core.viper.ViperContract.Interactor" style="stroke: #A80036; stroke-width: 1.0; stroke-dasharray: 7.0,7.0;"/><polygon fill="none" points="827.973,814,847.973,821,827.973,828,827.973,814" style="stroke: #A80036; stroke-width: 1.0;"/><!--MD5=[786f0f25dfa8f76932e88831b62b0fa7]
link app.splash.contract.SplashContract.InteractorCallback to core.viper.ViperContract.InteractorCallback--><path codeLine="66" d="M732.094,645 C777.59,645 823.086,645 868.582,645 " fill="none" id="app.splash.contract.SplashContract.InteractorCallback-&gt;core.viper.ViperContract.InteractorCallback" style="stroke: #A80036; stroke-width: 1.0; stroke-dasharray: 7.0,7.0;"/><polygon fill="none" points="868.779,638,888.779,645,868.779,652,868.779,638" style="stroke: #A80036; stroke-width: 1.0;"/><!--MD5=[9cb584ed7fa3fabf5331b65e42323807]
link app.splash.contract.SplashContract.Router to core.viper.ViperContract.Router--><path codeLine="67" d="M658.291,968.5 C720.969,968.5 783.648,968.5 846.326,968.5 " fill="none" id="app.splash.contract.SplashContract.Router-&gt;core.viper.ViperContract.Router" style="stroke: #A80036; stroke-width: 1.0; stroke-dasharray: 7.0,7.0;"/><polygon fill="none" points="846.676,961.4999,866.676,968.5,846.676,975.4999,846.676,961.4999" style="stroke: #A80036; stroke-width: 1.0;"/><!--MD5=[627c911084275ce60a3872a5173c4f97]
reverse link app.splash to app.splash.contract.SplashContract--><path d="M278.0644,176.5043 C278.1415,176.7673 278.219,177.0316 278.2969,177.2974 C278.6086,178.3606 278.9269,179.4462 279.2514,180.5531 C284.4437,198.2627 291.2274,221.4002 298.0104,244.535 C304.7933,267.6697 311.5755,290.8017 316.7646,308.5004 C317.089,309.6066 317.4071,310.6915 317.7186,311.7539 C317.7964,312.0195 317.8739,312.2837 317.9509,312.5465 " fill="none" id="app.splash&lt;-app.splash.contract.SplashContract" style="stroke: #A80036; stroke-width: 1.0;"/><ellipse cx="280.3151" cy="184.1812" fill="#FFFFFF" rx="8" ry="8" style="stroke: #A80036; stroke-width: 1.0;"/><line style="stroke: #A80036; stroke-width: 1.0;" x1="282.5659" x2="278.0644" y1="191.858" y2="176.5043"/><line style="stroke: #A80036; stroke-width: 1.0;" x1="272.6383" x2="287.992" y1="186.432" y2="181.9304"/><!--MD5=[87f8738a1428cad8e95c20e665af5898]
link core.viper.ViperContract.PresenterCallback to core.viper.ViperContract.Presenter--><!--MD5=[6573e0256b6fb7c6a0505a89fdc8309d]
link core.viper.ViperContract.Presenter to core.viper.ViperContract.InteractorCallback--><!--MD5=[f8d939142a6dbc42db09fcc57fec4775]
link core.viper.ViperContract.InteractorCallback to core.viper.ViperContract.Interactor--><!--MD5=[37f12353853fdc756113b71d7b56ae43]
link core.viper.ViperContract.Interactor to core.viper.ViperContract.Router--><!--MD5=[52bbb19d7bee63bfc0fc565ca8770f21]
@startuml
namespace app.splash #FFFFEE {
  SplashActivity o- - SplashPresenter: -presenter
  SplashPresenter o- - - SplashInteractor: -interactor
  SplashPresenter o- - - - SplashRouter: -router

  SplashPresenter .|> app.splash.contract.SplashContract.Presenter
  SplashInteractor .|> app.splash.contract.SplashContract.Interactor
  SplashRouter .|> app.splash.contract.SplashContract.Router

  SplashActivity ..|> app.splash.contract.SplashContract.PresenterCallback
  SplashPresenter o- - app.splash.contract.SplashContract.PresenterCallback: -callback
  SplashPresenter ..|> app.splash.contract.SplashContract.InteractorCallback
  SplashInteractor o- - app.splash.contract.SplashContract.InteractorCallback: -callback

  app.splash.contract.SplashContract.Presenter -[hidden]> SplashPresenter
  app.splash.contract.SplashContract.Interactor -[hidden]> SplashInteractor
  app.splash.contract.SplashContract.Router -[hidden]> SplashRouter

  namespace entity {
    enum UpdatePhotoRequest {
      SKIPPED
      SELECT_ALBUM
      DOWNLOAD_PHOTOS
      COMPLETED
      UNKOWN
    }

    UpdatePhotoRequest -[hidden]-> app.splash.SplashActivity
  }
}

namespace app.splash.contract.SplashContract #EEEEEE {
  interface Presenter {
    + requestLoadDisplayedPhotos()
    + requestUpdateDisplayedPhotos()
    + evaluateActivityResult(requestCode: Int, resultCode: Int, data: Intent?)
  }
  interface PresenterCallback {
    + requestLoadDisplayedPhotosResult()
    + requestUpdateDisplayedPhotosResult()
  }
  interface Interactor {
    + requestLoadDisplayedPhotos()
    + requestUpdateSelectedAlbums()
    + requestDownloadPhotos()
    + isNeededUpdatePhotos(): Boolean
    + hasSelectedAlbum(): Boolean
  }
  interface InteractorCallback {
    + requestLoadDisplayedPhotosResult(isSucceeded: Boolean)
    + requestUpdateSelectedAlbumsResult(isSucceeded: Boolean)
    + requestDownloadPhotosResult(isSucceeded: Boolean)
  }
  interface Router {
    + startSelectActivity(activity: Activity)
  }

  PresenterCallback -[hidden]-> Presenter
  Presenter -[hidden]-> InteractorCallback
  InteractorCallback -[hidden]-> Interactor
  Interactor -[hidden]-> Router

  Presenter .|> core.viper.ViperContract.Presenter
  PresenterCallback .|> core.viper.ViperContract.PresenterCallback
  Interactor .|> core.viper.ViperContract.Interactor
  InteractorCallback .|> core.viper.ViperContract.InteractorCallback
  Router .|> core.viper.ViperContract.Router
}

app.splash +- - app.splash.contract.SplashContract

namespace core.viper.ViperContract #DDDDDD {
  interface Presenter {
    + create(callback: PresenterCallback)
    + destroy()
  }
  interface PresenterCallback {
    + getActivity(): Activity
  }
  interface Interactor {
    + create(callback: InteractorCallback)
    + destroy()
  }
  interface InteractorCallback
  interface Router

  PresenterCallback -[hidden]-> Presenter
  Presenter -[hidden]-> InteractorCallback
  InteractorCallback -[hidden]-> Interactor
  Interactor -[hidden]-> Router
}
@enduml

PlantUML version 1.2020.16beta7(Unknown compile time)
(GPL source distribution)
Java Runtime: Java(TM) SE Runtime Environment
JVM: Java HotSpot(TM) 64-Bit Server VM
Default Encoding: UTF-8
Language: en
Country: US
--></g></svg>