<?xml version="1.0" encoding="UTF-8" standalone="no"?><svg xmlns="http://www.w3.org/2000/svg" xmlns:xlink="http://www.w3.org/1999/xlink" contentScriptType="application/ecmascript" contentStyleType="text/css" height="853px" preserveAspectRatio="none" style="width:947px;height:853px;" version="1.1" viewBox="0 0 947 853" width="947px" zoomAndPan="magnify"><defs><filter height="300%" id="f1h3d238i43eg0" width="300%" x="-1" y="-1"><feGaussianBlur result="blurOut" stdDeviation="2.0"/><feColorMatrix in="blurOut" result="blurOut2" type="matrix" values="0 0 0 0 0 0 0 0 0 0 0 0 0 0 0 0 0 0 .4 0"/><feOffset dx="4.0" dy="4.0" in="blurOut2" result="blurOut3"/><feBlend in="SourceGraphic" in2="blurOut3" mode="normal"/></filter></defs><g><!--MD5=[6834d4c3e4960f6dbfe701b70c07ed62]
cluster core.viper.ViperContract--><polygon fill="#DDDDDD" filter="url(#f1h3d238i43eg0)" points="672,174,877,174,884,196.2969,930,196.2969,930,846,672,846,672,174" style="stroke:#000000;stroke-width:1.5;"/><line style="stroke:#000000;stroke-width:1.5;" x1="672" x2="884" y1="196.2969" y2="196.2969"/><text fill="#000000" font-family="sans-serif" font-size="14" font-weight="bold" lengthAdjust="spacingAndGlyphs" textLength="199" x="676" y="188.9951">core.viper.ViperContract</text><!--MD5=[7a08b7a9b7c5a66cec74140dc3e6787f]
cluster app.select--><polygon fill="#FFFFEE" filter="url(#f1h3d238i43eg0)" points="16,6,106,6,113,28.2969,648,28.2969,648,735,16,735,16,6" style="stroke:#000000;stroke-width:1.5;"/><line style="stroke:#000000;stroke-width:1.5;" x1="16" x2="113" y1="28.2969" y2="28.2969"/><text fill="#000000" font-family="sans-serif" font-size="14" font-weight="bold" lengthAdjust="spacingAndGlyphs" textLength="84" x="20" y="20.9951">app.select</text><!--MD5=[5bae7a127275ee2f2f32bef544ec2513]
cluster app.select.SelectContract--><polygon fill="#EEEEEE" filter="url(#f1h3d238i43eg0)" points="338,174,466,174,473,196.2969,624,196.2969,624,709.5,338,709.5,338,174" style="stroke:#000000;stroke-width:1.5;"/><line style="stroke:#000000;stroke-width:1.5;" x1="338" x2="473" y1="196.2969" y2="196.2969"/><text fill="#000000" font-family="sans-serif" font-size="14" font-weight="bold" lengthAdjust="spacingAndGlyphs" textLength="122" x="342" y="188.9951">SelectContract</text><!--MD5=[a73abe5de16d4ae8f7cebc11a3c6e1fe]
class core.viper.ViperContract.Presenter--><rect codeLine="2" fill="#FEFECE" filter="url(#f1h3d238i43eg0)" height="73.6094" id="core.viper.ViperContract.Presenter" style="stroke:#A80036;stroke-width:1.5;" width="225" x="688.5" y="347"/><ellipse cx="768.25" cy="363" fill="#B4A7E5" rx="11" ry="11" style="stroke:#A80036;stroke-width:1.0;"/><path d="M769.2031,359.7813 L770.9219,359.7813 C771.3125,359.7813 771.5,359.75 771.625,359.6719 C771.8906,359.5156 772.0313,359.2344 772.0313,358.9375 C772.0313,358.6719 771.9219,358.4063 771.6875,358.2344 C771.5156,358.125 771.375,358.0938 770.9219,358.0938 L765.7813,358.0938 C765.3438,358.0938 765.2188,358.1094 765.0625,358.2031 C764.8125,358.3594 764.6563,358.6563 764.6563,358.9375 C764.6563,359.2188 764.7969,359.4688 765.0156,359.6406 C765.1719,359.75 765.3594,359.7813 765.7813,359.7813 L767.5,359.7813 L767.5,366.2969 L765.7813,366.2969 C765.3438,366.2969 765.2188,366.3125 765.0625,366.4219 C764.8125,366.5781 764.6563,366.8594 764.6563,367.1563 C764.6563,367.4063 764.7969,367.6719 765.0156,367.8281 C765.1719,367.9531 765.375,368 765.7813,368 L770.9219,368 C771.6719,368 772.0313,367.7188 772.0313,367.1563 C772.0313,366.875 771.9219,366.625 771.6875,366.4531 C771.5156,366.3281 771.375,366.2969 770.9219,366.2969 L769.2031,366.2969 L769.2031,359.7813 Z " fill="#000000"/><text fill="#000000" font-family="sans-serif" font-size="12" font-style="italic" lengthAdjust="spacingAndGlyphs" textLength="57" x="788.75" y="367.1543">Presenter</text><line style="stroke:#A80036;stroke-width:1.5;" x1="689.5" x2="912.5" y1="379" y2="379"/><line style="stroke:#A80036;stroke-width:1.5;" x1="689.5" x2="912.5" y1="387" y2="387"/><ellipse cx="699.5" cy="398" fill="#84BE84" rx="3" ry="3" style="stroke:#038048;stroke-width:1.0;"/><text fill="#000000" font-family="sans-serif" font-size="11" lengthAdjust="spacingAndGlyphs" textLength="199" x="708.5" y="401.2104">create(callback: PresenterCallback)</text><ellipse cx="699.5" cy="410.8047" fill="#84BE84" rx="3" ry="3" style="stroke:#038048;stroke-width:1.0;"/><text fill="#000000" font-family="sans-serif" font-size="11" lengthAdjust="spacingAndGlyphs" textLength="51" x="708.5" y="414.0151">destroy()</text><!--MD5=[587da1590874ac044f3f2eaaedd1375f]
class core.viper.ViperContract.PresenterCallback--><rect codeLine="6" fill="#FEFECE" filter="url(#f1h3d238i43eg0)" height="60.8047" id="core.viper.ViperContract.PresenterCallback" style="stroke:#A80036;stroke-width:1.5;" width="144" x="708" y="209"/><ellipse cx="725.25" cy="225" fill="#B4A7E5" rx="11" ry="11" style="stroke:#A80036;stroke-width:1.0;"/><path d="M726.2031,221.7813 L727.9219,221.7813 C728.3125,221.7813 728.5,221.75 728.625,221.6719 C728.8906,221.5156 729.0313,221.2344 729.0313,220.9375 C729.0313,220.6719 728.9219,220.4063 728.6875,220.2344 C728.5156,220.125 728.375,220.0938 727.9219,220.0938 L722.7813,220.0938 C722.3438,220.0938 722.2188,220.1094 722.0625,220.2031 C721.8125,220.3594 721.6563,220.6563 721.6563,220.9375 C721.6563,221.2188 721.7969,221.4688 722.0156,221.6406 C722.1719,221.75 722.3594,221.7813 722.7813,221.7813 L724.5,221.7813 L724.5,228.2969 L722.7813,228.2969 C722.3438,228.2969 722.2188,228.3125 722.0625,228.4219 C721.8125,228.5781 721.6563,228.8594 721.6563,229.1563 C721.6563,229.4063 721.7969,229.6719 722.0156,229.8281 C722.1719,229.9531 722.375,230 722.7813,230 L727.9219,230 C728.6719,230 729.0313,229.7188 729.0313,229.1563 C729.0313,228.875 728.9219,228.625 728.6875,228.4531 C728.5156,228.3281 728.375,228.2969 727.9219,228.2969 L726.2031,228.2969 L726.2031,221.7813 Z " fill="#000000"/><text fill="#000000" font-family="sans-serif" font-size="12" font-style="italic" lengthAdjust="spacingAndGlyphs" textLength="107" x="739.75" y="229.1543">PresenterCallback</text><line style="stroke:#A80036;stroke-width:1.5;" x1="709" x2="851" y1="241" y2="241"/><line style="stroke:#A80036;stroke-width:1.5;" x1="709" x2="851" y1="249" y2="249"/><ellipse cx="719" cy="260" fill="#84BE84" rx="3" ry="3" style="stroke:#038048;stroke-width:1.0;"/><text fill="#000000" font-family="sans-serif" font-size="11" lengthAdjust="spacingAndGlyphs" textLength="118" x="728" y="263.2104">getActivity(): Activity</text><!--MD5=[ec1a8c1a0905d2094598a56ebb97c9ab]
class core.viper.ViperContract.Interactor--><rect codeLine="9" fill="#FEFECE" filter="url(#f1h3d238i43eg0)" height="73.6094" id="core.viper.ViperContract.Interactor" style="stroke:#A80036;stroke-width:1.5;" width="224" x="688" y="632.5"/><ellipse cx="765.75" cy="648.5" fill="#B4A7E5" rx="11" ry="11" style="stroke:#A80036;stroke-width:1.0;"/><path d="M766.7031,645.2813 L768.4219,645.2813 C768.8125,645.2813 769,645.25 769.125,645.1719 C769.3906,645.0156 769.5313,644.7344 769.5313,644.4375 C769.5313,644.1719 769.4219,643.9063 769.1875,643.7344 C769.0156,643.625 768.875,643.5938 768.4219,643.5938 L763.2813,643.5938 C762.8438,643.5938 762.7188,643.6094 762.5625,643.7031 C762.3125,643.8594 762.1563,644.1563 762.1563,644.4375 C762.1563,644.7188 762.2969,644.9688 762.5156,645.1406 C762.6719,645.25 762.8594,645.2813 763.2813,645.2813 L765,645.2813 L765,651.7969 L763.2813,651.7969 C762.8438,651.7969 762.7188,651.8125 762.5625,651.9219 C762.3125,652.0781 762.1563,652.3594 762.1563,652.6563 C762.1563,652.9063 762.2969,653.1719 762.5156,653.3281 C762.6719,653.4531 762.875,653.5 763.2813,653.5 L768.4219,653.5 C769.1719,653.5 769.5313,653.2188 769.5313,652.6563 C769.5313,652.375 769.4219,652.125 769.1875,651.9531 C769.0156,651.8281 768.875,651.7969 768.4219,651.7969 L766.7031,651.7969 L766.7031,645.2813 Z " fill="#000000"/><text fill="#000000" font-family="sans-serif" font-size="12" font-style="italic" lengthAdjust="spacingAndGlyphs" textLength="60" x="786.25" y="652.6543">Interactor</text><line style="stroke:#A80036;stroke-width:1.5;" x1="689" x2="911" y1="664.5" y2="664.5"/><line style="stroke:#A80036;stroke-width:1.5;" x1="689" x2="911" y1="672.5" y2="672.5"/><ellipse cx="699" cy="683.5" fill="#84BE84" rx="3" ry="3" style="stroke:#038048;stroke-width:1.0;"/><text fill="#000000" font-family="sans-serif" font-size="11" lengthAdjust="spacingAndGlyphs" textLength="198" x="708" y="686.7104">create(callback: InteractorCallback)</text><ellipse cx="699" cy="696.3047" fill="#84BE84" rx="3" ry="3" style="stroke:#038048;stroke-width:1.0;"/><text fill="#000000" font-family="sans-serif" font-size="11" lengthAdjust="spacingAndGlyphs" textLength="51" x="708" y="699.5151">destroy()</text><!--MD5=[e77a630e059dc31e4db28b962d60c6d2]
class core.viper.ViperContract.InteractorCallback--><rect codeLine="13" fill="#FEFECE" filter="url(#f1h3d238i43eg0)" height="48" id="core.viper.ViperContract.InteractorCallback" style="stroke:#A80036;stroke-width:1.5;" width="142" x="729" y="488.5"/><ellipse cx="744" cy="504.5" fill="#B4A7E5" rx="11" ry="11" style="stroke:#A80036;stroke-width:1.0;"/><path d="M744.9531,501.2813 L746.6719,501.2813 C747.0625,501.2813 747.25,501.25 747.375,501.1719 C747.6406,501.0156 747.7813,500.7344 747.7813,500.4375 C747.7813,500.1719 747.6719,499.9063 747.4375,499.7344 C747.2656,499.625 747.125,499.5938 746.6719,499.5938 L741.5313,499.5938 C741.0938,499.5938 740.9688,499.6094 740.8125,499.7031 C740.5625,499.8594 740.4063,500.1563 740.4063,500.4375 C740.4063,500.7188 740.5469,500.9688 740.7656,501.1406 C740.9219,501.25 741.1094,501.2813 741.5313,501.2813 L743.25,501.2813 L743.25,507.7969 L741.5313,507.7969 C741.0938,507.7969 740.9688,507.8125 740.8125,507.9219 C740.5625,508.0781 740.4063,508.3594 740.4063,508.6563 C740.4063,508.9063 740.5469,509.1719 740.7656,509.3281 C740.9219,509.4531 741.125,509.5 741.5313,509.5 L746.6719,509.5 C747.4219,509.5 747.7813,509.2188 747.7813,508.6563 C747.7813,508.375 747.6719,508.125 747.4375,507.9531 C747.2656,507.8281 747.125,507.7969 746.6719,507.7969 L744.9531,507.7969 L744.9531,501.2813 Z " fill="#000000"/><text fill="#000000" font-family="sans-serif" font-size="12" font-style="italic" lengthAdjust="spacingAndGlyphs" textLength="110" x="758" y="508.6543">InteractorCallback</text><line style="stroke:#A80036;stroke-width:1.5;" x1="730" x2="870" y1="520.5" y2="520.5"/><line style="stroke:#A80036;stroke-width:1.5;" x1="730" x2="870" y1="528.5" y2="528.5"/><!--MD5=[1825269ddad9ed22789ebb49bf96ca62]
class core.viper.ViperContract.Router--><rect codeLine="14" fill="#FEFECE" filter="url(#f1h3d238i43eg0)" height="48" id="core.viper.ViperContract.Router" style="stroke:#A80036;stroke-width:1.5;" width="72" x="764" y="782"/><ellipse cx="779" cy="798" fill="#B4A7E5" rx="11" ry="11" style="stroke:#A80036;stroke-width:1.0;"/><path d="M779.9531,794.7813 L781.6719,794.7813 C782.0625,794.7813 782.25,794.75 782.375,794.6719 C782.6406,794.5156 782.7813,794.2344 782.7813,793.9375 C782.7813,793.6719 782.6719,793.4063 782.4375,793.2344 C782.2656,793.125 782.125,793.0938 781.6719,793.0938 L776.5313,793.0938 C776.0938,793.0938 775.9688,793.1094 775.8125,793.2031 C775.5625,793.3594 775.4063,793.6563 775.4063,793.9375 C775.4063,794.2188 775.5469,794.4688 775.7656,794.6406 C775.9219,794.75 776.1094,794.7813 776.5313,794.7813 L778.25,794.7813 L778.25,801.2969 L776.5313,801.2969 C776.0938,801.2969 775.9688,801.3125 775.8125,801.4219 C775.5625,801.5781 775.4063,801.8594 775.4063,802.1563 C775.4063,802.4063 775.5469,802.6719 775.7656,802.8281 C775.9219,802.9531 776.125,803 776.5313,803 L781.6719,803 C782.4219,803 782.7813,802.7188 782.7813,802.1563 C782.7813,801.875 782.6719,801.625 782.4375,801.4531 C782.2656,801.3281 782.125,801.2969 781.6719,801.2969 L779.9531,801.2969 L779.9531,794.7813 Z " fill="#000000"/><text fill="#000000" font-family="sans-serif" font-size="12" font-style="italic" lengthAdjust="spacingAndGlyphs" textLength="40" x="793" y="802.1543">Router</text><line style="stroke:#A80036;stroke-width:1.5;" x1="765" x2="835" y1="814" y2="814"/><line style="stroke:#A80036;stroke-width:1.5;" x1="765" x2="835" y1="822" y2="822"/><!--MD5=[70a7c83a782ac3748bb651aa09fb65d4]
class app.select.SelectActivity--><rect codeLine="39" fill="#FEFECE" filter="url(#f1h3d238i43eg0)" height="86.4141" id="app.select.SelectActivity" style="stroke:#A80036;stroke-width:1.5;" width="248" x="180" y="41"/><ellipse cx="259.25" cy="57" fill="#ADD1B2" rx="11" ry="11" style="stroke:#A80036;stroke-width:1.0;"/><path d="M261.5938,52.6719 C260.6563,52.2344 260.0625,52.0938 259.1875,52.0938 C256.5625,52.0938 254.5625,54.1719 254.5625,56.8906 L254.5625,58.0156 C254.5625,60.5938 256.6719,62.4844 259.5625,62.4844 C260.7813,62.4844 261.9375,62.1875 262.6875,61.6406 C263.2656,61.2344 263.5938,60.7813 263.5938,60.3906 C263.5938,59.9375 263.2031,59.5469 262.7344,59.5469 C262.5156,59.5469 262.3125,59.625 262.125,59.8125 C261.6719,60.2969 261.6719,60.2969 261.4844,60.3906 C261.0625,60.6563 260.375,60.7813 259.6094,60.7813 C257.5625,60.7813 256.2656,59.6875 256.2656,57.9844 L256.2656,56.8906 C256.2656,55.1094 257.5156,53.7969 259.25,53.7969 C259.8281,53.7969 260.4375,53.9531 260.9063,54.2031 C261.3906,54.4844 261.5625,54.7031 261.6563,55.1094 C261.7188,55.5156 261.75,55.6406 261.8906,55.7656 C262.0313,55.9063 262.2656,56.0156 262.4844,56.0156 C262.75,56.0156 263.0156,55.875 263.1875,55.6563 C263.2969,55.5 263.3281,55.3125 263.3281,54.8906 L263.3281,53.4688 C263.3281,53.0313 263.3125,52.9063 263.2188,52.75 C263.0625,52.4844 262.7813,52.3438 262.4844,52.3438 C262.1875,52.3438 261.9844,52.4375 261.7656,52.75 L261.5938,52.6719 Z " fill="#000000"/><text fill="#000000" font-family="sans-serif" font-size="12" lengthAdjust="spacingAndGlyphs" textLength="81" x="279.75" y="61.1543">SelectActivity</text><line style="stroke:#A80036;stroke-width:1.5;" x1="181" x2="427" y1="73" y2="73"/><rect fill="none" height="6" style="stroke:#C82930;stroke-width:1.0;" width="6" x="188" y="81"/><text fill="#000000" font-family="sans-serif" font-size="11" lengthAdjust="spacingAndGlyphs" textLength="211" x="200" y="87.2104">fragmentManager: FragmentManager</text><line style="stroke:#A80036;stroke-width:1.5;" x1="181" x2="427" y1="93.8047" y2="93.8047"/><ellipse cx="191" cy="104.8047" fill="#84BE84" rx="3" ry="3" style="stroke:#038048;stroke-width:1.0;"/><text fill="#000000" font-family="sans-serif" font-size="11" lengthAdjust="spacingAndGlyphs" textLength="222" x="200" y="108.0151">decidedAndFinishAlbum(album: Album)</text><rect fill="#F24D5C" height="6" style="stroke:#C82930;stroke-width:1.0;" width="6" x="188" y="114.6094"/><text fill="#000000" font-family="sans-serif" font-size="11" lengthAdjust="spacingAndGlyphs" textLength="218" x="200" y="120.8198">replaceFragment(fragment: Fragment)</text><!--MD5=[00e31b6b37b4daeca188d2611a0c0985]
class app.select.SelectPresenter--><rect codeLine="44" fill="#FEFECE" filter="url(#f1h3d238i43eg0)" height="48" id="app.select.SelectPresenter" style="stroke:#A80036;stroke-width:1.5;" width="128" x="194" y="360"/><ellipse cx="209" cy="376" fill="#ADD1B2" rx="11" ry="11" style="stroke:#A80036;stroke-width:1.0;"/><path d="M211.3438,371.6719 C210.4063,371.2344 209.8125,371.0938 208.9375,371.0938 C206.3125,371.0938 204.3125,373.1719 204.3125,375.8906 L204.3125,377.0156 C204.3125,379.5938 206.4219,381.4844 209.3125,381.4844 C210.5313,381.4844 211.6875,381.1875 212.4375,380.6406 C213.0156,380.2344 213.3438,379.7813 213.3438,379.3906 C213.3438,378.9375 212.9531,378.5469 212.4844,378.5469 C212.2656,378.5469 212.0625,378.625 211.875,378.8125 C211.4219,379.2969 211.4219,379.2969 211.2344,379.3906 C210.8125,379.6563 210.125,379.7813 209.3594,379.7813 C207.3125,379.7813 206.0156,378.6875 206.0156,376.9844 L206.0156,375.8906 C206.0156,374.1094 207.2656,372.7969 209,372.7969 C209.5781,372.7969 210.1875,372.9531 210.6563,373.2031 C211.1406,373.4844 211.3125,373.7031 211.4063,374.1094 C211.4688,374.5156 211.5,374.6406 211.6406,374.7656 C211.7813,374.9063 212.0156,375.0156 212.2344,375.0156 C212.5,375.0156 212.7656,374.875 212.9375,374.6563 C213.0469,374.5 213.0781,374.3125 213.0781,373.8906 L213.0781,372.4688 C213.0781,372.0313 213.0625,371.9063 212.9688,371.75 C212.8125,371.4844 212.5313,371.3438 212.2344,371.3438 C211.9375,371.3438 211.7344,371.4375 211.5156,371.75 L211.3438,371.6719 Z " fill="#000000"/><text fill="#000000" font-family="sans-serif" font-size="12" lengthAdjust="spacingAndGlyphs" textLength="96" x="223" y="380.1543">SelectPresenter</text><line style="stroke:#A80036;stroke-width:1.5;" x1="195" x2="321" y1="392" y2="392"/><line style="stroke:#A80036;stroke-width:1.5;" x1="195" x2="321" y1="400" y2="400"/><!--MD5=[f96b8487255f796efee142da613d866c]
class app.select.SelectInteractor--><rect codeLine="45" fill="#FEFECE" filter="url(#f1h3d238i43eg0)" height="99.2188" id="app.select.SelectInteractor" style="stroke:#A80036;stroke-width:1.5;" width="289" x="32.5" y="620"/><ellipse cx="124.75" cy="636" fill="#ADD1B2" rx="11" ry="11" style="stroke:#A80036;stroke-width:1.0;"/><path d="M127.0938,631.6719 C126.1563,631.2344 125.5625,631.0938 124.6875,631.0938 C122.0625,631.0938 120.0625,633.1719 120.0625,635.8906 L120.0625,637.0156 C120.0625,639.5938 122.1719,641.4844 125.0625,641.4844 C126.2813,641.4844 127.4375,641.1875 128.1875,640.6406 C128.7656,640.2344 129.0938,639.7813 129.0938,639.3906 C129.0938,638.9375 128.7031,638.5469 128.2344,638.5469 C128.0156,638.5469 127.8125,638.625 127.625,638.8125 C127.1719,639.2969 127.1719,639.2969 126.9844,639.3906 C126.5625,639.6563 125.875,639.7813 125.1094,639.7813 C123.0625,639.7813 121.7656,638.6875 121.7656,636.9844 L121.7656,635.8906 C121.7656,634.1094 123.0156,632.7969 124.75,632.7969 C125.3281,632.7969 125.9375,632.9531 126.4063,633.2031 C126.8906,633.4844 127.0625,633.7031 127.1563,634.1094 C127.2188,634.5156 127.25,634.6406 127.3906,634.7656 C127.5313,634.9063 127.7656,635.0156 127.9844,635.0156 C128.25,635.0156 128.5156,634.875 128.6875,634.6563 C128.7969,634.5 128.8281,634.3125 128.8281,633.8906 L128.8281,632.4688 C128.8281,632.0313 128.8125,631.9063 128.7188,631.75 C128.5625,631.4844 128.2813,631.3438 127.9844,631.3438 C127.6875,631.3438 127.4844,631.4375 127.2656,631.75 L127.0938,631.6719 Z " fill="#000000"/><text fill="#000000" font-family="sans-serif" font-size="12" lengthAdjust="spacingAndGlyphs" textLength="96" x="145.25" y="640.1543">SelectInteractor</text><line style="stroke:#A80036;stroke-width:1.5;" x1="33.5" x2="320.5" y1="652" y2="652"/><rect fill="none" height="6" style="stroke:#C82930;stroke-width:1.0;" width="6" x="40.5" y="660"/><text fill="#000000" font-family="sans-serif" font-size="11" lengthAdjust="spacingAndGlyphs" textLength="160" x="52.5" y="666.2104">appDatabase: AppDatabase</text><rect fill="none" height="6" style="stroke:#C82930;stroke-width:1.0;" width="6" x="40.5" y="672.8047"/><text fill="#000000" font-family="sans-serif" font-size="11" lengthAdjust="spacingAndGlyphs" textLength="187" x="52.5" y="679.0151">googleWebApis: GoogleWebApis</text><line style="stroke:#A80036;stroke-width:1.5;" x1="33.5" x2="320.5" y1="685.6094" y2="685.6094"/><rect fill="#F24D5C" height="6" style="stroke:#C82930;stroke-width:1.0;" width="6" x="40.5" y="693.6094"/><text fill="#000000" font-family="sans-serif" font-size="11" lengthAdjust="spacingAndGlyphs" textLength="72" x="52.5" y="699.8198">createLoad()</text><rect fill="#F24D5C" height="6" style="stroke:#C82930;stroke-width:1.0;" width="6" x="40.5" y="706.4141"/><text fill="#000000" font-family="sans-serif" font-size="11" font-weight="bold" lengthAdjust="spacingAndGlyphs" textLength="64" x="52.5" y="712.6245">[suspend]</text><text fill="#000000" font-family="sans-serif" font-size="11" lengthAdjust="spacingAndGlyphs" textLength="195" x="120.5" y="712.6245">loadSharedAlbums(): List&lt;Album&gt;</text><!--MD5=[dfa1f81480c24203dc41db8ece4b4711]
class app.select.SelectContract.Presenter--><rect codeLine="25" fill="#FEFECE" filter="url(#f1h3d238i43eg0)" height="48" id="app.select.SelectContract.Presenter" style="stroke:#A80036;stroke-width:1.5;" width="89" x="436.5" y="360"/><ellipse cx="451.5" cy="376" fill="#B4A7E5" rx="11" ry="11" style="stroke:#A80036;stroke-width:1.0;"/><path d="M452.4531,372.7813 L454.1719,372.7813 C454.5625,372.7813 454.75,372.75 454.875,372.6719 C455.1406,372.5156 455.2813,372.2344 455.2813,371.9375 C455.2813,371.6719 455.1719,371.4063 454.9375,371.2344 C454.7656,371.125 454.625,371.0938 454.1719,371.0938 L449.0313,371.0938 C448.5938,371.0938 448.4688,371.1094 448.3125,371.2031 C448.0625,371.3594 447.9063,371.6563 447.9063,371.9375 C447.9063,372.2188 448.0469,372.4688 448.2656,372.6406 C448.4219,372.75 448.6094,372.7813 449.0313,372.7813 L450.75,372.7813 L450.75,379.2969 L449.0313,379.2969 C448.5938,379.2969 448.4688,379.3125 448.3125,379.4219 C448.0625,379.5781 447.9063,379.8594 447.9063,380.1563 C447.9063,380.4063 448.0469,380.6719 448.2656,380.8281 C448.4219,380.9531 448.625,381 449.0313,381 L454.1719,381 C454.9219,381 455.2813,380.7188 455.2813,380.1563 C455.2813,379.875 455.1719,379.625 454.9375,379.4531 C454.7656,379.3281 454.625,379.2969 454.1719,379.2969 L452.4531,379.2969 L452.4531,372.7813 Z " fill="#000000"/><text fill="#000000" font-family="sans-serif" font-size="12" font-style="italic" lengthAdjust="spacingAndGlyphs" textLength="57" x="465.5" y="380.1543">Presenter</text><line style="stroke:#A80036;stroke-width:1.5;" x1="437.5" x2="524.5" y1="392" y2="392"/><line style="stroke:#A80036;stroke-width:1.5;" x1="437.5" x2="524.5" y1="400" y2="400"/><!--MD5=[e8239d60d739d9bdfcfc1a5595a747d4]
class app.select.SelectContract.PresenterCallback--><rect codeLine="26" fill="#FEFECE" filter="url(#f1h3d238i43eg0)" height="60.8047" id="app.select.SelectContract.PresenterCallback" style="stroke:#A80036;stroke-width:1.5;" width="254" x="354" y="209"/><ellipse cx="423.25" cy="225" fill="#B4A7E5" rx="11" ry="11" style="stroke:#A80036;stroke-width:1.0;"/><path d="M424.2031,221.7813 L425.9219,221.7813 C426.3125,221.7813 426.5,221.75 426.625,221.6719 C426.8906,221.5156 427.0313,221.2344 427.0313,220.9375 C427.0313,220.6719 426.9219,220.4063 426.6875,220.2344 C426.5156,220.125 426.375,220.0938 425.9219,220.0938 L420.7813,220.0938 C420.3438,220.0938 420.2188,220.1094 420.0625,220.2031 C419.8125,220.3594 419.6563,220.6563 419.6563,220.9375 C419.6563,221.2188 419.7969,221.4688 420.0156,221.6406 C420.1719,221.75 420.3594,221.7813 420.7813,221.7813 L422.5,221.7813 L422.5,228.2969 L420.7813,228.2969 C420.3438,228.2969 420.2188,228.3125 420.0625,228.4219 C419.8125,228.5781 419.6563,228.8594 419.6563,229.1563 C419.6563,229.4063 419.7969,229.6719 420.0156,229.8281 C420.1719,229.9531 420.375,230 420.7813,230 L425.9219,230 C426.6719,230 427.0313,229.7188 427.0313,229.1563 C427.0313,228.875 426.9219,228.625 426.6875,228.4531 C426.5156,228.3281 426.375,228.2969 425.9219,228.2969 L424.2031,228.2969 L424.2031,221.7813 Z " fill="#000000"/><text fill="#000000" font-family="sans-serif" font-size="12" font-style="italic" lengthAdjust="spacingAndGlyphs" textLength="107" x="443.75" y="229.1543">PresenterCallback</text><line style="stroke:#A80036;stroke-width:1.5;" x1="355" x2="607" y1="241" y2="241"/><line style="stroke:#A80036;stroke-width:1.5;" x1="355" x2="607" y1="249" y2="249"/><ellipse cx="365" cy="260" fill="#84BE84" rx="3" ry="3" style="stroke:#038048;stroke-width:1.0;"/><text fill="#000000" font-family="sans-serif" font-size="11" lengthAdjust="spacingAndGlyphs" textLength="228" x="374" y="263.2104">createLoadResult(albums: List&lt;Album&gt;)</text><!--MD5=[95ea448edb68bb8b8ff8097bebb48fe0]
class app.select.SelectContract.Interactor--><rect codeLine="29" fill="#FEFECE" filter="url(#f1h3d238i43eg0)" height="48" id="app.select.SelectContract.Interactor" style="stroke:#A80036;stroke-width:1.5;" width="92" x="435" y="645.5"/><ellipse cx="450" cy="661.5" fill="#B4A7E5" rx="11" ry="11" style="stroke:#A80036;stroke-width:1.0;"/><path d="M450.9531,658.2813 L452.6719,658.2813 C453.0625,658.2813 453.25,658.25 453.375,658.1719 C453.6406,658.0156 453.7813,657.7344 453.7813,657.4375 C453.7813,657.1719 453.6719,656.9063 453.4375,656.7344 C453.2656,656.625 453.125,656.5938 452.6719,656.5938 L447.5313,656.5938 C447.0938,656.5938 446.9688,656.6094 446.8125,656.7031 C446.5625,656.8594 446.4063,657.1563 446.4063,657.4375 C446.4063,657.7188 446.5469,657.9688 446.7656,658.1406 C446.9219,658.25 447.1094,658.2813 447.5313,658.2813 L449.25,658.2813 L449.25,664.7969 L447.5313,664.7969 C447.0938,664.7969 446.9688,664.8125 446.8125,664.9219 C446.5625,665.0781 446.4063,665.3594 446.4063,665.6563 C446.4063,665.9063 446.5469,666.1719 446.7656,666.3281 C446.9219,666.4531 447.125,666.5 447.5313,666.5 L452.6719,666.5 C453.4219,666.5 453.7813,666.2188 453.7813,665.6563 C453.7813,665.375 453.6719,665.125 453.4375,664.9531 C453.2656,664.8281 453.125,664.7969 452.6719,664.7969 L450.9531,664.7969 L450.9531,658.2813 Z " fill="#000000"/><text fill="#000000" font-family="sans-serif" font-size="12" font-style="italic" lengthAdjust="spacingAndGlyphs" textLength="60" x="464" y="665.6543">Interactor</text><line style="stroke:#A80036;stroke-width:1.5;" x1="436" x2="526" y1="677.5" y2="677.5"/><line style="stroke:#A80036;stroke-width:1.5;" x1="436" x2="526" y1="685.5" y2="685.5"/><!--MD5=[71c3da3d5e7f638828af9d23efad60c6]
class app.select.SelectContract.InteractorCallback--><rect codeLine="30" fill="#FEFECE" filter="url(#f1h3d238i43eg0)" height="60.8047" id="app.select.SelectContract.InteractorCallback" style="stroke:#A80036;stroke-width:1.5;" width="254" x="354" y="482"/><ellipse cx="421.75" cy="498" fill="#B4A7E5" rx="11" ry="11" style="stroke:#A80036;stroke-width:1.0;"/><path d="M422.7031,494.7813 L424.4219,494.7813 C424.8125,494.7813 425,494.75 425.125,494.6719 C425.3906,494.5156 425.5313,494.2344 425.5313,493.9375 C425.5313,493.6719 425.4219,493.4063 425.1875,493.2344 C425.0156,493.125 424.875,493.0938 424.4219,493.0938 L419.2813,493.0938 C418.8438,493.0938 418.7188,493.1094 418.5625,493.2031 C418.3125,493.3594 418.1563,493.6563 418.1563,493.9375 C418.1563,494.2188 418.2969,494.4688 418.5156,494.6406 C418.6719,494.75 418.8594,494.7813 419.2813,494.7813 L421,494.7813 L421,501.2969 L419.2813,501.2969 C418.8438,501.2969 418.7188,501.3125 418.5625,501.4219 C418.3125,501.5781 418.1563,501.8594 418.1563,502.1563 C418.1563,502.4063 418.2969,502.6719 418.5156,502.8281 C418.6719,502.9531 418.875,503 419.2813,503 L424.4219,503 C425.1719,503 425.5313,502.7188 425.5313,502.1563 C425.5313,501.875 425.4219,501.625 425.1875,501.4531 C425.0156,501.3281 424.875,501.2969 424.4219,501.2969 L422.7031,501.2969 L422.7031,494.7813 Z " fill="#000000"/><text fill="#000000" font-family="sans-serif" font-size="12" font-style="italic" lengthAdjust="spacingAndGlyphs" textLength="110" x="442.25" y="502.1543">InteractorCallback</text><line style="stroke:#A80036;stroke-width:1.5;" x1="355" x2="607" y1="514" y2="514"/><line style="stroke:#A80036;stroke-width:1.5;" x1="355" x2="607" y1="522" y2="522"/><ellipse cx="365" cy="533" fill="#84BE84" rx="3" ry="3" style="stroke:#038048;stroke-width:1.0;"/><text fill="#000000" font-family="sans-serif" font-size="11" lengthAdjust="spacingAndGlyphs" textLength="228" x="374" y="536.2104">createLoadResult(albums: List&lt;Album&gt;)</text><!--MD5=[87f8738a1428cad8e95c20e665af5898]
link core.viper.ViperContract.PresenterCallback to core.viper.ViperContract.Presenter--><!--MD5=[6573e0256b6fb7c6a0505a89fdc8309d]
link core.viper.ViperContract.Presenter to core.viper.ViperContract.InteractorCallback--><!--MD5=[f8d939142a6dbc42db09fcc57fec4775]
link core.viper.ViperContract.InteractorCallback to core.viper.ViperContract.Interactor--><!--MD5=[37f12353853fdc756113b71d7b56ae43]
link core.viper.ViperContract.Interactor to core.viper.ViperContract.Router--><!--MD5=[028b06ff1961b9fc1a5ce4af78f578c5]
link app.select.SelectContract.PresenterCallback to app.select.SelectContract.Presenter--><!--MD5=[a9a5a8fa94f1fb890d1a68c44cc54a78]
link app.select.SelectContract.Presenter to app.select.SelectContract.InteractorCallback--><!--MD5=[20ae6cf727b9f0c05f2f55f042f86ed0]
link app.select.SelectContract.InteractorCallback to app.select.SelectContract.Interactor--><!--MD5=[0a951a5b0a28d7e157ef54e87e3f2deb]
reverse link app.select.SelectActivity to app.select.SelectPresenter--><path codeLine="52" d="M271.636,139.226 C267.703,147.925 264.276,157.025 262,166 C244.585,234.664 250.591,319.507 255.01,359.736 " fill="none" id="app.select.SelectActivity-backto-app.select.SelectPresenter" style="stroke:#A80036;stroke-width:1.0;"/><polygon fill="#FFFFFF" points="277.466,127.249,271.2437,130.8936,272.2147,138.039,278.437,134.3944,277.466,127.249" style="stroke:#A80036;stroke-width:1.0;"/><rect fill="none" height="6" style="stroke:#C82930;stroke-width:1.0;" width="6" x="265" y="237.0664"/><text fill="#000000" font-family="sans-serif" font-size="13" lengthAdjust="spacingAndGlyphs" textLength="62" x="275" y="244.0669">presenter</text><!--MD5=[60a02d9a398a04492669dbfe7d016817]
reverse link app.select.SelectPresenter to app.select.SelectInteractor--><path codeLine="53" d="M247.721,420.977 C233.301,471.448 207.025,563.413 190.88,619.919 " fill="none" id="app.select.SelectPresenter-backto-app.select.SelectInteractor" style="stroke:#A80036;stroke-width:1.0;"/><polygon fill="#FFFFFF" points="251.371,408.2,245.8766,412.8703,248.0743,419.7383,253.5688,415.068,251.371,408.2" style="stroke:#A80036;stroke-width:1.0;"/><rect fill="none" height="6" style="stroke:#C82930;stroke-width:1.0;" width="6" x="234" y="510.0664"/><text fill="#000000" font-family="sans-serif" font-size="13" lengthAdjust="spacingAndGlyphs" textLength="62" x="244" y="517.0669">interactor</text><!--MD5=[5551df2b55517645c6806554f920f425]
link app.select.SelectPresenter to app.select.SelectContract.Presenter--><path codeLine="55" d="M322.025,384 C353.418,384 384.811,384 416.203,384 " fill="none" id="app.select.SelectPresenter-to-app.select.SelectContract.Presenter" style="stroke:#A80036;stroke-width:1.0;stroke-dasharray:7.0,7.0;"/><polygon fill="none" points="416.288,377,436.288,384,416.288,391,416.288,377" style="stroke:#A80036;stroke-width:1.0;"/><!--MD5=[d4b218f642573585c6fdb8b18bf0b38c]
link app.select.SelectInteractor to app.select.SelectContract.Interactor--><path codeLine="56" d="M321.578,669.5 C352.569,669.5 383.56,669.5 414.552,669.5 " fill="none" id="app.select.SelectInteractor-to-app.select.SelectContract.Interactor" style="stroke:#A80036;stroke-width:1.0;stroke-dasharray:7.0,7.0;"/><polygon fill="none" points="414.917,662.5,434.917,669.5,414.917,676.5,414.917,662.5" style="stroke:#A80036;stroke-width:1.0;"/><!--MD5=[518b0a590f095178bb709d2f71f736a5]
link app.select.SelectContract.PresenterCallback to app.select.SelectPresenter--><path codeLine="58" d="M434.794,270.026 C396.988,294.185 343.719,328.224 305.552,352.613 " fill="none" id="app.select.SelectContract.PresenterCallback-to-app.select.SelectPresenter" style="stroke:#A80036;stroke-width:1.0;"/><polygon fill="#FFFFFF" points="294.226,359.851,301.4358,359.9901,304.3372,353.3885,297.1274,353.2493,294.226,359.851" style="stroke:#A80036;stroke-width:1.0;"/><text fill="#000000" font-family="sans-serif" font-size="13" lengthAdjust="spacingAndGlyphs" textLength="51" x="384" y="313.0669">callback</text><!--MD5=[c6e90a6ddb3291989ca48a3d33888b24]
link app.select.SelectContract.InteractorCallback to app.select.SelectInteractor--><path codeLine="59" d="M423.104,543.019 C383.878,563.02 330.866,590.049 284.088,613.899 " fill="none" id="app.select.SelectContract.InteractorCallback-to-app.select.SelectInteractor" style="stroke:#A80036;stroke-width:1.0;"/><polygon fill="#FFFFFF" points="272.342,619.888,279.5042,620.7265,283.0329,614.4377,275.8707,613.5992,272.342,619.888" style="stroke:#A80036;stroke-width:1.0;"/><text fill="#000000" font-family="sans-serif" font-size="13" lengthAdjust="spacingAndGlyphs" textLength="51" x="358" y="586.0669">callback</text><!--MD5=[80c17066294f72997424444c7f7ac85c]
link app.select.SelectActivity to app.select.SelectContract.PresenterCallback--><path codeLine="61" d="M352.835,127.351 C377.345,148.607 406.973,174.302 431.566,195.629 " fill="none" id="app.select.SelectActivity-to-app.select.SelectContract.PresenterCallback" style="stroke:#A80036;stroke-width:1.0;stroke-dasharray:7.0,7.0;"/><polygon fill="none" points="436.372,190.532,446.896,208.924,427.2,201.108,436.372,190.532" style="stroke:#A80036;stroke-width:1.0;"/><!--MD5=[e3e52e999eda5a49de1f11ab0967e13b]
link app.select.SelectPresenter to app.select.SelectContract.InteractorCallback--><path codeLine="62" d="M298.642,408.055 C330.059,425.876 374.29,450.967 411.323,471.975 " fill="none" id="app.select.SelectPresenter-to-app.select.SelectContract.InteractorCallback" style="stroke:#A80036;stroke-width:1.0;stroke-dasharray:7.0,7.0;"/><polygon fill="none" points="414.895,465.953,428.837,481.91,407.987,478.13,414.895,465.953" style="stroke:#A80036;stroke-width:1.0;"/><!--MD5=[e176c1425056e5fee4882b263f613b37]
link app.select.SelectContract.PresenterCallback to core.viper.ViperContract.PresenterCallback--><path codeLine="65" d="M608.017,239.5 C634.516,239.5 661.016,239.5 687.516,239.5 " fill="none" id="app.select.SelectContract.PresenterCallback-to-core.viper.ViperContract.PresenterCallback" style="stroke:#A80036;stroke-width:1.0;stroke-dasharray:7.0,7.0;"/><polygon fill="none" points="687.78,232.5,707.78,239.5,687.78,246.5,687.78,232.5" style="stroke:#A80036;stroke-width:1.0;"/><!--MD5=[8ee638c6ad8240d869dffc326c5b7c9b]
link app.select.SelectContract.Presenter to core.viper.ViperContract.Presenter--><path codeLine="66" d="M525.688,384 C573.236,384 620.784,384 668.333,384 " fill="none" id="app.select.SelectContract.Presenter-to-core.viper.ViperContract.Presenter" style="stroke:#A80036;stroke-width:1.0;stroke-dasharray:7.0,7.0;"/><polygon fill="none" points="668.348,377,688.348,384,668.348,391,668.348,377" style="stroke:#A80036;stroke-width:1.0;"/><!--MD5=[1784da9b977aec65d41ef14fa682d2fd]
link app.select.SelectContract.InteractorCallback to core.viper.ViperContract.InteractorCallback--><path codeLine="67" d="M608.102,512.5 C641.573,512.5 675.045,512.5 708.516,512.5 " fill="none" id="app.select.SelectContract.InteractorCallback-to-core.viper.ViperContract.InteractorCallback" style="stroke:#A80036;stroke-width:1.0;stroke-dasharray:7.0,7.0;"/><polygon fill="none" points="708.788,505.5,728.788,512.5,708.788,519.5,708.788,505.5" style="stroke:#A80036;stroke-width:1.0;"/><!--MD5=[ad32ad27463354ecb5a4488686ec8cd9]
link app.select.SelectContract.Interactor to core.viper.ViperContract.Interactor--><path codeLine="68" d="M527.105,669.5 C573.976,669.5 620.846,669.5 667.717,669.5 " fill="none" id="app.select.SelectContract.Interactor-to-core.viper.ViperContract.Interactor" style="stroke:#A80036;stroke-width:1.0;stroke-dasharray:7.0,7.0;"/><polygon fill="none" points="667.804,662.5,687.804,669.5,667.804,676.5,667.804,662.5" style="stroke:#A80036;stroke-width:1.0;"/><!--MD5=[20f4f3934fdd7413048341fbe7ee24e2]
@startuml
namespace core.viper.ViperContract #DDDDDD {
  interface Presenter {
    + create(callback: PresenterCallback)
    + destroy()
  }
  interface PresenterCallback {
    + getActivity(): Activity
  }
  interface Interactor {
    + create(callback: InteractorCallback)
    + destroy()
  }
  interface InteractorCallback
  interface Router

  PresenterCallback -[hidden]-> Presenter
  Presenter -[hidden]-> InteractorCallback
  InteractorCallback -[hidden]-> Interactor
  Interactor -[hidden]-> Router
}

namespace app.select #FFFFEE {

  namespace app.select.SelectContract #EEEEEE {
    interface Presenter
    interface PresenterCallback {
      + createLoadResult(albums: List<Album>)
    }
    interface Interactor
    interface InteractorCallback {
      + createLoadResult(albums: List<Album>)
    }

    PresenterCallback -[hidden]-> Presenter
    Presenter -[hidden]-> InteractorCallback
    InteractorCallback -[hidden]-> Interactor
  }

  class SelectActivity {
    - fragmentManager: FragmentManager
    + decidedAndFinishAlbum(album: Album)
    - replaceFragment(fragment: Fragment)
  }
  class SelectPresenter
  class SelectInteractor {
    - appDatabase: AppDatabase
    - googleWebApis: GoogleWebApis
    - createLoad()
    - <b>[suspend]</b> loadSharedAlbums(): List<Album>
  }

  SelectActivity o-down- - SelectPresenter: - presenter
  SelectPresenter o-down- - SelectInteractor: - interactor

  SelectPresenter .right.|> app.select.SelectContract.Presenter
  SelectInteractor .right.|> app.select.SelectContract.Interactor

  SelectPresenter o-up- app.select.SelectContract.PresenterCallback: - callback
  SelectInteractor o-up- app.select.SelectContract.InteractorCallback: - callback

  SelectActivity .down.|> app.select.SelectContract.PresenterCallback
  SelectPresenter .down.|> app.select.SelectContract.InteractorCallback
}

app.select.SelectContract.PresenterCallback .right.|> core.viper.ViperContract.PresenterCallback
app.select.SelectContract.Presenter .right.|> core.viper.ViperContract.Presenter
app.select.SelectContract.InteractorCallback .right.|> core.viper.ViperContract.InteractorCallback
app.select.SelectContract.Interactor .right.|> core.viper.ViperContract.Interactor
@enduml

PlantUML version 1.2020.21beta7(Unknown compile time)
(GPL source distribution)
Java Runtime: Java(TM) SE Runtime Environment
JVM: Java HotSpot(TM) 64-Bit Server VM
Default Encoding: UTF-8
Language: en
Country: US
--></g></svg>