<?xml version="1.0" encoding="UTF-8" standalone="no"?><svg xmlns="http://www.w3.org/2000/svg" xmlns:xlink="http://www.w3.org/1999/xlink" contentScriptType="application/ecmascript" contentStyleType="text/css" height="856px" preserveAspectRatio="none" style="width:1076px;height:856px;" version="1.1" viewBox="0 0 1076 856" width="1076px" zoomAndPan="magnify"><defs><filter height="300%" id="fyq0jtben7ra" width="300%" x="-1" y="-1"><feGaussianBlur result="blurOut" stdDeviation="2.0"/><feColorMatrix in="blurOut" result="blurOut2" type="matrix" values="0 0 0 0 0 0 0 0 0 0 0 0 0 0 0 0 0 0 .4 0"/><feOffset dx="4.0" dy="4.0" in="blurOut2" result="blurOut3"/><feBlend in="SourceGraphic" in2="blurOut3" mode="normal"/></filter></defs><g><!--MD5=[6834d4c3e4960f6dbfe701b70c07ed62]
cluster core.viper.ViperContract--><polygon fill="#DDDDDD" filter="url(#fyq0jtben7ra)" points="796,174,1001,174,1008,196.2969,1054,196.2969,1054,844.5,796,844.5,796,174" style="stroke: #000000; stroke-width: 1.5;"/><line style="stroke: #000000; stroke-width: 1.5;" x1="796" x2="1008" y1="196.2969" y2="196.2969"/><text fill="#000000" font-family="sans-serif" font-size="14" font-weight="bold" lengthAdjust="spacingAndGlyphs" textLength="199" x="800" y="188.9951">core.viper.ViperContract</text><!--MD5=[7a08b7a9b7c5a66cec74140dc3e6787f]
cluster app.select--><polygon fill="#FFFFEE" filter="url(#fyq0jtben7ra)" points="16,6,106,6,113,28.2969,772,28.2969,772,733.5,16,733.5,16,6" style="stroke: #000000; stroke-width: 1.5;"/><line style="stroke: #000000; stroke-width: 1.5;" x1="16" x2="113" y1="28.2969" y2="28.2969"/><text fill="#000000" font-family="sans-serif" font-size="14" font-weight="bold" lengthAdjust="spacingAndGlyphs" textLength="84" x="20" y="20.9951">app.select</text><!--MD5=[5bae7a127275ee2f2f32bef544ec2513]
cluster app.select.SelectContract--><polygon fill="#EEEEEE" filter="url(#fyq0jtben7ra)" points="372,174,500,174,507,196.2969,748,196.2969,748,709.5,372,709.5,372,174" style="stroke: #000000; stroke-width: 1.5;"/><line style="stroke: #000000; stroke-width: 1.5;" x1="372" x2="507" y1="196.2969" y2="196.2969"/><text fill="#000000" font-family="sans-serif" font-size="14" font-weight="bold" lengthAdjust="spacingAndGlyphs" textLength="122" x="376" y="188.9951">SelectContract</text><!--MD5=[a73abe5de16d4ae8f7cebc11a3c6e1fe]
class core.viper.ViperContract.Presenter--><rect codeLine="2" fill="#FEFECE" filter="url(#fyq0jtben7ra)" height="73.6094" id="core.viper.ViperContract.Presenter" style="stroke: #A80036; stroke-width: 1.5;" width="225" x="812.5" y="347"/><ellipse cx="892.25" cy="363" fill="#B4A7E5" rx="11" ry="11" style="stroke: #A80036; stroke-width: 1.0;"/><path d="M893.2031,359.7813 L894.9219,359.7813 C895.3125,359.7813 895.5,359.75 895.625,359.6719 C895.8906,359.5156 896.0313,359.2344 896.0313,358.9375 C896.0313,358.6719 895.9219,358.4063 895.6875,358.2344 C895.5156,358.125 895.375,358.0938 894.9219,358.0938 L889.7813,358.0938 C889.3438,358.0938 889.2188,358.1094 889.0625,358.2031 C888.8125,358.3594 888.6563,358.6563 888.6563,358.9375 C888.6563,359.2188 888.7969,359.4688 889.0156,359.6406 C889.1719,359.75 889.3594,359.7813 889.7813,359.7813 L891.5,359.7813 L891.5,366.2969 L889.7813,366.2969 C889.3438,366.2969 889.2188,366.3125 889.0625,366.4219 C888.8125,366.5781 888.6563,366.8594 888.6563,367.1563 C888.6563,367.4063 888.7969,367.6719 889.0156,367.8281 C889.1719,367.9531 889.375,368 889.7813,368 L894.9219,368 C895.6719,368 896.0313,367.7188 896.0313,367.1563 C896.0313,366.875 895.9219,366.625 895.6875,366.4531 C895.5156,366.3281 895.375,366.2969 894.9219,366.2969 L893.2031,366.2969 L893.2031,359.7813 Z "/><text fill="#000000" font-family="sans-serif" font-size="12" font-style="italic" lengthAdjust="spacingAndGlyphs" textLength="57" x="912.75" y="367.1543">Presenter</text><line style="stroke: #A80036; stroke-width: 1.5;" x1="813.5" x2="1036.5" y1="379" y2="379"/><line style="stroke: #A80036; stroke-width: 1.5;" x1="813.5" x2="1036.5" y1="387" y2="387"/><ellipse cx="823.5" cy="398" fill="#84BE84" rx="3" ry="3" style="stroke: #038048; stroke-width: 1.0;"/><text fill="#000000" font-family="sans-serif" font-size="11" lengthAdjust="spacingAndGlyphs" textLength="199" x="832.5" y="401.2104">create(callback: PresenterCallback)</text><ellipse cx="823.5" cy="410.8047" fill="#84BE84" rx="3" ry="3" style="stroke: #038048; stroke-width: 1.0;"/><text fill="#000000" font-family="sans-serif" font-size="11" lengthAdjust="spacingAndGlyphs" textLength="51" x="832.5" y="414.0151">destroy()</text><!--MD5=[587da1590874ac044f3f2eaaedd1375f]
class core.viper.ViperContract.PresenterCallback--><rect codeLine="6" fill="#FEFECE" filter="url(#fyq0jtben7ra)" height="60.8047" id="core.viper.ViperContract.PresenterCallback" style="stroke: #A80036; stroke-width: 1.5;" width="144" x="832" y="209"/><ellipse cx="849.25" cy="225" fill="#B4A7E5" rx="11" ry="11" style="stroke: #A80036; stroke-width: 1.0;"/><path d="M850.2031,221.7813 L851.9219,221.7813 C852.3125,221.7813 852.5,221.75 852.625,221.6719 C852.8906,221.5156 853.0313,221.2344 853.0313,220.9375 C853.0313,220.6719 852.9219,220.4063 852.6875,220.2344 C852.5156,220.125 852.375,220.0938 851.9219,220.0938 L846.7813,220.0938 C846.3438,220.0938 846.2188,220.1094 846.0625,220.2031 C845.8125,220.3594 845.6563,220.6563 845.6563,220.9375 C845.6563,221.2188 845.7969,221.4688 846.0156,221.6406 C846.1719,221.75 846.3594,221.7813 846.7813,221.7813 L848.5,221.7813 L848.5,228.2969 L846.7813,228.2969 C846.3438,228.2969 846.2188,228.3125 846.0625,228.4219 C845.8125,228.5781 845.6563,228.8594 845.6563,229.1563 C845.6563,229.4063 845.7969,229.6719 846.0156,229.8281 C846.1719,229.9531 846.375,230 846.7813,230 L851.9219,230 C852.6719,230 853.0313,229.7188 853.0313,229.1563 C853.0313,228.875 852.9219,228.625 852.6875,228.4531 C852.5156,228.3281 852.375,228.2969 851.9219,228.2969 L850.2031,228.2969 L850.2031,221.7813 Z "/><text fill="#000000" font-family="sans-serif" font-size="12" font-style="italic" lengthAdjust="spacingAndGlyphs" textLength="107" x="863.75" y="229.1543">PresenterCallback</text><line style="stroke: #A80036; stroke-width: 1.5;" x1="833" x2="975" y1="241" y2="241"/><line style="stroke: #A80036; stroke-width: 1.5;" x1="833" x2="975" y1="249" y2="249"/><ellipse cx="843" cy="260" fill="#84BE84" rx="3" ry="3" style="stroke: #038048; stroke-width: 1.0;"/><text fill="#000000" font-family="sans-serif" font-size="11" lengthAdjust="spacingAndGlyphs" textLength="118" x="852" y="263.2104">getActivity(): Activity</text><!--MD5=[ec1a8c1a0905d2094598a56ebb97c9ab]
class core.viper.ViperContract.Interactor--><rect codeLine="9" fill="#FEFECE" filter="url(#fyq0jtben7ra)" height="73.6094" id="core.viper.ViperContract.Interactor" style="stroke: #A80036; stroke-width: 1.5;" width="224" x="812" y="626"/><ellipse cx="889.75" cy="642" fill="#B4A7E5" rx="11" ry="11" style="stroke: #A80036; stroke-width: 1.0;"/><path d="M890.7031,638.7813 L892.4219,638.7813 C892.8125,638.7813 893,638.75 893.125,638.6719 C893.3906,638.5156 893.5313,638.2344 893.5313,637.9375 C893.5313,637.6719 893.4219,637.4063 893.1875,637.2344 C893.0156,637.125 892.875,637.0938 892.4219,637.0938 L887.2813,637.0938 C886.8438,637.0938 886.7188,637.1094 886.5625,637.2031 C886.3125,637.3594 886.1563,637.6563 886.1563,637.9375 C886.1563,638.2188 886.2969,638.4688 886.5156,638.6406 C886.6719,638.75 886.8594,638.7813 887.2813,638.7813 L889,638.7813 L889,645.2969 L887.2813,645.2969 C886.8438,645.2969 886.7188,645.3125 886.5625,645.4219 C886.3125,645.5781 886.1563,645.8594 886.1563,646.1563 C886.1563,646.4063 886.2969,646.6719 886.5156,646.8281 C886.6719,646.9531 886.875,647 887.2813,647 L892.4219,647 C893.1719,647 893.5313,646.7188 893.5313,646.1563 C893.5313,645.875 893.4219,645.625 893.1875,645.4531 C893.0156,645.3281 892.875,645.2969 892.4219,645.2969 L890.7031,645.2969 L890.7031,638.7813 Z "/><text fill="#000000" font-family="sans-serif" font-size="12" font-style="italic" lengthAdjust="spacingAndGlyphs" textLength="60" x="910.25" y="646.1543">Interactor</text><line style="stroke: #A80036; stroke-width: 1.5;" x1="813" x2="1035" y1="658" y2="658"/><line style="stroke: #A80036; stroke-width: 1.5;" x1="813" x2="1035" y1="666" y2="666"/><ellipse cx="823" cy="677" fill="#84BE84" rx="3" ry="3" style="stroke: #038048; stroke-width: 1.0;"/><text fill="#000000" font-family="sans-serif" font-size="11" lengthAdjust="spacingAndGlyphs" textLength="198" x="832" y="680.2104">create(callback: InteractorCallback)</text><ellipse cx="823" cy="689.8047" fill="#84BE84" rx="3" ry="3" style="stroke: #038048; stroke-width: 1.0;"/><text fill="#000000" font-family="sans-serif" font-size="11" lengthAdjust="spacingAndGlyphs" textLength="51" x="832" y="693.0151">destroy()</text><!--MD5=[e77a630e059dc31e4db28b962d60c6d2]
class core.viper.ViperContract.InteractorCallback--><rect codeLine="13" fill="#FEFECE" filter="url(#fyq0jtben7ra)" height="48" id="core.viper.ViperContract.InteractorCallback" style="stroke: #A80036; stroke-width: 1.5;" width="142" x="853" y="488.5"/><ellipse cx="868" cy="504.5" fill="#B4A7E5" rx="11" ry="11" style="stroke: #A80036; stroke-width: 1.0;"/><path d="M868.9531,501.2813 L870.6719,501.2813 C871.0625,501.2813 871.25,501.25 871.375,501.1719 C871.6406,501.0156 871.7813,500.7344 871.7813,500.4375 C871.7813,500.1719 871.6719,499.9063 871.4375,499.7344 C871.2656,499.625 871.125,499.5938 870.6719,499.5938 L865.5313,499.5938 C865.0938,499.5938 864.9688,499.6094 864.8125,499.7031 C864.5625,499.8594 864.4063,500.1563 864.4063,500.4375 C864.4063,500.7188 864.5469,500.9688 864.7656,501.1406 C864.9219,501.25 865.1094,501.2813 865.5313,501.2813 L867.25,501.2813 L867.25,507.7969 L865.5313,507.7969 C865.0938,507.7969 864.9688,507.8125 864.8125,507.9219 C864.5625,508.0781 864.4063,508.3594 864.4063,508.6563 C864.4063,508.9063 864.5469,509.1719 864.7656,509.3281 C864.9219,509.4531 865.125,509.5 865.5313,509.5 L870.6719,509.5 C871.4219,509.5 871.7813,509.2188 871.7813,508.6563 C871.7813,508.375 871.6719,508.125 871.4375,507.9531 C871.2656,507.8281 871.125,507.7969 870.6719,507.7969 L868.9531,507.7969 L868.9531,501.2813 Z "/><text fill="#000000" font-family="sans-serif" font-size="12" font-style="italic" lengthAdjust="spacingAndGlyphs" textLength="110" x="882" y="508.6543">InteractorCallback</text><line style="stroke: #A80036; stroke-width: 1.5;" x1="854" x2="994" y1="520.5" y2="520.5"/><line style="stroke: #A80036; stroke-width: 1.5;" x1="854" x2="994" y1="528.5" y2="528.5"/><!--MD5=[1825269ddad9ed22789ebb49bf96ca62]
class core.viper.ViperContract.Router--><rect codeLine="14" fill="#FEFECE" filter="url(#fyq0jtben7ra)" height="48" id="core.viper.ViperContract.Router" style="stroke: #A80036; stroke-width: 1.5;" width="72" x="888" y="780.5"/><ellipse cx="903" cy="796.5" fill="#B4A7E5" rx="11" ry="11" style="stroke: #A80036; stroke-width: 1.0;"/><path d="M903.9531,793.2813 L905.6719,793.2813 C906.0625,793.2813 906.25,793.25 906.375,793.1719 C906.6406,793.0156 906.7813,792.7344 906.7813,792.4375 C906.7813,792.1719 906.6719,791.9063 906.4375,791.7344 C906.2656,791.625 906.125,791.5938 905.6719,791.5938 L900.5313,791.5938 C900.0938,791.5938 899.9688,791.6094 899.8125,791.7031 C899.5625,791.8594 899.4063,792.1563 899.4063,792.4375 C899.4063,792.7188 899.5469,792.9688 899.7656,793.1406 C899.9219,793.25 900.1094,793.2813 900.5313,793.2813 L902.25,793.2813 L902.25,799.7969 L900.5313,799.7969 C900.0938,799.7969 899.9688,799.8125 899.8125,799.9219 C899.5625,800.0781 899.4063,800.3594 899.4063,800.6563 C899.4063,800.9063 899.5469,801.1719 899.7656,801.3281 C899.9219,801.4531 900.125,801.5 900.5313,801.5 L905.6719,801.5 C906.4219,801.5 906.7813,801.2188 906.7813,800.6563 C906.7813,800.375 906.6719,800.125 906.4375,799.9531 C906.2656,799.8281 906.125,799.7969 905.6719,799.7969 L903.9531,799.7969 L903.9531,793.2813 Z "/><text fill="#000000" font-family="sans-serif" font-size="12" font-style="italic" lengthAdjust="spacingAndGlyphs" textLength="40" x="917" y="800.6543">Router</text><line style="stroke: #A80036; stroke-width: 1.5;" x1="889" x2="959" y1="812.5" y2="812.5"/><line style="stroke: #A80036; stroke-width: 1.5;" x1="889" x2="959" y1="820.5" y2="820.5"/><!--MD5=[70a7c83a782ac3748bb651aa09fb65d4]
class app.select.SelectActivity--><rect codeLine="43" fill="#FEFECE" filter="url(#fyq0jtben7ra)" height="86.4141" id="app.select.SelectActivity" style="stroke: #A80036; stroke-width: 1.5;" width="248" x="226" y="41"/><ellipse cx="305.25" cy="57" fill="#ADD1B2" rx="11" ry="11" style="stroke: #A80036; stroke-width: 1.0;"/><path d="M307.5938,52.6719 C306.6563,52.2344 306.0625,52.0938 305.1875,52.0938 C302.5625,52.0938 300.5625,54.1719 300.5625,56.8906 L300.5625,58.0156 C300.5625,60.5938 302.6719,62.4844 305.5625,62.4844 C306.7813,62.4844 307.9375,62.1875 308.6875,61.6406 C309.2656,61.2344 309.5938,60.7813 309.5938,60.3906 C309.5938,59.9375 309.2031,59.5469 308.7344,59.5469 C308.5156,59.5469 308.3125,59.625 308.125,59.8125 C307.6719,60.2969 307.6719,60.2969 307.4844,60.3906 C307.0625,60.6563 306.375,60.7813 305.6094,60.7813 C303.5625,60.7813 302.2656,59.6875 302.2656,57.9844 L302.2656,56.8906 C302.2656,55.1094 303.5156,53.7969 305.25,53.7969 C305.8281,53.7969 306.4375,53.9531 306.9063,54.2031 C307.3906,54.4844 307.5625,54.7031 307.6563,55.1094 C307.7188,55.5156 307.75,55.6406 307.8906,55.7656 C308.0313,55.9063 308.2656,56.0156 308.4844,56.0156 C308.75,56.0156 309.0156,55.875 309.1875,55.6563 C309.2969,55.5 309.3281,55.3125 309.3281,54.8906 L309.3281,53.4688 C309.3281,53.0313 309.3125,52.9063 309.2188,52.75 C309.0625,52.4844 308.7813,52.3438 308.4844,52.3438 C308.1875,52.3438 307.9844,52.4375 307.7656,52.75 L307.5938,52.6719 Z "/><text fill="#000000" font-family="sans-serif" font-size="12" lengthAdjust="spacingAndGlyphs" textLength="81" x="325.75" y="61.1543">SelectActivity</text><line style="stroke: #A80036; stroke-width: 1.5;" x1="227" x2="473" y1="73" y2="73"/><rect fill="none" height="6" style="stroke: #C82930; stroke-width: 1.0;" width="6" x="234" y="81"/><text fill="#000000" font-family="sans-serif" font-size="11" lengthAdjust="spacingAndGlyphs" textLength="211" x="246" y="87.2104">fragmentManager: FragmentManager</text><line style="stroke: #A80036; stroke-width: 1.5;" x1="227" x2="473" y1="93.8047" y2="93.8047"/><ellipse cx="237" cy="104.8047" fill="#84BE84" rx="3" ry="3" style="stroke: #038048; stroke-width: 1.0;"/><text fill="#000000" font-family="sans-serif" font-size="11" lengthAdjust="spacingAndGlyphs" textLength="222" x="246" y="108.0151">decidedAndFinishAlbum(album: Album)</text><rect fill="#F24D5C" height="6" style="stroke: #C82930; stroke-width: 1.0;" width="6" x="234" y="114.6094"/><text fill="#000000" font-family="sans-serif" font-size="11" lengthAdjust="spacingAndGlyphs" textLength="218" x="246" y="120.8198">replaceFragment(fragment: Fragment)</text><!--MD5=[00e31b6b37b4daeca188d2611a0c0985]
class app.select.SelectPresenter--><rect codeLine="48" fill="#FEFECE" filter="url(#fyq0jtben7ra)" height="48" id="app.select.SelectPresenter" style="stroke: #A80036; stroke-width: 1.5;" width="128" x="228" y="360"/><ellipse cx="243" cy="376" fill="#ADD1B2" rx="11" ry="11" style="stroke: #A80036; stroke-width: 1.0;"/><path d="M245.3438,371.6719 C244.4063,371.2344 243.8125,371.0938 242.9375,371.0938 C240.3125,371.0938 238.3125,373.1719 238.3125,375.8906 L238.3125,377.0156 C238.3125,379.5938 240.4219,381.4844 243.3125,381.4844 C244.5313,381.4844 245.6875,381.1875 246.4375,380.6406 C247.0156,380.2344 247.3438,379.7813 247.3438,379.3906 C247.3438,378.9375 246.9531,378.5469 246.4844,378.5469 C246.2656,378.5469 246.0625,378.625 245.875,378.8125 C245.4219,379.2969 245.4219,379.2969 245.2344,379.3906 C244.8125,379.6563 244.125,379.7813 243.3594,379.7813 C241.3125,379.7813 240.0156,378.6875 240.0156,376.9844 L240.0156,375.8906 C240.0156,374.1094 241.2656,372.7969 243,372.7969 C243.5781,372.7969 244.1875,372.9531 244.6563,373.2031 C245.1406,373.4844 245.3125,373.7031 245.4063,374.1094 C245.4688,374.5156 245.5,374.6406 245.6406,374.7656 C245.7813,374.9063 246.0156,375.0156 246.2344,375.0156 C246.5,375.0156 246.7656,374.875 246.9375,374.6563 C247.0469,374.5 247.0781,374.3125 247.0781,373.8906 L247.0781,372.4688 C247.0781,372.0313 247.0625,371.9063 246.9688,371.75 C246.8125,371.4844 246.5313,371.3438 246.2344,371.3438 C245.9375,371.3438 245.7344,371.4375 245.5156,371.75 L245.3438,371.6719 Z "/><text fill="#000000" font-family="sans-serif" font-size="12" lengthAdjust="spacingAndGlyphs" textLength="96" x="257" y="380.1543">SelectPresenter</text><line style="stroke: #A80036; stroke-width: 1.5;" x1="229" x2="355" y1="392" y2="392"/><line style="stroke: #A80036; stroke-width: 1.5;" x1="229" x2="355" y1="400" y2="400"/><!--MD5=[f96b8487255f796efee142da613d866c]
class app.select.SelectInteractor--><rect codeLine="49" fill="#FEFECE" filter="url(#fyq0jtben7ra)" height="86.4141" id="app.select.SelectInteractor" style="stroke: #A80036; stroke-width: 1.5;" width="324" x="32" y="620"/><ellipse cx="141.75" cy="636" fill="#ADD1B2" rx="11" ry="11" style="stroke: #A80036; stroke-width: 1.0;"/><path d="M144.0938,631.6719 C143.1563,631.2344 142.5625,631.0938 141.6875,631.0938 C139.0625,631.0938 137.0625,633.1719 137.0625,635.8906 L137.0625,637.0156 C137.0625,639.5938 139.1719,641.4844 142.0625,641.4844 C143.2813,641.4844 144.4375,641.1875 145.1875,640.6406 C145.7656,640.2344 146.0938,639.7813 146.0938,639.3906 C146.0938,638.9375 145.7031,638.5469 145.2344,638.5469 C145.0156,638.5469 144.8125,638.625 144.625,638.8125 C144.1719,639.2969 144.1719,639.2969 143.9844,639.3906 C143.5625,639.6563 142.875,639.7813 142.1094,639.7813 C140.0625,639.7813 138.7656,638.6875 138.7656,636.9844 L138.7656,635.8906 C138.7656,634.1094 140.0156,632.7969 141.75,632.7969 C142.3281,632.7969 142.9375,632.9531 143.4063,633.2031 C143.8906,633.4844 144.0625,633.7031 144.1563,634.1094 C144.2188,634.5156 144.25,634.6406 144.3906,634.7656 C144.5313,634.9063 144.7656,635.0156 144.9844,635.0156 C145.25,635.0156 145.5156,634.875 145.6875,634.6563 C145.7969,634.5 145.8281,634.3125 145.8281,633.8906 L145.8281,632.4688 C145.8281,632.0313 145.8125,631.9063 145.7188,631.75 C145.5625,631.4844 145.2813,631.3438 144.9844,631.3438 C144.6875,631.3438 144.4844,631.4375 144.2656,631.75 L144.0938,631.6719 Z "/><text fill="#000000" font-family="sans-serif" font-size="12" lengthAdjust="spacingAndGlyphs" textLength="96" x="162.25" y="640.1543">SelectInteractor</text><line style="stroke: #A80036; stroke-width: 1.5;" x1="33" x2="355" y1="652" y2="652"/><rect fill="none" height="6" style="stroke: #C82930; stroke-width: 1.0;" width="6" x="40" y="660"/><text fill="#000000" font-family="sans-serif" font-size="11" lengthAdjust="spacingAndGlyphs" textLength="160" x="52" y="666.2104">appDatabase: AppDatabase</text><rect fill="none" height="6" style="stroke: #C82930; stroke-width: 1.0;" width="6" x="40" y="672.8047"/><text fill="#000000" font-family="sans-serif" font-size="11" lengthAdjust="spacingAndGlyphs" textLength="187" x="52" y="679.0151">googleWebApis: GoogleWebApis</text><line style="stroke: #A80036; stroke-width: 1.5;" x1="33" x2="355" y1="685.6094" y2="685.6094"/><rect fill="#F24D5C" height="6" style="stroke: #C82930; stroke-width: 1.0;" width="6" x="40" y="693.6094"/><text fill="#000000" font-family="sans-serif" font-size="11" font-weight="bold" lengthAdjust="spacingAndGlyphs" textLength="64" x="52" y="699.8198">[suspend]</text><text fill="#000000" font-family="sans-serif" font-size="11" lengthAdjust="spacingAndGlyphs" textLength="230" x="120" y="699.8198">loadSharedAlbumsResult(): List&lt;Album&gt;</text><!--MD5=[dfa1f81480c24203dc41db8ece4b4711]
class app.select.SelectContract.Presenter--><rect codeLine="25" fill="#FEFECE" filter="url(#fyq0jtben7ra)" height="60.8047" id="app.select.SelectContract.Presenter" style="stroke: #A80036; stroke-width: 1.5;" width="188" x="466" y="353.5"/><ellipse cx="527.25" cy="369.5" fill="#B4A7E5" rx="11" ry="11" style="stroke: #A80036; stroke-width: 1.0;"/><path d="M528.2031,366.2813 L529.9219,366.2813 C530.3125,366.2813 530.5,366.25 530.625,366.1719 C530.8906,366.0156 531.0313,365.7344 531.0313,365.4375 C531.0313,365.1719 530.9219,364.9063 530.6875,364.7344 C530.5156,364.625 530.375,364.5938 529.9219,364.5938 L524.7813,364.5938 C524.3438,364.5938 524.2188,364.6094 524.0625,364.7031 C523.8125,364.8594 523.6563,365.1563 523.6563,365.4375 C523.6563,365.7188 523.7969,365.9688 524.0156,366.1406 C524.1719,366.25 524.3594,366.2813 524.7813,366.2813 L526.5,366.2813 L526.5,372.7969 L524.7813,372.7969 C524.3438,372.7969 524.2188,372.8125 524.0625,372.9219 C523.8125,373.0781 523.6563,373.3594 523.6563,373.6563 C523.6563,373.9063 523.7969,374.1719 524.0156,374.3281 C524.1719,374.4531 524.375,374.5 524.7813,374.5 L529.9219,374.5 C530.6719,374.5 531.0313,374.2188 531.0313,373.6563 C531.0313,373.375 530.9219,373.125 530.6875,372.9531 C530.5156,372.8281 530.375,372.7969 529.9219,372.7969 L528.2031,372.7969 L528.2031,366.2813 Z "/><text fill="#000000" font-family="sans-serif" font-size="12" font-style="italic" lengthAdjust="spacingAndGlyphs" textLength="57" x="547.75" y="373.6543">Presenter</text><line style="stroke: #A80036; stroke-width: 1.5;" x1="467" x2="653" y1="385.5" y2="385.5"/><line style="stroke: #A80036; stroke-width: 1.5;" x1="467" x2="653" y1="393.5" y2="393.5"/><ellipse cx="477" cy="404.5" fill="#84BE84" rx="3" ry="3" style="stroke: #038048; stroke-width: 1.0;"/><text fill="#000000" font-family="sans-serif" font-size="11" lengthAdjust="spacingAndGlyphs" textLength="162" x="486" y="407.7104">requestLoadSharedAlbums()</text><!--MD5=[e8239d60d739d9bdfcfc1a5595a747d4]
class app.select.SelectContract.PresenterCallback--><rect codeLine="28" fill="#FEFECE" filter="url(#fyq0jtben7ra)" height="60.8047" id="app.select.SelectContract.PresenterCallback" style="stroke: #A80036; stroke-width: 1.5;" width="344" x="388" y="209"/><ellipse cx="502.25" cy="225" fill="#B4A7E5" rx="11" ry="11" style="stroke: #A80036; stroke-width: 1.0;"/><path d="M503.2031,221.7813 L504.9219,221.7813 C505.3125,221.7813 505.5,221.75 505.625,221.6719 C505.8906,221.5156 506.0313,221.2344 506.0313,220.9375 C506.0313,220.6719 505.9219,220.4063 505.6875,220.2344 C505.5156,220.125 505.375,220.0938 504.9219,220.0938 L499.7813,220.0938 C499.3438,220.0938 499.2188,220.1094 499.0625,220.2031 C498.8125,220.3594 498.6563,220.6563 498.6563,220.9375 C498.6563,221.2188 498.7969,221.4688 499.0156,221.6406 C499.1719,221.75 499.3594,221.7813 499.7813,221.7813 L501.5,221.7813 L501.5,228.2969 L499.7813,228.2969 C499.3438,228.2969 499.2188,228.3125 499.0625,228.4219 C498.8125,228.5781 498.6563,228.8594 498.6563,229.1563 C498.6563,229.4063 498.7969,229.6719 499.0156,229.8281 C499.1719,229.9531 499.375,230 499.7813,230 L504.9219,230 C505.6719,230 506.0313,229.7188 506.0313,229.1563 C506.0313,228.875 505.9219,228.625 505.6875,228.4531 C505.5156,228.3281 505.375,228.2969 504.9219,228.2969 L503.2031,228.2969 L503.2031,221.7813 Z "/><text fill="#000000" font-family="sans-serif" font-size="12" font-style="italic" lengthAdjust="spacingAndGlyphs" textLength="107" x="522.75" y="229.1543">PresenterCallback</text><line style="stroke: #A80036; stroke-width: 1.5;" x1="389" x2="731" y1="241" y2="241"/><line style="stroke: #A80036; stroke-width: 1.5;" x1="389" x2="731" y1="249" y2="249"/><ellipse cx="399" cy="260" fill="#84BE84" rx="3" ry="3" style="stroke: #038048; stroke-width: 1.0;"/><text fill="#000000" font-family="sans-serif" font-size="11" lengthAdjust="spacingAndGlyphs" textLength="318" x="408" y="263.2104">requestLoadSharedAlbumsResult(albums: List&lt;Album&gt;)</text><!--MD5=[95ea448edb68bb8b8ff8097bebb48fe0]
class app.select.SelectContract.Interactor--><rect codeLine="31" fill="#FEFECE" filter="url(#fyq0jtben7ra)" height="60.8047" id="app.select.SelectContract.Interactor" style="stroke: #A80036; stroke-width: 1.5;" width="188" x="466" y="632.5"/><ellipse cx="525.75" cy="648.5" fill="#B4A7E5" rx="11" ry="11" style="stroke: #A80036; stroke-width: 1.0;"/><path d="M526.7031,645.2813 L528.4219,645.2813 C528.8125,645.2813 529,645.25 529.125,645.1719 C529.3906,645.0156 529.5313,644.7344 529.5313,644.4375 C529.5313,644.1719 529.4219,643.9063 529.1875,643.7344 C529.0156,643.625 528.875,643.5938 528.4219,643.5938 L523.2813,643.5938 C522.8438,643.5938 522.7188,643.6094 522.5625,643.7031 C522.3125,643.8594 522.1563,644.1563 522.1563,644.4375 C522.1563,644.7188 522.2969,644.9688 522.5156,645.1406 C522.6719,645.25 522.8594,645.2813 523.2813,645.2813 L525,645.2813 L525,651.7969 L523.2813,651.7969 C522.8438,651.7969 522.7188,651.8125 522.5625,651.9219 C522.3125,652.0781 522.1563,652.3594 522.1563,652.6563 C522.1563,652.9063 522.2969,653.1719 522.5156,653.3281 C522.6719,653.4531 522.875,653.5 523.2813,653.5 L528.4219,653.5 C529.1719,653.5 529.5313,653.2188 529.5313,652.6563 C529.5313,652.375 529.4219,652.125 529.1875,651.9531 C529.0156,651.8281 528.875,651.7969 528.4219,651.7969 L526.7031,651.7969 L526.7031,645.2813 Z "/><text fill="#000000" font-family="sans-serif" font-size="12" font-style="italic" lengthAdjust="spacingAndGlyphs" textLength="60" x="546.25" y="652.6543">Interactor</text><line style="stroke: #A80036; stroke-width: 1.5;" x1="467" x2="653" y1="664.5" y2="664.5"/><line style="stroke: #A80036; stroke-width: 1.5;" x1="467" x2="653" y1="672.5" y2="672.5"/><ellipse cx="477" cy="683.5" fill="#84BE84" rx="3" ry="3" style="stroke: #038048; stroke-width: 1.0;"/><text fill="#000000" font-family="sans-serif" font-size="11" lengthAdjust="spacingAndGlyphs" textLength="162" x="486" y="686.7104">requestLoadSharedAlbums()</text><!--MD5=[71c3da3d5e7f638828af9d23efad60c6]
class app.select.SelectContract.InteractorCallback--><rect codeLine="34" fill="#FEFECE" filter="url(#fyq0jtben7ra)" height="60.8047" id="app.select.SelectContract.InteractorCallback" style="stroke: #A80036; stroke-width: 1.5;" width="344" x="388" y="482"/><ellipse cx="500.75" cy="498" fill="#B4A7E5" rx="11" ry="11" style="stroke: #A80036; stroke-width: 1.0;"/><path d="M501.7031,494.7813 L503.4219,494.7813 C503.8125,494.7813 504,494.75 504.125,494.6719 C504.3906,494.5156 504.5313,494.2344 504.5313,493.9375 C504.5313,493.6719 504.4219,493.4063 504.1875,493.2344 C504.0156,493.125 503.875,493.0938 503.4219,493.0938 L498.2813,493.0938 C497.8438,493.0938 497.7188,493.1094 497.5625,493.2031 C497.3125,493.3594 497.1563,493.6563 497.1563,493.9375 C497.1563,494.2188 497.2969,494.4688 497.5156,494.6406 C497.6719,494.75 497.8594,494.7813 498.2813,494.7813 L500,494.7813 L500,501.2969 L498.2813,501.2969 C497.8438,501.2969 497.7188,501.3125 497.5625,501.4219 C497.3125,501.5781 497.1563,501.8594 497.1563,502.1563 C497.1563,502.4063 497.2969,502.6719 497.5156,502.8281 C497.6719,502.9531 497.875,503 498.2813,503 L503.4219,503 C504.1719,503 504.5313,502.7188 504.5313,502.1563 C504.5313,501.875 504.4219,501.625 504.1875,501.4531 C504.0156,501.3281 503.875,501.2969 503.4219,501.2969 L501.7031,501.2969 L501.7031,494.7813 Z "/><text fill="#000000" font-family="sans-serif" font-size="12" font-style="italic" lengthAdjust="spacingAndGlyphs" textLength="110" x="521.25" y="502.1543">InteractorCallback</text><line style="stroke: #A80036; stroke-width: 1.5;" x1="389" x2="731" y1="514" y2="514"/><line style="stroke: #A80036; stroke-width: 1.5;" x1="389" x2="731" y1="522" y2="522"/><ellipse cx="399" cy="533" fill="#84BE84" rx="3" ry="3" style="stroke: #038048; stroke-width: 1.0;"/><text fill="#000000" font-family="sans-serif" font-size="11" lengthAdjust="spacingAndGlyphs" textLength="318" x="408" y="536.2104">requestLoadSharedAlbumsResult(albums: List&lt;Album&gt;)</text><!--MD5=[87f8738a1428cad8e95c20e665af5898]
link core.viper.ViperContract.PresenterCallback to core.viper.ViperContract.Presenter--><!--MD5=[6573e0256b6fb7c6a0505a89fdc8309d]
link core.viper.ViperContract.Presenter to core.viper.ViperContract.InteractorCallback--><!--MD5=[f8d939142a6dbc42db09fcc57fec4775]
link core.viper.ViperContract.InteractorCallback to core.viper.ViperContract.Interactor--><!--MD5=[37f12353853fdc756113b71d7b56ae43]
link core.viper.ViperContract.Interactor to core.viper.ViperContract.Router--><!--MD5=[028b06ff1961b9fc1a5ce4af78f578c5]
link app.select.SelectContract.PresenterCallback to app.select.SelectContract.Presenter--><!--MD5=[a9a5a8fa94f1fb890d1a68c44cc54a78]
link app.select.SelectContract.Presenter to app.select.SelectContract.InteractorCallback--><!--MD5=[20ae6cf727b9f0c05f2f55f042f86ed0]
link app.select.SelectContract.InteractorCallback to app.select.SelectContract.Interactor--><!--MD5=[0a951a5b0a28d7e157ef54e87e3f2deb]
reverse link app.select.SelectActivity to app.select.SelectPresenter--><path codeLine="55" d="M308.418,138.438 C303.361,147.241 298.947,156.579 296,166 C274.792,233.787 282.647,319.4 288.264,359.835 " fill="none" id="app.select.SelectActivity-backto-app.select.SelectPresenter" style="stroke: #A80036; stroke-width: 1.0;"/><polygon fill="#FFFFFF" points="315.367,127.211,308.8077,130.2069,309.0503,137.4139,315.6096,134.418,315.367,127.211" style="stroke: #A80036; stroke-width: 1.0;"/><rect fill="none" height="6" style="stroke: #C82930; stroke-width: 1.0;" width="6" x="299" y="237.0664"/><text fill="#000000" font-family="sans-serif" font-size="13" lengthAdjust="spacingAndGlyphs" textLength="62" x="309" y="244.0669">presenter</text><!--MD5=[60a02d9a398a04492669dbfe7d016817]
reverse link app.select.SelectPresenter to app.select.SelectInteractor--><path codeLine="56" d="M279.474,420.405 C261.468,471.301 228.316,565.005 209.018,619.55 " fill="none" id="app.select.SelectPresenter-backto-app.select.SelectInteractor" style="stroke: #A80036; stroke-width: 1.0;"/><polygon fill="#FFFFFF" points="283.813,408.14,278.0405,412.4618,279.8096,419.4525,285.5822,415.1307,283.813,408.14" style="stroke: #A80036; stroke-width: 1.0;"/><rect fill="none" height="6" style="stroke: #C82930; stroke-width: 1.0;" width="6" x="261" y="510.0664"/><text fill="#000000" font-family="sans-serif" font-size="13" lengthAdjust="spacingAndGlyphs" textLength="62" x="271" y="517.0669">interactor</text><!--MD5=[5551df2b55517645c6806554f920f425]
link app.select.SelectPresenter to app.select.SelectContract.Presenter--><path codeLine="58" d="M356.121,384 C385.921,384 415.722,384 445.522,384 " fill="none" id="app.select.SelectPresenter-to-app.select.SelectContract.Presenter" style="stroke: #A80036; stroke-width: 1.0; stroke-dasharray: 7.0,7.0;"/><polygon fill="none" points="445.626,377,465.626,384,445.626,391,445.626,377" style="stroke: #A80036; stroke-width: 1.0;"/><!--MD5=[d4b218f642573585c6fdb8b18bf0b38c]
link app.select.SelectInteractor to app.select.SelectContract.Interactor--><path codeLine="59" d="M356.27,663 C386.048,663 415.827,663 445.605,663 " fill="none" id="app.select.SelectInteractor-to-app.select.SelectContract.Interactor" style="stroke: #A80036; stroke-width: 1.0; stroke-dasharray: 7.0,7.0;"/><polygon fill="none" points="445.695,656,465.695,663,445.695,670,445.695,656" style="stroke: #A80036; stroke-width: 1.0;"/><!--MD5=[518b0a590f095178bb709d2f71f736a5]
link app.select.SelectContract.PresenterCallback to app.select.SelectPresenter--><path codeLine="61" d="M504.47,270.026 C458.35,294.549 393.081,329.254 347.085,353.711 " fill="none" id="app.select.SelectContract.PresenterCallback-to-app.select.SelectPresenter" style="stroke: #A80036; stroke-width: 1.0;"/><polygon fill="#FFFFFF" points="335.536,359.851,342.7116,360.5655,346.131,354.2166,338.9554,353.5021,335.536,359.851" style="stroke: #A80036; stroke-width: 1.0;"/><text fill="#000000" font-family="sans-serif" font-size="13" lengthAdjust="spacingAndGlyphs" textLength="51" x="444" y="313.0669">callback</text><!--MD5=[c6e90a6ddb3291989ca48a3d33888b24]
link app.select.SelectContract.InteractorCallback to app.select.SelectInteractor--><path codeLine="62" d="M487.253,543.016 C436.65,563.548 368.116,591.355 310.026,614.924 " fill="none" id="app.select.SelectContract.InteractorCallback-to-app.select.SelectInteractor" style="stroke: #A80036; stroke-width: 1.0;"/><polygon fill="#FFFFFF" points="297.799,619.885,304.8628,621.3351,308.9182,615.3724,301.8544,613.9223,297.799,619.885" style="stroke: #A80036; stroke-width: 1.0;"/><text fill="#000000" font-family="sans-serif" font-size="13" lengthAdjust="spacingAndGlyphs" textLength="51" x="411" y="586.0669">callback</text><!--MD5=[80c17066294f72997424444c7f7ac85c]
link app.select.SelectActivity to app.select.SelectContract.PresenterCallback--><path codeLine="64" d="M407.661,127.148 C437.438,148.913 473.639,175.374 503.279,197.04 " fill="none" id="app.select.SelectActivity-to-app.select.SelectContract.PresenterCallback" style="stroke: #A80036; stroke-width: 1.0; stroke-dasharray: 7.0,7.0;"/><polygon fill="none" points="507.415,191.392,519.43,208.845,499.153,202.694,507.415,191.392" style="stroke: #A80036; stroke-width: 1.0;"/><!--MD5=[e3e52e999eda5a49de1f11ab0967e13b]
link app.select.SelectPresenter to app.select.SelectContract.InteractorCallback--><path codeLine="65" d="M340.844,408.055 C379.372,426.241 433.938,451.997 478.983,473.259 " fill="none" id="app.select.SelectPresenter-to-app.select.SelectContract.InteractorCallback" style="stroke: #A80036; stroke-width: 1.0; stroke-dasharray: 7.0,7.0;"/><polygon fill="none" points="482.212,467.042,497.311,481.91,476.236,479.703,482.212,467.042" style="stroke: #A80036; stroke-width: 1.0;"/><!--MD5=[e176c1425056e5fee4882b263f613b37]
link app.select.SelectContract.PresenterCallback to core.viper.ViperContract.PresenterCallback--><path codeLine="68" d="M732.336,239.5 C758.786,239.5 785.237,239.5 811.688,239.5 " fill="none" id="app.select.SelectContract.PresenterCallback-to-core.viper.ViperContract.PresenterCallback" style="stroke: #A80036; stroke-width: 1.0; stroke-dasharray: 7.0,7.0;"/><polygon fill="none" points="811.915,232.5,831.915,239.5,811.914,246.5,811.915,232.5" style="stroke: #A80036; stroke-width: 1.0;"/><!--MD5=[8ee638c6ad8240d869dffc326c5b7c9b]
link app.select.SelectContract.Presenter to core.viper.ViperContract.Presenter--><path codeLine="69" d="M654.102,384 C700.14,384 746.179,384 792.218,384 " fill="none" id="app.select.SelectContract.Presenter-to-core.viper.ViperContract.Presenter" style="stroke: #A80036; stroke-width: 1.0; stroke-dasharray: 7.0,7.0;"/><polygon fill="none" points="792.302,377,812.302,384,792.302,391,792.302,377" style="stroke: #A80036; stroke-width: 1.0;"/><!--MD5=[1784da9b977aec65d41ef14fa682d2fd]
link app.select.SelectContract.InteractorCallback to core.viper.ViperContract.InteractorCallback--><path codeLine="70" d="M732.047,512.5 C765.528,512.5 799.009,512.5 832.49,512.5 " fill="none" id="app.select.SelectContract.InteractorCallback-to-core.viper.ViperContract.InteractorCallback" style="stroke: #A80036; stroke-width: 1.0; stroke-dasharray: 7.0,7.0;"/><polygon fill="none" points="832.767,505.5,852.767,512.5,832.767,519.5,832.767,505.5" style="stroke: #A80036; stroke-width: 1.0;"/><!--MD5=[ad32ad27463354ecb5a4488686ec8cd9]
link app.select.SelectContract.Interactor to core.viper.ViperContract.Interactor--><path codeLine="71" d="M654.199,663 C700.051,663 745.904,663 791.756,663 " fill="none" id="app.select.SelectContract.Interactor-to-core.viper.ViperContract.Interactor" style="stroke: #A80036; stroke-width: 1.0; stroke-dasharray: 7.0,7.0;"/><polygon fill="none" points="791.759,656,811.759,663,791.759,670,791.759,656" style="stroke: #A80036; stroke-width: 1.0;"/><!--MD5=[19e833bd9d2d9f4b03eaa9d56682e07e]
@startuml
namespace core.viper.ViperContract #DDDDDD {
  interface Presenter {
    + create(callback: PresenterCallback)
    + destroy()
  }
  interface PresenterCallback {
    + getActivity(): Activity
  }
  interface Interactor {
    + create(callback: InteractorCallback)
    + destroy()
  }
  interface InteractorCallback
  interface Router

  PresenterCallback -[hidden]-> Presenter
  Presenter -[hidden]-> InteractorCallback
  InteractorCallback -[hidden]-> Interactor
  Interactor -[hidden]-> Router
}

namespace app.select #FFFFEE {

  namespace app.select.SelectContract #EEEEEE {
    interface Presenter {
      + requestLoadSharedAlbums()
    }
    interface PresenterCallback {
      + requestLoadSharedAlbumsResult(albums: List<Album>)
    }
    interface Interactor {
      + requestLoadSharedAlbums()
    }
    interface InteractorCallback {
      + requestLoadSharedAlbumsResult(albums: List<Album>)
    }

    PresenterCallback -[hidden]-> Presenter
    Presenter -[hidden]-> InteractorCallback
    InteractorCallback -[hidden]-> Interactor
  }

  class SelectActivity {
    - fragmentManager: FragmentManager
    + decidedAndFinishAlbum(album: Album)
    - replaceFragment(fragment: Fragment)
  }
  class SelectPresenter
  class SelectInteractor {
    - appDatabase: AppDatabase
    - googleWebApis: GoogleWebApis
    - <b>[suspend]</b> loadSharedAlbumsResult(): List<Album>
  }

  SelectActivity o-down- - SelectPresenter: - presenter
  SelectPresenter o-down- - SelectInteractor: - interactor

  SelectPresenter .right.|> app.select.SelectContract.Presenter
  SelectInteractor .right.|> app.select.SelectContract.Interactor

  SelectPresenter o-up- app.select.SelectContract.PresenterCallback: - callback
  SelectInteractor o-up- app.select.SelectContract.InteractorCallback: - callback

  SelectActivity .down.|> app.select.SelectContract.PresenterCallback
  SelectPresenter .down.|> app.select.SelectContract.InteractorCallback
}

app.select.SelectContract.PresenterCallback .right.|> core.viper.ViperContract.PresenterCallback
app.select.SelectContract.Presenter .right.|> core.viper.ViperContract.Presenter
app.select.SelectContract.InteractorCallback .right.|> core.viper.ViperContract.InteractorCallback
app.select.SelectContract.Interactor .right.|> core.viper.ViperContract.Interactor
@enduml

PlantUML version 1.2020.17beta5(Unknown compile time)
(GPL source distribution)
Java Runtime: Java(TM) SE Runtime Environment
JVM: Java HotSpot(TM) 64-Bit Server VM
Default Encoding: UTF-8
Language: en
Country: US
--></g></svg>