<?xml version="1.0" encoding="UTF-8" standalone="no"?><svg xmlns="http://www.w3.org/2000/svg" xmlns:xlink="http://www.w3.org/1999/xlink" contentScriptType="application/ecmascript" contentStyleType="text/css" height="838px" preserveAspectRatio="none" style="width:966px;height:838px;" version="1.1" viewBox="0 0 966 838" width="966px" zoomAndPan="magnify"><defs><filter height="300%" id="fnybsyh2t64xr" width="300%" x="-1" y="-1"><feGaussianBlur result="blurOut" stdDeviation="2.0"/><feColorMatrix in="blurOut" result="blurOut2" type="matrix" values="0 0 0 0 0 0 0 0 0 0 0 0 0 0 0 0 0 0 .4 0"/><feOffset dx="4.0" dy="4.0" in="blurOut2" result="blurOut3"/><feBlend in="SourceGraphic" in2="blurOut3" mode="normal"/></filter></defs><g><!--MD5=[6834d4c3e4960f6dbfe701b70c07ed62]
cluster core.viper.ViperContract--><polygon fill="#DDDDDD" filter="url(#fnybsyh2t64xr)" points="686,162,891,162,898,184.2969,944,184.2969,944,826.5,686,826.5,686,162" style="stroke: #000000; stroke-width: 1.5;"/><line style="stroke: #000000; stroke-width: 1.5;" x1="686" x2="898" y1="184.2969" y2="184.2969"/><text fill="#000000" font-family="sans-serif" font-size="14" font-weight="bold" lengthAdjust="spacingAndGlyphs" textLength="199" x="690" y="176.9951">core.viper.ViperContract</text><!--MD5=[7a08b7a9b7c5a66cec74140dc3e6787f]
cluster app.select--><polygon fill="#FFFFEE" filter="url(#fnybsyh2t64xr)" points="16,6,106,6,113,28.2969,662,28.2969,662,715.5,16,715.5,16,6" style="stroke: #000000; stroke-width: 1.5;"/><line style="stroke: #000000; stroke-width: 1.5;" x1="16" x2="113" y1="28.2969" y2="28.2969"/><text fill="#000000" font-family="sans-serif" font-size="14" font-weight="bold" lengthAdjust="spacingAndGlyphs" textLength="84" x="20" y="20.9951">app.select</text><!--MD5=[5bae7a127275ee2f2f32bef544ec2513]
cluster app.select.SelectContract--><polygon fill="#EEEEEE" filter="url(#fnybsyh2t64xr)" points="262,162,390,162,397,184.2969,638,184.2969,638,691.5,262,691.5,262,162" style="stroke: #000000; stroke-width: 1.5;"/><line style="stroke: #000000; stroke-width: 1.5;" x1="262" x2="397" y1="184.2969" y2="184.2969"/><text fill="#000000" font-family="sans-serif" font-size="14" font-weight="bold" lengthAdjust="spacingAndGlyphs" textLength="122" x="266" y="176.9951">SelectContract</text><!--MD5=[a73abe5de16d4ae8f7cebc11a3c6e1fe]
class core.viper.ViperContract.Presenter--><rect codeLine="2" fill="#FEFECE" filter="url(#fnybsyh2t64xr)" height="73.6094" id="core.viper.ViperContract.Presenter" style="stroke: #A80036; stroke-width: 1.5;" width="225" x="702.5" y="335"/><ellipse cx="782.25" cy="351" fill="#B4A7E5" rx="11" ry="11" style="stroke: #A80036; stroke-width: 1.0;"/><path d="M783.2031,347.7813 L784.9219,347.7813 C785.3125,347.7813 785.5,347.75 785.625,347.6719 C785.8906,347.5156 786.0313,347.2344 786.0313,346.9375 C786.0313,346.6719 785.9219,346.4063 785.6875,346.2344 C785.5156,346.125 785.375,346.0938 784.9219,346.0938 L779.7813,346.0938 C779.3438,346.0938 779.2188,346.1094 779.0625,346.2031 C778.8125,346.3594 778.6563,346.6563 778.6563,346.9375 C778.6563,347.2188 778.7969,347.4688 779.0156,347.6406 C779.1719,347.75 779.3594,347.7813 779.7813,347.7813 L781.5,347.7813 L781.5,354.2969 L779.7813,354.2969 C779.3438,354.2969 779.2188,354.3125 779.0625,354.4219 C778.8125,354.5781 778.6563,354.8594 778.6563,355.1563 C778.6563,355.4063 778.7969,355.6719 779.0156,355.8281 C779.1719,355.9531 779.375,356 779.7813,356 L784.9219,356 C785.6719,356 786.0313,355.7188 786.0313,355.1563 C786.0313,354.875 785.9219,354.625 785.6875,354.4531 C785.5156,354.3281 785.375,354.2969 784.9219,354.2969 L783.2031,354.2969 L783.2031,347.7813 Z "/><text fill="#000000" font-family="sans-serif" font-size="12" font-style="italic" lengthAdjust="spacingAndGlyphs" textLength="57" x="802.75" y="355.1543">Presenter</text><line style="stroke: #A80036; stroke-width: 1.5;" x1="703.5" x2="926.5" y1="367" y2="367"/><line style="stroke: #A80036; stroke-width: 1.5;" x1="703.5" x2="926.5" y1="375" y2="375"/><ellipse cx="713.5" cy="386" fill="#84BE84" rx="3" ry="3" style="stroke: #038048; stroke-width: 1.0;"/><text fill="#000000" font-family="sans-serif" font-size="11" lengthAdjust="spacingAndGlyphs" textLength="199" x="722.5" y="389.2104">create(callback: PresenterCallback)</text><ellipse cx="713.5" cy="398.8047" fill="#84BE84" rx="3" ry="3" style="stroke: #038048; stroke-width: 1.0;"/><text fill="#000000" font-family="sans-serif" font-size="11" lengthAdjust="spacingAndGlyphs" textLength="51" x="722.5" y="402.0151">destroy()</text><!--MD5=[587da1590874ac044f3f2eaaedd1375f]
class core.viper.ViperContract.PresenterCallback--><rect codeLine="6" fill="#FEFECE" filter="url(#fnybsyh2t64xr)" height="60.8047" id="core.viper.ViperContract.PresenterCallback" style="stroke: #A80036; stroke-width: 1.5;" width="144" x="722" y="197"/><ellipse cx="739.25" cy="213" fill="#B4A7E5" rx="11" ry="11" style="stroke: #A80036; stroke-width: 1.0;"/><path d="M740.2031,209.7813 L741.9219,209.7813 C742.3125,209.7813 742.5,209.75 742.625,209.6719 C742.8906,209.5156 743.0313,209.2344 743.0313,208.9375 C743.0313,208.6719 742.9219,208.4063 742.6875,208.2344 C742.5156,208.125 742.375,208.0938 741.9219,208.0938 L736.7813,208.0938 C736.3438,208.0938 736.2188,208.1094 736.0625,208.2031 C735.8125,208.3594 735.6563,208.6563 735.6563,208.9375 C735.6563,209.2188 735.7969,209.4688 736.0156,209.6406 C736.1719,209.75 736.3594,209.7813 736.7813,209.7813 L738.5,209.7813 L738.5,216.2969 L736.7813,216.2969 C736.3438,216.2969 736.2188,216.3125 736.0625,216.4219 C735.8125,216.5781 735.6563,216.8594 735.6563,217.1563 C735.6563,217.4063 735.7969,217.6719 736.0156,217.8281 C736.1719,217.9531 736.375,218 736.7813,218 L741.9219,218 C742.6719,218 743.0313,217.7188 743.0313,217.1563 C743.0313,216.875 742.9219,216.625 742.6875,216.4531 C742.5156,216.3281 742.375,216.2969 741.9219,216.2969 L740.2031,216.2969 L740.2031,209.7813 Z "/><text fill="#000000" font-family="sans-serif" font-size="12" font-style="italic" lengthAdjust="spacingAndGlyphs" textLength="107" x="753.75" y="217.1543">PresenterCallback</text><line style="stroke: #A80036; stroke-width: 1.5;" x1="723" x2="865" y1="229" y2="229"/><line style="stroke: #A80036; stroke-width: 1.5;" x1="723" x2="865" y1="237" y2="237"/><ellipse cx="733" cy="248" fill="#84BE84" rx="3" ry="3" style="stroke: #038048; stroke-width: 1.0;"/><text fill="#000000" font-family="sans-serif" font-size="11" lengthAdjust="spacingAndGlyphs" textLength="118" x="742" y="251.2104">getActivity(): Activity</text><!--MD5=[ec1a8c1a0905d2094598a56ebb97c9ab]
class core.viper.ViperContract.Interactor--><rect codeLine="9" fill="#FEFECE" filter="url(#fnybsyh2t64xr)" height="73.6094" id="core.viper.ViperContract.Interactor" style="stroke: #A80036; stroke-width: 1.5;" width="224" x="702" y="608"/><ellipse cx="779.75" cy="624" fill="#B4A7E5" rx="11" ry="11" style="stroke: #A80036; stroke-width: 1.0;"/><path d="M780.7031,620.7813 L782.4219,620.7813 C782.8125,620.7813 783,620.75 783.125,620.6719 C783.3906,620.5156 783.5313,620.2344 783.5313,619.9375 C783.5313,619.6719 783.4219,619.4063 783.1875,619.2344 C783.0156,619.125 782.875,619.0938 782.4219,619.0938 L777.2813,619.0938 C776.8438,619.0938 776.7188,619.1094 776.5625,619.2031 C776.3125,619.3594 776.1563,619.6563 776.1563,619.9375 C776.1563,620.2188 776.2969,620.4688 776.5156,620.6406 C776.6719,620.75 776.8594,620.7813 777.2813,620.7813 L779,620.7813 L779,627.2969 L777.2813,627.2969 C776.8438,627.2969 776.7188,627.3125 776.5625,627.4219 C776.3125,627.5781 776.1563,627.8594 776.1563,628.1563 C776.1563,628.4063 776.2969,628.6719 776.5156,628.8281 C776.6719,628.9531 776.875,629 777.2813,629 L782.4219,629 C783.1719,629 783.5313,628.7188 783.5313,628.1563 C783.5313,627.875 783.4219,627.625 783.1875,627.4531 C783.0156,627.3281 782.875,627.2969 782.4219,627.2969 L780.7031,627.2969 L780.7031,620.7813 Z "/><text fill="#000000" font-family="sans-serif" font-size="12" font-style="italic" lengthAdjust="spacingAndGlyphs" textLength="60" x="800.25" y="628.1543">Interactor</text><line style="stroke: #A80036; stroke-width: 1.5;" x1="703" x2="925" y1="640" y2="640"/><line style="stroke: #A80036; stroke-width: 1.5;" x1="703" x2="925" y1="648" y2="648"/><ellipse cx="713" cy="659" fill="#84BE84" rx="3" ry="3" style="stroke: #038048; stroke-width: 1.0;"/><text fill="#000000" font-family="sans-serif" font-size="11" lengthAdjust="spacingAndGlyphs" textLength="198" x="722" y="662.2104">create(callback: InteractorCallback)</text><ellipse cx="713" cy="671.8047" fill="#84BE84" rx="3" ry="3" style="stroke: #038048; stroke-width: 1.0;"/><text fill="#000000" font-family="sans-serif" font-size="11" lengthAdjust="spacingAndGlyphs" textLength="51" x="722" y="675.0151">destroy()</text><!--MD5=[e77a630e059dc31e4db28b962d60c6d2]
class core.viper.ViperContract.InteractorCallback--><rect codeLine="13" fill="#FEFECE" filter="url(#fnybsyh2t64xr)" height="48" id="core.viper.ViperContract.InteractorCallback" style="stroke: #A80036; stroke-width: 1.5;" width="142" x="743" y="476.5"/><ellipse cx="758" cy="492.5" fill="#B4A7E5" rx="11" ry="11" style="stroke: #A80036; stroke-width: 1.0;"/><path d="M758.9531,489.2813 L760.6719,489.2813 C761.0625,489.2813 761.25,489.25 761.375,489.1719 C761.6406,489.0156 761.7813,488.7344 761.7813,488.4375 C761.7813,488.1719 761.6719,487.9063 761.4375,487.7344 C761.2656,487.625 761.125,487.5938 760.6719,487.5938 L755.5313,487.5938 C755.0938,487.5938 754.9688,487.6094 754.8125,487.7031 C754.5625,487.8594 754.4063,488.1563 754.4063,488.4375 C754.4063,488.7188 754.5469,488.9688 754.7656,489.1406 C754.9219,489.25 755.1094,489.2813 755.5313,489.2813 L757.25,489.2813 L757.25,495.7969 L755.5313,495.7969 C755.0938,495.7969 754.9688,495.8125 754.8125,495.9219 C754.5625,496.0781 754.4063,496.3594 754.4063,496.6563 C754.4063,496.9063 754.5469,497.1719 754.7656,497.3281 C754.9219,497.4531 755.125,497.5 755.5313,497.5 L760.6719,497.5 C761.4219,497.5 761.7813,497.2188 761.7813,496.6563 C761.7813,496.375 761.6719,496.125 761.4375,495.9531 C761.2656,495.8281 761.125,495.7969 760.6719,495.7969 L758.9531,495.7969 L758.9531,489.2813 Z "/><text fill="#000000" font-family="sans-serif" font-size="12" font-style="italic" lengthAdjust="spacingAndGlyphs" textLength="110" x="772" y="496.6543">InteractorCallback</text><line style="stroke: #A80036; stroke-width: 1.5;" x1="744" x2="884" y1="508.5" y2="508.5"/><line style="stroke: #A80036; stroke-width: 1.5;" x1="744" x2="884" y1="516.5" y2="516.5"/><!--MD5=[1825269ddad9ed22789ebb49bf96ca62]
class core.viper.ViperContract.Router--><rect codeLine="14" fill="#FEFECE" filter="url(#fnybsyh2t64xr)" height="48" id="core.viper.ViperContract.Router" style="stroke: #A80036; stroke-width: 1.5;" width="72" x="778" y="762.5"/><ellipse cx="793" cy="778.5" fill="#B4A7E5" rx="11" ry="11" style="stroke: #A80036; stroke-width: 1.0;"/><path d="M793.9531,775.2813 L795.6719,775.2813 C796.0625,775.2813 796.25,775.25 796.375,775.1719 C796.6406,775.0156 796.7813,774.7344 796.7813,774.4375 C796.7813,774.1719 796.6719,773.9063 796.4375,773.7344 C796.2656,773.625 796.125,773.5938 795.6719,773.5938 L790.5313,773.5938 C790.0938,773.5938 789.9688,773.6094 789.8125,773.7031 C789.5625,773.8594 789.4063,774.1563 789.4063,774.4375 C789.4063,774.7188 789.5469,774.9688 789.7656,775.1406 C789.9219,775.25 790.1094,775.2813 790.5313,775.2813 L792.25,775.2813 L792.25,781.7969 L790.5313,781.7969 C790.0938,781.7969 789.9688,781.8125 789.8125,781.9219 C789.5625,782.0781 789.4063,782.3594 789.4063,782.6563 C789.4063,782.9063 789.5469,783.1719 789.7656,783.3281 C789.9219,783.4531 790.125,783.5 790.5313,783.5 L795.6719,783.5 C796.4219,783.5 796.7813,783.2188 796.7813,782.6563 C796.7813,782.375 796.6719,782.125 796.4375,781.9531 C796.2656,781.8281 796.125,781.7969 795.6719,781.7969 L793.9531,781.7969 L793.9531,775.2813 Z "/><text fill="#000000" font-family="sans-serif" font-size="12" font-style="italic" lengthAdjust="spacingAndGlyphs" textLength="40" x="807" y="782.6543">Router</text><line style="stroke: #A80036; stroke-width: 1.5;" x1="779" x2="849" y1="794.5" y2="794.5"/><line style="stroke: #A80036; stroke-width: 1.5;" x1="779" x2="849" y1="802.5" y2="802.5"/><!--MD5=[70a7c83a782ac3748bb651aa09fb65d4]
class app.select.SelectActivity--><rect codeLine="43" fill="#FEFECE" filter="url(#fnybsyh2t64xr)" height="73.6094" id="app.select.SelectActivity" style="stroke: #A80036; stroke-width: 1.5;" width="244" x="118" y="41"/><ellipse cx="195.25" cy="57" fill="#ADD1B2" rx="11" ry="11" style="stroke: #A80036; stroke-width: 1.0;"/><path d="M197.5938,52.6719 C196.6563,52.2344 196.0625,52.0938 195.1875,52.0938 C192.5625,52.0938 190.5625,54.1719 190.5625,56.8906 L190.5625,58.0156 C190.5625,60.5938 192.6719,62.4844 195.5625,62.4844 C196.7813,62.4844 197.9375,62.1875 198.6875,61.6406 C199.2656,61.2344 199.5938,60.7813 199.5938,60.3906 C199.5938,59.9375 199.2031,59.5469 198.7344,59.5469 C198.5156,59.5469 198.3125,59.625 198.125,59.8125 C197.6719,60.2969 197.6719,60.2969 197.4844,60.3906 C197.0625,60.6563 196.375,60.7813 195.6094,60.7813 C193.5625,60.7813 192.2656,59.6875 192.2656,57.9844 L192.2656,56.8906 C192.2656,55.1094 193.5156,53.7969 195.25,53.7969 C195.8281,53.7969 196.4375,53.9531 196.9063,54.2031 C197.3906,54.4844 197.5625,54.7031 197.6563,55.1094 C197.7188,55.5156 197.75,55.6406 197.8906,55.7656 C198.0313,55.9063 198.2656,56.0156 198.4844,56.0156 C198.75,56.0156 199.0156,55.875 199.1875,55.6563 C199.2969,55.5 199.3281,55.3125 199.3281,54.8906 L199.3281,53.4688 C199.3281,53.0313 199.3125,52.9063 199.2188,52.75 C199.0625,52.4844 198.7813,52.3438 198.4844,52.3438 C198.1875,52.3438 197.9844,52.4375 197.7656,52.75 L197.5938,52.6719 Z "/><text fill="#000000" font-family="sans-serif" font-size="12" lengthAdjust="spacingAndGlyphs" textLength="81" x="215.75" y="61.1543">SelectActivity</text><line style="stroke: #A80036; stroke-width: 1.5;" x1="119" x2="361" y1="73" y2="73"/><rect fill="none" height="6" style="stroke: #C82930; stroke-width: 1.0;" width="6" x="126" y="81"/><text fill="#000000" font-family="sans-serif" font-size="11" lengthAdjust="spacingAndGlyphs" textLength="211" x="138" y="87.2104">fragmentManager: FragmentManager</text><line style="stroke: #A80036; stroke-width: 1.5;" x1="119" x2="361" y1="93.8047" y2="93.8047"/><rect fill="#F24D5C" height="6" style="stroke: #C82930; stroke-width: 1.0;" width="6" x="126" y="101.8047"/><text fill="#000000" font-family="sans-serif" font-size="11" lengthAdjust="spacingAndGlyphs" textLength="218" x="138" y="108.0151">replaceFragment(fragment: Fragment)</text><!--MD5=[00e31b6b37b4daeca188d2611a0c0985]
class app.select.SelectPresenter--><rect codeLine="47" fill="#FEFECE" filter="url(#fnybsyh2t64xr)" height="48" id="app.select.SelectPresenter" style="stroke: #A80036; stroke-width: 1.5;" width="128" x="118" y="348"/><ellipse cx="133" cy="364" fill="#ADD1B2" rx="11" ry="11" style="stroke: #A80036; stroke-width: 1.0;"/><path d="M135.3438,359.6719 C134.4063,359.2344 133.8125,359.0938 132.9375,359.0938 C130.3125,359.0938 128.3125,361.1719 128.3125,363.8906 L128.3125,365.0156 C128.3125,367.5938 130.4219,369.4844 133.3125,369.4844 C134.5313,369.4844 135.6875,369.1875 136.4375,368.6406 C137.0156,368.2344 137.3438,367.7813 137.3438,367.3906 C137.3438,366.9375 136.9531,366.5469 136.4844,366.5469 C136.2656,366.5469 136.0625,366.625 135.875,366.8125 C135.4219,367.2969 135.4219,367.2969 135.2344,367.3906 C134.8125,367.6563 134.125,367.7813 133.3594,367.7813 C131.3125,367.7813 130.0156,366.6875 130.0156,364.9844 L130.0156,363.8906 C130.0156,362.1094 131.2656,360.7969 133,360.7969 C133.5781,360.7969 134.1875,360.9531 134.6563,361.2031 C135.1406,361.4844 135.3125,361.7031 135.4063,362.1094 C135.4688,362.5156 135.5,362.6406 135.6406,362.7656 C135.7813,362.9063 136.0156,363.0156 136.2344,363.0156 C136.5,363.0156 136.7656,362.875 136.9375,362.6563 C137.0469,362.5 137.0781,362.3125 137.0781,361.8906 L137.0781,360.4688 C137.0781,360.0313 137.0625,359.9063 136.9688,359.75 C136.8125,359.4844 136.5313,359.3438 136.2344,359.3438 C135.9375,359.3438 135.7344,359.4375 135.5156,359.75 L135.3438,359.6719 Z "/><text fill="#000000" font-family="sans-serif" font-size="12" lengthAdjust="spacingAndGlyphs" textLength="96" x="147" y="368.1543">SelectPresenter</text><line style="stroke: #A80036; stroke-width: 1.5;" x1="119" x2="245" y1="380" y2="380"/><line style="stroke: #A80036; stroke-width: 1.5;" x1="119" x2="245" y1="388" y2="388"/><!--MD5=[f96b8487255f796efee142da613d866c]
class app.select.SelectInteractor--><rect codeLine="48" fill="#FEFECE" filter="url(#fnybsyh2t64xr)" height="73.6094" id="app.select.SelectInteractor" style="stroke: #A80036; stroke-width: 1.5;" width="213" x="32.5" y="608"/><ellipse cx="86.75" cy="624" fill="#ADD1B2" rx="11" ry="11" style="stroke: #A80036; stroke-width: 1.0;"/><path d="M89.0938,619.6719 C88.1563,619.2344 87.5625,619.0938 86.6875,619.0938 C84.0625,619.0938 82.0625,621.1719 82.0625,623.8906 L82.0625,625.0156 C82.0625,627.5938 84.1719,629.4844 87.0625,629.4844 C88.2813,629.4844 89.4375,629.1875 90.1875,628.6406 C90.7656,628.2344 91.0938,627.7813 91.0938,627.3906 C91.0938,626.9375 90.7031,626.5469 90.2344,626.5469 C90.0156,626.5469 89.8125,626.625 89.625,626.8125 C89.1719,627.2969 89.1719,627.2969 88.9844,627.3906 C88.5625,627.6563 87.875,627.7813 87.1094,627.7813 C85.0625,627.7813 83.7656,626.6875 83.7656,624.9844 L83.7656,623.8906 C83.7656,622.1094 85.0156,620.7969 86.75,620.7969 C87.3281,620.7969 87.9375,620.9531 88.4063,621.2031 C88.8906,621.4844 89.0625,621.7031 89.1563,622.1094 C89.2188,622.5156 89.25,622.6406 89.3906,622.7656 C89.5313,622.9063 89.7656,623.0156 89.9844,623.0156 C90.25,623.0156 90.5156,622.875 90.6875,622.6563 C90.7969,622.5 90.8281,622.3125 90.8281,621.8906 L90.8281,620.4688 C90.8281,620.0313 90.8125,619.9063 90.7188,619.75 C90.5625,619.4844 90.2813,619.3438 89.9844,619.3438 C89.6875,619.3438 89.4844,619.4375 89.2656,619.75 L89.0938,619.6719 Z "/><text fill="#000000" font-family="sans-serif" font-size="12" lengthAdjust="spacingAndGlyphs" textLength="96" x="107.25" y="628.1543">SelectInteractor</text><line style="stroke: #A80036; stroke-width: 1.5;" x1="33.5" x2="244.5" y1="640" y2="640"/><rect fill="none" height="6" style="stroke: #C82930; stroke-width: 1.0;" width="6" x="40.5" y="648"/><text fill="#000000" font-family="sans-serif" font-size="11" lengthAdjust="spacingAndGlyphs" textLength="160" x="52.5" y="654.2104">appDatabase: AppDatabase</text><rect fill="none" height="6" style="stroke: #C82930; stroke-width: 1.0;" width="6" x="40.5" y="660.8047"/><text fill="#000000" font-family="sans-serif" font-size="11" lengthAdjust="spacingAndGlyphs" textLength="187" x="52.5" y="667.0151">googleWebApis: GoogleWebApis</text><line style="stroke: #A80036; stroke-width: 1.5;" x1="33.5" x2="244.5" y1="673.6094" y2="673.6094"/><!--MD5=[dfa1f81480c24203dc41db8ece4b4711]
class app.select.SelectContract.Presenter--><rect codeLine="25" fill="#FEFECE" filter="url(#fnybsyh2t64xr)" height="60.8047" id="app.select.SelectContract.Presenter" style="stroke: #A80036; stroke-width: 1.5;" width="188" x="356" y="341.5"/><ellipse cx="417.25" cy="357.5" fill="#B4A7E5" rx="11" ry="11" style="stroke: #A80036; stroke-width: 1.0;"/><path d="M418.2031,354.2813 L419.9219,354.2813 C420.3125,354.2813 420.5,354.25 420.625,354.1719 C420.8906,354.0156 421.0313,353.7344 421.0313,353.4375 C421.0313,353.1719 420.9219,352.9063 420.6875,352.7344 C420.5156,352.625 420.375,352.5938 419.9219,352.5938 L414.7813,352.5938 C414.3438,352.5938 414.2188,352.6094 414.0625,352.7031 C413.8125,352.8594 413.6563,353.1563 413.6563,353.4375 C413.6563,353.7188 413.7969,353.9688 414.0156,354.1406 C414.1719,354.25 414.3594,354.2813 414.7813,354.2813 L416.5,354.2813 L416.5,360.7969 L414.7813,360.7969 C414.3438,360.7969 414.2188,360.8125 414.0625,360.9219 C413.8125,361.0781 413.6563,361.3594 413.6563,361.6563 C413.6563,361.9063 413.7969,362.1719 414.0156,362.3281 C414.1719,362.4531 414.375,362.5 414.7813,362.5 L419.9219,362.5 C420.6719,362.5 421.0313,362.2188 421.0313,361.6563 C421.0313,361.375 420.9219,361.125 420.6875,360.9531 C420.5156,360.8281 420.375,360.7969 419.9219,360.7969 L418.2031,360.7969 L418.2031,354.2813 Z "/><text fill="#000000" font-family="sans-serif" font-size="12" font-style="italic" lengthAdjust="spacingAndGlyphs" textLength="57" x="437.75" y="361.6543">Presenter</text><line style="stroke: #A80036; stroke-width: 1.5;" x1="357" x2="543" y1="373.5" y2="373.5"/><line style="stroke: #A80036; stroke-width: 1.5;" x1="357" x2="543" y1="381.5" y2="381.5"/><ellipse cx="367" cy="392.5" fill="#84BE84" rx="3" ry="3" style="stroke: #038048; stroke-width: 1.0;"/><text fill="#000000" font-family="sans-serif" font-size="11" lengthAdjust="spacingAndGlyphs" textLength="162" x="376" y="395.7104">requestLoadSharedAlbums()</text><!--MD5=[e8239d60d739d9bdfcfc1a5595a747d4]
class app.select.SelectContract.PresenterCallback--><rect codeLine="28" fill="#FEFECE" filter="url(#fnybsyh2t64xr)" height="60.8047" id="app.select.SelectContract.PresenterCallback" style="stroke: #A80036; stroke-width: 1.5;" width="344" x="278" y="197"/><ellipse cx="392.25" cy="213" fill="#B4A7E5" rx="11" ry="11" style="stroke: #A80036; stroke-width: 1.0;"/><path d="M393.2031,209.7813 L394.9219,209.7813 C395.3125,209.7813 395.5,209.75 395.625,209.6719 C395.8906,209.5156 396.0313,209.2344 396.0313,208.9375 C396.0313,208.6719 395.9219,208.4063 395.6875,208.2344 C395.5156,208.125 395.375,208.0938 394.9219,208.0938 L389.7813,208.0938 C389.3438,208.0938 389.2188,208.1094 389.0625,208.2031 C388.8125,208.3594 388.6563,208.6563 388.6563,208.9375 C388.6563,209.2188 388.7969,209.4688 389.0156,209.6406 C389.1719,209.75 389.3594,209.7813 389.7813,209.7813 L391.5,209.7813 L391.5,216.2969 L389.7813,216.2969 C389.3438,216.2969 389.2188,216.3125 389.0625,216.4219 C388.8125,216.5781 388.6563,216.8594 388.6563,217.1563 C388.6563,217.4063 388.7969,217.6719 389.0156,217.8281 C389.1719,217.9531 389.375,218 389.7813,218 L394.9219,218 C395.6719,218 396.0313,217.7188 396.0313,217.1563 C396.0313,216.875 395.9219,216.625 395.6875,216.4531 C395.5156,216.3281 395.375,216.2969 394.9219,216.2969 L393.2031,216.2969 L393.2031,209.7813 Z "/><text fill="#000000" font-family="sans-serif" font-size="12" font-style="italic" lengthAdjust="spacingAndGlyphs" textLength="107" x="412.75" y="217.1543">PresenterCallback</text><line style="stroke: #A80036; stroke-width: 1.5;" x1="279" x2="621" y1="229" y2="229"/><line style="stroke: #A80036; stroke-width: 1.5;" x1="279" x2="621" y1="237" y2="237"/><ellipse cx="289" cy="248" fill="#84BE84" rx="3" ry="3" style="stroke: #038048; stroke-width: 1.0;"/><text fill="#000000" font-family="sans-serif" font-size="11" lengthAdjust="spacingAndGlyphs" textLength="318" x="298" y="251.2104">requestLoadSharedAlbumsResult(albums: List&lt;Album&gt;)</text><!--MD5=[95ea448edb68bb8b8ff8097bebb48fe0]
class app.select.SelectContract.Interactor--><rect codeLine="31" fill="#FEFECE" filter="url(#fnybsyh2t64xr)" height="60.8047" id="app.select.SelectContract.Interactor" style="stroke: #A80036; stroke-width: 1.5;" width="188" x="356" y="614.5"/><ellipse cx="415.75" cy="630.5" fill="#B4A7E5" rx="11" ry="11" style="stroke: #A80036; stroke-width: 1.0;"/><path d="M416.7031,627.2813 L418.4219,627.2813 C418.8125,627.2813 419,627.25 419.125,627.1719 C419.3906,627.0156 419.5313,626.7344 419.5313,626.4375 C419.5313,626.1719 419.4219,625.9063 419.1875,625.7344 C419.0156,625.625 418.875,625.5938 418.4219,625.5938 L413.2813,625.5938 C412.8438,625.5938 412.7188,625.6094 412.5625,625.7031 C412.3125,625.8594 412.1563,626.1563 412.1563,626.4375 C412.1563,626.7188 412.2969,626.9688 412.5156,627.1406 C412.6719,627.25 412.8594,627.2813 413.2813,627.2813 L415,627.2813 L415,633.7969 L413.2813,633.7969 C412.8438,633.7969 412.7188,633.8125 412.5625,633.9219 C412.3125,634.0781 412.1563,634.3594 412.1563,634.6563 C412.1563,634.9063 412.2969,635.1719 412.5156,635.3281 C412.6719,635.4531 412.875,635.5 413.2813,635.5 L418.4219,635.5 C419.1719,635.5 419.5313,635.2188 419.5313,634.6563 C419.5313,634.375 419.4219,634.125 419.1875,633.9531 C419.0156,633.8281 418.875,633.7969 418.4219,633.7969 L416.7031,633.7969 L416.7031,627.2813 Z "/><text fill="#000000" font-family="sans-serif" font-size="12" font-style="italic" lengthAdjust="spacingAndGlyphs" textLength="60" x="436.25" y="634.6543">Interactor</text><line style="stroke: #A80036; stroke-width: 1.5;" x1="357" x2="543" y1="646.5" y2="646.5"/><line style="stroke: #A80036; stroke-width: 1.5;" x1="357" x2="543" y1="654.5" y2="654.5"/><ellipse cx="367" cy="665.5" fill="#84BE84" rx="3" ry="3" style="stroke: #038048; stroke-width: 1.0;"/><text fill="#000000" font-family="sans-serif" font-size="11" lengthAdjust="spacingAndGlyphs" textLength="162" x="376" y="668.7104">requestLoadSharedAlbums()</text><!--MD5=[71c3da3d5e7f638828af9d23efad60c6]
class app.select.SelectContract.InteractorCallback--><rect codeLine="34" fill="#FEFECE" filter="url(#fnybsyh2t64xr)" height="60.8047" id="app.select.SelectContract.InteractorCallback" style="stroke: #A80036; stroke-width: 1.5;" width="344" x="278" y="470"/><ellipse cx="390.75" cy="486" fill="#B4A7E5" rx="11" ry="11" style="stroke: #A80036; stroke-width: 1.0;"/><path d="M391.7031,482.7813 L393.4219,482.7813 C393.8125,482.7813 394,482.75 394.125,482.6719 C394.3906,482.5156 394.5313,482.2344 394.5313,481.9375 C394.5313,481.6719 394.4219,481.4063 394.1875,481.2344 C394.0156,481.125 393.875,481.0938 393.4219,481.0938 L388.2813,481.0938 C387.8438,481.0938 387.7188,481.1094 387.5625,481.2031 C387.3125,481.3594 387.1563,481.6563 387.1563,481.9375 C387.1563,482.2188 387.2969,482.4688 387.5156,482.6406 C387.6719,482.75 387.8594,482.7813 388.2813,482.7813 L390,482.7813 L390,489.2969 L388.2813,489.2969 C387.8438,489.2969 387.7188,489.3125 387.5625,489.4219 C387.3125,489.5781 387.1563,489.8594 387.1563,490.1563 C387.1563,490.4063 387.2969,490.6719 387.5156,490.8281 C387.6719,490.9531 387.875,491 388.2813,491 L393.4219,491 C394.1719,491 394.5313,490.7188 394.5313,490.1563 C394.5313,489.875 394.4219,489.625 394.1875,489.4531 C394.0156,489.3281 393.875,489.2969 393.4219,489.2969 L391.7031,489.2969 L391.7031,482.7813 Z "/><text fill="#000000" font-family="sans-serif" font-size="12" font-style="italic" lengthAdjust="spacingAndGlyphs" textLength="110" x="411.25" y="490.1543">InteractorCallback</text><line style="stroke: #A80036; stroke-width: 1.5;" x1="279" x2="621" y1="502" y2="502"/><line style="stroke: #A80036; stroke-width: 1.5;" x1="279" x2="621" y1="510" y2="510"/><ellipse cx="289" cy="521" fill="#84BE84" rx="3" ry="3" style="stroke: #038048; stroke-width: 1.0;"/><text fill="#000000" font-family="sans-serif" font-size="11" lengthAdjust="spacingAndGlyphs" textLength="318" x="298" y="524.2104">requestLoadSharedAlbumsResult(albums: List&lt;Album&gt;)</text><!--MD5=[87f8738a1428cad8e95c20e665af5898]
link core.viper.ViperContract.PresenterCallback to core.viper.ViperContract.Presenter--><!--MD5=[6573e0256b6fb7c6a0505a89fdc8309d]
link core.viper.ViperContract.Presenter to core.viper.ViperContract.InteractorCallback--><!--MD5=[f8d939142a6dbc42db09fcc57fec4775]
link core.viper.ViperContract.InteractorCallback to core.viper.ViperContract.Interactor--><!--MD5=[37f12353853fdc756113b71d7b56ae43]
link core.viper.ViperContract.Interactor to core.viper.ViperContract.Router--><!--MD5=[028b06ff1961b9fc1a5ce4af78f578c5]
link app.select.SelectContract.PresenterCallback to app.select.SelectContract.Presenter--><!--MD5=[a9a5a8fa94f1fb890d1a68c44cc54a78]
link app.select.SelectContract.Presenter to app.select.SelectContract.InteractorCallback--><!--MD5=[20ae6cf727b9f0c05f2f55f042f86ed0]
link app.select.SelectContract.InteractorCallback to app.select.SelectContract.Interactor--><!--MD5=[0a951a5b0a28d7e157ef54e87e3f2deb]
reverse link app.select.SelectActivity to app.select.SelectPresenter--><path codeLine="53" d="M199.904,125.846 C194.236,134.702 189.241,144.259 186,154 C163.575,221.394 172.005,307.193 178.01,347.753 " fill="none" id="app.select.SelectActivity-backto-app.select.SelectPresenter" style="stroke: #A80036; stroke-width: 1.0;"/><polygon fill="#FFFFFF" points="207.364,115.041,200.6633,117.7058,200.546,124.9159,207.2466,122.2511,207.364,115.041" style="stroke: #A80036; stroke-width: 1.0;"/><rect fill="none" height="6" style="stroke: #C82930; stroke-width: 1.0;" width="6" x="189" y="225.0664"/><text fill="#000000" font-family="sans-serif" font-size="13" lengthAdjust="spacingAndGlyphs" textLength="62" x="199" y="232.0669">presenter</text><!--MD5=[60a02d9a398a04492669dbfe7d016817]
reverse link app.select.SelectPresenter to app.select.SelectInteractor--><path codeLine="54" d="M176.252,409.223 C168.021,461.101 152.963,556.001 144.737,607.843 " fill="none" id="app.select.SelectPresenter-backto-app.select.SelectInteractor" style="stroke: #A80036; stroke-width: 1.0;"/><polygon fill="#FFFFFF" points="178.334,396.105,173.4431,401.404,176.4534,407.9567,181.3443,402.6577,178.334,396.105" style="stroke: #A80036; stroke-width: 1.0;"/><rect fill="none" height="6" style="stroke: #C82930; stroke-width: 1.0;" width="6" x="170" y="498.0664"/><text fill="#000000" font-family="sans-serif" font-size="13" lengthAdjust="spacingAndGlyphs" textLength="62" x="180" y="505.0669">interactor</text><!--MD5=[5551df2b55517645c6806554f920f425]
link app.select.SelectPresenter to app.select.SelectContract.Presenter--><path codeLine="56" d="M246.121,372 C275.921,372 305.722,372 335.522,372 " fill="none" id="app.select.SelectPresenter-to-app.select.SelectContract.Presenter" style="stroke: #A80036; stroke-width: 1.0; stroke-dasharray: 7.0,7.0;"/><polygon fill="none" points="335.626,365,355.626,372,335.626,379,335.626,365" style="stroke: #A80036; stroke-width: 1.0;"/><!--MD5=[d4b218f642573585c6fdb8b18bf0b38c]
link app.select.SelectInteractor to app.select.SelectContract.Interactor--><path codeLine="57" d="M245.603,645 C275.587,645 305.572,645 335.557,645 " fill="none" id="app.select.SelectInteractor-to-app.select.SelectContract.Interactor" style="stroke: #A80036; stroke-width: 1.0; stroke-dasharray: 7.0,7.0;"/><polygon fill="none" points="335.786,638,355.786,645,335.786,652,335.786,638" style="stroke: #A80036; stroke-width: 1.0;"/><!--MD5=[518b0a590f095178bb709d2f71f736a5]
link app.select.SelectContract.PresenterCallback to app.select.SelectPresenter--><path codeLine="59" d="M394.47,258.026 C348.35,282.549 283.081,317.254 237.085,341.711 " fill="none" id="app.select.SelectContract.PresenterCallback-to-app.select.SelectPresenter" style="stroke: #A80036; stroke-width: 1.0;"/><polygon fill="#FFFFFF" points="225.536,347.851,232.7116,348.5655,236.131,342.2166,228.9554,341.5021,225.536,347.851" style="stroke: #A80036; stroke-width: 1.0;"/><text fill="#000000" font-family="sans-serif" font-size="13" lengthAdjust="spacingAndGlyphs" textLength="51" x="334" y="301.0669">callback</text><!--MD5=[c6e90a6ddb3291989ca48a3d33888b24]
link app.select.SelectContract.InteractorCallback to app.select.SelectInteractor--><path codeLine="60" d="M385.561,531.026 C340.525,551.662 279.754,579.507 229.815,602.389 " fill="none" id="app.select.SelectContract.InteractorCallback-to-app.select.SelectInteractor" style="stroke: #A80036; stroke-width: 1.0;"/><polygon fill="#FFFFFF" points="217.698,607.941,224.8189,609.0779,228.6072,602.942,221.4863,601.8051,217.698,607.941" style="stroke: #A80036; stroke-width: 1.0;"/><text fill="#000000" font-family="sans-serif" font-size="13" lengthAdjust="spacingAndGlyphs" textLength="51" x="315" y="574.0669">callback</text><!--MD5=[80c17066294f72997424444c7f7ac85c]
link app.select.SelectActivity to app.select.SelectContract.PresenterCallback--><path codeLine="62" d="M291.372,115.083 C321.596,136.311 359.923,163.231 391.332,185.292 " fill="none" id="app.select.SelectActivity-to-app.select.SelectContract.PresenterCallback" style="stroke: #A80036; stroke-width: 1.0; stroke-dasharray: 7.0,7.0;"/><polygon fill="none" points="395.631,179.758,407.974,196.981,387.584,191.214,395.631,179.758" style="stroke: #A80036; stroke-width: 1.0;"/><!--MD5=[e3e52e999eda5a49de1f11ab0967e13b]
link app.select.SelectPresenter to app.select.SelectContract.InteractorCallback--><path codeLine="63" d="M230.844,396.055 C269.372,414.241 323.938,439.997 368.983,461.259 " fill="none" id="app.select.SelectPresenter-to-app.select.SelectContract.InteractorCallback" style="stroke: #A80036; stroke-width: 1.0; stroke-dasharray: 7.0,7.0;"/><polygon fill="none" points="372.212,455.042,387.311,469.91,366.236,467.703,372.212,455.042" style="stroke: #A80036; stroke-width: 1.0;"/><!--MD5=[e176c1425056e5fee4882b263f613b37]
link app.select.SelectContract.PresenterCallback to core.viper.ViperContract.PresenterCallback--><path codeLine="66" d="M622.336,227.5 C648.786,227.5 675.237,227.5 701.688,227.5 " fill="none" id="app.select.SelectContract.PresenterCallback-to-core.viper.ViperContract.PresenterCallback" style="stroke: #A80036; stroke-width: 1.0; stroke-dasharray: 7.0,7.0;"/><polygon fill="none" points="701.915,220.5,721.915,227.5,701.914,234.5,701.915,220.5" style="stroke: #A80036; stroke-width: 1.0;"/><!--MD5=[8ee638c6ad8240d869dffc326c5b7c9b]
link app.select.SelectContract.Presenter to core.viper.ViperContract.Presenter--><path codeLine="67" d="M544.102,372 C590.14,372 636.179,372 682.218,372 " fill="none" id="app.select.SelectContract.Presenter-to-core.viper.ViperContract.Presenter" style="stroke: #A80036; stroke-width: 1.0; stroke-dasharray: 7.0,7.0;"/><polygon fill="none" points="682.302,365,702.302,372,682.302,379,682.302,365" style="stroke: #A80036; stroke-width: 1.0;"/><!--MD5=[1784da9b977aec65d41ef14fa682d2fd]
link app.select.SelectContract.InteractorCallback to core.viper.ViperContract.InteractorCallback--><path codeLine="68" d="M622.047,500.5 C655.528,500.5 689.009,500.5 722.49,500.5 " fill="none" id="app.select.SelectContract.InteractorCallback-to-core.viper.ViperContract.InteractorCallback" style="stroke: #A80036; stroke-width: 1.0; stroke-dasharray: 7.0,7.0;"/><polygon fill="none" points="722.767,493.5,742.767,500.5,722.767,507.5,722.767,493.5" style="stroke: #A80036; stroke-width: 1.0;"/><!--MD5=[ad32ad27463354ecb5a4488686ec8cd9]
link app.select.SelectContract.Interactor to core.viper.ViperContract.Interactor--><path codeLine="69" d="M544.199,645 C590.051,645 635.904,645 681.756,645 " fill="none" id="app.select.SelectContract.Interactor-to-core.viper.ViperContract.Interactor" style="stroke: #A80036; stroke-width: 1.0; stroke-dasharray: 7.0,7.0;"/><polygon fill="none" points="681.759,638,701.759,645,681.759,652,681.759,638" style="stroke: #A80036; stroke-width: 1.0;"/><!--MD5=[0e155baaf0827b3e952f094eb197191e]
@startuml
namespace core.viper.ViperContract #DDDDDD {
  interface Presenter {
    + create(callback: PresenterCallback)
    + destroy()
  }
  interface PresenterCallback {
    + getActivity(): Activity
  }
  interface Interactor {
    + create(callback: InteractorCallback)
    + destroy()
  }
  interface InteractorCallback
  interface Router

  PresenterCallback -[hidden]-> Presenter
  Presenter -[hidden]-> InteractorCallback
  InteractorCallback -[hidden]-> Interactor
  Interactor -[hidden]-> Router
}

namespace app.select #FFFFEE {

  namespace app.select.SelectContract #EEEEEE {
    interface Presenter {
      + requestLoadSharedAlbums()
    }
    interface PresenterCallback {
      + requestLoadSharedAlbumsResult(albums: List<Album>)
    }
    interface Interactor {
      + requestLoadSharedAlbums()
    }
    interface InteractorCallback {
      + requestLoadSharedAlbumsResult(albums: List<Album>)
    }

    PresenterCallback -[hidden]-> Presenter
    Presenter -[hidden]-> InteractorCallback
    InteractorCallback -[hidden]-> Interactor
  }

  class SelectActivity {
    - fragmentManager: FragmentManager
    - replaceFragment(fragment: Fragment)
  }
  class SelectPresenter
  class SelectInteractor {
    - appDatabase: AppDatabase
    - googleWebApis: GoogleWebApis
  }

  SelectActivity o-down- - SelectPresenter: - presenter
  SelectPresenter o-down- - SelectInteractor: - interactor

  SelectPresenter .right.|> app.select.SelectContract.Presenter
  SelectInteractor .right.|> app.select.SelectContract.Interactor

  SelectPresenter o-up- app.select.SelectContract.PresenterCallback: - callback
  SelectInteractor o-up- app.select.SelectContract.InteractorCallback: - callback

  SelectActivity .down.|> app.select.SelectContract.PresenterCallback
  SelectPresenter .down.|> app.select.SelectContract.InteractorCallback
}

app.select.SelectContract.PresenterCallback .right.|> core.viper.ViperContract.PresenterCallback
app.select.SelectContract.Presenter .right.|> core.viper.ViperContract.Presenter
app.select.SelectContract.InteractorCallback .right.|> core.viper.ViperContract.InteractorCallback
app.select.SelectContract.Interactor .right.|> core.viper.ViperContract.Interactor
@enduml

PlantUML version 1.2020.16beta10(Unknown compile time)
(GPL source distribution)
Java Runtime: Java(TM) SE Runtime Environment
JVM: Java HotSpot(TM) 64-Bit Server VM
Default Encoding: UTF-8
Language: en
Country: US
--></g></svg>